<?xml version="1.0" encoding="UTF-8"?><!DOCTYPE svg PUBLIC "-//W3C//DTD SVG 1.1//EN" "http://www.w3.org/Graphics/SVG/1.1/DTD/svg11.dtd"><svg xmlns="http://www.w3.org/2000/svg"><symbol id="arrow-right-icon" viewBox="0 0 16 16"><title>arrow</title><g id="Artboard" fill="none" fill-rule="evenodd" transform="translate(-3299 -1939)"><path d="M3310.803 1945.906l-4.584-4.583a1.068 1.068 0 1 1 1.51-1.51l6.458 6.458a1.068 1.068 0 0 1 0 1.51l-6.13 6.131a1.068 1.068 0 1 1-1.51-1.51l4.36-4.36h-10.34a1.068 1.068 0 1 1 0-2.136h10.236z" id="arrow" fill="#FFF" fill-rule="nonzero"/></g></symbol><symbol id="calendar-icon" viewBox="0 0 15 17"><title>calendar-icon</title><g id="OG" fill="none" fill-rule="evenodd" transform="translate(-1199 -30)"><g id="Group-4" transform="translate(134)" fill="#FFF" fill-rule="nonzero"><g id="Group-14"><g id="Group-8" transform="translate(1057 22)"><g id="search-button" transform="translate(0 1)"><g id="noun_1150462_cc" transform="translate(8 7)"><path d="M4.977 3.077h4.827a.56.56 0 0 0 .548-.573.56.56 0 0 0-.548-.572H4.977a.56.56 0 0 0-.548.572.56.56 0 0 0 .548.573zm8.708-1.145h-.76a.56.56 0 0 0-.547.572.56.56 0 0 0 .548.573h.76c.12 0 .218.102.218.229v2.566H1.095V3.306c0-.127.099-.23.22-.23h.54a.56.56 0 0 0 .548-.572.56.56 0 0 0-.548-.572h-.54C.59 1.932 0 2.548 0 3.306v11.82c0 .758.59 1.374 1.314 1.374h12.372c.724 0 1.314-.616 1.314-1.374V3.306c0-.758-.59-1.374-1.315-1.374zm.22 13.194a.224.224 0 0 1-.22.23H1.315a.224.224 0 0 1-.22-.23v-8.11h12.81v8.11zM3.446 4.722a.56.56 0 0 0 .548-.572V.572A.56.56 0 0 0 3.447 0a.56.56 0 0 0-.548.572V4.15a.56.56 0 0 0 .548.572zm7.969 0a.56.56 0 0 0 .548-.572V.572A.56.56 0 0 0 11.416 0a.56.56 0 0 0-.548.572V4.15a.56.56 0 0 0 .548.572z" id="calendar-icon"/></g></g></g></g></g></g></symbol><symbol id="close-icon" viewBox="0 0 15 15"><title>close-icon</title><g id="Medium" fill="none" fill-rule="evenodd" transform="translate(-335 -79)"><path d="M349.727 92.745a.694.694 0 1 1-.982.982l-6.28-6.28-6.28 6.28a.693.693 0 0 1-.981 0 .694.694 0 0 1 0-.982l6.28-6.28-6.28-6.28a.694.694 0 1 1 .981-.981l6.28 6.28 6.28-6.28a.694.694 0 1 1 .982.981l-6.28 6.28 6.28 6.28z" id="close-icon" fill="#FFF" fill-rule="nonzero"/></g></symbol><symbol id="menu-icon" viewBox="0 0 15 12"><title>Shape</title><g id="Navigation-Mobile" fill="none" fill-rule="evenodd" transform="translate(-24 -22)"><g id="Group-2" fill="#FFF" fill-rule="nonzero"><path d="M24.77 22.071a.778.778 0 0 0-.77.787c0 .435.344.787.77.787h13.46c.426 0 .77-.352.77-.787a.778.778 0 0 0-.77-.787H24.77zm-.139 5.115c-.348 0-.631.352-.631.787 0 .434.283.787.631.787h11.046c.348 0 .63-.353.63-.787 0-.435-.282-.787-.63-.787H24.63zm.138 5.115a.778.778 0 0 0-.769.787c0 .434.344.787.77.787h13.46c.426 0 .77-.353.77-.787a.778.778 0 0 0-.77-.787H24.77z" id="Shape"/></g></g></symbol><symbol id="recommend-icon" viewBox="0 0 15 15"><title>recommend-icon</title><g id="Large" fill="none" fill-rule="evenodd" transform="translate(-1270 -547)"><path d="M1284.68 555.635c0-.27-.084-.54-.236-.759.32-.253.54-.64.54-1.08a1.35 1.35 0 0 0-1.332-1.349h-3.27l.27-1.517a3.8 3.8 0 0 0-.202-2.125l-.338-.827c0-.017-.016-.034-.033-.05a1.359 1.359 0 0 0-1.23-.793c-.742 0-1.349.607-1.349 1.35v.792c0 .658-.202 1.265-.573 1.804l-1.955 2.699a.627.627 0 0 0-.472-.22h-3.809a.633.633 0 0 0-.624.625v6.358c0 .337.287.624.624.624h3.809a.633.633 0 0 0 .624-.624v-.557c.168.05.337.152.522.236.388.203.843.439 1.433.439h5.646c.741 0 1.348-.607 1.348-1.35 0-.27-.084-.522-.22-.742.321-.253.54-.64.54-1.079 0-.27-.084-.523-.236-.742.304-.27.523-.658.523-1.113zm-10.416 4.672h-3.37v-5.92h3.37v5.92zm8.444-.506h-5.646c-.388 0-.691-.152-1.045-.338-.27-.135-.556-.286-.91-.37v-4.082l2.477-3.424v-.017l.034-.05c0-.017.017-.017.017-.034.421-.607.64-1.315.674-2.04v-.962c0-.287.236-.506.506-.506.219 0 .404.135.488.337l.32.81c.135.354.22.742.22 1.13 0 .185-.017.354-.05.54l-.355 2.023V552.97c0 .017.017.034.017.05 0 .018 0 .018.017.035 0 .016.017.016.017.033s.017.017.017.034.016.017.033.034l.034.033.034.034c.017 0 .017.017.033.017.017 0 .017.017.034.017s.017.017.034.017.017 0 .034.017c.016 0 .033.017.05.017h3.826c.286 0 .506.236.506.505 0 .27-.236.506-.506.506-.034 0-.067 0-.101.017-.017 0-.034.017-.05.017a.465.465 0 0 0-.254.253.419.419 0 0 0 .253.54c.22.067.354.27.354.489a.525.525 0 0 1-.522.523h-.017a.45.45 0 0 0-.421.303.426.426 0 0 0 .286.523c.22.068.354.27.354.49 0 .27-.22.505-.506.505a.446.446 0 0 0-.32.152l-.017.017s0 .017-.017.017c-.016.033-.05.067-.067.118-.067.219.05.455.27.54a.491.491 0 0 1 .337.472c.033.27-.186.506-.472.506z" id="recommend-icon" fill="#FFF" fill-rule="nonzero"/></g></symbol><symbol id="search-icon" viewBox="0 0 17 17"><title>search-icon</title><g id="OG" fill="none" fill-rule="evenodd" transform="translate(-1243 -30)"><g id="Group-4" transform="translate(134)" fill="#FFF" fill-rule="nonzero"><g id="Group-14"><g id="search-button" transform="translate(1102 23)"><path d="M22.517 23.167a.648.648 0 0 1-.459-.19l-3.268-3.269c-.218-.218-.49-.399-1.178-.013-2.732 1.527-5.964 1.156-8.042-.923a6.515 6.515 0 0 1 0-9.202 6.515 6.515 0 0 1 9.202 0 6.476 6.476 0 0 1 .926 8.038.65.65 0 0 1-1.103-.687 5.184 5.184 0 0 0-.74-6.433 5.215 5.215 0 0 0-7.367 0 5.215 5.215 0 0 0 0 7.366c1.663 1.664 4.272 1.948 6.49.707 1.326-.741 2.216-.285 2.73.229l3.268 3.268a.649.649 0 0 1-.459 1.109z" id="search-icon"/></g></g></g></g></symbol></svg>