<?xml version="1.0" encoding="UTF-8"?><!DOCTYPE svg PUBLIC "-//W3C//DTD SVG 1.1//EN" "http://www.w3.org/Graphics/SVG/1.1/DTD/svg11.dtd"><svg xmlns="http://www.w3.org/2000/svg"><symbol id="calendar-icon" viewBox="0 0 15 17"><title>calendar-icon</title><g id="OG" fill="none" fill-rule="evenodd" transform="translate(-1199 -30)"><g id="Group-4" transform="translate(134)" fill="#FFF" fill-rule="nonzero"><g id="Group-14"><g id="Group-8" transform="translate(1057 22)"><g id="search-button" transform="translate(0 1)"><g id="noun_1150462_cc" transform="translate(8 7)"><path d="M4.977 3.077h4.827a.56.56 0 0 0 .548-.573.56.56 0 0 0-.548-.572H4.977a.56.56 0 0 0-.548.572.56.56 0 0 0 .548.573zm8.708-1.145h-.76a.56.56 0 0 0-.547.572.56.56 0 0 0 .548.573h.76c.12 0 .218.102.218.229v2.566H1.095V3.306c0-.127.099-.23.22-.23h.54a.56.56 0 0 0 .548-.572.56.56 0 0 0-.548-.572h-.54C.59 1.932 0 2.548 0 3.306v11.82c0 .758.59 1.374 1.314 1.374h12.372c.724 0 1.314-.616 1.314-1.374V3.306c0-.758-.59-1.374-1.315-1.374zm.22 13.194a.224.224 0 0 1-.22.23H1.315a.224.224 0 0 1-.22-.23v-8.11h12.81v8.11zM3.446 4.722a.56.56 0 0 0 .548-.572V.572A.56.56 0 0 0 3.447 0a.56.56 0 0 0-.548.572V4.15a.56.56 0 0 0 .548.572zm7.969 0a.56.56 0 0 0 .548-.572V.572A.56.56 0 0 0 11.416 0a.56.56 0 0 0-.548.572V4.15a.56.56 0 0 0 .548.572z" id="calendar-icon"/></g></g></g></g></g></g></symbol><symbol id="menu-icon" viewBox="0 0 15 12"><title>Shape</title><g id="Navigation-Mobile" fill="none" fill-rule="evenodd" transform="translate(-24 -22)"><g id="Group-2" fill="#FFF" fill-rule="nonzero"><path d="M24.77 22.071a.778.778 0 0 0-.77.787c0 .435.344.787.77.787h13.46c.426 0 .77-.352.77-.787a.778.778 0 0 0-.77-.787H24.77zm-.139 5.115c-.348 0-.631.352-.631.787 0 .434.283.787.631.787h11.046c.348 0 .63-.353.63-.787 0-.435-.282-.787-.63-.787H24.63zm.138 5.115a.778.778 0 0 0-.769.787c0 .434.344.787.77.787h13.46c.426 0 .77-.353.77-.787a.778.778 0 0 0-.77-.787H24.77z" id="Shape"/></g></g></symbol><symbol id="search-icon" viewBox="0 0 17 17"><title>search-icon</title><g id="OG" fill="none" fill-rule="evenodd" transform="translate(-1243 -30)"><g id="Group-4" transform="translate(134)" fill="#FFF" fill-rule="nonzero"><g id="Group-14"><g id="search-button" transform="translate(1102 23)"><path d="M22.517 23.167a.648.648 0 0 1-.459-.19l-3.268-3.269c-.218-.218-.49-.399-1.178-.013-2.732 1.527-5.964 1.156-8.042-.923a6.515 6.515 0 0 1 0-9.202 6.515 6.515 0 0 1 9.202 0 6.476 6.476 0 0 1 .926 8.038.65.65 0 0 1-1.103-.687 5.184 5.184 0 0 0-.74-6.433 5.215 5.215 0 0 0-7.367 0 5.215 5.215 0 0 0 0 7.366c1.663 1.664 4.272 1.948 6.49.707 1.326-.741 2.216-.285 2.73.229l3.268 3.268a.649.649 0 0 1-.459 1.109z" id="search-icon"/></g></g></g></g></symbol></svg>