<?xml version="1.0" encoding="UTF-8"?><!DOCTYPE svg PUBLIC "-//W3C//DTD SVG 1.1//EN" "http://www.w3.org/Graphics/SVG/1.1/DTD/svg11.dtd"><svg xmlns="http://www.w3.org/2000/svg"><symbol id="arrow-left-icon" viewBox="0 0 16 16"><path fill="#FFF" d="M4.197 6.906l4.584-4.583a1.068 1.068 0 1 0-1.51-1.51L.813 7.27a1.068 1.068 0 0 0 0 1.51l6.13 6.131a1.068 1.068 0 1 0 1.51-1.51l-4.36-4.36h10.34a1.068 1.068 0 1 0 0-2.136H4.196z"/></symbol><symbol id="arrow-right-icon" viewBox="0 0 16 16"><path fill="#FFF" d="M11.803 6.906L7.219 2.323a1.068 1.068 0 1 1 1.51-1.51l6.458 6.458a1.068 1.068 0 0 1 0 1.51l-6.13 6.131a1.068 1.068 0 1 1-1.51-1.51l4.36-4.36H1.567a1.068 1.068 0 1 1 0-2.136h10.236z"/></symbol><symbol id="calendar-icon" viewBox="0 0 15 17"><path fill="#FFF" d="M4.977 3.077h4.827a.56.56 0 0 0 .548-.573.56.56 0 0 0-.548-.572H4.977a.56.56 0 0 0-.548.572.56.56 0 0 0 .548.573zm8.708-1.145h-.76a.56.56 0 0 0-.547.572.56.56 0 0 0 .548.573h.76c.12 0 .218.102.218.229v2.566H1.095V3.306c0-.127.099-.23.22-.23h.54a.56.56 0 0 0 .548-.572.56.56 0 0 0-.548-.572h-.54C.59 1.932 0 2.548 0 3.306v11.82c0 .758.59 1.374 1.314 1.374h12.372c.724 0 1.314-.616 1.314-1.374V3.306c0-.758-.59-1.374-1.315-1.374zm.22 13.194a.224.224 0 0 1-.22.23H1.315a.224.224 0 0 1-.22-.23v-8.11h12.81v8.11zM3.446 4.722a.56.56 0 0 0 .548-.572V.572A.56.56 0 0 0 3.447 0a.56.56 0 0 0-.548.572V4.15a.56.56 0 0 0 .548.572zm7.969 0a.56.56 0 0 0 .548-.572V.572A.56.56 0 0 0 11.416 0a.56.56 0 0 0-.548.572V4.15a.56.56 0 0 0 .548.572z"/></symbol><symbol id="camera-icon" viewBox="0 0 15 13"><g><path d="M7.5 5.253c-1.24 0-2.25 1.01-2.25 2.25s1.01 2.25 2.25 2.25 2.25-1.01 2.25-2.25-1.01-2.25-2.25-2.25z"/><path d="M14.25 2.253h-3.272a.753.753 0 0 1-.72-.537L9.909.54a.75.75 0 0 0-.72-.537H5.811a.753.753 0 0 0-.72.537l-.349 1.176a.75.75 0 0 1-.72.537H.75a.751.751 0 0 0-.75.75v9c0 .413.337.75.75.75h13.5c.413 0 .75-.337.75-.75v-9a.751.751 0 0 0-.75-.75zm-6.75 9a3.755 3.755 0 0 1-3.75-3.75 3.755 3.755 0 0 1 3.75-3.75 3.755 3.755 0 0 1 3.75 3.75 3.755 3.755 0 0 1-3.75 3.75z"/></g></symbol><symbol id="close-icon" viewBox="0 0 15 15"><path fill="#FFF" d="M14.727 13.745a.694.694 0 1 1-.982.982l-6.28-6.28-6.28 6.28a.693.693 0 0 1-.981 0 .694.694 0 0 1 0-.982l6.28-6.28-6.28-6.28a.694.694 0 1 1 .981-.981l6.28 6.28 6.28-6.28a.694.694 0 1 1 .982.981l-6.28 6.28 6.28 6.28z"/></symbol><symbol id="discover-icon" viewBox="0 0 28 28"><g fill-rule="evenodd"><path d="M14 0C6.28 0 0 6.28 0 14s6.28 14 14 14 14-6.28 14-14S21.72 0 14 0zm0 2c6.64 0 12 5.36 12 12s-5.36 12-12 12S2 20.64 2 14 7.36 2 14 2z"/><path d="M19.977 7a1 1 0 0 0-.463.125l-6.965 3.87v.001a4.014 4.014 0 0 0-1.554 1.553l-3.87 6.965a1 1 0 0 0 1.362 1.36s5.027-2.793 6.965-3.868v-.002a4.014 4.014 0 0 0 1.554-1.553l3.87-6.965A1 1 0 0 0 19.976 7zm-2.553 3.576l-2.168 3.904c-.182.328-.45.595-.777.778l-3.902 2.166c.887-1.597 1.562-2.816 2.166-3.902.182-.328.45-.595.777-.778l.002-.002 3.902-2.166z"/></g></symbol><symbol id="facebook-icon" viewBox="0 0 16 30"><path d="M10.1 30V16.3h4.6l.7-5.3h-5.3V7.6c0-1.5.4-2.6 2.6-2.6h2.8V.2C15 .1 13.3 0 11.4 0 7.3 0 4.5 2.5 4.5 7v4H0v5.3h4.6V30h5.5z"/></symbol><symbol id="menu-icon" viewBox="0 0 15 12"><path fill="#FFF" d="M.77 0A.778.778 0 0 0 0 .787c0 .434.344.787.77.787h13.46c.426 0 .77-.353.77-.787A.778.778 0 0 0 14.23 0H.77zM.63 5.115c-.348 0-.631.352-.631.787 0 .434.283.787.631.787h11.046c.348 0 .63-.353.63-.787 0-.435-.282-.787-.63-.787H.63zM.77 10.23a.778.778 0 0 0-.769.786c0 .435.344.787.77.787h13.46c.426 0 .77-.352.77-.787a.778.778 0 0 0-.77-.786H.77z"/></symbol><symbol id="pin-icon" viewBox="0 0 11 16"><path d="M5.333 7.658a2.215 2.215 0 1 0 0-4.43 2.215 2.215 0 0 0 0 4.43zM.676 7.327a5.012 5.012 0 0 1-.349-1.839 5.006 5.006 0 1 1 9.655 1.861l-.137.311-4.512 8.338L.828 7.672l-.152-.345z"/></symbol><symbol id="pinterest-icon" viewBox="0 0 33 33"><path d="M16 0C7.2 0 0 7.2 0 16c0 6.6 3.9 12.2 9.6 14.7 0-1.1 0-2.5.3-3.7.3-1.3 2.1-8.7 2.1-8.7s-.5-1-.5-2.5c0-2.4 1.4-4.1 3.1-4.1 1.5 0 2.2 1.1 2.2 2.4 0 1.5-.9 3.7-1.4 5.7-.4 1.7.9 3.1 2.5 3.1 3 0 5.1-3.9 5.1-8.5 0-3.5-2.4-6.1-6.7-6.1-4.9 0-7.9 3.6-7.9 7.7 0 1.4.4 2.4 1.1 3.1.3.3.3.5.2.9-.1.3-.3 1-.3 1.3-.1.4-.4.6-.8.4-2.2-.9-3.3-3.4-3.3-6.1 0-4.5 3.8-10 11.4-10 6.1 0 10.1 4.4 10.1 9.2 0 6.3-3.5 11-8.6 11-1.7 0-3.4-.9-3.9-2 0 0-.9 3.7-1.1 4.4-.3 1.2-1 2.5-1.6 3.4 1.4.4 3 .7 4.5.7 8.8 0 16-7.2 16-16C32 7.2 24.8 0 16 0z"/></symbol><symbol id="recommend-icon" viewBox="0 0 15 15"><path fill="#FFF" d="M14.68 8.635c0-.27-.084-.54-.236-.759.32-.253.54-.64.54-1.08a1.35 1.35 0 0 0-1.332-1.349h-3.27l.27-1.517a3.8 3.8 0 0 0-.202-2.125l-.338-.827c0-.017-.016-.034-.033-.05a1.359 1.359 0 0 0-1.23-.793C8.106.135 7.5.742 7.5 1.485v.792c0 .658-.202 1.265-.573 1.804L4.972 6.78a.627.627 0 0 0-.472-.22H.691a.633.633 0 0 0-.624.625v6.358c0 .337.287.624.624.624H4.5a.633.633 0 0 0 .624-.624v-.557c.168.05.337.152.522.236.388.203.843.439 1.433.439h5.646c.741 0 1.348-.607 1.348-1.35 0-.27-.084-.522-.22-.742.321-.253.54-.64.54-1.079 0-.27-.084-.523-.236-.742.304-.27.523-.658.523-1.113zM4.264 13.307H.894v-5.92h3.37v5.92zm8.444-.506H7.062c-.388 0-.691-.152-1.045-.338-.27-.135-.556-.286-.91-.37V8.01l2.477-3.424V4.57l.034-.05c0-.017.017-.017.017-.034.421-.607.64-1.315.674-2.04v-.962c0-.287.236-.506.506-.506.219 0 .404.135.488.337l.32.81c.135.354.22.742.22 1.13 0 .185-.017.354-.05.54l-.355 2.023V5.97c0 .017.017.034.017.05 0 .018 0 .018.017.035 0 .016.017.016.017.033s.017.017.017.034.016.017.033.034l.034.033.034.034c.017 0 .017.017.033.017.017 0 .017.017.034.017s.017.017.034.017.017 0 .034.017c.016 0 .033.017.05.017h3.826c.286 0 .506.236.506.505 0 .27-.236.506-.506.506-.034 0-.067 0-.101.017-.017 0-.034.017-.05.017a.465.465 0 0 0-.254.253.419.419 0 0 0 .253.54c.22.067.354.27.354.489a.525.525 0 0 1-.522.523h-.017a.45.45 0 0 0-.421.303.426.426 0 0 0 .286.523c.22.068.354.27.354.49 0 .27-.22.505-.506.505a.446.446 0 0 0-.32.152l-.017.017s0 .017-.017.017c-.016.033-.05.067-.067.118-.067.219.05.455.27.54a.491.491 0 0 1 .337.472c.033.27-.186.506-.472.506z"/></symbol><symbol id="search-icon" viewBox="0 0 16 16"><path fill="#FFF" d="M14.85 15.5a.648.648 0 0 1-.459-.19l-3.268-3.269c-.218-.218-.489-.398-1.178-.013-2.732 1.527-5.963 1.156-8.042-.922a6.515 6.515 0 0 1 0-9.203 6.515 6.515 0 0 1 9.203 0 6.476 6.476 0 0 1 .925 8.038.65.65 0 0 1-1.102-.686 5.184 5.184 0 0 0-.742-6.434 5.215 5.215 0 0 0-7.366 0 5.215 5.215 0 0 0 0 7.367c1.664 1.663 4.272 1.947 6.49.707 1.326-.742 2.217-.285 2.73.228l3.269 3.269a.649.649 0 0 1-.46 1.108z"/></symbol></svg>