<?xml version="1.0" encoding="UTF-8"?>
<svg width="117px" height="14px" viewBox="0 0 117 14" version="1.1" xmlns="http://www.w3.org/2000/svg" xmlns:xlink="http://www.w3.org/1999/xlink">
    <!-- Generator: Sketch 48.2 (47327) - http://www.bohemiancoding.com/sketch -->
    <title>Group</title>
    <desc>Created with Sketch.</desc>
    <defs></defs>
    <g id="Search" stroke="none" stroke-width="1" fill="none" fill-rule="evenodd" transform="translate(-130.000000, -10.000000)">
        <g id="Group-2" fill="#FFFFFE">
            <g id="Group" transform="translate(130.000000, 10.000000)">
                <polyline id="Fill-11" points="4.59459268 13.2681668 2.62005034 13.2681668 0 0.181376518 1.82273684 0.181376518 3.64547368 10.4449675 5.48695195 0.181376518 7.21464302 0.181376518 4.59459268 13.2681668"></polyline>
                <polygon id="Fill-12" points="8.62051716 13.2681668 10.4055034 13.2681668 10.4055034 0.181376518 8.62051716 0.181376518"></polygon>
                <path d="M16.9368879,4.79935976 L16.9368879,3.02329348 C16.9368879,1.97616044 16.4241762,1.56489973 15.5128078,1.56489973 C14.6014394,1.56489973 14.0889954,1.97616044 14.0889954,3.02329348 L14.0889954,3.92068543 C14.0889954,4.70577158 14.373865,4.98627248 15.1331602,5.41651445 L16.861119,6.35081442 C18.0003295,6.98695038 18.7216064,7.62229545 18.7216064,8.87479522 L18.7216064,10.6882968 C18.7216064,12.6510121 17.5633867,13.4179079 15.5510938,13.4179079 L15.5128078,13.4179079 C13.5002471,13.4179079 12.3422952,12.6699934 12.3422952,10.6882968 L12.3422952,8.46353451 L14.0889954,8.46353451 L14.0889954,10.3893419 C14.0889954,11.41723 14.6014394,11.8846436 15.5318169,11.8846436 C16.4621945,11.8846436 16.9749062,11.41723 16.9749062,10.3893419 L16.9749062,9.36092647 C16.9749062,8.57557669 16.6900366,8.23918652 15.9114645,7.8094718 L14.2027826,6.87438094 C12.9875355,6.18261934 12.3422952,5.62188118 12.3422952,4.36911779 L12.3422952,2.72407495 C12.3422952,0.835702853 13.6713295,0.0321626965 15.4940664,0.0321626965 L15.5318169,0.0321626965 C17.3545538,0.0321626965 18.6835881,0.835702853 18.6835881,2.72407495 L18.6835881,4.79935976 L16.9368879,4.79935976" id="Fill-13"></path>
                <polygon id="Fill-14" points="20.6211831 13.2681668 22.4059016 13.2681668 22.4059016 0.181376518 20.6211831 0.181376518"></polygon>
                <polyline id="Fill-15" points="30.2095606 1.73335844 27.8931213 1.73335844 27.8931213 13.2681668 26.1084027 13.2681668 26.1084027 1.73335844 23.7919634 1.73335844 23.7919634 0.181376518 30.2095606 0.181376518 30.2095606 1.73335844"></polyline>
                <polyline id="Fill-16" points="33.3051076 0.181376518 33.3051076 5.82751153 36.4378696 5.82751153 36.4378696 0.181376518 38.2225881 0.181376518 38.2225881 13.2681668 36.4378696 13.2681668 36.4378696 7.39821109 33.3051076 7.39821109 33.3051076 13.2681668 31.5206568 13.2681668 31.5206568 0.181376518 33.3051076 0.181376518"></polyline>
                <path d="M44.4131465,8.7063365 L43.2739359,2.38742115 L42.115984,8.7063365 L44.4131465,8.7063365 Z M44.698016,10.1834479 L41.8501236,10.1834479 L41.2806522,13.2681668 L39.5529611,13.2681668 L42.1917529,0.181376518 L44.3941373,0.181376518 L47.0714828,13.2681668 L45.2484783,13.2681668 L44.698016,10.1834479 Z" id="Fill-17"></path>
                <polyline id="Fill-18" points="53.7744851 13.2681668 48.4013204 13.2681668 48.4013204 0.181376518 50.1857712 0.181376518 50.1857712 11.6792769 53.7744851 11.6792769 53.7744851 13.2681668"></polyline>
                <polyline id="Fill-19" points="60.4962288 13.2681668 55.1230641 13.2681668 55.1230641 0.181376518 56.9077826 0.181376518 56.9077826 11.6792769 60.4962288 11.6792769 60.4962288 13.2681668"></polyline>
                <path d="M65.9079474,8.7063365 L64.7687368,2.38742115 L63.6105172,8.7063365 L65.9079474,8.7063365 Z M66.1925492,10.1834479 L63.3446568,10.1834479 L62.7751854,13.2681668 L61.0474943,13.2681668 L63.6865538,0.181376518 L65.8889382,0.181376518 L68.566016,13.2681668 L66.7432792,13.2681668 L66.1925492,10.1834479 Z" id="Fill-20"></path>
                <polyline id="Fill-21" points="69.8961213 13.2681668 69.8961213 0.181376518 71.6808398 0.181376518 75.0224348 9.19273138 75.0224348 0.181376518 76.6740892 0.181376518 76.6740892 13.2681668 74.9654073 13.2681668 71.5477757 3.95785708 71.5477757 13.2681668 69.8961213 13.2681668"></polyline>
                <path d="M82.0105744,1.73335844 L80.5862265,1.73335844 L80.5862265,11.7164485 L82.0105744,11.7164485 C82.9974439,11.7164485 83.5291648,11.3239055 83.5291648,10.1647303 L83.5291648,3.28481311 C83.5291648,2.12590152 82.9974439,1.73335844 82.0105744,1.73335844 Z M85.3138833,2.94842294 L85.3138833,10.5013841 C85.3138833,12.4266642 84.0986362,13.2681668 82.0860755,13.2681668 L78.801508,13.2681668 L78.801508,0.181376518 L82.0860755,0.181376518 C84.0986362,0.181376518 85.3138833,1.0228792 85.3138833,2.94842294 Z" id="Fill-22"></path>
                <polygon id="Fill-23" points="87.1186819 13.2681668 88.902865 13.2681668 88.902865 11.2118633 87.1186819 11.2118633"></polygon>
                <path d="M97.2004943,10.6508615 C97.2004943,12.6138405 95.9855149,13.4179079 93.9729542,13.4179079 L93.9349359,13.4179079 C91.9223753,13.4179079 90.7073959,12.6325581 90.7073959,10.6508615 L90.7073959,2.79868186 C90.7073959,0.910837021 91.9223753,0.0321626965 93.9349359,0.0321626965 L93.9729542,0.0321626965 C95.9855149,0.0321626965 97.2004943,0.910837021 97.2004943,2.79868186 L97.2004943,5.13601356 L95.4157757,5.13601356 L95.4157757,3.13533566 C95.4157757,1.99487807 94.922341,1.58361736 93.9536773,1.58361736 C92.9855492,1.58361736 92.4921144,1.99487807 92.4921144,3.13533566 L92.4921144,10.3142077 C92.4921144,11.4546653 92.9855492,11.865926 93.9536773,11.865926 C94.922341,11.865926 95.4157757,11.4546653 95.4157757,10.3142077 L95.4157757,7.99638452 L97.2004943,7.99638452 L97.2004943,10.6508615" id="Fill-24"></path>
                <path d="M102.403648,11.865926 C103.391053,11.865926 103.922773,11.4733829 103.922773,10.3142077 L103.922773,3.13533566 C103.922773,1.97616044 103.391053,1.58361736 102.403648,1.58361736 C101.41651,1.58361736 100.884789,1.97616044 100.884789,3.13533566 L100.884789,10.3142077 C100.884789,11.4733829 101.41651,11.865926 102.403648,11.865926 Z M102.327879,0.0321626965 L102.479684,0.0321626965 C104.491977,0.0321626965 105.707224,0.873138123 105.707224,2.79868186 L105.707224,10.6508615 C105.707224,12.5764052 104.491977,13.4179079 102.479684,13.4179079 L102.327879,13.4179079 C100.315318,13.4179079 99.1000709,12.5764052 99.1000709,10.6508615 L99.1000709,2.79868186 C99.1000709,0.854684116 100.315318,0.0321626965 102.327879,0.0321626965 Z" id="Fill-25"></path>
                <polyline id="Fill-26" points="112.809151 11.2492986 111.803005 11.2492986 109.429805 4.36911779 109.429805 13.2681668 107.758874 13.2681668 107.758874 0.181376518 109.467824 0.181376518 112.296439 8.31405706 115.163609 0.181376518 116.929318 0.181376518 116.929318 13.2681668 115.201627 13.2681668 115.201627 4.36911779 112.809151 11.2492986"></polyline>
            </g>
        </g>
    </g>
</svg>