<?xml version="1.0" encoding="UTF-8"?>
<svg viewBox="0 0 270 92" version="1.1" xmlns="http://www.w3.org/2000/svg" xmlns:xlink="http://www.w3.org/1999/xlink">
    <!-- Generator: Sketch 46.2 (44496) - http://www.bohemiancoding.com/sketch -->
    <title>Group</title>
    <desc>Created with Sketch.</desc>
    <defs></defs>
    <g id="Assets" stroke="none" stroke-width="1" fill="none" fill-rule="evenodd">
        <g id="Artboard-7-Copy">
            <g id="Group" transform="translate(1.000000, 1.000000)">
                <polygon id="Fill-1" points="0 87.768 131.615 87.768 131.615 0 0 0"></polygon>
                <polygon id="Stroke-2" stroke="#FFFFFF" points="0 87.768 131.615 87.768 131.615 0 0 0"></polygon>
                <polyline id="Fill-4" fill="#FFFFFF" points="62.724 18.646 65.537 16.63 68.273 18.646 67.262 15.335 70.075 13.32 66.618 13.32 65.537 10 64.457 13.32 61 13.32 63.805 15.335 62.724 18.646"></polyline>
                <polyline id="Fill-5" fill="#FFFFFF" points="48.802 22.637 51.537 20.553 54.342 22.637 53.262 19.326 56.075 17.311 52.619 17.311 51.537 14 50.457 17.311 47 17.311 49.805 19.326 48.802 22.637"></polyline>
                <polyline id="Fill-6" fill="#FFFFFF" points="40.537 25 39.456 28.311 36 28.311 38.813 30.335 37.801 33.645 40.537 31.63 43.35 33.645 42.27 30.335 45.074 28.311 41.618 28.311 40.537 25"></polyline>
                <polyline id="Fill-7" fill="#FFFFFF" points="36.528 45.553 39.264 47.568 38.184 44.326 41.066 42.31 37.541 42.31 36.528 39 35.448 42.31 32 42.31 34.804 44.326 33.724 47.568 36.528 45.553"></polyline>
                <polyline id="Fill-8" fill="#FFFFFF" points="41.618 56.379 40.537 53 39.456 56.379 36 56.379 38.813 58.395 37.801 61.637 40.537 59.622 43.35 61.637 42.27 58.395 45.074 56.379 41.618 56.379"></polyline>
                <polyline id="Fill-9" fill="#FFFFFF" points="52.619 67.311 51.606 64 50.525 67.311 47 67.311 49.882 69.327 48.802 72.637 51.606 70.622 54.342 72.637 53.262 69.327 56.143 67.311 52.619 67.311"></polyline>
                <polyline id="Fill-10" fill="#FFFFFF" points="66.618 71.31 65.537 68 64.457 71.31 61 71.31 63.805 73.326 62.724 76.636 65.537 74.621 68.342 76.636 67.262 73.326 70.075 71.31 66.618 71.31"></polyline>
                <polyline id="Fill-11" fill="#FFFFFF" points="80.618 67.311 79.537 64 78.533 67.311 75 67.311 77.813 69.327 76.801 72.637 79.537 70.622 82.351 72.637 81.27 69.327 84.074 67.311 80.618 67.311"></polyline>
                <polyline id="Fill-12" fill="#FFFFFF" points="91.618 56.379 90.537 53 89.456 56.379 86 56.379 88.813 58.395 87.732 61.637 90.537 59.622 93.273 61.637 92.27 58.395 95.074 56.379 91.618 56.379"></polyline>
                <polyline id="Fill-13" fill="#FFFFFF" points="99.075 42.311 95.55 42.311 94.538 39 93.457 42.311 90 42.311 92.814 44.326 91.733 47.637 94.538 45.622 97.274 47.637 96.27 44.326 99.075 42.311"></polyline>
                <polyline id="Fill-14" fill="#FFFFFF" points="87.732 33.568 90.537 31.553 93.273 33.568 92.27 30.335 95.074 28.311 91.618 28.311 90.537 25 89.456 28.311 86 28.311 88.813 30.335 87.732 33.568"></polyline>
                <polyline id="Fill-15" fill="#FFFFFF" points="79.537 14 78.456 17.311 75 17.311 77.805 19.326 76.724 22.637 79.537 20.553 82.274 22.637 81.261 19.326 84.074 17.311 80.618 17.311 79.537 14"></polyline>
                <polyline id="Fill-16" fill="#FFFFFF" points="144 1 152.805 1 152.805 2.446 145.615 2.446 145.615 6.168 152.346 6.168 152.346 7.614 145.615 7.614 145.615 11.727 153.094 11.727 153.094 13.172 144 13.172 144 1"></polyline>
                <path d="M165.571,1 L165.571,8.037 C165.571,9.653 165.571,13.375 160.811,13.375 C156.205,13.375 156,10.198 156,8.037 L156,1 L157.616,1 L157.616,8.022 C157.616,9.5 157.616,11.93 160.676,11.93 C163.667,11.93 163.955,10.213 163.955,8.022 L163.955,1 L165.571,1" id="Fill-17" fill="#FFFFFF"></path>
                <path d="M169.616,6.356 L173.067,6.356 C173.797,6.356 174.341,6.356 175.004,6.067 C175.633,5.795 176.058,5.063 176.058,4.332 C176.058,3.567 175.633,2.955 175.123,2.684 C174.614,2.412 174.086,2.344 173.457,2.344 L169.616,2.344 L169.616,6.356 Z M168,1 L173.389,1 C174.239,1 175.022,1.018 175.821,1.324 C177.061,1.799 177.724,3.057 177.724,4.332 C177.724,6.287 176.381,7.342 174.307,7.614 L174.307,7.647 C174.919,7.936 175.651,8.377 176.602,9.858 L178.727,13.172 L176.704,13.172 L175.106,10.657 C173.372,7.918 172.811,7.801 171.469,7.801 L169.616,7.801 L169.616,13.172 L168,13.172 L168,1 L168,1 Z" id="Fill-18" fill="#FFFFFF"></path>
                <path d="M184.814,12.201 C187.04,12.201 188.979,10.654 188.979,7.307 C188.979,3.822 186.922,2.377 184.848,2.377 C183.556,2.377 182.264,2.938 181.534,4.008 C180.666,5.233 180.666,7.086 180.666,7.477 C180.666,10.297 182.349,12.201 184.814,12.201 Z M184.83,1 C188.145,1 190.645,3.397 190.645,7.307 C190.645,11.25 188.078,13.578 184.83,13.578 C181.024,13.578 179,10.553 179,7.442 C179,3.125 181.669,1 184.83,1 L184.83,1 Z" id="Fill-19" fill="#FFFFFF"></path>
                <path d="M194.615,6.797 L197.742,6.797 C198.626,6.797 200.615,6.713 200.615,4.571 C200.615,4.061 200.462,3.414 199.952,2.955 C199.39,2.446 198.711,2.446 197.709,2.446 L194.615,2.446 L194.615,6.797 Z M193,1 L197.59,1 C198.677,1 200.122,1 201.107,1.817 C201.941,2.496 202.281,3.567 202.281,4.52 C202.281,5.93 201.601,7.256 200.377,7.766 C199.306,8.207 198.388,8.242 197.724,8.242 L194.615,8.242 L194.615,13.172 L193,13.172 L193,1 L193,1 Z" id="Fill-20" fill="#FFFFFF"></path>
                <polyline id="Fill-21" fill="#FFFFFF" points="204 1 212.804 1 212.804 2.446 205.614 2.446 205.614 6.168 212.345 6.168 212.345 7.614 205.614 7.614 205.614 11.727 213.093 11.727 213.093 13.172 204 13.172 204 1"></polyline>
                <polygon id="Fill-22" fill="#FFFFFF" points="217 13.172 218.614 13.172 218.614 1 217 1"></polygon>
                <path d="M222.53,9.328 C222.547,9.602 222.615,10.112 222.853,10.571 C223.533,11.879 225.216,12.133 226.117,12.133 C227.8,12.133 229.142,11.42 229.142,10.061 C229.142,8.633 227.919,8.326 225.454,7.731 C223.873,7.358 221.476,6.797 221.476,4.365 C221.476,2.479 223.04,1 225.743,1 C228.36,1 230.23,2.258 230.315,4.654 L228.768,4.774 C228.683,3.889 228.326,2.445 225.81,2.445 C224.757,2.445 223.006,2.75 223.006,4.264 C223.006,5.317 223.685,5.709 225.913,6.201 C228.139,6.694 230.689,7.272 230.689,9.942 C230.689,11.963 228.955,13.578 226.184,13.578 C223.261,13.578 221.935,12.457 221.306,10.961 C221.034,10.297 221.017,9.787 221,9.465 L222.53,9.328" id="Fill-23" fill="#FFFFFF"></path>
                <polyline id="Fill-24" fill="#FFFFFF" points="232 1 233.614 1 233.614 7.035 239.666 1 241.842 1 236.742 5.93 242.063 13.172 239.938 13.172 235.62 7.018 233.614 8.955 233.614 13.172 232 13.172 232 1"></polyline>
                <path d="M246.501,8.192 L250.632,8.192 L249.358,4.809 C249.051,4.01 248.78,3.262 248.525,2.276 L248.49,2.276 C248.337,3.074 248.133,3.84 247.844,4.604 L246.501,8.192 Z M247.674,1 L249.408,1 L254.371,13.172 L252.553,13.172 L251.125,9.465 L246.042,9.465 L244.699,13.172 L243,13.172 L247.674,1 L247.674,1 Z" id="Fill-25" fill="#FFFFFF"></path>
                <path d="M153.571,20 L153.571,27.037 C153.571,28.653 153.571,32.375 148.811,32.375 C144.204,32.375 144,29.198 144,27.037 L144,20 L145.615,20 L145.615,27.022 C145.615,28.5 145.615,30.93 148.674,30.93 C151.667,30.93 151.956,29.213 151.956,27.022 L151.956,20 L153.571,20" id="Fill-26" fill="#FFFFFF"></path>
                <polyline id="Fill-27" fill="#FFFFFF" points="157 20 158.648 20 165.006 29.553 165.04 29.553 165.04 20 166.57 20 166.57 32.172 164.922 32.172 158.564 22.619 158.529 22.619 158.529 32.172 157 32.172 157 20"></polyline>
                <polygon id="Fill-28" fill="#FFFFFF" points="169 32.172 170.615 32.172 170.615 20 169 20"></polygon>
                <path d="M178.814,31.201 C181.041,31.201 182.979,29.654 182.979,26.307 C182.979,22.822 180.922,21.377 178.848,21.377 C177.557,21.377 176.264,21.938 175.533,23.008 C174.666,24.233 174.666,26.086 174.666,26.477 C174.666,29.297 176.35,31.201 178.814,31.201 Z M178.831,20 C182.146,20 184.645,22.397 184.645,26.307 C184.645,30.25 182.078,32.578 178.831,32.578 C175.023,32.578 173,29.553 173,26.442 C173,22.125 175.67,20 178.831,20 L178.831,20 Z" id="Fill-29" fill="#FFFFFF"></path>
                <polyline id="Fill-30" fill="#FFFFFF" points="187 20 188.649 20 195.006 29.553 195.04 29.553 195.04 20 196.57 20 196.57 32.172 194.92 32.172 188.563 22.619 188.53 22.619 188.53 32.172 187 32.172 187 20"></polyline>
                <polyline id="Fill-31" fill="#FFFFFF" points="199 20 207.805 20 207.805 21.446 200.614 21.446 200.614 25.168 207.346 25.168 207.346 26.614 200.614 26.614 200.614 30.727 208.094 30.727 208.094 32.172 199 32.172 199 20"></polyline>
                <polyline id="Fill-32" fill="#FFFFFF" points="210 20 211.649 20 218.007 29.553 218.041 29.553 218.041 20 219.57 20 219.57 32.172 217.922 32.172 211.564 22.619 211.53 22.619 211.53 32.172 210 32.172 210 20"></polyline>
                <polyline id="Fill-33" fill="#FFFFFF" points="144 39 152.291 39 152.291 40.362 145.521 40.362 145.521 43.866 151.859 43.866 151.859 45.227 145.521 45.227 145.521 49.101 152.564 49.101 152.564 50.461 144 50.461 144 39"></polyline>
                <path d="M160.473,49.074 L160.441,49.074 C159.529,50.436 158.264,50.484 157.832,50.484 C156.935,50.484 155.832,50.099 155.382,49.267 C155.015,48.578 155,47.89 155,47.138 L155,42 L156.408,42 L156.408,46.594 C156.408,47.458 156.408,47.81 156.536,48.242 C156.728,48.914 157.416,49.267 158.121,49.267 C158.904,49.267 159.737,48.834 160.041,48.162 C160.296,47.586 160.33,47.026 160.33,46.434 L160.33,42 L161.738,42 L161.738,50.291 L160.473,50.291 L160.473,49.074" id="Fill-34" fill="#FFFFFF"></path>
                <path d="M164,42.192 L165.28,42.192 L165.28,43.44 L165.312,43.44 C165.633,42.801 166.064,42 167.073,42 C167.793,42 168.273,42.303 168.513,42.448 L168.033,43.745 C167.729,43.568 167.377,43.44 167.01,43.44 C165.553,43.44 165.408,45.281 165.408,46.13 L165.408,50.483 L164,50.483 L164,42.192" id="Fill-35" fill="#FFFFFF"></path>
                <path d="M172.891,49.523 C174.891,49.523 175.34,47.602 175.34,46.29 C175.34,44.081 174.154,43.152 172.891,43.152 C172.01,43.152 170.441,43.648 170.441,46.338 C170.441,49.043 172.059,49.523 172.891,49.523 Z M169.85,43.377 C170.602,42.416 171.802,42 172.891,42 C174.635,42 176.779,43.04 176.779,46.21 C176.779,47.986 176.332,48.803 175.947,49.266 C175.163,50.227 173.994,50.676 172.891,50.676 C171.77,50.676 170.602,50.243 169.816,49.266 C169.049,48.306 169,46.962 169,46.338 C169,45.441 169.145,44.272 169.85,43.377 L169.85,43.377 Z" id="Fill-36" fill="#FFFFFF"></path>
                <path d="M181.49,49.523 C182.322,49.523 183.763,48.995 183.763,46.273 C183.763,43.936 182.61,43.104 181.555,43.104 C180.209,43.104 179.266,44.449 179.266,46.386 C179.266,48.883 180.529,49.523 181.49,49.523 Z M178,42.192 L179.281,42.192 L179.281,43.264 L179.312,43.264 C179.553,42.88 180.178,42 181.682,42 C184.035,42 185.203,43.953 185.203,46.273 C185.203,49.219 183.41,50.676 181.586,50.676 C180.594,50.676 179.857,50.179 179.441,49.619 L179.409,49.619 L179.409,53.669 L178,53.669 L178,42.192 L178,42.192 Z" id="Fill-37" fill="#FFFFFF"></path>
                <path d="M192.21,45.537 C192.178,45.233 192.146,44.881 191.987,44.481 C191.698,43.776 190.898,43.152 189.889,43.152 C188.321,43.152 187.6,44.449 187.52,45.537 L192.21,45.537 Z M193.603,47.986 C193.186,49.554 192.018,50.676 189.969,50.676 C187.392,50.676 186,48.963 186,46.401 C186,43.873 187.36,42 189.889,42 C190.594,42 193.779,42.208 193.651,46.689 L187.44,46.689 C187.552,48.675 188.721,49.523 189.969,49.523 C191.554,49.523 191.987,48.29 192.163,47.81 L193.603,47.986 L193.603,47.986 Z" id="Fill-38" fill="#FFFFFF"></path>
                <path d="M196,50.461 L197.409,50.461 L197.409,42.17 L196,42.17 L196,50.461 Z M196,40.601 L197.409,40.601 L197.409,39 L196,39 L196,40.601 Z" id="Fill-39" fill="#FFFFFF"></path>
                <path d="M200.392,47.794 C200.537,48.898 201.209,49.523 202.537,49.523 C203.994,49.523 204.442,48.755 204.442,48.194 C204.442,47.522 203.882,47.282 203.05,47.074 L202.121,46.849 C200.857,46.546 199.224,46.113 199.224,44.385 C199.224,43.104 200.281,42 202.281,42 C205.195,42 205.467,43.68 205.578,44.321 L204.202,44.512 C204.026,43.248 202.937,43.152 202.377,43.152 C201.817,43.152 200.585,43.28 200.585,44.224 C200.585,44.928 201.177,45.089 202.537,45.441 C204.715,46.002 205.883,46.338 205.883,48.051 C205.883,49.427 204.715,50.676 202.554,50.676 C199.545,50.676 199.144,48.835 199,48.002 L200.392,47.794" id="Fill-40" fill="#FFFFFF"></path>
                <polyline id="Fill-41" fill="#FFFFFF" points="207 39 208.409 39 208.409 45.532 211.739 42.17 213.563 42.17 210.393 45.243 213.883 50.461 212.155 50.461 209.401 46.219 208.409 47.164 208.409 50.461 207 50.461 207 39"></polyline>
                <path d="M220.794,46.321 C220.25,46.53 219.21,46.738 218.474,46.849 C217.609,46.977 216.505,47.137 216.505,48.259 C216.505,48.85 216.905,49.571 218.169,49.571 C218.57,49.571 219.514,49.491 220.17,48.787 C220.73,48.179 220.794,47.522 220.794,46.834 L220.794,46.321 Z M215.239,44.56 C215.4,43.824 215.784,42 218.986,42 C222.202,42 222.202,43.68 222.202,45.121 L222.202,47.01 C222.202,49.138 222.202,49.682 222.652,50.483 L221.179,50.483 C220.954,50.05 220.923,49.667 220.89,49.459 C219.706,50.468 218.73,50.676 217.833,50.676 C216.009,50.676 215,49.667 215,48.29 C215,46.082 217.353,45.809 218.265,45.697 C218.474,45.665 219.993,45.506 220.794,45.216 C220.826,44.321 220.843,43.152 218.778,43.152 C217.017,43.152 216.792,44.049 216.616,44.737 L215.239,44.56 L215.239,44.56 Z" id="Fill-42" fill="#FFFFFF"></path>
                <path d="M144,60.192 L145.282,60.192 L145.282,61.44 L145.313,61.44 C145.633,60.801 146.066,60 147.075,60 C147.794,60 148.275,60.304 148.514,60.448 L148.035,61.745 C147.731,61.568 147.378,61.44 147.01,61.44 C145.553,61.44 145.41,63.281 145.41,64.13 L145.41,68.483 L144,68.483 L144,60.192" id="Fill-43" fill="#FFFFFF"></path>
                <path d="M155.211,63.537 C155.179,63.233 155.147,62.881 154.987,62.481 C154.699,61.776 153.899,61.152 152.89,61.152 C151.321,61.152 150.602,62.449 150.522,63.537 L155.211,63.537 Z M156.604,65.986 C156.188,67.555 155.019,68.676 152.97,68.676 C150.393,68.676 149,66.963 149,64.401 C149,61.873 150.362,60 152.89,60 C153.594,60 156.779,60.208 156.652,64.689 L150.442,64.689 C150.553,66.674 151.721,67.524 152.97,67.524 C154.555,67.524 154.987,66.29 155.162,65.81 L156.604,65.986 L156.604,65.986 Z" id="Fill-44" fill="#FFFFFF"></path>
                <path d="M159.953,66.387 C160.353,66.963 160.994,67.33 161.713,67.33 C162.498,67.33 163.106,66.914 163.474,66.402 C163.922,65.778 164.003,64.994 164.003,64.225 C164.003,61.856 162.673,61.152 161.697,61.152 C160.449,61.152 159.441,62.192 159.441,64.193 C159.441,64.418 159.441,65.65 159.953,66.387 Z M159.648,69.379 C159.712,69.811 159.905,70.692 161.553,70.692 C163.906,70.692 163.89,69.043 163.89,67.395 C163.106,68.323 162.242,68.483 161.586,68.483 C159.264,68.483 158,66.514 158,64.273 C158,62.257 159.008,60 161.601,60 C162.066,60 163.106,60.048 163.986,61.184 L164.018,61.184 L164.018,60.192 L165.315,60.192 L165.315,67.364 C165.315,68.051 165.283,69.539 164.802,70.34 C164.115,71.477 162.786,71.844 161.57,71.844 C160.529,71.844 158.224,71.541 158.289,69.172 L159.648,69.379 L159.648,69.379 Z" id="Fill-45" fill="#FFFFFF"></path>
                <path d="M167,68.461 L168.409,68.461 L168.409,60.17 L167,60.17 L167,68.461 Z M167,58.601 L168.409,58.601 L168.409,57 L167,57 L167,58.601 Z" id="Fill-46" fill="#FFFFFF"></path>
                <path d="M173.891,67.524 C175.891,67.524 176.34,65.602 176.34,64.29 C176.34,62.081 175.155,61.152 173.891,61.152 C173.01,61.152 171.442,61.648 171.442,64.338 C171.442,67.043 173.059,67.524 173.891,67.524 Z M170.85,61.377 C171.602,60.416 172.802,60 173.891,60 C175.635,60 177.78,61.04 177.78,64.21 C177.78,65.986 177.333,66.803 176.948,67.266 C176.164,68.227 174.995,68.676 173.891,68.676 C172.77,68.676 171.602,68.242 170.817,67.266 C170.049,66.306 170,64.962 170,64.338 C170,63.441 170.145,62.272 170.85,61.377 L170.85,61.377 Z" id="Fill-47" fill="#FFFFFF"></path>
                <path d="M180,60.192 L181.264,60.192 L181.264,61.36 L181.296,61.36 C182.113,60.112 183.345,60 183.906,60 C184.77,60 185.907,60.32 186.387,61.216 C186.754,61.904 186.754,62.497 186.754,63.377 L186.754,68.483 L185.346,68.483 L185.346,63.441 C185.346,62.72 185.346,61.216 183.617,61.216 C182.817,61.216 182,61.633 181.697,62.257 C181.424,62.849 181.408,63.457 181.408,63.953 L181.408,68.483 L180,68.483 L180,60.192" id="Fill-48" fill="#FFFFFF"></path>
                <path d="M193.794,64.321 C193.25,64.53 192.21,64.738 191.474,64.849 C190.609,64.977 189.505,65.137 189.505,66.258 C189.505,66.85 189.906,67.571 191.169,67.571 C191.57,67.571 192.514,67.491 193.17,66.787 C193.73,66.179 193.794,65.522 193.794,64.834 L193.794,64.321 Z M188.24,62.56 C188.4,61.824 188.784,60 191.986,60 C195.202,60 195.202,61.68 195.202,63.121 L195.202,65.009 C195.202,67.139 195.202,67.682 195.652,68.483 L194.179,68.483 C193.954,68.051 193.923,67.666 193.89,67.459 C192.706,68.467 191.73,68.676 190.833,68.676 C189.009,68.676 188,67.666 188,66.29 C188,64.082 190.353,63.809 191.265,63.697 C191.474,63.665 192.993,63.506 193.794,63.216 C193.826,62.321 193.843,61.152 191.778,61.152 C190.017,61.152 189.792,62.049 189.617,62.737 L188.24,62.56 L188.24,62.56 Z" id="Fill-49" fill="#FFFFFF"></path>
                <polygon id="Fill-50" fill="#FFFFFF" points="198 68.461 199.408 68.461 199.408 57 198 57"></polygon>
                <path d="M206.793,64.321 C206.25,64.53 205.209,64.738 204.472,64.849 C203.609,64.977 202.503,65.137 202.503,66.258 C202.503,66.85 202.904,67.571 204.168,67.571 C204.569,67.571 205.513,67.491 206.169,66.787 C206.73,66.179 206.793,65.522 206.793,64.834 L206.793,64.321 Z M201.24,62.56 C201.4,61.824 201.784,60 204.985,60 C208.203,60 208.203,61.68 208.203,63.121 L208.203,65.009 C208.203,67.139 208.203,67.682 208.65,68.483 L207.177,68.483 C206.954,68.051 206.921,67.666 206.89,67.459 C205.705,68.467 204.729,68.676 203.833,68.676 C202.007,68.676 201,67.666 201,66.29 C201,64.082 203.353,63.809 204.265,63.697 C204.472,63.665 205.994,63.506 206.793,63.216 C206.826,62.321 206.841,61.152 204.777,61.152 C203.016,61.152 202.793,62.049 202.617,62.737 L201.24,62.56 L201.24,62.56 Z" id="Fill-51" fill="#FFFFFF"></path>
                <path d="M149.473,86.074 L149.441,86.074 C148.529,87.435 147.264,87.484 146.832,87.484 C145.935,87.484 144.832,87.099 144.382,86.267 C144.015,85.578 144,84.89 144,84.138 L144,79 L145.408,79 L145.408,83.593 C145.408,84.459 145.408,84.81 145.536,85.242 C145.728,85.914 146.416,86.267 147.121,86.267 C147.904,86.267 148.737,85.834 149.041,85.162 C149.297,84.586 149.33,84.025 149.33,83.433 L149.33,79 L150.738,79 L150.738,87.291 L149.473,87.291 L149.473,86.074" id="Fill-52" fill="#FFFFFF"></path>
                <path d="M156.033,87.187 C155.793,87.236 155.441,87.316 154.977,87.316 C153.023,87.316 153.023,86.146 153.023,84.771 L153.023,80 L152,80 L152,78.912 L153.023,78.912 L153.023,76.847 L154.433,76 L154.433,78.912 L155.842,78.912 L155.842,80 L154.433,80 L154.433,84.851 C154.433,85.523 154.433,86.003 155.217,86.003 C155.457,86.003 155.682,85.97 155.842,85.939 L156.033,87.187" id="Fill-53" fill="#FFFFFF"></path>
                <path d="M157,79 L158.489,79 L160.265,83.963 C160.553,84.761 160.681,85.257 160.778,85.642 L160.809,85.642 C160.969,85.002 161.178,84.425 161.321,84.058 L163.163,79 L164.602,79 L161.466,87.291 L160.153,87.291 L157,79" id="Fill-54" fill="#FFFFFF"></path>
                <path d="M171.211,82.537 C171.179,82.233 171.147,81.881 170.988,81.481 C170.699,80.776 169.899,80.153 168.89,80.153 C167.322,80.153 166.601,81.449 166.521,82.537 L171.211,82.537 Z M172.604,84.987 C172.187,86.555 171.019,87.676 168.97,87.676 C166.393,87.676 165,85.963 165,83.401 C165,80.873 166.361,79 168.89,79 C169.595,79 172.78,79.207 172.652,83.69 L166.441,83.69 C166.553,85.674 167.722,86.524 168.97,86.524 C170.555,86.524 170.988,85.289 171.163,84.811 L172.604,84.987 L172.604,84.987 Z" id="Fill-55" fill="#FFFFFF"></path>
                <path d="M181.235,84.617 C180.787,87.418 178.482,87.676 177.777,87.676 C175.041,87.676 174,85.563 174,83.354 C174,79.897 176.129,79 177.777,79 C178.562,79 179.843,79.223 180.579,80.297 C180.931,80.793 181.027,81.272 181.092,81.625 L179.73,81.832 C179.442,80.633 178.706,80.153 177.842,80.153 C175.648,80.153 175.441,82.346 175.441,83.321 C175.441,83.85 175.441,86.524 177.762,86.524 C179.555,86.524 179.795,84.858 179.843,84.442 L181.235,84.617" id="Fill-56" fill="#FFFFFF"></path>
                <polyline id="Fill-57" fill="#FFFFFF" points="182 76 183.408 76 183.408 82.531 186.737 79.17 188.563 79.17 185.394 82.244 188.883 87.461 187.153 87.461 184.401 83.218 183.408 84.164 183.408 87.461 182 87.461 182 76"></polyline>
                <polygon id="Fill-58" fill="#FFFFFF" points="190 87.461 191.409 87.461 191.409 76 190 76"></polygon>
                <path d="M193,87.461 L194.409,87.461 L194.409,79.17 L193,79.17 L193,87.461 Z M193,77.602 L194.409,77.602 L194.409,76 L193,76 L193,77.602 Z" id="Fill-59" fill="#FFFFFF"></path>
                <path d="M197,79.192 L198.263,79.192 L198.263,80.36 L198.296,80.36 C199.112,79.112 200.345,79 200.905,79 C201.769,79 202.906,79.321 203.387,80.217 C203.754,80.905 203.754,81.496 203.754,82.377 L203.754,87.483 L202.346,87.483 L202.346,82.442 C202.346,81.721 202.346,80.217 200.617,80.217 C199.816,80.217 199,80.633 198.696,81.256 C198.424,81.85 198.408,82.457 198.408,82.953 L198.408,87.483 L197,87.483 L197,79.192" id="Fill-60" fill="#FFFFFF"></path>
                <path d="M206.953,85.387 C207.354,85.963 207.995,86.33 208.714,86.33 C209.498,86.33 210.107,85.914 210.475,85.403 C210.923,84.778 211.003,83.994 211.003,83.225 C211.003,80.856 209.674,80.153 208.698,80.153 C207.45,80.153 206.442,81.192 206.442,83.194 C206.442,83.418 206.442,84.651 206.953,85.387 Z M206.649,88.379 C206.713,88.811 206.906,89.692 208.554,89.692 C210.907,89.692 210.891,88.043 210.891,86.395 C210.107,87.323 209.243,87.483 208.586,87.483 C206.265,87.483 205,85.514 205,83.274 C205,81.256 206.009,79 208.602,79 C209.067,79 210.107,79.047 210.987,80.184 L211.019,80.184 L211.019,79.192 L212.316,79.192 L212.316,86.364 C212.316,87.051 212.284,88.539 211.803,89.34 C211.116,90.477 209.787,90.844 208.571,90.844 C207.53,90.844 205.225,90.541 205.289,88.172 L206.649,88.379 L206.649,88.379 Z" id="Fill-61" fill="#FFFFFF"></path>
                <path d="M215.393,84.793 C215.537,85.899 216.209,86.524 217.537,86.524 C218.994,86.524 219.442,85.754 219.442,85.194 C219.442,84.522 218.882,84.282 218.05,84.074 L217.121,83.85 C215.857,83.545 214.225,83.114 214.225,81.385 C214.225,80.104 215.281,79 217.281,79 C220.195,79 220.467,80.68 220.578,81.321 L219.202,81.512 C219.026,80.248 217.938,80.153 217.377,80.153 C216.817,80.153 215.585,80.28 215.585,81.225 C215.585,81.928 216.177,82.088 217.537,82.442 C219.715,83.002 220.883,83.338 220.883,85.051 C220.883,86.426 219.715,87.676 217.554,87.676 C214.545,87.676 214.145,85.834 214,85.002 L215.393,84.793" id="Fill-62" fill="#FFFFFF"></path>
                <path d="M223.249,80.45 L222,80.45 L222,79.362 L223.249,79.362 L223.249,78.465 C223.249,77.664 223.249,76 225.538,76 C226.13,76 226.53,76.08 226.85,76.145 L226.641,77.377 C226.386,77.328 226.114,77.297 225.809,77.297 C224.705,77.297 224.657,77.905 224.657,78.578 L224.657,79.362 L226.258,79.362 L226.258,80.45 L224.657,80.45 L224.657,87.653 L223.249,87.653 L223.249,80.45" id="Fill-63" fill="#FFFFFF"></path>
                <path d="M229.891,86.524 C231.891,86.524 232.34,84.602 232.34,83.289 C232.34,81.08 231.154,80.153 229.891,80.153 C229.01,80.153 227.442,80.649 227.442,83.338 C227.442,86.043 229.059,86.524 229.891,86.524 Z M226.85,80.377 C227.602,79.416 228.802,79 229.891,79 C231.635,79 233.779,80.039 233.779,83.209 C233.779,84.987 233.332,85.803 232.947,86.266 C232.163,87.227 230.994,87.676 229.891,87.676 C228.77,87.676 227.602,87.242 226.817,86.266 C226.049,85.307 226,83.961 226,83.338 C226,82.442 226.145,81.272 226.85,80.377 L226.85,80.377 Z" id="Fill-64" fill="#FFFFFF"></path>
                <path d="M235,79.192 L236.265,79.192 L236.265,80.36 L236.296,80.36 C237.112,79.112 238.345,79 238.905,79 C239.77,79 240.906,79.321 241.387,80.217 C241.755,80.905 241.755,81.496 241.755,82.377 L241.755,87.483 L240.347,87.483 L240.347,82.442 C240.347,81.721 240.347,80.217 238.618,80.217 C237.817,80.217 237.001,80.633 236.696,81.256 C236.425,81.85 236.409,82.457 236.409,82.953 L236.409,87.483 L235,87.483 L235,79.192" id="Fill-65" fill="#FFFFFF"></path>
                <path d="M247.713,86.502 C248.162,86.502 249.922,86.293 249.922,83.443 C249.922,81.828 249.362,80.131 247.649,80.131 C245.537,80.131 245.44,82.707 245.44,83.316 C245.44,85.926 246.897,86.502 247.713,86.502 Z M249.89,86.404 L249.858,86.404 C249.105,87.654 247.873,87.654 247.569,87.654 C245.6,87.654 244,85.972 244,83.316 C244,80.611 245.425,78.978 247.506,78.978 C248.546,78.978 249.33,79.459 249.761,80.115 L249.795,80.115 L249.795,76 L251.203,76 L251.203,87.461 L249.89,87.461 L249.89,86.404 L249.89,86.404 Z" id="Fill-66" fill="#FFFFFF"></path>
                <path d="M259.211,82.537 C259.18,82.233 259.147,81.881 258.987,81.481 C258.699,80.776 257.899,80.153 256.891,80.153 C255.322,80.153 254.602,81.449 254.522,82.537 L259.211,82.537 Z M260.604,84.987 C260.188,86.555 259.02,87.676 256.971,87.676 C254.393,87.676 253,85.963 253,83.401 C253,80.873 254.361,79 256.891,79 C257.595,79 260.779,79.207 260.652,83.69 L254.442,83.69 C254.553,85.674 255.722,86.524 256.971,86.524 C258.555,86.524 258.987,85.289 259.163,84.811 L260.604,84.987 L260.604,84.987 Z" id="Fill-67" fill="#FFFFFF"></path>
                <path d="M262,79.192 L263.264,79.192 L263.264,80.36 L263.296,80.36 C264.112,79.112 265.345,79 265.905,79 C266.77,79 267.906,79.321 268.387,80.217 C268.754,80.905 268.754,81.496 268.754,82.377 L268.754,87.483 L267.346,87.483 L267.346,82.442 C267.346,81.721 267.346,80.217 265.617,80.217 C264.816,80.217 264,80.633 263.696,81.256 C263.424,81.85 263.408,82.457 263.408,82.953 L263.408,87.483 L262,87.483 L262,79.192" id="Fill-68" fill="#FFFFFF"></path>
            </g>
        </g>
    </g>
</svg>