<?xml version="1.0" encoding="UTF-8"?>
<svg width="177px" height="82px" viewBox="0 0 177 82" version="1.1" xmlns="http://www.w3.org/2000/svg" xmlns:xlink="http://www.w3.org/1999/xlink">
    <!-- Generator: Sketch 46.2 (44496) - http://www.bohemiancoding.com/sketch -->
    <title>logo-vertical</title>
    <desc>Created with Sketch.</desc>
    <defs></defs>
    <g id="Assets" stroke="none" stroke-width="1" fill="none" fill-rule="evenodd">
        <g id="logo-vertical">
            <path d="M22.1928571,38 C24.4214286,38 26,39.0307467 26,41.420205 C26,45.4494876 20.9392857,51.0248902 18.4785714,51.0248902 C17.5035714,51.0248902 17.0857143,50.6969253 17.0857143,50.0409956 C17.0857143,49.4787701 17.3178571,48.682284 18.7571429,48.3543192 C20.8,47.885798 23.4928571,44.2781845 23.4928571,41.4670571 C23.4928571,40.670571 23.0285714,40.1083455 22.0535714,40.1083455 C15.5071429,40.1083455 2.55357143,52.5241581 2.55357143,62.9721816 C2.55357143,65.6427526 4.03928571,67.704246 6.40714286,67.704246 C12.9535714,67.704246 19.9642857,60.3484627 22.9357143,56.4128843 C23.5392857,55.5695461 24.1428571,54.9136164 24.7,54.9136164 C25.2107143,54.9136164 25.5357143,55.147877 25.5357143,55.6632504 C25.5357143,56.1786237 25.2571429,56.5065886 24.7,57.1625183 C20.8,61.7540264 13.0928571,70 6.36071429,70 C2.46071429,70 0,67.5636896 0,63.15959 C0,51.0248902 13.9285714,38 22.1928571,38 Z M28.8844985,52 C30.662614,52 31.4832827,52.912 31.4832827,53.728 C31.4832827,54.064 31.6200608,55.168 32.0759878,55.168 C33.2158055,55.168 33.9908815,54.832 34.8115502,54.448 C35.2218845,54.256 35.8601824,53.824 36.1337386,53.824 C36.6808511,53.824 37,54.064 37,54.688 C37,55.264 36.3161094,55.888 34.8115502,56.656 C33.3525836,57.376 31.4832827,57.472 31.0273556,57.472 C29.9787234,60.304 27.9270517,64 24.6899696,64 C23.3221884,64 22,62.896 22,60.736 C22,56.224 25.8297872,52 28.8844985,52 Z M29,55.9493671 C28.7196262,55.9050633 28.2523364,55.3734177 28.2523364,54.8860759 C28.2523364,54.6202532 28.3457944,54.2658228 28.4392523,54 C26.5700935,54.0886076 24,57.1455696 24,59.8481013 C24,60.5126582 24.5140187,61 24.9813084,61 C26.7102804,61 29,57.056962 29,55.9493671 Z M42.6418269,52.9797571 C42.7788462,52.9797571 43.28125,52.0890688 43.9663462,52.0890688 C44.8341346,52.0890688 45.3365385,52.5789474 45.3365385,53.2024291 C45.3365385,53.9595142 43.6923077,55.8744939 43.1442308,57.0323887 C42.6875,57.9230769 42.3221154,58.902834 42.3221154,59.5263158 C42.3221154,59.9716599 42.5048077,60.4615385 42.9158654,60.4615385 C44.4230769,60.4615385 46.9807692,57.7894737 48.625,55.8744939 C49.1730769,55.2064777 49.7668269,54.4939271 50.2692308,54.4939271 C50.6802885,54.4939271 51,54.7165992 51,55.1619433 C51,55.6518219 50.7716346,55.9635628 50.2235577,56.6315789 C48.03125,59.1700405 44.5144231,62.5101215 42.1850962,62.5101215 C40.6778846,62.5101215 39.9471154,61.48583 39.9471154,60.2388664 C39.9471154,59.7489879 39.9927885,59.3036437 40.0384615,58.6801619 C38.7139423,59.9716599 35.6081731,63 33.5528846,63 C32.9591346,63 32,62.1983806 32,61.0404858 C32,56.4534413 37.2980769,52 40.7692308,52 C41.5,52 42.1850962,52.4453441 42.6418269,52.9797571 Z M40.952381,54 C39.047619,54 35,58.4109589 35,60.6164384 C35,60.8561644 35.1904762,61 35.4285714,61 C36.1428571,61 42,55.869863 42,54.9589041 C42,54.4315068 41.5714286,54 40.952381,54 Z M52.6836735,59.7747036 C52.6836735,58.9209486 51.8571429,58.4466403 51.1683673,58.0671937 C50.2959184,57.5928854 49.4234694,56.9288538 49.4234694,55.7905138 C49.4234694,53.229249 53.0510204,51 55.1173469,51 C55.9897959,51 57,51.7588933 57,52.7549407 C57,53.8458498 56.3571429,55.5533597 55.3469388,55.5533597 C54.7040816,55.5533597 54.3367347,55.2213439 54.3367347,54.5573123 C54.3367347,54.083004 54.8418367,53.7035573 54.8418367,53.3241107 C54.8418367,53.1343874 54.7040816,52.9920949 54.4285714,52.9920949 C53.8316327,52.9920949 51.7653061,54.3201581 51.7653061,55.5059289 C51.7653061,55.8853755 52.2244898,56.2648221 52.7755102,56.5494071 C53.7397959,57.0711462 55.0714286,57.7351779 55.0714286,59.5375494 C55.0714286,61.1976285 53.6479592,63 50.9387755,63 C49.1938776,63 48,61.8142292 48,60.6284585 C48,59.916996 48.4591837,59.3952569 49.1020408,59.3952569 C49.6071429,59.3952569 50.0663265,59.6324111 50.0663265,60.2964427 C50.0663265,60.9604743 50.4795918,61.3399209 51.2142857,61.3399209 C52.0867347,61.3399209 52.6836735,60.5810277 52.6836735,59.7747036 Z M59.9597315,47.9 C60.4295302,47.9 60.8053691,48.268 61.3691275,48.268 C61.7449664,48.268 62.2147651,48.222 62.6375839,48.084 C64.2818792,45.278 65.033557,43.76 65.8791946,42.656 C66.6778523,41.552 67.2416107,41 67.9463087,41 C68.7919463,41 69.1208054,41.368 69.1208054,42.058 C69.1208054,42.656 68.9328859,43.024 67.9932886,43.76 C67.3355705,44.22 67.0536913,44.91 65.738255,47.21 C66.5369128,46.98 67.4765101,46.796 68.4161074,46.796 C70.1543624,46.796 71,47.256 71,48.314 C71,49.234 70.2483221,50.292 69.5436242,50.292 C68.9798658,50.292 68.8389262,50.016 68.8389262,49.74 C68.8389262,49.51 68.9328859,49.326 68.9328859,49.096 C68.9328859,48.912 68.5100671,48.728 67.9463087,48.728 C67.0067114,48.728 65.5033557,49.096 64.2348993,49.51 C61.6040268,54.064 59.114094,59.446 59.114094,61.792 C59.114094,62.206 59.442953,62.666 59.442953,62.942 C59.442953,63.356 59.0201342,64 58.3154362,64 C57.4697987,64 57,63.356 57,62.068 C57,59.63 59.3020134,54.386 61.4161074,50.292 C59.1610738,50.292 58.6442953,49.97 58.6442953,49.234 C58.6442953,48.498 59.114094,47.9 59.9597315,47.9 Z M72.6418269,52.9797571 C72.7788462,52.9797571 73.28125,52.0890688 73.9663462,52.0890688 C74.8341346,52.0890688 75.3365385,52.5789474 75.3365385,53.2024291 C75.3365385,53.9595142 73.6923077,55.8744939 73.1442308,57.0323887 C72.6875,57.9230769 72.3221154,58.902834 72.3221154,59.5263158 C72.3221154,59.9716599 72.5048077,60.4615385 72.9158654,60.4615385 C74.4230769,60.4615385 76.9807692,57.7894737 78.625,55.8744939 C79.1730769,55.2064777 79.7668269,54.4939271 80.2692308,54.4939271 C80.6802885,54.4939271 81,54.7165992 81,55.1619433 C81,55.6518219 80.7716346,55.9635628 80.2235577,56.6315789 C78.03125,59.1700405 74.5144231,62.5101215 72.1850962,62.5101215 C70.6778846,62.5101215 69.9471154,61.48583 69.9471154,60.2388664 C69.9471154,59.7489879 69.9927885,59.3036437 70.0384615,58.6801619 C68.7139423,59.9716599 65.6081731,63 63.5528846,63 C62.9591346,63 62,62.1983806 62,61.0404858 C62,56.4534413 67.2980769,52 70.7692308,52 C71.5,52 72.1850962,52.4453441 72.6418269,52.9797571 Z M70.952381,54 C69.047619,54 65,58.4109589 65,60.6164384 C65,60.8561644 65.1904762,61 65.4285714,61 C66.1428571,61 72,55.869863 72,54.9589041 C72,54.4315068 71.5714286,54 70.952381,54 Z M81.7846154,61.024735 C82.5692308,61.024735 83.4923077,60.565371 84.1384615,59.9222615 C84.7384615,59.3250883 85.2461538,58.819788 85.7538462,58.819788 C86.1692308,58.819788 86.4923077,59.04947 86.4923077,59.5088339 C86.4923077,60.0141343 85.9384615,60.565371 85.2,61.254417 C83.9538462,62.4028269 82.8461538,63 81.4615385,63 C79.6153846,63 78,61.5759717 78,59.3710247 C78,55.5123675 81.0923077,48.3462898 83.6769231,43.9363958 C86.4461538,39.2508834 88.5230769,37 91.1538462,37 C92.2615385,37 93,37.9187279 93,38.8833922 C93,40.2155477 92.3538462,43.0176678 89.0307692,47.2438163 C86.4461538,50.5053004 84.2307692,52.434629 81.7846154,54.3639576 C81.0461538,55.6501767 80.4,58.1766784 80.4,59.1413428 C80.4,60.2897527 80.9076923,61.024735 81.7846154,61.024735 Z M89.5454545,39 C89,39 87,40.627907 84.7272727,44.7674419 C82.8636364,48.1627907 82.2727273,49.9767442 82,51 C82.9090909,50.255814 84.8181818,48.3023256 86.6818182,45.744186 C89.0909091,42.4883721 90,40.3953488 90,39.4186047 C90,39.1395349 89.8636364,39 89.5454545,39 Z M113.139635,56.7181572 C113.647691,55.9810298 114.802363,53.9539295 115.772288,51.9728997 C108.012889,51.8807588 102.05478,47.596206 102.05478,42.7127371 C102.05478,41.100271 102.424275,40.5934959 103.3942,40.5934959 C104.317938,40.5934959 104.548872,41.3306233 104.548872,42.7127371 C104.548872,46.4444444 109.629431,49.8075881 116.834586,49.8075881 C120.991407,42.3441734 124.547798,37 129.212675,37 C131.383459,37 133,38.197832 133,40.501355 C133,45.2466125 127.919441,50.498645 118.589689,51.8807588 C117.111708,54.7831978 115.310419,57.8238482 115.310419,57.8238482 C118.589689,59.897019 120.483351,62.7533875 120.483351,66.0243902 C120.483351,66.8536585 119.836735,67.5907859 119.051557,67.5907859 C118.12782,67.5907859 117.665951,66.9457995 117.665951,66.2086721 C117.665951,65.5636856 117.850698,65.0569106 117.850698,64.504065 C117.850698,62.8455285 116.372718,60.9105691 114.063373,59.6205962 C109.721805,66.4390244 104.73362,71 98.1750806,71 C93.3716434,71 90,68.604336 90,63.9051491 C90,59.3441734 94.6648765,54.7831978 102.470462,54.7831978 C106.534909,54.7831978 110.368421,55.5203252 113.139635,56.7181572 Z M102.163934,57 C95.4660422,57 92,60.9534884 92,63.9767442 C92,67.0465116 94.2014052,69 98.0421546,69 C103.522248,69 108.252927,64.255814 112,58.627907 C109.470726,57.6046512 105.957845,57 102.163934,57 Z M131,41.5695067 C131,40.5829596 130.34188,40 129.495726,40 C126.534188,40 123.478632,44.3049327 120,50 C126.534188,48.7892377 131,44.573991 131,41.5695067 Z M130.83871,43 C131.419355,43 132,43.25 132,44.25 C132,45.3333333 130.693548,46 130.064516,46 C129.290323,46 129,45.125 129,44.5 C129,43.8333333 129.774194,43 130.83871,43 Z M129.702811,55.9796748 C130.232932,55.3089431 130.807229,54.5934959 131.293173,54.5934959 C131.690763,54.5934959 132,54.8170732 132,55.2642276 C132,55.7560976 131.779116,56.0691057 131.248996,56.7398374 C129.172691,59.2886179 125.196787,63 122.943775,63 C122.016064,63 121,62.195122 121,60.6300813 C121,58.6626016 123.253012,54.2804878 123.606426,53.6097561 C124.136546,52.7154472 124.578313,52 125.196787,52 C125.815261,52 126.301205,52.3577236 126.301205,52.9390244 C126.301205,53.5650407 125.991968,53.8780488 125.726908,54.2804878 C124.445783,56.3821138 123.208835,59.4674797 123.208835,60.3617886 C123.208835,60.6747967 123.429719,61.0772358 123.827309,61.0772358 C125.02008,61.0772358 128.200803,58.0365854 129.702811,55.9796748 Z M131.181818,52.2544379 C131.863636,52.2544379 132.545455,52.8698225 132.545455,54.1952663 C132.545455,55.3313609 132.136364,57.2248521 131.772727,58.6923077 C131.590909,59.4023669 131.409091,60.3491124 131.409091,60.443787 C131.409091,60.6331361 131.5,60.6804734 131.590909,60.6804734 C132.636364,60.6804734 136.954545,54.7633136 136.954545,50.3609467 C136.954545,49.6035503 136.318182,49.035503 136.318182,48.2307692 C136.318182,47.6153846 136.772727,47 137.363636,47 C138,47 139,47.0946746 139,50.0769231 C139,54.3846154 134.045455,63 130.863636,63 C129.909091,63 129,62.147929 129,60.964497 C129,60.4911243 129.272727,59.5443787 129.545455,58.6923077 C129.909091,57.3668639 130.272727,55.9467456 130.272727,54.8579882 C130.272727,54.1952663 130.136364,53.816568 130.136364,53.4378698 C130.136364,52.7278107 130.636364,52.2544379 131.181818,52.2544379 Z M147.83871,43 C146.774194,43 146,43.8333333 146,44.5 C146,45.125 146.290323,46 147.064516,46 C147.693548,46 149,45.3333333 149,44.25 C149,43.25 148.419355,43 147.83871,43 Z M147.702811,55.9796748 C148.232932,55.3089431 148.807229,54.5934959 149.293173,54.5934959 C149.690763,54.5934959 150,54.8170732 150,55.2642276 C150,55.7560976 149.779116,56.0691057 149.248996,56.7398374 C147.172691,59.2886179 143.196787,63 140.943775,63 C140.016064,63 139,62.195122 139,60.6300813 C139,58.6626016 141.253012,54.2804878 141.606426,53.6097561 C142.136546,52.7154472 142.578313,52 143.196787,52 C143.815261,52 144.301205,52.3577236 144.301205,52.9390244 C144.301205,53.5650407 143.991968,53.8780488 143.726908,54.2804878 C142.445783,56.3821138 141.208835,59.4674797 141.208835,60.3617886 C141.208835,60.6747967 141.429719,61.0772358 141.827309,61.0772358 C143.02008,61.0772358 146.200803,58.0365854 147.702811,55.9796748 Z M164.610503,56.1240876 C165.161926,55.4124088 165.7593,54.6532847 166.26477,54.6532847 C166.678337,54.6532847 167,54.8905109 167,55.3649635 C167,55.8868613 166.770241,56.2189781 166.218818,56.9306569 C164.105033,59.6350365 161.07221,63.1934307 158.774617,63.1934307 C156.477024,63.1934307 156.063457,61.0109489 156.063457,58.9233577 C156.063457,57.879562 156.339168,56.4562044 156.339168,55.3175182 C156.339168,55.080292 156.201313,54.7956204 155.925602,54.7956204 C154.63895,54.7956204 150.273523,59.8248175 149.21663,61.2956204 C148.757112,61.9124088 148.343545,64 147.562363,64 C146.73523,64 146,63.6678832 146,62.7189781 C146,61.5328467 147.792123,56.6459854 148.665208,53.8467153 C149.308534,51.7116788 149.630197,51 150.824945,51 C151.146608,51 151.789934,51.3321168 151.789934,51.9963504 C151.789934,52.6605839 151.606127,53.0875912 151.146608,54.4160584 C150.870897,55.1751825 150.273523,57.2627737 150.181619,57.5474453 C151.652079,55.8394161 154.960613,52.1386861 156.982495,52.1386861 C157.993435,52.1386861 158.774617,52.8029197 158.774617,53.9416058 C158.774617,55.3649635 158.498906,56.7408759 158.498906,58.4014599 C158.498906,59.8722628 158.59081,61.1532847 159.463895,61.1532847 C160.520788,61.1532847 163.04814,58.3065693 164.610503,56.1240876 Z M170.409091,51.5585586 C171.863636,51.5585586 172.863636,52.8153153 173.136364,53.1876877 C174.227273,51.7912913 175.045455,51 175.318182,51 C175.909091,51 176.727273,51.2792793 176.727273,51.9774775 C176.727273,52.3033033 176.545455,52.536036 176.227273,53.048048 C175.909091,53.5600601 175.363636,54.3048048 175.090909,55.4219219 C174.363636,58.4009009 173.818182,61.8918919 173.136364,65.1966967 C175.045455,65.1966967 177,65.2432432 177,66.5465465 C177,67.7102102 176.227273,68.0825826 175.818182,68.0825826 C175.318182,68.0825826 174.909091,67.7567568 174.636364,67.4774775 C174.363636,67.2447447 174.136364,67.1516517 173.681818,67.1516517 C173.5,67.1516517 173.090909,67.1981982 172.636364,67.2447447 C170.136364,76.3678679 166.954545,82 162.227273,82 C160.545455,82 159,80.7432432 159,78.3228228 C159,73.7612613 164.454545,67.4774775 170.863636,65.7087087 C171.5,62.8228228 172.136364,58.9129129 172.363636,57.1441441 C169.909091,60.2627628 166.454545,62.9624625 164.363636,62.9624625 C163.363636,62.9624625 162.272727,61.8918919 162.272727,60.1231231 C162.272727,56.7717718 166.590909,51.5585586 170.409091,51.5585586 Z M162.119403,80 C164.716418,80 168.119403,75.0153846 170,68 C165.477612,69.7538462 161,74.3692308 161,78.5230769 C161,79.4 161.492537,80 162.119403,80 Z M171,55.2516556 C171,54.9735099 170.636364,54 169.590909,54 C166.909091,54 164,58.7284768 164,60.1655629 C164,60.6291391 164.318182,61 164.681818,61 C166.090909,61 171,56.1788079 171,55.2516556 Z" id="Coastal-Living" fill="#FFFFFF" fill-rule="nonzero"></path>
            <path d="M24.3333333,0.189944134 L21.6666667,0.189944134 L19.7380952,12.5125698 L17.8095238,0.189944134 L15,0.189944134 L18.1428571,16.8100559 L21.1904762,16.8100559 L24.3333333,0.189944134 Z M28.5714286,16.8100559 L28.5714286,0.189944134 L25.8095238,0.189944134 L25.8095238,16.8100559 L28.5714286,16.8100559 Z M38.952381,6.12569832 L38.952381,3.41899441 C38.952381,0.94972067 37.1428571,0 34.8571429,0 L34.8095238,0 C32.5238095,0 30.7142857,0.94972067 30.7142857,3.41899441 L30.7142857,5.60335196 C30.7142857,7.33659218 31.6428571,8.09636872 33.2619048,9.02234637 L35.1904762,10.1145251 C36.0238095,10.5656425 36.2857143,10.9930168 36.2857143,11.8477654 L36.2857143,13.1536313 C36.2857143,14.174581 35.6904762,14.6256983 34.8571429,14.6256983 C34.0238095,14.6256983 33.4285714,14.174581 33.4285714,13.1536313 L33.4285714,10.6368715 L30.7142857,10.6368715 L30.7142857,13.5335196 C30.7142857,16.1215084 32.3095238,17 34.8333333,17 L34.8809524,17 C37.4047619,17 39,16.0977654 39,13.5335196 L39,11.1354749 C39,9.3547486 38.047619,8.61871508 36.452381,7.71648045 L34.5,6.62430168 C33.7142857,6.17318436 33.4285714,5.79329609 33.4285714,4.93854749 L33.4285714,3.79888268 C33.4285714,2.75418994 34.0238095,2.37430168 34.8333333,2.37430168 C35.6428571,2.37430168 36.2380952,2.75418994 36.2380952,3.79888268 L36.2380952,6.12569832 L38.952381,6.12569832 Z M43.8571429,16.8100559 L43.8571429,0.189944134 L41.0952381,0.189944134 L41.0952381,16.8100559 L43.8571429,16.8100559 Z M53.7142857,0.189944134 L45.3809524,0.189944134 L45.3809524,2.61173184 L48.1666667,2.61173184 L48.1666667,16.8100559 L50.9285714,16.8100559 L50.9285714,2.61173184 L53.7142857,2.61173184 L53.7142857,0.189944134 Z M55.1428571,0.189944134 L55.1428571,16.8100559 L57.9047619,16.8100559 L57.9047619,9.59217877 L61.0714286,9.59217877 L61.0714286,16.8100559 L63.8333333,16.8100559 L63.8333333,0.189944134 L61.0714286,0.189944134 L61.0714286,7.12290503 L57.9047619,7.12290503 L57.9047619,0.189944134 L55.1428571,0.189944134 Z M72.1190476,16.8100559 L71.5238095,13.1061453 L68.4761905,13.1061453 L67.8809524,16.8100559 L65.2142857,16.8100559 L68.3095238,0.189944134 L71.7857143,0.189944134 L74.9285714,16.8100559 L72.1190476,16.8100559 Z M68.8333333,10.8268156 L71.1666667,10.8268156 L70,3.44273743 L68.8333333,10.8268156 Z M83.3333333,14.3407821 L79.0714286,14.3407821 L79.0714286,0.189944134 L76.3095238,0.189944134 L76.3095238,16.8100559 L83.3333333,16.8100559 L83.3333333,14.3407821 Z M91.8333333,14.3407821 L87.5714286,14.3407821 L87.5714286,0.189944134 L84.8095238,0.189944134 L84.8095238,16.8100559 L91.8333333,16.8100559 L91.8333333,14.3407821 Z M99.2142857,16.8100559 L98.6190476,13.1061453 L95.5714286,13.1061453 L94.9761905,16.8100559 L92.3095238,16.8100559 L95.4047619,0.189944134 L98.8809524,0.189944134 L102.02381,16.8100559 L99.2142857,16.8100559 Z M95.9285714,10.8268156 L98.2619048,10.8268156 L97.0952381,3.44273743 L95.9285714,10.8268156 Z M105.928571,16.8100559 L105.928571,6.00698324 L109.571429,16.8100559 L112.190476,16.8100559 L112.190476,0.189944134 L109.666667,0.189944134 L109.666667,10.4706704 L106.166667,0.189944134 L103.404762,0.189944134 L103.404762,16.8100559 L105.928571,16.8100559 Z M118.833333,0.189944134 C121.357143,0.189944134 123.02381,1.18715084 123.02381,3.70391061 L123.02381,13.2960894 C123.02381,15.8128492 121.357143,16.8100559 118.833333,16.8100559 L114.571429,16.8100559 L114.571429,0.189944134 L118.833333,0.189944134 Z M120.261905,4.13128492 C120.261905,2.94413408 119.642857,2.61173184 118.738095,2.61173184 L117.333333,2.61173184 L117.333333,14.3882682 L118.738095,14.3882682 C119.642857,14.3882682 120.261905,14.0558659 120.261905,12.8687151 L120.261905,4.13128492 Z M127.785714,13.7234637 L125.071429,13.7234637 L125.071429,16.8100559 L127.785714,16.8100559 L127.785714,13.7234637 Z M138.261905,10.0432961 L135.5,10.0432961 L135.5,13.0586592 C135.5,14.222067 134.928571,14.5782123 134.047619,14.5782123 C133.166667,14.5782123 132.595238,14.222067 132.595238,13.0586592 L132.595238,3.94134078 C132.595238,2.77793296 133.166667,2.42178771 134.047619,2.42178771 C134.928571,2.42178771 135.5,2.77793296 135.5,3.94134078 L135.5,6.55307263 L138.261905,6.55307263 L138.261905,3.51396648 C138.261905,1.04469274 136.595238,0 134.071429,0 L134.02381,0 C131.5,0 129.833333,1.04469274 129.833333,3.51396648 L129.833333,13.4860335 C129.833333,16.0740223 131.5,17 134.02381,17 L134.071429,17 C136.595238,17 138.261905,16.0502793 138.261905,13.4860335 L138.261905,10.0432961 Z M140.357143,3.51396648 C140.357143,0.973463687 142.02381,0 144.547619,0 L144.738095,0 C147.261905,0 148.928571,0.997206704 148.928571,3.51396648 L148.928571,13.4860335 C148.928571,16.0027933 147.261905,17 144.738095,17 L144.547619,17 C142.02381,17 140.357143,16.0027933 140.357143,13.4860335 L140.357143,3.51396648 Z M143.119048,13.0586592 C143.119048,14.2458101 143.738095,14.5782123 144.642857,14.5782123 C145.547619,14.5782123 146.166667,14.2458101 146.166667,13.0586592 L146.166667,3.94134078 C146.166667,2.75418994 145.547619,2.42178771 144.642857,2.42178771 C143.738095,2.42178771 143.119048,2.75418994 143.119048,3.94134078 L143.119048,13.0586592 Z M160.333333,6.64804469 L160.333333,16.8100559 L163,16.8100559 L163,0.189944134 L160.285714,0.189944134 L157.047619,9.85335196 L153.833333,0.189944134 L151.214286,0.189944134 L151.214286,16.8100559 L153.785714,16.8100559 L153.785714,6.64804469 L156.285714,14.3882682 L157.833333,14.3882682 L160.333333,6.64804469 Z" id="Visithalland.com" fill="#FFFFFF"></path>
            <path d="M4,27 L173.897837,27" id="Path-2" stroke="#FFFFFF" stroke-width="0.791999949" stroke-linecap="round"></path>
        </g>
    </g>
</svg>