<svg xmlns="http://www.w3.org/2000/svg" width="20" height="20" viewBox="0 0 20 20">
  <path fill="#FFF" d="M10.1869203,0.106666667 C10.1869203,0.106666667 10.1159943,0 9.97414217,0 C9.85593209,0 9.78500603,0.106666667 9.78500603,0.106666667 C9.737722,0.16 4.18184787,6.21333333 6.61697568,14.8266667 C7.82271858,19.1466667 8.41376901,19.84 8.57926314,19.9466667 C8.69747323,20.0266667 8.86296735,20 8.95753542,19.8933333 L9.99778419,18.5866667 L11.038033,19.8933333 C11.085317,19.9733333 11.1798851,20 11.2744531,20 C11.3217372,20 11.3926632,19.9733333 11.4399473,19.9466667 C11.5817994,19.84 12.1728498,19.1466667 13.4022347,14.8266667 C15.7900785,6.21333333 10.2578464,0.186666667 10.1869203,0.106666667 Z M12.5038381,5.65333333 C11.7945775,5.36 11.085317,5.33333333 10.4469825,5.6 C8.86296735,6.21333333 8.08278077,8.18666667 8.05913875,8.26666667 C8.01185472,8.4 8.01185472,8.58666667 8.10642279,8.69333333 C8.20099086,8.8 8.31920094,8.85333333 8.46105305,8.8 C8.9338934,8.61333333 10.0687102,8.32 10.5179086,8.66666667 C10.5415506,8.66666667 10.8488968,8.85333333 10.9671069,9.25333333 C11.061675,9.68 11.061675,10.6666667 9.90321612,12.6133333 C9.00481945,14.1066667 8.15370682,15.0133333 7.5862984,15.4933333 C7.5862984,15.4933333 7.51537235,15.5466667 7.51537235,15.5466667 C7.42080428,15.2533333 7.32623621,14.9066667 7.23166814,14.56 C5.15117059,7.33333333 9.05210349,2.02666667 9.99778419,0.88 C10.4469825,1.44 11.7472935,3.14666667 12.5984061,5.68 C12.5511221,5.68 12.5274801,5.65333333 12.5038381,5.65333333 Z M9.00481945,15.0666667 C9.05210349,15.0133333 9.07574551,14.9866667 9.09938752,14.96 C9.54858586,14.4 9.99778419,13.7866667 10.4233405,13.0933333 C11.4399473,11.3866667 11.8418616,10 11.5817994,9.01333333 C11.3926632,8.32 10.9671069,8.05333333 10.8488968,8 C10.4706245,7.73333333 9.92685814,7.65333333 9.24123963,7.78666667 L9.05210349,7.81333333 L9.17031358,7.62666667 C9.4776598,7.2 9.97414217,6.61333333 10.6361187,6.34666667 C11.0143909,6.18666667 11.4399473,6.16 11.8655036,6.26666667 C12.0782817,6.32 12.3147019,6.4 12.5511221,6.50666667 C12.5984061,6.53333333 12.8111843,6.66666667 12.8821103,6.69333333 C13.5440868,9.28 13.5204448,11.9466667 12.7639002,14.5866667 C11.9600716,17.4133333 11.4635893,18.5866667 11.2035271,19.0666667 L10.1869203,17.76 C10.1869203,17.76 10.0923523,17.6533333 9.95050016,17.6533333 C9.80864805,17.6533333 9.737722,17.76 9.737722,17.76 L8.72111524,19.0666667 C8.5319791,18.72 8.20099086,17.9733333 7.68086647,16.32 C8.15370682,16.1333333 8.72111524,15.44 9.00481945,15.0666667 Z"/>
</svg>
