<svg xmlns="http://www.w3.org/2000/svg" width="20" height="20" viewBox="0 0 20 20">
  <g fill="#FFF" fill-rule="evenodd" stroke="#FFF" stroke-width=".5" transform="translate(0 2)">
    <path d="M6.64923077,5.48717949 C6.650362,4.31887029 7.59733159,3.37213015 8.76564103,3.37128205 L11.6425641,3.37128205 L11.6425641,6.43589744 L6.64923077,6.43589744 L6.64923077,5.48717949 Z M12.3261538,6.43589744 L16.5261538,6.43589744 L16.5261538,3.37128205 L12.3261538,3.37128205 L12.3261538,6.43589744 Z M5.96615385,7.11948718 L17.2097436,7.11948718 L17.2097436,2.68717949 L8.76564103,2.68717949 C7.22205128,2.68717949 5.96564103,3.94358974 5.96564103,5.48717949 L5.96564103,7.11948718 L5.96615385,7.11948718 Z"/>
    <path d="M12.2805128,12.6005128 C12.2819259,11.540795 13.1407947,10.6821557 14.2005128,10.6810256 C15.2604312,10.6818731 16.119612,11.540595 16.1210256,12.6005128 C16.1201773,13.6608312 15.2608312,14.5201773 14.2005128,14.5210256 C13.1403948,14.5198946 12.2813608,13.6606311 12.2805128,12.6005128 Z M19.0938462,12.5133333 L16.8,12.5133333 C16.7519651,11.1117082 15.6029591,9.99964984 14.2005128,9.9974359 C12.7981575,9.99965941 11.6493035,11.1117899 11.6015385,12.5133333 L4.08153846,12.5133333 L4.08153846,5.48717949 C4.08153846,2.90512821 6.1825641,0.804102564 8.76564103,0.804102564 L17.1112821,0.804102564 C18.2053535,0.805232074 19.0921505,1.69157034 19.0938462,2.78564103 L19.0938462,12.5128205 L19.0938462,12.5133333 Z M1.03897436,10.9774359 L0.354871795,10.9774359 L0.354871795,14.9774359 L1.03897436,14.9774359 L1.03897436,13.1969231 L11.6687179,13.1969231 C11.9458921,14.3717023 12.9934805,15.2024312 14.2005128,15.2046154 C15.4312821,15.2046154 16.4625641,14.345641 16.7328205,13.1969231 L19.7774359,13.1969231 L19.7774359,2.78615385 C19.7754572,1.31466418 18.5827724,0.122438118 17.1112821,0.121025641 L8.76564103,0.121025641 C5.80564103,0.121025641 3.39794872,2.52871795 3.39794872,5.48769231 L3.39794872,12.5133333 L1.03897436,12.5133333 L1.03897436,10.9774359 Z"/>
  </g>
</svg>
