<svg xmlns="http://www.w3.org/2000/svg" width="20" height="20" viewBox="0 0 20 20">
  <path fill="#FFF" fill-rule="evenodd" d="M15.5973646,1 C10.9062958,1 3,8.32650073 3,15.1522694 C3,17.6295754 4.39677892,19 6.61054173,19 C10.431918,19 14.806735,14.3616398 17.0204978,11.7789165 C17.3367496,11.4099561 17.4948755,11.2254758 17.4948755,10.9355783 C17.4948755,10.6456808 17.3103953,10.5139092 17.0204978,10.5139092 C16.704246,10.5139092 16.3616398,10.8828697 16.0190337,11.3572474 C14.3323572,13.5710102 10.3528551,17.7086384 6.63689605,17.7086384 C5.29282577,17.7086384 4.44948755,16.5490483 4.44948755,15.0468521 C4.44948755,9.16983895 11.8023426,2.18594436 15.5183016,2.18594436 C16.0717423,2.18594436 16.3352855,2.50219619 16.3352855,2.95021962 C16.3352855,4.53147877 14.806735,6.56076135 13.6471449,6.82430454 C12.8301611,7.00878477 12.6983895,7.4568082 12.6983895,7.77306003 C12.6983895,8.1420205 12.9355783,8.32650073 13.489019,8.32650073 C14.885798,8.32650073 17.7584187,5.19033675 17.7584187,2.9238653 C17.7584187,1.57979502 16.8623719,1 15.5973646,1 Z"/>
</svg>
