<svg xmlns="http://www.w3.org/2000/svg" width="20" height="20" viewBox="0 0 20 20">
  <path fill="#FFF" d="M18.8243261,9.77099237 C18.6720008,9.58778626 18.4282804,9.46564885 18.18456,9.46564885 L15.8387508,9.46564885 C16.4785169,8.64122137 17.8799094,6.65648855 17.8189793,5.16030534 C17.7885143,4.54961832 17.5447938,4 17.1182831,3.57251908 L18.215025,2.53435115 C18.3673503,2.38167939 18.3673503,2.13740458 18.215025,1.98473282 C18.0626998,1.83206107 17.8189793,1.83206107 17.666654,1.98473282 L16.9354928,2.6870229 L17.087818,0.427480916 C17.087818,0.213740458 16.9354928,0.0305343511 16.7222374,0 C16.508982,0 16.3261917,0.152671756 16.2957266,0.366412214 L16.1129363,2.96183206 C16.0520062,2.93129771 15.9910761,2.90076336 15.930146,2.90076336 C15.0466594,2.65648855 14.2241029,2.96183206 13.7671271,3.69465649 C13.2796863,4.45801527 12.3352696,6.29007634 11.7259685,7.51145038 C8.70992816,3.81679389 3.89644962,4.09160305 3.68319424,4.1221374 C3.53086897,4.1221374 3.40900875,4.21374046 3.34807864,4.36641221 C3.34807864,4.45801527 2.49505713,6.90076336 4.04877489,9.46564885 L2.83017272,9.46564885 C2.58645229,9.46564885 2.34273186,9.58778626 2.19040659,9.77099237 C2.03808132,9.95419847 1.97715121,10.1984733 2.00761626,10.4427481 C2.76924261,14.8396947 5.05412167,16.8244275 7.12574535,17.7099237 C7.00388513,17.8931298 6.94295502,18.0763359 6.94295502,18.2900763 C6.94295502,19.4198473 8.74039321,20 10.4769013,20 C12.2134094,20 14.0108476,19.4198473 14.0108476,18.2900763 C14.0108476,18.0763359 13.9499175,17.8931298 13.8280572,17.740458 C15.8996809,16.8854962 18.215025,14.9007634 18.9766514,10.4732824 C19.0375815,10.2290076 18.9766514,9.98473282 18.8243261,9.77099237 Z M13.5843368,5.67938931 C13.6148019,5.67938931 13.6452669,5.67938931 13.675732,5.67938931 C14.0717777,5.52671756 14.6201486,6.01526718 14.802939,6.19847328 C14.8943341,6.29007634 14.9857293,6.32061069 15.1075895,6.32061069 C15.1989847,6.32061069 15.2903798,6.29007634 15.3513099,6.22900763 C15.5036352,6.07633588 15.5341003,5.83206107 15.381775,5.67938931 C15.3513099,5.64885496 14.7724739,4.97709924 14.0413126,4.88549618 C14.2241029,4.58015267 14.3764282,4.30534351 14.4982884,4.1221374 C14.8943341,3.51145038 15.5341003,3.60305344 15.8082858,3.66412214 C16.4175868,3.81679389 17.057353,4.39694656 17.087818,5.22137405 C17.1182831,6.07633588 16.4785169,7.26717557 15.8692159,8.18320611 C15.1989847,7.35877863 14.4068933,7.45038168 14.3459632,7.48091603 C14.1327078,7.51145038 13.9803825,7.72519084 14.0108476,7.9389313 C14.0413126,8.15267176 14.254568,8.30534351 14.4678234,8.24427481 C14.4982884,8.24427481 14.9552642,8.18320611 15.3513099,8.79389313 C15.3513099,8.82442748 15.381775,8.82442748 15.41224,8.85496183 C15.2599148,9.06870229 15.1075895,9.2519084 14.9857293,9.40458015 C14.9552642,9.4351145 14.9247992,9.46564885 14.9247992,9.52671756 L13.0664309,9.52671756 C13.0664309,9.49618321 13.0664309,9.46564885 13.0359658,9.46564885 C12.8227105,9.03816794 12.6094551,8.64122137 12.3352696,8.24427481 C12.3352696,8.24427481 12.3352696,8.24427481 12.3352696,8.24427481 C12.6094551,7.54198473 13.127361,6.5648855 13.5843368,5.67938931 Z M4.84086629,9.3740458 C3.53086897,7.45038168 3.83551951,5.49618321 3.98784478,4.82442748 C5.08458672,4.82442748 9.25829913,5.03816794 11.6650384,8.61068702 C11.8478287,8.88549618 12.030619,9.19083969 12.1829443,9.46564885 L10.9338771,9.46564885 L10.0199255,9.46564885 L9.71527494,9.46564885 C9.71527494,9.40458015 9.68480989,9.3740458 9.65434483,9.34351145 C9.0145787,8.51908397 8.22248729,7.81679389 7.33900072,7.26717557 C7.1562104,7.14503817 6.94295502,7.20610687 6.8210948,7.38931298 C6.69923459,7.57251908 6.7601647,7.78625954 6.94295502,7.90839695 C7.64365126,8.33587786 8.25295235,8.88549618 8.77085826,9.49618321 L4.87133135,9.49618321 C4.87133135,9.4351145 4.87133135,9.40458015 4.84086629,9.3740458 Z M10.4769013,19.2366412 C8.80132332,19.2366412 7.70458137,18.6870229 7.70458137,18.3206107 C7.70458137,18.1984733 7.82644159,18.1068702 7.8873717,18.0152672 C8.95364859,18.351145 9.89806526,18.4122137 10.4769013,18.4122137 C10.4769013,18.4122137 10.5073663,18.4122137 10.5073663,18.4122137 C10.5073663,18.4122137 10.5378314,18.4122137 10.5378314,18.4122137 C11.0862024,18.4122137 12.030619,18.351145 13.0664309,18.0458015 C13.157826,18.1068702 13.2492212,18.2290076 13.2492212,18.3206107 C13.2492212,18.6870229 12.1220142,19.2366412 10.4769013,19.2366412 Z M11.0557373,17.6793893 C10.4769013,17.7099237 10.4769013,17.7099237 9.92853032,17.6793893 C8.00923191,17.5877863 3.80505445,16.610687 2.70831251,10.351145 C2.70831251,10.3206107 2.70831251,10.2900763 2.73877756,10.259542 C2.73877756,10.259542 2.76924261,10.2290076 2.83017272,10.2290076 L18.18456,10.2290076 C18.215025,10.2290076 18.2454901,10.259542 18.2759551,10.259542 C18.2759551,10.2900763 18.3064202,10.2900763 18.3064202,10.351145 C17.1792132,16.610687 12.9750357,17.5572519 11.0557373,17.6793893 Z"/>
</svg>
