<svg width="20" height="20" viewBox="0 0 20 20" fill="none" xmlns="http://www.w3.org/2000/svg">
<path d="M10.8553 13.573V6.86026L16.1683 4.22517C16.2871 4.16594 16.3871 4.07476 16.457 3.96185C16.5269 3.84895 16.5639 3.71881 16.5639 3.58603C16.5639 3.45326 16.5269 3.32311 16.457 3.21021C16.3871 3.09731 16.2871 3.00612 16.1683 2.9469L10.4554 0.0904317C10.409 0.0559047 10.3587 0.0271297 10.3054 0.00473781C10.2508 -0.00157927 10.1957 -0.00157927 10.1412 0.00473781H10.0483C9.99612 -0.00104026 9.94343 -0.00104026 9.89122 0.00473781C9.85125 0.0226127 9.813 0.0441268 9.77697 0.0690082C9.73642 0.0914243 9.69816 0.117733 9.66271 0.147561C9.62751 0.18459 9.59639 0.22529 9.56987 0.268961C9.5465 0.293486 9.52501 0.319745 9.5056 0.347514V0.347514C9.48881 0.393764 9.47685 0.441626 9.4699 0.490337C9.44323 0.563657 9.42875 0.640853 9.42705 0.718854C9.42705 0.718854 9.42705 0.718854 9.42705 0.718854V16.4294C9.42705 16.6188 9.50229 16.8005 9.63621 16.9344C9.77013 17.0683 9.95177 17.1435 10.1412 17.1435C10.3306 17.1435 10.5122 17.0683 10.6461 16.9344C10.78 16.8005 10.8553 16.6188 10.8553 16.4294V15.0012C14.0974 15.1369 15.8541 16.208 15.8541 16.7722C15.8541 17.3363 13.8403 18.5718 10.1412 18.5718C6.44204 18.5718 4.42823 17.3935 4.42823 16.7865C4.42823 16.3866 5.35658 15.6439 7.42038 15.244C7.60978 15.208 7.77712 15.0982 7.8856 14.9389C7.99408 14.7795 8.0348 14.5836 7.99882 14.3942C7.96283 14.2048 7.85308 14.0374 7.69371 13.929C7.53435 13.8205 7.33841 13.7798 7.14902 13.8158C4.54963 14.3442 3 15.4439 3 16.7865C3 18.9288 6.57058 20 10.1412 20C13.7117 20 17.2823 18.8931 17.2823 16.7865C17.2823 14.8155 14.1545 13.7301 10.8553 13.573ZM10.8553 1.86144L14.2545 3.57532L10.8553 5.28206V1.86144Z" fill="white"/>
</svg>
