<svg xmlns="http://www.w3.org/2000/svg" width="20" height="20" viewBox="0 0 20 20">
  <g fill="#FFF" transform="translate(2)">
    <path d="M6.94266667,2.36133333 C6.94266667,1.658 7.4,1.11733333 7.91466667,1.11733333 C8.42933333,1.11733333 8.88666667,1.658 8.88666667,2.36133333 C8.88666667,2.60933333 9.09266667,2.81066667 9.34666667,2.81066667 C9.6,2.81066667 9.80666667,2.60933333 9.80666667,2.36133333 C9.80666667,1.19666667 8.98,0.22 7.91466667,0.22 C6.84933333,0.22 6.02333333,1.19666667 6.02333333,2.36133333 C6.02333333,2.60933333 6.22933333,2.81066667 6.48333333,2.81066667 C6.73666667,2.81066667 6.94266667,2.60933333 6.94266667,2.36133333 Z"/>
    <path d="M6.90333333,6.70133333 L1.972,6.70133333 C1.824,6.70133333 1.63866667,6.45533333 1.63866667,6.09666667 L1.63866667,3.41866667 C1.63866667,3.06 1.824,2.814 1.972,2.814 L13.8553333,2.814 C14.0046667,2.814 14.1886667,3.05866667 14.1886667,3.41866667 L14.1886667,6.09666667 C14.1886667,6.45666667 14.0046667,6.70133333 13.8553333,6.70133333 L8.92333333,6.70133333 C8.67,6.70133333 8.46333333,6.902 8.46333333,7.15 C8.46333333,7.398 8.67,7.59866667 8.92333333,7.59866667 L13.8553333,7.59866667 C14.5846667,7.59866667 15.1086667,6.90333333 15.1086667,6.09666667 L15.1086667,3.41866667 C15.1086667,2.612 14.5846667,1.91666667 13.8553333,1.91666667 L1.972,1.91666667 C1.24533333,1.91666667 0.718666667,2.61333333 0.718666667,3.41866667 L0.718666667,6.09666667 C0.718666667,6.902 1.24533333,7.59866667 1.972,7.59866667 L6.90333333,7.59866667 C7.15666667,7.59866667 7.36333333,7.39866667 7.36333333,7.15 C7.36192798,7.0294721 7.31265025,6.91445037 7.22636202,6.83028808 C7.14007378,6.74612579 7.02385879,6.69973215 6.90333333,6.70133333 Z"/>
    <path d="M13.098,7.15 L13.098,18.1546667 C13.098,18.6193333 12.7886667,18.9706667 12.4433333,18.9706667 L3.38666667,18.9706667 C3.04133333,18.9706667 2.732,18.6193333 2.732,18.1546667 L2.732,7.15 C2.73059465,7.0294721 2.68131692,6.91445037 2.59502868,6.83028808 C2.50874045,6.74612579 2.39252546,6.69973215 2.272,6.70133333 C2.01866667,6.70133333 1.812,6.902 1.812,7.15 L1.812,18.1546667 C1.812,19.088 2.50066667,19.868 3.38666667,19.868 L12.444,19.868 C13.33,19.868 14.018,19.088 14.018,18.1546667 L14.018,7.15 C14.0165946,7.0294721 13.9673169,6.91445037 13.8810287,6.83028808 C13.7947404,6.74612579 13.6785255,6.69973215 13.558,6.70133333 C13.4375893,6.69991051 13.3215459,6.74638323 13.2354024,6.83052634 C13.1492588,6.91466944 13.1000729,7.02958907 13.0986667,7.15 L13.098,7.15 Z"/>
    <path d="M8.464,2.81266667 L7.36333333,2.81266667 L7.36333333,8.50333333 L7.91333333,8.886 L8.464,8.50333333 L8.464,2.81266667 Z M9.19066667,9.1 L8.18,9.80266667 C8.01955331,9.91368167 7.80711335,9.91368167 7.64666667,9.80266667 L6.63666667,9.1 C6.51618856,9.01731525 6.44393861,8.88078776 6.44333333,8.73466667 L6.44333333,2.364 C6.44333333,2.116 6.65,1.91533333 6.90333333,1.91533333 L8.92333333,1.91533333 C9.17733333,1.91533333 9.38333333,2.116 9.38333333,2.364 L9.38333333,8.73466667 C9.38272805,8.88078776 9.31047811,9.01731525 9.19,9.1 L9.19066667,9.1 Z M13.558,11.1486667 L14.5406667,11.1486667 C14.564,11.1486667 14.7206667,11.4293333 14.7206667,11.8486667 L14.7206667,16.0766667 C14.7206667,16.496 14.564,16.7766667 14.5406667,16.7766667 L13.558,16.7766667 C13.3071447,16.7737023 13.1012931,16.9744821 13.098,17.2253333 C13.098,17.4733333 13.304,17.674 13.558,17.674 L14.5406667,17.674 C15.224,17.674 15.6393333,16.9253333 15.6393333,16.0766667 L15.6393333,11.8486667 C15.6393333,10.9993333 15.224,10.2513333 14.5406667,10.2513333 L13.558,10.2513333 C13.3071447,10.2483689 13.1012931,10.4491488 13.098,10.7 C13.098,10.948 13.304,11.1486667 13.558,11.1486667 Z M2.272,16.7766667 L1.28533333,16.7766667 C1.26533333,16.7766667 1.10933333,16.4946667 1.10933333,16.0766667 L1.10933333,11.8486667 C1.10933333,11.4306667 1.26533333,11.1486667 1.286,11.1486667 L2.27266667,11.1486667 C2.526,11.1486667 2.732,10.948 2.732,10.7 C2.73059465,10.5794721 2.68131692,10.4644504 2.59502868,10.3802881 C2.50874045,10.2961258 2.39252546,10.2497322 2.272,10.2513333 L1.28533333,10.2513333 C0.605333333,10.2513333 0.190666667,11.0006667 0.190666667,11.8486667 L0.190666667,16.0766667 C0.190666667,16.9246667 0.604666667,17.674 1.286,17.674 L2.27266667,17.674 C2.526,17.674 2.732,17.474 2.732,17.2253333 C2.73059465,17.1048054 2.68131692,16.9897837 2.59502868,16.9056214 C2.50874045,16.8214591 2.39252546,16.7750655 2.272,16.7766667 Z M9.564,16.31 L9.564,12.2473333 C9.564,12.174 9.54,12.1453333 9.55733333,12.1453333 L6.12133333,12.1453333 C6.13933333,12.1453333 6.11466667,12.174 6.11466667,12.2473333 L6.11466667,16.31 C6.11466667,16.3833333 6.13933333,16.4126667 6.12133333,16.4126667 L9.55733333,16.4126667 C9.54,16.4126667 9.564,16.384 9.564,16.31 Z M10.484,16.31 C10.484,16.846 10.0906667,17.31 9.55733333,17.31 L6.12133333,17.31 C5.588,17.31 5.19533333,16.846 5.19533333,16.31 L5.19533333,12.2473333 C5.19533333,11.712 5.58866667,11.2473333 6.122,11.2473333 L9.55733333,11.2473333 C10.0906667,11.2473333 10.484,11.712 10.484,12.2473333 L10.484,16.31 Z"/>
    <path d="M5.27333333,12.6253333 C5.41333333,12.8266667 5.65666667,13.1133333 5.99066667,13.4006667 C7.38266667,14.5986667 8.99533333,14.5986667 10.4006667,12.6306667 C10.4702844,12.5333266 10.4974559,12.4119172 10.4759707,12.2941882 C10.4544855,12.1764592 10.3861801,12.0724741 10.2866667,12.006 C10.0782774,11.8641681 9.79491777,11.9134608 9.64666667,12.1173333 C8.588,13.6 7.612,13.6 6.59866667,12.7273333 C6.38755128,12.548855 6.19844192,12.3458702 6.03533333,12.1226667 C5.88988727,11.9170643 5.60754003,11.8639583 5.39733333,12.0026667 C5.29690139,12.0676437 5.22709357,12.1705522 5.20385193,12.2878911 C5.18061029,12.40523 5.20591962,12.5269786 5.274,12.6253333 L5.27333333,12.6253333 Z"/>
  </g>
</svg>
