<svg width="253" height="31" viewBox="0 0 253 31" fill="none" xmlns="http://www.w3.org/2000/svg">
<path fill-rule="evenodd" clip-rule="evenodd" d="M4.64284 13.5242H2.64786L0 3.54114e-07H1.84164L3.68329 10.6065L5.5439 3.54114e-07H7.2907L4.64284 13.5242Z" transform="translate(0 7.26141)" fill="black"/>
<path fill-rule="evenodd" clip-rule="evenodd" d="M-2.77394e-07 13.5242H1.80371V3.54114e-07H-2.77394e-07V13.5242Z" transform="translate(8.70801 7.26141)" fill="black"/>
<path fill-rule="evenodd" clip-rule="evenodd" d="M4.64278 4.92676V3.09122C4.64278 2.00909 4.12402 1.58382 3.20323 1.58382C2.28214 1.58382 1.76454 2.00909 1.76454 3.09122V4.01847C1.76454 4.82963 2.05245 5.11956 2.82002 5.56408L4.56545 6.52983C5.71709 7.18699 6.44643 7.84414 6.44643 9.13832V11.0121C6.44643 13.041 5.27567 13.8332 3.24233 13.8332H3.20323C1.1696 13.8332 -1.08609e-07 13.0602 -1.08609e-07 11.0121V8.71334H1.76454V10.7032C1.76454 11.7658 2.28214 12.2485 3.22321 12.2485C4.16313 12.2485 4.68073 11.7658 4.68073 10.7032V9.64059C4.68073 8.82914 4.39282 8.48146 3.60642 8.03694L1.88011 7.07148C0.652 6.35628 -1.08609e-07 5.77671 -1.08609e-07 4.48224V2.78204C-1.08609e-07 0.830995 1.34223 1.91814e-07 3.18411 1.91814e-07H3.22321C5.06509 1.91814e-07 6.40704 0.830995 6.40704 2.78204V4.92676H4.64278Z" transform="translate(12.4707 7.10736)" fill="black"/>
<path fill-rule="evenodd" clip-rule="evenodd" d="M4.82425e-07 13.5242H1.80371V3.54114e-07H4.82425e-07V13.5242Z" transform="translate(20.835 7.26141)" fill="black"/>
<path fill-rule="evenodd" clip-rule="evenodd" d="M6.48607 1.6037H4.1433V13.5242H2.34118V1.6037H5.18607e-07V3.54114e-07H6.48607V1.6037Z" transform="translate(24.0381 7.26141)" fill="black"/>
<path fill-rule="evenodd" clip-rule="evenodd" d="M1.80371 3.54114e-07V5.83542H4.96849V3.54114e-07H6.77219V13.5242H4.96849V7.45832H1.80371V13.5242H-1.44728e-07V3.54114e-07H1.80371Z" transform="translate(31.8467 7.26141)" fill="black"/>
<path fill-rule="evenodd" clip-rule="evenodd" d="M4.91158 8.80989L3.76109 2.28006L2.59033 8.80989H4.91158ZM5.19949 10.3363H2.32154L1.74571 13.524H-1.0855e-06L2.66651 -9.37108e-08H4.89246L7.59807 13.524H5.75648L5.19949 10.3363Z" transform="translate(39.9619 7.2619)" fill="black"/>
<path fill-rule="evenodd" clip-rule="evenodd" d="M5.4285 13.5242H-8.44244e-07V3.54114e-07H1.80371V11.8821H5.4285V13.5242Z" transform="translate(48.9023 7.26141)" fill="black"/>
<path fill-rule="evenodd" clip-rule="evenodd" d="M5.4285 13.5242H-1.592e-06V3.54114e-07H1.80371V11.8821H5.4285V13.5242Z" transform="translate(55.6934 7.26141)" fill="black"/>
<path fill-rule="evenodd" clip-rule="evenodd" d="M4.91158 8.80989L3.75964 2.28006L2.58888 8.80989H4.91158ZM5.19833 10.3363H2.32124L1.74542 13.524H2.37839e-06L2.66651 -9.37108e-08H4.8913L7.59691 13.524H5.75504L5.19833 10.3363Z" transform="translate(61.6797 7.2619)" fill="black"/>
<path fill-rule="evenodd" clip-rule="evenodd" d="M1.39903e-06 13.5242V3.54114e-07H1.8037L5.18032 9.3117V3.54114e-07H6.84965V13.5242H5.1234L1.66934 3.90362V13.5242H1.39903e-06Z" transform="translate(70.6182 7.26141)" fill="black"/>
<path fill-rule="evenodd" clip-rule="evenodd" d="M3.24233 1.60365H1.80365V11.9204H3.24233C4.2393 11.9204 4.77718 11.5146 4.77718 10.317V3.20731C4.77718 2.00938 4.2393 1.60365 3.24233 1.60365ZM6.58083 2.85934V10.6647C6.58083 12.6548 5.353 13.524 3.31851 13.524H-1.6827e-06V-9.37108e-08H3.31851C5.353 -9.37108e-08 6.58083 0.869205 6.58083 2.85934Z" transform="translate(79.6162 7.2619)" fill="black"/>
<path fill-rule="evenodd" clip-rule="evenodd" d="M4.82425e-07 2.12386H1.8037V5.8612e-07H4.82425e-07V2.12386Z" transform="translate(88.0195 18.6617)" fill="black"/>
<path fill-rule="evenodd" clip-rule="evenodd" d="M6.56142 10.9739C6.56142 13.0022 5.33388 13.8332 3.30026 13.8332H3.26232C1.22782 13.8332 1.05346e-06 13.0215 1.05346e-06 10.9739V2.85934C1.05346e-06 0.908291 1.22782 1.91814e-07 3.26232 1.91814e-07H3.30026C5.33388 1.91814e-07 6.56142 0.908291 6.56142 2.85934V5.27415H4.75777V3.20731C4.75777 2.02834 4.25929 1.60365 3.28143 1.60365C2.30213 1.60365 1.80364 2.02834 1.80364 3.20731V10.6262C1.80364 11.8046 2.30213 12.2292 3.28143 12.2292C4.25929 12.2292 4.75777 11.8046 4.75777 10.6262V8.23003H6.56142V10.9739ZM11.8183 12.2292C12.8164 12.2292 13.3531 11.8238 13.3531 10.6262V3.20731C13.3531 2.00909 12.8164 1.60365 11.8183 1.60365C10.821 1.60365 10.2834 2.00909 10.2834 3.20731V10.6262C10.2834 11.8238 10.821 12.2292 11.8183 12.2292ZM11.7421 1.91814e-07H11.8953C13.9286 1.91814e-07 15.1567 0.869205 15.1567 2.85934V10.9739C15.1567 12.964 13.9286 13.8332 11.8953 13.8332H11.7421C9.70759 13.8332 8.47947 12.964 8.47947 10.9739V2.85934C8.47947 0.849955 9.70759 1.91814e-07 11.7421 1.91814e-07Z" transform="translate(91.6445 7.10736)" fill="black"/>
<path fill-rule="evenodd" clip-rule="evenodd" d="M5.10285 11.4372H4.08482L1.68673 4.32775V13.5242H2.6051e-06V3.54114e-07H1.72624L4.58436 8.40422L7.48198 3.54114e-07H9.26513V13.5242H7.51991V4.32775L5.10285 11.4372Z" transform="translate(108.874 7.26141)" fill="black"/>
<path fill-rule="evenodd" clip-rule="evenodd" d="M0.541939 27.3858C0.242442 27.3858 -5.52435e-06 27.1417 -5.52435e-06 26.8401V0.545733C-5.52435e-06 0.244428 0.242442 -7.51113e-09 0.541939 -7.51113e-09C0.841436 -7.51113e-09 1.08387 0.244428 1.08387 0.545733V26.8401C1.08387 27.1417 0.841436 27.3858 0.541939 27.3858ZM31.9318 17.2706C31.6948 17.2706 31.5764 17.0916 31.5764 16.9128C31.5764 15.4503 34.1844 12.6446 35.4591 12.6446C35.6961 12.6446 35.785 12.8237 35.785 13.0031C35.785 13.3312 36.2887 13.2414 36.2887 13.391C36.2887 13.8982 32.4358 17.2706 31.9318 17.2706ZM26.0047 17.7187C25.6192 17.7187 25.2635 17.3899 25.2635 16.853C25.2635 14.913 26.953 12.7639 28.2272 12.7639C28.2865 12.7639 28.3161 12.7939 28.3161 12.8534C28.3161 12.9727 28.2272 13.2119 28.2272 13.5103C28.2272 13.8982 28.6718 14.0473 28.6718 14.1368C28.6718 15.0323 27.1604 17.7187 26.0047 17.7187ZM44.7945 11.272C43.6904 11.272 41.9113 12.2998 41.3903 13.5567C41.3129 13.6491 41.2333 13.7533 41.1496 13.8682C40.053 15.3012 38.2745 17.2111 37.2074 17.2111C36.9407 17.2111 36.8222 16.8827 36.8222 16.4951C36.8222 16.047 37 15.4503 37.3557 14.7937C37.9779 13.5999 38.749 12.5851 38.749 12.1972C38.749 11.8387 38.4524 11.5703 37.9779 11.5703C37.4742 11.5703 37.3259 12.1972 37.089 12.1972C36.9705 12.1972 36.437 11.5106 35.8739 11.5106C35.0215 11.5211 34.0723 11.8967 33.197 12.5046C33.1796 12.5031 33.1648 12.4956 33.1471 12.4956C32.8508 12.4956 31.6951 13.3312 30.4798 13.3312C30.0056 13.3312 30.0056 12.6446 30.0056 12.406C30.0056 11.958 29.5019 11.421 28.4053 11.421C27.0535 11.421 25.6053 12.5513 24.7572 14.1048C22.8649 16.547 18.4501 21.2702 14.0906 21.2702C12.4604 21.2702 11.3933 19.957 11.3933 18.1363C11.3933 11.7194 19.6924 3.51153 24.0191 3.51153C24.7604 3.51153 25.0567 3.93009 25.0567 4.52658C25.0567 6.40674 23.2487 8.70518 21.8853 9.00357C21.0554 9.21241 20.9665 9.63009 20.9665 9.95882C20.9665 10.287 21.1739 10.5255 21.7075 10.5255C22.9819 10.5255 26.5385 7.21265 26.5385 4.46707C26.5385 3.0043 25.353 2.31827 23.9896 2.31827C18.6844 2.31827 9.94133 11.1226 9.94133 18.435C9.94133 21.0015 11.5712 22.5535 14.0312 22.5535C17.644 22.5535 21.4245 19.2205 24.0417 16.4009C24.0284 16.5511 24.0189 16.7016 24.0189 16.853C24.0189 18.1363 24.8487 18.7632 25.6785 18.7632C27.7533 18.7632 29.1164 16.4055 29.7391 14.6146C29.8208 14.6146 30.4963 14.6146 31.2676 14.4475C30.6283 15.3817 30.213 16.4536 30.213 17.5396C30.213 18.2556 30.8059 18.7031 31.1022 18.7031C31.7838 18.7031 32.7028 18.1069 34.0957 16.8827C34.7477 16.2856 35.2219 15.7189 35.3997 15.7189C35.4591 15.7189 35.4591 15.8085 35.4591 15.9873C35.4591 16.2559 35.3997 16.6739 35.3997 17.0026C35.3997 17.7484 35.8739 18.4053 36.7927 18.4053C38.1135 18.4053 40.0918 16.5802 41.5136 14.9789C42.0831 15.6326 43.3422 15.8023 43.3422 16.7039C43.3422 17.3007 42.9268 17.8082 42.3047 17.8082C41.7416 17.8082 41.4748 17.5098 41.4748 17.0026C41.4748 16.7039 41.2081 16.5543 40.9413 16.5543C40.5856 16.5543 40.2893 16.8827 40.2893 17.3007C40.2893 18.017 41.0896 18.7632 42.1268 18.7632C43.8459 18.7632 44.7056 17.6886 44.7056 16.7039C44.7056 14.7937 42.5715 14.913 42.5715 14.077C42.5715 13.2119 43.9644 12.406 44.3794 12.406C44.6164 12.406 44.8238 12.6149 44.8238 12.7939C44.8238 12.9132 44.3794 13.0031 44.3794 13.5103C44.3794 13.8384 44.6755 14.0178 45.0016 14.0178C45.5945 14.0178 45.9797 12.9727 45.9797 12.3462C45.9797 11.7194 45.2982 11.272 44.7945 11.272ZM49.9812 10.2569C50.8108 9.95882 51.6111 9.71964 52.2631 9.71964C52.4708 9.71964 52.7262 9.71264 52.9183 9.80539C53.3131 9.99586 53.51 10.4375 54.0111 10.079C54.324 9.85527 54.3471 9.42913 54.1548 9.12986C53.8623 8.67455 53.1914 8.61563 52.7077 8.61563C52.0557 8.61563 51.4335 8.76497 50.8108 8.94377C51.8185 7.2424 51.9665 6.82443 52.4705 6.40674C53.0339 5.95931 53.0929 5.72042 53.0929 5.36253C53.0929 5.00406 52.856 4.82496 52.4705 4.82496C52.0853 4.82496 51.7594 5.12335 51.2554 5.84001C50.544 6.82443 49.9813 7.89927 49.1213 9.451C48.7954 9.5108 48.4991 9.57088 48.2028 9.57088C47.8471 9.57088 47.7582 9.36204 47.3136 9.36204C46.8394 9.36204 46.5431 9.71964 46.5431 10.1079C46.5431 10.5255 46.8985 10.7344 47.788 10.7344C47.9951 10.7344 48.2028 10.7344 48.4102 10.7046C46.9877 13.5401 45.565 16.7932 45.565 18.5246C45.565 19.2704 45.8613 19.7184 46.3059 19.7184C46.7207 19.7184 46.9284 19.3599 46.9284 19.1213C46.9284 18.8527 46.7505 18.7031 46.7505 18.3154C46.7505 16.7634 48.3804 13.1518 49.9812 10.2569Z" transform="translate(127.445)" fill="black"/>
<path fill-rule="evenodd" clip-rule="evenodd" d="M15.0852 5.86364C16.5966 3.08772 17.8117 2.25235 18.1972 2.25235C18.4935 2.25235 18.6418 2.37136 18.6418 2.67003C18.6418 3.38611 18.2858 4.28156 16.5372 6.69901C14.9369 8.87814 13.4551 10.1913 13.0698 10.3704C13.1585 9.8929 13.5141 8.63955 15.0852 5.86364ZM1.71877 16.2498C1.48184 16.2498 1.36338 16.0707 1.36338 15.8919C1.36338 14.4294 3.97109 11.6237 5.24583 11.6237C5.48305 11.6237 5.57168 11.8028 5.57168 11.9822C5.57168 12.3103 6.07538 12.2205 6.07538 12.3701C6.07538 12.8774 2.22247 16.2498 1.71877 16.2498ZM17.3375 7.53525C19.4716 4.78909 19.9458 2.96842 19.9458 2.1033C19.9458 1.50623 19.3529 0.879122 18.7898 0.879122C17.1301 0.879122 15.7966 2.40111 14.0181 5.47541C12.7993 7.58571 11.4608 10.5632 10.8077 13.0124C9.70469 14.4227 8.02125 16.1903 6.99444 16.1903C6.72767 16.1903 6.60921 15.8618 6.60921 15.4742C6.60921 15.0262 6.78705 14.4294 7.14274 13.7728C7.7649 12.579 8.53567 11.5642 8.53567 11.1763C8.53567 10.8178 8.23936 10.5495 7.76491 10.5495C7.26121 10.5495 7.11291 11.1763 6.87569 11.1763C6.75752 11.1763 6.22368 10.4897 5.6609 10.4897C3.23045 10.5194 5.0095e-07 13.4744 5.0095e-07 16.5187C5.0095e-07 17.2348 0.592619 17.6822 0.889218 17.6822C1.57047 17.6822 2.48953 17.086 3.88245 15.8618C4.53474 15.2648 5.0089 14.698 5.18675 14.698C5.24583 14.698 5.24583 14.7876 5.24583 14.9664C5.24583 15.235 5.18675 15.653 5.18675 15.9817C5.18675 16.7275 5.6609 17.3844 6.57937 17.3844C7.65079 17.3844 9.15407 16.183 10.443 14.8751C10.419 15.1052 10.4024 15.3283 10.4024 15.5334C10.4024 16.9066 11.5582 17.7125 12.5363 17.7125C13.8105 17.7125 14.6701 16.9661 15.2332 16.3994C15.6185 15.9817 15.7074 15.7723 15.7074 15.5334C15.7074 15.2951 15.5591 15.1157 15.2923 15.1157C14.9665 15.1157 14.6701 15.5039 14.2849 15.8919C13.9292 16.22 13.3366 16.6082 12.8031 16.6082C12.1511 16.6082 11.7655 16.0707 11.7655 15.2053C11.7655 14.5484 12.3584 12.579 13.0994 11.8326C14.3443 10.5795 15.4111 9.98244 17.3375 7.53525ZM23.5908 20.6235C21.0418 20.6235 19.7083 19.3999 19.7083 17.3106C19.7083 15.2513 21.8421 12.6846 26.2581 12.6846C28.8366 12.6846 31 13.1323 32.6597 13.8189C30.1997 17.6393 27.0584 20.6235 23.5908 20.6235ZM43.5368 1.2236C44.1596 1.2236 44.515 1.70137 44.515 2.47753C44.515 4.59658 41.6993 7.31241 37.3424 8.11832C39.6246 4.08906 41.5215 1.2236 43.5368 1.2236ZM34.4086 13.4604C34.4086 13.4604 35.5646 11.5505 36.6018 9.46121C42.1439 8.83468 45.8488 5.31265 45.8488 2.23835C45.8488 0.805911 44.8116 -1.48889e-08 43.5667 -1.48889e-08C40.5433 -1.48889e-08 38.3799 3.40273 35.683 8.32716C30.8517 8.32716 27.5917 6.14831 27.5917 3.58183C27.5917 2.77591 27.4729 2.32789 26.9692 2.32789C26.4655 2.32789 26.2581 2.65662 26.2581 3.58183C26.2581 6.74538 29.9627 9.55076 35.0603 9.55076C34.2898 11.1328 33.5194 12.446 33.2526 12.8637C31.4151 12.028 29.0738 11.5505 26.3766 11.5505C21.3677 11.5505 18.4634 14.3856 18.4634 17.3106C18.4634 20.116 20.5381 21.8173 23.5908 21.8173C27.8289 21.8173 31 18.9221 33.8159 14.416C35.4753 15.3706 36.3941 16.5942 36.3941 17.7881C36.3941 18.1162 36.2756 18.5345 36.2756 18.9221C36.2756 19.3104 36.5129 19.6685 37.0461 19.6685C37.4615 19.6685 37.8169 19.2509 37.8169 18.7731C37.8169 16.6543 36.572 14.8033 34.4086 13.4604ZM44.7791 7.03094C44.7791 7.44862 44.9274 8.07515 45.2828 8.07515C45.6385 8.07515 46.4389 7.65746 46.4389 6.9411C46.4389 6.34432 46.0831 6.10573 45.7868 6.10573C45.1939 6.10573 44.7791 6.61296 44.7791 7.03094ZM51.4492 7.53525C51.1233 7.53525 50.8566 7.89314 50.8566 8.22128C50.8566 8.57976 51.2711 8.93794 51.2711 9.59422C51.2711 12.4894 48.3667 16.1903 47.6258 16.1903C47.4778 16.1903 47.448 16.0707 47.448 15.9817C47.448 15.6232 48.2187 13.1457 48.2187 12.0414C48.2187 11.2956 47.7148 10.8476 47.448 10.8476C47.0926 10.8476 46.8551 11.1162 46.8551 11.594C46.8551 12.0414 46.8852 12.0717 46.8852 12.3999C46.8852 12.42 46.8832 12.4416 46.8826 12.4623C46.7824 12.5731 46.6784 12.6974 46.5593 12.8473C45.4926 14.2803 43.3584 16.4586 42.499 16.4586C42.1135 16.4586 41.9655 16.1305 41.9655 15.8618C41.9655 15.2053 42.8547 13.116 43.5067 11.9822C43.7735 11.5342 44.0698 11.2358 44.0698 10.9076C44.0698 10.5795 43.6547 10.3704 43.388 10.3704C43.0027 10.3704 42.736 10.8476 42.4101 11.4149C42.1729 11.8626 40.6612 14.7876 40.6612 16.1007C40.6612 17.086 41.3726 17.6227 41.8766 17.6227C43.0783 17.6227 45.0601 15.954 46.5252 14.4157C46.3126 15.2169 46.0849 15.9593 46.0849 16.3099C46.0849 16.9962 46.6477 17.5332 47.211 17.5332C49.256 17.5332 52.4569 12.0717 52.4569 9.38538C52.4569 7.59475 51.8049 7.53525 51.4492 7.53525ZM56.4262 8.07515C56.7822 8.07515 57.5822 7.65746 57.5822 6.9411C57.5822 6.34432 57.2265 6.10573 56.9299 6.10573C56.3376 6.10573 55.9225 6.61296 55.9225 7.03094C55.9225 7.44862 56.0711 8.07515 56.4262 8.07515ZM66.8901 28.8454C66.4455 28.8454 66.06 28.4568 66.06 27.8003C66.06 24.9051 68.9947 21.9801 72.2248 20.8758C70.9208 25.741 68.6384 28.8454 66.8901 28.8454ZM68.8166 16.4586C68.4904 16.4586 68.2239 16.1903 68.2239 15.8023C68.2239 14.8173 70.1501 11.6835 71.9879 11.6835C72.7879 11.6835 73.1141 12.3999 73.1141 12.6087C73.1141 13.2355 69.7652 16.4586 68.8166 16.4586ZM73.9144 19.2943C74.5368 16.4889 74.8033 14.0412 75.1885 12.9074C75.663 11.594 76.2854 10.9972 76.2854 10.6691C76.2854 10.3403 75.5442 10.221 75.3073 10.221C75.0999 10.221 74.2996 11.3554 73.9144 11.6835C73.8848 11.7133 73.2922 10.5795 72.1356 10.5795C70.4218 10.5795 68.6239 12.1636 67.6698 13.8522C66.6865 15.0381 65.5395 16.1903 64.9639 16.1903C64.2528 16.1903 64.2528 15.4742 64.2528 14.4589C64.2528 13.6833 64.4307 12.191 64.4307 11.594C64.4307 10.9674 63.9562 10.4897 63.3633 10.4897C61.7923 10.4897 59.0366 13.9516 58.9473 13.9516C58.888 13.9516 58.8291 13.9219 58.8291 13.8323C58.8291 13.4744 59.8661 11.0867 59.8661 10.2808C59.8661 9.95269 59.5402 9.80306 59.3917 9.80306C58.5916 9.80306 58.4436 10.2808 58.0584 11.5642C57.9376 11.9565 57.7809 12.4439 57.6124 12.9657C56.5198 14.397 54.4789 16.4586 53.6424 16.4586C53.2575 16.4586 53.1092 16.1305 53.1092 15.8618C53.1092 15.2053 53.9981 13.116 54.6504 11.9822C54.9169 11.5342 55.2135 11.2358 55.2135 10.9076C55.2135 10.5795 54.7984 10.3704 54.5316 10.3704C54.1461 10.3704 53.8796 10.8476 53.5538 11.4149C53.3166 11.8626 51.8049 14.7876 51.8049 16.1007C51.8049 17.086 52.5163 17.6227 53.02 17.6227C54.021 17.6227 55.5619 16.4653 56.8955 15.1901C56.5667 16.2273 56.3101 17.0889 56.3101 17.2946C56.3101 17.7717 56.7544 17.8916 57.1987 17.8916C57.6141 17.8916 57.7618 16.8468 58.3547 16.0112C59.0658 15.0559 61.7923 11.9822 62.7116 11.9822C63.0082 11.9822 63.067 12.191 63.067 12.4597C63.067 13.176 62.8596 13.8921 62.8596 14.4892C62.8596 15.7723 63.0375 17.3844 64.5787 17.3844C65.273 17.3844 66.1292 16.7867 66.986 15.9768C66.9851 16.0074 66.9793 16.0403 66.9793 16.0707C66.9793 17.1452 67.7199 17.7717 68.1944 17.7717C69.439 17.7717 72.1657 15.5935 73.559 13.7728C73.559 14.4892 73.0252 17.3541 72.5215 19.6225C68.2532 20.727 64.7858 24.7266 64.7858 27.6807C64.7858 29.1735 65.7935 29.9791 66.8307 29.9791C69.8836 29.9791 71.9879 26.3381 73.6181 20.3989C73.9144 20.3686 74.1811 20.3388 74.3885 20.3388C75.0704 20.3388 75.1593 20.9653 75.7221 20.9653C75.9596 20.9653 76.4633 20.7863 76.4633 20.1597C76.4633 19.2345 74.8328 19.2048 73.9144 19.2943Z" transform="translate(176.537 1.02087)" fill="black"/>
</svg>
