<svg width="295" height="36" viewBox="0 0 295 36" fill="none" xmlns="http://www.w3.org/2000/svg">
<rect width="293.878" height="35.7581" fill="black" fill-opacity="0" transform="translate(1)"/>
<path fill-rule="evenodd" clip-rule="evenodd" d="M149.666 31.5892C149.318 31.5892 149.037 31.3075 149.037 30.9597V0.629495C149.037 0.281944 149.318 0 149.666 0C150.014 0 150.296 0.281944 150.296 0.629495V30.9597C150.296 31.3075 150.014 31.5892 149.666 31.5892Z" fill="#FFFFFE"/>
<path fill-rule="evenodd" clip-rule="evenodd" d="M186.128 19.9214C185.852 19.9214 185.715 19.7149 185.715 19.5086C185.715 17.8217 188.744 14.5854 190.225 14.5854C190.5 14.5854 190.603 14.7919 190.603 14.9989C190.603 15.3774 191.188 15.2737 191.188 15.4463C191.188 16.0314 186.713 19.9214 186.128 19.9214ZM179.243 20.4382C178.795 20.4382 178.382 20.059 178.382 19.4396C178.382 17.2019 180.344 14.723 181.824 14.723C181.893 14.723 181.928 14.7576 181.928 14.8263C181.928 14.9639 181.824 15.2398 181.824 15.5839C181.824 16.0314 182.341 16.2033 182.341 16.3066C182.341 17.3395 180.585 20.4382 179.243 20.4382ZM201.069 13.002C199.786 13.002 197.719 14.1877 197.114 15.6374C197.024 15.7441 196.932 15.8642 196.835 15.9968C195.561 17.6497 193.495 19.8528 192.256 19.8528C191.946 19.8528 191.808 19.474 191.808 19.0268C191.808 18.51 192.015 17.8217 192.428 17.0643C193.151 15.6872 194.046 14.5167 194.046 14.0693C194.046 13.6558 193.702 13.3462 193.151 13.3462C192.565 13.3462 192.393 14.0693 192.118 14.0693C191.98 14.0693 191.361 13.2773 190.707 13.2773C189.716 13.2894 188.614 13.7227 187.597 14.4239C187.577 14.4222 187.56 14.4134 187.539 14.4134C187.195 14.4134 185.853 15.3774 184.441 15.3774C183.89 15.3774 183.89 14.5854 183.89 14.3101C183.89 13.7934 183.305 13.174 182.031 13.174C180.461 13.174 178.779 14.4777 177.794 16.2696C175.596 19.0867 170.467 24.5348 165.404 24.5348C163.51 24.5348 162.271 23.0201 162.271 20.92C162.271 13.5181 171.911 4.05048 176.936 4.05048C177.797 4.05048 178.142 4.53329 178.142 5.22132C178.142 7.39007 176.041 10.0413 174.458 10.3855C173.494 10.6264 173.391 11.1082 173.391 11.4873C173.391 11.8658 173.631 12.1411 174.251 12.1411C175.732 12.1411 179.863 8.31968 179.863 5.15269C179.863 3.4654 178.486 2.67407 176.902 2.67407C170.74 2.67407 160.584 12.8298 160.584 21.2645C160.584 24.2249 162.477 26.0152 165.335 26.0152C169.531 26.0152 173.922 22.1706 176.963 18.9181C176.947 19.0914 176.936 19.265 176.936 19.4396C176.936 20.92 177.9 21.643 178.864 21.643C181.274 21.643 182.857 18.9235 183.581 16.8577C183.675 16.8577 184.46 16.8577 185.356 16.6649C184.613 17.7426 184.131 18.979 184.131 20.2316C184.131 21.0576 184.82 21.5737 185.164 21.5737C185.956 21.5737 187.023 20.886 188.641 19.474C189.398 18.7852 189.949 18.1315 190.156 18.1315C190.225 18.1315 190.225 18.2348 190.225 18.4411C190.225 18.7509 190.156 19.2331 190.156 19.6122C190.156 20.4725 190.707 21.2302 191.774 21.2302C193.308 21.2302 195.606 19.1251 197.258 17.278C197.919 18.0319 199.382 18.2278 199.382 19.2677C199.382 19.9561 198.899 20.5415 198.176 20.5415C197.522 20.5415 197.212 20.1973 197.212 19.6122C197.212 19.2677 196.903 19.0951 196.593 19.0951C196.18 19.0951 195.835 19.474 195.835 19.9561C195.835 20.7824 196.765 21.643 197.97 21.643C199.967 21.643 200.965 20.4036 200.965 19.2677C200.965 17.0643 198.486 17.2019 198.486 16.2377C198.486 15.2398 200.104 14.3101 200.586 14.3101C200.862 14.3101 201.102 14.551 201.102 14.7576C201.102 14.8952 200.586 14.9989 200.586 15.5839C200.586 15.9624 200.93 16.1694 201.309 16.1694C201.998 16.1694 202.445 14.9639 202.445 14.2412C202.445 13.5181 201.654 13.002 201.069 13.002Z" fill="#FFFFFE"/>
<path fill-rule="evenodd" clip-rule="evenodd" d="M207.094 11.8312C208.057 11.4874 208.987 11.2115 209.744 11.2115C209.985 11.2115 210.282 11.2034 210.505 11.3104C210.964 11.5301 211.193 12.0395 211.775 11.626C212.138 11.3679 212.165 10.8764 211.942 10.5312C211.602 10.006 210.823 9.93804 210.261 9.93804C209.503 9.93804 208.781 10.1103 208.057 10.3165C209.228 8.35404 209.4 7.87191 209.985 7.39011C210.64 6.874 210.708 6.59845 210.708 6.18563C210.708 5.77213 210.433 5.56555 209.985 5.56555C209.538 5.56555 209.159 5.90974 208.574 6.73639C207.747 7.87191 207.094 9.11172 206.095 10.9016C205.716 10.9706 205.372 11.0399 205.028 11.0399C204.615 11.0399 204.511 10.799 203.995 10.799C203.444 10.799 203.1 11.2115 203.1 11.6593C203.1 12.1411 203.513 12.382 204.546 12.382C204.787 12.382 205.028 12.382 205.269 12.3477C203.616 15.6183 201.964 19.3707 201.964 21.3679C201.964 22.2282 202.308 22.745 202.824 22.745C203.306 22.745 203.548 22.3315 203.548 22.0562C203.548 21.7464 203.341 21.5738 203.341 21.1266C203.341 19.3364 205.234 15.1705 207.094 11.8312Z" fill="#FFFFFE"/>
<path fill-rule="evenodd" clip-rule="evenodd" d="M223.583 7.94122C225.338 4.73924 226.75 3.77565 227.197 3.77565C227.542 3.77565 227.714 3.91292 227.714 4.25744C227.714 5.08343 227.3 6.11632 225.269 8.90481C223.41 11.4184 221.689 12.9331 221.242 13.1397C221.345 12.5889 221.758 11.1432 223.583 7.94122ZM208.057 19.9215C207.781 19.9215 207.644 19.7149 207.644 19.5087C207.644 17.8217 210.673 14.5854 212.153 14.5854C212.429 14.5854 212.532 14.792 212.532 14.9989C212.532 15.3774 213.117 15.2738 213.117 15.4464C213.117 16.0315 208.642 19.9215 208.057 19.9215ZM226.199 9.86941C228.678 6.70174 229.229 4.60163 229.229 3.60372C229.229 2.91501 228.54 2.19165 227.886 2.19165C225.958 2.19165 224.409 3.94724 222.343 7.49341C220.927 9.92761 219.373 13.3621 218.614 16.1872C217.333 17.814 215.377 19.8528 214.185 19.8528C213.875 19.8528 213.737 19.474 213.737 19.0269C213.737 18.5101 213.944 17.8217 214.357 17.0644C215.08 15.6873 215.975 14.5168 215.975 14.0693C215.975 13.6558 215.631 13.3463 215.08 13.3463C214.494 13.3463 214.322 14.0693 214.047 14.0693C213.909 14.0693 213.289 13.2773 212.636 13.2773C209.812 13.3116 206.06 16.7202 206.06 20.2317C206.06 21.0577 206.748 21.5738 207.093 21.5738C207.884 21.5738 208.952 20.8861 210.57 19.474C211.328 18.7853 211.878 18.1316 212.085 18.1316C212.153 18.1316 212.153 18.2349 212.153 18.4411C212.153 18.751 212.085 19.2331 212.085 19.6123C212.085 20.4726 212.636 21.2303 213.702 21.2303C214.947 21.2303 216.693 19.8444 218.19 18.3358C218.162 18.6013 218.143 18.8586 218.143 19.0952C218.143 20.6792 219.486 21.6088 220.622 21.6088C222.102 21.6088 223.101 20.7478 223.755 20.0941C224.202 19.6123 224.305 19.3707 224.305 19.0952C224.305 18.8203 224.133 18.6134 223.823 18.6134C223.445 18.6134 223.101 19.0612 222.653 19.5087C222.24 19.8872 221.552 20.335 220.932 20.335C220.174 20.335 219.727 19.7149 219.727 18.7167C219.727 17.959 220.415 15.6873 221.276 14.8263C222.722 13.3809 223.961 12.6922 226.199 9.86941Z" fill="#FFFFFE"/>
<path fill-rule="evenodd" clip-rule="evenodd" d="M233.463 24.9665C230.502 24.9665 228.953 23.5551 228.953 21.1452C228.953 18.7698 231.432 15.8091 236.561 15.8091C239.556 15.8091 242.069 16.3255 243.997 17.1175C241.139 21.5243 237.491 24.9665 233.463 24.9665ZM256.632 2.58901C257.355 2.58901 257.768 3.14012 257.768 4.03541C257.768 6.47971 254.497 9.61238 249.436 10.542C252.087 5.89429 254.291 2.58901 256.632 2.58901ZM246.028 16.704C246.028 16.704 247.371 14.501 248.576 12.091C255.014 11.3683 259.317 7.30569 259.317 3.75952C259.317 2.10722 258.112 1.17761 256.666 1.17761C253.154 1.17761 250.641 5.10262 247.509 10.7829C241.897 10.7829 238.11 8.26961 238.11 5.3092C238.11 4.37959 237.972 3.86281 237.387 3.86281C236.802 3.86281 236.561 4.24199 236.561 5.3092C236.561 8.95832 240.864 12.1943 246.785 12.1943C245.89 14.0192 244.995 15.5339 244.686 16.0157C242.551 15.0517 239.832 14.501 236.699 14.501C230.88 14.501 227.507 17.7713 227.507 21.1452C227.507 24.3811 229.917 26.3436 233.463 26.3436C238.386 26.3436 242.069 23.004 245.34 17.8062C247.267 18.9074 248.335 20.3188 248.335 21.6959C248.335 22.0744 248.197 22.5569 248.197 23.004C248.197 23.4519 248.473 23.865 249.092 23.865C249.575 23.865 249.987 23.3832 249.987 22.8321C249.987 20.3882 248.541 18.2531 246.028 16.704Z" fill="#FFFFFE"/>
<path fill-rule="evenodd" clip-rule="evenodd" d="M258.075 9.28767C258.075 9.76947 258.247 10.4922 258.66 10.4922C259.073 10.4922 260.003 10.0104 260.003 9.18405C260.003 8.49567 259.589 8.22046 259.245 8.22046C258.556 8.22046 258.075 8.80554 258.075 9.28767Z" fill="#FFFFFE"/>
<path fill-rule="evenodd" clip-rule="evenodd" d="M265.822 9.86938C265.444 9.86938 265.134 10.2822 265.134 10.6607C265.134 11.0742 265.615 11.4874 265.615 12.2444C265.615 15.584 262.242 19.8528 261.381 19.8528C261.209 19.8528 261.174 19.7149 261.174 19.6123C261.174 19.1988 262.07 16.341 262.07 15.0672C262.07 14.2069 261.484 13.6901 261.174 13.6901C260.762 13.6901 260.486 14 260.486 14.5511C260.486 15.0672 260.521 15.1022 260.521 15.4807C260.521 15.5039 260.518 15.5288 260.518 15.5527C260.401 15.6805 260.28 15.8239 260.142 15.9968C258.903 17.6498 256.424 20.1624 255.426 20.1624C254.978 20.1624 254.806 19.7839 254.806 19.474C254.806 18.7166 255.839 16.3067 256.596 14.9989C256.906 14.4821 257.25 14.1379 257.25 13.7594C257.25 13.3809 256.768 13.1397 256.458 13.1397C256.011 13.1397 255.701 13.6901 255.322 14.3445C255.047 14.8609 253.291 18.2348 253.291 19.7495C253.291 20.8861 254.117 21.5051 254.703 21.5051C256.099 21.5051 258.401 19.5803 260.102 17.8059C259.855 18.7301 259.591 19.5864 259.591 19.9908C259.591 20.7824 260.245 21.4018 260.899 21.4018C263.274 21.4018 266.993 15.1022 266.993 12.0035C266.993 9.93802 266.235 9.86938 265.822 9.86938Z" fill="#FFFFFE"/>
<path fill-rule="evenodd" clip-rule="evenodd" d="M271.604 10.4922C272.017 10.4922 272.946 10.0104 272.946 9.18405C272.946 8.49567 272.533 8.22046 272.189 8.22046C271.501 8.22046 271.019 8.80554 271.019 9.28767C271.019 9.76947 271.191 10.4922 271.604 10.4922Z" fill="#FFFFFE"/>
<path fill-rule="evenodd" clip-rule="evenodd" d="M283.758 34.4503C283.241 34.4503 282.794 34.0021 282.794 33.2448C282.794 29.9052 286.203 26.5313 289.955 25.2575C288.44 30.8695 285.789 34.4503 283.758 34.4503ZM285.996 20.1623C285.617 20.1623 285.307 19.8528 285.307 19.4053C285.307 18.2691 287.545 14.6543 289.679 14.6543C290.609 14.6543 290.988 15.4806 290.988 15.7215C290.988 16.4446 287.098 20.1623 285.996 20.1623ZM291.917 23.4333C292.64 20.1973 292.95 17.3738 293.397 16.0661C293.948 14.551 294.671 13.8626 294.671 13.4841C294.671 13.105 293.81 12.9674 293.535 12.9674C293.294 12.9674 292.365 14.2758 291.917 14.6543C291.883 14.6886 291.194 13.3809 289.851 13.3809C287.86 13.3809 285.772 15.2081 284.664 17.1558C283.521 18.5238 282.189 19.8528 281.521 19.8528C280.695 19.8528 280.695 19.0268 280.695 17.8556C280.695 16.961 280.901 15.2397 280.901 14.551C280.901 13.8283 280.35 13.2772 279.661 13.2772C277.836 13.2772 274.635 17.2705 274.532 17.2705C274.463 17.2705 274.395 17.2362 274.395 17.1329C274.395 16.7201 275.599 13.9659 275.599 13.0363C275.599 12.6578 275.221 12.4852 275.048 12.4852C274.119 12.4852 273.947 13.0363 273.499 14.5167C273.359 14.9692 273.177 15.5314 272.981 16.1333C271.712 17.7843 269.341 20.1623 268.37 20.1623C267.923 20.1623 267.75 19.7838 267.75 19.4739C267.75 18.7166 268.783 16.3066 269.541 14.9988C269.85 14.4821 270.195 14.1379 270.195 13.7594C270.195 13.3809 269.713 13.1396 269.403 13.1396C268.955 13.1396 268.645 13.6901 268.267 14.3444C267.991 14.8609 266.235 18.2348 266.235 19.7495C266.235 20.886 267.062 21.5051 267.647 21.5051C268.81 21.5051 270.599 20.1701 272.148 18.6991C271.767 19.8955 271.468 20.8894 271.468 21.1266C271.468 21.677 271.985 21.8153 272.501 21.8153C272.983 21.8153 273.155 20.6101 273.843 19.6462C274.669 18.5443 277.836 14.9988 278.904 14.9988C279.249 14.9988 279.317 15.2397 279.317 15.5496C279.317 16.3759 279.076 17.2019 279.076 17.8906C279.076 19.3706 279.283 21.2302 281.073 21.2302C281.88 21.2302 282.874 20.5408 283.869 19.6065C283.868 19.6418 283.862 19.6798 283.862 19.7148C283.862 20.9543 284.722 21.677 285.273 21.677C286.719 21.677 289.886 19.1644 291.504 17.0643C291.504 17.8906 290.884 21.1952 290.299 23.8118C285.341 25.0859 281.314 29.6993 281.314 33.1068C281.314 34.8288 282.484 35.7581 283.689 35.7581C287.235 35.7581 289.679 31.5582 291.573 24.7074C291.917 24.6724 292.227 24.6381 292.468 24.6381C293.26 24.6381 293.363 25.3608 294.017 25.3608C294.293 25.3608 294.878 25.1542 294.878 24.4315C294.878 23.3643 292.984 23.33 291.917 23.4333Z" fill="#FFFFFE"/>
<path d="M8.53397 8.17877H7.97641C7.55267 8.17877 7.26274 8.40223 7.19583 8.84916L5.14401 20.4469L3.11449 8.84916C3.04758 8.40223 2.75765 8.17877 2.3116 8.17877H1.66483C1.17418 8.17877 0.92885 8.46927 1.01806 8.98324L3.82816 23.1508C3.89507 23.5978 4.185 23.8212 4.63105 23.8212H5.56775C6.0138 23.8212 6.30373 23.5978 6.37064 23.1508L9.18074 8.98324C9.29225 8.46927 9.02463 8.17877 8.53397 8.17877Z" fill="white"/>
<path d="M13.0882 23.0838V8.9162C13.0882 8.44693 12.8206 8.17877 12.3522 8.17877H11.7277C11.2371 8.17877 10.9918 8.44693 10.9918 8.9162V23.0838C10.9918 23.5531 11.2371 23.8212 11.7277 23.8212H12.3522C12.8206 23.8212 13.0882 23.5531 13.0882 23.0838Z" fill="white"/>
<path d="M22.8091 12.9609V11.2179C22.8091 8.96089 21.2479 8 19.1069 8H19.0623C16.9212 8 15.3601 8.96089 15.3601 11.2179V13.1844C15.3601 14.6816 16.1184 15.352 17.5457 16.1788L19.5529 17.2961C20.4673 17.8101 20.8019 18.2123 20.8019 19.1508V20.3799C20.8019 21.6089 20.1997 22.1676 19.1069 22.1676C18.0141 22.1676 17.4119 21.6089 17.4119 20.3799V18.8156C17.4119 18.3464 17.1666 18.0782 16.6759 18.0782H16.0961C15.6054 18.0782 15.3601 18.3464 15.3601 18.8156V20.7374C15.3601 23.1061 16.7205 24 19.0846 24H19.1292C21.4932 24 22.8537 23.0838 22.8537 20.7374V18.5698C22.8537 17.0726 22.0062 16.3128 20.6681 15.5531L18.6385 14.4358C17.7464 13.9218 17.4119 13.5866 17.4119 12.648V11.5754C17.4119 10.324 18.0141 9.8324 19.0846 9.8324C20.1551 9.8324 20.7573 10.324 20.7573 11.5754V12.9609C20.7573 13.4302 21.0026 13.6983 21.4932 13.6983H22.0731C22.5638 13.6983 22.8091 13.4302 22.8091 12.9609Z" fill="white"/>
<path d="M27.1797 23.0838V8.9162C27.1797 8.44693 26.912 8.17877 26.4437 8.17877H25.8192C25.3286 8.17877 25.0832 8.44693 25.0832 8.9162V23.0838C25.0832 23.5531 25.3286 23.8212 25.8192 23.8212H26.4437C26.912 23.8212 27.1797 23.5531 27.1797 23.0838Z" fill="white"/>
<path d="M35.5178 8.17877H29.4515C28.9832 8.17877 28.7156 8.44693 28.7156 8.9162V9.29609C28.7156 9.78771 28.9832 10.0335 29.4515 10.0335H31.4365V23.0838C31.4365 23.5531 31.7041 23.8212 32.1724 23.8212H32.7969C33.2653 23.8212 33.5329 23.5531 33.5329 23.0838V10.0335H35.5178C36.0085 10.0335 36.2538 9.78771 36.2538 9.29609V8.9162C36.2538 8.44693 36.0085 8.17877 35.5178 8.17877Z" fill="white"/>
<path d="M37.7134 8.9162V23.0838C37.7134 23.5531 37.9587 23.8212 38.4494 23.8212H39.0738C39.5422 23.8212 39.8098 23.5531 39.8098 23.0838V16.8045H43.4897V23.0838C43.4897 23.5531 43.7573 23.8212 44.2257 23.8212H44.8501C45.3408 23.8212 45.5861 23.5531 45.5861 23.0838V8.9162C45.5861 8.44693 45.3408 8.17877 44.8501 8.17877H44.2257C43.7573 8.17877 43.4897 8.44693 43.4897 8.9162V14.9274H39.8098V8.9162C39.8098 8.44693 39.5422 8.17877 39.0738 8.17877H38.4494C37.9587 8.17877 37.7134 8.44693 37.7134 8.9162Z" fill="white"/>
<path d="M55.8194 23.0168L52.9647 8.84916C52.8755 8.40223 52.5856 8.17877 52.1618 8.17877H50.9129C50.4892 8.17877 50.1992 8.40223 50.11 8.84916L47.2999 23.0168C47.2107 23.5307 47.456 23.8212 47.9467 23.8212H48.5043C48.928 23.8212 49.2179 23.5978 49.2848 23.1508L49.8201 20.1341H53.1878L53.723 23.1508C53.8122 23.5978 54.0799 23.8212 54.5259 23.8212H55.1727C55.6633 23.8212 55.931 23.5307 55.8194 23.0168ZM50.1546 18.3687L51.5151 10.8156L52.8755 18.3687H50.1546Z" fill="white"/>
<path d="M63.1085 21.9218H59.6293V8.9162C59.6293 8.44693 59.3617 8.17877 58.8933 8.17877H58.2689C57.7782 8.17877 57.5329 8.44693 57.5329 8.9162V23.0838C57.5329 23.5531 57.7782 23.8212 58.2689 23.8212H63.1085C63.5992 23.8212 63.8445 23.5531 63.8445 23.0838V22.6592C63.8445 22.1899 63.5992 21.9218 63.1085 21.9218Z" fill="white"/>
<path d="M70.9928 21.9218H67.5136V8.9162C67.5136 8.44693 67.2459 8.17877 66.7776 8.17877H66.1531C65.6625 8.17877 65.4171 8.44693 65.4171 8.9162V23.0838C65.4171 23.5531 65.6625 23.8212 66.1531 23.8212H70.9928C71.4834 23.8212 71.7287 23.5531 71.7287 23.0838V22.6592C71.7287 22.1899 71.4834 21.9218 70.9928 21.9218Z" fill="white"/>
<path d="M81.0403 23.0168L78.1856 8.84916C78.0964 8.40223 77.8065 8.17877 77.3827 8.17877H76.1338C75.7101 8.17877 75.4201 8.40223 75.3309 8.84916L72.5208 23.0168C72.4316 23.5307 72.6769 23.8212 73.1676 23.8212H73.7251C74.1489 23.8212 74.4388 23.5978 74.5057 23.1508L75.041 20.1341H78.4087L78.9439 23.1508C79.0331 23.5978 79.3007 23.8212 79.7468 23.8212H80.3936C80.8842 23.8212 81.1518 23.5307 81.0403 23.0168ZM75.3755 18.3687L76.736 10.8156L78.0964 18.3687H75.3755Z" fill="white"/>
<path d="M84.6941 23.0838V12.6927L88.5078 23.2179C88.6416 23.6201 88.9093 23.8212 89.333 23.8212H89.9798C90.4704 23.8212 90.7158 23.5531 90.7158 23.0838V8.9162C90.7158 8.44693 90.4704 8.17877 89.9798 8.17877H89.5114C89.0431 8.17877 88.7754 8.44693 88.7754 8.9162V18.9497L85.0732 8.78212C84.9394 8.37989 84.6495 8.17877 84.2258 8.17877H83.4898C82.9991 8.17877 82.7538 8.44693 82.7538 8.9162V23.0838C82.7538 23.5531 82.9991 23.8212 83.4898 23.8212H83.9581C84.4265 23.8212 84.6941 23.5531 84.6941 23.0838Z" fill="white"/>
<path d="M97.0664 8.17877H93.944C93.4534 8.17877 93.208 8.44693 93.208 8.9162V23.0838C93.208 23.5531 93.4534 23.8212 93.944 23.8212H97.0664C99.4304 23.8212 100.858 22.8156 100.858 20.514V11.486C100.858 9.18436 99.4304 8.17877 97.0664 8.17877ZM98.7613 11.8883V20.1117C98.7613 21.4972 98.1369 21.9665 96.9772 21.9665H95.3045V10.0335H96.9772C98.1369 10.0335 98.7613 10.5028 98.7613 11.8883Z" fill="white"/>
<path d="M104.341 21.3631H103.716C103.248 21.3631 102.98 21.6313 102.98 22.1006V23.0838C102.98 23.5531 103.248 23.8212 103.716 23.8212H104.341C104.831 23.8212 105.077 23.5531 105.077 23.0838V22.1006C105.077 21.6313 104.831 21.3631 104.341 21.3631Z" fill="white"/>
<path d="M114.08 17.5196H113.456C112.987 17.5196 112.72 17.7877 112.72 18.257V20.2905C112.72 21.6536 112.14 22.1453 111.002 22.1453C109.865 22.1453 109.285 21.6536 109.285 20.2905V11.7095C109.285 10.3464 109.865 9.85475 111.002 9.85475C112.14 9.85475 112.72 10.3464 112.72 11.7095V13.3631C112.72 13.8324 112.987 14.1006 113.456 14.1006H114.08C114.571 14.1006 114.816 13.8324 114.816 13.3631V11.3073C114.816 9.05028 113.389 8 111.025 8H110.98C108.616 8 107.189 9.05028 107.189 11.3073V20.6927C107.189 23.0615 108.616 24 110.98 24H111.025C113.389 24 114.816 23.0391 114.816 20.6927V18.257C114.816 17.7877 114.571 17.5196 114.08 17.5196Z" fill="white"/>
<path d="M117.055 11.3073V20.6927C117.055 22.9944 118.482 24 120.846 24H121.025C123.389 24 124.816 22.9944 124.816 20.6927V11.3073C124.816 9.00559 123.389 8 121.025 8H120.846C118.482 8 117.055 8.98324 117.055 11.3073ZM119.151 20.2905V11.7095C119.151 10.324 119.776 9.85475 120.935 9.85475C122.095 9.85475 122.72 10.324 122.72 11.7095V20.2905C122.72 21.676 122.095 22.1453 120.935 22.1453C119.776 22.1453 119.151 21.676 119.151 20.2905Z" fill="white"/>
<path d="M135.97 13.1844V23.0838C135.97 23.5531 136.238 23.8212 136.706 23.8212H137.264C137.755 23.8212 138 23.5531 138 23.0838V8.9162C138 8.44693 137.755 8.17877 137.264 8.17877H136.55C136.127 8.17877 135.859 8.37989 135.725 8.78212L132.558 17.8994L129.436 8.78212C129.302 8.37989 129.012 8.17877 128.588 8.17877H127.964C127.473 8.17877 127.228 8.44693 127.228 8.9162V23.0838C127.228 23.5531 127.473 23.8212 127.964 23.8212H128.432C128.923 23.8212 129.191 23.5531 129.191 23.0838V13.1844L131.778 20.8045C131.911 21.229 132.179 21.4078 132.581 21.4078C132.982 21.4078 133.25 21.229 133.361 20.8045L135.97 13.1844Z" fill="white"/>
</svg>
