<svg width="118" height="14" viewBox="0 0 118 14" fill="none" xmlns="http://www.w3.org/2000/svg">
<path d="M6.80217 0.151999H6.32717C5.96617 0.151999 5.71917 0.341999 5.66217 0.722L3.91417 10.583L2.18517 0.722C2.12817 0.341999 1.88117 0.151999 1.50117 0.151999H0.950174C0.532174 0.151999 0.323174 0.398999 0.399174 0.835999L2.79317 12.882C2.85017 13.262 3.09717 13.452 3.47717 13.452H4.27517C4.65517 13.452 4.90217 13.262 4.95917 12.882L7.35317 0.835999C7.44817 0.398999 7.22017 0.151999 6.80217 0.151999Z" fill="white"/>
<path d="M10.682 12.825V0.778999C10.682 0.379999 10.454 0.151999 10.055 0.151999H9.52303C9.10503 0.151999 8.89603 0.379999 8.89603 0.778999V12.825C8.89603 13.224 9.10503 13.452 9.52303 13.452H10.055C10.454 13.452 10.682 13.224 10.682 12.825Z" fill="white"/>
<path d="M18.9635 4.218V2.736C18.9635 0.816999 17.6335 0 15.8095 0H15.7715C13.9475 0 12.6175 0.816999 12.6175 2.736V4.408C12.6175 5.681 13.2635 6.251 14.4795 6.954L16.1895 7.904C16.9685 8.341 17.2535 8.683 17.2535 9.481V10.526C17.2535 11.571 16.7405 12.046 15.8095 12.046C14.8785 12.046 14.3655 11.571 14.3655 10.526V9.196C14.3655 8.797 14.1565 8.569 13.7385 8.569H13.2445C12.8265 8.569 12.6175 8.797 12.6175 9.196V10.83C12.6175 12.844 13.7765 13.604 15.7905 13.604H15.8285C17.8425 13.604 19.0015 12.825 19.0015 10.83V8.987C19.0015 7.714 18.2795 7.068 17.1395 6.422L15.4105 5.472C14.6505 5.035 14.3655 4.75 14.3655 3.952V3.04C14.3655 1.976 14.8785 1.558 15.7905 1.558C16.7025 1.558 17.2155 1.976 17.2155 3.04V4.218C17.2155 4.617 17.4245 4.845 17.8425 4.845H18.3365C18.7545 4.845 18.9635 4.617 18.9635 4.218Z" fill="white"/>
<path d="M22.6869 12.825V0.778999C22.6869 0.379999 22.4589 0.151999 22.0599 0.151999H21.5279C21.1099 0.151999 20.9009 0.379999 20.9009 0.778999V12.825C20.9009 13.224 21.1099 13.452 21.5279 13.452H22.0599C22.4589 13.452 22.6869 13.224 22.6869 12.825Z" fill="white"/>
<path d="M29.7904 0.151999H24.6224C24.2234 0.151999 23.9954 0.379999 23.9954 0.778999V1.102C23.9954 1.52 24.2234 1.729 24.6224 1.729H26.3134V12.825C26.3134 13.224 26.5414 13.452 26.9404 13.452H27.4724C27.8714 13.452 28.0994 13.224 28.0994 12.825V1.729H29.7904C30.2084 1.729 30.4174 1.52 30.4174 1.102V0.778999C30.4174 0.379999 30.2084 0.151999 29.7904 0.151999Z" fill="white"/>
<path d="M31.6609 0.778999V12.825C31.6609 13.224 31.8699 13.452 32.2879 13.452H32.8199C33.2189 13.452 33.4469 13.224 33.4469 12.825V7.486H36.5819V12.825C36.5819 13.224 36.8099 13.452 37.2089 13.452H37.7409C38.1589 13.452 38.3679 13.224 38.3679 12.825V0.778999C38.3679 0.379999 38.1589 0.151999 37.7409 0.151999H37.2089C36.8099 0.151999 36.5819 0.379999 36.5819 0.778999V5.89H33.4469V0.778999C33.4469 0.379999 33.2189 0.151999 32.8199 0.151999H32.2879C31.8699 0.151999 31.6609 0.379999 31.6609 0.778999Z" fill="white"/>
<path d="M47.0859 12.768L44.6539 0.722C44.5779 0.341999 44.3309 0.151999 43.9699 0.151999H42.9059C42.5449 0.151999 42.2979 0.341999 42.2219 0.722L39.8279 12.768C39.7519 13.205 39.9609 13.452 40.3789 13.452H40.8539C41.2149 13.452 41.4619 13.262 41.5189 12.882L41.9749 10.317H44.8439L45.2999 12.882C45.3759 13.262 45.6039 13.452 45.9839 13.452H46.5349C46.9529 13.452 47.1809 13.205 47.0859 12.768ZM42.2599 8.816L43.4189 2.394L44.5779 8.816H42.2599Z" fill="white"/>
<path d="M53.2956 11.837H50.3316V0.778999C50.3316 0.379999 50.1036 0.151999 49.7046 0.151999H49.1726C48.7546 0.151999 48.5456 0.379999 48.5456 0.778999V12.825C48.5456 13.224 48.7546 13.452 49.1726 13.452H53.2956C53.7136 13.452 53.9226 13.224 53.9226 12.825V12.464C53.9226 12.065 53.7136 11.837 53.2956 11.837Z" fill="white"/>
<path d="M60.0124 11.837H57.0484V0.778999C57.0484 0.379999 56.8204 0.151999 56.4214 0.151999H55.8894C55.4714 0.151999 55.2624 0.379999 55.2624 0.778999V12.825C55.2624 13.224 55.4714 13.452 55.8894 13.452H60.0124C60.4304 13.452 60.6394 13.224 60.6394 12.825V12.464C60.6394 12.065 60.4304 11.837 60.0124 11.837Z" fill="white"/>
<path d="M68.5722 12.768L66.1402 0.722C66.0642 0.341999 65.8172 0.151999 65.4562 0.151999H64.3922C64.0312 0.151999 63.7842 0.341999 63.7082 0.722L61.3142 12.768C61.2382 13.205 61.4472 13.452 61.8652 13.452H62.3402C62.7012 13.452 62.9482 13.262 63.0052 12.882L63.4612 10.317H66.3302L66.7862 12.882C66.8622 13.262 67.0902 13.452 67.4702 13.452H68.0212C68.4392 13.452 68.6672 13.205 68.5722 12.768ZM63.7462 8.816L64.9052 2.394L66.0642 8.816H63.7462Z" fill="white"/>
<path d="M71.685 12.825V3.99L74.934 12.939C75.048 13.281 75.2759 13.452 75.6369 13.452H76.188C76.6059 13.452 76.8149 13.224 76.8149 12.825V0.778999C76.8149 0.379999 76.6059 0.151999 76.188 0.151999H75.7889C75.3899 0.151999 75.1619 0.379999 75.1619 0.778999V9.31L72.0079 0.664999C71.8939 0.322999 71.6469 0.151999 71.2859 0.151999H70.659C70.241 0.151999 70.032 0.379999 70.032 0.778999V12.825C70.032 13.224 70.241 13.452 70.659 13.452H71.0579C71.4569 13.452 71.685 13.224 71.685 12.825Z" fill="white"/>
<path d="M82.2252 0.151999H79.5652C79.1472 0.151999 78.9382 0.379999 78.9382 0.778999V12.825C78.9382 13.224 79.1472 13.452 79.5652 13.452H82.2252C84.2392 13.452 85.4552 12.597 85.4552 10.64V2.964C85.4552 1.007 84.2392 0.151999 82.2252 0.151999ZM83.6692 3.306V10.298C83.6692 11.476 83.1372 11.875 82.1492 11.875H80.7242V1.729H82.1492C83.1372 1.729 83.6692 2.128 83.6692 3.306Z" fill="white"/>
<path d="M88.4225 11.362H87.8905C87.4915 11.362 87.2635 11.59 87.2635 11.989V12.825C87.2635 13.224 87.4915 13.452 87.8905 13.452H88.4225C88.8405 13.452 89.0495 13.224 89.0495 12.825V11.989C89.0495 11.59 88.8405 11.362 88.4225 11.362Z" fill="white"/>
<path d="M96.7195 8.094H96.1875C95.7885 8.094 95.5605 8.322 95.5605 8.721V10.45C95.5605 11.609 95.0665 12.027 94.0975 12.027C93.1285 12.027 92.6345 11.609 92.6345 10.45V3.154C92.6345 1.995 93.1285 1.577 94.0975 1.577C95.0665 1.577 95.5605 1.995 95.5605 3.154V4.56C95.5605 4.959 95.7885 5.187 96.1875 5.187H96.7195C97.1375 5.187 97.3465 4.959 97.3465 4.56V2.812C97.3465 0.893 96.1305 0 94.1165 0H94.0785C92.0645 0 90.8485 0.893 90.8485 2.812V10.792C90.8485 12.806 92.0645 13.604 94.0785 13.604H94.1165C96.1305 13.604 97.3465 12.787 97.3465 10.792V8.721C97.3465 8.322 97.1375 8.094 96.7195 8.094Z" fill="white"/>
<path d="M99.2538 2.812V10.792C99.2538 12.749 100.47 13.604 102.484 13.604H102.636C104.65 13.604 105.866 12.749 105.866 10.792V2.812C105.866 0.854999 104.65 0 102.636 0H102.484C100.47 0 99.2538 0.835999 99.2538 2.812ZM101.04 10.45V3.154C101.04 1.976 101.572 1.577 102.56 1.577C103.548 1.577 104.08 1.976 104.08 3.154V10.45C104.08 11.628 103.548 12.027 102.56 12.027C101.572 12.027 101.04 11.628 101.04 10.45Z" fill="white"/>
<path d="M115.369 4.408V12.825C115.369 13.224 115.597 13.452 115.996 13.452H116.471C116.889 13.452 117.098 13.224 117.098 12.825V0.778999C117.098 0.379999 116.889 0.151999 116.471 0.151999H115.863C115.502 0.151999 115.274 0.322999 115.16 0.664999L112.462 8.417L109.802 0.664999C109.688 0.322999 109.441 0.151999 109.08 0.151999H108.548C108.13 0.151999 107.921 0.379999 107.921 0.778999V12.825C107.921 13.224 108.13 13.452 108.548 13.452H108.947C109.365 13.452 109.593 13.224 109.593 12.825V4.408L111.797 10.887C111.911 11.248 112.139 11.4 112.481 11.4C112.823 11.4 113.051 11.248 113.146 10.887L115.369 4.408Z" fill="white"/>
</svg>
