<svg width="107" height="40" viewBox="0 0 107 40" fill="none" xmlns="http://www.w3.org/2000/svg">
<rect width="106.71" height="39.3752" fill="black" fill-opacity="0"/>
<path fill-rule="evenodd" clip-rule="evenodd" d="M28.2106 29.8583C28.0467 29.8583 27.9649 29.7339 27.9649 29.6101C27.9649 28.5961 29.7689 26.6514 30.6503 26.6514C30.8143 26.6514 30.8757 26.7755 30.8757 26.8999C30.8757 27.1273 31.2242 27.0651 31.2242 27.1687C31.2242 27.5205 28.5592 29.8583 28.2106 29.8583ZM24.1108 30.1687C23.8443 30.1687 23.5983 29.941 23.5983 29.5687C23.5983 28.2238 24.767 26.7339 25.6482 26.7339C25.6894 26.7339 25.7098 26.755 25.7098 26.7961C25.7098 26.8788 25.6482 27.0446 25.6482 27.2514C25.6482 27.5205 25.9558 27.6238 25.9558 27.6859C25.9558 28.3065 24.9103 30.1687 24.1108 30.1687ZM37.1076 25.6999C36.344 25.6999 35.1133 26.4123 34.753 27.2835C34.6994 27.3479 34.6444 27.4198 34.5864 27.4997C33.8279 28.4928 32.5979 29.8169 31.8598 29.8169C31.6754 29.8169 31.5934 29.5892 31.5934 29.3205C31.5934 29.0101 31.7164 28.5961 31.9624 28.1413C32.3929 27.3136 32.9258 26.6103 32.9258 26.341C32.9258 26.0928 32.7209 25.9067 32.3929 25.9067C32.0443 25.9067 31.9417 26.341 31.7778 26.341C31.6958 26.341 31.3268 25.8654 30.9373 25.8654C30.3476 25.8725 29.6912 26.1329 29.0858 26.5542C29.0737 26.5533 29.0635 26.5481 29.0514 26.5481C28.8464 26.5481 28.0469 27.1273 27.2062 27.1273C26.8785 27.1273 26.8785 26.6514 26.8785 26.4859C26.8785 26.1755 26.5299 25.8032 25.7714 25.8032C24.8363 25.8032 23.8346 26.5868 23.248 27.6637C21.9392 29.3564 18.8858 32.6306 15.87 32.6306C14.7426 32.6306 14.0045 31.7202 14.0045 30.4583C14.0045 26.0101 19.7447 20.3205 22.7377 20.3205C23.2502 20.3205 23.4552 20.6103 23.4552 21.0238C23.4552 22.3273 22.2048 23.9205 21.2617 24.1273C20.6878 24.2722 20.6262 24.5618 20.6262 24.7897C20.6262 25.0172 20.7698 25.1826 21.1387 25.1826C22.0202 25.1826 24.4803 22.8859 24.4803 20.9826C24.4803 19.9687 23.6602 19.4933 22.7173 19.4933C19.0476 19.4933 13 25.5961 13 30.6651C13 32.4443 14.1277 33.5202 15.829 33.5202C18.3279 33.5202 20.9427 31.2098 22.7532 29.2551C22.744 29.3594 22.7372 29.4637 22.7372 29.5687C22.7372 30.4583 23.3113 30.8928 23.8853 30.8928C25.3203 30.8928 26.2633 29.2583 26.6939 28.0169C26.7504 28.0169 27.2178 28.0169 27.7512 27.9011C27.3093 28.5489 27.0218 29.2918 27.0218 30.0446C27.0218 30.541 27.4318 30.8512 27.637 30.8512C28.1083 30.8512 28.744 30.4377 29.7075 29.5892C30.1584 29.1753 30.4864 28.7826 30.6093 28.7826C30.6503 28.7826 30.6503 28.8446 30.6503 28.9684C30.6503 29.1547 30.6093 29.4443 30.6093 29.6722C30.6093 30.1892 30.9373 30.6446 31.573 30.6446C32.4863 30.6446 33.8548 29.3797 34.8384 28.2695C35.2323 28.7227 36.1031 28.8402 36.1031 29.4654C36.1031 29.8791 35.816 30.2309 35.3854 30.2309C34.9959 30.2309 34.8115 30.0238 34.8115 29.6722C34.8115 29.4654 34.6269 29.3616 34.4423 29.3616C34.1964 29.3616 33.9914 29.5892 33.9914 29.8791C33.9914 30.3755 34.5449 30.8928 35.2624 30.8928C36.4515 30.8928 37.046 30.1479 37.046 29.4654C37.046 28.1413 35.57 28.2238 35.57 27.6443C35.57 27.0446 36.5335 26.4859 36.8204 26.4859C36.9844 26.4859 37.128 26.6309 37.128 26.755C37.128 26.8377 36.8204 26.8999 36.8204 27.2514C36.8204 27.4788 37.0254 27.6032 37.251 27.6032C37.6611 27.6032 37.9275 26.8788 37.9275 26.4446C37.9275 26.0101 37.4562 25.6999 37.1076 25.6999Z" fill="#FFFFFE"/>
<path fill-rule="evenodd" clip-rule="evenodd" d="M40.6952 24.9961C41.2691 24.7897 41.8227 24.6237 42.2736 24.6237C42.4172 24.6237 42.594 24.6191 42.7269 24.6832C43.0001 24.8154 43.1364 25.1214 43.4828 24.8729C43.6991 24.7177 43.7151 24.4225 43.5822 24.2149C43.3797 23.8991 42.9156 23.8583 42.5812 23.8583C42.1302 23.8583 41.6997 23.962 41.2691 24.0859C41.966 22.9065 42.0686 22.6169 42.4172 22.3273C42.8067 22.0171 42.8477 21.8514 42.8477 21.6034C42.8477 21.3549 42.6835 21.2306 42.4172 21.2306C42.1508 21.2306 41.925 21.4377 41.5767 21.9346C41.0848 22.6169 40.6952 23.3618 40.1005 24.4377C39.8751 24.4791 39.6701 24.5204 39.4652 24.5204C39.2192 24.5204 39.1576 24.3758 38.85 24.3758C38.5223 24.3758 38.3171 24.6237 38.3171 24.8928C38.3171 25.1826 38.5633 25.3273 39.1782 25.3273C39.3216 25.3273 39.4652 25.3273 39.6088 25.3067C38.6247 27.272 37.6406 29.527 37.6406 30.7273C37.6406 31.2443 37.8456 31.5549 38.1532 31.5549C38.4401 31.5549 38.5837 31.3065 38.5837 31.141C38.5837 30.9547 38.4607 30.8512 38.4607 30.5826C38.4607 29.5065 39.5882 27.0032 40.6952 24.9961Z" fill="#FFFFFE"/>
<path fill-rule="evenodd" clip-rule="evenodd" d="M50.5142 22.6584C51.5596 20.7341 52.4001 20.1549 52.6667 20.1549C52.8716 20.1549 52.9742 20.2376 52.9742 20.4445C52.9742 20.9409 52.7283 21.5618 51.5189 23.2376C50.4118 24.748 49.3867 25.6582 49.1202 25.7826C49.1815 25.4514 49.4277 24.5826 50.5142 22.6584ZM41.2689 29.8582C41.1049 29.8582 41.0229 29.7338 41.0229 29.61C41.0229 28.596 42.8269 26.6514 43.7086 26.6514C43.8725 26.6514 43.9339 26.7755 43.9339 26.8998C43.9339 27.1272 44.2825 27.0651 44.2825 27.1686C44.2825 27.5204 41.6174 29.8582 41.2689 29.8582ZM52.0721 23.8171C53.5481 21.9135 53.8761 20.6516 53.8761 20.0518C53.8761 19.6379 53.4662 19.2031 53.0768 19.2031C51.9288 19.2031 51.0061 20.2582 49.776 22.3894C48.9331 23.8521 48.0073 25.9162 47.5556 27.6139C46.7928 28.5916 45.6282 29.8168 44.918 29.8168C44.7336 29.8168 44.6514 29.5892 44.6514 29.3204C44.6514 29.01 44.7744 28.596 45.0206 28.1412C45.4509 27.3135 45.9841 26.6102 45.9841 26.3409C45.9841 26.0927 45.7791 25.9067 45.4509 25.9067C45.1026 25.9067 45 26.3409 44.836 26.3409C44.754 26.3409 44.3848 25.8653 43.9955 25.8653C42.3143 25.8859 40.0801 27.9343 40.0801 30.0445C40.0801 30.5409 40.49 30.8511 40.695 30.8511C41.1665 30.8511 41.802 30.4376 42.7655 29.5892C43.2167 29.1752 43.5446 28.7826 43.6676 28.7826C43.7086 28.7826 43.7086 28.8445 43.7086 28.9684C43.7086 29.1547 43.6676 29.4443 43.6676 29.6722C43.6676 30.1892 43.9955 30.6445 44.631 30.6445C45.3718 30.6445 46.4117 29.8119 47.3036 28.9052C47.2869 29.0646 47.2752 29.2193 47.2752 29.3615C47.2752 30.3133 48.0747 30.8719 48.7512 30.8719C49.6327 30.8719 50.227 30.3547 50.6168 29.9618C50.8833 29.6722 50.9447 29.527 50.9447 29.3615C50.9447 29.1963 50.8421 29.0719 50.6578 29.0719C50.4322 29.0719 50.227 29.3409 49.9606 29.61C49.7147 29.8376 49.3047 30.1064 48.9356 30.1064C48.4846 30.1064 48.2181 29.7338 48.2181 29.1341C48.2181 28.6788 48.6282 27.3135 49.1405 26.796C50.0016 25.9275 50.7397 25.5135 52.0721 23.8171Z" fill="#FFFFFE"/>
<path fill-rule="evenodd" clip-rule="evenodd" d="M56.3971 32.8898C54.6342 32.8898 53.7117 32.0419 53.7117 30.5936C53.7117 29.166 55.1877 27.3865 58.242 27.3865C60.0256 27.3865 61.5222 27.6972 62.67 28.1731C60.9687 30.8213 58.7956 32.8898 56.3971 32.8898ZM70.1936 19.4421C70.6244 19.4421 70.8703 19.7731 70.8703 20.3111C70.8703 21.7802 68.9228 23.6629 65.9092 24.2213C67.4878 21.4284 68.7998 19.4421 70.1936 19.4421ZM63.8797 27.9246C63.8797 27.9246 64.6794 26.6007 65.3967 25.1523C69.2301 24.718 71.7928 22.2766 71.7928 20.1454C71.7928 19.1525 71.0753 18.5939 70.2142 18.5939C68.1231 18.5939 66.6267 20.9525 64.7612 24.3662C61.4196 24.3662 59.1647 22.8558 59.1647 21.0766C59.1647 20.518 59.0825 20.2076 58.7342 20.2076C58.3856 20.2076 58.242 20.4352 58.242 21.0766C58.242 23.2695 60.8047 25.2144 64.3306 25.2144C63.7977 26.3109 63.2648 27.2213 63.0802 27.5109C61.8092 26.9317 60.1898 26.6007 58.3243 26.6007C54.8597 26.6007 52.8506 28.566 52.8506 30.5936C52.8506 32.5383 54.2856 33.7175 56.3971 33.7175C59.3287 33.7175 61.5222 31.7106 63.4697 28.5868C64.6178 29.2487 65.2533 30.0969 65.2533 30.9246C65.2533 31.152 65.1713 31.4419 65.1713 31.7106C65.1713 31.9797 65.3353 32.2281 65.7042 32.2281C65.9914 32.2281 66.2371 31.9385 66.2371 31.6073C66.2371 30.1385 65.3763 28.8556 63.8797 27.9246Z" fill="#FFFFFE"/>
<path fill-rule="evenodd" clip-rule="evenodd" d="M71.0532 23.4675C71.0532 23.7571 71.1556 24.1914 71.4015 24.1914C71.6477 24.1914 72.201 23.9021 72.201 23.4054C72.201 22.9917 71.9551 22.8262 71.7501 22.8262C71.3402 22.8262 71.0532 23.1779 71.0532 23.4675Z" fill="#FFFFFE"/>
<path fill-rule="evenodd" clip-rule="evenodd" d="M75.6668 23.8171C75.4415 23.8171 75.2566 24.0654 75.2566 24.2928C75.2566 24.541 75.5438 24.7897 75.5438 25.2446C75.5438 27.2514 73.5347 29.8169 73.0224 29.8169C72.9198 29.8169 72.8992 29.7339 72.8992 29.6722C72.8992 29.4237 73.4323 27.7065 73.4323 26.941C73.4323 26.4237 73.0837 26.1133 72.8992 26.1133C72.6534 26.1133 72.4892 26.2996 72.4892 26.6308C72.4892 26.941 72.5098 26.9618 72.5098 27.1895C72.5098 27.2032 72.5084 27.2184 72.5081 27.2326C72.4388 27.3094 72.367 27.3958 72.2845 27.4996C71.5466 28.4928 70.0706 30.0029 69.4761 30.0029C69.2095 30.0029 69.1069 29.7755 69.1069 29.5892C69.1069 29.1342 69.7221 27.6859 70.173 26.8999C70.3576 26.5892 70.5625 26.3824 70.5625 26.155C70.5625 25.9275 70.2756 25.7826 70.0912 25.7826C69.8244 25.7826 69.6401 26.1133 69.4145 26.5065C69.2505 26.8171 68.2051 28.8446 68.2051 29.755C68.2051 30.4377 68.697 30.81 69.0456 30.81C69.8768 30.81 71.2475 29.6531 72.2607 28.5868C72.1137 29.1422 71.9563 29.6566 71.9563 29.8996C71.9563 30.3755 72.3456 30.7479 72.7352 30.7479C74.1496 30.7479 76.3637 26.9618 76.3637 25.0999C76.3637 23.8583 75.913 23.8171 75.6668 23.8171Z" fill="#FFFFFE"/>
<path fill-rule="evenodd" clip-rule="evenodd" d="M79.1091 24.1914C79.3553 24.1914 79.9088 23.9021 79.9088 23.4054C79.9088 22.9917 79.6626 22.8262 79.4576 22.8262C79.0479 22.8262 78.7607 23.1779 78.7607 23.4675C78.7607 23.7571 78.8633 24.1914 79.1091 24.1914Z" fill="#FFFFFE"/>
<path fill-rule="evenodd" clip-rule="evenodd" d="M86.3467 38.5892C86.0391 38.5892 85.7725 38.3201 85.7725 37.8648C85.7725 35.8579 87.8023 33.8303 90.0368 33.0648C89.1347 36.4374 87.5561 38.5892 86.3467 38.5892ZM87.6791 30.0029C87.4537 30.0029 87.2692 29.8168 87.2692 29.548C87.2692 28.865 88.6016 26.6927 89.8728 26.6927C90.4264 26.6927 90.6517 27.1894 90.6517 27.3341C90.6517 27.7686 88.3352 30.0029 87.6791 30.0029ZM91.2052 31.9686C91.6355 30.0237 91.8201 28.327 92.0867 27.5409C92.4149 26.6308 92.8454 26.2168 92.8454 25.9894C92.8454 25.7615 92.3324 25.6788 92.1687 25.6788C92.0253 25.6788 91.4718 26.4653 91.2052 26.6927C91.1848 26.7133 90.7749 25.9275 89.9752 25.9275C88.7895 25.9275 87.5459 27.0256 86.8861 28.196C86.2058 29.018 85.4126 29.8168 85.0143 29.8168C84.5224 29.8168 84.5224 29.3204 84.5224 28.6166C84.5224 28.079 84.6454 27.0445 84.6454 26.6308C84.6454 26.1963 84.3174 25.8653 83.9072 25.8653C82.8208 25.8653 80.9145 28.265 80.8529 28.265C80.8116 28.265 80.7709 28.2445 80.7709 28.1823C80.7709 27.9343 81.4884 26.279 81.4884 25.7204C81.4884 25.493 81.2628 25.3894 81.1602 25.3894C80.6067 25.3894 80.5043 25.7204 80.238 26.6102C80.1543 26.8819 80.0461 27.2198 79.9294 27.5816C79.1736 28.5737 77.7621 30.0029 77.1834 30.0029C76.9173 30.0029 76.8145 29.7755 76.8145 29.5892C76.8145 29.1341 77.4296 27.6859 77.8808 26.8998C78.0651 26.5892 78.2701 26.3823 78.2701 26.1549C78.2701 25.9275 77.9831 25.7826 77.7983 25.7826C77.532 25.7826 77.3476 26.1133 77.1223 26.5064C76.958 26.8171 75.9126 28.8445 75.9126 29.7549C75.9126 30.4376 76.4045 30.81 76.7528 30.81C77.4451 30.81 78.5109 30.0073 79.4336 29.1233C79.2061 29.8425 79.0286 30.4398 79.0286 30.5826C79.0286 30.9133 79.3359 30.9963 79.6432 30.9963C79.9304 30.9963 80.0328 30.2719 80.4429 29.6927C80.9349 29.0305 82.8208 26.8998 83.4566 26.8998C83.6615 26.8998 83.7023 27.0445 83.7023 27.2308C83.7023 27.7275 83.5587 28.2237 83.5587 28.6376C83.5587 29.527 83.6819 30.6445 84.7477 30.6445C85.2282 30.6445 85.8203 30.2303 86.4131 29.6687C86.4124 29.6903 86.4083 29.7128 86.4083 29.7338C86.4083 30.4788 86.9206 30.9133 87.2488 30.9133C88.1096 30.9133 89.9958 29.4031 90.9593 28.1412C90.9593 28.6376 90.5901 30.6237 90.2415 32.196C87.2895 32.9615 84.8913 35.7341 84.8913 37.7821C84.8913 38.8166 85.5882 39.3752 86.3057 39.3752C88.4172 39.3752 89.8728 36.8513 91 32.7341C91.2052 32.7133 91.3898 32.6927 91.5332 32.6927C92.005 32.6927 92.0663 33.127 92.4556 33.127C92.6199 33.127 92.9682 33.0029 92.9682 32.5684C92.9682 31.927 91.8405 31.9064 91.2052 31.9686Z" fill="#FFFFFE"/>
<path d="M5.86825 0.138971H5.43396C5.10391 0.138971 4.87808 0.312685 4.82596 0.660115L3.22779 9.67591L1.64698 0.660115C1.59487 0.312685 1.36904 0.138971 1.02161 0.138971H0.517839C0.135667 0.138971 -0.0554194 0.3648 0.0140664 0.764344L2.20287 11.7779C2.25499 12.1253 2.48081 12.299 2.82824 12.299H3.55784C3.90527 12.299 4.1311 12.1253 4.18322 11.7779L6.37202 0.764344C6.45888 0.3648 6.25042 0.138971 5.86825 0.138971Z" fill="white"/>
<path d="M9.41556 11.7257V0.712229C9.41556 0.347429 9.2071 0.138971 8.8423 0.138971H8.3559C7.97373 0.138971 7.78264 0.347429 7.78264 0.712229V11.7257C7.78264 12.0905 7.97373 12.299 8.3559 12.299H8.8423C9.2071 12.299 9.41556 12.0905 9.41556 11.7257Z" fill="white"/>
<path d="M16.9872 3.85647V2.50149C16.9872 0.746972 15.7712 0 14.1035 0H14.0688C12.4011 0 11.1851 0.746972 11.1851 2.50149V4.03018C11.1851 5.19407 11.7758 5.71521 12.8875 6.35796L14.451 7.22653C15.1632 7.62607 15.4238 7.93876 15.4238 8.66836V9.62379C15.4238 10.5792 14.9547 11.0135 14.1035 11.0135C13.2523 11.0135 12.7833 10.5792 12.7833 9.62379V8.40779C12.7833 8.04299 12.5922 7.83453 12.2101 7.83453H11.7584C11.3762 7.83453 11.1851 8.04299 11.1851 8.40779V9.90173C11.1851 11.7431 12.2448 12.438 14.0862 12.438H14.1209C15.9623 12.438 17.022 11.7257 17.022 9.90173V8.2167C17.022 7.05281 16.3618 6.46218 15.3195 5.87156L13.7387 5.00298C13.0439 4.60344 12.7833 4.34287 12.7833 3.61326V2.77943C12.7833 1.80663 13.2523 1.42446 14.0862 1.42446C14.92 1.42446 15.389 1.80663 15.389 2.77943V3.85647C15.389 4.22127 15.5801 4.42972 15.9623 4.42972H16.4139C16.7961 4.42972 16.9872 4.22127 16.9872 3.85647Z" fill="white"/>
<path d="M20.3915 11.7257V0.712229C20.3915 0.347429 20.183 0.138971 19.8182 0.138971H19.3318C18.9496 0.138971 18.7586 0.347429 18.7586 0.712229V11.7257C18.7586 12.0905 18.9496 12.299 19.3318 12.299H19.8182C20.183 12.299 20.3915 12.0905 20.3915 11.7257Z" fill="white"/>
<path d="M26.8861 0.138971H22.1611C21.7963 0.138971 21.5878 0.347429 21.5878 0.712229V1.00754C21.5878 1.38972 21.7963 1.5808 22.1611 1.5808H23.7071V11.7257C23.7071 12.0905 23.9156 12.299 24.2804 12.299H24.7668C25.1316 12.299 25.34 12.0905 25.34 11.7257V1.5808H26.8861C27.2683 1.5808 27.4593 1.38972 27.4593 1.00754V0.712229C27.4593 0.347429 27.2683 0.138971 26.8861 0.138971Z" fill="white"/>
<path d="M28.5962 0.712229V11.7257C28.5962 12.0905 28.7873 12.299 29.1695 12.299H29.6559C30.0207 12.299 30.2291 12.0905 30.2291 11.7257V6.84436H33.0954V11.7257C33.0954 12.0905 33.3039 12.299 33.6687 12.299H34.1551C34.5373 12.299 34.7284 12.0905 34.7284 11.7257V0.712229C34.7284 0.347429 34.5373 0.138971 34.1551 0.138971H33.6687C33.3039 0.138971 33.0954 0.347429 33.0954 0.712229V5.38515H30.2291V0.712229C30.2291 0.347429 30.0207 0.138971 29.6559 0.138971H29.1695C28.7873 0.138971 28.5962 0.347429 28.5962 0.712229Z" fill="white"/>
<path d="M42.6991 11.6736L40.4756 0.660115C40.4061 0.312685 40.1803 0.138971 39.8502 0.138971H38.8774C38.5474 0.138971 38.3215 0.312685 38.252 0.660115L36.0632 11.6736C35.9938 12.0732 36.1848 12.299 36.567 12.299H37.0013C37.3314 12.299 37.5572 12.1253 37.6093 11.7779L38.0262 9.4327H40.6493L41.0662 11.7779C41.1357 12.1253 41.3442 12.299 41.6916 12.299H42.1954C42.5775 12.299 42.786 12.0732 42.6991 11.6736ZM38.2868 8.06036L39.3465 2.1888L40.4061 8.06036H38.2868Z" fill="white"/>
<path d="M48.3766 10.8224H45.6667V0.712229C45.6667 0.347429 45.4582 0.138971 45.0934 0.138971H44.607C44.2248 0.138971 44.0338 0.347429 44.0338 0.712229V11.7257C44.0338 12.0905 44.2248 12.299 44.607 12.299H48.3766C48.7588 12.299 48.9499 12.0905 48.9499 11.7257V11.3957C48.9499 11.0309 48.7588 10.8224 48.3766 10.8224Z" fill="white"/>
<path d="M54.5177 10.8224H51.8078V0.712229C51.8078 0.347429 51.5993 0.138971 51.2345 0.138971H50.7481C50.3659 0.138971 50.1748 0.347429 50.1748 0.712229V11.7257C50.1748 12.0905 50.3659 12.299 50.7481 12.299H54.5177C54.8999 12.299 55.091 12.0905 55.091 11.7257V11.3957C55.091 11.0309 54.8999 10.8224 54.5177 10.8224Z" fill="white"/>
<path d="M62.3438 11.6736L60.1203 0.660115C60.0508 0.312685 59.825 0.138971 59.4949 0.138971H58.5221C58.192 0.138971 57.9662 0.312685 57.8967 0.660115L55.7079 11.6736C55.6384 12.0732 55.8295 12.299 56.2117 12.299H56.646C56.976 12.299 57.2019 12.1253 57.254 11.7779L57.6709 9.4327H60.294L60.7109 11.7779C60.7804 12.1253 60.9889 12.299 61.3363 12.299H61.8401C62.2222 12.299 62.4307 12.0732 62.3438 11.6736ZM57.9315 8.06036L58.9911 2.1888L60.0508 8.06036H57.9315Z" fill="white"/>
<path d="M65.1898 11.7257V3.64801L68.1603 11.83C68.2645 12.1427 68.473 12.299 68.803 12.299H69.3068C69.689 12.299 69.8801 12.0905 69.8801 11.7257V0.712229C69.8801 0.347429 69.689 0.138971 69.3068 0.138971H68.942C68.5772 0.138971 68.3687 0.347429 68.3687 0.712229V8.51202L65.4851 0.608001C65.3808 0.295314 65.155 0.138971 64.825 0.138971H64.2517C63.8695 0.138971 63.6784 0.347429 63.6784 0.712229V11.7257C63.6784 12.0905 63.8695 12.299 64.2517 12.299H64.6165C64.9813 12.299 65.1898 12.0905 65.1898 11.7257Z" fill="white"/>
<path d="M74.8266 0.138971H72.3946C72.0124 0.138971 71.8213 0.347429 71.8213 0.712229V11.7257C71.8213 12.0905 72.0124 12.299 72.3946 12.299H74.8266C76.668 12.299 77.7797 11.5173 77.7797 9.72802V2.70995C77.7797 0.920687 76.668 0.138971 74.8266 0.138971ZM76.1468 3.02263V9.41533C76.1468 10.4924 75.6604 10.8572 74.7571 10.8572H73.4542V1.5808H74.7571C75.6604 1.5808 76.1468 1.9456 76.1468 3.02263Z" fill="white"/>
<path d="M80.4927 10.3881H80.0063C79.6415 10.3881 79.433 10.5966 79.433 10.9614V11.7257C79.433 12.0905 79.6415 12.299 80.0063 12.299H80.4927C80.8748 12.299 81.0659 12.0905 81.0659 11.7257V10.9614C81.0659 10.5966 80.8748 10.3881 80.4927 10.3881Z" fill="white"/>
<path d="M88.0786 7.40024H87.5922C87.2274 7.40024 87.0189 7.6087 87.0189 7.9735V9.55431C87.0189 10.614 86.5672 10.9961 85.6813 10.9961C84.7954 10.9961 84.3437 10.614 84.3437 9.55431V2.88366C84.3437 1.824 84.7954 1.44183 85.6813 1.44183C86.5672 1.44183 87.0189 1.824 87.0189 2.88366V4.16915C87.0189 4.53395 87.2274 4.74241 87.5922 4.74241H88.0786C88.4607 4.74241 88.6518 4.53395 88.6518 4.16915V2.57098C88.6518 0.816459 87.54 0 85.6987 0H85.6639C83.8226 0 82.7108 0.816459 82.7108 2.57098V9.86699C82.7108 11.7084 83.8226 12.438 85.6639 12.438H85.6987C87.54 12.438 88.6518 11.691 88.6518 9.86699V7.9735C88.6518 7.6087 88.4607 7.40024 88.0786 7.40024Z" fill="white"/>
<path d="M90.3956 2.57098V9.86699C90.3956 11.6563 91.5074 12.438 93.3488 12.438H93.4877C95.3291 12.438 96.4409 11.6563 96.4409 9.86699V2.57098C96.4409 0.781715 95.3291 0 93.4877 0H93.3488C91.5074 0 90.3956 0.764344 90.3956 2.57098ZM92.0285 9.55431V2.88366C92.0285 1.80663 92.5149 1.44183 93.4182 1.44183C94.3216 1.44183 94.808 1.80663 94.808 2.88366V9.55431C94.808 10.6313 94.3216 10.9961 93.4182 10.9961C92.5149 10.9961 92.0285 10.6313 92.0285 9.55431Z" fill="white"/>
<path d="M105.129 4.03018V11.7257C105.129 12.0905 105.338 12.299 105.702 12.299H106.137C106.519 12.299 106.71 12.0905 106.71 11.7257V0.712229C106.71 0.347429 106.519 0.138971 106.137 0.138971H105.581C105.251 0.138971 105.042 0.295314 104.938 0.608001L102.471 7.69556L100.039 0.608001C99.9351 0.295314 99.7093 0.138971 99.3792 0.138971H98.8928C98.5107 0.138971 98.3196 0.347429 98.3196 0.712229V11.7257C98.3196 12.0905 98.5107 12.299 98.8928 12.299H99.2576C99.6398 12.299 99.8483 12.0905 99.8483 11.7257V4.03018L101.863 9.95385C101.968 10.2839 102.176 10.4229 102.489 10.4229C102.801 10.4229 103.01 10.2839 103.097 9.95385L105.129 4.03018Z" fill="white"/>
</svg>
