<?xml version="1.0" encoding="UTF-8"?>
<svg width="294px" height="36px" viewBox="0 0 294 36" version="1.1" xmlns="http://www.w3.org/2000/svg" xmlns:xlink="http://www.w3.org/1999/xlink">
    <!-- Generator: Sketch 48.2 (47327) - http://www.bohemiancoding.com/sketch -->
    <title>Assets/Logo/Horizontal/Light</title>
    <desc>Created with Sketch.</desc>
    <defs></defs>
    <g id="Medium" stroke="none" stroke-width="1" fill="none" fill-rule="evenodd" transform="translate(-365.000000, -15.000000)">
        <g id="Group-4" transform="translate(39.000000, 0.000000)" fill="#FFFFFE">
            <g id="Group-14">
                <g id="Assets/Logo/Horizontal/Light" transform="translate(326.000000, 15.000000)">
                    <g id="logo-horizontal--light">
                        <polyline id="Fill-1" points="5.39293444 24.2182423 3.07514011 24.2182423 0 8.61846706 2.13947658 8.61846706 4.27861671 20.8527471 6.44029889 8.61846706 8.46908389 8.61846706 5.39293444 24.2182423"></polyline>
                        <polygon id="Fill-4" points="10.1166726 24.2182423 12.211738 24.2182423 12.211738 8.61846706 10.1166726 8.61846706"></polygon>
                        <path d="M19.8780555,14.1231024 L19.8780555,12.0058315 C19.8780555,10.7576072 19.2754761,10.2670651 18.2059061,10.2670651 C17.1359995,10.2670651 16.5347659,10.7576072 16.5347659,12.0058315 L16.5347659,13.0754015 C16.5347659,14.011065 16.8691958,14.3454949 17.7607846,14.8582426 L19.7882238,15.9722239 C21.1259434,16.7302425 21.9731209,17.4882612 21.9731209,18.9810836 L21.9731209,21.1424293 C21.9731209,23.4827657 20.6131957,24.3965601 18.2513266,24.3965601 L18.2059061,24.3965601 C15.8437005,24.3965601 14.4851211,23.5049713 14.4851211,21.1424293 L14.4851211,18.490878 L16.5347659,18.490878 L16.5347659,20.7861303 C16.5347659,22.0118125 17.1359995,22.5686349 18.229121,22.5686349 C19.3208967,22.5686349 19.9221303,22.0118125 19.9221303,20.7861303 L19.9221303,19.5604481 C19.9221303,18.6244481 19.5877004,18.2234014 18.6742425,17.7106537 L16.6690089,16.5970089 C15.2424669,15.772037 14.4851211,15.1035136 14.4851211,13.6103548 L14.4851211,11.649196 C14.4851211,9.39869134 16.0442239,8.44014931 18.1837005,8.44014931 L18.229121,8.44014931 C20.3685976,8.44014931 21.9273639,9.39869134 21.9273639,11.649196 L21.9273639,14.1231024 L19.8780555,14.1231024" id="Fill-5"></path>
                        <polygon id="Fill-6" points="24.200747 24.2182423 26.2961488 24.2182423 26.2961488 8.61846706 24.200747 8.61846706"></polygon>
                        <polyline id="Fill-7" points="35.4549523 10.4682614 32.7351019 10.4682614 32.7351019 24.2182423 30.6410459 24.2182423 30.6410459 10.4682614 27.921532 10.4682614 27.921532 8.61846706 35.4549523 8.61846706 35.4549523 10.4682614"></polyline>
                        <polyline id="Fill-8" points="39.0869149 8.61846706 39.0869149 15.3487846 42.7646344 15.3487846 42.7646344 8.61846706 44.858354 8.61846706 44.858354 24.2182423 42.7646344 24.2182423 42.7646344 17.2201117 39.0869149 17.2201117 39.0869149 24.2182423 36.9918495 24.2182423 36.9918495 8.61846706 39.0869149 8.61846706"></polyline>
                        <path d="M52.1236248,18.7805603 L50.787251,11.2484857 L49.4273258,18.7805603 L52.1236248,18.7805603 Z M52.4580547,20.5411957 L49.1151015,20.5411957 L48.4462417,24.2182423 L46.4184661,24.2182423 L49.5158118,8.61846706 L52.1014192,8.61846706 L55.2441855,24.2182423 L53.1050453,24.2182423 L52.4580547,20.5411957 Z" id="Fill-9"></path>
                        <polyline id="Fill-10" points="63.1096806 24.2182423 56.8032882 24.2182423 56.8032882 8.61846706 58.8983536 8.61846706 58.8983536 22.3240368 63.1096806 22.3240368 63.1096806 24.2182423"></polyline>
                        <polyline id="Fill-11" points="70.9983906 24.2182423 64.6919983 24.2182423 64.6919983 8.61846706 66.7870637 8.61846706 66.7870637 22.3240368 70.9983906 22.3240368 70.9983906 24.2182423"></polyline>
                        <path d="M77.3502036,18.7805603 L76.0121475,11.2484857 L74.6522223,18.7805603 L77.3502036,18.7805603 Z M77.6832877,20.5411957 L74.3413438,20.5411957 L73.672484,24.2182423 L71.6450448,24.2182423 L74.7423905,8.61846706 L77.3266522,8.61846706 L80.4694184,24.2182423 L78.3299419,24.2182423 L77.6832877,20.5411957 Z" id="Fill-12"></path>
                        <polyline id="Fill-13" points="82.0285212 24.2182423 82.0285212 8.61846706 84.1235866 8.61846706 88.0459042 19.3595883 88.0459042 8.61846706 89.9848574 8.61846706 89.9848574 24.2182423 87.9792874 24.2182423 83.9674744 13.1198127 83.9674744 24.2182423 82.0285212 24.2182423"></polyline>
                        <path d="M96.2468386,10.4682614 L94.5756984,10.4682614 L94.5756984,22.368448 L96.2468386,22.368448 C97.4048946,22.368448 98.0296796,21.900448 98.0296796,20.5189901 L98.0296796,12.3180557 C98.0296796,10.9362614 97.4048946,10.4682614 96.2468386,10.4682614 Z M100.124745,11.9166726 L100.124745,20.9200368 C100.124745,23.2156256 98.6985394,24.2182423 96.3353246,24.2182423 L92.4806331,24.2182423 L92.4806331,8.61846706 L96.3353246,8.61846706 C98.6985394,8.61846706 100.124745,9.62108386 100.124745,11.9166726 Z" id="Fill-14"></path>
                        <polygon id="Fill-15" points="102.24067 24.2182423 104.336072 24.2182423 104.336072 21.7672144 102.24067 21.7672144"></polygon>
                        <path d="M114.073567,21.0983546 C114.073567,23.4380181 112.647698,24.3965601 110.285492,24.3965601 L110.241418,24.3965601 C107.878203,24.3965601 106.451997,23.4602237 106.451997,21.0983546 L106.451997,11.7383548 C106.451997,9.48785022 107.878203,8.44014931 110.241418,8.44014931 L110.285492,8.44014931 C112.647698,8.44014931 114.073567,9.48785022 114.073567,11.7383548 L114.073567,14.5238127 L111.978502,14.5238127 L111.978502,12.139738 C111.978502,10.7798128 111.399474,10.2899437 110.263623,10.2899437 C109.126091,10.2899437 108.547063,10.7798128 108.547063,12.139738 L108.547063,20.6973079 C108.547063,22.0565602 109.126091,22.5464293 110.263623,22.5464293 C111.399474,22.5464293 111.978502,22.0565602 111.978502,20.6973079 L111.978502,17.9333827 L114.073567,17.9333827 L114.073567,21.0983546" id="Fill-16"></path>
                        <path d="M120.179773,22.5464293 C121.339174,22.5464293 121.962614,22.0787658 121.962614,20.6973079 L121.962614,12.139738 C121.962614,10.7576072 121.339174,10.2899437 120.179773,10.2899437 C119.02138,10.2899437 118.396931,10.7576072 118.396931,12.139738 L118.396931,20.6973079 C118.396931,22.0787658 119.02138,22.5464293 120.179773,22.5464293 Z M120.091287,8.44014931 L120.269268,8.44014931 C122.631137,8.44014931 124.057679,9.4427661 124.057679,11.7383548 L124.057679,21.0983546 C124.057679,23.3939433 122.631137,24.3965601 120.269268,24.3965601 L120.091287,24.3965601 C117.728072,24.3965601 116.30153,23.3939433 116.30153,21.0983546 L116.30153,11.7383548 C116.30153,9.4205605 117.728072,8.44014931 120.091287,8.44014931 Z" id="Fill-17"></path>
                        <polyline id="Fill-18" points="132.391511 21.8112891 131.209903 21.8112891 128.424782 13.6103548 128.424782 24.2182423 126.463959 24.2182423 126.463959 8.61846706 128.469193 8.61846706 131.790277 18.3125603 135.155436 8.61846706 137.227286 8.61846706 137.227286 24.2182423 135.19951 24.2182423 135.19951 13.6103548 132.391511 21.8112891"></polyline>
                        <path d="M148.666202,31.8310646 C148.318314,31.8310646 148.036706,31.5494571 148.036706,31.2015693 L148.036706,0.871401846 C148.036706,0.523850453 148.318314,0.241906536 148.666202,0.241906536 C149.01409,0.241906536 149.295697,0.523850453 149.295697,0.871401846 L149.295697,31.2015693 C149.295697,31.5494571 149.01409,31.8310646 148.666202,31.8310646" id="Fill-20"></path>
                        <path d="M185.127808,20.163364 C184.852593,20.163364 184.714986,19.9567845 184.714986,19.7505415 C184.714986,18.0635883 187.744369,14.8272893 189.225079,14.8272893 C189.500294,14.8272893 189.603584,15.0338688 189.603584,15.2407846 C189.603584,15.6192893 190.188668,15.5156631 190.188668,15.6882613 C190.188668,16.2733454 185.713229,20.163364 185.127808,20.163364 Z M178.243061,20.680149 C177.795248,20.680149 177.382089,20.3009714 177.382089,19.6815696 C177.382089,17.44385 179.344593,14.9648968 180.824631,14.9648968 C180.893603,14.9648968 180.92792,14.999551 180.92792,15.0681865 C180.92792,15.205794 180.824631,15.4816818 180.824631,15.8258687 C180.824631,16.2733454 181.341079,16.4452706 181.341079,16.5485603 C181.341079,17.5814575 179.585491,20.680149 178.243061,20.680149 Z M200.068817,13.2439623 C198.786275,13.2439623 196.719808,14.4296071 196.114537,15.8793641 C196.024705,15.9860183 195.932182,16.1061304 195.834948,16.2386912 C194.561154,17.8916631 192.495359,20.0947284 191.255883,20.0947284 C190.946014,20.0947284 190.808406,19.7158873 190.808406,19.2687472 C190.808406,18.7519621 191.014986,18.0635883 191.428144,17.3062425 C192.150836,15.9291585 193.046462,14.7586538 193.046462,14.3111772 C193.046462,13.8976819 192.701939,13.5881492 192.150836,13.5881492 C191.565752,13.5881492 191.39349,14.3111772 191.118275,14.3111772 C190.980668,14.3111772 190.36093,13.5191772 189.706873,13.5191772 C188.716705,13.5312894 187.614163,13.9646351 186.597416,14.665794 C186.577229,14.6641118 186.56007,14.6553641 186.539546,14.6553641 C186.19536,14.6553641 184.85293,15.6192893 183.441191,15.6192893 C182.890425,15.6192893 182.890425,14.8272893 182.890425,14.5520744 C182.890425,14.0352893 182.305341,13.4158875 181.031547,13.4158875 C179.461341,13.4158875 177.779098,14.7196258 176.793977,16.511551 C174.595958,19.328635 169.467809,24.776747 164.403921,24.776747 C162.510388,24.776747 161.270912,23.2620555 161.270912,21.1619434 C161.270912,13.7600744 170.910837,4.2924111 175.936706,4.2924111 C176.797678,4.2924111 177.141864,4.77521483 177.141864,5.46325219 C177.141864,7.6319998 175.041752,10.2832147 173.458089,10.6274016 C172.494164,10.8682988 172.390874,11.3500932 172.390874,11.7292707 C172.390874,12.1077754 172.631771,12.3829903 173.251509,12.3829903 C174.731883,12.3829903 178.863135,8.56160725 178.863135,5.39461668 C178.863135,3.707327 177.486051,2.91599992 175.902388,2.91599992 C169.739996,2.91599992 159.584295,13.0717006 159.584295,21.5064667 C159.584295,24.4668779 161.477491,26.2571208 164.334949,26.2571208 C168.531472,26.2571208 172.922799,22.4125228 175.962949,19.1600743 C175.947472,19.3333453 175.936369,19.5069528 175.936369,19.6815696 C175.936369,21.1619434 176.900294,21.8849714 177.86422,21.8849714 C180.274201,21.8849714 181.857528,19.1654574 182.580892,17.0996631 C182.675771,17.0996631 183.460369,17.0996631 184.356332,16.9068781 C183.61379,17.9845229 183.131322,19.2209715 183.131322,20.4735696 C183.131322,21.2995508 183.820033,21.815663 184.164219,21.815663 C184.955883,21.815663 186.023434,21.1279621 187.641416,19.7158873 C188.398761,19.0271771 188.949528,18.3734575 189.156107,18.3734575 C189.225079,18.3734575 189.225079,18.4767472 189.225079,18.6829902 C189.225079,18.9928593 189.156107,19.4749901 189.156107,19.8541677 C189.156107,20.7144667 189.706873,21.472149 190.774088,21.472149 C192.308294,21.472149 194.606238,19.3669901 196.257864,17.5198874 C196.919322,18.2738687 198.381864,18.4696818 198.381864,19.5096443 C198.381864,20.1980182 197.899397,20.7834387 197.176705,20.7834387 C196.522649,20.7834387 196.21278,20.4392518 196.21278,19.8541677 C196.21278,19.5096443 195.902911,19.3370462 195.593042,19.3370462 C195.179883,19.3370462 194.835696,19.7158873 194.835696,20.1980182 C194.835696,21.0243359 195.765303,21.8849714 196.970126,21.8849714 C198.966948,21.8849714 199.965527,20.6454948 199.965527,19.5096443 C199.965527,17.3062425 197.486574,17.44385 197.486574,16.4795883 C197.486574,15.4816818 199.104555,14.5520744 199.586686,14.5520744 C199.861901,14.5520744 200.102798,14.7929716 200.102798,14.999551 C200.102798,15.1371585 199.586686,15.2407846 199.586686,15.8258687 C199.586686,16.2043734 199.930537,16.4112893 200.309378,16.4112893 C200.998088,16.4112893 201.445565,15.205794 201.445565,14.4831024 C201.445565,13.7600744 200.653901,13.2439623 200.068817,13.2439623 Z" id="Fill-22"></path>
                        <path d="M206.093602,12.0731212 C207.057191,11.7292707 207.986798,11.4533829 208.744144,11.4533829 C208.985378,11.4533829 209.282125,11.4453081 209.505191,11.5522988 C209.96377,11.7719997 210.192555,12.2813829 210.774611,11.8678875 C211.137976,11.6098315 211.164892,11.1182801 210.94149,10.7730838 C210.601677,10.2478876 209.822462,10.179925 209.260593,10.179925 C208.503247,10.179925 207.780555,10.3521866 207.057191,10.5584296 C208.227695,8.59592501 208.399621,8.11379418 208.985041,7.6319998 C209.639434,7.11588766 209.708069,6.84033627 209.708069,6.42751385 C209.708069,6.01401853 209.432854,5.8074391 208.985041,5.8074391 C208.537565,5.8074391 208.15906,6.15162601 207.573639,6.97828019 C206.747322,8.11379418 206.093602,9.35360723 205.094686,11.1435137 C204.716181,11.2124857 204.371995,11.2817941 204.027808,11.2817941 C203.614649,11.2817941 203.511359,11.0408969 202.994911,11.0408969 C202.444144,11.0408969 202.099957,11.4533829 202.099957,11.9011959 C202.099957,12.3829903 202.51278,12.6238875 203.546013,12.6238875 C203.786574,12.6238875 204.027808,12.6238875 204.268705,12.5895698 C202.616406,15.8601865 200.96377,19.6125976 200.96377,21.6097564 C200.96377,22.4700555 201.307957,22.9868405 201.824406,22.9868405 C202.3062,22.9868405 202.547434,22.5733452 202.547434,22.2981303 C202.547434,21.9882611 202.340854,21.815663 202.340854,21.3685228 C202.340854,19.5782799 204.234051,15.4123734 206.093602,12.0731212" id="Fill-23"></path>
                        <path d="M222.582947,8.18310259 C224.338536,4.98112136 225.749938,4.0175326 226.197751,4.0175326 C226.541938,4.0175326 226.7142,4.15480363 226.7142,4.49932698 C226.7142,5.32530827 226.300704,6.35820544 224.269564,9.14669135 C222.410686,11.6602988 220.689415,13.1749903 220.241938,13.3815697 C220.344891,12.8308034 220.75805,11.3850838 222.582947,8.18310259 Z M207.056854,20.163364 C206.781639,20.163364 206.644032,19.9567845 206.644032,19.7505415 C206.644032,18.0635883 209.673079,14.8272893 211.153789,14.8272893 C211.42934,14.8272893 211.532293,15.0338688 211.532293,15.2407846 C211.532293,15.6192893 212.117378,15.5156631 212.117378,15.6882613 C212.117378,16.2733454 207.641938,20.163364 207.056854,20.163364 Z M225.199172,10.1112895 C227.678125,6.94362598 228.228891,4.84351389 228.228891,3.84560737 C228.228891,3.15689711 227.540181,2.43353265 226.886125,2.43353265 C224.958274,2.43353265 223.409265,4.18912138 221.343471,7.73528951 C219.927695,10.1694951 218.372966,13.6039623 217.614275,16.4291211 C216.333078,18.05585 214.377639,20.0947284 213.184929,20.0947284 C212.87506,20.0947284 212.737452,19.7158873 212.737452,19.2687472 C212.737452,18.7519621 212.944032,18.0635883 213.357191,17.3062425 C214.079882,15.9291585 214.975172,14.7586538 214.975172,14.3111772 C214.975172,13.8976819 214.630985,13.5881492 214.079882,13.5881492 C213.494798,13.5881492 213.322536,14.3111772 213.046985,14.3111772 C212.909714,14.3111772 212.289639,13.5191772 211.63592,13.5191772 C208.81278,13.553495 205.060368,16.9620556 205.060368,20.4735696 C205.060368,21.2995508 205.748742,21.815663 206.093266,21.815663 C206.884593,21.815663 207.952144,21.1279621 209.570125,19.7158873 C210.327808,19.0271771 210.878574,18.3734575 211.085153,18.3734575 C211.153789,18.3734575 211.153789,18.4767472 211.153789,18.6829902 C211.153789,18.9928593 211.085153,19.4749901 211.085153,19.8541677 C211.085153,20.7144667 211.63592,21.472149 212.702798,21.472149 C213.947321,21.472149 215.69349,20.0863172 217.190686,18.5776818 C217.162761,18.8431397 217.143583,19.1005229 217.143583,19.3370462 C217.143583,20.9210462 218.486013,21.8506536 219.6222,21.8506536 C221.102237,21.8506536 222.100817,20.9896817 222.754873,20.3359621 C223.202349,19.8541677 223.305639,19.6125976 223.305639,19.3370462 C223.305639,19.0621677 223.133377,18.8552518 222.823508,18.8552518 C222.445003,18.8552518 222.100817,19.3030649 221.65334,19.7505415 C221.240181,20.1290462 220.551807,20.5768593 219.932069,20.5768593 C219.174723,20.5768593 218.72691,19.9567845 218.72691,18.9585416 C218.72691,18.2008593 219.41562,15.9291585 220.276256,15.0681865 C221.722312,13.6228034 222.961452,12.9340931 225.199172,10.1112895 Z" id="Fill-24"></path>
                        <path d="M232.46276,25.2084105 C229.502013,25.2084105 227.953003,23.7970087 227.953003,21.3870275 C227.953003,19.0117004 230.43162,16.0509528 235.561115,16.0509528 C238.556181,16.0509528 241.069115,16.5674014 242.996966,17.3594014 C240.139508,21.766205 236.490723,25.2084105 232.46276,25.2084105 Z M255.631619,2.83087843 C256.354984,2.83087843 256.767806,3.38198122 256.767806,4.27727091 C256.767806,6.72156992 253.49719,9.85424273 248.43633,10.7838502 C251.087208,6.13614937 253.29061,2.83087843 255.631619,2.83087843 Z M245.028442,16.9459061 C245.028442,16.9459061 246.371208,14.7428407 247.576031,12.3328595 C254.013638,11.6101679 258.317152,7.5475512 258.317152,4.00138307 C258.317152,2.34908405 257.11233,1.4194766 255.666274,1.4194766 C252.154423,1.4194766 249.641489,5.34448584 246.508816,11.0247474 C240.896853,11.0247474 237.110125,8.51147641 237.110125,5.55106527 C237.110125,4.62145782 236.972181,4.10467279 236.387097,4.10467279 C235.802012,4.10467279 235.561115,4.48385035 235.561115,5.55106527 C235.561115,9.20018667 239.864293,12.4361492 245.785451,12.4361492 C244.890498,14.2610464 243.995545,15.7757379 243.685676,16.2575323 C241.551246,15.2936071 238.831732,14.7428407 235.698723,14.7428407 C229.880517,14.7428407 226.506947,18.013121 226.506947,21.3870275 C226.506947,24.62299 228.916929,26.5854946 232.46276,26.5854946 C237.385676,26.5854946 241.069115,23.2459059 244.340068,18.0481117 C246.267582,19.1493079 247.334797,20.5607097 247.334797,21.9377938 C247.334797,22.3162985 247.19719,22.7987658 247.19719,23.2459059 C247.19719,23.693719 247.472741,24.1068779 248.092143,24.1068779 C248.57461,24.1068779 248.987433,23.6250835 248.987433,23.0739807 C248.987433,20.6300181 247.541377,18.4949154 245.028442,16.9459061 Z" id="Fill-25"></path>
                        <path d="M257.074647,9.52956984 C257.074647,10.0113642 257.246909,10.7340558 257.659731,10.7340558 C258.07289,10.7340558 259.002498,10.2522614 259.002498,9.42594368 C259.002498,8.73756986 258.589339,8.46235492 258.245152,8.46235492 C257.556442,8.46235492 257.074647,9.04743901 257.074647,9.52956984" id="Fill-26"></path>
                        <path d="M264.822386,10.1112895 C264.443881,10.1112895 264.134012,10.5241119 264.134012,10.9026165 C264.134012,11.3161118 264.61547,11.7292707 264.61547,12.48628 C264.61547,15.8258687 261.2419,20.0947284 260.381264,20.0947284 C260.209339,20.0947284 260.174685,19.9567845 260.174685,19.8541677 C260.174685,19.4406724 261.069974,16.5828781 261.069974,15.3090837 C261.069974,14.4487847 260.484554,13.9319996 260.174685,13.9319996 C259.761862,13.9319996 259.485974,14.2418688 259.485974,14.7929716 C259.485974,15.3090837 259.520965,15.3440744 259.520965,15.722579 C259.520965,15.745794 259.51861,15.7706912 259.517937,15.794579 C259.401526,15.9224295 259.280741,16.0657566 259.14246,16.2386912 C257.90332,17.8916631 255.424367,20.4042611 254.426124,20.4042611 C253.978311,20.4042611 253.806386,20.0257565 253.806386,19.7158873 C253.806386,18.9585416 254.839283,16.5485603 255.596629,15.2407846 C255.906498,14.7239996 256.250685,14.3798127 256.250685,14.001308 C256.250685,13.6228034 255.768554,13.3815697 255.458685,13.3815697 C255.011208,13.3815697 254.701339,13.9319996 254.322834,14.5863921 C254.047283,15.1028407 252.291358,18.4767472 252.291358,19.9914387 C252.291358,21.1279621 253.117676,21.7470275 253.703096,21.7470275 C255.099021,21.7470275 257.401003,19.8222051 259.102759,18.0477752 C258.855806,18.9719995 258.591358,19.8282612 258.591358,20.2326724 C258.591358,21.0243359 259.245077,21.6437377 259.89947,21.6437377 C262.274797,21.6437377 265.99289,15.3440744 265.99289,12.2453829 C265.99289,10.179925 265.235544,10.1112895 264.822386,10.1112895" id="Fill-27"></path>
                        <path d="M270.603582,10.7340558 C271.017077,10.7340558 271.946348,10.2522614 271.946348,9.42594368 C271.946348,8.73756986 271.533189,8.46235492 271.188666,8.46235492 C270.500628,8.46235492 270.018498,9.04743901 270.018498,9.52956984 C270.018498,10.0113642 270.191096,10.7340558 270.603582,10.7340558" id="Fill-28"></path>
                        <path d="M282.758123,34.6922234 C282.241675,34.6922234 281.793862,34.2440739 281.793862,33.4867281 C281.793862,30.1471394 285.202759,26.7732329 288.954833,25.4994386 C287.440142,31.111401 284.788927,34.6922234 282.758123,34.6922234 Z M284.995843,20.4042611 C284.617002,20.4042611 284.307469,20.0947284 284.307469,19.6472518 C284.307469,18.5110649 286.544852,14.8962613 288.679619,14.8962613 C289.60889,14.8962613 289.987731,15.722579 289.987731,15.9634762 C289.987731,16.6865042 286.097712,20.4042611 284.995843,20.4042611 Z M290.917338,23.6752143 C291.640366,20.4392518 291.949899,17.6157752 292.397375,16.3079996 C292.948478,14.7929716 293.671506,14.1045978 293.671506,13.7260931 C293.671506,13.3469155 292.810534,13.2093081 292.535319,13.2093081 C292.294422,13.2093081 291.364815,14.5177566 290.917338,14.8962613 C290.88302,14.930579 290.194647,13.6228034 288.851207,13.6228034 C286.860441,13.6228034 284.772105,15.4500557 283.663843,17.3977565 C282.5216,18.7657565 281.189264,20.0947284 280.52074,20.0947284 C279.694759,20.0947284 279.694759,19.2687472 279.694759,18.0975696 C279.694759,17.2029528 279.901338,15.4816818 279.901338,14.7929716 C279.901338,14.07028 279.350236,13.5191772 278.661525,13.5191772 C276.836628,13.5191772 273.635656,17.5124855 273.53203,17.5124855 C273.463058,17.5124855 273.394759,17.4781678 273.394759,17.374878 C273.394759,16.9620556 274.599245,14.2078875 274.599245,13.27828 C274.599245,12.8997754 274.22074,12.7271772 274.048142,12.7271772 C273.118871,12.7271772 272.946946,13.27828 272.499469,14.7586538 C272.35917,15.2111772 272.177152,15.7733828 271.981339,16.3752893 C270.712255,18.0262425 268.341638,20.4042611 267.369974,20.4042611 C266.922834,20.4042611 266.750572,20.0257565 266.750572,19.7158873 C266.750572,18.9585416 267.783133,16.5485603 268.540815,15.2407846 C268.850348,14.7239996 269.194871,14.3798127 269.194871,14.001308 C269.194871,13.6228034 268.712741,13.3815697 268.402871,13.3815697 C267.955058,13.3815697 267.645526,13.9319996 267.267021,14.5863921 C266.99147,15.1028407 265.235544,18.4767472 265.235544,19.9914387 C265.235544,21.1279621 266.061862,21.7470275 266.646946,21.7470275 C267.809713,21.7470275 269.599619,20.4119995 271.148628,18.9410462 C270.766759,20.1374574 270.468666,21.1313265 270.468666,21.3685228 C270.468666,21.9189527 270.984778,22.0572331 271.50089,22.0572331 C271.983357,22.0572331 272.154946,20.8520742 272.843656,19.888149 C273.669638,18.7862799 276.836628,15.2407846 277.904516,15.2407846 C278.249039,15.2407846 278.317338,15.4816818 278.317338,15.791551 C278.317338,16.6178687 278.076441,17.44385 278.076441,18.1325603 C278.076441,19.6125976 278.283021,21.472149 280.073264,21.472149 C280.879731,21.472149 281.874273,20.7827658 282.869488,19.8484481 C282.868478,19.8837752 282.86175,19.9217939 282.86175,19.9567845 C282.86175,21.1962611 283.722049,21.9189527 284.273151,21.9189527 C285.718871,21.9189527 288.886198,19.4063546 290.504516,17.3062425 C290.504516,18.1325603 289.884441,21.4371583 289.299357,24.053719 C284.34145,25.3278498 280.313824,29.9412329 280.313824,33.3487842 C280.313824,35.070728 281.484329,35.999999 282.689151,35.999999 C286.23532,35.999999 288.679619,31.8001113 290.573151,24.9493451 C290.917338,24.9143545 291.227207,24.8800367 291.468104,24.8800367 C292.260104,24.8800367 292.363394,25.6027283 293.017114,25.6027283 C293.293002,25.6027283 293.878086,25.3961489 293.878086,24.6734573 C293.878086,23.6062424 291.984217,23.5719246 290.917338,23.6752143 Z" id="Fill-30"></path>
                    </g>
                </g>
            </g>
        </g>
    </g>
</svg>