<svg width="25" height="25" viewBox="0 0 25 25" fill="none" xmlns="http://www.w3.org/2000/svg">
<path d="M12.5 25C19.4036 25 25 19.4036 25 12.5C25 5.59644 19.4036 0 12.5 0C5.59644 0 0 5.59644 0 12.5C0 19.4036 5.59644 25 12.5 25Z" fill="#6B6A90"/>
<path d="M4.58333 0C2.05203 0 0 2.16213 0 4.82927C0 5.79052 0.41497 7.28007 0.848765 8.04878L4.58333 14.6667L8.3179 8.04878C8.75171 7.28005 9.16667 5.79052 9.16667 4.82927C9.16667 2.16213 7.11464 0 4.58333 0ZM4.58333 2.68293C5.70836 2.68293 6.62037 3.64388 6.62037 4.82927C6.62037 6.01464 5.70836 6.97561 4.58333 6.97561C3.45831 6.97561 2.5463 6.01464 2.5463 4.82927C2.5463 3.64388 3.45831 2.68293 4.58333 2.68293Z" transform="translate(17.167 6) scale(-1 1)" fill="white" fill-opacity="0.65"/>
</svg>
