<svg xmlns="http://www.w3.org/2000/svg" width="20" height="20" viewBox="0 0 20 20">
  <path fill="#FFF" fill-rule="evenodd" d="M5.64266598,8.12315694 C5.64341117,8.12392665 5.64452896,8.1243115 5.64564675,8.12508121 C6.5070893,8.70467227 7.33127222,9.43281722 7.98778683,10.3476167 C8.76204185,11.4263642 9.29075594,12.7818222 9.56424159,14.3743506 C9.25722228,16.2801507 9.3742175,17.997372 9.46960214,18.8405885 C6.32041857,18.6797193 4.65752147,17.7164282 2.82434789,15.0636252 C1.04296518,12.4866387 0.859647821,7.76293301 0.852568492,6.12845542 C1.77511683,6.33011924 3.79533373,6.88161592 5.64266598,8.12315694 M9.59255891,2.42307509 C9.75873684,2.25219964 9.90032342,2.10672459 10.016946,1.97818314 C10.1611408,2.16984075 10.3485567,2.39190187 10.5721145,2.65745156 C11.4808767,3.73542936 12.9742425,5.51153345 13.4724037,7.68557723 C12.8632089,8.13508743 12.2793505,8.65848972 11.7610691,9.27040857 C11.6764898,9.05835367 11.59042,8.84129567 11.5043503,8.62269824 C11.139206,7.6959683 10.8239895,6.89547068 10.5989414,6.56218658 C10.4726313,6.37591694 10.2770182,6.26276968 10.0624028,6.25199375 C9.84965032,6.24468151 9.64434979,6.33358293 9.50164542,6.50522809 C9.1648184,6.91240429 8.78439762,7.69288947 8.25829171,8.77279154 L8.09397676,9.10915448 C7.56712565,8.51570865 6.97954135,8.0080854 6.36922868,7.57358453 C6.95718558,5.13899418 8.59660911,3.4475581 9.59255891,2.42307509 M17.1760105,15.0636252 C15.2638465,17.8299603 13.6277764,18.7543811 10.3321625,18.8571373 C10.2468379,18.1320712 10.1130759,16.4333228 10.4077995,14.5563868 C10.4167418,14.5271379 10.4204678,14.4971192 10.4238212,14.4663309 C10.6511049,13.0773905 11.114242,11.5991639 12.012199,10.3480015 C14.0778727,7.47005864 17.7930299,6.42402377 19.1474173,6.12845542 C19.140338,7.7663967 18.9566481,12.4870235 17.1760105,15.0636252 M9.99757104,12.5301272 C9.67527528,11.5121868 9.23374871,10.6058541 8.67373654,9.82536894 C8.69870048,9.79727455 8.72552742,9.77033473 8.74303944,9.73454325 L9.01950586,9.16880695 C9.42340021,8.33944523 9.75612866,7.65709799 10.0121023,7.2668554 C10.19691,7.63862496 10.4692779,8.33059358 10.7148188,8.95444293 C10.8407564,9.27464197 10.9678117,9.59715015 11.0892781,9.89464277 C11.1116338,9.94929213 11.1462853,9.99393527 11.1850353,10.0335753 C10.6552034,10.8209879 10.2706841,11.6719014 9.99757104,12.5301272 M9.6029916,19.726139 L9.60709016,19.75 L9.96813593,19.7453817 C13.8010336,19.6972749 15.7206496,18.6839527 17.8694122,15.5754819 C19.8628022,12.6913813 20.0040161,7.48776195 19.9999176,5.96142851 C19.9991724,5.7316703 19.90267,5.51807598 19.7353742,5.37606463 C19.5755304,5.2405958 19.3679943,5.18594644 19.1656746,5.22635618 C18.3493162,5.3906891 16.2422843,5.91447625 14.2254208,7.1760297 C13.620697,4.93771521 12.1347832,3.17046277 11.2152156,2.07939991 C10.9525352,1.76766767 10.7259967,1.49903914 10.5989414,1.31161494 C10.4730039,1.12457559 10.2773908,1.01142833 10.0624028,1.00026754 C9.84778734,0.994494724 9.64397719,1.08224158 9.50164542,1.25388674 C9.38800356,1.39127984 9.20431361,1.58024346 8.99118855,1.79922574 C8.03547915,2.7817596 6.3174378,4.55170602 5.61472126,7.0759675 C3.64853081,5.88638186 1.63129467,5.38722541 0.836546853,5.22674103 C0.634972277,5.187101 0.426318373,5.24098065 0.266101982,5.37644948 C0.0976884737,5.51923055 0.00081344674,5.73359457 6.82542249e-05,5.96450735 C-0.00365770835,7.49007108 0.138301466,12.6933056 2.13057366,15.5754819 C4.12806219,18.4657401 6.11437284,19.5768154 9.6029916,19.726139"/>
</svg>
