<svg xmlns="http://www.w3.org/2000/svg" viewBox="0 0 118.5 153.26"><defs><style>.cls-1{fill:#687b7c;}.cls-2{fill:#935465;}</style></defs><title>Resurs 5</title><g id="Lager_2" data-name="Lager 2"><g id="Lager_1-2" data-name="Lager 1"><path class="cls-1" d="M44.92,62.77c-1.05,2.73-3.19,1.5-1.8,4.82s.64,4,2.09,5.57.66,2.13,2,4.56,3.08-.25,1.37,2.42-4.22,4.07-.73,2.38.87-2.39,4.88-3.08,4.53.87,5.49-3.14.26-3.2,0-7.32,1.83-5,0-7.72-1.59-4.74-2.66-5.52c-.4-.3-2.47-1.91-4.3-1.25C46.33,56.26,45.57,61.06,44.92,62.77Z"/><path class="cls-1" d="M35.68,63.76C38.47,55.57,40,51,42.3,49.3s3.14-3.14,5.58-4.71,4,0,4.88-2.26-.87-3.14,0-5.23A7.15,7.15,0,0,1,55,33.62c1.4-1.4,2.09.52,2.44-4.71s1-5.4,0-8.88-1.39-2.61-.35-4.71a8.66,8.66,0,0,0,0-8.53c-1.91-3.14-2.78-4.53-4.18-5.23s-1.57-3.13-2.44,0S51.36,8,47.7,7.66s-4.52-1.74-5.74.7.69,4-.88,8,.53,6.27-3.13,8.19-2.61.52-5.58,3.13-5,3-4.18,4.19,3.14.34,2.09,2.43-2.78,2.62-1.56,3.49,4.7.17,5.05,4.18.17,1.92-.35,5.92a67,67,0,0,0-.87,7.84c-.18,3.66,1.18,3.6.59,5.7a4.15,4.15,0,0,0,.91,3.7Z"/><path class="cls-1" d="M61.35,14.11c4.42.46,6,1.16,7.2,0s2.79-.47,4-2.1,2.09-2.55,3.25-2.78a15,15,0,0,1,4.65,0C83,9.46,82,7.49,84.12,9.05s1.62,1.4,2.78-.61-.05-2,.64-3.63.68-.92,1.45-1.16c4.18-1.27,5.35,2.56,6,3.49s2.09,2.09,1.63,4.41-2.09.23-.47,2.32,2.79.93,1.86,4.18.47-.92-.93,3.26l-1.39,4.18c-.7,2.09.46,5.57-2.09,7.08s-1.53-.35-3.9,2.44-2.14.7-2.37,4.88-1.86,3.25-1.16,6,3-.93.69,2.79,1.86,4.41-6,4.18S78.31,52,73,52.67s-1.65-.86-5.35.69-.46,1.19-2.78,2.56-.35,2-1.86,2.55-1.8,1-2.18-.79S59.49,56.15,63.21,52s.93-2.56.93-2.56a27.27,27.27,0,0,1-3.73,2.09c-3.32,1.72-5.7,3.14-4.7,1.56s.3-4.34,1-7.36,3.48-1.86,2.78-5.11-1.56-2.79-3-4.88S53.22,42,52.76,37.1s-1.86-13.47,0-15.56a54.46,54.46,0,0,0,4.35-6.22Z"/><path class="cls-1" d="M57.29,80.83c1.56-3.14,1-3.31,3.66-5.58s2.61-2.43,3.31-5-1.4-2.46,1-5.06,2.44-4.88,4.18-6.18.89.1,3.14-3.22,2.44-3,4.18-4.35,2.44-2.56,6.27-2.62-.52,1.8,3.83-.05-.17-.82,4.36-1.86,1.92-2.09,5.75-1.74,3-1.71,5.57-.07,1.74,2.85,4.18,2.16,1.92.34,3.66-1.57,0-3.31,2.62-2.27,3.65-.52,4,1.57,2.09,2.44,1.22,4.53-.69,2.79-2.26,4.7-1.22,1.4-4,2.79-4.88,0-5.57,2-.35-.79-.88,3,.18,3.4-2.09,5.5-1,1.39-3.83,2.26-4.53-.52-5.05,1.74.35-2.26-.52,2.27.34,3.31-1.57,5.4,3,1.39-1.92,2.09-3.31,1.22-6.62,0-3.66-3.31-5.57-1.4.43,2.16-3.27,2.13.31-.48-5.27,0-.7,1.09-6.62,0Z"/><path class="cls-2" d="M30.41,93.5c-9.48-3.67-32.54,4.88-23.65,30.13a22.12,22.12,0,0,0,6.89,10c.51.42,1.46,2.42-2.26,6-2.3,2.25-4.74,5-7.36,7.87C.92,151-.52,153.22.17,153.26c1.07.07,3.48-3.17,6.31-5.55,2.15-1.81,6.29-6,7.67-7.3,3.19-3.13,3.21-4.86,5.41-5.19,3-.45,5.53.73,12.13-.45s11.56-7.17,12.25-10.38c0,0,3.59-8.57,2.46-13.53S40.54,98.23,39,97.78,85.65,64.62,85.65,64.62l12.4-8.34S43.7,91.58,43,91.86s-3.38,1,.9-4.68,19.85-32,21.2-34.28S79.33,31.69,79.33,31.69L56.33,64S39.86,89.21,39,89.43s-2.71-.9,2.26-9.47,23.9-40.15,23.9-40.15l.45-2.48-28.87,46s-1.8,6.55-2.7,7.22S30.39,93,31.07,84.79s5.41-33,5.86-35.05S43.25,27,43.25,27,29,74.11,28.81,78.39s.45,14.43.45,14.43Z"/></g></g></svg>