<svg xmlns="http://www.w3.org/2000/svg" viewBox="0 0 117.14 91.26"><defs><style>.cls-1{fill:#687b7c;}.cls-2{fill:#344824;}.cls-3{fill:#84a09f;}</style></defs><title>Resurs 3</title><g id="Lager_2" data-name="Lager 2"><g id="Lager_1-2" data-name="Lager 1"><path class="cls-1" d="M116.37,14.51c1.34,1,.58,1.82.26,2.45a5.67,5.67,0,0,0-.69,3.77c.46,1.3.23,1.41-.81,1.56-.91,1.48.26,1.38,1.15,1.5a.28.28,0,0,1,0,.28c-.34.23-.45.49-.1.81.28.48.76.87.21,1.54a1.14,1.14,0,0,0,0,1.22c1.12,1.39.27,3.07.64,4.59.1.39-.32.82-.9.58s-.3.22-.41.38c-.52.26-1.1,1.2-1.38-.3-.11-.63-1.08-.72-1.72-.95-.4-.15-.84-.16-.34-.88s-.92-2.85-2-3.32c-.58-.24-1.18-.45-1.77-.68.1,1.17.1,1.16,1.37,1.31.34.05.79.12.88.45.14.55-.35.35-.64.45-1,.35.34.64,0,1.12a3.06,3.06,0,0,0-3.29-1.3c-.82.1-1-.93-1.74-1a.18.18,0,0,1,.12-.12c.1-.13.36-.29-.06-.32-.3-.29-.7-.86-1-.46a1.15,1.15,0,0,0,.09,1.63c.25.55.82.46,1.25.63s1.15.26,1.31.59c.57,1.21,1.22,1.54,2.33.64.2-.16.78-.08.65.22s.61.95-.21,1.19a11.4,11.4,0,0,0-1,.55c-.75.32-1.94.72-.89,2,.16.19.21.61,0,.65a5.43,5.43,0,0,1-1.75.1c-.31,0-.29-.44-.19-.75.53-1.6.41-1.78-1.29-1.77-.76,0-1-.4-1.14-1.06a5.82,5.82,0,0,0-1.75-3.48c.77-.63,2-.85,1.84-2.27.51-.22,1,.49,1.59,0-1.24.07-.69-2.37-2.47-1.52l-1-.23c.53-.24.51-1.22,1.59-.67.81.41,1.66-.43,1.21-1.65a1.46,1.46,0,0,1,.39,0c.44.13.58,1.21,1.15.6.4-.43-.2-1-.67-1.27s-1.23-1.48-2-.12c0,0-.09.09-.12.07-1.86-1-2.35,1.88-4.13,1.46-.73-.17-.36.52-.11.88v0c-.38.34-1.12.81-.44,1.22,1.2.72,1.23,2.4,2.6,2.92.2.07.32.35.48.54-.64,1.59-.84,1.61-2.51.89a4,4,0,0,0-2.14-.09c-.86.13-1.72-.42-2.62.28a1.59,1.59,0,0,1-2.15.13c-.41-.34-.57.32-.41.58.62.93,0,1.06-.68,1.19-.24.05-.54.14-.52.43s.41.37.68.38a2.22,2.22,0,0,0,.73-.1,1.66,1.66,0,0,1,2.17.74c.54,1-.73.73-1,1.23s-.89.83-.55,1.19.79-.22,1.12-.52c.72-.69,1.44-1.19,2,.15.15.34.5.26.75.37,1,.46,1.65,1.11,1.29,2.35-.2.66.36,1.08.64,1.58-.83,1.19-1.16-.37-1.85-.31a3.43,3.43,0,0,0,1.26,2.23c-.52,1.31-1.23,2.2-2.83,1.48-.44-.19-.82,0-.59.6s-.3.72-.57,1-.37.31-.2.54.3,0,.43-.08c.42.62,1.07-.32,1.5.23.52.74,2.61,1.2,3.23.68a.5.5,0,0,0,0-.78l1.15-.55c.9.58-.15,1.61.53,2.24-.38.46-.86.08-1.39.1A7.12,7.12,0,0,0,100.73,49c.2.22.56.49.9.24s.2-.64,0-.9A4,4,0,0,1,101,46.9c1-.5,1-.5,1,.46,0,.35.06.7.3.74.89.15,1.38.91,2.1,1.26s1.33.56,1.5,1.4a.58.58,0,0,0,.39.4c.86.15,1.56.32.66,1.34,0,0,.19.32.29.48-.57.44-.63,1.48-1.66,1.39-.22,0-.46.15-.65-.1a1.6,1.6,0,0,0-2.5.17,2,2,0,0,1-.76.67c-1.69.76-1.85.87-2.66,2.23-.24.41-.62.6-.94.24-.55-.62-1.15-.46-1.79-.28.38-1.12.14-1.95-1.09-2.32-.89-1.24-1.11.47-1.81.45-.46,0-.36.71-.18,1.1.38.82,1.12.52,1.77.46.32.57.85.34,1.32.33-.1.46.62.91,0,1.37-.3-.34-.67-.33-.88,0-1.07,1.74-2,.62-2.92-.13a.63.63,0,0,0-.25.09c-.3.27,0,1-.64,1-.33,0-.5-.31-.58-.59A.85.85,0,0,1,91.57,58c.29-.13.76-.1.56-.64a.59.59,0,0,0-.68-.43c-.42,0-.8.12-.7.7,0,.24,0,.65-.22.62-1.45-.18-1,1.17-1.43,1.75-.67-.51-1.49.21-2.28-.35-.36-.25-.24,1.06-.87,1.31-1.07-.15-.72.95-1.18,1.34-.08-.41-2.46-.35-.23-1.3.48-.2-.08-1.32.46-2,.09-.1-.63-.2-1,0A6.54,6.54,0,0,0,82.17,62c-.14.22-.46.35-.37.68,0,0,.19.09.2.08.12-.24.22-.48.33-.73.26-.21.54-.55.85-.13s-.08.53-.31.7c-.62.46-1.23.94-1.87,1.36s-.63-.37-.94-.56a.53.53,0,0,1-.15-.25c-.43-1.24,1.4-2.37.46-3.38a4.26,4.26,0,0,1-1.25-3.22,2.92,2.92,0,0,0,.56-1.75c.1-1.27,1.41-1.11,2.42-1l-.55,1c1.28-.5,2.36.59,3.57.12.22-.09.16.54-.14.77s-.88.19-1.14.61l-.64-.58c-.25-.31-.57-.47-.84-.09a2.88,2.88,0,0,1-1.26,1.18c-.43.18-.32.63-.15.89.34.48.39-.11.57-.22.4-.24.79.47,1.21,0,.79.51,1.34-.33,2-.38.28.06.59.17.69-.26s.22-.86.76-.61a1,1,0,0,1,.54,1c-.07,1.06.56,1.68,1.65,2.26-.38-1-.34-1.65.83-1.5.63.08.67-.22.48-.81s-.4-1.5.92-.9c.83.38,1.51-.49,1.53-1.76,0-.84-.35-1.69.53-2.43.46-.38-.39-.83-.42-1.25-.11-1.64-1.12-1.93-2.5-2-.65,0-1-.74-1.29-1.3-.13-.23.67-.66-.13-.62-.32,0-.84-.25-1,.32a.76.76,0,0,0,.39.88,4.6,4.6,0,0,1,1.51,1.59c-.38.41-2-.32-1.16,1.23l-.77.91c-.33-.71-1.44-.39-1.65-1.27a6.56,6.56,0,0,0-.34-1,.75.75,0,0,0-.83-.49c-.42.08-.21.47-.23.74a5.67,5.67,0,0,1,0,.58c-.08.39.14,1.1-.48,1s-.38-.73-.3-1.19S84,49.25,83,49c-.72-.21-.36-.83.06-1.27s1.15-.54,1-1.14-1-.25-1.43-.5a2.93,2.93,0,0,0-.48-.13c.63-1.25,3.42-.21,2.87-2.71.38.87.78,1.73,1.14,2.6s1.47.53,1.48.27c.06-1.4.83-.49,1.29-.49a1.83,1.83,0,0,0,1.15-.15c.4-.27.68-.19,1,.18s.46,1.11,1.06.63,1-1,.54-1.68a2.48,2.48,0,0,1,.09-2.86c.42-.75-.25-1.58-.36-2.39,0-.24-.38-.3-.62-.18s-.55.27-.56.6c0,.93,0,.93-.85.93h-1l.81-2.6c.67.47.66,0,.73-.48s-.19-1.13-.65-1.12c-.68,0-.16.71-.32,1.06-.32.22-.7.27-.9-.08-.56-1-1.58-.85-2.43-1.11-.24-.07-.45-.25-.61.07a.51.51,0,0,0,.1.67c2.07,1.06,1,2.81.54,4a1.6,1.6,0,0,0,.64,2.27,1,1,0,0,1,.33.71c-1.51-1.76-4.09-1.67-5.59-3.42.17-.27.27-.5-.12-.69a1.58,1.58,0,0,0-1.13-.07c-.61.16-1.6-.54-1.77.32-.14.64,1.11.21,1.46.8-.45,1.21-.18,1.74,1,1.67A2.66,2.66,0,0,1,83,43c.35.2,1.08.23.92.72-.22.71-.7,0-1.07,0a1.19,1.19,0,0,0-1.27,1c-.31,1.28-1.14,1.77-2.24,1-.93-.67-1.5.43-2.35.19-1.24-.36-.86,1.21-1.56,1.57a4.8,4.8,0,0,0-1.19,1.7,1.47,1.47,0,0,1-1-1.75,3,3,0,0,0-1,4.51c.39.53.88.93,1.61.59.18.79-.37,1.55-.12,2.34-.25.29-.45.69-.77.85s-.88.69-1.3.45-.14-.8,0-1.2c.49-1.35-.87-1.25-1.42-1.59a2.32,2.32,0,0,0-2.65.49,1.69,1.69,0,0,0-.45,2.21c.35.52.14,1.26.59,1.78l-1.29,1a5.54,5.54,0,0,0-.57.07c-.54.1-1.39.08-1.37.7,0,.87.84.88,1.56.7a1.91,1.91,0,0,1,.08.57c-.07.41,0,.73.46.71s.44-.32.38-.65a1.07,1.07,0,0,1,.54-1.11c.62.57.49,1.35.64,2.06s.15,1.57,1.14,1.33.65-1.32.4-1.69c-.53-.76-.56-1.74-1.23-2.38L69,58.7c.46.4,1.2.09,1.61.62-.8.8-.62,1.27.47,1.46,2,2.47.71,4.58-.72,6.67l-.54-.67c.12-.88-.74-1-1.17-1.33-1.45-.92-2.55-2.47-4.45-2.65-.7-.06-1.1,0-.79.84-.58.27-1.23,1.37-1.67-.16-.13-.45-.48-.44-.73,0s-.67.45-1,0c0-.24.06-.48.07-.73s.08-.54-.22-.63-.42.13-.54.37-.06.88-.7.69a1.08,1.08,0,0,1-.81-1c0-.24-.07-.49-.09-.73-.13-1.27-.24-2.54-2.08-2.21a1,1,0,0,1-.66-.28c-.4-.36-.79-.68-1.23-.11s.16.9.52,1.25c.53.53,1.68.75,1,1.91,1.58,1.41,1.33,3.59,2.21,5.29,0,.07.16.1.37.22.1-.92.45-1.42,1.52-1.16s1.67-.52,1.91-1.52c.4.06.75.37,1.19.23a28.9,28.9,0,0,0,3.31,4.5c.29-2.28-1.18-3.32-2.46-4.48.31-.4.93-.4,1.14-.91,1.26-.55,2.07.45,2.61,1.14a15,15,0,0,1,1.48,1.71c-1.64.49-.57,1.37-.3,2.13.14.35.27.7.41,1.06l0,.11-.08.09c-.51-.61-1.28-1-1.28-2,0-.26-.27-.61-.6-.51s-.3.47-.17.74c.23.49,1,1-.25,1.29-.19,0,.16.58.37.84-.33.5-1.62-.88-1.39.72-.6.67-1.53,1.19-1.06,2.35a.59.59,0,0,1-.91,0c-.2-.2-.53-.55-.72-.24-.55.94-1.5.51-2.24.73-.43.12-.82,0-1,.61-.07.26-.17.79-.8.52s-.34-.68-.21-1.07A4.76,4.76,0,0,1,60.63,73c.32-.11.78-.37.7-.82s-.54-.34-.86-.34-.69,0-.92-.29c-.54-.73-1-.32-1.45.09h0a3.52,3.52,0,0,0-2.26,1c-.42-.22-.84-.49-1.34-.15.22.62.78.89,1.15,1.32.52.62.13,1.19-.07,1.76s-.64.22-1,.11a1,1,0,0,0-1.08.23c-.39.42.48.55.3.95-1.35.58-1.81-1.11-2.93-1.13a11.6,11.6,0,0,1,0-1.45c.15-1,.62-1.41,1.48-.57.15.14.21.34.43.15a.38.38,0,0,0,.08-.53c-.46-.66-.6-1.56-1.47-1.92-1.14-.48-.85-.94-.1-1.66s2-.36,2.82-1.08l.12,0-.12,0a4.58,4.58,0,0,0-4.61-.46c-.76.2-1.15.63-.89,1.45a.68.68,0,0,0-.2,1l-.41.31c-.48-1.18-1.57-1.76-2.47-2.53l.2-1.77c.4-.06.8.72,1.14.12s-.57-.28-.67-.73c-.16-.66-1.31-1.15-.07-2-1.61.31-3.8,2.25-3.87,3.27-1,1.55.67,1.3,1.24,1.78-.43.82-.62,1.6.24,2.32.4.34.64,1.08.3,1.31-1,.66-.7,1.68-1.06,2.45-.59,1.24.06,1.72.81,2a2,2,0,0,0,2.88-1.09c.08-.27.16-.55.25-.83.23.25.53.38.74.06.62-1,1.6-1.74,1.85-3,.48.06.59.3.57.79a5.28,5.28,0,0,0,.55,2.64,3,3,0,0,1-.77.41c-.86.2-1.83.16-2.14,1.32,0,.19-.47.29-.74.4a6.25,6.25,0,0,1-2.84.57c1.79,2.84-1.45,1.31-1.71,2.8-.33-1-.5-1.67-1-2.06.07-1.19-1.14-2.35.07-3.5-.52-.43-1.46.62-1.5-.6a2,2,0,0,0,1-1.77c0-1.22-.33-1.92-1.64-1.87v-.29c0-.48.82-.94.39-1.27s-1.22-.1-1.9,0c-1.54.35-3.18.76-4.66-.34-.23-.16-.37-.3-.28-.58s.22-.83-.28-1-.6.24-.8.53c-.45.68-1.31.61-1.91,1-.81-.28-.79-.88-.1-1,2-.42,2.13-2.24,2.91-3.57.13-.22.13-.38-.11-.61-1.17-1.1-1.11-2.62-1.3-4.05a.72.72,0,0,1,.23-.65c1.17-1.16,1.14-1.44-.17-2.45-.11-.09-.21-.21-.31-.31.95-.73.45-1.53.12-2.32-.62-1.49-.62-1.49,1.06-1.45.36.11.79,0,1.07.39s.43.48.68.1.44-.67,0-.9c-1-.58-.86-1.42-.58-2.29.13-.42-.13-.64-.35-.9-.11-.74.09-1.13.95-.93.52.12,1.09.59,1.59-.08a1.32,1.32,0,0,1,.68,1.21c-.08.7,0,1.14.9,1,.12,0,.39.24.38.34-.16,1.83,1.43,2.65,2.24,3.91.36.55.6.93-.28,1.09-.32-.29-.48-.75-1.27-1,.35.71.33,1.36,1.27,1,.74.82,1.12,1.67.13,2.58l-.58.89C38.4,58.5,37,57.86,37,56.19c0-.6-.51-.61-.94-.23-1.8-.15-2.44.37-2.19,2,.11.72-.38,1.07-.56,1.59-.12.34-.24.69.1.94s.54.07.81-.09c.78-.46,2.16,0,2.28-1.47,1.12.23,1.12,1.61,2.08,2-.12.86.87,1,1,.8.29-.48,1.19-.53,1-1.32-.12-.47-.26-.93-.4-1.4.43-.37,1.11-.35,1.39-1a.38.38,0,0,1,.62-.1c.89.9,2.09.77,3.17.85.72.06,1.08.9,1.85.65.45-.28,1-.53.84-1.18s-.5-.49-.89-.32c-.49-.91.22-1.79.09-2.7s-.09-.92-1-.59c-.34.13-.51,0-.66-.33a1.49,1.49,0,0,1,1.25-2.21c.13,0,.24-.15.36-.23.47.32.92.86,1.52.2,1,.09.55-1.45,1.53-1.39-.11-2.07,1.61-3.29,2.41-4.94.43-.88.5-1.17-.27-1.67a5,5,0,0,1-.88-1c-.23-.48,0-1.22-.74-1.43s-.85.49-1.13.95-.76.27-1.18.15c-.27-1-.6-2,.6-2.64.69,0,1.09-.77,1.81-.68.35.62.77.57,1.24.14l.41,0c.31.68-.22,1.27-.2,1.94,0,.94.14,1.73,1.17,2.09a1.35,1.35,0,0,1,.57.4c.23.28.15.93.65.83s.31-.73.42-1.13c.31-1.17-.07-2.43.45-3.57h.11c1.17,2.34,2,4.71.43,7.54,1.08-.58,2,0,2.83-.42,1-.57,1.08-2.16.21-3.63-.2-.33-.55-.58-.48-1L60,42.13c-.16,1.63.91,2.95.72,4.53l.05.22a1.24,1.24,0,0,1,.1-.2c.45-.4,1.74-.15.78-1.57-.64-1,.59-1.44,1.49-1.59.47-.08,1,.1,1.45,0s1.12-.5.73-1.28a2.39,2.39,0,0,0,.06-1.95A13.83,13.83,0,0,1,64.76,37c1,.64,2.35.55,2.35,2.11,0,.34.3.31.55.26s.51-.23.39-.62a3.28,3.28,0,0,0-.83-1.53c-.86-.81-.65-1.49.3-1.93.67-.31,1-1.74,2.14-.66a5.32,5.32,0,0,0-.59.44c-.3.29-1-.12-1,.56s.61.35.92.4c.72.13.72-.48.78-1a1.59,1.59,0,0,0-.06-.43c.73.09,1.34,0,1.58-.93.44.56,1.16.77,1,1.57,0,.22-.09.53.18.65s.54-.16.73-.36a.92.92,0,0,0,.23-.5c.18-1.38.86-2.12,2.33-1.88a1.22,1.22,0,0,0,2.06-.25A5.92,5.92,0,0,1,80,31.12c.22.09.69.47.61,0-.22-1.18.11-1.79,1.3-2,.16,0,.26-.38.4-.59.36-.4,1.28-.47.8-1.36A10.63,10.63,0,0,1,84.22,27c.47,0,.74-.19.68-.68s-.08-.56-.66-.59c-.86-.06,0-.44,0-.69A3.12,3.12,0,0,0,85.81,23a2.62,2.62,0,0,1,.23-.7c1.07-1.77-.09-2.61-1.86-3.52,1.84,0,1.92-1.43,2.6-2.21s-.89-.48-.87-1.28c.6-.38,1.83-.19,2.07-.92s-.74-1.34-1.39-1.93c.69-1,2,.34,2.59-.79h0c.06.24,0,.54.19.69a2.16,2.16,0,0,1,0,3.34c-.28.3-.28.3-.31,2,1.09-.15,2.18-1.34,3.29,0,.1.11.59,0,.62-.39,0-.15,0-.35,0-.43,1.61-1.82,0-1.76-1.14-2-.71-.14-.86-.5-.7-1.27s.82-1.57.11-2.69l1.7.81a8.12,8.12,0,0,1-.21-2.44c.07-.28,0-.74.18-.83,1.7-1,.81-1.62-.18-2.43-.58-.47-1.42-1.12-.06-1.88.5-.28.52-.8-.37-1a2,2,0,0,0-2.23.64c-.32-.32-.23-.89-.7-1.12.22-.39,1.32-.09.85-1.11-.06-.14.71-.65,1.29-.72A4,4,0,0,0,93.72.34l.86-.17c1,.15.77,1.61,1.94,1.83.46.08.85,0,1.26,0-.15.57.3,1,.51,1.43-.55.36-.9-.52-1.43-.08.38.72,1.24,1.69-.63,1.5-.1,0-.31.15-.3.19.46,2.44-1,.23-1.46.63.31.41.1,1.08.74,1.39a.56.56,0,0,1,.25.33c.07.41-1.11.7-.25,1.06.42.17,1.31-.15,1.48-1.22C97.22,8.3,98,9,96.42,9.56c-1.31.45-.52,1.22,0,1.59.77.5.35.88,0,1.29s-.63.2-.65-.12c-.12-1.42-1-.76-1.54-.51a5.84,5.84,0,0,1-1.85.82.63.63,0,0,0-.49,1c.29.52.63.17,1,0,1.24-.77,1.42-.7,1.41.78,0,.69.37.93.81,1.25,0-1.71.33-1.92,1.76-1.2,1.73.86,1.73.86.72,2.67a2.78,2.78,0,0,0-.22.54c0,.08,0,.18.07.4a3.91,3.91,0,0,0,2.12-1.83c.71-1.7,1.08-1.83,2.07-.19s1.68,2,3.32.93a2.46,2.46,0,0,1,2.34-.15c-.31.25-.6.52-.92.74-.61.41-.88.83-.33,1.54a3.18,3.18,0,0,1,.49,1.36c.07.42.11.75.57.91.72.24.47-.4.64-.66s.44-.29.46-.14c0,.56.8.81.73,1.16-.24,1.21-.31,1.2,1,1.37.14.06.32.32.41.06s-.18-.24-.37-.24c.62-1.15-.24-1.87-.77-2.69v-.11c.59-.41,1.8-.47.94-1.71a.3.3,0,0,1,.34-.45c.76.19,1.49-.53,2.29.22-.33-1.71-.34-1.73-1.72-1.14s-2.61,1.2-3.8-.22c.36-.22.65-.85,1.16-.13.23.32.64.24.91-.06a1,1,0,0,0,.16-1.11c-.18-.38-.56-.28-.91-.16a3.53,3.53,0,0,1-.84.25c-.28.05-.68.15-.83,0-.31-.3,0-.66.2-.9a3.57,3.57,0,0,0,.8-1.53c.24-.92,1-.9,1.81-.83.34,0,1,.13.69-.5-.67-1.26-.53-2.59-.66-3.91a1.66,1.66,0,0,0-.42-.75c-.12-.14-.4-.15-.5-.29-.85-1.25-1.68-1.65-2.58,0-.14.24-.45,0-.61-.18a.59.59,0,0,1,.12-.91c1-.44,1.15-1.08.23-2,1.72.35,2.42-.06,2.19-1-.08-.31-.45-.46-.48-.41-.41.72-1,0-1.07,0-1.24,1.18-3.12-.63-4.25.92-.11.13-.27.28-.13.45s.32.07.47,0c.44.82.35,1.54-.67,2.49.68-1.4-1.08-1.49-.71-2.55C102,2.2,100.72,2,99.94,1.5l0-.54.32-.1a1.11,1.11,0,0,0,1.45,0c.45-.39.81-.06,1.19.09s.29,1.19.73.82c.79-.67,2.21-.22,2.57-1.52,1.19-.65,2.94.07,2.89.6-.13,1.21,1.1,1.36,1.12,2.22,0,1.18.2,2.21,1.55,2.7.46.17-.1.54-.17.83-.19.76-1,1.6.41,2.17.46.19.35.92-.13,1.33l-.14-.17-.1.16.23,0c.52.34,0,1.52,1.11,1.39.6,1.19,1.25-.41,1.86,0A3.69,3.69,0,0,0,116.37,14.51ZM74.51,46.91l0,.12.35.11.13,0-.12-.06ZM114.18,25.5l0-.18c.07-.17.2-.34.18-.49a.17.17,0,0,0-.32,0c0,.15,0,.35.08.52Zm-11.7,26.64c0,.42.13,1.1.6,1A2.11,2.11,0,0,0,104.27,52c.19-.46-.44-.48-.78-.62A2.8,2.8,0,0,1,103,51c-.32-.34-.22-.81-.32-1.38-.47.29-1.17.54-1.16.75,0,.54.62.77,1.08,1A2.47,2.47,0,0,0,102.48,52.14ZM34.68,63l-.07.14a.9.9,0,0,0-.08,1.29.91.91,0,0,1-.07,1.18c-1.12.31-.72,1.28-.72,1.95,0,.42.65.44.9.08s1.86-.06,1-1.34a3.4,3.4,0,0,0-1-3.16ZM97.33,51l-1.26,1.11c.71.74,2-.28,2.43,1-.09.37-.47.23-.7.37-.47.28-1.49-.27-1.44.53s1,1.18,1.66,1.43c.41.16,1.28.49,1.46-.58.12-.71.79-.34,1.29-.42-.8-1.79-.87-3.73-1.42-5.56a2.82,2.82,0,0,0-.42-1.07c-.34-.38-.81-1-1.31-.66s-.08.87.23,1.24c.52.61.14,1-.33,1.31s-.72.78-.19,1.31Zm-33-2.18.08-.12c2-.76,3.51-2.46,5.57-3.21.57-.2.75-1.17,1.27-1.7a15.8,15.8,0,0,1,4.84-3.78,6.23,6.23,0,0,0,2.48-2.37c1.66-2.18,4.08-3.61,5.76-5.78a3.44,3.44,0,0,0,.84-1.36,25.61,25.61,0,0,0-3.44,2.89c-.12.14-.27.34-.43.37-3.28.69-4.74,3.87-7.41,5.39-.5.28-.85.79-1.55.75a1.11,1.11,0,0,0-1.13.8c-.43,1.83-1.74,2.79-3.26,3.66s-2.53,2.13-4,2.93c-1,.53.13,1,.46,1.4Zm-5.64.65c.19-.16.66-.14.47-.57a.83.83,0,0,0-.89-.61c-.66.08-1.22.55-2,0-.3-.19-.93.81-1.09,1.47-.12.51-.21,1.07.44,1.39s1.1.42,1.6-.25A4.65,4.65,0,0,1,58.66,49.51ZM112.51,14.1c-.79-.09-1.26.13-1.16,1s.72.35,1.12.38c.19,0,.4-.08.59-.06,1.68.19,2-.3,1.19-2.38A1.5,1.5,0,0,1,112.51,14.1ZM93.73,46a1.25,1.25,0,0,0-.14,1.82c.47.62,1,.48,1.5,0a1.2,1.2,0,0,0,.2-1.68C94.79,45.78,94.3,45.43,93.73,46Zm.18-5.29c.53.34,1.21.8,1.65.21a1.31,1.31,0,0,0-.22-1.67A1,1,0,0,0,94.1,39C94.93,39.73,92.66,39.89,93.91,40.69Zm-3.57-6.24c.41-.15,0-.59-.23-.82a1.08,1.08,0,0,0-1.34-.27.45.45,0,0,0,0,.83c.76.43-.09.91.06,1.35C89.66,35.59,89.72,34.69,90.34,34.45Zm21.72-10.94c-.33-.31-.69-.66-1.07-.07-.15.23-.23.79-.17.77.74-.24.76,1.12,1.57.65a5.75,5.75,0,0,0,1.22-1.24C113,23.42,112.5,24,112.06,23.51ZM36.72,63.88c.19.28.57.66.8.23A3.23,3.23,0,0,0,37.65,62c0-.26-.41-.14-.69.09C36.7,62.59,36.25,63.17,36.72,63.88Zm76.83-32.29a1,1,0,0,0,1.42.17c.36-.31.1-.71-.19-1a1.31,1.31,0,0,0-1.28-.28A.79.79,0,0,0,113.55,31.59ZM94.17,51c-.26.29-.66.84-.28,1.16a1.31,1.31,0,0,0,1.63,0c.29-.2.35-.45,0-.73C94.92,51.71,94.88,50.17,94.17,51Zm.59-40.49c.64-.44-.06-.84-.16-1.25S94,8.74,93.67,9c-.61.42.1.71.18,1.05C94.11,10.29,94.3,10.81,94.76,10.49Zm-.89-6.27c.38.5.8,0,1.15-.08.5-.2.18-.54,0-.8a.58.58,0,0,0-1-.14C93.75,3.5,93.6,3.87,93.87,4.22ZM60.28,49.16c.22.33.51.12.74-.07s.51-.48.24-.86A.59.59,0,0,0,60.5,48C60.56,48.38,60,48.72,60.28,49.16ZM85.61,48.1c.11.09.49.07.52,0,.34-.66-.39-1-.49-1.49C85.21,47.14,85,47.64,85.61,48.1ZM51.54,55.62c.23-.21.7-.36.45-.77s-.59-.19-.88,0a.7.7,0,0,0-.31.87C51.1,56,51.33,55.8,51.54,55.62ZM111.8,22l-1.29-1.61C110.67,21.65,110.67,21.65,111.8,22ZM92.54,2c.38.45.69-.05,1-.13s.35-.34.11-.55c-.41-.38-.61.41-1,.21A.28.28,0,0,0,92.54,2Zm3.18,47.87c-.37.22,0,.36.18.46a2.11,2.11,0,0,0,.52.15C96.19,50.06,96,49.72,95.72,49.89Zm16.91-30.95a.19.19,0,0,0,.34,0c0-.05,0-.2-.06-.24s-.16,0-.25,0S112.6,18.88,112.63,18.94Z"/><path class="cls-2" d="M61.42,37.08a5.4,5.4,0,0,0,.68-.57c.37-.41,1.31-.6,1.06-1.21a1.85,1.85,0,0,0-2-1.15c-1.53.51-2.28.17-2.49-1.41,0-.06-.16-.1-.25-.16C58,33,58.24,34,57.79,34a8.18,8.18,0,0,0-2.16.32c-.45.11-.55-.52-.45-.9A2.74,2.74,0,0,0,54.5,31a1.49,1.49,0,0,0,0-.21c.88-.28,1.76-.5.36-1.41A7.85,7.85,0,0,1,53.6,28c.07-.84.67-.16,1-.33,1.48-.21,2-1,1.79-2.59.24-.6.49-1.19.74-1.79A2.07,2.07,0,0,1,58.3,26a3.27,3.27,0,0,0,.43,2.51c.35.49,1.4.49,2.14.7.11-.48.47-.86.36-1.46-.15-.87-.84-1.77.14-2.67.26-.24-.23-.41-.63-.43-1.92-.12-2.35-.79-1.51-2.45.62-1.22-.72-1.55-1-2.36a10.46,10.46,0,0,1,1.11-.06c1.3-.08,2-1.47,3.27-1.43.41.44.71.09,1-.15.6.54.1.9-.16,1.34a.56.56,0,0,0,.24.86c.37.13.45-.27.56-.51A1.42,1.42,0,0,0,63.86,18c-.58-.92.46-2-.31-2.91.05-.33,0-.92.34-.87,1,.15.71-.73,1-1.12l1.34,2.42c.58-.4.33-.81.07-1.14a.9.9,0,0,1,.25-1.5c1.16-.44.46-.85.12-1.32.18-.19.38-.33.66-.18.2.34.46.34.75.12l.17,0c.14.14.31.41.42.39,1.4-.27,1.57.71,1.57,1.66s-.18,1.68-1.36,1.6a.28.28,0,0,0-.24.14c-.63,1.54-1.82.87-2.87.73l-.2,0,.19.07c.29.83.69,1.46,1.74,1.4a1.47,1.47,0,0,1,1.09.65c1.17,1.34,2.88,2.08,4,3.55a.68.68,0,0,0,1,.24c1,1.27,2.24,2.33,2.8,3.89.17.48.52,1,0,1.47L76,26.86a.56.56,0,0,0-1-.36c-.3.8-.89.4-1.19.26-.53-.25.12-.73,0-1.12-1.74.89-1.75,1-.32,2.33.61.56,1.19,1.15,1.78,1.73v0c-.55.86.65,1.41.39,2.29a3,3,0,0,0,0,1.1h0c-1.47-.24-2.15.5-2.33,1.88a.92.92,0,0,1-.23.5c-.19.2-.39.5-.73.36s-.23-.43-.18-.65c.18-.8-.54-1-1-1.57-.24.89-.85,1-1.58.93h0c-1.1-1.08-1.47.35-2.14.66-1,.44-1.16,1.12-.3,1.93a3.28,3.28,0,0,1,.83,1.53c.12.39,0,.55-.39.62s-.55.08-.55-.26c0-1.56-1.35-1.47-2.35-2.11a13.83,13.83,0,0,0,.62,3.32,2.39,2.39,0,0,1-.06,1.95C64.4,40.21,62.65,38.85,61.42,37.08Zm2.24-4.95,0,.12c0,.13,0,.26,0,.39h.14l-.15-.39ZM65,29.72c0-.11-.09-.24-.19-.49a2.34,2.34,0,0,0,3.16-.31c.49-.58.24-2-.66-2.78.32-.47.94.36,1-.09.15-1.62,1.21-1.66,2.4-1.61.34,0,.76,0,.86-.38s-.28-.83-.62-1.08-.7-.42-1-.05c-.21.21-.31.75-.71.32-.25-.26,0-.55.19-.87.46-.78.44-1.49-.8-1.5a4.94,4.94,0,0,1-1.27-.36c-.3-.08-.56-.62-.86-.23-.16.21,0,.66,0,1s.22.67.66.61,1.2-.36,1.34.4c.18.93-.83.76-1.3,1.1s-1,.22-1.22-.45c-.17-.42-.4-1-1.08-.65-.86.42,0,.76,0,1.15.09,1.58,1.92,2,2.07,3.54,0,.48.33.9-.2,1.32s-1,.72-1.46.37c-1.27-.94-1.87-.38-2.35.82-.14.34-.52.59-.4,1,.36.26.53-.08.74-.24.73-.61,1.11-.32,1.38.47s.7,1.73,1,2.62c.17.6.59.72,1.26.88-.38-.87-.75-1.64.5-2,.46-.14-.08-1.07.51-1.42a.48.48,0,0,0,.59-.18.32.32,0,0,0,0-.13l-.57.3C65.88,31.72,65.88,31.73,65,29.72ZM71.09,33a2,2,0,0,0,.42-2.07.64.64,0,0,0-1-.26c-.56.55-.53,1.67-1.63,1.72l.11.49A1.61,1.61,0,0,0,71.09,33Zm-9.36.32a.63.63,0,0,0,.91-.43c.09-.22.24-.47,0-.64a.49.49,0,0,0-.83.2c-.23.51-.59,0-.9.12A1.43,1.43,0,0,0,61.73,33.27Zm3.75-13.38c0,.09.28.19.34.15.36-.22.15-.59.21-1C65.55,19.28,65.31,19.5,65.48,19.89ZM68,34.21c-.43-.1-.54.28-.89.47A.7.7,0,0,0,68,34.21Z"/><path class="cls-2" d="M89.23,11.55l0,.12c-.56,1.13-1.9-.18-2.59.79.65.59,1.65,1.11,1.39,1.93s-1.47.54-2.07.92c0,.8,1.66.37.87,1.28s-.76,2.19-2.6,2.21c1.77.91,2.93,1.75,1.86,3.52a2.62,2.62,0,0,0-.23.7,3.12,3.12,0,0,1-1.53,2.05c-.21-.54-.75-.35-1.14-.51L83,24.21l.19-.59,1,0c.46,0,1-.11.85-.68-.13-.4.12-1.38-.92-1.08-.6.17-.86-.13-1.11-.63-.49-1-1.06-1.95-1.61-2.94-.56.23-.34.59-.19.94a5.2,5.2,0,0,1-2,.45c.65,2,.28,2.41-2.16,2.41-.26-.09-.65.14-.77-.25a.64.64,0,0,1,.46-.82c1.44-.26.6-.86.23-1.39.63-.53.86-1,.07-1.65a1.13,1.13,0,0,1-.21-1.58c.53-.53,1-1.57.78-1.73-.87-.75-.89-2.18-2-2.6-1.28-.47-1.07-1.87-1.83-2.65-.07-.07-.4-.9.38-.72.41.09.69.22.61-.36s-.4-1.15-.69-.93c-1.43,1.07-2.43-.24-3.62-.46-.16,0-.36.09-.54.14l-.8-.48c-.12-.5-.33-.92.56-1A3.07,3.07,0,0,0,71.81,4.3c.31-.12.7-.34.84.15.27.84.23.85,1.08.29l.14.06-.14,0-.79-1c.13-.19.27-.37.41-.55l.59-.11a5.61,5.61,0,0,0,1.42,2.2,2.87,2.87,0,0,1,.18.4c.08.31-.35.82.4.85s.13-.7.6-.83c.58.07.38.76.75,1.08a2.53,2.53,0,0,0,3.79,0c.29-.26.61-.49.92-.73.14.15.43.18.36.49-.25.4-1.22.66-.72,1.14a2.06,2.06,0,0,0,1.91.7c1-.28.48-.7,0-1.09.1-.72-.45-2,1.21-1.44.33.1.55-.32.59-.7l.51-.34.41.36c.19.25.4.11.6,0-.12.65-.69,1.49.75,1.34.69-.07.48.88,1,1.14.3.18.45.85.89.5s.07-.69-.32-.9c-.82-.44-.32-1.77-1.38-2,.44-.36.8-.81,1.49-.72.46,0,.89-.1.77-.74a2,2,0,0,1,2.23-.64c.89.22.87.74.37,1-1.36.76-.52,1.41.06,1.88,1,.81,1.88,1.45.18,2.43-.16.09-.11.55-.18.83a8.12,8.12,0,0,0,.21,2.44l-1.7-.81c.71,1.12.05,1.88-.11,2.69s0,1.13.7,1.27c1.16.24,2.75.18,1.14,2-.07.08,0,.28,0,.43,0,.42-.52.5-.62.39-1.11-1.33-2.2-.14-3.29,0,0-1.71,0-1.71.31-2a2.16,2.16,0,0,0,0-3.34c-.14-.15-.13-.45-.19-.69Zm-4.8-.45s.12,0,.12,0,.07-.23.11-.35L85.84,10a1.6,1.6,0,0,0-1.43,0c-.26.16.11.47.23.71Zm-5.89,8.14c0,.07.22.07.34.1a1.18,1.18,0,0,0,0-.42c-.05-.16-.19-.18-.38-.05A.92.92,0,0,0,78.54,19.24Zm1.34-.46a1.81,1.81,0,0,0,.23,0s0-.07,0-.11l-.24,0A.43.43,0,0,1,79.88,18.78Z"/><path class="cls-2" d="M67.77,57.83c-.45-.52-.24-1.26-.59-1.78a1.69,1.69,0,0,1,.45-2.21,2.32,2.32,0,0,1,2.65-.49c.55.34,1.91.24,1.42,1.59-.15.4-.45,1,0,1.2s.89-.25,1.3-.45.52-.56.77-.85c.53.45.67,1.49,1.72,1.16.73-.44,1.87.06,2.32-1l.2.13.7.74.42.69a4.26,4.26,0,0,0,1.25,3.22c.94,1-.89,2.14-.46,3.38a.53.53,0,0,0,.15.25c.31.19.29,1,.94.56s1.25-.9,1.87-1.36c.23-.17.54-.38.31-.7s-.59-.08-.85.13l-.16,0A6.54,6.54,0,0,1,84,59.07c.33-.23,1-.13,1,0-.54.63,0,1.75-.46,2-2.23.95.15.89.23,1.3l.33.47A.78.78,0,0,0,85,64c-.83.11-1.27.46-.85,1.36-.23.11-.79-.06-.68,0,.92,1-.1,2,.08,2.91l-.31.13c-.43-.28-.25-1.23-.9-1.11-.46.09-.71.73-.81,1.26-.42.66-.83.47-1.24,0L79.75,67c-.17,1.14-1.79,1.33-1.63,2.6l-.5.3c-.39-.13-.64.09-.88.36a1.6,1.6,0,0,1-1.1-.08l-.32-.32,0-.38h-.13l.15.37c-.71.49-1.26,0-1.79-.35-.32-.24-.51-.75-1-.4a5.23,5.23,0,0,1-3.9,1.15c-.14-.36-.27-.71-.41-1.06l2.15-1.78c1.43-2.09,2.74-4.2.72-6.67,1.15-.91.2-1.14-.47-1.46-.41-.53-1.15-.22-1.61-.62C69.08,57.69,68.36,57.84,67.77,57.83Zm5.67,5.73a.72.72,0,0,0,.07.76c.22.27.67.35.78.17.47-.85,1.77-.86,2-1.95,0-.32.71-.62.13-1-.39-.23-.75,0-1.13.41C75.11,62.89,73.75,62.58,73.44,63.56Zm5.17,2.17c.26-.23.85-.46.42-.88a1.42,1.42,0,0,0-1.74-.32.61.61,0,0,0-.21,1C77.54,65.88,78,66.23,78.61,65.73Zm4.19.36a.43.43,0,0,0,0-.36,2,2,0,0,0-.51-.11l-.06.46C82.5,66.31,82.68,66.25,82.8,66.09ZM70.92,58.57s.14.08.21.12.13-.16.11-.23-.14-.08-.21-.12S70.9,58.51,70.92,58.57ZM69,69.82s.11,0,.12,0a1.89,1.89,0,0,0,.09-.21l-.12,0Z"/><path class="cls-1" d="M20.53,75.33a8.32,8.32,0,0,0-2.26,1.5.94.94,0,0,0,1.51.19c.75-.63,1.74-.58,2.78-1.15-1.79,2.61-5,3.64-7.2,2.51-.48-.76-1-1.44-2.07-1.16.54,1,2.49,1.37,1.46,3.12,0,0,.05.09.09.11.94.61,0,.79-.26,1.13.16.35.17.66-.21.88s-.65,0-.87-.29a3,3,0,0,1-.93-1.64c-.51-.23-.86.72-1.41.18a58.74,58.74,0,0,0-6,3.86c.88.7,1.22-.57,1.94-.54.32,0,.74-.25.93.13s-.25.53-.5.73c-1.24,1-2.85,1-4.16,1.86a2.61,2.61,0,0,1-3,.35c-.31.2-.49.44-.29.81.64-.08,1.19.06,1.22.8s-.66.08-.85.42a1.87,1.87,0,0,0,.2.4c1.59,2.18,1.59,2.18,3.8.63l.12-.09c1.34-1,1.34-1,2.14.87-.17-2,.92-2.77,2-3.51,1.28-.83,2.57-1.63,3.86-2.42.47-.28,1-.52,1.5-.09.64-.89,1.81-.71,2.61-1.27.42-.12.09-1.29.55-.77,1.05,1.19.49-.49.84-.37,1.06-1.7,2.79-2.62,4.34-3.75l.3,0h.13c.38-.57,1.08-.58,1.6-.9,0-.89,1.1-.69,1.3-1.42s-1.26-3,1.26-1.28a.14.14,0,0,0,.11-.06c.39-1.1.75-.19,1.1,0a.8.8,0,0,0,.83,0c-.11-.21-.16-.51-.33-.63-1.67-1.24-2.4-3.26-3.9-4.63a.8.8,0,0,1-.32-.9,1.83,1.83,0,0,0-.44-1.9c-.25-.29-.59-.66-.08-1s1-.26,1.18.19c.69,1.62,1.2.32,1.77-.06a25.15,25.15,0,0,0-2.11-3.19,10.35,10.35,0,0,1-.69.91c-.48.51-1.13.64-1.45,0C22.22,62.85,21,62.13,21,60.77c-1.33-1.29-1.73-1.23-2.55.42-.2.41-.37.75-.83.37-.24-.2-.34-.69-.77-.3s-.09.54,0,.81.25.92.71.74c.81-.32,1,.28,1.43.67,1.91,2.18,3.44,4.67,5.62,6.63,1,.94.83,2.12-.36,2.92-.57.39-1.2.67-1.8,1l-.88.66C21.32,75.06,21.07,75.43,20.53,75.33Z"/><path class="cls-2" d="M40.13,59.07c.43-.37,1.11-.35,1.39-1a.38.38,0,0,1,.62-.1c.89.9,2.09.77,3.17.85.72.06,1.08.9,1.85.65,0-.5-.26-1,0-1.5-.49-.91.22-1.79.09-2.7s-.09-.92-1-.59c-.34.13-.51,0-.66-.33a1.49,1.49,0,0,1,1.25-2.21c.13,0,.24-.15.36-.23l-.06-.22c-.24-.58-1.13-.93-.65-1.77a1.14,1.14,0,0,1,.1-.19,3,3,0,0,0-2.72-2.1c-1-.09-1.49-1.09-1.89-1.85-.29-.52.42,0,.61-.21.58-.87.14-1.61-.31-2.35-.81.8-2.34-.06-2.92,1.27.17.53.27,1-.28,1.44a7.47,7.47,0,0,0-1.61,1.69c-.65,1-.84.56-1.27,0a1.43,1.43,0,0,0-.52.89,1.32,1.32,0,0,1,.68,1.21c-.08.7,0,1.14.9,1,.12,0,.39.24.38.34-.16,1.83,1.43,2.65,2.24,3.91.36.55.6.93-.28,1.09h0c.74.82,1.12,1.67.13,2.58Z"/><path class="cls-2" d="M29.77,74.63l.29-.16c.3.28.49.7,1,.76.44.72.73.24,1-.13,1.33,1.2,1,3.55,2.93,4.32.46-.21.28-.65.17-.89-.31-.71.06-.88.62-1.13.4-.18,1.19-.18,1-1-.15-.56-.39-1-1.1-.94s-.86-.62-1-1.19c.37-.72,1.3-.3,1.84-1.07-1.4.84-1.18-2.34-2.83-.89l-.07,0c-.51-.68-1.05-.12-1.66,0a3.86,3.86,0,0,0,.52-.77A1.59,1.59,0,0,0,31.89,70c-.4-.39-.77.2-1.07.46a14.3,14.3,0,0,0-1.19,1.27c-.67-.82.38-1.37.32-2.1.6-.41,1.46-.34,1.91-1,.2-.29.42-.64.8-.53s.41.59.28,1,.05.42.28.58c1.48,1.1,3.12.69,4.66.34.68-.15,1.4-.43,1.9,0s-.37.79-.39,1.27v.29a1.09,1.09,0,0,1-.11.27c-1.3,1.35-1.1,2.23.78,3.37,0,1.22,1,.17,1.5.6-1.21,1.15,0,2.31-.07,3.5-1.41,2.25-1.52,2.28-4,1.3-.2-.09-.48,0-.7,0-1.07-.31-1.8.4-2.62.85a.63.63,0,0,0-1,.23,1.16,1.16,0,0,0,.41,1.3c1.12.89-.06,1.95.21,2.92,0,.11-.34.25-.49.11s-.74-.64-.69-.88c.23-1.09-.59-1.53-1.12-2.17A6.71,6.71,0,0,1,30,77.11c.08-.41.79-1.06.08-1.16-.46-.07-1.57-.15-1.78.72-.14.59-.17.62-.78.52a2.1,2.1,0,0,0-1.8,1c-.34.48.53.67.8,1a3.41,3.41,0,0,1,.3.67c-.35.49-.79.74-1,0s-.91-1.34-1.3-2.06c0-.89,1.1-.69,1.3-1.42s-1.26-3,1.26-1.28a.14.14,0,0,0,.11-.06c.39-1.1.75-.19,1.1,0a.8.8,0,0,0,.83,0ZM39.88,78c.1,0,.26-.22.24-.27-.22-.5-.51-.94-1.24-.7C39.34,77.2,39.06,78.17,39.88,78Zm-.73-1.79a.37.37,0,0,0,.16-.48.32.32,0,0,0-.43-.22c-.28.11-.25.35-.22.56S39,76.3,39.15,76.17Zm-1.4-5.46a.46.46,0,0,0-.13.33c.16.35.45.45,1,.27A1,1,0,0,0,37.75,70.71Z"/><path class="cls-3" d="M29.11,75.13l.66-.5c-.24-.35-.07-.61.17-.88s.22-.75-.24-.87c-1.34-.34-.44-.76-.07-1.17-.67-.82.38-1.37.32-2.1-.81-.28-.79-.88-.1-1,2-.42,2.13-2.24,2.91-3.57.13-.22.13-.38-.11-.61-1.17-1.1-1.11-2.62-1.3-4.05a.72.72,0,0,1,.23-.65c1.17-1.16,1.14-1.44-.17-2.45-.11-.09-.21-.21-.31-.31A1.54,1.54,0,0,0,30.33,59a1.61,1.61,0,0,1-.28,1.9A1,1,0,0,0,29.89,62a4.38,4.38,0,0,1-1.43,4.55c-.54.39-1-.16-1.47-.31-.57.38-1.08,1.68-1.77.06-.19-.45-.78-.42-1.18-.19s-.17.67.08,1a1.83,1.83,0,0,1,.44,1.9.8.8,0,0,0,.32.9c1.5,1.37,2.23,3.39,3.9,4.63C29,74.62,29,74.92,29.11,75.13Z"/><path class="cls-1" d="M54.52,30.75c.88-.28,1.76-.5.36-1.41A7.85,7.85,0,0,1,53.6,28c-.21.18-.35.47-.19.65,1,1.18-.13,2.29-.09,3.44,0,.47-.34.52-.72.52s-.71.17-.47.48c.76,1-.21,1-.71,1.25.29.61,1,.51,1.24,1.22a4.09,4.09,0,0,0-3.94,3.72c.54-.31,1.19-.39,1.62-.87a.73.73,0,0,1,.91.23,3.67,3.67,0,0,1,2,0c.79.33.73.68.1,1.11.61.75,1.61-.23,2.22.49h.11A3.79,3.79,0,0,0,54.37,37c-.35-.32-.93-.45-.8-1.08a.59.59,0,0,1,.43-.33c.75-.11.75.59,1.06,1,.73.93,1,2.17,1.91,2.95.62-.84.28-1.8.33-2.71.1-1.86.12-1.88,1.76-1.5a5.8,5.8,0,0,0,.59,0c.34,0,.6.2.51.56-.31,1.19.44,1.23,1.26,1.22a5.4,5.4,0,0,0,.68-.57c.37-.41,1.31-.6,1.06-1.21a1.85,1.85,0,0,0-2-1.15c-1.53.51-2.28.17-2.49-1.41,0-.06-.16-.1-.25-.16C58,33,58.24,34,57.79,34a8.18,8.18,0,0,0-2.16.32c-.45.11-.55-.52-.45-.9A2.74,2.74,0,0,0,54.5,31c-.08,0-.22,0-.23-.07C54.24,30.67,54.4,30.73,54.52,30.75Z"/><path class="cls-1" d="M34.15,81.34a.63.63,0,0,0-1,.23,1.16,1.16,0,0,0,.41,1.3c1.12.89-.06,1.95.21,2.92,0,.11-.34.25-.49.11s-.74-.64-.69-.88c.23-1.09-.59-1.53-1.12-2.17A6.71,6.71,0,0,1,30,77.11c.08-.41.79-1.06.08-1.16-.46-.07-1.57-.15-1.78.72-.14.59-.17.62-.78.52a2.1,2.1,0,0,0-1.8,1c-.34.48.53.67.8,1a3.41,3.41,0,0,1,.3.67c.35,1,2,2,.19,3.14,0,.65-.41,1.41.47,1.84.42-.84.79-.48,1.16.05.43-.24,1.1-.23,1.24,0,.65,1.27,1.27.42,1.9,0,.51.48.08.93.06,1.38a1.86,1.86,0,0,0,1.68,1.9c.8.18.67-.59.73-1.08l0-.54.08,0c-.11-.12-.35-.19-.17-.4a1.94,1.94,0,0,1,.33.19c.92-1.17,1.11-2.92.14-3.79C34,82.23,34.25,81.8,34.15,81.34Z"/><path class="cls-1" d="M67.87,10.2c-.08-.9,1.11-1.45.65-2.45,1-.51.66.72,1.16.86-.71,1.23-.87,2.28.57,3.22.86.55.8,1.8,1.32,2.69s.94,1.56,2.11,1.37c.23,0,.67-.09.68.33a.62.62,0,0,1-.58.58c-2,.2-.75,1.26-.32,1.67.82.77,1.12,1.19-.22,1.58-.41.12-1,.41-.07.77.53.21,0,.86.39,1.15h0a.68.68,0,0,1-1-.24c-1.07-1.47-2.78-2.21-4-3.55a1.47,1.47,0,0,0-1.09-.65c-1.05.06-1.45-.57-1.74-1.4V16c1,.14,2.24.81,2.87-.73a.28.28,0,0,1,.24-.14c1.18.08,1.36-.79,1.36-1.6s-.17-1.93-1.57-1.66c-.11,0-.28-.25-.42-.39C68.72,10.9,68.11,10.6,67.87,10.2Zm2.41,6.58c.12.4.36,1.08,1,.83s.5-.8.1-1.19-.17-.82-.41-1.38A1.54,1.54,0,0,0,70.28,16.78Z"/><path class="cls-2" d="M48.71,52.13c1,.09.55-1.45,1.53-1.39-.11-2.07,1.61-3.29,2.41-4.94.43-.88.5-1.17-.27-1.67a5,5,0,0,1-.88-1,1.52,1.52,0,0,0-1.35.92c-.13.3-.51.72-.67.16s-1-.63-1.11-1.24a6.69,6.69,0,0,0-2.78-2.41s-.15.11-.16.18.06.17.1.25c.65.71-.06,1.11-.34,1.64s0,1.13.41,1.58a.31.31,0,0,0,.57-.09c.17-.39.2-1,.85-.45.41.34,1.3.31.87,1.29-.18.39,0,.79.57.69s.78.38,1.17.56.7.37.59.74-.63,0-.92.21c.87,1,0,1.6-.48,2.26-.36.45-1,.62-1.14,1.29l.16.75C48.5,51.2,48.91,51.24,48.71,52.13Z"/><path class="cls-1" d="M47.46,46.37c-.59-.29-1,.22-1.25.46-.43.43.23.6.49.81,1,.76.76,1.45-.12,2.11a3,3,0,0,0-2.72-2.1c-1-.09-1.49-1.09-1.89-1.85-.29-.52.42,0,.61-.21.44,1,1.13.62,2,.28-1.29-1.6-1.59-3.21,0-4.75.33,0,.69.29,1-.12.65.71-.06,1.11-.34,1.64s0,1.13.41,1.58a.31.31,0,0,0,.57-.09c.17-.39.2-1,.85-.45.41.34,1.3.31.87,1.29-.18.39,0,.79.57.69s.78.38,1.17.56.7.37.59.74-.63,0-.92.21C48.69,46.9,48.06,46.66,47.46,46.37Zm-1.19-1.44c-.24.23-.43.54-.14.88a.28.28,0,0,0,.48,0,5.87,5.87,0,0,0,.32-.87C46.61,44.91,46.37,44.84,46.27,44.93Z"/><path class="cls-1" d="M57.1,23.28A2.07,2.07,0,0,1,58.3,26a3.27,3.27,0,0,0,.43,2.51c.35.49,1.4.49,2.14.7.11-.48.47-.86.36-1.46-.15-.87-.84-1.77.14-2.67.26-.24-.23-.41-.63-.43-1.92-.12-2.35-.79-1.51-2.45.62-1.22-.72-1.55-1-2.36A2.48,2.48,0,0,0,57.1,23.28Z"/><path class="cls-1" d="M73.53,1.67A2.19,2.19,0,0,1,75,1.6c.19.38.29,1,.87.33a1.18,1.18,0,0,1,.86.41c0,.4-1,.88.05,1.19,1.41.41,1.58,1.45,1.34,3a4.61,4.61,0,0,1,4-.84l0,.39c-.31.24-.63.47-.92.73a2.53,2.53,0,0,1-3.79,0c-.37-.32-.17-1-.75-1.08-.47.13.09.85-.6.83s-.32-.54-.4-.85a2.87,2.87,0,0,0-.18-.4c-.19-.6-.39-1.19-.56-1.79s-.39-.67-.86-.41l-.59.11C72.58,2.58,73.79,2.21,73.53,1.67ZM75.22,3l.16-.15-.13,0Z"/><path class="cls-2" d="M48.71,69.65a.68.68,0,0,0-.2,1,1.53,1.53,0,0,1,1.1,1.72c.48.06.59.3.57.79a5.28,5.28,0,0,0,.55,2.64.17.17,0,0,0,.2-.06,11.6,11.6,0,0,1,0-1.45c.15-1,.62-1.41,1.48-.57.15.14.21.34.43.15a.38.38,0,0,0,.08-.53c-.46-.66-.6-1.56-1.47-1.92-1.14-.48-.85-.94-.1-1.66s2-.36,2.82-1.08h0a4.58,4.58,0,0,0-4.61-.46c.22.24.45.48.36.85.35.48.36.9-.22,1.21C49.21,70.37,48.92,70.07,48.71,69.65Z"/><path class="cls-3" d="M22.45,74c.6-.33,1.23-.61,1.8-1,1.19-.8,1.4-2,.36-2.92-2.18-2-3.71-4.45-5.62-6.63-.18.14-.76-.43-.58.25A7.17,7.17,0,0,0,20,66.63a41.3,41.3,0,0,1,3.15,4.07c.48.7.09,1.51-.29,2.22C22.71,73.27,22.14,73.47,22.45,74Z"/><path class="cls-1" d="M84.16,65.4c-.23.11-.79-.06-.68,0,.92,1-.1,2,.08,2.91.89,0,.94,1,1.6,1.3s.88.77,1.53.68l.45-.37a6.48,6.48,0,0,0,.3-3c0-1-.4-1-1.06-1C85.41,66.67,84.85,65.78,84.16,65.4Z"/><path class="cls-3" d="M18.14,82.51c-.35-.12.21,1.56-.84.37-.46-.52-.13.65-.55.77l-.42,3c.22.32.48.62.1,1s-.7.13-1-.09a2.58,2.58,0,0,0-1.62-.53c-.14,1,.12,2,1,2.26a1.85,1.85,0,0,0,2.27-1.55A6.15,6.15,0,0,1,18.79,85c.72-.83-.31-1.5-.22-2.27Z"/><path class="cls-3" d="M14.58,81.58c.23-.34,1.2-.52.26-1.13,0,0-.1-.09-.09-.11,1-1.75-.92-2.1-1.46-3.12-.58-.18-1.21-.63-1.65.17s-1.13,1.4-.26,2.17c.71.62-.37.73-.22,1.15.55.54.9-.41,1.41-.18C13.9,79.62,13.87,81.31,14.58,81.58Z"/><path class="cls-2" d="M58.11,71.6a3.52,3.52,0,0,0-2.26,1,1.18,1.18,0,0,0,1.38,1.18,1,1,0,0,1,1.08.65A4.76,4.76,0,0,1,60.63,73c.32-.11.78-.37.7-.82s-.54-.34-.86-.34-.69,0-.92-.29c-.54-.73-1-.32-1.45.09,0,.15.11.39-.22.32Z"/><path class="cls-3" d="M42.58,45.59c.44,1,1.13.62,2,.28-1.29-1.6-1.59-3.21,0-4.75-.85-1.48-1.9-.3-2.83-.16-.27,0-.53.64,0,1,.36.28,1,.55.54,1.23C42.72,44,43.16,44.72,42.58,45.59Z"/><path class="cls-3" d="M.39,87.1a2.61,2.61,0,0,0,3-.35c1.31-.84,2.92-.91,4.16-1.86.25-.2.73-.29.5-.73s-.61-.11-.93-.13c-.72,0-1.06,1.24-1.94.54A13.35,13.35,0,0,0,.39,87.1Z"/><path class="cls-3" d="M15.36,78.38c2.2,1.13,5.41.1,7.2-2.51-1,.57-2,.52-2.78,1.15a.94.94,0,0,1-1.51-.19A6.39,6.39,0,0,0,15.36,78.38Z"/><path class="cls-3" d="M27,83c1.78-1.16.16-2.11-.19-3.14-.35.49-.79.74-1,0s-.91-1.34-1.3-2.06c-.52.32-1.22.33-1.6.9.25.35.48.77,1,.78,1,0,1.31.78,1.45,1.57A2.19,2.19,0,0,0,27,83Z"/><path class="cls-3" d="M21,60.77c0,1.36,1.21,2.08,1.73,3.17.32.66,1,.53,1.45,0a10.35,10.35,0,0,0,.69-.91c.13-.18.18-.49,0-.52a4.33,4.33,0,0,1-2.48-1.82C21.73,59.87,21.46,60.3,21,60.77Z"/><path class="cls-1" d="M36.19,47.67c.43.53.62,1,1.27,0A7.47,7.47,0,0,1,39.07,46c.55-.42.45-.91.28-1.44-.25-.35-.7-.89-.91-.23C38,45.66,36.92,46.53,36.19,47.67Z"/><path class="cls-3" d="M68.53,70.49c-.51-.61-1.28-1-1.28-2,0-.26-.27-.61-.6-.51s-.3.47-.17.74c.23.49,1,1-.25,1.29-.19,0,.16.58.37.84.45.22.47,1.09,1.14.87A1.08,1.08,0,0,0,68.53,70.49Z"/><path class="cls-1" d="M54.57,27.66c1.48-.21,2-1,1.79-2.59-1.19-.47-1.61.38-2.17,1.16S54.14,27.27,54.57,27.66Z"/><path class="cls-1" d="M13.8,87.05a2.58,2.58,0,0,1,1.62.53c.31.22.62.5,1,.09s.12-.7-.1-1c-1-.1-1.1-1.47-2.15-1.47A1.47,1.47,0,0,0,13.8,87.05Z"/><path class="cls-3" d="M48.37,43c.13.61.91.59,1.11,1.24s.54.14.67-.16a1.52,1.52,0,0,1,1.35-.92c-.23-.48,0-1.22-.74-1.43s-.85.49-1.13.95-.76.27-1.18.15C48.36,42.84,48.33,42.89,48.37,43Z"/><path class="cls-3" d="M32.28,53.17c.36.11.79,0,1.07.39s.43.48.68.1.44-.67,0-.9c-1-.58-.86-1.42-.58-2.29.13-.42-.13-.64-.35-.9A15,15,0,0,0,32.28,53.17Z"/><path class="cls-1" d="M64.9,13.09l1.34,2.42c.58-.4.33-.81.07-1.14a.9.9,0,0,1,.25-1.5c1.16-.44.46-.85.12-1.32C65.58,11.48,65.32,12.37,64.9,13.09Z"/><path class="cls-2" d="M14.18,85.18c1.05,0,1.16,1.37,2.15,1.47l.42-3c-.8.56-2,.38-2.61,1.27A.23.23,0,0,0,14.18,85.18Z"/><path class="cls-3" d="M65.21,71.57c-.6.67-1.53,1.19-1.06,2.35.68.25,1.32-.08,2.06,0C66,73,66,72.11,65.21,71.57Z"/><path class="cls-3" d="M63.86,18c-.58-.92.46-2-.31-2.91-1.41.79-.54,2.21-.9,3.29.41.44.71.09,1-.15Z"/><path class="cls-1" d="M75.31,69.89c-.71.49-1.26,0-1.79-.35-.32-.24-.51-.75-1-.4a1.51,1.51,0,0,1,.25.37c.71,1.95,1.49,2.14,2.92.7-.11-.1-.21-.21-.32-.32Z"/><path class="cls-3" d="M68.52,7.75c1-.51.66.72,1.16.86l.9.16c.4-.25.74-.49.13-.92a6.46,6.46,0,0,1-.79-.78l-.8-.48C68.81,6.92,67.72,6.85,68.52,7.75Z"/><path class="cls-1" d="M80.3,68.64,79.75,67c-.17,1.14-1.79,1.33-1.63,2.6C79.05,69.76,79.41,68.62,80.3,68.64Z"/><path class="cls-2" d="M50.34,38.4c-.43.48-1.08.56-1.62.87a1.07,1.07,0,0,0,.33.9c.69,0,1.09-.77,1.81-.68C51,39,50.53,38.75,50.34,38.4Z"/><path class="cls-3" d="M71.81,4.3c.31-.12.7-.34.84.15.27.84.23.85,1.08.29h0l-.79-1C72.41,3.63,71.77,3.28,71.81,4.3Z"/><path class="cls-1" d="M18.57,82.72c-.09.77.94,1.44.22,2.27.67-.35,1.34-.78,1.09-1.65C19.73,82.79,19.3,82.31,18.57,82.72Z"/><path class="cls-1" d="M83.25,68.49c-.43-.28-.25-1.23-.9-1.11-.46.09-.71.73-.81,1.26C82.14,68.94,82.73,69.08,83.25,68.49Z"/><path class="cls-3" d="M.47,89.13c.19-.34.87.18.85-.42s-.58-.88-1.22-.8A.9.9,0,0,0,.47,89.13Z"/><path class="cls-3" d="M28.63,84.93c-.37-.53-.74-.89-1.16-.05C27.83,85.37,28.22,85.39,28.63,84.93Z"/><path class="cls-3" d="M20.53,75.33c.54.1.79-.27,1-.64C21,74.47,20.61,74.68,20.53,75.33Z"/><path class="cls-2" d="M68.26,11.52c.46-.62-.15-.92-.39-1.32-.41.25-.29.55-.08.86l.3.43Z"/><path class="cls-1" d="M77.62,69.93c-.39-.13-.64.09-.88.36A.58.58,0,0,0,77.62,69.93Z"/><path class="cls-1" d="M68.09,11.49l-.3-.43-.45.31C67.54,11.71,67.8,11.71,68.09,11.49Z"/><path class="cls-2" d="M34.45,86.51a1.94,1.94,0,0,0-.33-.19c-.18.21.06.28.17.4A.65.65,0,0,0,34.45,86.51Z"/><path class="cls-2" d="M34.21,86.67l0,.54A.36.36,0,0,0,34.21,86.67Z"/><path class="cls-3" d="M22.78,78.72l-.3,0Z"/><path class="cls-2" d="M101.47,28.35a5.82,5.82,0,0,1,1.75,3.48c.09.66.38,1.07,1.14,1.06,1.7,0,1.82.17,1.29,1.77-.1.31-.12.71.19.75a5.43,5.43,0,0,0,1.75-.1c.21,0,.16-.46,0-.65-1-1.26.14-1.66.89-2a11.4,11.4,0,0,1,1-.55c.82-.24,0-.78.21-1.19s-.45-.38-.65-.22c-1.11.9-1.76.57-2.33-.64-.16-.33-.85-.4-1.31-.59s-1-.08-1.25-.63l.89-.73c.75,0,.92,1.06,1.74,1a3.06,3.06,0,0,1,3.29,1.3c.36-.48-1-.77,0-1.12.29-.1.78.1.64-.45-.09-.33-.54-.4-.88-.45-1.27-.15-1.27-.14-1.37-1.31.59.23,1.19.44,1.77.68,1.11.47,2.53,2.61,2,3.32s-.06.73.34.88c.64.23,1.61.32,1.72.95.28,1.5.86.56,1.38.3a1.37,1.37,0,0,1,.55,1c-.33.18-1.44-.46-.79.75l-.59.58-.85-1.2c-.38.35-.26.79-.27,1.2,0,.78.11,1.66-1.1.77-.51-.37-.81,0-1,.46a4.31,4.31,0,0,0-.2,2.7c-1.36-.83-.26-2.41-1.54-3-.42.48.14,1.18-.24,1.71-.53.12-.83-.89-1.38-.39s.59.45.33.91c-.48.44-1.09-.49-1.59.09a.69.69,0,0,0,.76.57c.66,0,.83.35.49.83-.48.67.37,1.4-.25,2.19-.23.3.94.7,1.62.57a1.69,1.69,0,0,0,1-.61c.41-.48,1.08-.38,1.66-.39,1.05,0,.57.69.62,1.23a11.7,11.7,0,0,0,.59,2l0,.42c-.21.13-.43.4-.61.37-2.17-.34-1.72,1.16-1.7,2.48-.89-1.06-3-.92-2.65-3a.62.62,0,0,0-.47-.68c-1.38-.34-1.24-1.27-.93-2.29.16-.52.11-1-.53-1.16s-.88-.84-1.11-1.42l.21-.34-.13,0c0,.12-.08.24-.11.36-.65.57-1.07.34-1.28-.4a10.8,10.8,0,0,1-.16-1.16c-.07-.36,0-.83-.49-1-.31-.1-.76.08-.68.33.17.48-.35.7-.12,1.36.48,1.37,2.5,1.45,2.31,3.2-.06.5.27.1.43,0a.59.59,0,0,1,.88.22c.23.42-.17.6-.41.83l-.32-.22c-.07.32.17.2.32.22.26.31.47.59.16,1-.71,1-.68,1.73.43,2.64a13.29,13.29,0,0,1,2.41,3,5.31,5.31,0,0,0,1.6,1.35l-.68.9-1-.91c.28,1,.4,1.64-.37,2-.4-.18-1,.09-1.26-.4-.1-.16-.33-.44-.29-.48.9-1,.2-1.19-.66-1.34a.58.58,0,0,1-.39-.4c-.17-.84-.82-1.07-1.5-1.4s-1.21-1.11-2.1-1.26c-.24,0-.32-.39-.3-.74,0-1,0-1-1-.46l-.64-.49c-.68-.63.37-1.66-.53-2.24,1-1,1.47-2.47,2.85-3.12a.38.38,0,0,0,.19-.49.41.41,0,0,0-.59-.24c-.45.14-1,.15-1.29.58-.45-.4-1.61-.51-.6-1.52.18-.19.07-.75-.23-.5-.53.47-1.18-.29-1.59.3l-.28,0c-.28-.5-.84-.92-.64-1.58.36-1.24-.24-1.89-1.29-2.35-.25-.11-.6,0-.75-.37-.56-1.34-1.28-.84-2-.15-.33.3-.64,1-1.12.52s.32-.79.55-1.19,1.54-.2,1-1.23A1.66,1.66,0,0,0,91.84,32a2.22,2.22,0,0,1-.73.1c-.27,0-.65,0-.68-.38s.28-.38.52-.43c.7-.13,1.3-.26.68-1.19-.16-.26,0-.92.41-.58a1.59,1.59,0,0,0,2.15-.13c.9-.7,1.76-.15,2.62-.28a4,4,0,0,1,2.14.09c1.67.72,1.87.7,2.51-.89Zm3.34,9.19a.39.39,0,0,0,0,.36c.19.17.44.23.62,0,0-.08,0-.25,0-.33C105.14,37.37,104.94,37.38,104.81,37.54Z"/><path class="cls-1" d="M114.91,35.56l-.85-1.2c-.38.35-.26.79-.27,1.2,0,.78.11,1.66-1.1.77-.51-.37-.81,0-1,.46a4.31,4.31,0,0,0-.2,2.7c-1.36-.83-.26-2.41-1.54-3-.42.48.14,1.18-.24,1.71-.53.12-.83-.89-1.38-.39s.59.45.33.91c-.48.44-1.09-.49-1.59.09a.69.69,0,0,0,.76.57c.66,0,.83.35.49.83-.48.67.37,1.4-.25,2.19-.23.3.94.7,1.62.57a1.69,1.69,0,0,0,1-.61c.41-.48,1.08-.38,1.66-.39,1.05,0,.57.69.62,1.23a11.7,11.7,0,0,0,.59,2c.2-.47.5-.45.93-.3s.82.54,1.09-.15c-.4-.55.29-2-1.29-1.54-.08-.51-.34-1.09-.19-1.52.53-1.5-.4-2.33-1.29-3.17-.35-.34-.75-.58-.74-1.28.86.17,1.81,1.12,2.35.45C114.7,37.32,115.46,36.43,114.91,35.56Z"/><path class="cls-1" d="M105.46,39.92c-.65.57-1.07.34-1.28-.4a10.8,10.8,0,0,1-.16-1.16c-.07-.36,0-.83-.49-1-.31-.1-.76.08-.68.33.17.48-.35.7-.12,1.36.48,1.37,2.5,1.45,2.31,3.2-.06.5.27.1.43,0a.59.59,0,0,1,.88.22c.23.42-.17.6-.41.83h0c.26.31.47.59.16,1-.71,1-.68,1.73.43,2.64a13.29,13.29,0,0,1,2.41,3,5.31,5.31,0,0,0,1.6,1.35c.31-.9,1.33.12,1.7-.63a3.24,3.24,0,0,1,1.07-3c.54-.5,1.19-1.3.18-2.08-.21.13-.43.4-.61.37-2.17-.34-1.72,1.16-1.7,2.48-.89-1.06-3-.92-2.65-3a.62.62,0,0,0-.47-.68c-1.38-.34-1.24-1.27-.93-2.29.16-.52.11-1-.53-1.16s-.88-.84-1.11-1.42Z"/><path class="cls-1" d="M108.47,53.38c-.4.31-.21.53.1.74l.67-.43c0-.62.25-.56.62-.28.23-.37.38-.75,0-1.12l-1-.91C109.12,52.34,109.24,53,108.47,53.38Z"/><path class="cls-3" d="M115.13,22.29c-.91,1.48.26,1.38,1.15,1.5C116.22,23,115.32,22.93,115.13,22.29Z"/><path class="cls-1" d="M116.29,34.23c-.33.18-1.44-.46-.79.75a.61.61,0,0,0,.86-.1C116.59,34.63,116.61,34.41,116.29,34.23Z"/><path class="cls-2" d="M109.86,53.41c-.37-.28-.64-.34-.62.28C109.5,53.73,109.89,54,109.86,53.41Z"/><path class="cls-3" d="M116.31,24.07c-.34.23-.45.49-.1.81C116.24,24.61,116.28,24.34,116.31,24.07Z"/><path class="cls-2" d="M101.42,3.65c-.37,1.05,1.39,1.14.71,2.54,1-1,1.11-1.67.67-2.49l-.34-.42c1.13-1.55,3,.26,4.25-.92,0,0,.66.7,1.07,0,0,0,.4.1.48.41.23.92-.47,1.33-2.19,1,.92.95.82,1.59-.23,2a.59.59,0,0,0-.12.91c.16.2.47.42.61.18.9-1.62,1.73-1.22,2.58,0,.1.14.38.15.5.29a1.66,1.66,0,0,1,.42.75c.13,1.32,0,2.65.66,3.91.34.63-.35.53-.69.5-.78-.07-1.57-.09-1.81.83a3.57,3.57,0,0,1-.8,1.53c-.2.24-.51.6-.2.9.15.14.55,0,.83,0a3.53,3.53,0,0,0,.84-.25c.35-.12.73-.22.91.16a1,1,0,0,1-.16,1.11c-.27.3-.68.38-.91.06-.51-.72-.8-.09-1.16.13h0a2.46,2.46,0,0,0-2.34.15c-1.64,1.12-2.38.63-3.32-.93s-1.36-1.51-2.07.19A3.91,3.91,0,0,1,97.49,18c0-.22-.1-.32-.07-.4a2.78,2.78,0,0,1,.22-.54c1-1.81,1-1.81-.72-2.67-1.43-.72-1.73-.51-1.76,1.2-.44-.32-.82-.56-.81-1.25,0-1.48-.17-1.55-1.41-.78-.34.21-.68.56-1,0a.63.63,0,0,1,.49-1,5.84,5.84,0,0,0,1.85-.82c.54-.25,1.42-.91,1.54.51,0,.32.41.46.65.12s.72-.79,0-1.29c-.55-.37-1.34-1.14,0-1.59,1.55-.52.8-1.26.27-2.31-.17,1.07-1.06,1.39-1.48,1.22-.86-.36.32-.65.25-1.06a.56.56,0,0,0-.25-.33c-.64-.31-.43-1-.74-1.39.48-.4,1.92,1.81,1.46-.63,0,0,.2-.2.3-.19,1.87.19,1-.78.63-1.5.53-.44.88.44,1.43.08-.21-.46-.66-.86-.51-1.43s.46-1.34,1.12-.24c.17.28.63.38.95.56C100,3.24,100.36,3.86,101.42,3.65ZM99.13,8.28c0,.52,0,1.12.67,1.1s.5-.57.47-1.09a6,6,0,0,1,.11-2.8c.17-.4,0-.43-.22-.39s-.63-.67-1-.16c-.12.16-.46.42,0,.67.73.39,0,.56-.17.81-.63,0-1.23.34-1.88.18.74,1,1.34.66,1.88-.16C99.45,7,99.12,7.67,99.13,8.28Zm2.36-2.86.12,0-.08-.16-.09.1S101.47,5.41,101.49,5.42Zm-4,.21,0,0,0,.09Z"/><path class="cls-2" d="M90.25,38.08l-.81,2.6h1c.85,0,.84,0,.85-.93,0-.33.3-.48.56-.6s.59-.06.62.18c.11.81.78,1.64.36,2.39a2.48,2.48,0,0,0-.09,2.86c.43.66-.08,1.31-.54,1.68s-.78-.32-1.06-.63-.6-.45-1-.18a1.83,1.83,0,0,1-1.15.15c-.46,0-1.23-.91-1.29.49,0,.26-1.09.67-1.48-.27s-.76-1.73-1.14-2.6c.55,2.5-2.24,1.46-2.87,2.71a2.93,2.93,0,0,1,.48.13c.46.25,1.27-.08,1.43.5s-.62.78-1,1.14S82.31,48.76,83,49c.94.28.49.78.42,1.23s-.43,1.1.3,1.19.4-.64.48-1a5.67,5.67,0,0,0,0-.58c0-.27-.19-.66.23-.74a.75.75,0,0,1,.83.49,6.56,6.56,0,0,1,.34,1c.21.88,1.32.56,1.65,1.27l.77-.91L89,50.8c1.19-.12,1-.57.29-1.17A4.6,4.6,0,0,0,87.75,48a.76.76,0,0,1-.39-.88c.16-.57.68-.31,1-.32.8,0,0,.39.13.62.32.56.64,1.26,1.29,1.3,1.38.08,2.39.37,2.5,2,0,.42.88.87.42,1.25-.88.74-.53,1.59-.53,2.43,0,1.27-.7,2.14-1.53,1.76-1.32-.6-1.14.23-.92.9s.15.89-.48.81c-1.17-.15-1.21.47-.83,1.5-1.09-.58-1.72-1.2-1.65-2.26a1,1,0,0,0-.54-1c-.54-.25-.66.22-.76.61s-.41.32-.69.26c-.33-.25-.81-.34-.93-.82.26-.42.8-.34,1.14-.61s.36-.86.14-.77c-1.21.47-2.29-.62-3.57-.12l.55-1,.46-.31c.8,1,1.33-.17,2-.27.28,0,.18-.49,0-.55-.59-.18-1-1.32-1.8-.43l-.46.29a7.2,7.2,0,0,0-1.29-3,2.66,2.66,0,0,0-3.59-.73c-.33-.45-1.31.46-1.33-.64l-.58-.69c.7-.36.32-1.93,1.56-1.57.85.24,1.42-.86,2.35-.19,1.1.79,1.93.3,2.24-1a1.19,1.19,0,0,1,1.27-1c.37,0,.85.73,1.07,0,.16-.49-.57-.52-.92-.72a2.66,2.66,0,0,0-1.53-.37c-1.14.07-1.41-.46-1-1.67l1.56-.36c1.5,1.75,4.08,1.66,5.59,3.42a1,1,0,0,0-.33-.71,1.6,1.6,0,0,1-.64-2.27c.49-1.17,1.53-2.92-.54-4a.51.51,0,0,1-.1-.67c.16-.32.37-.14.61-.07.85.26,1.87.14,2.43,1.11.2.35.58.3.9.08Zm.21,12.7,0,.14c-.19.15-.34.32-.11.54,0,0,.15,0,.23-.05l-.13-.5Z"/><path class="cls-3" d="M83,24.21c.06-.2.13-.39.19-.59-1.23-.74-2.26-1.55-1.55-3.24a1.06,1.06,0,0,0-.42-1.17,5.2,5.2,0,0,1-2,.45c.65,2,.28,2.41-2.16,2.41,0,.42,0,.85,0,1.33-.28-.11-.55-.23-.82-.32s-.49-.17-.66.09a.45.45,0,0,0,.18.63c1.32.75,1.1,2.71,2.63,3.31a.56.56,0,0,1,.26.78c-.31.11-.49-.2-.74-.28s-.5-.4-.75.06l1.09,1.11c.45-.28.9-.68,1.4-.09a1.23,1.23,0,0,1-.08,1.72h0l.38.72c.22.09.69.47.61,0-.22-1.18.11-1.79,1.3-2,.16,0,.26-.38.4-.59-.35-.58-1.35.23-1.56-.73.7-.55,1.58-.41,2.36-.63A10.63,10.63,0,0,1,84.22,27c.47,0,.74-.19.68-.68s-.08-.56-.66-.59c-.86-.06,0-.44,0-.69-.21-.54-.75-.35-1.14-.51-.26.06-.57.62-.78.05C82.24,24.29,82.63,24.18,83,24.21Z"/><path class="cls-3" d="M61.42,37.08c-.82,0-1.57,0-1.26-1.22.09-.36-.17-.54-.51-.56a5.8,5.8,0,0,1-.59,0c-1.64-.38-1.66-.36-1.76,1.5,0,.91.29,1.87-.33,2.71.08.21.15.42.22.63.6-.58,1-.06,1.28.33s-.33.55-.47.86l.67,1.35L60,42.13c-.16,1.63.91,2.95.72,4.53l.15,0c.45-.4,1.74-.15.78-1.57-.64-1,.59-1.44,1.49-1.59.47-.08,1,.1,1.45,0s1.12-.5.73-1.28C64.4,40.21,62.65,38.85,61.42,37.08Z"/><path class="cls-3" d="M64.38,48.74c2-.76,3.51-2.46,5.57-3.21.57-.2.75-1.17,1.27-1.7a15.8,15.8,0,0,1,4.84-3.78,6.23,6.23,0,0,0,2.48-2.37c1.66-2.18,4.08-3.61,5.76-5.78a3.44,3.44,0,0,0,.84-1.36,25.61,25.61,0,0,0-3.44,2.89c-.12.14-.27.34-.43.37-3.28.69-4.74,3.87-7.41,5.39-.5.28-.85.79-1.55.75a1.11,1.11,0,0,0-1.13.8c-.43,1.83-1.74,2.79-3.26,3.66s-2.53,2.13-4,2.93c-1,.53.13,1,.46,1.4Z"/><path class="cls-2" d="M48.1,70.94c-.48-1.18-1.57-1.76-2.47-2.53-.56.56-1.37.36-2,.63-.43.82-.62,1.6.24,2.32.4.34.64,1.08.3,1.31-1,.66-.7,1.68-1.06,2.45-.59,1.24.06,1.72.81,2a2,2,0,0,0,2.88-1.09l.24-.83c.06-.67-.38-1.17-.62-1.74s-.11-1.09.51-1C48.46,72.78,48.16,71.8,48.1,70.94Z"/><path class="cls-3" d="M94.1,61c1-.52,2.12-.87,2.17-2.27-.3-.34-.67-.33-.88,0-1.07,1.74-2,.62-2.92-.13a.63.63,0,0,0-.25.09c-.3.27,0,1-.64,1-.33,0-.5-.31-.58-.59A.85.85,0,0,1,91.57,58c.29-.13.76-.1.56-.64a.59.59,0,0,0-.68-.43c-.42,0-.8.12-.7.7,0,.24,0,.65-.22.62-1.45-.18-1,1.17-1.44,1.75-.36,1.3,1.2,1.88,1.24,3.13-2.17-1.24-2.17-1.24-3.25-.48.35.33.84.51,1,1a2.24,2.24,0,0,1,2.66.58,1.26,1.26,0,0,0,1.59.22c.53-.22.84-.52.49-1.12S93,63,93.15,63c.8.07,1.12-.63,1.56-1s.46-.95-.45-.75c-.77.64-1.09.15-1.34-.54l-1.83,1.66c.18-1.09.67-1.82,1.84-1.76C93.49,60.2,93.74,60.75,94.1,61Z"/><path class="cls-2" d="M102.43,24.55l-1-.23c.53-.24.51-1.22,1.59-.67.81.41,1.66-.43,1.21-1.65a1.46,1.46,0,0,1,.39,0c.44.13.58,1.21,1.15.6.4-.43-.2-1-.67-1.27s-1.23-1.48-2-.12c0,0-.09.09-.12.07-1.86-1-2.35,1.88-4.13,1.46-.73-.17-.36.52-.11.88l.17,0h-.17c-.38.34-1.12.81-.44,1.22,1.2.72,1.23,2.4,2.6,2.92.2.07.32.35.48.54h0c.77-.63,2-.85,1.84-2.27C103.09,25.53,103.06,24.86,102.43,24.55Z"/><path class="cls-2" d="M59.92,63.5c0-.24.06-.48.07-.73s.08-.54-.22-.63-.42.13-.54.37-.06.88-.7.69a1.08,1.08,0,0,1-.81-1c0-.24-.07-.49-.09-.73-.13-1.27-.24-2.54-2.08-2.21a1,1,0,0,1-.66-.28c-.4-.36-.79-.68-1.23-.11s.16.9.52,1.25c.53.53,1.68.75,1,1.91,1.58,1.41,1.33,3.59,2.21,5.29,0,.07.16.1.37.22.1-.92.45-1.42,1.52-1.16s1.67-.52,1.91-1.52a8.22,8.22,0,0,0-1.06-.35C59.2,64.37,59.53,64,59.92,63.5Z"/><path class="cls-2" d="M58.67,42.68c-.22-.45-.44-.9-.67-1.35-.63-.15-.56-.77-.81-1.19-.07-.21-.14-.42-.22-.63-.94-.78-1.18-2-1.91-2.95-.31-.4-.31-1.1-1.06-1a.59.59,0,0,0-.43.33c-.13.63.45.76.8,1.08a3.79,3.79,0,0,1,1.31,3.24c1.17,2.34,2,4.71.43,7.54,1.08-.58,2,0,2.83-.42,1-.57,1.08-2.16.21-3.63C59,43.38,58.6,43.13,58.67,42.68Z"/><path class="cls-3" d="M99.8,44.17c1-1,1.47-2.47,2.85-3.12a.38.38,0,0,0,.19-.49.41.41,0,0,0-.59-.24c-.45.14-1,.15-1.29.58,0,.47.17,1.09-.32,1.3s-.69-.49-1.08-.71-.53-.88-.81-1.32a2.28,2.28,0,0,0-1.08.88c-.52,1.31-1.23,2.2-2.83,1.48-.44-.19-.82,0-.59.6s-.3.72-.57,1c.07.15.15.31.23.46.42.62,1.07-.32,1.5.23a14.06,14.06,0,0,1,3.24-.1Z"/><path class="cls-2" d="M107.34,16.79c-.31.25-.6.52-.92.74-.61.41-.88.83-.33,1.54a3.18,3.18,0,0,1,.49,1.36c.07.42.11.75.57.91.72.24.47-.4.64-.66s.44-.29.46-.14c0,.56.8.81.73,1.16-.24,1.21-.31,1.2,1,1.37a1.16,1.16,0,0,0,0-.18c.62-1.15-.24-1.87-.77-2.69l-.18-.07.19,0c.59-.41,1.8-.47.94-1.71a.3.3,0,0,1,.34-.45c.76.19,1.49-.53,2.29.22-.33-1.71-.34-1.73-1.72-1.14s-2.61,1.2-3.8-.22Z"/><path class="cls-2" d="M97.33,51l-1.26,1.11c.71.74,2-.28,2.43,1-.09.37-.47.23-.7.37-.47.28-1.49-.27-1.44.53s1,1.18,1.66,1.43c.41.16,1.28.49,1.46-.58.12-.71.79-.34,1.29-.42-.8-1.79-.87-3.73-1.42-5.56a2.82,2.82,0,0,0-.42-1.07c-.34-.38-.81-1-1.31-.66s-.08.87.23,1.24c.52.61.14,1-.33,1.31s-.72.78-.19,1.31c.3-.15.61-.63.89,0,.09.19.22.54-.06.63C97.67,51.82,97.61,51.25,97.33,51Z"/><path class="cls-3" d="M76,48.14l-.58-.69a4.8,4.8,0,0,0-1.19,1.7,3.75,3.75,0,0,1,1.41,1.44c.23.44,1.23,0,1,.74-.38,1.41.67,1,1.32,1.21v0c-.3-2.25,1.09-.51,1.77-.73-.18-1-.28-2.05,1.14-2.26a2.66,2.66,0,0,0-3.59-.73L76.81,50c-.43-.28-1.06-.13-1.36-.72S75.68,48.43,76,48.14Z"/><path class="cls-2" d="M75.67,50.59a3.75,3.75,0,0,0-1.41-1.44,1.47,1.47,0,0,1-1-1.75,3,3,0,0,0-1,4.51c.39.53.88.93,1.61.59a1.33,1.33,0,0,1,.19-.14Z"/><path class="cls-3" d="M55.57,40.21c-.61-.72-1.61.26-2.22-.49a.69.69,0,0,0-.84-.08h0c.31.68-.22,1.27-.2,1.94,0,.94.14,1.73,1.17,2.09a1.35,1.35,0,0,1,.57.4c.23.28.15.93.65.83s.31-.73.42-1.13C55.43,42.61,55.05,41.35,55.57,40.21Z"/><path class="cls-3" d="M36.08,56c-1.8-.15-2.44.37-2.19,2,.11.72-.38,1.07-.56,1.59-.12.34-.24.69.1.94s.54.07.81-.09c.78-.46,2.16,0,2.28-1.47-.73-.49-1.35-1-.32-1.8C36.77,56.74,36.39,56.34,36.08,56Z"/><path class="cls-2" d="M79.6,30.41a1.23,1.23,0,0,0,.08-1.72c-.5-.59-1-.19-1.4.09l-.8.52-1.25,1.15c-.11.91.37,1.92-.51,2.68h0a1.22,1.22,0,0,0,2.06-.25A5.92,5.92,0,0,1,80,31.12l-.38-.72c-.35.63-1,.62-1.59.66-.21,0-.25-.24-.25-.44a1.14,1.14,0,0,1,.58-1.1C79.32,29,79.28,30,79.6,30.41Z"/><path class="cls-2" d="M88.1,63.65c-.18-.5-.67-.68-1-1,1.08-.76,1.08-.76,3.25.48,0-1.25-1.6-1.83-1.24-3.13-.66-.51-1.48.21-2.27-.35-.36-.25-.24,1.06-.87,1.31.49.61.6,1.17-.2,1.63l.57.8.91,1.09C87.89,64.59,88.09,64.22,88.1,63.65Z"/><path class="cls-2" d="M45.83,66.64c.4-.06.8.72,1.14.12s-.57-.28-.67-.73c-.16-.66-1.31-1.15-.07-2-1.61.31-3.8,2.25-3.87,3.27l2,.85A.56.56,0,0,0,45,68a.57.57,0,0,0,0-.68c-.12-.26-.75-.35-.38-.77S45.46,66.35,45.83,66.64Z"/><path class="cls-2" d="M57.17,51a4.65,4.65,0,0,1,1.49-1.47c.19-.16.66-.14.47-.57a.83.83,0,0,0-.89-.61c-.66.08-1.22.55-2,0-.3-.19-.93.81-1.09,1.47-.12.51-.21,1.07.44,1.39S56.67,51.65,57.17,51Z"/><path class="cls-3" d="M48.1,70.94c.06.86.36,1.84-1.2,1.58-.62-.11-.76.38-.51,1s.68,1.07.62,1.74c.24.25.54.38.75.06.62-1,1.6-1.74,1.85-3a1.53,1.53,0,0,0-1.1-1.72Z"/><path class="cls-3" d="M82.1,53.77l.46-.31c.09-.41.55-.78.14-1.25l-.46.29a1.53,1.53,0,0,1-.89.32c-1.15.16-2.17-.65-3.31-.32v0c.6.89-.63,1.6-.23,2.46l.2.13c1-.5.72.26.7.74l.42.69a2.92,2.92,0,0,0,.56-1.75C79.78,53.53,81.09,53.69,82.1,53.77Z"/><path class="cls-2" d="M64.37,64.25c1.26-.55,2.07.45,2.61,1.14a15,15,0,0,1,1.48,1.71l.61-.21a1.45,1.45,0,0,1-.08-.33c.22-.11.26.1.34.22h.44c.12-.88-.74-1-1.17-1.33-1.45-.92-2.55-2.47-4.45-2.65-.7-.06-1.1,0-.79.84Z"/><path class="cls-2" d="M36.08,56c.31.38.69.78.12,1.22-1,.81-.41,1.31.32,1.8,1.12.23,1.12,1.61,2.08,2,.74-.23.93-.69.54-1.37C38.4,58.5,37,57.86,37,56.19,37,55.59,36.51,55.58,36.08,56Z"/><path class="cls-3" d="M39.39,71.48a1.09,1.09,0,0,1-.11.27c-1.3,1.35-1.1,2.23.78,3.37a2,2,0,0,0,1-1.77C41,72.13,40.7,71.43,39.39,71.48Z"/><path class="cls-2" d="M67.56,59.8c.62.57.49,1.35.64,2.06s.15,1.57,1.14,1.33.65-1.32.4-1.69c-.53-.76-.56-1.74-1.23-2.38C68,59.13,67.54,59.11,67.56,59.8Z"/><path class="cls-3" d="M114.25,13.06a1.5,1.5,0,0,1-1.74,1c-.79-.09-1.26.13-1.16,1s.72.35,1.12.38c.19,0,.4-.08.59-.06C114.74,15.63,115.05,15.14,114.25,13.06Z"/><path class="cls-3" d="M64.37,64.25l-1-.61c-.58.27-1.23,1.37-1.67-.16-.13-.45-.48-.44-.73,0s-.67.45-1,0c-.39.45-.72.87.21,1.06a8.22,8.22,0,0,1,1.06.35c.4.06.75.37,1.19.23l.85,0C63.54,64.76,64.16,64.76,64.37,64.25Z"/><path class="cls-3" d="M45.83,66.64c-.37-.29-.81-.49-1.16-.08s.26.51.38.77A.57.57,0,0,1,45,68a.56.56,0,0,1-.67.1l-2-.85c-1,1.55.67,1.3,1.24,1.78.66-.27,1.47-.07,2-.63C45.7,67.82,45.77,67.23,45.83,66.64Z"/><path class="cls-3" d="M67.56,59.8c0-.69.47-.67,1-.68L69,58.7c.13-1-.59-.86-1.18-.87l-1.29,1c-.13.49-.25,1-.38,1.47a1.91,1.91,0,0,1,.08.57c-.07.41,0,.73.46.71s.44-.32.38-.65A1.07,1.07,0,0,1,67.56,59.8Z"/><path class="cls-2" d="M63.23,65.16l-.85,0a28.9,28.9,0,0,0,3.31,4.5C66,67.36,64.51,66.32,63.23,65.16Z"/><path class="cls-2" d="M95.29,46.16c-.5-.38-1-.73-1.56-.18a1.25,1.25,0,0,0-.14,1.82c.47.62,1,.48,1.5,0A1.2,1.2,0,0,0,95.29,46.16Z"/><path class="cls-2" d="M95.16,55c-.89-1.24-1.11.47-1.81.45-.46,0-.36.71-.18,1.1.38.82,1.12.52,1.77.46C95.86,56.41,95.25,55.67,95.16,55Z"/><path class="cls-3" d="M101,46.9l-.64-.49c-.38.46-.86.08-1.39.1A7.12,7.12,0,0,0,100.73,49c.2.22.56.49.9.24s.2-.64,0-.9A4,4,0,0,1,101,46.9Z"/><path class="cls-3" d="M89.37,2.65c-.81,1.08-2.19,1.49-3.05,2.52.19.25.4.11.6,0l.89,0c.44-.36.8-.81,1.49-.72.46,0,.89-.1.77-.74C89.75,3.45,89.84,2.88,89.37,2.65Z"/><path class="cls-3" d="M39.14,59.62c.39.68.2,1.14-.54,1.37-.12.86.87,1,1,.8.29-.48,1.19-.53,1-1.32-.12-.47-.26-.93-.4-1.4l-.41-.34Z"/><path class="cls-3" d="M69.07,66.89l-.61.21c-1.64.49-.57,1.37-.3,2.13l2.15-1.78-.54-.67h-.44A.85.85,0,0,1,69.07,66.89Z"/><path class="cls-3" d="M74.07,52.36a1.33,1.33,0,0,0-.19.14c.18.79-.37,1.55-.12,2.34.53.45.67,1.49,1.72,1.16C75.5,54.6,74.66,53.53,74.07,52.36Z"/><path class="cls-2" d="M34.46,65.65c-1.12.31-.72,1.28-.72,1.95,0,.42.65.44.9.08s1.86-.06,1-1.34C34.88,66.66,34.72,66.08,34.46,65.65Z"/><path class="cls-2" d="M94.1,39c.83.72-1.44.88-.19,1.68.53.34,1.21.8,1.65.21a1.31,1.31,0,0,0-.22-1.67A1,1,0,0,0,94.1,39Z"/><path class="cls-2" d="M98.65,44.72a14.06,14.06,0,0,0-3.24.1c.52.74,2.61,1.2,3.23.68A.5.5,0,0,0,98.65,44.72Z"/><path class="cls-3" d="M88.83,35.54c.83.05.89-.85,1.51-1.09.41-.15,0-.59-.23-.82a1.08,1.08,0,0,0-1.34-.27.45.45,0,0,0,0,.83C89.53,34.62,88.68,35.1,88.83,35.54Z"/><path class="cls-3" d="M80.53,41l1.56-.36c.17-.27.27-.5-.12-.69a1.58,1.58,0,0,0-1.13-.07c-.61.16-1.6-.54-1.77.32C78.93,40.83,80.18,40.4,80.53,41Z"/><path class="cls-3" d="M34.46,65.65c.26.43.42,1,1.14.69a3.4,3.4,0,0,0-1-3.16h0a.91.91,0,0,0-.07,1.29A.91.91,0,0,1,34.46,65.65Z"/><path class="cls-2" d="M113.61,23.62c-.63-.2-1.11.33-1.55-.11s-.69-.66-1.07-.07c-.15.23-.23.79-.17.77.74-.24.76,1.12,1.57.65A5.75,5.75,0,0,0,113.61,23.62Z"/><path class="cls-3" d="M99.85,2.34c.14.9.51,1.52,1.57,1.31C102,2.2,100.72,2,99.94,1.5Z"/><path class="cls-3" d="M84.77,57.07c-.33-.25-.81-.34-.93-.82l-.64-.58c-.8.42-1.34.91-.47,1.78C83.52,58,84.07,57.12,84.77,57.07Z"/><path class="cls-3" d="M102.61,51.44a2.47,2.47,0,0,0-.13.7c0,.42.13,1.1.6,1A2.11,2.11,0,0,0,104.27,52c.19-.46-.44-.48-.78-.62A2.8,2.8,0,0,1,103,51C102.88,51.17,102.74,51.3,102.61,51.44Z"/><path class="cls-3" d="M37,62.07c-.26.52-.71,1.1-.24,1.81.19.28.57.66.8.23A3.23,3.23,0,0,0,37.65,62C37.6,61.72,37.24,61.84,37,62.07Z"/><path class="cls-2" d="M97.67,41.05a2.28,2.28,0,0,1,1.08-.88c.21-.39-.08-.67-.21-1l-.28,0c-.83,1.19-1.16-.37-1.85-.31A3.43,3.43,0,0,0,97.67,41.05Z"/><path class="cls-2" d="M113.5,30.47a.79.79,0,0,0,0,1.12,1,1,0,0,0,1.42.17c.36-.31.1-.71-.19-1A1.31,1.31,0,0,0,113.5,30.47Z"/><path class="cls-2" d="M82.73,57.45c-.87-.87-.33-1.36.47-1.78-.25-.31-.57-.47-.84-.09a2.88,2.88,0,0,1-1.26,1.18c-.43.18-.32.63-.15.89.34.48.39-.11.57-.22C81.92,57.19,82.31,57.9,82.73,57.45Z"/><path class="cls-2" d="M66.1,60.28c.13-.49.25-1,.38-1.47a5.54,5.54,0,0,0-.57.07c-.54.1-1.39.08-1.37.7C64.58,60.45,65.38,60.46,66.1,60.28Z"/><path class="cls-2" d="M95.49,51.38c-.57.33-.61-1.21-1.32-.4-.26.29-.66.84-.28,1.16a1.31,1.31,0,0,0,1.63,0C95.81,51.91,95.87,51.66,95.49,51.38Z"/><path class="cls-2" d="M83.09,27.21c-.78.22-1.66.08-2.36.63.21,1,1.21.15,1.56.73C82.65,28.17,83.57,28.1,83.09,27.21Z"/><path class="cls-3" d="M95.16,55c.09.69.7,1.43-.22,2,.32.57.85.34,1.32.33v0C96.63,56.18,96.39,55.35,95.16,55Z"/><path class="cls-3" d="M50,69.05c.09-.37-.14-.61-.36-.85-.76.2-1.15.63-.89,1.45.21.42.5.72,1,.61A.93.93,0,0,1,50,69.05Z"/><path class="cls-3" d="M102.43,24.55c.63.31.66,1,.88,1.53.51-.22,1,.49,1.59,0C103.66,26.14,104.21,23.7,102.43,24.55Z"/><path class="cls-3" d="M85.75,62.58c.8-.46.69-1,.2-1.63-1.07-.15-.72.95-1.18,1.34l.33.47A.69.69,0,0,1,85.75,62.58Z"/><path class="cls-3" d="M88.1,50.86,89,50.8c1.19-.12,1-.57.29-1.17C88.88,50,87.27,49.31,88.1,50.86Z"/><path class="cls-2" d="M93.85,10c.26.29.45.81.91.49.64-.44-.06-.84-.16-1.25S94,8.74,93.67,9C93.06,9.37,93.77,9.66,93.85,10Z"/><path class="cls-2" d="M94.05,3.2c-.3.3-.45.67-.18,1,.38.5.8,0,1.15-.08.5-.2.18-.54,0-.8A.58.58,0,0,0,94.05,3.2Z"/><path class="cls-3" d="M104.17,28.86l.89-.73a.18.18,0,0,1,.12-.12l-.06-.32c-.3-.29-.7-.86-1-.46A1.15,1.15,0,0,0,104.17,28.86Z"/><path class="cls-3" d="M90,37.54l.24.54c.67.47.66,0,.73-.48s-.19-1.13-.65-1.12C89.65,36.5,90.17,37.19,90,37.54Z"/><path class="cls-2" d="M102.61,51.44c.13-.14.27-.27.4-.4-.32-.34-.22-.81-.32-1.38-.47.29-1.17.54-1.16.75C101.55,51,102.15,51.18,102.61,51.44Z"/><path class="cls-3" d="M71,60.78c1.15-.91.2-1.14-.47-1.46C69.76,60.12,69.94,60.59,71,60.78Z"/><path class="cls-2" d="M69.66,34.58a5.32,5.32,0,0,0-.59.44c-.3.29-1-.12-1,.56s.61.35.92.4c.72.13.72-.48.78-1a1.59,1.59,0,0,0-.06-.43Z"/><path class="cls-2" d="M60.5,48c.06.43-.51.77-.22,1.21s.51.12.74-.07.51-.48.24-.86A.59.59,0,0,0,60.5,48Z"/><path class="cls-3" d="M48.71,52.13c.2-.89-.21-.93-.87-.66l-.71.24.06.22C47.66,52.25,48.11,52.79,48.71,52.13Z"/><path class="cls-2" d="M85.64,46.61c-.43.53-.63,1,0,1.49.11.09.49.07.52,0C86.47,47.44,85.74,47.15,85.64,46.61Z"/><path class="cls-2" d="M50.8,55.73c.3.29.53.07.74-.11s.7-.36.45-.77-.59-.19-.88,0A.7.7,0,0,0,50.8,55.73Z"/><path class="cls-3" d="M47.11,58c-.21.51,0,1,0,1.5.45-.28,1-.53.84-1.18S47.5,57.82,47.11,58Z"/><path class="cls-3" d="M50.34,38.4c.19.35.66.58.52,1.09.35.62.77.57,1.24.14l0-.14c-.3-.27-1-.15-.87-.86A.73.73,0,0,0,50.34,38.4Z"/><path class="cls-2" d="M110.51,20.39c.16,1.26.16,1.26,1.29,1.61Z"/><path class="cls-2" d="M92.67,1.55a.28.28,0,0,0-.13.47c.38.45.69-.05,1-.13s.35-.34.11-.55C93.26,1,93.06,1.75,92.67,1.55Z"/><path class="cls-2" d="M39.59,56.14c-.32-.29-.48-.75-1.27-1,.35.71.33,1.36,1.27,1Z"/><path class="cls-2" d="M96.42,50.5c-.23-.44-.42-.78-.7-.61s0,.36.18.46A2.11,2.11,0,0,0,96.42,50.5Z"/><path class="cls-2" d="M82.17,62c-.14.22-.46.35-.37.68,0,0,.19.09.2.08.12-.24.22-.48.33-.73Z"/><path class="cls-2" d="M93.91,44.59c-.08-.15-.16-.31-.23-.46-.16.15-.37.31-.2.54S93.78,44.71,93.91,44.59Z"/><path class="cls-2" d="M114.23,25.32c.07-.17.2-.34.18-.49a.17.17,0,0,0-.32,0c0,.15,0,.35.08.52Z"/><path class="cls-2" d="M112.66,18.69c0,.08-.06.19,0,.25a.19.19,0,0,0,.34,0c0-.05,0-.2-.06-.24S112.75,18.68,112.66,18.69Z"/><path class="cls-3" d="M102.8,3.7l-.34-.42c-.11.13-.27.28-.13.45S102.65,3.8,102.8,3.7Z"/><path class="cls-2" d="M110,23.07c.14.06.32.32.41.06s-.18-.24-.37-.24A1.16,1.16,0,0,1,110,23.07Z"/><path class="cls-2" d="M74.84,47.12l-.33-.21,0,.12.35.11Z"/><path class="cls-2" d="M114.17,25.31v.19c0-.06,0-.12,0-.18Z"/><path class="cls-3" d="M60.72,46.66l.05.22a1.24,1.24,0,0,1,.1-.2Z"/><path class="cls-2" d="M74.83,47.14l.13,0-.12-.06Z"/><path class="cls-2" d="M105.12,27.69l.06.32C105.28,27.88,105.54,27.72,105.12,27.69Z"/><path class="cls-3" d="M34.64,63.18l0-.14-.07.14Z"/><path class="cls-3" d="M64.34,48.73l0,.13.08-.12Z"/><path class="cls-3" d="M52.1,39.63l.41,0h0l-.39-.15Z"/><path class="cls-2" d="M54.21,68.66l.12,0-.12,0Z"/><path class="cls-3" d="M75,1.6c.19.38.29,1,.87.33C75.62,1.67,75.52,1,75,1.6Z"/><path class="cls-1" d="M67.77,30.8c-1.89.92-1.89.93-2.82-1.08,0-.11-.09-.24-.19-.49a2.34,2.34,0,0,0,3.16-.31c.49-.58.24-2-.66-2.78.32-.47.94.36,1-.09.15-1.62,1.21-1.66,2.4-1.61.34,0,.76,0,.86-.38s-.28-.83-.62-1.08-.7-.42-1-.05c-.21.21-.31.75-.71.32-.25-.26,0-.55.19-.87.46-.78.44-1.49-.8-1.5a4.94,4.94,0,0,1-1.27-.36c-.3-.08-.56-.62-.86-.23-.16.21,0,.66,0,1s.22.67.66.61,1.2-.36,1.34.4c.18.93-.83.76-1.3,1.1s-1,.22-1.22-.45c-.17-.42-.4-1-1.08-.65-.86.42,0,.76,0,1.15.09,1.58,1.92,2,2.07,3.54,0,.48.33.9-.2,1.32s-1,.72-1.46.37c-1.27-.94-1.87-.38-2.35.82-.14.34-.52.59-.4,1,.36.26.53-.08.74-.24.73-.61,1.11-.32,1.38.47s.7,1.73,1,2.62c.17.6.59.72,1.26.88-.38-.87-.75-1.64.5-2,.46-.14-.08-1.07.51-1.42Z"/><path class="cls-1" d="M77.48,29.3l.8-.52-1.09-1.11c.25-.46.51-.13.75-.06s.43.39.74.28a.56.56,0,0,0-.26-.78c-1.53-.6-1.31-2.56-2.63-3.31a.45.45,0,0,1-.18-.63c.17-.26.43-.17.66-.09s.54.21.82.32c0-.48,0-.91,0-1.33-.26-.09-.65.14-.77-.25a.64.64,0,0,1,.46-.82c1.44-.26.6-.86.23-1.39h0c-1,1-1.46,2.74-3.39,2.37h0c1,1.27,2.24,2.33,2.8,3.89.17.48.52,1,0,1.47C75.47,28.71,77,28.71,77.48,29.3Z"/><path class="cls-1" d="M76,26.86a.56.56,0,0,0-1-.36c-.3.8-.89.4-1.19.26-.53-.25.12-.73,0-1.12-1.74.89-1.75,1-.32,2.33.61.56,1.19,1.15,1.78,1.73.12-.35.39-.71.15-1.08C74.87,27.78,75.35,27.31,76,26.86Z"/><path class="cls-1" d="M69,32.83a1.61,1.61,0,0,0,2.09.12,2,2,0,0,0,.42-2.07.64.64,0,0,0-1-.26c-.56.55-.53,1.67-1.63,1.72Z"/><path class="cls-3" d="M76,26.86c-.64.45-1.12.92-.55,1.76.24.37,0,.73-.15,1.08v0l.94.71,1.25-1.15c-.49-.59-2-.59-1.14-2C76.22,27.17,76.1,27,76,26.86Z"/><path class="cls-1" d="M76.23,30.45l-.94-.71c-.55.86.65,1.41.39,2.29a3,3,0,0,0,0,1.1C76.6,32.37,76.12,31.36,76.23,30.45Z"/><path class="cls-1" d="M60.89,32.52a1.43,1.43,0,0,0,.84.75.63.63,0,0,0,.91-.43c.09-.22.24-.47,0-.64a.49.49,0,0,0-.83.2C61.56,32.91,61.2,32.41,60.89,32.52Z"/><path class="cls-1" d="M63.86,18l-.19.23c.6.54.1.9-.16,1.34a.56.56,0,0,0,.24.86c.37.13.45-.27.56-.51A1.42,1.42,0,0,0,63.86,18Z"/><path class="cls-1" d="M66,19c-.48.24-.72.46-.55.85,0,.09.28.19.34.15C66.18,19.82,66,19.45,66,19Z"/><path class="cls-1" d="M67.11,34.68a.7.7,0,0,0,.89-.47C67.57,34.11,67.46,34.49,67.11,34.68Z"/><path class="cls-1" d="M67.77,30.81a.48.48,0,0,0,.59-.18.32.32,0,0,0,0-.13l-.57.3Z"/><path class="cls-1" d="M63.61,32.25c0,.13,0,.26,0,.39h.14l-.15-.39Z"/><path class="cls-1" d="M65.78,16l-.2,0,.19.07Z"/><path class="cls-1" d="M63.62,32.25l0-.12,0,.12Z"/><path class="cls-1" d="M69.92,7.07a6.46,6.46,0,0,0,.79.78c.61.43.27.67-.13.92.27.62,1.66,1.47-.34,1.62a.29.29,0,0,0-.23.44A5.81,5.81,0,0,0,71,11.92c.21.17.41-.1.59-.28.49-.49.09-1.73.81-1.68,1.13.08-.16,1.44.65,1.9.45.26,1.38.37,1.21.85-.42,1.26.61,1.71,1.07,2.48.2.33.54.61.18,1-.92.22-.66,1.24-1.22,1.62A8.22,8.22,0,0,1,77,19.6h0c.63-.53.86-1,.07-1.65a1.13,1.13,0,0,1-.21-1.58c.53-.53,1-1.57.78-1.73-.87-.75-.89-2.18-2-2.6-1.28-.47-1.07-1.87-1.83-2.65-.07-.07-.4-.9.38-.72.41.09.69.22.61-.36s-.4-1.15-.69-.93c-1.43,1.07-2.43-.24-3.62-.46C70.3,6.89,70.1,7,69.92,7.07Z"/><path class="cls-1" d="M81.17,19.21a1.06,1.06,0,0,1,.42,1.17c-.71,1.69.32,2.5,1.55,3.24l1,0c.46,0,1-.11.85-.68-.13-.4.12-1.38-.92-1.08-.6.17-.86-.13-1.11-.63-.49-1-1.06-1.95-1.61-2.94C80.8,18.5,81,18.86,81.17,19.21Z"/><path class="cls-3" d="M85.61,3.54a1.39,1.39,0,0,0-2.55.52,2.66,2.66,0,0,0-.13,1.15c.16,1.09-.47.54-.88.45,0,.13,0,.26,0,.39.14.15.43.18.36.48.36.36.2,1.54,1.24.76.1-.72-.45-2,1.21-1.44.33.1.55-.32.6-.69-.24-.56-1.23.23-1.21-.61s.77-.74,1.29-.95A.67.67,0,0,0,85.61,3.54Z"/><path class="cls-1" d="M87.81,5.23l-.89,0c-.12.65-.69,1.49.75,1.34.69-.07.48.88,1,1.14.3.18.45.85.89.5s.07-.69-.32-.9C88.37,6.84,88.87,5.51,87.81,5.23Z"/><path class="cls-1" d="M83.6,7.29c-1,.78-.88-.4-1.24-.76-.25.41-1.22.67-.72,1.15a2.06,2.06,0,0,0,1.91.7C84.52,8.1,84,7.68,83.6,7.29Z"/><path class="cls-1" d="M85.61,3.54a.67.67,0,0,1-.12.06c-.52.21-1.27.24-1.29.95s1,0,1.21.61l.5-.35C85.6,4.44,86.21,3.85,85.61,3.54Z"/><path class="cls-3" d="M75.36,5.28c-.19-.6-.39-1.19-.56-1.79s-.39-.67-.86-.41A5.61,5.61,0,0,0,75.36,5.28Z"/><path class="cls-1" d="M84.66,10.77,85.84,10a1.6,1.6,0,0,0-1.43,0c-.26.16.11.47.23.71Z"/><path class="cls-1" d="M83,24.21c-.32,0-.71.08-.59.4.21.57.52,0,.78-.05Z"/><path class="cls-3" d="M78.49,18.87a.92.92,0,0,0,.05.37c0,.07.22.07.34.1a1.18,1.18,0,0,0,0-.42C78.82,18.76,78.68,18.74,78.49,18.87Z"/><path class="cls-1" d="M79.9,18.67l0,.11a1.81,1.81,0,0,0,.23,0s0-.07,0-.11Z"/><path class="cls-1" d="M84.64,10.76l-.21.34s.12,0,.12,0,.07-.23.11-.35Z"/><path class="cls-3" d="M73.73,4.74l.14.06-.14,0Z"/><path class="cls-1" d="M89.18,11.67l0-.12,0,.12Z"/><path class="cls-1" d="M74.07,52.36c.59,1.17,1.43,2.24,1.41,3.64.73-.44,1.87.06,2.32-1-.4-.86.83-1.57.23-2.46-.65-.16-1.7.21-1.32-1.2.19-.7-.81-.3-1-.74Z"/><path class="cls-1" d="M75.25,62c-.14.91-1.5.6-1.81,1.58a.72.72,0,0,0,.07.76c.22.27.67.35.78.17.47-.85,1.77-.86,2-1.95,0-.32.71-.62.13-1C76,61.34,75.63,61.62,75.25,62Z"/><path class="cls-3" d="M87.23,64.47c-.3-.36-.6-.73-.91-1.09-.31.39.13.8,0,1.35L85,64c-.83.11-1.27.46-.85,1.36.69.38,1.25,1.27,2.22.57C86.19,65.2,86.77,64.87,87.23,64.47Z"/><path class="cls-1" d="M77.08,65.52c.46.36,1,.71,1.53.21.26-.23.85-.46.42-.88a1.42,1.42,0,0,0-1.74-.32A.61.61,0,0,0,77.08,65.52Z"/><path class="cls-1" d="M85,64l1.28.69c.16-.55-.28-1,0-1.35l-.57-.8a.69.69,0,0,0-.65.18A.78.78,0,0,0,85,64Z"/><path class="cls-1" d="M78.7,55.86c0-.48.33-1.24-.7-.74Z"/><path class="cls-1" d="M82.26,66.08c.24.23.42.17.54,0a.43.43,0,0,0,0-.36,2,2,0,0,0-.51-.11Z"/><path class="cls-1" d="M71,58.34c0,.08-.13.17-.11.23s.14.08.21.12.13-.16.11-.23S71.1,58.38,71,58.34Z"/><path class="cls-1" d="M75.32,69.89l0-.38h-.13l.15.37Z"/><path class="cls-3" d="M69.13,69.61l-.09.21s.11,0,.12,0a1.89,1.89,0,0,0,.09-.21Z"/><path class="cls-2" d="M14.58,81.58c-.71-.27-.68-2-2-1a3,3,0,0,0,.93,1.64c.22.27.46.53.87.29S14.74,81.93,14.58,81.58Z"/><path class="cls-3" d="M49.3,47.17c-.61-.27-1.24-.51-1.84-.8s-1,.22-1.25.46c-.43.43.23.6.49.81,1,.76.76,1.45-.12,2.11a1.14,1.14,0,0,0-.1.19c.28.1.74-.07.68.51s.18.48.52.27c.11-.67.78-.84,1.14-1.29C49.34,48.77,50.17,48.14,49.3,47.17Z"/><path class="cls-1" d="M47.68,50.72c-.34.21-.57.18-.52-.27s-.4-.41-.68-.51c-.48.84.41,1.19.65,1.77l.71-.24C47.78,51.22,47.73,51,47.68,50.72Z"/><path class="cls-3" d="M30.06,74.47c.3.28.49.7,1,.76.32-.26.62-.61,1-.13,1.33,1.2,1,3.55,2.93,4.32.46-.21.28-.65.17-.89-.31-.71.06-.88.62-1.13.4-.18,1.19-.18,1-1-.15-.56-.39-1-1.1-.94s-.86-.62-1-1.19c-.59-.13-1.08-.36-.62-1.05s-.24-.61-.37-.91l-.07,0C32.68,73.47,31,73.39,30.06,74.47Z"/><path class="cls-1" d="M30.06,74.47c1-1.08,2.62-1,3.54-2.15-.51-.68-1.05-.12-1.66,0a3.86,3.86,0,0,0,.52-.77A1.59,1.59,0,0,0,31.89,70c-.4-.39-.77.2-1.07.46a14.3,14.3,0,0,0-1.19,1.27c-.37.41-1.27.83.07,1.17.46.12.59.48.24.87s-.41.53-.17.88Z"/><path class="cls-1" d="M33.67,72.3c.13.3.74.35.37.91s0,.92.62,1.05c.37-.72,1.3-.3,1.84-1.07C35.1,74,35.32,70.85,33.67,72.3Z"/><path class="cls-1" d="M38.88,77c.46.21.18,1.18,1,1,.1,0,.26-.22.24-.27C39.9,77.19,39.61,76.75,38.88,77Z"/><path class="cls-1" d="M38.66,76c.15.19.29.27.49.14a.37.37,0,0,0,.16-.48.32.32,0,0,0-.43-.22C38.6,75.58,38.63,75.82,38.66,76Z"/><path class="cls-1" d="M38.57,71.31a1,1,0,0,0-.82-.6.46.46,0,0,0-.13.33C37.78,71.39,38.07,71.49,38.57,71.31Z"/><path class="cls-1" d="M32.06,75.1c-.42-.48-.72-.13-1,.13C31.46,76,31.75,75.47,32.06,75.1Z"/><path class="cls-2" d="M52.12,39.49l.39.15a.69.69,0,0,1,.84.08c.63-.43.69-.78-.1-1.11a3.67,3.67,0,0,0-2,0C51.13,39.34,51.82,39.22,52.12,39.49Z"/><path class="cls-2" d="M54.52,30.75c-.12,0-.28-.08-.25.14,0,0,.15,0,.23.07A1.49,1.49,0,0,0,54.52,30.75Z"/><path class="cls-2" d="M77,19.6a8.22,8.22,0,0,0-2.7-1.77c.56-.38.3-1.4,1.22-1.62-.71-.62-1.16-1.46-1.9-2.1-.4-.34-1.28-1.28-.56-2.25-.81-.46.48-1.82-.65-1.9-.72-.05-.32,1.19-.81,1.68-.18.18-.38.45-.59.28A5.81,5.81,0,0,1,70,10.83a.29.29,0,0,1,.23-.44c2-.15.61-1,.34-1.62l-.9-.16c-.71,1.23-.87,2.28.57,3.22.86.55.8,1.8,1.32,2.69s.94,1.56,2.11,1.37c.23,0,.67-.09.68.33a.62.62,0,0,1-.58.58c-2,.2-.75,1.26-.32,1.67.82.77,1.12,1.19-.22,1.58-.41.12-1,.41-.07.77.53.21,0,.86.39,1.15C75.49,22.34,76,20.64,77,19.6Z"/><path class="cls-2" d="M70.94,15a1.54,1.54,0,0,0-.66,1.74c.12.4.36,1.08,1,.83s.5-.8.1-1.19S71.18,15.6,70.94,15Z"/><path class="cls-3" d="M46.93,44.9c-.32,0-.56-.06-.66,0s-.43.54-.14.88a.28.28,0,0,0,.48,0A5.87,5.87,0,0,0,46.93,44.9Z"/><path class="cls-3" d="M75.25,2.87l0,.12.16-.15Z"/><path class="cls-1" d="M50,69.05a.93.93,0,0,0-.22,1.21C50.32,70,50.31,69.53,50,69.05Z"/><path class="cls-1" d="M58.11,71.6l-.23.32c.33.07.21-.17.22-.32Z"/><path class="cls-1" d="M98.54,39.18c.13.32.42.6.21,1,.28.44.33,1,.81,1.32s.6.91,1.08.71.36-.83.32-1.3c-.45-.4-1.61-.51-.6-1.52.18-.19.07-.75-.23-.5C99.6,39.35,99,38.59,98.54,39.18Z"/><path class="cls-1" d="M105.36,37.55c-.22-.18-.42-.17-.55,0a.39.39,0,0,0,0,.36c.19.17.44.23.62,0C105.45,37.8,105.37,37.63,105.36,37.55Z"/><path class="cls-1" d="M105.94,43.34l-.32-.22c-.07.32.17.2.32.22Z"/><path class="cls-1" d="M105.49,39.93l.21-.34-.13,0c0,.12-.08.24-.11.36Z"/><path class="cls-1" d="M94.1,61c-.36-.21-.61-.76-1.17-.37v.1c.25.69.57,1.18,1.34.54C94.21,61.14,94.16,61.05,94.1,61Z"/><path class="cls-1" d="M99,6.44c.46.58.13,1.23.14,1.84s0,1.12.67,1.1.5-.57.47-1.09a6,6,0,0,1,.11-2.8c.17-.4,0-.43-.22-.39s-.63-.67-1-.16c-.12.16-.46.42,0,.67.73.39,0,.56-.17.81Z"/><path class="cls-1" d="M99,6.42c-.63,0-1.23.34-1.88.18.74,1,1.34.66,1.88-.16Z"/><path class="cls-1" d="M101.44,5.33s0,.08,0,.09l.12,0-.08-.16Z"/><polygon class="cls-1" points="97.36 5.67 97.44 5.63 97.39 5.58 97.36 5.67"/><path class="cls-1" d="M78,52.5c1.14-.33,2.16.48,3.31.32a1.53,1.53,0,0,0,.89-.32,7.2,7.2,0,0,0-1.29-3c-1.42.21-1.32,1.26-1.14,2.26C79.13,52,77.74,50.25,78,52.5Z"/><path class="cls-1" d="M82.7,52.21c.41.47,0,.84-.14,1.25.8,1,1.33-.17,2-.27.28,0,.18-.49,0-.55C83.91,52.46,83.53,51.32,82.7,52.21Z"/><path class="cls-1" d="M76,48.14c-.35.29-.94.42-.58,1.12s.93.44,1.36.72l.55-1.2C77,48.33,76.05,49.24,76,48.14Z"/><path class="cls-3" d="M90.41,50.92c-.19.15-.34.32-.11.54,0,0,.15,0,.23-.05l-.13-.5Z"/><path class="cls-3" d="M90.4,50.91l.06-.13,0,.14Z"/><path class="cls-1" d="M57.19,40.14c.25.42.18,1,.81,1.19.14-.31.78-.43.47-.86S57.79,39.56,57.19,40.14Z"/><path class="cls-1" d="M92.93,60.59c-1.17-.06-1.66.67-1.84,1.76l1.83-1.66Z"/><path class="cls-1" d="M98.82,23.67H99l-.17,0Z"/><path class="cls-1" d="M109.29,20.09l-.19,0,.18.07Z"/><path class="cls-1" d="M97.33,51c.28.21.34.78.83.61.28-.09.15-.44.06-.63-.28-.62-.59-.14-.89,0Z"/><path class="cls-1" d="M79.6,30.41c-.32-.44-.28-1.4-1.26-.89a1.14,1.14,0,0,0-.58,1.1c0,.2,0,.46.25.44.59,0,1.24,0,1.59-.66Z"/><path class="cls-1" d="M69.07,66.89a.85.85,0,0,0,.26-.11c-.08-.12-.12-.33-.34-.22A1.45,1.45,0,0,0,69.07,66.89Z"/><path class="cls-3" d="M73,11.86c-.72,1,.16,1.91.56,2.25.74.64,1.19,1.48,1.9,2.1.36-.41,0-.69-.18-1-.46-.77-1.49-1.22-1.07-2.48C74.39,12.23,73.46,12.12,73,11.86Z"/></g></g></svg>