<svg width="204" height="25" viewBox="0 0 204 25" fill="none" xmlns="http://www.w3.org/2000/svg">
<path d="M8.94539 13.5388C8.94539 12.9783 8.94539 12.4177 8.94539 11.8571C9.00991 8.21965 9.07777 4.58214 9.14897 0.944641C9.14897 0.17181 9.29582 0.0424554 10.0801 0.0358216C10.7476 0.0358216 11.4451 0.035816 12.1259 0.00928098C12.5397 -0.0139371 12.6632 0.135325 12.6632 0.530032C12.6632 2.93476 12.6632 5.3395 12.6832 7.74755C12.6832 11.9268 12.6832 16.1061 12.6832 20.2853C12.6832 20.4843 12.6832 20.6867 12.6832 20.8857C12.6832 21.2605 12.4863 21.4661 12.0958 21.4296C11.355 21.36 10.6174 21.2804 9.87985 21.2074C9.63288 21.1809 9.38593 21.1477 9.13896 21.1378C8.85936 21.1448 8.58458 21.0644 8.35343 20.9079C8.12229 20.7514 7.94644 20.5266 7.85073 20.2654C7.14655 18.607 6.41569 16.9486 5.69482 15.2702L3.9594 11.2502C3.90772 11.1144 3.81429 10.9984 3.69242 10.9185C3.69242 11.0821 3.69242 11.2457 3.69242 11.4094C3.69242 14.3393 3.69242 17.2692 3.69242 20.1991C3.69242 21.4628 3.69242 21.4728 2.44425 21.4131C1.81016 21.3832 1.1794 21.2937 0.545302 21.2638C0.124797 21.2439 -0.0153734 21.0515 0.00131335 20.6469C0.084747 18.3051 0.184872 15.9634 0.214908 13.6217C0.264968 9.69123 0.264955 5.75742 0.28498 1.82693C0.28498 1.44217 0.28498 1.0541 0.28498 0.669345C0.28498 0.284588 0.491893 0.00597099 0.909061 0.00597099C1.52838 -0.011871 2.1482 0.010282 2.76462 0.0723024C2.94484 0.0955205 3.15843 0.357551 3.2452 0.556563C5.07407 4.83975 6.89293 9.12626 8.70177 13.4161C8.72654 13.4664 8.75441 13.5151 8.78521 13.562L8.94539 13.5388Z" transform="translate(178.237 3.29761)" fill="white"/>
<path d="M3.82219 0.000593675C3.82219 0.614215 3.82219 1.15154 3.82219 1.69219C3.82219 3.95761 3.82219 6.22636 3.82219 8.49178C3.82219 8.92629 3.939 9.09877 4.39955 9.08218C5.20385 9.05565 6.01483 9.08218 6.81913 9.08218C7.22962 9.08218 7.39649 8.97605 7.4065 8.54154C7.44321 6.55142 7.50328 4.53475 7.56336 2.53136C7.58004 1.90115 7.62676 1.26763 7.64345 0.637428C7.64345 0.239403 7.84703 0.0204941 8.2375 0.0204941C9.2387 0.0204941 10.2399 0.0569773 11.2611 0.0801954C11.5682 0.0801954 11.5949 0.305741 11.5949 0.534605C11.5949 1.261 11.5782 1.98408 11.5582 2.71047C11.4069 8.72286 11.2545 14.7352 11.1009 20.7476C11.0809 21.537 10.9775 21.6399 10.1698 21.6432C9.36219 21.6465 8.52451 21.6167 7.70352 21.6432C7.23295 21.6631 7.10614 21.4773 7.11281 21.0561C7.14619 18.8205 7.17177 16.5849 7.18957 14.3494C7.18957 13.1221 7.18957 13.1188 5.95475 13.1487C5.39742 13.1487 4.83674 13.1951 4.28608 13.1885C3.88226 13.1885 3.74876 13.3477 3.73875 13.7358C3.69537 15.9547 3.63196 18.1771 3.57523 20.396C3.53518 21.8953 3.52516 21.6233 2.30036 21.7228C1.73301 21.7626 1.15565 21.6764 0.584968 21.673C0.114402 21.673 -0.0124168 21.4409 0.000932612 21.0097C0.0409807 19.6232 0.0509899 18.2334 0.071014 16.847C0.122187 12.807 0.171135 8.76709 0.217858 4.72714C0.217858 3.3241 0.237882 1.92106 0.217858 0.518025C0.217858 0.103416 0.348016 -0.00935694 0.751835 0.000593675C1.73301 0.017178 2.75424 0.000593675 3.82219 0.000593675Z" transform="translate(118.112 3.0542)" fill="white"/>
<path d="M2.74282 0C3.83414 0.0762881 4.92878 0.179112 6.0301 0.228865C7.97577 0.315104 9.17388 1.42626 10.0349 3.02831C10.8794 4.62902 11.3473 6.39939 11.4032 8.20595C11.5414 10.5787 11.3232 12.9587 10.7558 15.2676C10.2585 17.1681 9.45756 18.9161 7.86898 20.213C7.06856 20.8503 6.12519 21.2861 5.11901 21.4834C3.82846 21.759 2.50008 21.8139 1.19095 21.6459C0.523481 21.5597 0.35328 21.3142 0.276521 20.6807C0.269977 20.5581 0.269977 20.4352 0.276521 20.3125C0.23981 16.936 0.216447 13.5561 0.169724 10.1795C0.129676 7.37341 0.056254 4.56733 0.00285647 1.76126C-0.00614095 1.46888 0.00612303 1.17623 0.0395624 0.885609C0.129671 0.182432 0.266508 0.0630202 0.984037 0.00995021H1.21765L2.74282 0ZM3.61053 10.405H3.6873C3.6873 12.3155 3.6873 14.225 3.6873 16.1333C3.6873 16.7602 3.98431 17.0487 4.61507 17.0985C4.87898 17.1103 5.14137 17.0528 5.37575 16.9317C5.61013 16.8105 5.80821 16.6301 5.95001 16.4086C7.00227 15.0476 7.6487 13.4202 7.81559 11.7119C8.12023 9.6752 7.82825 7.59443 6.97457 5.7183C6.78958 5.27588 6.50511 4.88143 6.14297 4.56521C5.78083 4.24899 5.35065 4.0194 4.88539 3.89402C3.86417 3.63198 3.62723 3.80778 3.62389 4.85923C3.6072 6.71004 3.61053 8.55753 3.61053 10.405V10.405Z" transform="translate(192.557 2.98517)" fill="white"/>
<path d="M5.78425 0.148011C6.7454 0.148011 7.70656 0.148011 8.66772 0.148011C9.27845 0.148011 9.44198 0.270736 9.5688 0.864456C10.1428 3.51795 10.7402 6.17145 11.2575 8.84817C11.8182 11.7471 12.3054 14.6593 12.8127 17.5682C12.9695 18.4605 13.1131 19.3593 13.2165 20.2582C13.2766 20.7889 13.1531 20.8917 12.6191 20.8917C11.6179 20.8917 10.6167 20.8917 9.63888 20.8917C9.57344 20.9012 9.50673 20.8966 9.44321 20.8784C9.37969 20.8601 9.32083 20.8286 9.27058 20.7859C9.22032 20.7431 9.17984 20.6902 9.15184 20.6307C9.12384 20.5712 9.10898 20.5063 9.10824 20.4406C8.99143 19.555 8.86462 18.6727 8.75782 17.7871C8.6577 16.9612 8.56426 16.1287 8.4875 15.3094C8.48914 15.2512 8.4779 15.1933 8.45456 15.1398C8.43122 15.0864 8.39636 15.0387 8.35243 15.0001C8.3085 14.9615 8.25658 14.9329 8.20034 14.9165C8.1441 14.9 8.08491 14.896 8.02694 14.9048C7.02574 14.9446 6.04456 14.991 5.05671 15.0773C4.96103 15.1081 4.87415 15.1612 4.80332 15.2321C4.7325 15.3031 4.67978 15.3899 4.64955 15.4852C4.44264 16.3841 4.26576 17.2896 4.10891 18.1951C3.9654 19.0276 3.85192 19.8536 3.73511 20.706C3.69507 20.9979 3.53488 21.1704 3.25121 21.1637C2.37015 21.1372 1.48241 21.1173 0.608023 21.0277C0.0606989 20.9713 -0.0594455 20.7392 0.0239882 20.1886C0.377747 18.142 0.748199 16.1022 1.09528 14.0557C1.5792 11.2065 2.03308 8.35064 2.52367 5.50145C2.81068 3.84301 3.14775 2.18458 3.44144 0.526139C3.44487 0.449479 3.46438 0.374379 3.49873 0.305655C3.53307 0.236932 3.58149 0.1761 3.64088 0.127068C3.70028 0.0780351 3.76933 0.0418798 3.8436 0.0209253C3.91788 -2.92128e-05 3.99574 -0.00532022 4.07219 0.00538757H5.79092L5.78425 0.148011ZM6.30821 3.21612L6.13467 3.26919C6.06255 3.48664 6.00349 3.70815 5.95779 3.93256C5.7709 5.14875 5.59068 6.36494 5.41714 7.58112C5.26028 8.70886 5.10343 9.83659 4.97995 10.9676C4.95659 11.1733 5.05004 11.5315 5.18353 11.5846C5.95624 11.9166 6.82331 11.9613 7.62646 11.7106C7.72053 11.6608 7.80043 11.5881 7.85876 11.4994C7.9171 11.4107 7.95198 11.3088 7.96019 11.2032C7.52968 8.68896 7.06579 6.18141 6.59522 3.67717C6.56852 3.50469 6.40833 3.36538 6.30821 3.21612Z" transform="translate(130.504 3.55359)" fill="white"/>
<path d="M11.1714 20.8877C10.6908 20.8877 10.2103 20.8877 9.72968 20.8877C9.65362 20.9043 9.57478 20.9035 9.49907 20.8854C9.42337 20.8673 9.3528 20.8323 9.29269 20.7831C9.23258 20.7339 9.18451 20.6718 9.1521 20.6014C9.11969 20.5311 9.10378 20.4543 9.1056 20.3769C8.96543 19.216 8.81525 18.0551 8.67508 16.8975C8.61168 16.3768 8.53825 15.8593 8.50154 15.3386C8.50579 15.2765 8.49592 15.2142 8.47267 15.1565C8.44942 15.0987 8.41338 15.0468 8.36722 15.0048C8.32106 14.9627 8.26598 14.9315 8.20604 14.9135C8.14609 14.8955 8.08283 14.8912 8.02096 14.9008C7.01975 14.9439 6.03857 14.987 5.05071 15.0766C4.90053 15.0766 4.6903 15.3286 4.65025 15.4978C4.44667 16.3668 4.27646 17.2391 4.12628 18.1181C3.9761 18.9971 3.86263 19.8197 3.74582 20.6754C3.70243 20.9872 3.54891 21.173 3.24188 21.163C2.36082 21.1332 1.47309 21.1133 0.598706 21.0237C0.0580566 20.9673 -0.0687665 20.7318 0.0313538 20.1746C0.365088 18.1845 0.728871 16.1744 1.06594 14.1744C1.55653 11.2787 2.03042 8.37978 2.52768 5.48415C2.81469 3.82571 3.15177 2.16728 3.44879 0.508841C3.45094 0.435431 3.46859 0.363288 3.50059 0.297093C3.53259 0.230897 3.57824 0.172135 3.63456 0.124599C3.69089 0.0770622 3.75663 0.0418169 3.82754 0.0211588C3.89845 0.000500816 3.97296 -0.0051123 4.04619 0.00467975C5.65924 0.0577497 7.27117 0.116347 8.882 0.180474C9.34589 0.197058 9.50608 0.512158 9.58951 0.903549C10 2.76431 10.4572 4.61513 10.8043 6.48916C11.632 10.9338 12.4062 15.3883 13.2005 19.8363C13.2159 19.9274 13.2259 20.0193 13.2305 20.1116C13.2739 20.8313 13.1872 20.9242 12.473 20.9209H11.8055H11.138L11.1714 20.8877ZM6.30556 3.22205L6.1654 3.26185C6.08552 3.47148 6.02082 3.68652 5.97182 3.90533C5.78048 5.13699 5.59806 6.36865 5.42451 7.60032C5.26766 8.71147 5.12749 9.82594 4.98398 10.9404C4.95061 11.1958 4.86049 11.4976 5.2009 11.6038C5.96895 11.9033 6.8154 11.9406 7.60713 11.7099C7.70739 11.6589 7.793 11.5835 7.85603 11.4907C7.91905 11.3979 7.95743 11.2907 7.96757 11.1792C7.54039 8.68162 7.07984 6.20391 6.61261 3.69967C6.58257 3.53383 6.41235 3.38458 6.30556 3.22205V3.22205Z" transform="translate(164.018 3.54431)" fill="white"/>
<path d="M0.224654 10.9477C0.278052 7.69496 0.333674 4.44221 0.391521 1.18946C0.391521 0.343658 0.585086 0.161231 1.42276 0.101527C2.09023 0.051774 2.78439 0.0385106 3.46521 0.00202496C3.92243 -0.02451 4.13268 0.210979 4.13268 0.635539C4.13268 0.834551 4.13268 1.03689 4.13268 1.2359C4.13268 6.32177 4.13268 11.4076 4.13268 16.4935C4.13268 17.6146 4.13268 17.6146 5.27072 17.6013C6.07835 17.6013 6.88599 17.6013 7.69029 17.5781C7.77094 17.5631 7.854 17.5667 7.93301 17.5888C8.01201 17.6108 8.08486 17.6506 8.14587 17.7052C8.20688 17.7597 8.25442 17.8275 8.2848 17.9032C8.31518 17.979 8.32758 18.0607 8.32105 18.142C8.36777 19.0807 8.3978 20.0193 8.44453 20.958C8.46455 21.3594 8.29101 21.5517 7.88051 21.5716C7.0128 21.6114 6.14844 21.7076 5.28073 21.7109C3.839 21.7109 2.39726 21.6612 0.942181 21.628C0.0911583 21.6081 -0.0123018 21.5053 0.00104753 20.6496C0.054445 17.4123 0.111183 14.175 0.171255 10.9378L0.224654 10.9477Z" transform="translate(144.714 3.0528)" fill="white"/>
<path d="M0.201313 10.9556C0.254711 7.70288 0.310333 4.45014 0.36818 1.1974C0.36818 0.335009 0.571759 0.149259 1.43279 0.092872C2.10026 0.0464358 2.76773 0.0132675 3.4352 0C3.93914 0 4.10267 0.149259 4.11935 0.663375C4.11935 0.862387 4.11935 1.06472 4.11935 1.26373C4.11935 6.33633 4.11935 11.4089 4.11935 16.4815C4.11935 17.6192 4.11935 17.6192 5.24404 17.606C6.05167 17.606 6.85931 17.606 7.66361 17.5827C7.74798 17.5673 7.83483 17.5716 7.91721 17.5954C7.9996 17.6192 8.07525 17.6617 8.13814 17.7197C8.20103 17.7777 8.2494 17.8495 8.27942 17.9294C8.30945 18.0093 8.32028 18.095 8.31106 18.1798C8.35444 19.1019 8.38781 20.0273 8.4312 20.9494C8.45122 21.3408 8.30439 21.5564 7.88055 21.5763C6.99949 21.6161 6.11843 21.7156 5.23738 21.7156C3.80899 21.7156 2.38394 21.6658 0.955556 21.6326C0.0878466 21.6127 -0.0122791 21.5132 0.00107027 20.6674C0.0544678 17.4302 0.111206 14.1929 0.171278 10.9556H0.201313Z" transform="translate(154.609 3.05811)" fill="white"/>
<path d="M4.04623 10.8717C4.04623 14.2461 4.04623 17.6216 4.04623 20.9981C4.04623 21.6217 4.01953 21.6615 3.37876 21.6383C2.48435 21.5952 1.58661 21.5388 0.708885 21.436C0.0614401 21.363 -0.0119799 21.2502 0.00136952 20.6001C0.110389 14.0371 0.221634 7.47305 0.335104 0.90785C0.335104 0.277644 0.411865 0.178133 1.04596 0.125063C1.89365 0.0554083 2.748 0.052093 3.59903 0.00233995C4.04957 -0.024195 4.18974 0.17482 4.1864 0.606013C4.15303 3.28605 4.13634 5.9694 4.11631 8.64943C4.11631 9.38909 4.11631 10.1288 4.11631 10.8684L4.04623 10.8717Z" transform="translate(105.46 3.06573)" fill="white"/>
<path d="M0 9.48599C1.27123e-05 7.14437 0.783048 4.86917 2.226 3.01809C5.39314 -1.00528 12.0144 -1.26731 14.9413 3.82408C15.9415 5.59445 16.4365 7.60256 16.373 9.63193C16.3917 11.4519 16.0866 13.2609 15.4719 14.9754C14.4707 17.6289 12.7653 19.619 9.88521 20.2824C6.21413 21.1315 2.67655 19.7915 1.0546 15.8378C0.29035 13.9737 0.0500602 12.0168 0 9.48599ZM3.67108 10.0034C3.64134 11.6328 4.19486 13.2197 5.23295 14.4812C6.25418 15.672 7.53906 16.2425 9.13097 15.9207C10.4659 15.6487 11.3737 14.7797 12.0245 13.6387C12.9789 11.9604 13.0757 10.1626 12.6919 8.31181C12.5002 7.11384 11.9741 5.99337 11.1734 5.07786C9.64492 3.43933 6.88827 3.59191 5.29302 5.38302C4.13163 6.68987 3.70445 8.25211 3.66774 10.0034H3.67108Z" transform="translate(19.9746 4.30908)" fill="white"/>
<path d="M3.38745 13.3974C3.36105 13.6054 3.34545 13.8146 3.34072 14.0243C3.38967 15.8729 3.44307 17.7215 3.50092 19.5701C3.52094 20.2135 3.46754 20.2931 2.83345 20.2699C2.10257 20.2401 1.37503 20.1737 0.64749 20.1173C0.180262 20.0809 -0.00329272 19.8188 4.46277e-05 19.3578C0.0267434 16.5053 0.0267409 13.6494 0.0601144 10.7969C0.0934878 7.94442 0.136875 5.17484 0.196947 2.36545C0.217671 1.75567 0.274508 1.14762 0.367155 0.544483C0.377465 0.39256 0.447089 0.250653 0.561185 0.149031C0.67528 0.0474086 0.824811 -0.00588473 0.977884 0.000516598C2.77671 0.0303685 4.58222 -0.02602 6.37103 0.123239C7.87951 0.24928 9.26451 0.829738 10.0421 2.24273C10.3456 2.77185 10.5343 3.35824 10.5961 3.96418C10.8118 5.9589 10.4089 7.97146 9.44138 9.73222C8.91174 10.6584 8.20283 11.4712 7.35554 12.1237C7.08522 12.3326 7.06854 12.5051 7.21538 12.8202C8.32004 15.142 9.398 17.4638 10.486 19.8056C10.6295 20.1107 10.536 20.2931 10.1923 20.3031C9.22779 20.3329 8.25997 20.3727 7.29547 20.3562C7.14863 20.3562 6.96174 20.114 6.87164 19.9416C6.25756 18.6745 5.69021 17.3842 5.06613 16.1205C4.66565 15.3145 4.19842 14.5417 3.75456 13.7589C3.66991 13.6298 3.57623 13.5068 3.47422 13.3907L3.38745 13.3974ZM3.72118 6.29925H3.67112C3.67112 7.20144 3.67112 8.10032 3.67112 9.00251C3.65925 9.07795 3.66432 9.15506 3.68597 9.22832C3.70763 9.30158 3.74532 9.36917 3.79637 9.42624C3.84741 9.48331 3.91053 9.52845 3.9812 9.55841C4.05186 9.58837 4.12833 9.60242 4.2051 9.59955C5.29641 9.72227 5.9572 9.36736 6.41442 8.36567C6.8924 7.28266 7.08865 6.09756 6.9851 4.91943C6.87163 3.31075 5.7603 2.56115 4.23514 2.95917C4.15914 2.96701 4.08546 2.98976 4.01837 3.0261C3.95129 3.06244 3.89212 3.11165 3.84432 3.17089C3.79651 3.23013 3.76101 3.2982 3.73987 3.37118C3.71873 3.44415 3.71238 3.52057 3.72118 3.596C3.74454 4.49488 3.73453 5.39707 3.73453 6.30257L3.72118 6.29925Z" transform="translate(37.7363 4.41113)" fill="white"/>
<path d="M2.62315 0C3.64438 0.0729712 4.6656 0.16916 5.69017 0.21228C7.5424 0.291885 8.69377 1.34666 9.50141 2.86578C10.2955 4.38057 10.7348 6.05419 10.7863 7.76148C10.9141 9.9904 10.7094 12.2258 10.1789 14.3952C9.71167 16.193 8.95743 17.8547 7.46564 19.0753C6.71087 19.6801 5.82001 20.0944 4.86917 20.2827C3.63715 20.549 2.3681 20.6017 1.118 20.4386C0.51728 20.3623 0.353754 20.1434 0.276995 19.553C0.263756 19.4229 0.258188 19.2922 0.260312 19.1616C0.226939 15.9575 0.203578 12.7501 0.156856 9.54264C0.120145 6.91899 0.0500602 4.29866 0 1.67502C0 1.34333 0.0300275 1.03487 0.0433769 0.716446C0.0376831 0.621054 0.0528012 0.525564 0.0876807 0.436514C0.12256 0.347463 0.176385 0.266952 0.245473 0.200492C0.314561 0.134033 0.397282 0.0831933 0.487973 0.0514516C0.578663 0.0197099 0.675182 0.00781729 0.770926 0.0165854C1.385 0.0165854 2.0024 0.0165854 2.61647 0.0165854L2.62315 0ZM7.50569 9.80135C7.4623 9.24744 7.44228 8.68026 7.36886 8.11971C7.20867 6.91568 6.935 5.74814 6.19077 4.74644C5.94188 4.3938 5.61113 4.10597 5.22654 3.90735C4.84195 3.70873 4.41486 3.60517 3.98145 3.60544C3.82459 3.60544 3.61767 3.78787 3.51421 3.93713C3.43992 4.09543 3.41105 4.27104 3.43078 4.44461C3.4508 8.08211 3.47417 11.7196 3.50087 15.3571C3.49098 15.5258 3.54253 15.6924 3.64611 15.8264C3.74968 15.9604 3.89834 16.0528 4.06488 16.0868C4.66227 16.2659 5.16287 16.12 5.6301 15.5064C6.91831 13.8479 7.43894 11.8976 7.50569 9.80135V9.80135Z" transform="translate(49.71 4.1629)" fill="white"/>
<path d="M0.163527 10.2181C0.107904 7.34345 0.0533975 4.46883 0 1.59421C0.000897022 1.26155 0.0220731 0.929257 0.0634104 0.599147C0.0642921 0.451055 0.124091 0.309327 0.229768 0.204919C0.335446 0.100512 0.478414 0.0419122 0.627422 0.0419148C1.02135 0.00772108 1.41683 -0.00556873 1.81218 0.00210885C3.2172 0.0684463 4.62222 0.12815 6.0239 0.240924C7.69258 0.376916 8.72714 1.44164 9.47471 2.82146C10.2856 4.34404 10.7333 6.03162 10.783 7.75364C10.9127 9.99612 10.7057 12.2453 10.1689 14.4272C9.70165 16.2084 8.95074 17.8535 7.4723 19.0708C6.53907 19.8328 5.39514 20.2955 4.1917 20.3976C3.17265 20.4833 2.14858 20.4932 1.12802 20.4274C0.510615 20.3942 0.343749 20.1322 0.273665 19.5153C0.267101 19.3993 0.267101 19.283 0.273665 19.167C0.273665 16.1796 0.273665 13.1944 0.273665 10.2114L0.163527 10.2181ZM3.4241 9.86317H3.49753C3.49753 11.6521 3.49753 13.4421 3.49753 15.2332C3.49753 15.8302 3.77118 16.1022 4.36523 16.1553C4.61555 16.1704 4.86535 16.1183 5.08847 16.0045C5.31159 15.8908 5.49983 15.7194 5.63344 15.5085C6.71173 14.1009 7.34272 12.4055 7.44562 10.6393C7.58245 8.84489 7.40889 7.06373 6.59792 5.40861C6.42493 4.99856 6.16197 4.6321 5.82823 4.33599C5.4945 4.03988 5.09842 3.8216 4.66894 3.6971C3.64771 3.4218 3.42744 3.5777 3.42744 4.62584C3.42076 6.37051 3.41855 8.11739 3.42078 9.86649L3.4241 9.86317Z" transform="translate(88.4268 4.16412)" fill="white"/>
<path d="M3.2313 12.2344C3.2313 13.1531 3.2313 13.9359 3.2313 14.7187C3.27135 16.4236 3.31807 18.1251 3.38481 19.83C3.4015 20.2513 3.25466 20.364 2.85752 20.3275C2.0432 20.2501 1.22667 20.1893 0.407907 20.1451C0.117558 20.1451 0.0341259 20.0058 0.0341259 19.7371C0.0341259 18.9345 -0.00592431 18.1351 0.000750374 17.3324C0.0341238 11.9259 0.0719458 6.5205 0.114219 1.11621C0.113831 0.927282 0.129465 0.73866 0.160947 0.552341C0.172016 0.419685 0.235416 0.296762 0.337326 0.21039C0.439236 0.124018 0.571377 0.0812079 0.704925 0.0912964C1.53926 0.0713952 2.3736 0.0448588 3.20793 0.00173945C3.60842 -0.0181618 3.74192 0.131099 3.73858 0.532441C3.71856 2.54247 3.73857 4.5558 3.71855 6.56583C3.71855 6.7184 3.71855 6.8743 3.71855 7.02688L3.82534 7.06336C4.0356 6.70845 4.26588 6.36682 4.4461 5.99865C5.24483 4.36674 6.03244 2.73042 6.80893 1.08968C7.18271 0.296946 7.3329 0.167585 8.20728 0.210704C8.87475 0.243873 9.54222 0.31021 10.2097 0.386498C10.4733 0.41635 10.6869 0.499274 10.5034 0.870763C9.79919 2.30365 9.10169 3.73986 8.4409 5.1827C7.81681 6.5592 7.23278 7.95228 6.66543 9.352C6.56939 9.61789 6.56939 9.9087 6.66543 10.1746C7.91582 13.3322 9.18289 16.4844 10.4667 19.631C10.6769 20.1484 10.6035 20.2944 10.0462 20.2944C9.15175 20.2944 8.25734 20.2944 7.37628 20.2944C6.74219 20.2944 6.70882 20.228 6.45851 19.631C5.45731 17.2594 4.4561 14.9011 3.43821 12.5362C3.39483 12.4864 3.34143 12.4201 3.2313 12.2344Z" transform="translate(10.252 4.37341)" fill="white"/>
<path d="M0.0500683 9.82126C0.116815 6.87919 0.176883 3.93712 0.253641 0.995057C0.277003 0.152571 0.467236 0 1.3216 0C3.324 0 5.3175 0 7.30211 0C7.8461 0 7.98628 0.102818 8.02299 0.663369C8.07639 1.51912 8.09641 2.3782 8.10308 3.23727C8.10308 3.66514 7.89617 3.83099 7.3722 3.86084C6.371 3.91723 5.3531 3.95703 4.34189 4.00346C3.69444 4.03331 3.51757 4.21575 3.51757 4.85922C3.51757 5.80564 3.51757 6.75315 3.51757 7.70177C3.51757 8.36515 3.66776 8.51109 4.35525 8.51109C4.96932 8.51109 5.58672 8.51109 6.20079 8.51109C6.75145 8.51109 6.84824 8.60728 6.86826 9.13466C6.86826 9.99373 6.86826 10.8528 6.90831 11.7119C6.90831 12.1198 6.76814 12.289 6.35098 12.289C5.68351 12.289 5.01604 12.3255 4.32855 12.352C3.75786 12.3719 3.59099 12.5112 3.5743 13.0784C3.54983 14.0381 3.54983 14.9989 3.5743 15.9608C3.5743 16.4915 3.83462 16.727 4.37527 16.7336C5.40095 16.7336 6.42662 16.7248 7.4523 16.7071C7.86279 16.7071 8.02299 16.8232 8.02299 17.2511C8.02299 18.067 8.08305 18.8796 8.0964 19.6956C8.0964 20.2163 8.00297 20.3192 7.48568 20.3059C5.43655 20.2561 3.38407 20.2064 1.33494 20.1334C0.333734 20.1002 0 19.7321 0 18.7337C0 15.775 0 12.8197 0 9.86106L0.0500683 9.82126Z" transform="translate(62.0254 4.41827)" fill="white"/>
<path d="M5.73748 0C6.30483 0.139309 7.29268 0.374808 8.2772 0.633524C8.3649 0.646817 8.44821 0.680486 8.52036 0.731791C8.59251 0.783097 8.65146 0.850591 8.69243 0.928796C8.7334 1.007 8.75523 1.09371 8.75615 1.18187C8.75706 1.27004 8.73704 1.35718 8.69771 1.43621C8.48634 2.13054 8.28387 2.82708 8.09031 3.52583C7.99686 3.85752 7.75658 3.87742 7.46957 3.85752C6.96229 3.80113 6.45167 3.75138 5.9444 3.69168C4.32245 3.4993 4.00206 4.64694 4.06547 5.75146C4.11887 6.63375 4.59278 7.34024 5.14344 7.99366C5.90435 8.89917 6.70198 9.77151 7.42618 10.7035C8.67768 12.3155 8.96803 14.173 8.73775 16.1532C8.6076 17.2676 8.35397 18.3257 7.6598 19.2379C6.28481 21.0456 3.46475 21.3308 1.80609 19.7984C1.28661 19.3067 0.801561 18.7803 0.354346 18.2229C-0.149593 17.6126 -0.112886 17.2278 0.444451 16.6606C0.778185 16.329 1.11192 16.0636 1.44565 15.7518C1.48363 15.7004 1.53278 15.6581 1.58944 15.6282C1.64611 15.5982 1.70883 15.5814 1.77296 15.5788C1.83709 15.5763 1.90097 15.5881 1.95986 15.6135C2.01875 15.6388 2.07114 15.677 2.11312 15.7253C2.51027 16.057 2.90742 16.3688 3.32125 16.6673C4.28574 17.3605 5.07335 17.0454 5.30029 15.8945C5.39513 15.3843 5.38672 14.8605 5.27555 14.3537C5.16439 13.8468 4.9527 13.3671 4.65285 12.9424C3.95592 11.9387 3.19922 10.9773 2.38679 10.0634C1.55913 9.09487 0.718115 8.13297 0.384381 6.8792C-0.636847 3.30361 1.73267 0.0464362 5.73748 0Z" transform="translate(0 4.20935)" fill="white"/>
<path d="M3.26731 12.1298C3.26731 9.69743 3.26731 7.26505 3.26731 4.83268C3.26731 4.24559 3.21392 4.19584 2.59984 4.19253C1.88231 4.19253 1.16478 4.19253 0.447252 4.19253C0.133542 4.19253 -0.00327781 4.08639 5.95384e-05 3.76134C0.011184 2.68446 0.011184 1.60648 5.95384e-05 0.527387C5.95384e-05 0.155897 0.15358 0 0.524025 0C3.38079 0 6.23754 0 9.09764 0C9.61493 0 9.8352 0.19238 9.84855 0.706495C9.87191 1.68166 9.84855 2.65681 9.84855 3.63197C9.85566 3.70909 9.84527 3.78682 9.81814 3.85941C9.791 3.93201 9.74781 3.99762 9.69176 4.05142C9.63571 4.10522 9.56823 4.14583 9.49428 4.17025C9.42033 4.19467 9.34181 4.20228 9.26451 4.19253C8.73721 4.19253 8.20991 4.19253 7.68261 4.21243C7.01514 4.24891 6.86832 4.4214 6.86498 5.07814C6.84941 9.9274 6.83604 14.7767 6.82491 19.6259C6.82491 20.3523 6.82493 20.3755 6.09071 20.3623C5.3565 20.349 4.59891 20.3092 3.85135 20.2794C3.24729 20.2561 3.09377 20.1135 3.0971 19.5165C3.0971 17.8116 3.13715 16.1101 3.15383 14.4052C3.15383 13.6489 3.15383 12.8894 3.15383 12.1331L3.26731 12.1298Z" transform="translate(71.4902 4.32208)" fill="white"/>
<path d="M3.83133 10.1928C3.83133 13.3969 3.83133 16.6032 3.83133 19.8117C3.83133 20.4253 3.81131 20.4751 3.18389 20.4319C2.27946 20.3789 1.38171 20.2794 0.480624 20.1964C0.12019 20.1633 -0.00327171 19.951 6.56298e-05 19.5994C0.0568005 16.2228 0.0968356 12.8429 0.15357 9.46636C0.200293 6.6437 0.263703 3.82767 0.320438 0.995062C0.320438 0.208963 0.400536 0.129358 1.19816 0.0829218C1.899 0.0398025 2.60318 0.0165844 3.30402 0C3.91476 0 3.97149 0.0398037 3.97149 0.633524C3.94924 3.58996 3.92588 6.5453 3.9014 9.49953C3.9014 9.73171 3.9014 9.96388 3.9014 10.1994L3.83133 10.1928Z" transform="translate(82.8604 4.25574)" fill="white"/>
<path d="M2.81912 1.54256C2.7991 2.73664 1.86464 3.45971 0.816715 3.0849C0.639396 3.02061 0.48027 2.91481 0.352819 2.77644C-0.207854 2.14623 -0.0776972 0.84933 0.583097 0.325264C0.767763 0.156286 0.999744 0.0470859 1.24828 0.0121364C1.49682 -0.0228131 1.75019 0.0181403 1.97477 0.12957C2.23471 0.26266 2.45173 0.465738 2.60104 0.7156C2.75034 0.965463 2.82592 1.25203 2.81912 1.54256V1.54256Z" transform="translate(24.6211)" fill="white"/>
<path d="M2.93054 1.44211C2.93054 2.43718 2.40992 2.88827 1.362 2.88496C0.557697 2.88496 -0.0163322 2.1851 0.000354551 1.22652C0.0332674 0.884086 0.196152 0.566962 0.455899 0.339614C0.715646 0.112266 1.05276 -0.0082408 1.3987 0.00259229C1.59593 -0.00920047 1.79348 0.0193284 1.97917 0.086415C2.16486 0.153502 2.33474 0.257717 2.47831 0.392629C2.62187 0.527542 2.73608 0.690282 2.81387 0.870791C2.89165 1.0513 2.93136 1.24575 2.93054 1.44211Z" transform="translate(28.5645 0.196655)" fill="white"/>
</svg>
