<svg width="298" height="188" viewBox="0 0 298 188" fill="none" xmlns="http://www.w3.org/2000/svg">
<path d="M0 28.5992C3.80911e-05 21.5395 2.34632 14.68 6.66998 9.0992C16.16 -3.0308 36 -3.82081 44.77 11.5292C47.7669 16.8667 49.2502 22.9209 49.06 29.0392C49.116 34.5263 48.2019 39.9801 46.36 45.1492C43.36 53.1492 38.25 59.1492 29.62 61.1492C18.62 63.7092 8.02 59.6692 3.16 47.7492C0.870004 42.1292 0.15 36.2292 0 28.5992ZM11 30.1592C10.9109 35.0716 12.5695 39.856 15.68 43.6592C18.74 47.2492 22.59 48.9692 27.36 47.9992C31.36 47.1792 34.08 44.5592 36.03 41.1192C38.89 36.0592 39.18 30.6392 38.03 25.0592C37.4556 21.4474 35.8792 18.0694 33.48 15.3092C28.9 10.3692 20.64 10.8292 15.86 16.2292C12.38 20.1692 11.1 24.8792 10.99 30.1592H11Z" transform="translate(59.8516 12.9915)" fill="#CF9E23"/>
<path d="M10.1501 40.3916C10.071 41.0187 10.0243 41.6496 10.0101 42.2816C10.1568 47.8549 10.3168 53.4282 10.4901 59.0016C10.5501 60.9416 10.3901 61.1815 8.49012 61.1115C6.30012 61.0215 4.12014 60.8216 1.94014 60.6516C0.540136 60.5416 -0.00986628 59.7515 0.000133722 58.3615C0.0801337 49.7615 0.0801264 41.1515 0.180126 32.5515C0.280126 23.9515 0.41013 15.6016 0.59013 7.13156C0.652229 5.29314 0.822533 3.45996 1.10014 1.64156C1.13103 1.18353 1.33966 0.755691 1.68153 0.449311C2.02341 0.142932 2.47146 -0.0177418 2.93013 0.00155749C8.32013 0.0915575 13.7301 -0.0784474 19.0901 0.371553C23.6101 0.751553 27.7601 2.50157 30.0901 6.76157C30.9995 8.35681 31.5649 10.1247 31.7501 11.9516C32.3963 17.9654 31.189 24.0331 28.2901 29.3416C26.7031 32.1339 24.5789 34.5843 22.0401 36.5515C21.2301 37.1815 21.1801 37.7016 21.6201 38.6516C24.9301 45.6516 28.1601 52.6515 31.4201 59.7115C31.8501 60.6315 31.5701 61.1815 30.5401 61.2115C27.6501 61.3015 24.7501 61.4216 21.8601 61.3716C21.4201 61.3716 20.8601 60.6416 20.5901 60.1216C18.7501 56.3016 17.0501 52.4116 15.1801 48.6016C13.9801 46.1716 12.5801 43.8416 11.2501 41.4816C10.9965 41.0923 10.7158 40.7214 10.4101 40.3716L10.1501 40.3916ZM11.1501 18.9915H11.0001C11.0001 21.7115 11.0001 24.4216 11.0001 27.1416C10.9646 27.369 10.9797 27.6015 11.0446 27.8224C11.1095 28.0432 11.2225 28.247 11.3754 28.4191C11.5283 28.5911 11.7175 28.7272 11.9292 28.8175C12.141 28.9079 12.3701 28.9502 12.6001 28.9416C15.8701 29.3116 17.8501 28.2416 19.2201 25.2216C20.6524 21.9564 21.2404 18.3835 20.9301 14.8315C20.5901 9.98154 17.2601 7.72157 12.6901 8.92157C12.4624 8.94519 12.2416 9.01378 12.0406 9.12335C11.8396 9.23293 11.6623 9.38128 11.5191 9.55988C11.3758 9.73847 11.2695 9.94372 11.2061 10.1637C11.1428 10.3837 11.1238 10.6141 11.1501 10.8416C11.2201 13.5516 11.1901 16.2716 11.1901 19.0016L11.1501 18.9915Z" transform="translate(113.071 13.2991)" fill="#CF9E23"/>
<path d="M7.85999 0C10.92 0.22 13.98 0.509999 17.05 0.639999C22.6 0.879999 26.05 4.06001 28.47 8.64001C30.8494 13.2069 32.1656 18.2527 32.32 23.4C32.703 30.1199 32.0897 36.8596 30.5 43.4C29.1 48.82 26.84 53.83 22.37 57.51C20.1084 59.3334 17.439 60.5823 14.59 61.15C10.8983 61.9528 7.09575 62.1118 3.34998 61.62C1.54998 61.39 1.05999 60.73 0.829987 58.95C0.790317 58.558 0.773634 58.164 0.779999 57.77C0.679999 48.11 0.610001 38.44 0.470001 28.77C0.360001 20.86 0.15 12.96 0 5.04999C0 4.04999 0.0899744 3.12 0.129974 2.16C0.112913 1.87241 0.158213 1.58452 0.262726 1.31604C0.367238 1.04756 0.528519 0.80483 0.735535 0.604462C0.94255 0.404093 1.19041 0.250819 1.46216 0.155121C1.7339 0.0594231 2.02311 0.0235683 2.31 0.0500031C4.15 0.0500031 5.99997 0.0500031 7.83997 0.0500031L7.85999 0ZM22.49 29.55C22.36 27.88 22.3 26.17 22.08 24.48C21.6 20.85 20.78 17.33 18.55 14.31C17.8042 13.2468 16.8131 12.379 15.6608 11.7802C14.5084 11.1814 13.2287 10.8692 11.93 10.87C11.46 10.87 10.84 11.42 10.53 11.87C10.3074 12.3473 10.2209 12.8767 10.28 13.4C10.34 24.3667 10.41 35.3333 10.49 46.3C10.4604 46.8086 10.6148 47.3108 10.9252 47.7148C11.2355 48.1188 11.681 48.3975 12.18 48.5C13.97 49.04 15.47 48.6 16.87 46.75C20.73 41.75 22.29 35.87 22.49 29.55V29.55Z" transform="translate(148.952 12.5507)" fill="#CF9E23"/>
<path d="M0.48999 30.8064C0.323324 22.1397 0.16 13.473 0 4.80636C0.00268783 3.80344 0.0661398 2.80161 0.190002 1.80636C0.192644 1.35988 0.371826 0.932585 0.688477 0.617808C1.00513 0.303031 1.43352 0.126361 1.88 0.126368C3.06036 0.0232782 4.24537 -0.0167891 5.42999 0.00635795C9.63999 0.206358 13.85 0.386359 18.05 0.726359C23.05 1.13636 26.15 4.34637 28.39 8.50637C30.8198 13.0968 32.1611 18.1847 32.31 23.3764C32.6987 30.1372 32.0785 36.9182 30.47 43.4964C29.07 48.8664 26.82 53.8264 22.39 57.4964C19.5936 59.7938 16.166 61.1886 12.56 61.4964C9.5065 61.7548 6.43798 61.7849 3.38 61.5864C1.53 61.4864 1.03001 60.6964 0.820007 58.8364C0.800339 58.4866 0.800339 58.1361 0.820007 57.7864C0.820007 48.7797 0.820007 39.7797 0.820007 30.7864L0.48999 30.8064ZM10.2599 29.7364H10.48C10.48 35.1297 10.48 40.5264 10.48 45.9264C10.48 47.7264 11.3 48.5464 13.08 48.7064C13.83 48.7519 14.5785 48.595 15.2471 48.2519C15.9156 47.9088 16.4797 47.3923 16.88 46.7564C20.111 42.5127 22.0017 37.4011 22.31 32.0764C22.72 26.6664 22.2 21.2964 19.77 16.3064C19.2516 15.0701 18.4637 13.9653 17.4637 13.0725C16.4637 12.1798 15.2769 11.5217 13.99 11.1464C10.93 10.3164 10.27 10.7864 10.27 13.9464C10.25 19.2064 10.2433 24.473 10.25 29.7464L10.2599 29.7364Z" transform="translate(264.962 12.5543)" fill="#CF9E23"/>
<path d="M9.68224 36.8852C9.68224 39.6552 9.68224 42.0153 9.68224 44.3753C9.80224 49.5153 9.94223 54.6453 10.1422 59.7853C10.1922 61.0553 9.75225 61.3953 8.56225 61.2853C6.12225 61.0519 3.67558 60.8686 1.22225 60.7352C0.35225 60.7352 0.102255 60.3153 0.102255 59.5053C0.102255 57.0853 -0.0177516 54.6753 0.00224842 52.2553C0.102248 35.9553 0.215578 19.6586 0.342245 3.36524C0.341082 2.79565 0.387929 2.22698 0.482259 1.66525C0.515428 1.2653 0.7054 0.894704 1.01076 0.634303C1.31613 0.373902 1.71207 0.244833 2.11223 0.275249C4.61223 0.215249 7.11223 0.135244 9.61223 0.00524424C10.8122 -0.0547558 11.2123 0.39525 11.2023 1.60525C11.1423 7.66525 11.2022 13.7352 11.1422 19.7952C11.1422 20.2552 11.1422 20.7253 11.1422 21.1853L11.4622 21.2952C12.0922 20.2252 12.7823 19.1952 13.3223 18.0852C15.7156 13.1652 18.0756 8.23193 20.4022 3.28526C21.5222 0.895258 21.9722 0.505249 24.5922 0.635249C26.5922 0.735249 28.5922 0.935248 30.5922 1.16525C31.3822 1.25525 32.0222 1.50525 31.4722 2.62525C29.3623 6.94525 27.2723 11.2753 25.2923 15.6253C23.4223 19.7753 21.6723 23.9752 19.9722 28.1952C19.6845 28.9969 19.6845 29.8736 19.9722 30.6752C23.7189 40.1952 27.5156 49.6986 31.3622 59.1853C31.9922 60.7453 31.7723 61.1853 30.1023 61.1853C27.4223 61.1853 24.7423 61.1853 22.1023 61.1853C20.2023 61.1853 20.1023 60.9853 19.3523 59.1853C16.3523 52.0353 13.3522 44.9252 10.3022 37.7952C10.1722 37.6452 10.0122 37.4452 9.68224 36.8852Z" transform="translate(30.7197 13.1854)" fill="#CF9E23"/>
<path d="M0.150024 29.61C0.350024 20.74 0.53001 11.87 0.76001 2.99998C0.83001 0.459985 1.40002 0 3.96002 0C9.96002 0 15.9333 0 21.88 0C23.51 0 23.93 0.309985 24.04 1.99998C24.2 4.57998 24.26 7.16999 24.28 9.75999C24.28 11.05 23.66 11.55 22.09 11.64C19.09 11.81 16.04 11.93 13.01 12.07C11.07 12.16 10.54 12.71 10.54 14.65C10.54 17.5033 10.54 20.36 10.54 23.22C10.54 25.22 10.99 25.66 13.05 25.66C14.89 25.66 16.74 25.66 18.58 25.66C20.23 25.66 20.52 25.95 20.58 27.54C20.58 30.13 20.58 32.72 20.7 35.31C20.7 36.54 20.28 37.05 19.03 37.05C17.03 37.05 15.03 37.16 12.97 37.24C11.26 37.3 10.76 37.72 10.71 39.43C10.6367 42.3233 10.6367 45.22 10.71 48.12C10.71 49.72 11.49 50.43 13.11 50.45C16.1834 50.45 19.2567 50.4233 22.33 50.37C23.56 50.37 24.04 50.72 24.04 52.01C24.04 54.47 24.22 56.92 24.26 59.38C24.26 60.95 23.9801 61.26 22.4301 61.22C16.2901 61.07 10.14 60.92 4 60.7C1 60.6 0 59.49 0 56.48C0 47.56 0 38.65 0 29.73L0.150024 29.61Z" transform="translate(185.852 13.3206)" fill="#CF9E23"/>
<path d="M17.1918 0C18.8918 0.42 21.8518 1.13 24.8018 1.91C25.0645 1.95008 25.3142 2.05159 25.5304 2.20627C25.7465 2.36095 25.9232 2.56444 26.046 2.80022C26.1687 3.036 26.2341 3.29741 26.2369 3.56322C26.2396 3.82903 26.1796 4.09174 26.0618 4.33C25.4284 6.42334 24.8218 8.52332 24.2418 10.63C23.9618 11.63 23.2418 11.69 22.3818 11.63C20.8618 11.46 19.3318 11.31 17.8118 11.13C12.9518 10.55 11.9918 14.01 12.1818 17.34C12.3418 20 13.7618 22.13 15.4118 24.1C17.6918 26.83 20.0818 29.46 22.2518 32.27C26.0018 37.13 26.8718 42.73 26.1818 48.7C25.7918 52.06 25.0318 55.25 22.9518 58C18.8318 63.45 10.3818 64.31 5.41177 59.69C3.85519 58.2077 2.40179 56.6206 1.06176 54.94C-0.44824 53.1 -0.338251 51.94 1.33175 50.23C2.33175 49.23 3.33175 48.43 4.33175 47.49C4.44554 47.335 4.59281 47.2076 4.7626 47.1173C4.93239 47.027 5.12034 46.9761 5.31249 46.9684C5.50465 46.9607 5.69606 46.9964 5.87252 47.0729C6.04898 47.1493 6.20594 47.2645 6.33175 47.41C7.52175 48.41 8.71178 49.35 9.95178 50.25C12.8418 52.34 15.2018 51.39 15.8818 47.92C16.1659 46.382 16.1407 44.8029 15.8076 43.2747C15.4745 41.7466 14.8402 40.3002 13.9418 39.02C11.8535 35.9939 9.58612 33.0954 7.15176 30.34C4.67176 27.42 2.15176 24.52 1.15176 20.74C-1.90824 9.96001 5.19176 0.14 17.1918 0Z" transform="translate(0 12.6906)" fill="#CF9E23"/>
<path d="M9.79016 36.57C9.79016 29.2367 9.79016 21.9033 9.79016 14.57C9.79016 12.8 9.63016 12.65 7.79016 12.64C5.64016 12.64 3.49014 12.64 1.34014 12.64C0.400144 12.64 -0.0098216 12.32 0.000178401 11.34C0.0335117 8.09334 0.0335117 4.84334 0.000178401 1.59001C0.000178401 0.470012 0.460186 0 1.57019 0C10.1302 0 18.6901 0 27.2601 0C28.8101 0 29.4701 0.580005 29.5101 2.13C29.5801 5.07 29.5101 8.01 29.5101 10.95C29.5314 11.1825 29.5003 11.4168 29.419 11.6357C29.3377 11.8546 29.2083 12.0524 29.0403 12.2146C28.8724 12.3768 28.6702 12.4992 28.4486 12.5728C28.227 12.6465 27.9918 12.6694 27.7601 12.64C26.1801 12.64 24.6001 12.64 23.0201 12.7C21.0201 12.81 20.5802 13.33 20.5702 15.31C20.5235 29.93 20.4835 44.55 20.4501 59.17C20.4501 61.36 20.4502 61.43 18.2502 61.39C16.0502 61.35 13.7802 61.23 11.5402 61.14C9.73016 61.07 9.27015 60.64 9.28015 58.84C9.28015 53.7 9.40013 48.57 9.45013 43.43C9.45013 41.15 9.45013 38.86 9.45013 36.58L9.79016 36.57Z" transform="translate(214.212 13.0306)" fill="#CF9E23"/>
<path d="M11.4802 30.73C11.4802 40.39 11.4802 50.0567 11.4802 59.73C11.4802 61.58 11.4202 61.73 9.54017 61.6C6.83017 61.44 4.14014 61.14 1.44014 60.89C0.360138 60.79 -0.00980335 60.15 0.000196653 59.09C0.170197 48.91 0.290158 38.72 0.460158 28.54C0.600158 20.03 0.790158 11.54 0.960158 3C0.960158 0.63 1.20016 0.39 3.59016 0.25C5.69016 0.12 7.80016 0.05 9.90016 0C11.7302 0 11.9002 0.120004 11.9002 1.91C11.8335 10.8233 11.7635 19.7333 11.6901 28.64C11.6901 29.34 11.6901 30.04 11.6901 30.75L11.4802 30.73Z" transform="translate(248.281 12.8306)" fill="#CF9E23"/>
<path d="M8.4472 4.65065C8.3872 8.25065 5.5872 10.4306 2.4472 9.30064C1.91588 9.10681 1.43908 8.78782 1.05719 8.37065C-0.622814 6.47065 -0.232811 2.56064 1.74719 0.980636C2.30052 0.471185 2.99563 0.141959 3.74035 0.0365899C4.48508 -0.0687788 5.24426 0.054691 5.9172 0.39064C6.69606 0.79189 7.34634 1.40415 7.79373 2.15745C8.24111 2.91076 8.46756 3.77474 8.4472 4.65065V4.65065Z" transform="translate(73.7744)" fill="#CF9E23"/>
<path d="M8.78106 4.34781C8.78106 7.34781 7.22108 8.70782 4.08108 8.69782C1.67108 8.69782 -0.0489376 6.58782 0.00106237 3.69782C0.0996822 2.66542 0.587748 1.70933 1.36605 1.0239C2.14436 0.33847 3.15448 -0.0248451 4.19106 0.00781547C4.78202 -0.0277384 5.37398 0.058273 5.93038 0.260532C6.48679 0.46279 6.99581 0.776988 7.42599 1.18373C7.85617 1.59048 8.19838 2.08112 8.43145 2.62534C8.66452 3.16956 8.7835 3.75579 8.78106 4.34781Z" transform="translate(85.5908 0.592834)" fill="#CF9E23"/>
<path d="M26.8039 40.818C26.8039 39.128 26.8039 37.438 26.8039 35.748C26.9973 24.7813 27.2006 13.8147 27.4139 2.84799C27.4139 0.517988 27.8539 0.127998 30.2039 0.107998C32.2039 0.107998 34.294 0.107981 36.334 0.0279811C37.574 -0.0420189 37.9439 0.407988 37.9439 1.59799C37.9439 8.84799 37.9439 16.098 38.0039 23.358C38.0039 35.958 38.0039 48.558 38.0039 61.158C38.0039 61.758 38.0039 62.368 38.0039 62.968C38.0039 64.098 37.4139 64.718 36.2439 64.608C34.0239 64.398 31.8139 64.158 29.6039 63.938C28.8639 63.858 28.1239 63.758 27.3839 63.728C26.5461 63.7493 25.7228 63.5068 25.0302 63.0349C24.3376 62.563 23.8107 61.8855 23.5239 61.098C21.4139 56.098 19.2239 51.098 17.0639 46.038L11.8639 33.918C11.7091 33.5088 11.4291 33.1589 11.0639 32.918C11.0639 33.4113 11.0639 33.9046 11.0639 34.398C11.0639 43.2313 11.0639 52.0646 11.0639 60.898C11.0639 64.708 11.0639 64.738 7.32394 64.558C5.42394 64.468 3.53394 64.198 1.63394 64.108C0.37394 64.048 -0.0460647 63.468 0.00393532 62.248C0.253935 55.188 0.55395 48.128 0.64395 41.068C0.79395 29.218 0.793911 17.358 0.853911 5.50799C0.853911 4.34799 0.853911 3.178 0.853911 2.018C0.853911 0.858002 1.47391 0.0180019 2.72391 0.0180019C4.57961 -0.0357899 6.43686 0.0309991 8.2839 0.217984C8.8239 0.287984 9.46391 1.07798 9.72391 1.67798C15.2039 14.5913 20.6539 27.5147 26.0739 40.448C26.1482 40.5997 26.2316 40.7466 26.3239 40.888L26.8039 40.818Z" transform="translate(220.198 87.7327)" fill="white"/>
<path d="M11.4528 0.00178986C11.4528 1.85179 11.4528 3.47177 11.4528 5.10177C11.4528 11.9318 11.4528 18.7718 11.4528 25.6018C11.4528 26.9118 11.8028 27.4318 13.1828 27.3818C15.5928 27.3018 18.0228 27.3818 20.4328 27.3818C21.6628 27.3818 22.1628 27.0618 22.1928 25.7518C22.3028 19.7518 22.4828 13.6718 22.6628 7.63176C22.7128 5.73176 22.8528 3.82177 22.9028 1.92177C22.9028 0.721773 23.5128 0.0617874 24.6828 0.0617874C27.6828 0.0617874 30.6828 0.17178 33.7428 0.24178C34.6628 0.24178 34.7428 0.921775 34.7428 1.61178C34.7428 3.80178 34.6928 5.98177 34.6328 8.17177C34.1795 26.2984 33.7228 44.4251 33.2628 62.5518C33.2028 64.9318 32.8928 65.2418 30.4728 65.2518C28.0528 65.2618 25.5428 65.1718 23.0828 65.2518C21.6728 65.3118 21.2928 64.7518 21.3128 63.4818C21.4128 56.7418 21.4894 50.0018 21.5428 43.2618C21.5428 39.5618 21.5428 39.5518 17.8428 39.6418C16.1728 39.6418 14.4928 39.7818 12.8428 39.7618C11.6328 39.7618 11.2328 40.2418 11.2028 41.4118C11.0728 48.1018 10.8828 54.8018 10.7128 61.4918C10.5928 66.0118 10.5628 65.1918 6.89278 65.4918C5.19278 65.6118 3.46279 65.3518 1.75279 65.3418C0.342795 65.3418 -0.0372055 64.6418 0.00279447 63.3418C0.122794 59.1618 0.152786 54.9718 0.212786 50.7918C0.366119 38.6118 0.512788 26.4318 0.652788 14.2518C0.652788 10.0218 0.712788 5.79179 0.652788 1.56179C0.652788 0.311787 1.04279 -0.0282101 2.25279 0.00178986C5.19279 0.0517899 8.25278 0.00178986 11.4528 0.00178986Z" transform="translate(40.0391 86.9988)" fill="white"/>
<path d="M8.21858 0C11.4886 0.23 14.7686 0.540002 18.0686 0.690002C23.8986 0.950002 27.4886 4.3 30.0686 9.13C32.599 13.956 34.0009 19.2934 34.1686 24.74C34.5827 31.8936 33.9289 39.069 32.2286 46.03C30.7386 51.76 28.3386 57.03 23.5786 60.94C21.1802 62.8613 18.3535 64.1752 15.3386 64.77C11.4716 65.6008 7.49124 65.7665 3.56856 65.26C1.56856 65 1.05857 64.26 0.828566 62.35C0.808958 61.9803 0.808958 61.6098 0.828566 61.24C0.718566 51.06 0.648559 40.87 0.508559 30.69C0.388559 22.23 0.168559 13.77 0.00855911 5.31C-0.0184007 4.4285 0.018347 3.54622 0.118544 2.67001C0.388544 0.550014 0.798562 0.189999 2.94856 0.0299988H3.64857L8.21858 0ZM10.8186 31.37H11.0486C11.0486 37.13 11.0486 42.8867 11.0486 48.64C11.0486 50.53 11.9386 51.4 13.8286 51.55C14.6193 51.5858 15.4056 51.4123 16.1079 51.0471C16.8102 50.6819 17.4037 50.1379 17.8286 49.47C20.9816 45.3668 22.9185 40.4605 23.4186 35.31C24.3314 29.1696 23.4565 22.8963 20.8986 17.24C20.3443 15.9062 19.4919 14.717 18.4068 13.7636C17.3216 12.8102 16.0327 12.118 14.6386 11.74C11.5786 10.95 10.8686 11.48 10.8586 14.65C10.8086 20.23 10.8186 25.8 10.8186 31.37V31.37Z" transform="translate(263.104 86.7906)" fill="white"/>
<path d="M17.3319 0.446236C20.2119 0.446236 23.0919 0.446236 25.9719 0.446236C27.8019 0.446236 28.2919 0.816239 28.6719 2.60624C30.3919 10.6062 32.1819 18.6062 33.7319 26.6762C35.4119 35.4162 36.8719 44.1963 38.3919 52.9663C38.8619 55.6563 39.2919 58.3662 39.6019 61.0762C39.7819 62.6762 39.4119 62.9862 37.8119 62.9862C34.8119 62.9862 31.8119 62.9862 28.8819 62.9862C28.6858 63.0148 28.4859 63.001 28.2956 62.946C28.1052 62.8909 27.9289 62.7958 27.7783 62.667C27.6277 62.5382 27.5064 62.3787 27.4225 62.1992C27.3386 62.0197 27.2941 61.8244 27.2919 61.6262C26.9419 58.9562 26.5619 56.2962 26.2419 53.6262C25.9419 51.1362 25.6619 48.6262 25.4319 46.1562C25.4368 45.9806 25.4031 45.8061 25.3332 45.6449C25.2633 45.4837 25.1588 45.3399 25.0272 45.2235C24.8955 45.1072 24.74 45.0211 24.5715 44.9715C24.4029 44.9219 24.2256 44.9098 24.0519 44.9363C21.0519 45.0563 18.1119 45.1962 15.1519 45.4562C14.8652 45.5491 14.6049 45.7093 14.3926 45.9232C14.1804 46.1372 14.0225 46.3988 13.9319 46.6863C13.3119 49.3963 12.7819 52.1262 12.3119 54.8562C11.8819 57.3662 11.5419 59.8562 11.1919 62.4262C11.0719 63.3062 10.5919 63.8263 9.74189 63.8063C7.10189 63.7263 4.44188 63.6662 1.82188 63.3962C0.181878 63.2262 -0.178122 62.5262 0.071878 60.8662C1.13188 54.6962 2.2419 48.5462 3.2819 42.3762C4.7319 33.7862 6.0919 25.1763 7.5619 16.5863C8.4219 11.5863 9.4319 6.58625 10.3119 1.58625C10.3222 1.35513 10.3806 1.12871 10.4836 0.921516C10.5865 0.714322 10.7316 0.530922 10.9095 0.383095C11.0875 0.235267 11.2944 0.126263 11.5169 0.0630874C11.7395 -8.80733e-05 11.9728 -0.0160399 12.2019 0.0162429H17.3519L17.3319 0.446236ZM18.9019 9.69624L18.3819 9.85624C18.1658 10.5118 17.9888 11.1797 17.8519 11.8562C17.2919 15.5229 16.7519 19.1896 16.2319 22.8562C15.7619 26.2562 15.2919 29.6562 14.9219 33.0662C14.8519 33.6862 15.1319 34.7662 15.5319 34.9262C17.8472 35.9272 20.4453 36.0621 22.8519 35.3063C23.1338 35.1559 23.3732 34.9368 23.548 34.6694C23.7227 34.402 23.8273 34.0948 23.8519 33.7763C22.5619 26.1963 21.1719 18.6363 19.7619 11.0863C19.6819 10.5663 19.2019 10.1462 18.9019 9.69624Z" transform="translate(77.1699 88.5044)" fill="white"/>
<path d="M33.474 62.9741C32.034 62.9741 30.5939 62.9741 29.1539 62.9741C28.9261 63.0242 28.6898 63.0218 28.463 62.9672C28.2361 62.9125 28.0247 62.8071 27.8446 62.6587C27.6645 62.5104 27.5204 62.3231 27.4233 62.111C27.3262 61.8988 27.2785 61.6674 27.284 61.4341C26.864 57.9341 26.414 54.4341 25.994 50.9441C25.804 49.3741 25.584 47.8141 25.474 46.2441C25.4867 46.0569 25.4571 45.8692 25.3875 45.695C25.3178 45.5208 25.2098 45.3645 25.0715 45.2377C24.9332 45.1109 24.7681 45.0169 24.5885 44.9626C24.4089 44.9083 24.2193 44.8952 24.034 44.9241C21.034 45.0541 18.0939 45.1841 15.1339 45.4541C14.6839 45.4541 14.054 46.2141 13.934 46.7241C13.324 49.3441 12.814 51.9741 12.364 54.6241C11.914 57.2741 11.574 59.7541 11.224 62.3341C11.094 63.2741 10.6339 63.8341 9.71394 63.8041C7.07394 63.7141 4.41396 63.6541 1.79396 63.3841C0.173961 63.2141 -0.206052 62.5041 0.0939484 60.8241C1.09395 54.8241 2.18398 48.7641 3.19398 42.7341C4.66399 34.0041 6.08393 25.2641 7.57393 16.5341C8.43393 11.5341 9.44394 6.5341 10.3339 1.5341C10.3404 1.31278 10.3933 1.09527 10.4892 0.895701C10.585 0.696129 10.7218 0.518967 10.8906 0.375651C11.0594 0.232334 11.2564 0.126073 11.4688 0.0637915C11.6813 0.0015099 11.9045 -0.015413 12.124 0.0141089C16.9573 0.174109 21.7873 0.350774 26.614 0.544108C28.004 0.594108 28.484 1.5441 28.734 2.7241C29.964 8.3341 31.334 13.9141 32.374 19.5641C34.854 32.9641 37.174 46.3941 39.554 59.8041C39.6001 60.0788 39.6301 60.3559 39.6439 60.6341C39.7739 62.8041 39.514 63.0841 37.374 63.0741H35.374H33.374L33.474 62.9741ZM18.8939 9.71412L18.474 9.83412C18.2346 10.4661 18.0408 11.1144 17.8939 11.7741C17.3206 15.4875 16.774 19.2008 16.254 22.9141C15.784 26.2641 15.364 29.6241 14.934 32.9841C14.834 33.7541 14.5639 34.6641 15.5839 34.9841C17.8853 35.8871 20.4216 35.9997 22.794 35.3041C23.0944 35.1502 23.3509 34.9228 23.5397 34.643C23.7286 34.3633 23.8436 34.0403 23.874 33.7041C22.594 26.1741 21.214 18.7041 19.814 11.1541C19.724 10.6541 19.2139 10.2041 18.8939 9.71412V9.71412Z" transform="translate(177.588 88.4766)" fill="white"/>
<path d="M0.673152 33.0061C0.833152 23.1994 0.999819 13.3928 1.17315 3.58609C1.17315 1.03609 1.75315 0.486093 4.26315 0.306093C6.26315 0.156093 8.34314 0.116105 10.3831 0.00610502C11.7531 -0.073895 12.3831 0.636078 12.3831 1.91608C12.3831 2.51608 12.3831 3.12611 12.3831 3.72611C12.3831 19.0594 12.3831 34.3928 12.3831 49.7261C12.3831 53.1061 12.3831 53.1061 15.7931 53.0661C18.2131 53.0661 20.6331 53.0661 23.0431 52.9961C23.2848 52.9507 23.5337 52.9617 23.7704 53.0281C24.0072 53.0946 24.2254 53.2146 24.4082 53.3791C24.591 53.5435 24.7335 53.7478 24.8245 53.9763C24.9156 54.2047 24.9527 54.451 24.9331 54.6961C25.0731 57.5261 25.1631 60.3561 25.3031 63.1861C25.3631 64.3961 24.8431 64.9761 23.6131 65.0361C21.0131 65.1561 18.4231 65.4461 15.8231 65.4561C11.5031 65.4561 7.18315 65.3061 2.82315 65.2061C0.273146 65.1461 -0.0368612 64.8361 0.00313882 62.2561C0.163139 52.4961 0.333149 42.7361 0.513149 32.9761L0.673152 33.0061Z" transform="translate(119.749 86.9946)" fill="white"/>
<path d="M0.603213 33.03C0.763213 23.2233 0.92988 13.4167 1.10321 3.61002C1.10321 1.01002 1.71322 0.449999 4.29322 0.279999C6.29322 0.139999 8.29322 0.04 10.2932 0C11.8032 0 12.2932 0.45 12.3432 2C12.3432 2.6 12.3432 3.21 12.3432 3.81C12.3432 19.1033 12.3432 34.3967 12.3432 49.69C12.3432 53.12 12.3432 53.12 15.7132 53.08C18.1332 53.08 20.5532 53.08 22.9632 53.01C23.216 52.9633 23.4762 52.9764 23.7231 53.0481C23.9699 53.1198 24.1966 53.2482 24.3851 53.423C24.5735 53.5979 24.7184 53.8143 24.8084 54.0551C24.8984 54.296 24.9308 54.5544 24.9032 54.81C25.0332 57.59 25.1332 60.38 25.2632 63.16C25.3232 64.34 24.8832 64.99 23.6132 65.05C20.9732 65.17 18.3332 65.47 15.6932 65.47C11.4132 65.47 7.14322 65.32 2.86322 65.22C0.263223 65.16 -0.0367931 64.86 0.00320695 62.31C0.163207 52.55 0.333217 42.79 0.513217 33.03H0.603213Z" transform="translate(149.398 87.0106)" fill="white"/>
<path d="M12.1241 32.7771C12.1241 42.9504 12.1241 53.1271 12.1241 63.3071C12.1241 65.1871 12.0441 65.3071 10.1241 65.2371C7.4441 65.1071 4.7541 64.9371 2.1241 64.6271C0.184099 64.4071 -0.0358964 64.0671 0.00410361 62.1071C0.33077 42.3204 0.664104 22.5304 1.0041 2.73707C1.0041 0.837066 1.23411 0.53705 3.13411 0.37705C5.67411 0.16705 8.2341 0.157055 10.7841 0.00705468C12.1341 -0.0729453 12.5541 0.527062 12.5441 1.82706C12.4441 9.90706 12.3941 17.9971 12.3341 26.0771C12.3341 28.3071 12.3341 30.5371 12.3341 32.7671L12.1241 32.7771Z" transform="translate(2.12793 87.0336)" fill="white"/>
<path d="M7.7014 17.5146L4.5114 10.4546H4.3914C4.3314 12.3846 4.2514 14.3046 4.2014 16.2346C4.1514 18.1646 4.20141 19.8146 4.12141 21.6046C4.12141 22.5046 3.96139 22.6046 3.07139 22.6046C2.18139 22.6046 1.48141 22.4246 0.68141 22.3546C0.17141 22.3546 -0.018583 22.0446 0.00141696 21.5646C0.021417 21.0846 0.00141696 20.3346 0.00141696 19.7246C0.0947503 13.5313 0.191395 7.33794 0.291395 1.14461C0.291395 0.144607 0.411399 0.0246025 1.4514 0.0146025C2.00472 -0.0451009 2.5623 0.079322 3.03776 0.368576C3.51322 0.65783 3.88004 1.09578 4.0814 1.61461C5.2414 4.12461 6.58141 6.5546 7.84141 9.0146C7.97141 9.2646 8.11138 9.50462 8.34138 9.93462C8.85138 8.77462 9.34141 7.77461 9.74141 6.74461C10.4681 4.91795 11.1648 3.07793 11.8314 1.22459C11.8754 0.988031 12.0094 0.777751 12.2052 0.637894C12.401 0.498036 12.6434 0.43949 12.8814 0.474594C13.7314 0.544594 14.5814 0.624606 15.4314 0.674606C16.0614 0.674606 16.2914 1.02461 16.2814 1.67461C16.2814 3.89461 16.2814 6.1046 16.2814 8.3246C16.2314 12.4846 16.1314 16.6546 16.0914 20.8146C16.0914 21.5146 15.8814 21.7646 15.1814 21.7046C14.4089 21.6555 13.634 21.6555 12.8614 21.7046C12.2014 21.7046 11.9914 21.4846 12.0014 20.8246C12.0014 17.5446 12.0014 14.2546 12.0014 10.9746C12.0216 10.7047 11.977 10.4338 11.8714 10.1846L8.00142 17.6646L7.7014 17.5146Z" transform="translate(141.761 164.626)" fill="white"/>
<path d="M8.33997 11.6562L9.04999 12.0662C11.4 13.4162 12.21 15.1862 11.6 17.8262C11.4003 18.6522 11.0943 19.4488 10.6899 20.1962C10.3413 20.9697 9.75975 21.615 9.02643 22.0417C8.2931 22.4684 7.44473 22.6553 6.59998 22.5762C4.75998 22.4662 2.91996 22.3862 1.07996 22.3062C0.499956 22.3062 0.24999 22.0862 0.23999 21.4362C0.17999 14.6562 0.08 7.8762 0 1.0962C0 0.0961995 0.0799756 -0.0337968 1.09998 0.00620323C2.75204 0.00957301 4.40215 0.11982 6.03998 0.33622C10.04 0.99622 11.36 3.73622 10.61 7.33622C10.2802 8.39113 9.81641 9.39936 9.22998 10.3362C8.96213 10.795 8.66483 11.2359 8.33997 11.6562V11.6562ZM3.50995 7.16621C3.50995 7.99621 3.50995 8.82622 3.50995 9.64622C3.55005 9.79109 3.62472 9.92407 3.72748 10.0338C3.83023 10.1435 3.95804 10.2267 4.09998 10.2762C4.49786 10.4064 4.93104 10.3744 5.30548 10.1872C5.67992 9.99995 5.96539 9.67263 6.09998 9.27622C6.48103 8.37859 6.72056 7.42727 6.81 6.45622C6.93 4.45622 6.23996 3.88622 4.26996 3.95622C3.71996 3.95622 3.5 4.2062 3.5 4.7262C3.50667 5.55287 3.50995 6.36621 3.50995 7.16621ZM3.50995 16.4262C3.50995 16.7162 3.50995 17.0162 3.50995 17.3062C3.56995 19.1662 3.11995 19.0562 5.50995 19.0162C6.87995 19.0162 7.50995 18.3162 7.63995 16.9162C7.75826 16.3331 7.65195 15.7268 7.34229 15.2187C7.03262 14.7107 6.54247 14.3383 5.96997 14.1762C5.37417 14.0534 4.76821 13.9864 4.15997 13.9762C3.67997 13.9762 3.50997 14.1962 3.52997 14.6662C3.54997 15.1362 3.48999 15.8362 3.48999 16.4262H3.50995Z" transform="translate(163.032 164.754)" fill="white"/>
<path d="M3.94094 13.541C3.94094 16.131 3.94094 18.721 3.94094 21.311C3.94094 22.311 3.87096 22.411 2.84096 22.391C2.28096 22.391 1.72092 22.321 1.17092 22.261C0.0409195 22.131 -0.00906341 22.091 0.000936591 20.931C0.000936591 18.471 0.0609219 16.021 0.110922 13.561C0.200922 9.471 0.300961 5.391 0.400961 1.311C0.400961 0.0310011 0.460949 -0.00899652 1.70095 0.00100348L5.78097 0.061001C8.84097 0.061001 10.8409 1.70102 11.3609 4.70102C11.7447 6.51853 11.5489 8.41065 10.8009 10.111C10.3357 10.9985 9.73518 11.8082 9.02096 12.511C8.83159 12.6457 8.69507 12.8422 8.63485 13.0667C8.57463 13.2911 8.59445 13.5296 8.69094 13.741C9.69094 16.221 10.591 18.741 11.531 21.201C11.641 21.491 11.701 21.801 11.831 22.291C10.421 22.191 9.12095 22.161 7.83095 21.971C7.54095 21.971 7.23092 21.321 7.11092 20.971C6.40426 18.711 5.73759 16.441 5.11092 14.161C4.96092 13.501 4.71094 13.221 3.94094 13.541ZM7.85097 6.96099C7.64932 6.13667 7.38862 5.32794 7.07094 4.54101C6.86994 4.09678 6.5239 3.73407 6.08962 3.51239C5.65534 3.2907 5.15861 3.22322 4.68093 3.32101C4.17093 3.39101 3.88096 3.58101 3.90096 4.19101C3.97096 5.87101 3.98097 7.55101 4.03097 9.19101C4.03097 10.371 4.40095 10.621 5.58095 10.391C5.99185 10.3296 6.37827 10.1576 6.69887 9.89334C7.01948 9.6291 7.2622 9.28262 7.40096 8.89102C7.58054 8.26032 7.7208 7.61908 7.82094 6.971L7.85097 6.96099Z" transform="translate(192.181 164.67)" fill="white"/>
<path d="M0.369995 11.23C0.243328 7.94998 0.12 4.66664 0 1.37997C0 0.159974 0 0.03 1.25 0C2.88 0 4.5 0 6.13 0C6.73406 0.00137159 7.3257 0.171562 7.83813 0.491394C8.35057 0.811226 8.7634 1.26796 9.03 1.81C9.97941 3.55263 10.2931 5.57125 9.91724 7.51981C9.54139 9.46836 8.49944 11.2255 6.97 12.49C6.19013 13.0924 5.37901 13.6531 4.54001 14.17C4.35874 14.2596 4.21123 14.4054 4.11935 14.5855C4.02748 14.7657 3.99613 14.9706 4.03 15.17C4.12 17.28 4.18001 19.39 4.26001 21.49C4.26001 22.42 4.26001 22.49 3.26001 22.49C2.65001 22.49 2.03001 22.49 1.42001 22.49C0.810013 22.49 0.51001 22.2 0.51001 21.58C0.51001 20.35 0.51001 19.12 0.51001 17.89C0.51001 15.67 0.51001 13.46 0.51001 11.24L0.369995 11.23ZM3.83002 10.23C4.20844 10.078 4.5649 9.87618 4.89001 9.62997C5.54884 8.94934 6.03093 8.11772 6.29416 7.20776C6.55738 6.29781 6.59371 5.33722 6.39999 4.40997C6.31707 4.17287 6.18465 3.95614 6.01151 3.77417C5.83836 3.5922 5.62847 3.44917 5.39578 3.35458C5.16309 3.25999 4.91293 3.21603 4.66193 3.22559C4.41093 3.23514 4.16483 3.29797 3.94 3.40997C3.87942 3.45644 3.82938 3.51523 3.79318 3.58246C3.75698 3.64968 3.73545 3.72383 3.73001 3.79999C3.75001 5.92999 3.79002 7.98999 3.83002 10.27V10.23Z" transform="translate(101.432 164.751)" fill="white"/>
<path d="M4.13 8.89999C5.18 8.89999 6.13001 8.89999 7.04001 8.89999C7.53001 8.89999 7.79001 9.00999 7.79001 9.54999C7.79001 10.48 7.79 11.42 7.84 12.35C7.84 12.8 7.66 12.96 7.22 12.95C6.39 12.95 5.55999 12.95 4.73999 12.95C4.26999 12.95 4.04999 13.08 4.04999 13.57C4.04999 14.9033 4.04999 16.2367 4.04999 17.57C4.04999 18.08 4.33999 18.2 4.76999 18.2C5.56999 18.2 6.37001 18.2 7.17001 18.2C7.74001 18.2 7.99 18.45 7.97 19.03C7.97 19.83 7.92 20.63 7.97 21.43C7.97 22.07 7.67 22.29 7.12 22.31C6.08 22.31 5.04 22.31 4 22.31C3 22.31 2 22.26 1 22.31C0.23 22.31 0 22.02 0 21.31C0 19.87 0 18.43 0 16.98C0.0333333 11.72 0.0699854 6.46001 0.109985 1.20001C0.109985 0.0100121 0.109988 0 1.29999 0C3.21999 0 5.14001 0 7.07001 0C7.60001 0 7.85 0.130001 7.84 0.720001C7.84 1.6 7.91001 2.48002 7.95001 3.36002C7.95001 3.83002 7.76 4.04 7.28 4.03C6.61 4.03 5.95 4.03 5.28 4.03C4.21 4.03 4.12 4.11999 4.12 5.14999C4.12 6.46999 4.13 7.62999 4.13 8.89999Z" transform="translate(128.972 164.831)" fill="white"/>
<path d="M4.13036 8.85001C5.13036 8.85001 6.06034 8.85001 6.99034 8.85001C7.59034 8.85001 7.81034 9.02002 7.80034 9.61002C7.80034 10.49 7.80034 11.37 7.80034 12.25C7.80034 12.73 7.64038 12.92 7.15038 12.91C6.15038 12.91 5.15038 12.91 4.15038 12.91C4.0981 13.1844 4.06133 13.4615 4.04033 13.74C4.04033 14.97 4.04033 16.2 4.04033 17.42C4.04033 17.98 4.25033 18.19 4.79033 18.19C5.59033 18.19 6.39036 18.19 7.19036 18.19C7.72036 18.19 7.98039 18.42 7.97039 18.96C7.97039 19.76 7.92039 20.56 7.97039 21.36C8.02039 22.16 7.70038 22.28 7.09038 22.3C6.82038 22.3 6.56033 22.3 6.29033 22.3C4.47033 22.3 2.66038 22.3 0.840381 22.3C0.190381 22.3 -0.00964608 22.04 0.000353924 21.45C0.000353924 19.98 0.000353924 18.51 0.000353924 17.04C0.0336873 11.78 0.0703393 6.52001 0.110339 1.26001C0.110339 0.0200098 0.110371 0.01 1.33037 0C3.25037 0 5.17039 0 7.10039 0C7.66039 0 7.85038 0.190021 7.84038 0.740021C7.84038 1.54002 7.84037 2.34001 7.95037 3.14001C8.06037 3.94001 7.78038 4.08 7.09038 4.03C6.40038 3.98 5.65035 4.03 4.93035 4.03C4.49035 4.03 4.12035 4.17001 4.12035 4.70001C4.12035 6.07001 4.13036 7.42001 4.13036 8.85001Z" transform="translate(179.432 164.881)" fill="white"/>
<path d="M4.1112 8.85001C5.1112 8.85001 6.1112 8.85001 7.0212 8.85001C7.5112 8.85001 7.7712 8.95 7.7712 9.5C7.7712 10.43 7.77119 11.37 7.82119 12.3C7.82119 12.75 7.65121 12.91 7.21121 12.91C6.38121 12.91 5.55119 12.91 4.73119 12.91C4.27119 12.91 4.03119 13.03 4.04119 13.52C4.04119 14.8534 4.04119 16.1867 4.04119 17.52C4.04119 18.03 4.32121 18.15 4.75121 18.16C5.55121 18.16 6.35121 18.16 7.15121 18.16C7.72121 18.16 7.98121 18.4 7.96121 18.99C7.96121 19.79 7.90121 20.59 7.96121 21.39C8.02121 22.19 7.60119 22.27 7.04119 22.28C5.44119 22.28 3.83786 22.28 2.23119 22.28C-0.00880599 22.28 -0.00878639 22.28 0.00121361 20.03C0.0412136 13.73 0.0845213 7.43001 0.131188 1.13C0.131188 0.0200049 0.131204 0.01 1.2412 0C3.1612 0 5.08119 0 7.01119 0C7.69119 0 7.89121 0.230005 7.87121 0.880005C7.85121 1.53 7.92119 2.48 7.98119 3.28C7.98119 3.83 7.8012 4.06001 7.2412 4.04001C6.4912 4.04001 5.75121 4.04001 5.00121 4.04001C4.41121 4.04001 4.1312 4.30001 4.1412 4.92001C4.1312 6.22001 4.1112 7.49001 4.1112 8.85001Z" transform="translate(88.6709 164.881)" fill="white"/>
<path d="M8.87717 2.57577C8.87717 3.93577 8.82716 4.02579 7.46716 4.03579C6.90716 4.03579 6.33714 4.03579 5.78714 4.03579C4.29714 4.17579 3.59715 5.16579 4.20715 6.53579C4.70886 7.49841 5.34155 8.38684 6.08716 9.17578C6.99716 10.2558 8.08716 11.1758 8.93716 12.3158C11.2072 15.2458 9.93716 20.0858 7.93716 21.9658C7.25904 22.6581 6.36417 23.0973 5.40164 23.2101C4.43911 23.3229 3.467 23.1026 2.64716 22.5858C1.9921 22.1296 1.36435 21.6354 0.767151 21.1058C0.637099 21.0228 0.525065 20.9146 0.437713 20.7874C0.350362 20.6603 0.289487 20.5169 0.258697 20.3658C0.227908 20.2146 0.227825 20.0588 0.258484 19.9076C0.289143 19.7564 0.349922 19.613 0.437164 19.4858C0.747164 18.8958 1.04715 18.3058 1.32715 17.6958C1.60715 17.0858 1.97716 17.0958 2.43716 17.4958C2.71987 17.7402 3.01706 17.9672 3.32715 18.1758C3.64494 18.4258 4.03354 18.5691 4.43756 18.5853C4.84158 18.6014 5.24041 18.4896 5.57715 18.2658C5.90915 18.0138 6.15412 17.6643 6.27783 17.2663C6.40154 16.8683 6.39781 16.4416 6.26715 16.0458C6.0616 15.4737 5.75696 14.9423 5.36716 14.4758C4.12716 13.0058 2.72714 11.6658 1.56714 10.1458C0.721811 9.16978 0.190427 7.96156 0.0423581 6.67889C-0.105711 5.39622 0.136431 4.09871 0.737152 2.95578C1.30259 1.96254 2.14661 1.15668 3.16492 0.637754C4.18323 0.118823 5.33124 -0.0904339 6.46716 0.0357943H6.70715C8.59715 0.325794 8.76717 -0.164228 8.87717 2.57577Z" transform="translate(73.7646 164.465)" fill="white"/>
<path d="M11.2303 0C11.2303 1.36 11.2303 2.62 11.2303 3.87C11.2303 4.03 10.9303 4.29 10.7503 4.31C10.1703 4.37 9.58027 4.31 8.99027 4.31C7.82027 4.31 7.80027 4.30999 7.77027 5.51999C7.73027 7.81332 7.70696 10.11 7.70029 12.41C7.70029 15.32 7.70029 18.23 7.70029 21.14C7.70029 22.23 7.7003 22.23 6.5803 22.23H4.74027C3.74027 22.23 3.74027 22.23 3.74027 21.23C3.74027 15.9966 3.74027 10.76 3.74027 5.51999C3.74027 4.44999 3.74027 4.46 2.68027 4.44C2.01027 4.44 1.35027 4.43997 0.680271 4.37997C0.250271 4.37997 -0.00972158 4.20999 0.000278424 3.70999C0.000278424 2.77999 0.000278424 1.83997 0.000278424 0.909973C0.000278424 0.399973 0.180267 0 0.770267 0H11.2303Z" transform="translate(114.842 164.751)" fill="white"/>
<path d="M7.01309 6.69779C7.366 6.67325 7.72018 6.67325 8.07309 6.69779C8.21309 6.69779 8.44308 6.90778 8.44308 7.03778C8.52098 8.14312 8.3572 9.25216 7.9631 10.2878C7.76122 10.8241 7.41551 11.2945 6.96393 11.6473C6.51235 12 5.97231 12.2217 5.40308 12.2878C4.68566 12.4618 3.93443 12.4374 3.22983 12.2172C2.52522 11.997 1.89377 11.5893 1.40308 11.0378C0.763461 10.2361 0.3554 9.27476 0.223083 8.25778C-0.154899 6.54639 -0.0510352 4.76372 0.523101 3.10779C0.739569 2.37574 1.14444 1.71336 1.69723 1.18689C2.25003 0.660422 2.93136 0.288313 3.6731 0.107791C4.22287 -0.0245744 4.79494 -0.0351676 5.34924 0.0767549C5.90354 0.188677 6.42667 0.420393 6.88202 0.75571C7.33736 1.09103 7.71391 1.52184 7.98529 2.01795C8.25667 2.51406 8.41634 3.06349 8.45309 3.62778C8.45309 4.00778 8.3731 4.18779 7.9631 4.16779C7.5531 4.14779 7.11307 4.16779 6.68307 4.16779C6.61395 4.18062 6.54296 4.1793 6.47436 4.16391C6.40577 4.14852 6.34098 4.11938 6.28397 4.07825C6.22695 4.03712 6.17889 3.98486 6.14264 3.92462C6.10639 3.86439 6.08272 3.79743 6.07309 3.72779C5.98797 3.44379 5.84875 3.17893 5.66309 2.94779C5.5338 2.74545 5.35564 2.57894 5.14505 2.4636C4.93446 2.34825 4.69821 2.28778 4.4581 2.28778C4.21798 2.28778 3.98171 2.34825 3.77112 2.4636C3.56052 2.57894 3.38237 2.74545 3.25308 2.94779C2.67555 3.68056 2.32762 4.56775 2.25308 5.49778C2.13002 6.63095 2.30946 7.7765 2.7731 8.81778C2.86496 9.0793 3.01017 9.31886 3.19952 9.52127C3.38888 9.72369 3.61823 9.88455 3.87305 9.99362C4.12786 10.1027 4.40255 10.1576 4.67972 10.1549C4.95688 10.1522 5.23047 10.0918 5.48309 9.97779C5.70595 9.90214 5.90022 9.75993 6.0397 9.57038C6.17919 9.38082 6.25716 9.15306 6.26309 8.91779C6.26309 8.67779 6.20308 8.52778 5.94308 8.53778C4.94308 8.46778 4.94308 8.46778 4.94308 7.53778C4.94308 7.40778 4.94308 7.27778 4.94308 7.15778C4.94308 7.03778 5.04308 6.7678 5.31308 6.7678C5.86308 6.7678 6.41308 6.76779 6.97308 6.69779H7.01309Z" transform="translate(19.4287 170.043)" fill="white"/>
<path d="M0.0599976 0C0.649998 0 1.20999 0.0600049 1.76999 0.130005C1.86999 0.130005 2 0.389999 2 0.529999C2 1.82 1.91001 3.10999 1.92001 4.39999C1.93001 5.68999 2.01001 6.96998 2.10001 8.25998C2.13842 8.58318 2.25513 8.89214 2.44 9.16C2.75 9.64 3.25 9.62 3.44 9.09C3.70446 8.45166 3.87296 7.77769 3.94 7.09C4.03 5.04 4.02002 2.97998 4.05002 0.919983C4.05002 0.309983 4.04999 0.310007 4.64999 0.320007H5.84C6.07 0.320007 6.17 0.410004 6.16 0.660004C6.05 3.24 5.98002 5.81998 5.83002 8.38998C5.78492 9.34522 5.49198 10.2723 4.98001 11.08C4.74468 11.4528 4.41455 11.7565 4.02341 11.96C3.63226 12.1634 3.19413 12.2594 2.75375 12.238C2.31338 12.2166 1.88656 12.0787 1.51694 11.8384C1.14732 11.598 0.848142 11.2639 0.649994 10.87C0.230282 10.0599 0.00758993 9.1623 0 8.25C0 5.64 0 3.02998 0 0.419983C0.0107739 0.278819 0.0308147 0.138534 0.0599976 0V0Z" transform="translate(30.5918 170.151)" fill="white"/>
<path d="M0.0599976 0C0.649998 0 1.20999 0.0600049 1.76999 0.130005C1.86999 0.130005 2 0.389999 2 0.529999C2 1.82 1.90998 3.10999 1.91998 4.39999C1.92998 5.68999 2.01001 6.96998 2.10001 8.25998C2.13842 8.58318 2.25513 8.89214 2.44 9.16C2.75 9.64 3.25 9.62 3.44 9.09C3.70446 8.45166 3.87296 7.77769 3.94 7.09C4.03 5.04 4.01999 2.97998 4.04999 0.919983C4.04999 0.309983 4.04999 0.310007 4.64999 0.320007H5.84C6.07 0.320007 6.17 0.420004 6.16 0.660004C6.05 3.24 5.97999 5.81998 5.82999 8.38998C5.78489 9.34522 5.49198 10.2723 4.98001 11.08C4.74468 11.4528 4.41455 11.7565 4.02341 11.96C3.63226 12.1634 3.19413 12.2594 2.75375 12.238C2.31338 12.2166 1.88656 12.0787 1.51694 11.8384C1.14732 11.598 0.848142 11.2639 0.649994 10.87C0.230282 10.0599 0.00758993 9.1623 0 8.25C0 5.64 0 3.02998 0 0.419983C0.010687 0.27881 0.0307286 0.138519 0.0599976 0V0Z" transform="translate(11.6621 170.151)" fill="white"/>
<path d="M0 12.0817C0.15 11.0817 0.280013 10.2517 0.420013 9.37169C0.860013 6.70502 1.30333 4.01167 1.75 1.29167C1.75 1.16167 1.80001 1.04167 1.82001 0.911666C1.97001 -0.0383337 1.97001 -0.0383178 2.92001 0.0216822L4.92001 0.131668C4.9765 0.128979 5.03295 0.137471 5.08615 0.156631C5.13935 0.175791 5.18827 0.205248 5.23007 0.243331C5.27187 0.281415 5.30573 0.327361 5.32974 0.378555C5.35376 0.429748 5.36746 0.485183 5.37003 0.541671C6.03669 4.32167 6.68336 8.10167 7.31003 11.8817C7.31739 11.9448 7.31739 12.0086 7.31003 12.0717C6.66003 12.0717 6.00003 12.0717 5.31003 12.0717C5.24003 12.0717 5.14 11.8717 5.13 11.7617C4.98 10.7617 4.83 9.69168 4.72 8.64168C4.72175 8.56683 4.70764 8.49244 4.67856 8.42345C4.64948 8.35445 4.6061 8.29243 4.5513 8.24141C4.4965 8.19039 4.43152 8.15154 4.36063 8.12746C4.28973 8.10337 4.21455 8.09458 4.14001 8.10167C3.74419 8.09098 3.34841 8.12453 2.96002 8.20167C2.88197 8.2399 2.81408 8.29609 2.76193 8.36561C2.70979 8.43514 2.67485 8.51603 2.66 8.60167C2.53 9.60167 2.40001 10.6017 2.32001 11.6017C2.32001 12.0017 2.2 12.1917 1.75 12.1517C1.3 12.1117 0.64 12.0817 0 12.0817ZM3.61002 6.08168C3.75002 6.08168 3.89003 6.08168 4.03003 6.08168C4.17003 6.08168 4.42003 5.96169 4.37003 5.68169C4.18003 4.68169 3.99001 3.62169 3.79001 2.59169C3.79001 2.48169 3.64003 2.39168 3.56003 2.30168C3.48003 2.41168 3.34001 2.51167 3.32001 2.63167C3.16001 3.47833 3.01334 4.32835 2.88 5.18169C2.75 6.01169 2.75001 6.01168 3.64001 6.05168L3.61002 6.08168Z" transform="translate(2.36133 170.099)" fill="white"/>
<path d="M4.69133 1.39681C4.69133 2.11681 4.69132 2.1568 3.93132 2.1668C3.67132 2.1668 3.42133 2.1668 3.16133 2.1668C2.24133 2.1668 1.82132 2.83681 2.25132 3.67681C2.5318 4.13011 2.86773 4.54665 3.25132 4.9168C3.73132 5.4768 4.25131 5.9768 4.74131 6.5468C5.97131 8.0968 5.2713 10.7068 4.2013 11.7068C3.81139 12.0969 3.29527 12.3352 2.74549 12.3792C2.19572 12.4232 1.64827 12.2699 1.2013 11.9468C-0.0286955 11.1568 -0.118702 10.7968 0.601298 9.53679C0.861298 9.07679 0.921309 9.0668 1.33131 9.3868C1.46131 9.4868 1.59131 9.5968 1.74131 9.6968C1.9135 9.82427 2.12208 9.89305 2.33631 9.89305C2.55055 9.89305 2.75913 9.82427 2.93132 9.6968C3.10403 9.56006 3.23031 9.37335 3.29295 9.16216C3.35559 8.95097 3.35154 8.7256 3.28132 8.5168C3.17165 8.2109 3.00918 7.9266 2.80131 7.67681C2.14131 6.89681 1.42131 6.17679 0.801311 5.37679C0.344238 4.82333 0.0683906 4.14272 0.0111495 3.4272C-0.0460915 2.71169 0.118035 1.99588 0.481303 1.37679C0.803785 0.906687 1.24707 0.532239 1.76448 0.292897C2.28188 0.053554 2.85425 -0.0418106 3.42131 0.0168041H3.55131C4.54131 0.226804 4.63133 -0.0531911 4.69133 1.39681Z" transform="translate(39.2607 170.074)" fill="white"/>
<path d="M5.98313 0C5.98313 0.72 5.98313 1.40002 5.98313 2.08002C5.98313 2.16002 5.81314 2.28001 5.70314 2.29001C5.42 2.30487 5.13627 2.30487 4.85313 2.29001C4.16313 2.29001 4.15314 2.29 4.14314 3C4.14314 4.23333 4.14314 5.46668 4.14314 6.70001C4.14314 8.23001 4.14314 9.77002 4.14314 11.3C4.14314 11.68 4.05314 11.85 3.64314 11.82C3.2736 11.7937 2.90266 11.7937 2.53312 11.82C2.13312 11.82 1.98314 11.72 1.99314 11.29C1.99314 8.69001 1.99314 6.1 1.99314 3.5C1.99314 3.26 1.99314 3.02 1.99314 2.78C1.99314 2.54 1.90313 2.34002 1.57313 2.36002C1.24313 2.38002 0.783128 2.36002 0.383128 2.36002C-0.016872 2.36002 -0.00687684 2.26001 0.00312316 1.98001C0.00312316 1.50001 0.00312316 0.979999 0.00312316 0.529999C0.00312316 0.239999 0.103116 0.0200195 0.433116 0.0200195L5.98313 0Z" transform="translate(46.6787 170.351)" fill="white"/>
<path d="M1.94 5.89001C1.94 7.67668 1.94 9.46333 1.94 11.25C1.94 11.79 1.94 11.83 1.37 11.84C1.09 11.84 0.799989 11.84 0.519989 11.84C0.239989 11.84 0 11.69 0 11.34C0 10.65 0 9.95001 0 9.26001C0 6.38001 0 3.50334 0 0.630005C0 0.0200049 1.58548e-05 0.02 0.610016 0H1.25C1.92 0 1.95999 1.3411e-05 1.95999 0.670013C1.95999 2.41668 1.95999 4.15999 1.95999 5.89999L1.94 5.89001Z" transform="translate(55.3115 170.331)" fill="white"/>
<path d="M2.5 0C3.16 0 3.83 0 4.5 0C4.9 0 5.05 0.150009 5.03 0.540009C5.01 0.930009 5.03 1.44001 5.03 1.89001C5.03 2.34001 4.87999 2.36002 4.57999 2.36002C3.19999 2.36002 1.82 2.36002 0.440002 2.36002C0.349881 2.33362 0.26785 2.28497 0.201447 2.21857C0.135043 2.15216 0.0863957 2.07013 0.0599976 1.98001C-2.44007e-06 1.50001 0.06 0.979999 0 0.529999C0 0.219999 0.139993 0.130005 0.429993 0.130005C1.12999 0.130005 1.83 0.130005 2.53 0.130005L2.5 0Z" transform="translate(63.502 174.981)" fill="white"/>
<path d="M2.5 0C3.16 0 3.83 0 4.5 0C4.9 0 5.05003 0.150009 5.03003 0.540009C5.01003 0.930009 5.03003 1.44001 5.03003 1.89001C5.03003 2.34001 4.88002 2.36002 4.58002 2.36002C3.20002 2.36002 1.82 2.36002 0.440002 2.36002C0.349881 2.33362 0.267819 2.28497 0.201416 2.21857C0.135013 2.15216 0.0863957 2.07013 0.0599976 1.98001C-2.44007e-06 1.50001 0.06 0.979999 0 0.529999C0 0.219999 0.139993 0.130005 0.429993 0.130005C1.12999 0.130005 1.83003 0.130005 2.53003 0.130005L2.5 0Z" transform="translate(209.122 174.981)" fill="white"/>
<path d="M0.00370079 6.30689C-0.0274333 5.0982 0.138047 3.89248 0.493691 2.73688C0.733521 1.98633 1.19562 1.32632 1.81883 0.844183C2.44203 0.362046 3.19695 0.0805371 3.98368 0.0369019C6.33368 -0.253098 7.34368 1.21688 7.92368 2.66688C8.39063 3.9452 8.54829 5.31593 8.38371 6.66688C8.33367 7.45671 8.2098 8.24016 8.01371 9.0069C7.82468 9.93455 7.29441 10.7575 6.52781 11.313C5.76121 11.8685 4.81408 12.1161 3.8737 12.0069C3.10091 12.0143 2.34778 11.7636 1.73368 11.2944C1.11958 10.8252 0.679635 10.1644 0.483681 9.41688C0.158725 8.41247 -0.00330614 7.36253 0.00370079 6.30689V6.30689ZM6.6237 6.23688H6.54368C6.54368 6.08688 6.54368 5.9369 6.54368 5.7869C6.52062 4.87479 6.26599 3.98352 5.80369 3.19691C5.66423 2.96209 5.45962 2.77282 5.21464 2.65211C4.96966 2.53139 4.69485 2.4844 4.42368 2.51688C4.09114 2.54868 3.7701 2.65514 3.48441 2.82828C3.19872 3.00143 2.95579 3.23679 2.77372 3.51688C2.26202 4.3092 1.98484 5.23009 1.97422 6.17322C1.9636 7.11635 2.21999 8.04326 2.71372 8.8469C2.83975 9.06213 3.0152 9.24421 3.22562 9.37812C3.43604 9.51202 3.67533 9.59388 3.92368 9.61689C4.42035 9.69754 4.92944 9.59632 5.35746 9.33179C5.78548 9.06726 6.10372 8.65718 6.2537 8.17689C6.41707 7.5385 6.54063 6.89058 6.6237 6.23688Z" transform="translate(219.618 170.244)" fill="white"/>
<path d="M0.00403176 6.35155C-0.0285864 5.13294 0.136891 3.91711 0.494022 2.75154C0.728481 2.00447 1.18351 1.34582 1.79926 0.862141C2.41501 0.378463 3.16268 0.0924027 3.94403 0.0415535C6.25403 -0.258447 7.31403 1.11154 7.94403 2.68154C8.40987 3.96013 8.56749 5.33058 8.40406 6.68154C8.35039 7.47165 8.22317 8.25504 8.02405 9.02153C7.83247 9.9577 7.29435 10.787 6.5174 11.3433C5.74045 11.8995 4.78202 12.1418 3.83405 12.0215C3.06545 12.0189 2.31945 11.7612 1.71314 11.2889C1.10683 10.8165 0.674558 10.1562 0.484073 9.41155C0.165158 8.4229 0.00315055 7.39037 0.00403176 6.35155V6.35155ZM6.62403 6.22155H6.54407C6.54407 6.08155 6.54407 5.94154 6.54407 5.81154C6.51781 4.95712 6.29903 4.11963 5.90406 3.36153C5.7327 3.00217 5.42721 2.72438 5.05323 2.58788C4.67924 2.45137 4.26661 2.46707 3.90406 2.63155C3.45741 2.79247 3.07029 3.08543 2.79407 3.47155C2.27985 4.267 2.00214 5.19215 1.99329 6.1393C1.98444 7.08645 2.24475 8.01663 2.74402 8.82155C2.87333 9.03436 3.05142 9.21333 3.26355 9.34374C3.47568 9.47415 3.71579 9.55225 3.96405 9.57155C4.46048 9.64813 4.96786 9.54249 5.39246 9.27413C5.81706 9.00577 6.1302 8.59279 6.27405 8.11153C6.43329 7.48909 6.55682 6.85808 6.64405 6.22155H6.62403Z" transform="translate(246.357 170.239)" fill="white"/>
<path d="M4.38 6.16878L5.03998 6.54878C5.41069 6.75418 5.71557 7.06055 5.91913 7.43227C6.12269 7.80399 6.21661 8.22582 6.19 8.64879C6.18717 9.57653 5.86196 10.4744 5.27002 11.1888C5.08598 11.4274 4.84727 11.6182 4.57404 11.7453C4.3008 11.8723 4.00105 11.9318 3.70001 11.9188L0.559998 11.7888C0.249998 11.7888 0.109976 11.6588 0.0999756 11.2988C0.0999756 7.76878 0.04 4.29881 0 0.728807C0 0.0488073 -2.68817e-05 0.0387853 0.659973 0.0187853C1.66964 -0.0455936 2.68304 0.0557647 3.65997 0.318804C4.33365 0.476602 4.91932 0.890688 5.29272 1.47319C5.66612 2.0557 5.79786 2.76077 5.65997 3.4388C5.59795 4.18879 5.31229 4.90291 4.83997 5.48879C4.67997 5.69879 4.55 5.91878 4.38 6.16878ZM1.83997 3.8188C1.83997 4.2488 1.83997 4.6688 1.83997 5.0988C1.83266 5.14349 1.83526 5.18925 1.84753 5.23284C1.85981 5.27643 1.88146 5.31678 1.91101 5.35109C1.94056 5.38541 1.97727 5.41284 2.01855 5.43144C2.05984 5.45005 2.10474 5.45938 2.15002 5.45879C2.37343 5.50295 2.60517 5.46956 2.80701 5.36409C3.00885 5.25863 3.16869 5.08742 3.26001 4.8788C3.58507 4.26574 3.68753 3.55894 3.54999 2.8788C3.5212 2.68178 3.42257 2.50166 3.27203 2.37132C3.1215 2.24099 2.9291 2.16909 2.72998 2.16878C2.56998 2.16878 2.41 2.16878 2.25 2.16878C2.1954 2.15642 2.13857 2.15775 2.08459 2.17262C2.03062 2.1875 1.98118 2.21546 1.94061 2.25405C1.90005 2.29263 1.86966 2.34065 1.85211 2.39382C1.83456 2.44698 1.83035 2.50364 1.83997 2.55879C1.82997 2.93879 1.83002 3.3788 1.83002 3.8188H1.83997ZM1.83997 8.6588C1.83997 9.0188 1.83997 9.36881 1.83997 9.72881C1.83997 9.83881 1.98 10.0288 2.06 10.0288C2.42604 10.059 2.79393 10.059 3.15997 10.0288C3.32209 10.0112 3.47529 9.94566 3.59998 9.84056C3.72466 9.73547 3.8152 9.5956 3.85999 9.4388C3.98173 9.18864 4.02951 8.9089 3.99762 8.63252C3.96573 8.35615 3.85551 8.09466 3.67999 7.8788C3.46161 7.66389 3.19006 7.51084 2.89313 7.43529C2.59619 7.35974 2.28453 7.36441 1.98999 7.44881C1.94527 7.47068 1.90648 7.50298 1.87689 7.54302C1.8473 7.58305 1.82779 7.62962 1.82001 7.67879C1.81001 7.98879 1.82001 8.3288 1.82001 8.6588H1.83997Z" transform="translate(256.382 170.242)" fill="white"/>
<path d="M2.52997 7.06174C2.12997 6.98174 2.03999 7.13175 2.04999 7.48175C2.04999 8.74175 2.04999 9.99174 2.04999 11.2517C2.04999 11.7317 1.95999 11.8317 1.48999 11.8117C1.01999 11.7917 0.79999 11.8118 0.48999 11.7318C0.17999 11.6518 0 11.6317 0 11.1917C0 10.1017 0 9.00175 0 7.91175C0.06 5.43175 0.119941 2.91175 0.189941 0.481753C0.189941 0.0317529 0.189941 0.00174187 0.689941 0.00174187H3.10999C3.7858 -0.0223582 4.44664 0.204324 4.96539 0.638155C5.48414 1.07199 5.82416 1.68232 5.91998 2.35175C6.16493 3.44125 6.02719 4.58184 5.52997 5.58173C5.30516 5.96068 5.01778 6.2988 4.67999 6.58173C4.58563 6.64341 4.51783 6.73828 4.49005 6.84754C4.46227 6.95679 4.47653 7.07247 4.52997 7.17172C5.02997 8.48172 5.52996 9.79175 6.01996 11.1017C6.23996 11.6817 6.19997 11.7417 5.58997 11.6917L4.44995 11.6017C3.93995 11.6017 3.85997 11.5017 3.71997 11.0317L2.65997 7.46173C2.62997 7.33173 2.57997 7.19174 2.52997 7.06174ZM4.07996 3.73175C4.01949 3.37428 3.93937 3.02038 3.83997 2.67172C3.75511 2.3567 3.55137 2.08687 3.27161 1.91901C2.99184 1.75115 2.65787 1.69836 2.33997 1.77173C2.13997 1.77173 2.02998 1.88175 2.03998 2.10175C2.03998 3.10175 2.03997 4.17173 2.08997 5.21173C2.10177 5.27252 2.12788 5.32964 2.16614 5.37833C2.20439 5.42702 2.25373 5.46588 2.31 5.49173C2.61156 5.57809 2.93426 5.55163 3.21771 5.41727C3.50116 5.28291 3.72592 5.04987 3.84998 4.76175C3.95423 4.41837 4.03112 4.06725 4.07996 3.71173V3.73175Z" transform="translate(270.782 170.239)" fill="white"/>
<path d="M2.00053 7.16C2.00053 7.9 2.00053 8.64 2.00053 9.38C2.00053 10.12 2.00053 10.83 2.00053 11.56C2.00053 11.86 1.89054 12.01 1.57054 11.99H0.430587C0.120587 11.99 -0.00946629 11.81 0.000533707 11.49C0.000533707 10.2 0.070541 8.91 0.070541 7.62C0.070541 5.43333 0.070541 3.24335 0.070541 1.05002C0.070541 0.180018 0.0705898 0.180018 0.87059 0.0500183C1.14601 0.0167775 1.42313 6.2609e-05 1.70055 0C2.13055 0 2.20056 0.0800098 2.21056 0.51001C2.21056 1.51001 2.21056 2.51001 2.21056 3.51001C2.20293 3.9708 2.22297 4.43163 2.27055 4.89001C2.34719 4.77746 2.41733 4.6606 2.48058 4.54001C3.06058 3.26001 3.64056 1.99001 4.21056 0.700012C4.52056 0.0100122 4.50056 8.54582e-06 5.21056 0.0400085L6.11058 0.110016C6.51058 0.110016 6.53058 0.200018 6.36058 0.550018C5.65058 2.09002 4.95058 3.64 4.23058 5.19C4.0891 5.50441 4.06427 5.85895 4.16057 6.19C4.59798 7.64361 5.1705 9.05308 5.87059 10.4C6.02059 10.71 6.18054 11.02 6.32054 11.33C6.46054 11.64 6.40055 11.76 6.08055 11.77C5.44771 11.8054 4.81343 11.8054 4.18059 11.77C4.06059 11.77 3.92057 11.53 3.85057 11.38C3.28057 10.04 2.73058 8.69 2.17058 7.38L2.09056 7.20999L2.00053 7.16Z" transform="translate(230.411 170.141)" fill="white"/>
<path d="M0.109985 5.89001C0.109985 4.13001 0.109985 2.36667 0.109985 0.600006C0.0853081 0.488016 0.0853081 0.372 0.109985 0.26001C0.169985 0.15001 0.280005 0 0.380005 0C1.54 0 2.71 0 3.87 0C4.05 0 4.13996 0.0700195 4.14996 0.27002C4.14996 0.763353 4.16668 1.25667 4.20001 1.75C4.20001 2.05 4.06999 2.13 3.79999 2.13H2.58997C2.30997 2.13 2.18 2.26003 2.19 2.56003C2.19 3.15003 2.19 3.74001 2.19 4.32001C2.19 4.59001 2.28999 4.70002 2.54999 4.68002L3.85999 4.63C4.04999 4.63 4.13 4.70001 4.13 4.89001C4.13 5.41668 4.13 5.94668 4.13 6.48001C4.13 6.70001 4.04001 6.79003 3.82001 6.78003H2.39996C2.18996 6.78003 2.10999 6.85003 2.10999 7.06003C2.10999 7.77003 2.10999 8.49001 2.10999 9.20001C2.10999 9.43001 2.22 9.54001 2.44 9.54001H3.78998C4.05998 9.54001 4.18999 9.64002 4.17999 9.93002C4.17999 10.38 4.17999 10.83 4.17999 11.28C4.17999 11.56 4.06999 11.68 3.79999 11.68H1.48999C1.12999 11.68 0.769983 11.68 0.419983 11.68C0.0699829 11.68 0 11.56 0 11.26C0 9.84001 0 8.43001 0 7.01001C0 6.62001 0 6.23002 0 5.83002L0.109985 5.89001Z" transform="translate(264.832 170.411)" fill="white"/>
<path d="M4.09003 7.01001C4.09003 8.41668 4.09003 9.82334 4.09003 11.23C4.09003 11.66 4.09 11.7 3.62 11.7H2.51001C1.98001 11.7 1.96002 11.7 1.96002 11.16C1.96002 8.38 1.96002 5.60335 1.96002 2.83002C1.96002 2.31002 1.96 2.31002 1.44 2.30002H0.299988C0.0899878 2.30002 0 2.20001 0 1.98001C0 1.52001 0 1.06001 0 0.600006C0 0.140006 0.0700366 0 0.600037 0H4.71002H5.71002C5.92002 0 6.03003 0.0600085 6.03003 0.290009C6.03003 0.870009 6.03003 1.44002 6.03003 2.02002C6.03003 2.26002 5.90001 2.31003 5.70001 2.31003H4.70001C4.25001 2.31003 4.22003 2.31002 4.22003 2.77002C4.22003 4.20002 4.22003 5.63003 4.22003 7.06003L4.09003 7.01001Z" transform="translate(238.432 170.411)" fill="white"/>
</svg>
