<svg xmlns="http://www.w3.org/2000/svg" xmlns:xlink="http://www.w3.org/1999/xlink" width="536" height="561" viewBox="0 0 536 561">
  <defs>
    <polygon id="logo-a" points=".474 .767 321.184 .767 321.184 66.231 .474 66.231"/>
    <polygon id="logo-c" points=".06 .878 376.714 .878 376.714 106.613 .06 106.613"/>
    <polygon id="logo-e" points=".919 .268 78.458 .268 78.458 55 .919 55"/>
  </defs>
  <g fill="none" fill-rule="evenodd">
    <path fill="#FFFFFE" d="M309.941 66.158C308.909 66.158 307.876 66.11 306.849 66.172 305.941 66.227 305.353 65.861 304.904 65.107 304.461 64.36 303.999 63.618 303.477 62.926 303.087 62.412 302.494 62.058 301.99 62.721 299.957 65.397 297 66.216 293.934 66.762 290.884 67.305 287.791 67.632 284.723 66.994 279.205 65.847 275.541 61.88 274.42 56.333 273.367 51.115 274.637 46.467 277.426 42.103 278.065 41.104 278.69 40.092 279.389 39.135 279.983 38.323 280.063 37.598 279.423 36.773 278.843 36.024 278.34 35.215 277.809 34.429 275.776 31.422 275.078 28.14 275.907 24.595 276.712 21.15 277.762 17.787 280.195 15.082 283.695 11.191 288.113 9.813 293.187 10.742 298.998 11.807 303.542 14.772 306.126 20.247 307.502 23.163 307.239 26.163 306.148 29.135 304.885 32.577 303.089 35.727 300.923 38.666 300.314 39.493 300.276 40.124 301.077 40.796 301.531 41.176 301.917 41.638 302.371 42.019 303.755 43.18 304.355 43.131 305.255 41.56 305.878 40.473 306.382 39.288 306.739 38.088 307.041 37.077 307.568 36.82 308.54 36.883 310.555 37.013 312.574 37.083 314.593 37.116 315.573 37.133 315.778 37.7 315.821 38.495 315.958 41.042 315.472 43.483 314.306 45.729 313.29 47.686 312.159 49.595 310.926 51.421 309.696 53.239 309.656 53.316 310.902 55.147 312.59 57.628 314.217 60.15 315.834 62.677 317.427 65.164 317.01 65.911 314.217 66.007 313.861 66.019 313.507 66.096 313.152 66.101 312.08 66.114 311.011 66.105 309.941 66.105L309.941 66.158zM289.759 55.5C291.716 55.453 293.46 54.776 295.075 53.713 295.594 53.372 295.97 52.901 295.51 52.343 294.232 50.793 292.933 49.255 291.55 47.799 290.873 47.087 289.989 47.278 289.544 48.097 288.724 49.609 287.862 51.146 287.377 52.779 286.859 54.529 287.912 55.565 289.759 55.5zM292.423 21.871C291.082 21.855 290.215 22.427 289.656 23.694 288.645 25.993 290 29.435 292.34 30.298 292.642 30.409 293.33 30.075 293.528 29.755 294.211 28.65 294.824 27.489 295.34 26.295 296.331 24.002 294.915 21.9 292.423 21.871zM225.893 21.554C225.893 24.012 225.868 26.471 225.918 28.927 225.926 29.338 226.339 30.11 226.426 30.091 227.025 29.959 227.848 29.818 228.11 29.384 228.923 28.039 229.516 26.561 230.2 25.137 231.943 21.505 233.724 17.89 235.419 14.234 236.133 12.693 237.062 11.914 238.899 12.128 241.846 12.472 244.824 12.542 247.782 12.807 249.394 12.952 249.471 13.199 248.744 14.644 244.911 22.264 241.115 29.903 237.227 37.496 236.508 38.899 236.368 40.188 237.048 41.551 238.969 45.401 240.858 49.268 242.886 53.061 244.693 56.44 246.669 59.73 248.569 63.059 248.706 63.299 248.854 63.536 248.961 63.79 249.519 65.12 249.026 65.887 247.586 65.863 246.557 65.845 245.53 65.729 244.501 65.682 241.534 65.545 238.568 65.39 235.599 65.305 234.216 65.265 233.476 64.514 232.881 63.372 230.578 58.957 228.239 54.56 225.884 50.172 225.69 49.812 225.27 49.573 224.955 49.277 224.806 49.662 224.533 50.045 224.528 50.432 224.461 54.986 224.4 59.541 224.416 64.095 224.421 65.672 224.066 66.208 222.458 66.144 220.126 66.051 217.791 65.938 215.471 65.697 213.559 65.5 213.038 64.901 213.056 63.014 213.126 55.723 213.319 48.434 213.329 41.144 213.341 32.784 213.255 24.424 213.112 16.065 213.054 12.63 212.927 12.521 216.302 12.256 218.97 12.046 221.662 12.13 224.344 12.125 225.517 12.123 225.872 12.866 225.86 13.942 225.834 16.479 225.852 19.017 225.852 21.554L225.893 21.554M39.367 34.043C39.367 39.552 39.481 45.064 39.315 50.568 39.243 52.95 38.799 55.369 38.169 57.674 37.109 61.556 34.509 64.171 30.684 65.464 26.245 66.964 21.696 67.405 17.135 66.207 11.215 64.652 7.576 60.798 6.557 54.725 6.008 51.454 5.44 48.133 5.441 44.835 5.444 35.007 5.709 25.179 5.906 15.351 5.947 13.283 6.021 13.191 8.018 13.004 10.502 12.772 12.996 12.646 15.489 12.553 16.906 12.5 17.271 12.935 17.26 14.57 17.2 24.084 17.079 33.597 17.076 43.111 17.076 45.189 17.3 47.304 17.728 49.337 18.379 52.429 21.362 53.027 23.704 52.2 25.33 51.625 25.758 50.152 25.799 48.654 25.961 42.516 26.121 36.376 26.127 30.236 26.131 25.044 25.946 19.852 25.78 14.662 25.744 13.526 26.244 12.994 27.251 12.944 30.533 12.781 33.821 12.671 37.106 12.561 38.296 12.521 38.638 13.237 38.664 14.312 38.823 20.889 39.01 27.465 39.189 34.041 39.247 34.042 39.307 34.042 39.367 34.043M375.788 34.012C375.788 39.522 375.9 45.033 375.736 50.537 375.665 52.92 375.225 55.338 374.599 57.646 373.545 61.527 370.956 64.152 367.133 65.454 362.696 66.965 358.144 67.407 353.585 66.216 347.667 64.671 344.011 60.831 342.981 54.754 342.434 51.524 341.863 48.243 341.864 44.984 341.869 35.077 342.133 25.17 342.332 15.262 342.37 13.287 342.457 13.193 344.407 13.009 346.852 12.779 349.307 12.657 351.76 12.552 353.274 12.488 353.68 12.888 353.675 14.42 353.648 21.952 353.549 29.484 353.569 37.015 353.577 40.889 353.579 44.782 353.962 48.628 354.258 51.602 356.38 52.878 359.299 52.419 361.104 52.134 362.157 50.926 362.22 48.685 362.389 42.586 362.549 36.485 362.553 30.385 362.557 25.154 362.373 19.921 362.198 14.692 362.158 13.481 362.71 12.982 363.758 12.93 366.963 12.772 370.17 12.661 373.377 12.545 374.561 12.503 375.06 13.09 375.087 14.281 375.237 20.858 375.43 27.435 375.608 34.011 375.668 34.011 375.728 34.012 375.788 34.012"/>
    <g fill="#FFFFFE" transform="translate(137 11)">
      <path d="M16.037 1.005C19.595 1.205 23.156 1.366 26.71 1.622 28.212 1.73 28.895 2.373 29.199 3.878 30.565 10.654 31.964 17.425 33.209 24.224 34.696 32.348 36.039 40.498 37.442 48.638 37.717 50.233 38.02 51.827 38.235 53.432 38.411 54.749 38.073 55.137 36.794 55.148 33.984 55.173 31.173 55.17 28.363 55.147 27.025 55.136 26.395 54.503 26.094 53.045 25.224 48.829 24.368 44.608 23.458 40.4 23.068 38.599 22.513 38.208 20.636 38.268 19.411 38.307 18.187 38.42 16.964 38.521 15.977 38.601 15.505 39.229 15.364 40.145 14.813 43.739 14.262 47.333 13.73 50.93 13.602 51.79 13.563 52.663 13.461 53.527 13.331 54.626 12.804 55.196 11.592 55.176 8.382 55.123 5.171 55.165 1.96 55.154.45 55.149.138 54.885.384 53.39.91 50.195 1.588 47.024 2.143 43.833 3.889 33.788 5.623 23.742 7.327 13.69 7.927 10.145 8.377 6.575 8.996 3.034 9.332 1.105 9.662.944 11.634.958 13.1.97 14.566.961 16.031.961 16.033.976 16.035.991 16.037 1.005M19.479 26.604C20.15 26.574 20.826 26.581 21.492 26.508 22.945 26.35 23.259 26.054 22.961 24.594 22.207 20.891 21.339 17.211 20.514 13.524 20.342 12.753 19.863 12.066 19.095 12.266 18.636 12.385 18.133 13.159 18.034 13.707 17.468 16.85 17.017 20.013 16.528 23.169 16.001 26.57 16.005 26.575 19.479 26.604M378.932 37.206C379.54 34.496 380.162 31.789 380.753 29.075 382.249 22.204 383.736 15.331 385.215 8.456 385.522 7.027 385.82 5.593 386.034 4.149 386.201 3.013 386.839 2.599 387.897 2.628 390.709 2.707 393.523 2.762 396.334 2.874 397.904 2.937 398.389 3.369 398.167 4.944 397.831 7.324 397.261 9.671 396.776 12.031 395.272 19.343 393.821 26.667 392.234 33.961 390.982 39.71 389.663 45.448 388.172 51.139 387.042 55.454 386.59 55.361 382.692 54.999 379.695 54.722 376.683 54.646 373.68 54.436 372.578 54.358 371.482 54.174 370.389 54.001 368.735 53.738 368.252 53.217 368.002 51.549 367.531 48.42 367.125 45.279 366.569 42.165 364.986 33.295 363.361 24.435 361.713 15.578 361.034 11.928 360.214 8.303 359.529 4.653 359.151 2.635 359.531 2.288 361.597 2.309 364.491 2.336 367.384 2.333 370.277 2.343 371.902 2.349 372.114 2.47 372.403 4.075 373.566 10.533 374.672 17.001 375.842 23.457 376.595 27.615 377.418 31.76 378.224 35.908 378.311 36.355 378.494 36.784 378.632 37.221 378.732 37.216 378.832 37.211 378.932 37.206"/>
    </g>
    <path fill="#FFFFFE" d="M470.478 39.827C470.478 31.981 470.477 24.133 470.481 16.286 470.482 15.812 470.483 15.329 470.565 14.865 470.803 13.525 471.274 13.085 472.639 13.082 478.581 13.07 484.524 13.077 490.466 13.112 491.911 13.12 492.277 13.52 492.332 14.979 492.432 17.591 492.497 20.207 492.575 22.82 492.581 23.019 492.58 23.217 492.568 23.415 492.448 25.4 491.956 25.907 489.967 25.939 488.423 25.962 486.871 25.979 485.333 25.864 484.341 25.791 483.924 26.177 483.896 27.086 483.828 29.342 483.754 31.6 483.774 33.857 483.776 34.096 484.378 34.529 484.706 34.533 486.289 34.552 487.874 34.458 489.458 34.398 491.17 34.333 491.989 35.001 492.107 36.695 492.241 38.67 492.277 40.652 492.385 42.629 492.447 43.773 491.918 44.336 490.802 44.369 488.941 44.425 487.079 44.468 485.218 44.509 483.766 44.542 483.603 44.7 483.599 46.185 483.595 48.008 483.638 49.833 483.583 51.654 483.551 52.701 483.973 53.049 484.987 53.032 487.048 53 489.11 53.099 491.17 53.055 492.105 53.036 492.548 53.475 492.545 54.287 492.534 57.734 492.491 61.182 492.366 64.627 492.353 64.999 491.767 65.584 491.364 65.663 490.052 65.924 488.702 66.109 487.364 66.125 482.411 66.179 477.456 66.158 472.502 66.155 470.822 66.154 470.25 65.583 470.247 63.846 470.236 55.84 470.241 47.835 470.241 39.827 470.32 39.827 470.399 39.827 470.478 39.827M208.767 18.314C208.767 19.304 208.789 20.296 208.762 21.286 208.72 22.82 208.267 23.483 206.764 23.795 204.873 24.187 202.938 24.359 201.042 24.731 194.653 25.982 191.823 29.05 191.227 35.535 190.916 38.919 191.259 42.273 192.71 45.404 194.907 50.146 198.944 52.351 203.846 53.304 204.699 53.47 205.556 53.629 206.419 53.722 207.362 53.824 207.71 54.424 207.783 55.241 208.037 58.12 208.278 61.001 208.493 63.882 208.566 64.863 208.199 65.672 207.11 65.735 205.178 65.846 203.236 65.951 201.306 65.872 196.84 65.69 192.538 64.774 188.549 62.648 182.256 59.294 178.465 54.036 176.844 47.17 175.522 41.569 175.239 35.903 177.17 30.424 180.538 20.867 187.406 15.239 197.388 13.591 200.302 13.11 203.301 13.089 206.265 12.982 208.387 12.903 208.714 13.304 208.784 15.461 208.815 16.41 208.789 17.362 208.789 18.314L208.767 18.314M55.738 12.179C58.134 12.411 61.2 12.476 64.167 13.05 68.432 13.876 70.912 16.817 71.646 20.978 72.759 27.278 71.883 33.28 68.066 38.619 65.278 42.52 61.472 45.066 56.978 46.579 56.097 46.876 55.863 47.264 55.909 48.084 56.218 53.541 56.505 59 56.812 64.457 56.897 65.966 56.738 66.176 55.2 66.151 52.308 66.103 49.415 66.04 46.524 65.963 45.064 65.924 44.911 65.786 44.884 64.286 44.797 59.572 44.788 54.855 44.663 50.141 44.431 41.35 44.167 32.558 43.857 23.769 43.748 20.684 43.468 17.605 43.26 14.523 43.174 13.244 43.398 12.953 44.653 12.872 48.127 12.648 51.602 12.437 55.738 12.179M55.373 25.165C55.654 27.747 56.007 30.452 56.217 33.168 56.307 34.343 56.901 34.487 57.778 34.23 58.249 34.091 58.738 33.813 59.083 33.464 61.086 31.443 62.27 29.079 62.007 26.136 61.782 23.641 59.957 21.83 57.458 21.662 55.316 21.518 55.318 21.518 55.371 23.606 55.383 24.079 55.373 24.553 55.373 25.165M87.843 12.196C90.381 12.403 93.293 12.415 96.116 12.924 100.502 13.715 103.208 16.568 103.988 20.907 105.11 27.159 104.272 33.121 100.53 38.46 97.749 42.43 93.926 45.007 89.405 46.558 88.491 46.872 88.213 47.247 88.264 48.13 88.58 53.587 88.866 59.045 89.173 64.503 89.254 65.955 89.087 66.174 87.63 66.151 84.738 66.105 81.845 66.042 78.954 65.966 77.408 65.926 77.264 65.8 77.239 64.24 77.137 57.901 77.154 51.557 76.949 45.221 76.654 36.117 76.207 27.017 75.818 17.916 75.767 16.729 75.706 15.542 75.601 14.359 75.512 13.35 75.934 12.917 76.936 12.862 80.452 12.669 83.966 12.436 87.843 12.196M87.711 23.593C87.678 23.597 87.644 23.601 87.611 23.605 87.94 26.788 88.264 29.971 88.602 33.153 88.723 34.292 89.163 34.604 90.236 34.211 90.737 34.028 91.216 33.684 91.6 33.306 92.922 32.005 93.814 30.43 94.252 28.629 95.237 24.576 92.916 21.589 88.879 21.617 88.034 21.623 87.593 21.851 87.706 22.762 87.739 23.035 87.711 23.316 87.711 23.593M392.155 12.179C394.553 12.411 397.618 12.476 400.586 13.05 404.851 13.875 407.332 16.815 408.067 20.976 409.18 27.276 408.304 33.279 404.486 38.618 401.698 42.52 397.893 45.065 393.4 46.579 392.52 46.876 392.281 47.262 392.328 48.082 392.638 53.54 392.925 58.998 393.233 64.456 393.318 65.966 393.156 66.176 391.622 66.151 388.729 66.103 385.837 66.04 382.945 65.963 381.484 65.924 381.332 65.786 381.304 64.288 381.218 59.573 381.208 54.856 381.084 50.143 380.852 41.351 380.588 32.56 380.277 23.77 380.169 20.685 379.889 17.606 379.68 14.525 379.593 13.245 379.819 12.953 381.07 12.872 384.546 12.648 388.021 12.436 392.155 12.179M391.772 23.567C391.878 25.145 391.951 26.726 392.098 28.301 392.248 29.913 392.467 31.518 392.659 33.126 392.801 34.301 393.281 34.624 394.386 34.184 394.848 34 395.285 33.678 395.644 33.327 396.967 32.025 397.86 30.454 398.308 28.655 399.333 24.54 396.825 21.412 392.732 21.622 392.021 21.658 391.713 21.908 391.767 22.616 391.791 22.931 391.771 23.249 391.772 23.567M424.258 12.196C426.797 12.403 429.709 12.415 432.532 12.923 436.919 13.712 439.626 16.564 440.407 20.903 441.532 27.155 440.693 33.117 436.953 38.457 434.172 42.427 430.349 45.005 425.829 46.557 424.919 46.87 424.633 47.24 424.684 48.126 425 53.583 425.285 59.041 425.592 64.499 425.674 65.954 425.507 66.174 424.054 66.151 421.162 66.105 418.27 66.042 415.378 65.967 413.829 65.926 413.685 65.801 413.659 64.244 413.557 57.865 413.575 51.482 413.369 45.106 413.075 36.041 412.627 26.982 412.237 17.92 412.188 16.733 412.126 15.546 412.021 14.363 411.932 13.357 412.347 12.917 413.352 12.862 416.868 12.669 420.382 12.436 424.258 12.196M430.817 27.128C430.957 23.725 428.832 21.621 425.331 21.614 424.402 21.613 424.037 21.907 424.124 22.85 424.439 26.272 424.71 29.698 425.022 33.121 425.13 34.304 425.634 34.623 426.74 34.185 427.202 34.002 427.652 33.689 427.997 33.328 429.653 31.596 430.772 29.602 430.817 27.128M129.776 45.91C129.776 51.936 129.777 57.961 129.775 63.987 129.775 65.922 129.537 66.157 127.586 66.158 124.612 66.159 121.639 66.162 118.666 66.157 116.95 66.154 116.493 65.725 116.495 63.967 116.508 54.175 116.546 44.384 116.559 34.593 116.562 32.374 116.515 30.155 116.458 27.937 116.42 26.455 116.165 26.246 114.724 26.151 112.906 26.034 111.092 25.857 109.275 25.738 108.342 25.677 107.944 25.205 107.942 24.294 107.937 21.003 107.914 17.712 107.9 14.422 107.896 13.488 108.338 13.095 109.298 13.096 118.096 13.109 126.895 13.085 135.694 13.098 137.689 13.101 137.978 13.386 138.027 15.359 138.096 18.172 138.131 20.988 138.109 23.802 138.094 25.783 137.76 26.054 135.79 26.024 134.363 26.002 132.934 26.007 131.511 25.925 130.435 25.862 129.93 26.165 129.938 27.362 129.98 33.545 129.958 39.727 129.958 45.91 129.897 45.91 129.837 45.91 129.776 45.91"/>
    <g transform="translate(145)">
      <mask id="logo-b" fill="#fff">
        <use xlink:href="#logo-a"/>
      </mask>
      <path fill="#FFFFFE" d="M311.584 66.204C308.496 66.204 305.405 66.28 302.32 66.175 300.47 66.113 299.813 65.291 299.821 63.418 299.897 47.684 299.98 31.95 300.079 16.216 300.093 13.975 300.362 13.723 302.607 13.594 304.542 13.483 306.481 13.379 308.418 13.358 310.369 13.336 310.902 13.889 310.966 15.791 311.291 25.374 311.602 34.958 311.945 44.54 312.027 46.795 312.248 49.046 312.354 51.301 312.401 52.316 312.856 52.695 313.847 52.659 315.589 52.594 317.334 52.617 319.077 52.561 320.148 52.526 320.737 52.977 320.779 54.055 320.923 57.734 321.072 61.412 321.183 65.092 321.213 66.12 320.398 66.146 319.669 66.149 316.975 66.163 314.279 66.155 311.584 66.155 311.584 66.171 311.584 66.188 311.584 66.204M.474 5.618C.452 2.952 2.539.775 5.126.767 7.391.76 9.619 2.969 9.67 5.272 9.731 7.998 7.6 10.415 5.137 10.413 2.203 10.412.5 8.66.474 5.618" mask="url(#logo-b)"/>
    </g>
    <path fill="#FFFFFE" d="M162.548,1.197 C165.112,1.194 167.63,3.34 167.64,5.536 C167.652,8.372 165.536,10.191 162.221,10.192 C159.903,10.193 158.101,8.026 158.133,5.278 C158.159,3.094 160.208,1.2 162.548,1.197"/>
    <path fill="#BD933B" d="M107.326 156.646C107.35 146.346 110.567 134.225 119.28 123.744 136.297 103.275 171.881 101.936 187.595 127.844 193.152 137.004 195.437 146.9 195.283 157.397 195.147 166.708 193.97 175.847 190.435 184.588 184.995 198.041 175.891 208.18 160.42 211.555 140.638 215.87 121.692 209.05 112.978 188.937 108.879 179.478 107.621 169.529 107.326 156.646M127.032 159.285C127.199 167.587 129.465 175.473 135.433 182.07 140.913 188.127 147.817 191.034 156.382 189.392 163.625 188.003 168.432 183.586 171.922 177.773 177.052 169.23 177.566 160.089 175.541 150.667 174.229 144.557 171.955 138.852 167.383 134.208 159.176 125.871 144.365 126.639 135.785 135.757 129.518 142.417 127.212 150.376 127.032 159.285M220.939 177.065C220.851 178.131 220.661 179.199 220.691 180.263 220.955 189.667 221.246 199.071 221.556 208.476 221.664 211.744 221.378 212.161 217.921 212.032 214 211.887 210.086 211.542 206.172 211.252 203.664 211.066 202.676 209.729 202.699 207.393 202.834 192.871 202.848 178.348 203.015 163.826 203.18 149.525 203.436 135.227 203.752 120.929 203.82 117.833 204.208 114.731 204.663 111.662 204.908 110.009 205.998 108.794 208.013 108.827 217.679 108.977 227.386 108.688 236.998 109.452 245.1 110.095 252.539 113.051 256.792 120.227 258.354 122.862 259.519 125.994 259.77 128.98 260.635 139.251 259.064 149.183 253.56 158.321 250.69 163.089 246.922 167.127 242.356 170.49 240.904 171.56 240.807 172.433 241.611 174.032 247.548 185.846 253.339 197.723 259.175 209.581 259.937 211.129 259.442 212.063 257.603 212.119 252.414 212.274 247.224 212.467 242.038 212.396 241.252 212.383 240.204 211.16 239.756 210.28 236.464 203.826 233.404 197.266 230.047 190.842 227.902 186.738 225.386 182.807 222.999 178.818 222.592 178.142 221.997 177.566 221.488 176.944 221.305 176.984 221.122 177.024 220.939 177.065M222.818 140.944L222.549 140.944C222.549 145.53 222.601 150.117 222.525 154.702 222.493 156.647 223.42 157.528 225.387 157.738 231.258 158.364 234.803 156.555 237.263 151.458 239.954 145.884 240.774 139.918 240.331 133.923 239.724 125.736 233.743 121.926 225.553 123.957 223.685 124.42 222.757 125.282 222.792 127.189 222.872 131.773 222.818 136.359 222.818 140.944M281.175 107.631C286.668 108 292.154 108.486 297.654 108.711 307.612 109.119 313.755 114.48 318.141 122.28 322.522 130.074 324.67 138.474 325.046 147.187 325.535 158.539 324.829 169.871 321.785 180.92 319.267 190.067 315.232 198.52 307.204 204.729 303.118 207.888 298.416 209.827 293.262 210.876 286.584 212.234 279.847 212.496 273.099 211.666 269.88 211.271 269 210.168 268.587 207.155 268.495 206.497 268.498 205.823 268.489 205.157 268.31 188.849 268.192 172.539 267.942 156.23 267.736 142.888 267.366 129.548 267.104 116.208 267.071 114.584 267.262 112.959 267.342 111.334 267.457 108.99 268.838 107.811 271.248 107.765 274.552 107.701 277.857 107.749 281.161 107.749 281.167 107.709 281.171 107.67 281.175 107.631M307.413 157.509C307.181 154.697 307.076 151.807 306.68 148.951 305.827 142.833 304.348 136.886 300.359 131.78 297.42 128.019 293.402 126.07 288.494 125.971 287.648 125.955 286.547 126.903 285.986 127.678 285.512 128.336 285.526 129.386 285.53 130.263 285.638 148.771 285.771 167.278 285.909 185.786 285.925 187.714 286.917 188.933 288.935 189.502 292.151 190.41 294.827 189.67 297.346 186.557 304.254 178.015 307.042 168.172 307.413 157.509M475.973 159.627C475.671 145.026 475.354 130.425 475.086 115.823 475.055 114.129 475.241 112.424 475.431 110.735 475.618 109.059 476.612 107.998 478.469 107.895 480.586 107.775 482.715 107.604 484.826 107.697 492.372 108.033 499.924 108.335 507.451 108.905 516.488 109.589 521.969 115.012 525.993 122.027 530.477 129.842 532.644 138.33 533.026 147.126 533.525 158.553 532.816 169.964 529.734 181.077 527.222 190.136 523.187 198.515 515.238 204.694 510.108 208.682 504.101 210.892 497.608 211.481 492.159 211.975 486.616 211.907 481.143 211.63 477.829 211.462 476.93 210.13 476.551 206.995 476.48 206.408 476.473 205.812 476.472 205.218 476.468 190.022 476.469 174.825 476.469 159.628 476.304 159.627 476.139 159.627 475.973 159.627M493.484 157.821L493.879 157.821C493.879 166.928 493.868 176.035 493.885 185.142 493.89 188.177 495.359 189.567 498.538 189.834 501.577 190.086 503.667 188.587 505.349 186.544 511.343 179.258 514.354 170.808 515.079 161.771 515.813 152.635 514.89 143.585 510.528 135.159 508.352 130.952 505.187 127.724 500.165 126.449 494.678 125.056 493.5 125.849 493.488 131.173 493.47 140.056 493.484 148.938 493.484 157.821"/>
    <path fill="#BD933B" d="M72.443,170.963 C72.443,175.638 72.361,179.624 72.459,183.606 C72.674,192.276 72.917,200.946 73.292,209.611 C73.384,211.75 72.594,212.33 70.465,212.139 C66.087,211.747 61.696,211.439 57.303,211.218 C55.736,211.139 55.292,210.501 55.286,209.148 C55.265,205.07 55.077,200.993 55.103,196.916 C55.282,169.41 55.498,141.905 55.715,114.399 C55.721,113.443 55.783,112.475 55.962,111.536 C56.242,110.047 57.161,109.238 58.88,109.198 C63.364,109.093 67.851,108.96 72.331,108.735 C74.491,108.627 75.201,109.395 75.179,111.439 C75.068,121.67 75.092,131.902 75.07,142.134 C75.068,142.915 75.07,143.697 75.07,144.478 C75.259,144.539 75.448,144.6 75.638,144.661 C76.76,142.859 78.013,141.118 78.98,139.244 C83.267,130.942 87.52,122.623 91.684,114.265 C93.693,110.233 94.498,109.569 99.199,109.793 C102.81,109.965 106.416,110.301 110.01,110.687 C111.436,110.839 112.578,111.252 111.596,113.147 C107.818,120.44 104.061,127.749 100.521,135.146 C97.173,142.146 94.031,149.236 90.984,156.357 C90.459,157.582 90.396,159.329 90.904,160.544 C97.623,176.612 104.465,192.635 111.324,208.651 C112.452,211.284 112.054,212.037 109.067,212.053 C104.261,212.078 99.456,212.066 94.651,212.058 C91.247,212.052 91.046,211.714 89.723,208.73 C84.382,196.672 78.921,184.66 73.492,172.635 C73.318,172.246 73.036,171.9 72.443,170.963"/>
    <g transform="translate(0 107)">
      <mask id="logo-d" fill="#fff">
        <use xlink:href="#logo-c"/>
      </mask>
      <path fill="#BD933B" d="M333.44 51.912C333.799 36.943 334.126 21.972 334.538 7.005 334.655 2.723 335.681 1.874 340.28 1.863 350.991 1.839 361.703 1.843 372.416 1.86 375.346 1.864 376.1 2.378 376.285 5.154 376.579 9.512 376.683 13.887 376.714 18.255 376.729 20.43 375.608 21.276 372.789 21.423 367.366 21.707 361.939 21.906 356.514 22.148 353.041 22.303 352.082 23.23 352.082 26.51 352.082 31.329 352.104 36.148 352.142 40.966 352.169 44.371 352.944 45.085 356.637 45.085 359.944 45.084 363.253 45.01 366.561 45.014 369.512 45.018 370.042 45.511 370.086 48.196 370.156 52.569 370.144 56.944 370.296 61.315 370.366 63.396 369.542 64.256 367.297 64.257 363.677 64.258 360.057 64.45 356.437 64.574 353.364 64.678 352.466 65.376 352.39 68.273 352.263 73.161 352.241 78.054 352.341 82.943 352.396 85.635 353.742 86.844 356.65 86.868 362.16 86.915 367.677 86.873 373.186 86.729 375.393 86.672 376.257 87.317 376.249 89.494 376.233 93.64 376.565 97.786 376.651 101.934 376.707 104.585 376.149 105.111 373.367 105.047 362.353 104.79 351.337 104.538 340.325 104.169 335.032 103.992 333.216 102.122 333.203 97.056 333.169 82.008 333.192 66.961 333.192 51.914 333.274 51.913 333.357 51.913 333.44 51.912M30.822.878C33.863 1.593 39.183 2.792 44.47 4.109 46.664 4.656 47.403 6.081 46.728 8.187 45.596 11.718 44.509 15.262 43.468 18.817 42.958 20.559 41.635 20.611 40.133 20.457 37.4 20.174 34.663 19.917 31.932 19.61 23.22 18.627 21.489 24.467 21.844 30.094 22.126 34.579 24.672 38.17 27.631 41.505 31.714 46.107 36.008 50.554 39.9 55.292 46.632 63.49 48.191 72.941 46.954 83.017 46.259 88.68 44.89 94.064 41.156 98.714 33.775 107.91 18.622 109.358 9.702 101.569 6.887 99.111 4.338 96.353 1.903 93.551-.799 90.441-.609 88.411 2.379 85.597 4.099 83.976 6.04 82.563 7.789 80.968 8.986 79.875 10.045 79.87 11.3 80.832 13.436 82.466 15.568 84.109 17.797 85.626 22.986 89.155 27.216 87.556 28.433 81.7 29.573 76.212 28.044 71.097 24.947 66.681 21.33 61.522 17.036 56.76 12.776 52.033 8.331 47.098 3.865 42.205 1.971 35.828-3.421 17.676 9.303 1.116 30.822.878" mask="url(#logo-d)"/>
    </g>
    <path fill="#BD933B" d="M401.726 170.171C401.726 157.8 401.734 145.428 401.721 133.057 401.717 130.065 401.435 129.822 398.174 129.807 394.316 129.789 390.457 129.752 386.6 129.813 384.907 129.838 384.185 129.275 384.204 127.62 384.269 122.137 384.269 116.653 384.213 111.169 384.193 109.276 385.037 108.486 387.026 108.486 402.378 108.481 417.731 108.428 433.083 108.434 435.862 108.436 437.048 109.417 437.114 112.023 437.245 116.985 437.183 121.952 437.13 126.917 437.111 128.779 435.985 129.745 433.986 129.763 431.152 129.791 428.313 129.721 425.486 129.867 421.946 130.051 421.106 130.927 421.094 134.28 421.007 158.955 420.941 183.628 420.871 208.302 420.861 211.999 420.809 212.113 416.928 212.043 412.916 211.973 408.907 211.768 404.898 211.618 401.656 211.498 400.829 210.781 400.851 207.735 400.913 199.066 401.062 190.399 401.148 181.731 401.187 177.878 401.154 174.025 401.154 170.171 401.345 170.171 401.536 170.171 401.726 170.171M465.775 159.976C465.775 176.273 465.777 192.571 465.772 208.869 465.771 211.987 465.669 212.209 462.285 212.023 457.434 211.758 452.597 211.253 447.756 210.83 445.815 210.658 445.149 209.585 445.18 207.797 445.478 190.613 445.696 173.428 446.001 156.244 446.257 141.876 446.597 127.506 446.901 113.138 446.986 109.133 447.327 108.74 451.611 108.491 455.38 108.272 459.157 108.147 462.932 108.072 466.207 108.007 466.46 108.269 466.437 111.303 466.321 126.342 466.187 141.38 466.062 156.419 466.052 157.605 466.061 158.791 466.061 159.976 465.965 159.976 465.87 159.976 465.775 159.976M147.422 94.31C147.319 100.384 142.296 104.071 136.646 102.149 135.728 101.837 134.803 101.26 134.158 100.574 131.149 97.375 131.836 90.76 135.398 88.1 137.666 86.407 140.167 85.873 142.869 87.099 145.688 88.378 147.473 91.269 147.422 94.31M169.222 94.792C169.15 99.782 166.431 102.148 160.787 102.132 156.465 102.119 153.382 98.566 153.471 93.699 153.532 90.347 157.049 87.435 160.986 87.477 165.804 87.528 169.282 90.617 169.222 94.792"/>
    <path fill="#FFFFFE" d="M442.982 303.405C442.982 300.552 442.935 297.698 442.988 294.845 443.34 276.334 443.714 257.824 444.075 239.313 444.152 235.375 444.858 234.719 449.083 234.689 452.751 234.663 456.426 234.743 460.083 234.546 462.313 234.427 462.975 235.184 462.972 237.196 462.958 249.434 463.06 261.673 463.081 273.912 463.117 295.173 463.125 316.435 463.142 337.696 463.143 338.717 463.13 339.736 463.093 340.756 463.024 342.661 462.027 343.704 459.938 343.521 455.965 343.173 451.999 342.764 448.029 342.383 446.704 342.257 445.382 342.074 444.055 342.032 440.731 341.927 438.472 340.574 437.142 337.589 433.355 329.088 429.427 320.642 425.561 312.173 422.447 305.354 419.348 298.53 416.232 291.713 415.953 291.105 415.606 290.524 414.795 290.016 414.795 290.846 414.794 291.677 414.795 292.507 414.813 307.412 414.837 322.316 414.848 337.222 414.852 343.658 414.837 343.707 408.142 343.401 404.735 343.247 401.343 342.797 397.936 342.634 395.675 342.525 394.929 341.553 395.005 339.498 395.445 327.585 395.995 315.671 396.154 303.754 396.421 283.752 396.421 263.746 396.533 243.742 396.545 241.781 396.494 239.817 396.593 237.859 396.691 235.896 397.71 234.503 399.943 234.489 403.268 234.469 406.618 234.449 409.904 234.834 410.875 234.948 412.023 236.286 412.482 237.305 422.305 259.095 432.04 280.921 441.797 302.736 441.913 302.997 442.095 303.231 442.245 303.479 442.49 303.454 442.736 303.431 442.982 303.405M92.326 233.279C92.326 236.395 92.327 239.138 92.326 241.879 92.322 253.412 92.366 264.944 92.272 276.476 92.255 278.684 92.899 279.558 95.378 279.477 99.707 279.335 104.05 279.408 108.382 279.559 110.589 279.636 111.491 279.017 111.533 276.812 111.726 266.614 112.056 256.418 112.367 246.223 112.465 243.009 112.71 239.798 112.791 236.584 112.843 234.554 113.892 233.438 115.979 233.452 121.397 233.486 126.813 233.637 132.23 233.756 133.886 233.793 133.979 234.901 133.957 236.076 133.891 239.764 133.863 243.453 133.765 247.14 132.951 277.731 132.123 308.321 131.304 338.913 131.197 342.937 130.64 343.461 126.295 343.464 121.876 343.469 117.45 343.327 113.04 343.519 110.519 343.628 109.832 342.669 109.866 340.523 110.042 329.148 110.17 317.772 110.282 306.395 110.343 300.147 110.314 300.142 103.64 300.278 100.64 300.34 97.639 300.519 94.641 300.474 92.479 300.441 91.748 301.279 91.706 303.267 91.472 314.563 91.141 325.856 90.836 337.151 90.63 344.777 90.56 343.393 83.989 343.836 80.937 344.041 77.842 343.601 74.764 343.574 72.236 343.553 71.552 342.39 71.62 340.155 71.836 333.097 71.894 326.032 71.988 318.971 72.264 298.413 72.549 277.856 72.784 257.298 72.866 250.158 72.889 243.015 72.768 235.875 72.733 233.765 73.466 233.186 75.634 233.236 81.111 233.366 86.592 233.279 92.326 233.279M486.5 232.924C492.36 233.319 498.251 233.839 504.155 234.087 514.602 234.527 521.048 240.186 525.659 248.335 530.319 256.567 532.604 265.462 533.014 274.686 533.552 286.781 532.798 298.857 529.542 310.624 526.866 320.298 522.564 329.242 514.033 335.786 509.694 339.115 504.702 341.157 499.25 342.247 492.266 343.644 485.21 343.928 478.149 343.067 474.604 342.636 473.654 341.443 473.242 338.15 473.164 337.528 473.162 336.897 473.155 336.27 472.966 319.086 472.839 301.9 472.574 284.718 472.356 270.438 471.97 256.162 471.682 241.883 471.652 240.398 471.68 238.897 471.877 237.426 472.36 233.847 473.097 233.248 476.949 232.969 477.365 232.94 477.782 232.926 478.199 232.926 480.948 232.922 483.698 232.924 486.5 232.924M491.162 285.868C491.303 285.867 491.442 285.867 491.581 285.867 491.581 295.586 491.569 305.304 491.589 315.022 491.595 318.207 493.181 319.673 496.566 319.939 499.786 320.191 501.956 318.564 503.759 316.421 509.647 309.413 512.688 301.195 513.777 292.516 515.087 282.069 514.108 271.716 509.181 262.023 506.864 257.465 503.354 254.064 497.953 252.747 492.459 251.408 491.186 252.302 491.169 257.662 491.144 267.064 491.162 276.466 491.162 285.868M169.453 236.577C174.617 236.577 179.781 236.529 184.944 236.594 188.219 236.633 189.098 237.225 189.787 240.237 192.879 253.763 196.081 267.269 198.858 280.852 201.873 295.599 204.488 310.42 207.219 325.218 208.058 329.763 208.841 334.324 209.389 338.906 209.712 341.604 209.051 342.122 206.171 342.133 200.837 342.151 195.501 342.055 190.166 342.067 188.437 342.071 187.538 341.372 187.318 339.776 186.697 335.277 186.011 330.785 185.426 326.281 184.881 322.082 184.384 317.879 183.966 313.666 183.814 312.129 182.837 311.552 181.489 311.603 176.164 311.807 170.837 312.035 165.532 312.485 164.715 312.556 163.542 313.731 163.337 314.569 162.221 319.137 161.277 323.744 160.429 328.364 159.65 332.605 159.046 336.873 158.412 341.136 158.192 342.616 157.337 343.504 155.805 343.456 151.064 343.314 146.309 343.226 141.597 342.772 138.652 342.488 137.956 341.306 138.465 338.509 140.357 328.102 142.358 317.712 144.222 307.3 146.817 292.796 149.266 278.267 151.894 263.768 153.431 255.288 155.246 246.853 156.823 238.378 157.188 236.418 158.285 235.72 160.212 235.726 163.293 235.733 166.374 235.728 169.455 235.728 169.454 236.011 169.453 236.293 169.453 236.577M172.27 252.183C171.959 252.272 171.648 252.363 171.337 252.454 171.01 253.562 170.562 254.651 170.378 255.78 169.369 261.966 168.389 268.156 167.47 274.356 166.62 280.091 165.782 285.831 165.127 291.589 165.009 292.629 165.496 294.456 166.219 294.735 170.458 296.368 174.941 296.701 179.346 295.368 180.191 295.113 181.297 293.561 181.157 292.787 178.837 280.002 176.359 267.243 173.83 254.492 173.665 253.66 172.806 252.95 172.27 252.183M378.455 342.053C375.871 342.053 373.281 341.971 370.703 342.078 368.645 342.164 367.6 341.397 367.356 339.472 366.608 333.565 365.802 327.666 365.036 321.763 364.693 319.119 364.304 316.478 364.104 313.823 363.98 312.183 363.004 311.536 361.523 311.595 356.198 311.806 350.871 312.036 345.568 312.495 344.763 312.565 343.628 313.783 343.417 314.64 342.329 319.053 341.409 323.508 340.593 327.975 339.804 332.292 339.172 336.637 338.553 340.981 338.328 342.562 337.5 343.517 335.84 343.464 331.1 343.313 326.345 343.218 321.634 342.751 318.733 342.464 318.08 341.263 318.591 338.431 320.426 328.251 322.333 318.083 324.156 307.902 326.796 293.168 329.33 278.417 332.018 263.689 333.565 255.211 335.365 246.773 336.958 238.302 337.304 236.467 338.332 235.684 340.162 235.741 348.822 236.018 357.483 236.327 366.144 236.63 368.644 236.717 369.495 238.35 369.95 240.308 372.149 249.774 374.604 259.198 376.476 268.724 380.92 291.335 385.086 313.996 389.36 336.639 389.445 337.101 389.498 337.569 389.527 338.038 389.758 341.705 389.291 342.18 385.456 342.147 384.289 342.139 383.123 342.084 381.956 342.07 380.789 342.057 379.622 342.066 378.455 342.066L378.455 342.053zM352.31 252.169C352.058 252.236 351.806 252.303 351.553 252.371 351.198 253.458 350.696 254.524 350.515 255.636 349.489 261.899 348.506 268.168 347.577 274.444 346.738 280.104 345.978 285.772 345.213 291.439 345.038 292.732 344.558 294.271 346.379 294.87 350.619 296.269 354.994 296.71 359.315 295.405 360.214 295.134 361.4 293.509 361.254 292.699 358.959 279.989 356.489 267.308 353.968 254.635 353.791 253.748 352.88 252.988 352.31 252.169zM215.916 288.974C216.208 272.425 216.477 255.874 216.809 239.325 216.895 235.02 217.854 234.091 222.351 233.783 226.003 233.534 229.669 233.468 233.325 233.271 235.784 233.139 236.835 234.327 236.923 236.488 236.964 237.506 236.965 238.527 236.964 239.546 236.945 265.437 236.92 291.328 236.906 317.219 236.902 322.931 236.92 322.924 243.024 322.861 247.358 322.818 251.694 322.853 256.027 322.745 258.239 322.689 259.311 323.661 259.414 325.621 259.665 330.397 259.83 335.178 260.071 339.955 260.175 342.004 259.243 342.978 257.035 343.071 252.379 343.27 247.728 343.771 243.075 343.778 235.326 343.793 227.575 343.53 219.826 343.357 215.247 343.256 214.698 342.731 214.775 338.38 215.063 321.909 215.381 305.439 215.688 288.97 215.764 288.972 215.84 288.973 215.916 288.974M268.951 289.049C269.242 272.5 269.509 255.949 269.84 239.4 269.928 235.009 270.925 234.07 275.557 233.772 279.126 233.542 282.704 233.375 286.281 233.302 288.988 233.246 289.809 234.064 289.96 236.648 290.02 237.665 290 238.687 289.999 239.707 289.981 265.519 289.954 291.331 289.941 317.143 289.937 322.932 289.952 322.924 295.98 322.864 300.314 322.819 304.65 322.86 308.982 322.742 311.327 322.678 312.367 323.718 312.466 325.781 312.694 330.48 312.872 335.181 313.108 339.88 313.206 341.873 312.417 342.968 310.149 343.063 305.409 343.262 300.676 343.765 295.94 343.775 288.275 343.795 280.607 343.529 272.941 343.36 268.287 343.258 267.735 342.751 267.81 338.455 268.097 321.984 268.413 305.515 268.719 289.046 268.796 289.047 268.874 289.048 268.951 289.049M25.549 288.661C25.549 305.833 25.553 323.006 25.545 340.179 25.543 343.355 25.404 343.586 22.007 343.434 17.193 343.22 12.376 342.92 7.589 342.412 4.107 342.043 3.721 341.469 3.778 338.156 4.368 304.758 4.97 271.359 5.587 237.962 5.646 234.752 6.006 234.246 9.415 233.98 13.975 233.624 18.564 233.609 23.136 233.363 25.56 233.233 26.317 234.238 26.288 236.438 26.109 250.08 26.021 263.724 25.918 277.368 25.89 281.132 25.914 284.897 25.914 288.661L25.549 288.661M287.481 397.406C285.433 393.137 283.384 388.865 281.336 384.595 281.261 384.608 281.187 384.622 281.111 384.637 280.989 388.131 280.84 391.626 280.753 395.122 280.672 398.367 280.669 401.613 280.606 404.858 280.573 406.488 280.294 406.724 278.579 406.585 277.043 406.461 275.517 406.25 273.981 406.135 272.996 406.061 272.637 405.577 272.66 404.709 272.691 403.596 272.693 402.481 272.71 401.367 272.895 390.13 273.08 378.893 273.265 367.655 273.296 365.758 273.496 365.623 275.501 365.607 277.86 365.589 279.486 366.287 280.579 368.512 282.821 373.066 285.394 377.477 287.833 381.944 288.081 382.397 288.355 382.838 288.804 383.606 289.793 381.502 290.719 379.692 291.503 377.828 292.9 374.511 294.239 371.171 295.535 367.817 295.908 366.855 296.462 366.366 297.565 366.457 299.202 366.59 300.841 366.723 302.483 366.817 303.699 366.889 304.131 367.459 304.118 368.591 304.071 372.611 304.142 376.633 304.086 380.653 303.983 388.209 303.79 395.765 303.715 403.32 303.703 404.599 303.319 405.042 301.956 404.932 300.474 404.811 298.97 404.811 297.482 404.868 296.207 404.917 295.808 404.469 295.815 403.267 295.851 397.308 295.799 391.349 295.779 385.39 295.777 384.928 295.779 384.466 295.52 383.956 293.035 388.48 290.551 393.003 288.068 397.526 287.871 397.486 287.676 397.446 287.481 397.406M329.715 387.002C330.29 387.317 330.688 387.536 331.085 387.752 335.615 390.202 337.181 393.408 335.993 398.209 335.626 399.693 335.004 401.165 334.24 402.513 332.582 405.434 330.027 407.038 326.355 406.825 322.813 406.619 319.267 406.476 315.722 406.338 314.6 406.294 314.112 405.934 314.101 404.77 313.979 392.466 313.794 380.165 313.641 367.862 313.618 366.067 313.804 365.819 315.763 365.882 318.94 365.985 322.153 366.002 325.276 366.489 332.944 367.686 335.525 372.649 334.078 379.172 333.655 381.087 332.388 382.849 331.422 384.64 330.986 385.447 330.337 386.154 329.715 387.002M320.399 378.863L320.414 378.863C320.414 380.361 320.329 381.866 320.469 383.354 320.508 383.775 321.146 384.392 321.611 384.49 323.296 384.847 324.79 384.279 325.419 382.766 326.097 381.137 326.688 379.383 326.794 377.657 327.017 374.05 325.695 373.001 321.89 373.124 320.82 373.159 320.398 373.575 320.399 374.514 320.4 375.963 320.399 377.413 320.399 378.863M320.357 395.655L320.375 395.655C320.375 396.188 320.361 396.72 320.377 397.25 320.491 400.622 319.619 400.423 324.145 400.347 326.78 400.302 327.936 399.077 328.258 396.543 328.563 394.155 327.342 392.156 325.041 391.574 323.923 391.292 322.718 391.297 321.548 391.216 320.625 391.153 320.294 391.61 320.342 392.466 320.402 393.526 320.357 394.593 320.357 395.655M377.425 390.278C377.425 394.978 377.434 399.677 377.421 404.376 377.415 406.256 377.285 406.379 375.306 406.328 374.229 406.302 373.152 406.207 372.079 406.094 369.899 405.865 369.807 405.778 369.832 403.679 369.889 399.222 369.951 394.764 370.054 390.307 370.223 382.897 370.429 375.486 370.61 368.075 370.665 365.756 370.726 365.68 373.118 365.706 375.742 365.734 378.366 365.769 380.99 365.809 386.896 365.897 390.748 368.789 391.743 374.229 392.351 377.543 392.247 380.951 390.67 384.049 389.85 385.655 388.558 387.106 387.234 388.408 386.473 389.156 386.205 389.664 386.607 390.631 388.468 395.127 390.272 399.643 392.079 404.157 392.291 404.686 392.402 405.249 392.659 406.138 389.939 405.96 387.442 405.91 384.997 405.55 384.432 405.466 383.849 404.374 383.607 403.647 382.242 399.55 380.944 395.433 379.707 391.3 379.377 390.191 378.902 389.694 377.425 390.278M384.956 378.347C384.524 377.04 384.183 375.414 383.453 373.961 382.558 372.177 380.8 371.483 378.849 371.749 377.869 371.882 377.303 372.219 377.355 373.323 377.497 376.37 377.515 379.424 377.601 382.474 377.66 384.606 378.319 385.065 380.581 384.656 382.29 384.349 383.505 383.428 384.094 381.931 384.498 380.902 384.624 379.778 384.956 378.347M195.621 386.235C195.381 380.281 195.146 374.328 194.899 368.374 194.807 366.155 194.957 365.931 197.308 365.88 200.442 365.813 203.578 365.82 206.712 365.839 209.275 365.855 211.06 367.103 212.305 369.13 216.131 375.357 214.361 384.103 208.34 388.501 206.841 389.597 205.268 390.611 203.655 391.552 202.888 391.997 202.63 392.482 202.667 393.295 202.843 397.118 202.959 400.943 203.119 404.767 203.189 406.447 203.062 406.605 201.285 406.613 200.1 406.62 198.913 406.564 197.733 406.628 196.432 406.7 195.988 406.103 195.981 404.981 195.969 402.752 195.903 400.524 195.895 398.295 195.88 394.275 195.891 390.257 195.891 386.235 195.801 386.235 195.711 386.235 195.621 386.235M202.288 384.485C203.237 383.994 203.923 383.819 204.324 383.401 206.916 380.706 207.989 377.531 207.244 373.94 206.888 372.222 204.01 371.206 202.498 372.16 202.285 372.295 202.085 372.624 202.087 372.861 202.132 376.609 202.21 380.356 202.288 384.485M255.944 382.138C257.974 382.138 259.77 382.178 261.563 382.122 262.514 382.092 263.008 382.321 263.001 383.309 262.987 385.003 263.038 386.699 263.099 388.393 263.128 389.212 262.753 389.497 261.905 389.486 260.312 389.469 258.715 389.565 257.12 389.527 256.221 389.507 255.786 389.755 255.794 390.649 255.814 393.07 255.807 395.493 255.782 397.916 255.774 398.844 256.343 399.058 257.17 399.059 258.714 399.062 260.258 399.094 261.801 399.082 262.905 399.074 263.388 399.538 263.349 400.589 263.295 402.041 263.247 403.498 263.32 404.946 263.381 406.112 262.753 406.516 261.685 406.542 259.679 406.593 257.673 406.621 255.666 406.633 253.71 406.644 251.75 406.539 249.801 406.642 248.308 406.721 247.925 406.11 247.957 404.851 248.024 402.236 248.002 399.62 248.02 397.004 248.089 387.462 248.16 377.92 248.229 368.377 248.245 366.222 248.242 366.203 250.524 366.192 254.229 366.178 257.934 366.214 261.639 366.178 262.655 366.169 263.135 366.415 263.123 367.478 263.106 369.073 263.249 370.669 263.335 372.264 263.381 373.123 262.977 373.504 262.052 373.478 260.766 373.442 259.479 373.456 258.192 373.461 256.131 373.47 255.956 373.625 255.946 375.5 255.937 377.668 255.944 379.836 255.944 382.138M353.2 382.141C355.137 382.141 356.926 382.205 358.707 382.118 359.857 382.062 360.282 382.427 360.261 383.501 360.229 385.098 360.283 386.697 360.35 388.295 360.387 389.158 360.051 389.513 359.104 389.49 357.207 389.444 355.307 389.477 353.256 389.477 353.172 390.074 353.055 390.53 353.051 390.987 353.031 393.215 353.079 395.444 353.023 397.672 352.997 398.688 353.432 399.077 354.469 399.064 356.012 399.048 357.556 399.087 359.1 399.086 360.112 399.085 360.622 399.495 360.595 400.49 360.554 401.942 360.495 403.4 360.573 404.849 360.638 406.051 360.052 406.516 358.884 406.554 358.369 406.57 357.855 406.61 357.341 406.611 353.842 406.616 350.341 406.574 346.843 406.637 345.598 406.658 345.199 406.171 345.214 405.094 345.253 402.431 345.249 399.766 345.268 397.102 345.336 387.56 345.409 378.018 345.477 368.476 345.493 366.224 345.487 366.203 347.823 366.192 351.528 366.177 355.234 366.219 358.938 366.176 360.014 366.164 360.379 366.52 360.37 367.524 360.359 368.975 360.464 370.429 360.589 371.875 360.691 373.052 360.27 373.571 358.94 373.484 357.557 373.395 356.162 373.454 354.773 373.467 353.92 373.475 353.212 373.714 353.205 374.676 353.19 377.094 353.2 379.513 353.2 382.141M178.24 382.138C180.258 382.138 182.054 382.176 183.846 382.122 184.788 382.094 185.3 382.304 185.294 383.299 185.28 384.994 185.331 386.69 185.391 388.384 185.421 389.195 185.064 389.497 184.208 389.487 182.613 389.468 181.016 389.565 179.423 389.528 178.531 389.508 178.078 389.737 178.087 390.641 178.107 393.063 178.101 395.485 178.075 397.907 178.066 398.831 178.622 399.058 179.453 399.059 180.997 399.062 182.542 399.094 184.085 399.082 185.183 399.074 185.68 399.523 185.641 400.58 185.588 402.032 185.53 403.49 185.615 404.938 185.691 406.223 184.922 406.54 183.834 406.554 180.746 406.595 177.658 406.619 174.571 406.616 170.252 406.612 170.245 406.6 170.274 402.535 170.354 391.103 170.439 379.672 170.523 368.241 170.537 366.228 170.552 366.201 172.653 366.194 176.359 366.182 180.064 366.236 183.767 366.166 185.076 366.141 185.454 366.583 185.423 367.76 185.385 369.208 185.528 370.661 185.631 372.11 185.699 373.102 185.282 373.525 184.198 373.482 182.76 373.427 181.318 373.469 179.877 373.461 178.734 373.455 178.202 373.929 178.226 375.056 178.275 377.369 178.24 379.683 178.24 382.138M158.689 370.018C158.746 372.494 158.59 372.647 155.979 372.671 154.898 372.681 153.81 372.617 152.736 372.713 149.872 372.97 148.512 374.756 149.688 377.248 150.516 379.005 151.966 380.535 153.308 382.034 155.059 383.993 157.13 385.71 158.792 387.728 163.166 393.042 160.644 401.823 156.793 405.23 153.875 407.811 150.036 408.287 146.596 406.346 145.29 405.607 144.19 404.55 142.974 403.664 141.854 402.848 141.694 401.888 142.336 400.733 142.929 399.665 143.507 398.587 144.049 397.494 144.598 396.388 145.3 396.408 146.196 397.124 146.743 397.562 147.314 397.981 147.913 398.354 149.423 399.293 151.004 399.335 152.24 398.511 153.444 397.708 154.127 395.957 153.562 394.475 153.173 393.455 152.573 392.444 151.831 391.619 149.436 388.961 146.749 386.522 144.51 383.757 141.294 379.782 140.42 375.316 142.916 370.705 144.875 367.088 149.603 364.953 153.953 365.407 154.106 365.423 154.257 365.456 154.409 365.474 158.142 365.919 158.469 365.078 158.689 370.018M242.397 365.86C242.397 368.332 242.431 370.606 242.355 372.877 242.345 373.165 241.781 373.642 241.435 373.675 240.313 373.779 239.174 373.72 238.042 373.723 235.79 373.727 235.74 373.726 235.697 375.908 235.616 380.074 235.568 384.241 235.559 388.408 235.547 393.689 235.59 398.972 235.605 404.254 235.611 406.229 235.605 406.23 233.442 406.231 232.258 406.232 231.074 406.235 229.889 406.231 227.92 406.222 227.872 406.178 227.87 404.379 227.861 394.882 227.86 385.385 227.838 375.888 227.833 373.956 227.797 373.966 225.802 373.936 224.515 373.917 223.23 373.859 221.944 373.818 221.114 373.793 220.619 373.517 220.63 372.607 220.649 370.914 220.558 369.219 220.549 367.523 220.544 366.605 220.899 365.87 222.03 365.868 228.759 365.854 235.489 365.86 242.397 365.86M50.364 387.605C51.048 387.605 51.741 387.544 52.412 387.633 52.687 387.67 53.12 388.022 53.129 388.243 53.213 390.257 53.041 392.25 52.213 394.144 51.298 396.236 49.66 397.515 47.275 397.841 44.345 398.243 41.643 397.828 39.6 395.571 38.289 394.122 37.661 392.37 37.326 390.528 36.754 387.374 36.636 384.231 37.902 381.178 39.02 378.483 40.807 376.422 43.98 375.756 48.591 374.789 52.946 377.82 53.197 382.139 53.237 382.83 53.043 383.152 52.261 383.114 51.442 383.074 50.619 383.082 49.799 383.104 49.168 383.12 48.803 382.933 48.623 382.303 48.479 381.799 48.183 381.302 47.841 380.885 46.525 379.284 44.511 379.281 43.188 380.871 42.062 382.223 41.508 383.801 41.344 385.492 41.143 387.573 41.411 389.602 42.34 391.517 43.415 393.731 45.268 394.461 47.56 393.626 48.51 393.281 48.972 392.628 49.056 391.695 49.095 391.255 48.933 390.995 48.429 390.997 48.402 390.997 48.375 390.997 48.348 390.995 46.492 390.868 46.491 390.868 46.456 389.106 46.452 388.874 46.457 388.642 46.448 388.41 46.429 387.938 46.637 387.708 47.168 387.697 48.233 387.674 49.298 387.611 50.362 387.565 50.363 387.578 50.364 387.591 50.364 387.605M58.482 375.649C59.613 375.72 60.703 375.754 61.779 375.887 61.963 375.909 62.223 376.356 62.22 376.605 62.193 378.946 62.048 381.288 62.072 383.63 62.099 385.965 62.243 388.3 62.418 390.63 62.46 391.189 62.742 391.78 63.07 392.264 63.658 393.131 64.637 393.1 65.011 392.143 65.475 390.952 65.913 389.686 65.971 388.437 66.143 384.712 66.127 380.979 66.176 377.248 66.191 376.143 66.18 376.133 67.326 376.151 68.091 376.163 68.855 376.222 69.62 376.235 70.066 376.244 70.252 376.406 70.233 376.844 70.022 381.521 69.88 386.202 69.59 390.876 69.483 392.589 68.96 394.264 67.943 395.746 65.899 398.726 61.345 398.519 59.594 395.371 58.767 393.885 58.359 392.262 58.335 390.628 58.263 385.895 58.334 381.16 58.355 376.427 58.356 376.203 58.425 375.981 58.482 375.649M21.996 375.649C23.13 375.72 24.218 375.754 25.295 375.887 25.477 375.91 25.737 376.357 25.734 376.606 25.706 378.948 25.561 381.29 25.587 383.631 25.612 385.965 25.757 388.301 25.931 390.631 25.974 391.191 26.257 391.782 26.584 392.265 27.174 393.132 28.151 393.099 28.525 392.141 28.988 390.951 29.427 389.685 29.484 388.436 29.656 384.71 29.64 380.978 29.691 377.247 29.704 376.142 29.694 376.132 30.841 376.151 31.605 376.164 32.37 376.221 33.134 376.236 33.582 376.244 33.765 376.409 33.746 376.845 33.535 381.523 33.394 386.204 33.103 390.876 32.996 392.59 32.472 394.266 31.455 395.748 29.412 398.727 24.857 398.517 23.107 395.37 22.28 393.883 21.873 392.259 21.848 390.626 21.776 385.894 21.847 381.159 21.869 376.425 21.87 376.203 21.941 375.981 21.996 375.649M3.947 397.48C4.235 395.753 4.488 394.157 4.766 392.564 5.614 387.677 6.474 382.788 7.331 377.901 7.371 377.674 7.429 377.448 7.468 377.221 7.757 375.502 7.765 375.498 9.58 375.606 10.835 375.681 12.089 375.754 13.344 375.814 13.871 375.837 14.121 376.082 14.208 376.563 15.449 383.418 16.7 390.274 17.946 397.13 17.958 397.2 17.921 397.278 17.884 397.473 16.628 397.473 15.354 397.489 14.082 397.446 13.954 397.441 13.762 397.087 13.731 396.878 13.446 394.996 13.156 393.114 12.946 391.225 12.867 390.517 12.441 390.261 11.834 390.245 11.073 390.228 10.298 390.278 9.555 390.419 9.315 390.465 9.018 390.869 8.978 391.14 8.718 392.919 8.479 394.704 8.325 396.494 8.263 397.225 8.088 397.562 7.226 397.497 6.198 397.423 5.159 397.48 3.947 397.48M10.911 386.531C11.183 386.548 11.456 386.578 11.728 386.574 12.227 386.566 12.483 386.362 12.381 385.848 12.006 383.981 11.654 382.112 11.26 380.25 11.219 380.053 10.966 379.895 10.812 379.718 10.65 379.916 10.385 380.096 10.342 380.315 10.032 381.855 9.753 383.398 9.495 384.945 9.241 386.469 9.258 386.471 10.911 386.531M84.112 378.039C84.142 379.344 84.06 379.423 82.656 379.434 82.164 379.438 81.67 379.421 81.179 379.441 79.399 379.517 78.606 380.659 79.42 382.177 79.866 383.007 80.598 383.71 81.259 384.424 82.192 385.431 83.246 386.342 84.127 387.386 86.507 390.205 85.155 394.939 83.093 396.744 81.454 398.181 79.316 398.343 77.38 397.18 75.003 395.749 74.827 395.09 76.215 392.81 76.719 391.981 76.833 391.96 77.616 392.531 77.874 392.721 78.125 392.922 78.399 393.09 79.199 393.581 80.047 393.599 80.698 393.155 81.337 392.722 81.687 391.8 81.381 391.007 81.172 390.466 80.853 389.93 80.457 389.491 79.184 388.078 77.79 386.762 76.56 385.318 74.721 383.164 74.484 380.02 75.939 378.042 77.305 376.185 79.269 375.48 81.611 375.576 81.692 375.579 81.772 375.604 81.854 375.612 83.827 375.838 83.999 375.423 84.112 378.039M100.896 376.017C100.896 377.331 100.914 378.563 100.872 379.791 100.867 379.931 100.538 380.155 100.34 380.175 99.799 380.23 99.248 380.196 98.701 380.196 97.379 380.197 97.355 380.196 97.333 381.48 97.292 383.72 97.27 385.959 97.266 388.198 97.26 390.98 97.261 393.761 97.304 396.54 97.315 397.233 97.122 397.541 96.338 397.481 95.632 397.428 94.915 397.439 94.206 397.48 93.443 397.523 93.156 397.291 93.161 396.52 93.198 391.808 93.182 387.097 93.182 382.385 93.182 381.946 93.144 381.509 93.166 381.072 93.193 380.522 92.986 380.278 92.361 380.302 91.598 380.33 90.831 380.273 90.065 380.253 89.589 380.24 89.321 380.069 89.328 379.561 89.342 378.687 89.294 377.811 89.287 376.937 89.282 376.412 89.48 376.019 90.123 376.019 93.675 376.015 97.227 376.017 100.896 376.017M109.74 386.667C109.74 389.908 109.742 393.149 109.738 396.39 109.737 397.367 109.658 397.439 108.631 397.458 108.085 397.469 107.537 397.445 106.992 397.477 106.286 397.516 105.987 397.197 105.986 396.565 105.985 395.306 105.979 394.045 105.983 392.785 105.996 387.564 106.012 382.344 106.027 377.121 106.031 376.006 106.03 376.007 107.205 375.986 107.615 375.98 108.025 375.965 108.434 375.954 109.72 375.922 109.799 375.991 109.8 377.177 109.801 380.34 109.8 383.503 109.8 386.667L109.74 386.667M126.55 384.416C127.828 384.416 129.108 384.447 130.383 384.405 131.161 384.38 131.447 384.678 131.414 385.382 131.376 386.194 131.369 387.008 131.38 387.822 131.387 388.397 131.1 388.671 130.509 388.669 127.847 388.663 125.184 388.67 122.524 388.608 122.263 388.603 121.83 388.186 121.796 387.922 121.68 387.054 121.721 386.169 121.683 385.291 121.659 384.732 121.946 384.558 122.506 384.566 123.853 384.587 125.202 384.573 126.55 384.573L126.55 384.416M407.286 384.416C408.565 384.416 409.844 384.447 411.12 384.405 411.899 384.38 412.184 384.678 412.152 385.382 412.112 386.194 412.106 387.008 412.116 387.822 412.123 388.397 411.837 388.671 411.245 388.669 408.583 388.663 405.921 388.67 403.26 388.608 402.999 388.603 402.567 388.186 402.531 387.922 402.416 387.054 402.457 386.169 402.421 385.291 402.397 384.732 402.683 384.558 403.241 384.566 404.59 384.587 405.939 384.573 407.286 384.573L407.286 384.416M422.712 387.263C422.76 384.856 422.915 382.779 423.663 380.782 424.785 377.784 427.077 376.261 430.387 375.875 434.912 375.348 436.868 378.025 437.972 380.642 438.952 382.965 439.091 385.406 438.867 387.858 438.737 389.286 438.56 390.737 438.15 392.111 436.999 395.954 434.395 397.696 430.16 397.628 426.975 397.578 424.76 395.987 423.617 392.931 422.892 390.994 422.742 388.979 422.712 387.263M435.479 387.138C435.423 387.129 435.369 387.121 435.316 387.112 435.316 386.84 435.337 386.566 435.312 386.297 435.154 384.644 434.889 383.018 433.884 381.594 433.253 380.699 432.387 380.274 431.226 380.366 429.867 380.474 428.842 381.105 428.054 382.104 426.062 384.629 426.013 389.18 427.941 391.766 428.512 392.533 429.244 393.114 430.275 393.162 432.364 393.262 434.091 392.538 434.763 390.558 435.136 389.458 435.248 388.28 435.479 387.138M474.257 387.332C474.304 384.84 474.464 382.784 475.198 380.806 476.3 377.836 478.554 376.287 481.838 375.884 486.292 375.337 488.337 377.834 489.528 380.677 490.503 383.003 490.635 385.443 490.409 387.895 490.277 389.323 490.09 390.771 489.679 392.145 488.532 395.986 485.84 397.756 481.6 397.624 478.437 397.524 476.277 395.938 475.152 392.896 474.434 390.956 474.291 388.94 474.257 387.332M487.024 387.1C486.969 387.091 486.915 387.083 486.861 387.074 486.861 386.823 486.879 386.57 486.859 386.321 486.728 384.771 486.467 383.247 485.626 381.876 484.747 380.443 483.419 380.008 481.756 380.558 480.868 380.851 480.169 381.382 479.612 382.084 477.604 384.617 477.554 389.222 479.508 391.798 480.087 392.561 480.829 393.128 481.86 393.167 483.979 393.248 485.673 392.493 486.319 390.521 486.682 389.418 486.797 388.243 487.024 387.1M502.007 387.002C502.468 387.253 502.871 387.468 503.271 387.69 504.806 388.55 505.511 389.841 505.479 391.501 505.446 393.227 504.888 394.783 503.707 396.116 502.928 396.999 501.924 397.482 500.683 397.439 498.663 397.367 496.647 397.28 494.629 397.202 494.025 397.179 493.754 396.962 493.749 396.32 493.707 389.926 493.631 383.531 493.564 377.137 493.552 375.905 493.554 375.885 494.845 375.843 496.801 375.779 498.749 375.85 500.644 376.384 503.612 377.222 504.72 379.213 504.482 382.045 504.365 383.43 503.822 384.672 502.907 385.772 502.594 386.148 502.327 386.56 502.007 387.002M497.104 382.737L497.11 382.737C497.11 383.51 497.117 384.282 497.107 385.055 497.101 385.456 497.266 385.654 497.713 385.714 498.635 385.834 499.373 385.521 499.844 384.665 500.483 383.499 500.692 382.256 500.4 380.962 500.219 380.159 499.699 379.745 498.828 379.674 498.52 379.647 498.207 379.674 497.898 379.657 497.367 379.632 497.11 379.873 497.106 380.357 497.1 381.15 497.104 381.944 497.104 382.737M497.074 391.524L497.11 391.524C497.11 392.171 497.075 392.819 497.131 393.461 497.148 393.663 497.394 394.005 497.553 394.014 498.255 394.054 498.965 394.032 499.664 393.964 500.34 393.897 500.814 393.482 501.02 392.9 501.367 391.922 501.477 390.899 500.663 390.073 499.787 389.184 498.615 389.086 497.412 389.288 497.277 389.312 497.1 389.561 497.09 389.714 497.053 390.315 497.074 390.922 497.074 391.524M526.206 388.598C525.444 388.449 525.267 388.73 525.276 389.358 525.306 391.635 525.28 393.914 525.269 396.193 525.265 397.07 525.092 397.239 524.185 397.207 523.521 397.185 522.858 397.128 522.195 397.064 521.37 396.984 521.248 396.878 521.25 396.084 521.256 394.099 521.275 392.113 521.322 390.127 521.431 385.635 521.564 381.144 521.683 376.65 521.705 375.835 521.767 375.772 522.655 375.774 524.21 375.781 525.765 375.778 527.319 375.803 530.175 375.85 532.219 377.429 532.743 380.069 533.142 382.082 533.025 384.085 531.995 385.928 531.604 386.628 530.992 387.252 530.363 387.789 529.95 388.144 529.89 388.412 530.07 388.854 531.034 391.229 531.981 393.608 532.939 395.984 533.362 397.036 533.279 397.146 532.11 397.047 531.38 396.985 530.65 396.939 529.918 396.884 528.94 396.812 528.785 396.707 528.513 395.85 527.828 393.693 527.153 391.533 526.472 389.375 526.39 389.116 526.296 388.86 526.206 388.598M529.185 382.549C529.015 381.833 528.931 381.206 528.714 380.623 528.235 379.335 527.168 378.775 525.816 378.991 525.422 379.054 525.227 379.19 525.235 379.592 525.271 381.471 525.277 383.35 525.332 385.23 525.337 385.406 525.571 385.679 525.758 385.735 526.904 386.076 528.287 385.482 528.729 384.407 528.979 383.798 529.05 383.123 529.185 382.549M447.374 388.595C447.374 389.94 447.379 391.285 447.373 392.63 447.366 393.947 447.339 395.265 447.346 396.581 447.348 397.135 447.124 397.396 446.514 397.36 445.782 397.318 445.05 397.313 444.318 397.28 443.717 397.253 443.478 396.947 443.493 396.379 443.555 394.038 443.622 391.698 443.633 389.357 443.652 385.387 443.652 381.416 443.619 377.446 443.605 375.877 443.552 375.87 445.163 375.686 445.691 375.626 446.224 375.589 446.755 375.588 447.576 375.588 447.728 375.736 447.734 376.512 447.749 378.352 447.751 380.192 447.757 382.032 447.76 382.847 447.757 383.661 447.869 384.537 448.003 384.326 448.161 384.126 448.268 383.903 449.384 381.587 450.505 379.273 451.595 376.945 452.184 375.689 452.159 375.673 453.583 375.739 454.159 375.766 454.735 375.809 455.309 375.863 456.08 375.935 456.111 376.02 455.797 376.661 454.426 379.464 453.075 382.275 451.697 385.075 451.401 385.681 451.388 386.278 451.557 386.905 452.284 389.592 453.616 392.048 454.85 394.541 455.13 395.109 455.448 395.659 455.725 396.228 455.984 396.761 455.879 397.009 455.263 397.027 454.044 397.062 452.819 397.037 451.606 396.944 451.373 396.926 451.101 396.513 450.975 396.231 449.88 393.793 448.814 391.343 447.738 388.897 447.692 388.788 447.632 388.685 447.579 388.58 447.511 388.585 447.442 388.59 447.374 388.595M510.072 386.732C510.072 383.535 510.071 380.336 510.075 377.138 510.075 376.93 510.044 376.69 510.137 376.52 510.246 376.321 510.474 376.042 510.653 376.04 512.896 376.009 515.14 376.021 517.382 376.023 517.72 376.023 517.912 376.147 517.919 376.507 517.936 377.405 517.971 378.304 518.021 379.201 518.051 379.735 517.77 379.896 517.25 379.883 516.474 379.861 515.695 379.872 514.919 379.872 514.374 379.874 514.133 380.106 514.14 380.648 514.154 381.714 514.128 382.781 514.084 383.846 514.064 384.341 514.282 384.527 514.782 384.507 515.626 384.47 516.47 384.455 517.312 384.412 517.685 384.393 517.835 384.535 517.84 384.879 517.856 385.84 517.88 386.802 517.915 387.762 517.93 388.168 517.743 388.317 517.319 388.314 516.41 388.308 515.499 388.345 514.588 388.336 514.19 388.331 514.031 388.456 514.037 388.841 514.052 390.137 514.049 391.433 514.039 392.729 514.035 393.155 514.243 393.337 514.68 393.344 515.547 393.356 516.412 393.392 517.277 393.393 517.804 393.393 518.048 393.577 518.026 394.101 517.991 394.915 517.982 395.731 518.013 396.547 518.032 397.062 517.801 397.272 517.285 397.28 515.798 397.301 514.311 397.328 512.822 397.345 512.135 397.353 511.444 397.312 510.758 397.35 510.134 397.384 509.946 397.135 509.955 396.579 509.988 394.008 509.997 391.437 510.012 388.865 510.015 388.155 510.012 387.443 510.012 386.732L510.072 386.732M466.861 388.831C466.861 391.382 466.861 393.932 466.861 396.482 466.86 397.271 466.789 397.336 465.945 397.341 465.235 397.344 464.525 397.344 463.814 397.341 462.801 397.337 462.75 397.287 462.749 396.357 462.746 391.319 462.743 386.281 462.736 381.243 462.734 380.301 462.725 380.304 461.734 380.287 461.001 380.275 460.268 380.26 459.536 380.239 459.139 380.229 458.951 380.053 458.953 379.652 458.959 378.817 458.915 377.981 458.912 377.146 458.906 376.206 459.048 376.061 460.071 376.05 462.715 376.021 465.358 376.011 468.001 375.997 468.622 375.995 469.245 376.024 469.865 376.014 470.275 376.007 470.484 376.124 470.474 376.549 470.448 377.594 470.439 378.64 470.452 379.685 470.457 380.123 470.2 380.218 469.822 380.219 469.155 380.22 468.489 380.214 467.823 380.217 466.953 380.222 466.906 380.242 466.902 381.056 466.89 383.647 466.898 386.239 466.898 388.831L466.861 388.831"/>
    <g transform="translate(294 506)">
      <mask id="logo-f" fill="#fff">
        <use xlink:href="#logo-e"/>
      </mask>
      <path fill="#FFFFFE" d="M63.341 17.874C62.679 14.598 61.965 11.077 61.259 7.555 61.109 6.805 61.269 6.139 62.033 5.828 62.875 5.486 63.42 5.758 63.822 6.676 64.002 7.087 64.123 7.532 64.211 7.973 64.579 9.806 64.924 11.644 65.291 13.553 65.639 11.48 65.886 9.452 66.345 7.473 66.648 6.171 67.127 4.871 67.761 3.695 68.402 2.507 69.456 2.495 70.595 3.231 72.386 4.386 73.08 6.187 73.677 8.074 74.403 10.37 75.127 12.666 75.863 14.958 76.707 17.587 77.564 20.212 78.458 22.979 77.948 23.198 77.492 23.395 77.173 23.531 76.161 21.558 75.136 19.788 74.333 17.922 73.635 16.301 73.191 14.57 72.628 12.889 71.863 10.604 70.772 8.49 69.222 6.306 67.737 11.753 67.665 17.084 67.62 22.537 66.83 22.481 66.069 23.133 65.406 22.35 64.903 21.755 64.482 21.092 63.994 20.418 63.527 21.097 63.144 21.783 62.639 22.362 60.604 24.703 58.049 25.611 55 24.916 52.616 24.373 50.524 23.286 48.955 21.349 48.152 20.356 47.661 19.231 47.818 17.921 48.023 16.192 48.473 14.621 49.396 13.032 50.567 11.013 51.158 8.644 51.888 6.389 52.264 5.231 52.537 4 52.128 2.699 50.682 3.153 49.688 4.098 49.049 5.361 48.235 6.975 47.425 8.61 46.838 10.314 46.476 11.364 46.468 12.555 46.412 13.689 46.246 17.057 47.382 20.208 48.101 23.43 48.292 24.284 48.407 25.157 48.515 26.026 48.702 27.525 47.836 28.468 46.35 28.182 45.606 28.039 44.827 27.576 44.274 27.042 43.496 26.293 43.778 25.237 44.688 24.43 44.311 22.083 43.792 19.837 43.619 17.564 43.339 13.873 43.465 10.204 45.448 6.866 47.032 4.201 48.858 1.798 51.859.6 52.299.424 52.786.326 53.261.279 54.677.138 55.858 1.436 55.537 2.821 55.399 3.426 55.017 3.971 54.837 4.571 54.642 5.217 54.465 5.892 54.445 6.559 54.422 7.267 54.517 7.878 53.74 8.345 53.419 8.537 53.293 9.226 53.264 9.701 53.192 10.897 52.89 11.945 52.236 12.998 50.201 16.276 50.499 20.359 53.884 22.465 54.28 22.712 54.774 22.937 55.224 22.941 58.427 22.978 60.769 22.457 62.21 19.649 62.491 19.103 62.871 18.606 63.341 17.874M19.284 21.58C20.052 22.439 19.778 23.132 19.1 23.948 18.576 24.578 18.327 25.361 17.477 25.787 16.153 26.448 15.01 26.218 13.811 25.551 10.635 23.785 10.178 20.733 9.995 17.559 9.849 14.989 10.913 12.719 11.986 10.509 12.636 9.165 14.095 8.798 15.51 8.625 18.124 8.307 19.885 10.016 21.769 11.367 22.051 11.57 22.168 12.227 22.114 12.641 21.745 15.444 21.938 18.207 22.525 20.964 22.782 22.174 22.86 23.425 23.154 24.624 23.78 27.174 24.521 29.694 25.165 32.238 25.632 34.082 26.067 35.938 26.435 37.804 26.977 40.551 26.207 43.128 25.246 45.656 24.839 46.727 24.256 47.731 23.873 48.809 22.909 51.52 20.563 52.52 18.231 53.642 16.187 54.624 13.964 54.988 11.83 54.999 9.508 55.013 6.993 54.911 5.197 52.796 3.777 51.125 2.16 49.619 1.222 47.585 1.146 47.421 1.047 47.26 1.013 47.085.909 46.554.753 45.924 1.422 45.694 2.005 45.494 2.548 45.819 2.689 46.413 3.236 48.716 5.098 49.903 6.778 51.181 8.719 52.654 11.034 52.885 13.408 52.677 15.573 52.487 17.472 51.634 19.19 50.358 21.832 48.395 23.229 45.641 23.724 42.486 24.285 38.897 23.682 35.405 22.42 31.988 21.66 29.932 21.124 27.785 20.573 25.657 20.307 24.627 20.193 23.551 20.091 22.486 20.038 21.927 19.745 21.715 19.285 21.586 19.233 21.316 19.112 21.04 19.14 20.778 19.254 19.683 19.497 18.595 19.532 17.497 19.569 16.326 19.448 15.147 19.349 13.977 19.307 13.484 19.306 12.817 19.003 12.549 17.274 11.007 13.393 11.466 12.963 13.986 12.643 15.869 12.675 17.814 12.569 19.731 12.562 19.89 12.693 20.062 12.777 20.217 13.171 20.927 13.581 21.628 13.966 22.344 14.415 23.177 16.033 23.516 16.809 23.001 17.6 22.477 18.456 22.05 19.284 21.58" mask="url(#logo-f)"/>
    </g>
    <path fill="#FFFFFE" d="M179.438 551.853C178.964 551.068 178.592 550.41 178.939 549.579 179.055 549.302 179.101 548.994 179.225 548.722 180.606 545.686 180.097 542.752 178.827 539.822 178.034 537.995 177.388 536.097 175.742 534.803 175.411 534.543 175.088 534.261 174.724 534.056 173.753 533.509 173.246 533.68 172.805 534.669 171.752 537.035 171.322 539.533 171.595 542.088 171.886 544.818 172.39 547.527 172.796 550.246 172.875 550.776 172.928 551.312 173.015 552.016 172.277 551.925 171.627 551.878 170.991 551.758 170.271 551.623 169.944 551.215 169.794 550.418 169.366 548.134 168.644 545.9 168.282 543.609 167.504 538.682 166.824 533.735 166.207 528.784 165.473 522.9 164.85 517.003 164.176 511.111 164.078 510.251 164.871 509.338 165.859 509.188 166.506 509.089 167.267 509.817 167.295 510.718 167.364 512.971 167.365 515.226 167.39 517.481 167.392 517.659 167.335 517.844 167.356 518.02 168.106 524.171 168.862 530.321 169.649 536.726 169.758 536.273 169.814 536.045 169.87 535.814 170.081 534.938 170.225 534.036 170.517 533.187 171.514 530.283 174.488 529.647 176.639 531.852 179.998 535.296 182.132 539.383 182.377 544.199 182.502 546.654 181.818 549.099 180.193 551.12 180.007 551.352 179.766 551.537 179.438 551.853M243.593 533.754C243.944 531.684 244.192 529.683 244.644 527.729 244.945 526.426 245.406 525.12 246.035 523.943 246.703 522.699 247.738 522.685 248.928 523.459 250.747 524.642 251.41 526.483 252.011 528.399 252.711 530.639 253.426 532.874 254.145 535.106 254.998 537.761 255.864 540.411 256.76 543.171 256.257 543.403 255.819 543.606 255.457 543.773 254.287 541.421 253.113 539.227 252.104 536.96 251.57 535.762 251.336 534.432 250.942 533.169 250.215 530.837 249.073 528.719 247.521 526.497 246.049 531.961 245.965 537.291 245.925 542.59 244.293 543.204 244.12 543.021 243.079 541.792 241.928 540.434 241.711 538.829 241.405 537.221 240.977 534.966 240.611 532.7 240.19 530.443 240.024 529.555 239.763 528.684 239.57 527.8 239.384 526.946 239.735 526.205 240.382 526.012 241.26 525.748 241.736 525.979 242.144 526.928 242.31 527.313 242.425 527.726 242.507 528.138 242.874 529.973 243.219 531.811 243.593 533.754M261.617 531.55C261.968 529.449 262.207 527.416 262.675 525.438 262.989 524.109 263.504 522.791 264.156 521.593 264.743 520.512 265.82 520.513 266.869 521.184 268.748 522.389 269.446 524.277 270.049 526.265 270.705 528.423 271.409 530.566 272.103 532.713 272.985 535.445 273.876 538.176 274.787 540.982 274.249 541.222 273.83 541.407 273.482 541.563 272.314 539.216 271.14 537.022 270.13 534.757 269.596 533.559 269.36 532.23 268.965 530.968 268.236 528.635 267.097 526.515 265.547 524.29 264.069 529.744 263.986 535.071 263.949 540.367 262.374 540.993 262.144 540.811 261.165 539.656 260.004 538.284 259.722 536.666 259.423 535.02 259.012 532.762 258.633 530.498 258.213 528.241 258.052 527.383 257.807 526.539 257.613 525.686 257.405 524.766 257.726 524.006 258.392 523.801 259.323 523.514 259.792 523.777 260.23 524.872 260.363 525.206 260.457 525.561 260.527 525.913 260.89 527.749 261.239 529.588 261.617 531.55M289.728 528.089C290.078 526.014 290.32 524.009 290.78 522.056 291.094 520.727 291.582 519.399 292.228 518.197 292.841 517.053 293.905 517.042 294.998 517.743 296.848 518.933 297.544 520.791 298.149 522.743 298.84 524.985 299.564 527.218 300.282 529.45 301.137 532.104 302 534.754 302.896 537.513 302.384 537.744 301.946 537.943 301.589 538.106 300.432 535.776 299.27 533.609 298.274 531.368 297.73 530.143 297.482 528.785 297.074 527.495 296.339 525.169 295.21 523.046 293.652 520.835 292.183 526.3 292.1 531.632 292.059 536.932 290.395 537.533 290.253 537.362 289.207 536.119 288.065 534.76 287.84 533.156 287.537 531.548 287.112 529.292 286.744 527.026 286.322 524.771 286.156 523.882 285.896 523.011 285.703 522.127 285.518 521.272 285.871 520.536 286.525 520.346 287.417 520.083 287.866 520.304 288.28 521.272 288.445 521.656 288.562 522.069 288.644 522.481 289.009 524.316 289.356 526.155 289.728 528.089M384.496 520.045C383.674 521.454 382.891 522.835 382.069 524.192 381.306 525.452 380.167 526.275 378.813 526.81 377.127 527.474 375.562 526.795 375.091 525.067 374.818 524.067 374.67 522.987 374.72 521.956 374.812 520.036 374.973 518.105 375.318 516.217 375.865 513.209 376.992 510.455 379.47 508.448 381.572 506.744 383.692 506.783 385.494 509.265 385.69 509.533 385.906 509.787 386.08 510.069 386.611 510.932 387.24 511.616 386.633 512.897 386.173 513.863 386.467 515.203 386.486 516.377 386.535 519.552 387.678 522.446 388.85 525.328 389.062 525.85 389.439 526.326 389.539 526.861 389.603 527.199 389.396 527.769 389.124 527.939 388.861 528.103 388.278 528.015 387.982 527.817 386.967 527.142 386.406 526.109 386.048 524.96 385.537 523.327 385.019 521.697 384.496 520.045M377.114 522.242C377.152 522.544 377.134 522.741 377.203 522.9 377.411 523.377 377.594 524.178 377.896 524.231 378.435 524.326 379.056 523.973 379.64 523.794 379.718 523.771 379.774 523.677 379.841 523.615 382.091 521.582 382.864 518.784 383.568 516.024 383.924 514.627 383.679 513.087 383.827 511.624 383.903 510.876 383.668 510.39 383.083 510.061 382.458 509.709 381.777 509.499 381.169 510.113 380.543 510.745 379.764 511.309 379.361 512.066 377.658 515.274 376.984 518.736 377.114 522.242M329.715 526.781C328.883 528.201 328.095 529.582 327.271 530.94 326.54 532.143 325.456 532.942 324.172 533.478 322.35 534.238 320.8 533.572 320.272 531.683 320.009 530.743 319.879 529.721 319.931 528.748 320.035 526.799 320.182 524.834 320.537 522.918 321.088 519.949 322.204 517.232 324.634 515.214 326.831 513.389 329.118 513.661 330.727 516.01 331.017 516.433 331.349 516.828 331.615 517.265 332.049 517.979 332.28 518.567 331.865 519.556 331.431 520.589 331.687 521.926 331.703 523.129 331.748 526.306 332.911 529.195 334.074 532.078 334.274 532.573 334.668 533.019 334.747 533.522 334.805 533.893 334.6 534.463 334.313 534.678 334.087 534.847 333.473 534.733 333.176 534.531 332.169 533.845 331.612 532.814 331.256 531.662 330.759 530.051 330.242 528.445 329.715 526.781M322.33 528.962C322.372 529.304 322.352 529.503 322.424 529.66 322.64 530.13 322.819 530.892 323.147 530.97 323.642 531.088 324.254 530.731 324.811 530.556 324.915 530.523 324.989 530.398 325.079 530.317 327.327 528.281 328.091 525.479 328.786 522.718 329.146 521.291 328.902 519.722 329.039 518.227 329.106 517.498 328.812 517.07 328.268 516.771 327.674 516.445 327.012 516.226 326.43 516.806 325.779 517.454 324.981 518.041 324.565 518.824 322.861 522.032 322.196 525.497 322.33 528.962M233.478 538.599C232.656 540.004 231.871 541.385 231.047 542.741 230.283 544.001 229.142 544.822 227.788 545.356 226.104 546.018 224.543 545.334 224.071 543.603 223.799 542.603 223.652 541.522 223.702 540.491 223.795 538.571 223.957 536.64 224.301 534.751 224.849 531.743 225.98 528.99 228.459 526.985 230.555 525.289 232.677 525.323 234.482 527.814 234.8 528.253 235.131 528.686 235.421 529.144 235.859 529.836 236.014 530.41 235.635 531.354 235.215 532.399 235.452 533.725 235.47 534.928 235.515 538.104 236.669 540.995 237.838 543.876 237.972 544.205 238.267 544.468 238.402 544.795 238.642 545.374 238.75 546.006 238.189 546.46 237.658 546.893 237.063 546.634 236.746 546.201 236.099 545.319 235.448 544.397 235.042 543.394 234.414 541.843 233.991 540.209 233.478 538.599M226.093 540.751C226.128 541.038 226.109 541.269 226.189 541.454 226.394 541.931 226.587 542.727 226.889 542.777 227.43 542.868 228.048 542.512 228.631 542.329 228.709 542.305 228.764 542.21 228.832 542.149 231.08 540.115 231.851 537.316 232.552 534.556 232.907 533.158 232.658 531.617 232.811 530.155 232.891 529.398 232.638 528.923 232.055 528.597 231.43 528.246 230.747 528.046 230.142 528.662 229.519 529.299 228.743 529.861 228.34 530.619 226.65 533.799 225.981 537.233 226.093 540.751M195.629 543.266C194.75 544.751 193.988 546.231 193.044 547.583 191.976 549.113 190.567 550.214 188.547 550.179 187.406 550.159 186.598 549.553 186.306 548.531 186.004 547.478 185.813 546.339 185.857 545.25 185.935 543.3 186.107 541.337 186.455 539.419 187.006 536.38 188.144 533.591 190.667 531.588 192.737 529.945 194.811 529.97 196.624 532.443 196.838 532.735 197.088 533.006 197.267 533.317 197.754 534.163 198.362 534.826 197.776 536.074 197.309 537.068 197.61 538.44 197.629 539.644 197.679 542.788 198.823 545.651 199.983 548.504 200.195 549.026 200.574 549.502 200.677 550.037 200.742 550.376 200.542 550.945 200.272 551.119 200.013 551.287 199.358 551.23 199.144 551.009 198.506 550.356 197.81 549.648 197.479 548.824 196.75 547.014 196.232 545.12 195.629 543.266M188.251 545.42C188.295 545.772 188.274 545.972 188.347 546.129 188.564 546.597 188.746 547.357 189.074 547.434 189.571 547.549 190.181 547.191 190.737 547.015 190.841 546.982 190.915 546.857 191.005 546.775 193.251 544.738 194.015 541.937 194.709 539.175 195.068 537.748 194.824 536.179 194.961 534.684 195.027 533.955 194.731 533.529 194.186 533.231 193.589 532.905 192.929 532.691 192.348 533.272 191.698 533.921 190.901 534.509 190.485 535.292 188.78 538.5 188.118 541.966 188.251 545.42M224.68 550.128C222.093 551.008 219.068 549.504 218.065 547.078 217.725 546.26 217.236 545.506 216.836 544.712 215.77 542.598 214.493 540.608 213.699 538.331 212.778 535.687 212.095 533.027 211.837 530.251 211.413 525.731 211.548 521.206 211.698 516.68 211.723 515.928 211.747 515.152 211.593 514.424 211.307 513.061 211.546 511.777 212.027 510.532 212.167 510.169 212.608 509.742 212.961 509.693 213.303 509.644 213.875 509.949 214.05 510.263 214.342 510.787 214.545 511.446 214.529 512.041 214.423 516.259 214.141 520.475 214.132 524.691 214.125 528.989 214.27 533.352 215.861 537.382 217 540.267 218.806 542.885 220.28 545.641 220.943 546.878 221.769 547.874 223.066 548.53 223.681 548.841 224.103 549.537 224.68 550.128M214.462 551.45C211.184 552.211 208.38 550.527 207.557 547.572 207.494 547.346 207.403 547.119 207.287 546.915 206.165 544.93 204.861 543.026 203.948 540.949 202.462 537.565 201.552 533.991 201.511 530.259 201.464 525.946 201.478 521.635 201.444 517.322 201.438 516.569 201.409 515.801 201.25 515.068 200.982 513.833 201.443 512.734 201.809 511.636 202.115 510.716 203.222 510.604 203.736 511.43 204.038 511.918 204.284 512.548 204.27 513.106 204.169 517.324 203.905 521.541 203.872 525.759 203.837 530.118 204 534.531 205.583 538.631 206.668 541.439 208.384 544.008 209.847 546.669 210.567 547.978 211.408 549.154 212.854 549.838 213.448 550.118 213.847 550.813 214.462 551.45M148.136 554.715C149.047 550.865 149.994 547.081 150.822 543.272 151.249 541.309 151.476 539.302 151.777 537.314 152.377 533.356 152.98 529.397 153.554 525.437 153.921 522.904 154.236 520.365 154.584 517.831 154.628 517.509 154.695 517.178 154.823 516.881 155.141 516.144 155.648 515.553 156.525 515.666 157.344 515.771 157.478 516.544 157.581 517.175 157.686 517.816 157.697 518.504 157.588 519.145 157.095 522.046 156.491 524.931 156.028 527.838 155.333 532.209 154.778 536.603 154.046 540.966 153.78 542.549 153.183 544.077 152.728 545.628 152.245 547.272 151.748 548.912 151.265 550.556 150.642 552.677 149.725 553.922 148.136 554.715M276.153 518.131C277.941 518.094 279.031 518.793 279.153 520.939 279.287 523.309 279.798 525.663 280.25 528.003 280.506 529.328 280.898 530.64 281.366 531.907 282.065 533.801 283.247 535.413 284.693 536.809 284.926 537.034 285.441 536.954 285.819 537.049 286.147 537.132 286.694 537.208 286.736 537.384 286.809 537.697 286.668 538.158 286.452 538.425 285.601 539.479 284.857 539.587 283.666 538.973 283.266 538.767 282.791 538.684 282.426 538.434 282.052 538.177 281.753 537.799 281.454 537.446 281.167 537.107 280.928 536.73 280.657 536.378 280.528 536.211 280.314 536.088 280.242 535.905 279.664 534.431 279.025 532.975 278.569 531.464 277.607 528.291 276.75 525.087 275.841 521.897 275.618 521.115 275.346 520.347 275.125 519.564 274.861 518.625 275.163 518.219 276.153 518.131M277.983 510.302C278.278 511.58 275.745 513.414 274.781 513.124 274.302 512.981 273.833 512.574 273.519 512.163 272.962 511.433 273.27 510.173 274.127 509.193 274.806 508.417 275.52 508.227 276.457 508.68 277.113 508.998 277.881 509.264 277.983 510.302M230.266 519.844C230.592 518.802 230.872 517.741 231.267 516.728 231.469 516.203 231.942 516.115 232.469 516.426 234.425 517.577 234.432 520.883 232.439 521.972 232.195 522.104 231.609 522.009 231.444 521.806 231.004 521.264 230.707 520.606 230.266 519.844M227.244 520.158C227.44 521.351 226.84 522.341 225.979 523.195 225.505 523.664 225.026 523.698 224.564 523.052 223.559 521.652 223.549 519.392 224.59 518.058 224.92 517.635 225.304 517.481 225.753 517.811 226.515 518.371 227.196 519.006 227.244 520.158M189.536 480.678C189.666 479.388 189.783 478.097 189.929 476.809 190.22 474.242 190.529 471.677 190.826 469.11 190.973 467.842 191.11 466.572 191.248 465.303 191.354 464.326 191.655 463.977 192.525 463.831 193.359 463.692 193.743 463.865 194.096 464.838 194.484 465.907 194.819 467.012 195.019 468.129 195.812 472.559 196.543 477 197.395 481.482 197.516 480.862 197.645 480.243 197.757 479.621 198.04 478.046 198.224 476.446 198.618 474.899 199.086 473.061 199.487 471.24 199.434 469.325 199.4 468.119 199.786 466.988 200.427 465.949 201.023 464.983 202.345 464.641 202.915 466.007 203.296 466.92 203.682 467.859 203.858 468.825 204.46 472.131 204.979 475.452 205.509 478.771 205.667 479.756 205.758 480.751 205.896 481.877 205.013 481.091 204.357 480.436 204.126 479.248 203.69 477.013 202.941 474.838 202.332 472.636 202.021 471.513 201.732 470.384 201.425 469.26 201.386 469.115 201.301 468.983 201.228 468.826 201.125 469.833 201.065 470.801 200.922 471.756 200.493 474.632 199.857 477.491 199.65 480.382 199.53 482.069 199.12 483.681 198.879 485.327 198.734 486.318 198.032 487.228 197.574 488.187 196.706 487.832 196.287 487.169 195.968 486.302 194.93 483.478 194.954 480.474 194.394 477.571 193.911 475.072 193.565 472.546 193.147 470.033 193.098 469.738 192.979 469.454 192.744 469.151 192.592 470.165 192.384 471.176 192.298 472.196 192.091 474.632 191.936 477.073 191.773 479.513 191.67 481.045 191.593 482.578 191.5 484.11 191.489 484.295 191.455 484.48 191.421 484.663 191.316 485.222 191.073 485.698 190.483 485.853 189.874 486.014 189.372 485.68 189.111 485.217 188.486 484.108 187.823 482.987 187.425 481.789 185.712 476.637 184.953 471.301 184.587 465.902 184.565 465.581 184.604 465.248 184.668 464.931 184.816 464.197 185.142 463.952 185.893 463.966 186.521 463.977 186.83 464.358 186.886 464.93 186.947 465.555 186.908 466.189 186.969 466.814 187.424 471.488 187.852 476.168 189.536 480.678M285.001 459.309C283.832 459.718 283.06 460.441 282.569 461.428 281.967 462.638 281.347 463.853 280.918 465.128 280.629 465.986 280.603 466.948 280.555 467.869 280.419 470.449 281.303 472.86 281.847 475.328 281.992 475.989 282.086 476.663 282.171 477.334 282.322 478.537 281.654 479.202 280.457 479.065 279.094 478.911 278.113 477.631 278.795 476.725 279.361 475.972 279.157 475.385 278.98 474.659 278.528 472.816 278.361 470.952 278.357 469.043 278.353 467.388 278.427 465.784 279.043 464.243 280.079 461.646 281.586 459.406 284.097 458.013 284.611 457.727 285.225 457.561 285.813 457.477 286.933 457.314 287.837 458.356 287.599 459.469 287.541 459.739 287.46 460.019 287.321 460.254 286.87 461.017 286.59 461.791 286.745 462.711 286.788 462.962 286.526 463.265 286.401 463.544 286.214 463.958 285.91 464.356 285.858 464.788 285.749 465.676 285.569 466.481 285.069 467.272 283.47 469.802 283.706 473.009 286.352 474.64 286.489 474.725 286.638 474.798 286.79 474.853 289.013 475.653 292.379 474.019 293.09 471.78 293.142 471.617 293.07 471.379 292.986 471.213 291.473 468.268 290.585 465.14 290.484 461.838 290.383 458.485 290.45 455.127 290.428 451.771 290.424 451.165 290.409 450.545 290.279 449.959 290.062 448.981 290.403 448.107 290.687 447.231 290.916 446.521 291.776 446.399 292.17 447.026 292.417 447.418 292.61 447.93 292.599 448.384 292.523 451.644 292.314 454.902 292.292 458.162 292.27 461.532 292.398 464.945 293.629 468.108 294.481 470.299 295.848 472.289 296.977 474.371 297.511 475.356 298.152 476.199 299.214 476.713 299.677 476.937 299.99 477.466 300.404 477.889 299.001 478.535 297.478 478.162 296.274 476.909 295.908 476.529 295.619 476.064 295.357 475.604 295.132 475.207 295.031 474.741 294.809 474.343 294.594 473.96 294.293 473.627 294.07 473.326 293.606 473.879 293.17 474.504 292.631 475.02 290.716 476.851 288.483 477.058 286.077 476.187 284.67 475.677 283.431 474.913 282.486 473.723 281.716 472.75 281.484 471.664 281.692 470.438 281.889 469.277 282.313 468.273 282.942 467.246 284.239 465.122 284.844 462.708 285.105 460.227 285.134 459.959 285.046 459.679 285.001 459.309M234.573 478.542C235.268 479.131 235.247 479.742 234.871 480.27 234.107 481.343 233.314 482.406 232.429 483.379 231.95 483.904 231.165 483.923 230.515 483.686 229.365 483.267 228.331 482.657 227.757 481.48 227.455 480.857 227.101 480.26 226.72 479.559 226.308 480.254 225.88 480.889 225.543 481.567 225.082 482.497 224.435 483.224 223.55 483.763 222.662 484.303 221.861 484.951 220.722 485.012 219.07 485.101 217.3 483.913 216.968 482.292 216.701 480.984 216.743 479.716 217.012 478.362 217.465 476.091 218.519 474.122 219.52 472.104 220.353 470.423 221.822 469.9 223.644 469.908 223.596 469.513 223.549 469.13 223.502 468.748 223.271 466.847 222.876 464.948 222.855 463.044 222.834 461.058 223.148 459.064 223.37 457.08 223.462 456.262 224.098 455.884 224.873 456.054 225.407 456.171 225.767 456.912 225.58 457.591 225.463 458.015 225.222 458.41 225.137 458.837 224.976 459.647 224.884 460.473 224.771 461.293 224.755 461.406 224.796 461.525 224.787 461.641 224.326 467.517 225.753 473.007 228.18 478.293 228.529 479.054 228.821 479.845 229.226 480.575 230.175 482.286 231.528 482.491 232.901 481.099 233.378 480.614 233.674 479.95 234.051 479.367 234.219 479.106 234.382 478.844 234.573 478.542M218.671 480.853C218.696 480.856 218.721 480.858 218.746 480.861 218.801 481.161 218.77 481.522 218.931 481.744 219.193 482.106 219.577 482.642 219.917 482.647 222.514 482.686 224.799 480.694 225.088 477.979 225.277 476.21 224.572 474.581 224.16 472.914 224.101 472.675 223.545 472.404 223.225 472.412 221.571 472.446 220.651 473.54 220.103 474.922 219.589 476.216 219.214 477.569 218.859 478.919 218.696 479.537 218.728 480.207 218.671 480.853M257.875 474.492C257.584 475.494 257.363 476.366 257.078 477.216 256.7 478.343 256.201 479.387 254.961 479.838 254.026 480.178 253.186 480.208 252.377 479.468 250.678 477.913 249.556 476.088 249.001 473.809 248.382 471.265 247.875 468.714 247.498 466.126 247.155 463.777 246.714 461.439 246.251 459.111 245.682 456.248 245.651 453.363 245.749 450.467 245.759 450.167 245.84 449.87 245.877 449.571 245.933 449.124 246.132 448.84 246.624 448.805 247.132 448.769 247.638 448.84 247.755 449.384 247.884 449.981 247.937 450.628 247.861 451.232 247.524 453.908 247.837 456.535 248.294 459.164 248.696 461.482 248.951 463.83 249.435 466.131 249.999 468.814 250.026 471.623 251.206 474.164 251.625 475.066 252.09 475.965 252.658 476.778 253.296 477.691 254.167 477.622 254.834 476.709 254.957 476.542 255.047 476.349 255.144 476.163 256.491 473.568 257.102 470.815 256.941 467.891 256.911 467.382 256.941 466.861 257.024 466.358 257.074 466.053 257.207 465.616 257.431 465.513 257.852 465.32 258.346 465.238 258.785 465.665 259.359 466.221 259.453 466.788 259.345 467.598 259.014 470.081 259.217 472.534 260.25 474.869 260.646 475.763 260.945 476.702 261.385 477.571 261.595 477.983 262.038 478.274 262.366 478.631 262.943 479.255 262.852 479.48 262.057 479.809 261.331 480.11 260.931 479.904 260.4 479.326 259.313 478.142 258.963 476.627 258.277 475.265 258.167 475.046 258.052 474.831 257.875 474.492M319.179 466.983C318.817 468.145 318.528 469.177 318.173 470.185 317.67 471.615 316.689 472.499 315.119 472.526 314.738 472.532 314.28 472.39 313.982 472.156 312.087 470.668 310.893 468.763 310.31 466.383 309.682 463.817 309.16 461.245 308.786 458.633 308.446 456.26 307.992 453.9 307.531 451.548 306.975 448.708 306.933 445.847 307.032 442.974 307.042 442.695 307.091 442.418 307.13 442.143 307.203 441.628 307.416 441.286 308.017 441.267 308.635 441.245 309.038 441.521 309.146 442.083 309.24 442.577 309.254 443.113 309.174 443.609 308.763 446.188 309.106 448.731 309.493 451.269 309.869 453.732 310.202 456.208 310.721 458.645 311.293 461.326 311.314 464.139 312.503 466.677 312.935 467.599 313.438 468.498 314.004 469.345 314.559 470.174 315.34 469.991 316.01 469.315 316.185 469.139 316.296 468.893 316.414 468.666 317.76 466.072 318.39 463.324 318.226 460.397 318.196 459.865 318.233 459.322 318.311 458.794 318.353 458.506 318.477 458.085 318.684 457.994 319.082 457.82 319.557 457.687 319.989 458.077 320.591 458.622 320.758 459.18 320.636 460.042 320.308 462.375 320.458 464.7 321.372 466.924 321.805 467.979 322.186 469.059 322.68 470.083 322.869 470.478 323.315 470.744 323.631 471.081 324.243 471.734 324.152 471.952 323.304 472.294 322.601 472.576 322.219 472.384 321.704 471.825 320.614 470.646 320.253 469.135 319.574 467.77 319.463 467.545 319.35 467.323 319.179 466.983M272.275 473.329C271.595 474.477 271.006 475.621 270.277 476.666 269.452 477.849 268.362 478.698 266.801 478.672 265.92 478.655 265.295 478.188 265.069 477.397 264.836 476.583 264.688 475.704 264.722 474.861 264.783 473.355 264.915 471.838 265.184 470.356 265.611 468.007 266.49 465.851 268.44 464.303 270.04 463.032 271.643 463.053 273.045 464.965 273.21 465.189 273.403 465.398 273.542 465.64 273.918 466.294 274.387 466.806 273.934 467.771 273.574 468.54 273.806 469.599 273.821 470.529 273.861 472.96 274.744 475.173 275.64 477.378 275.804 477.78 276.097 478.148 276.176 478.563 276.227 478.824 276.072 479.264 275.863 479.398 275.663 479.527 275.157 479.482 274.992 479.314 274.498 478.808 273.961 478.261 273.705 477.624 273.142 476.226 272.741 474.762 272.275 473.329M266.573 474.995C266.608 475.274 266.595 475.427 266.647 475.551 266.797 475.902 266.935 476.503 267.146 476.532 267.575 476.595 268.05 476.353 268.501 476.221 268.581 476.196 268.638 476.097 268.707 476.035 270.427 474.479 271.014 472.335 271.555 470.227 271.838 469.126 271.655 467.913 271.757 466.757 271.808 466.184 271.614 465.812 271.152 465.567 270.686 465.32 270.179 465.16 269.732 465.609 269.232 466.113 268.617 466.568 268.296 467.174 266.978 469.653 266.469 472.333 266.573 474.995M212.371 485.466C212.278 485.471 212.181 485.461 212.091 485.481 210.07 485.922 209.526 485.314 208.481 483.481 207.655 482.032 207.657 480.457 207.542 478.878 207.446 477.555 207.55 476.249 208.063 475.049 208.579 473.843 209.209 472.659 209.959 471.583 210.687 470.538 211.932 470.441 213.114 470.386 213.249 470.379 213.407 470.502 213.526 470.6 214.447 471.352 214.78 472.507 214.234 473.611 213.38 475.335 212.431 477.013 211.507 478.7 211.126 479.396 210.733 480.087 210.294 480.746 209.966 481.237 209.999 481.696 210.224 482.189 210.754 483.349 211.843 483.865 213.061 483.51 213.527 483.372 213.975 483.172 214.436 483.016 214.675 482.935 214.932 482.816 215.167 482.843 215.377 482.864 215.637 483.02 215.745 483.195 215.826 483.326 215.766 483.628 215.659 483.778 214.861 484.904 213.757 485.468 212.371 485.466M209.528 477.961C210.872 476.264 211.986 474.652 212.082 472.565 210.3 473.853 209.608 475.659 209.528 477.961M304.167 474.22C304.073 474.224 303.977 474.215 303.887 474.235 301.846 474.682 301.308 474.05 300.274 472.235 299.461 470.81 299.444 469.257 299.334 467.696 299.236 466.324 299.332 464.968 299.861 463.723 300.375 462.513 301.026 461.335 301.79 460.267 302.512 459.258 303.737 459.17 304.896 459.116 305.03 459.109 305.19 459.23 305.309 459.326 306.233 460.077 306.569 461.235 306.023 462.341 305.171 464.068 304.223 465.748 303.299 467.439 302.907 468.156 302.497 468.864 302.056 469.551 301.786 469.97 301.785 470.359 301.958 470.803 302.433 472.022 303.597 472.63 304.845 472.26 305.333 472.116 305.798 471.898 306.279 471.731 306.497 471.656 306.738 471.558 306.95 471.591 307.165 471.625 307.422 471.767 307.531 471.941 307.614 472.072 307.559 472.377 307.452 472.526 306.654 473.652 305.555 474.223 304.167 474.22M301.323 466.581C302.888 465.074 304.2 462.206 303.761 461.241 302.083 462.606 301.394 464.405 301.323 466.581M269.787 458.785C270.049 457.971 270.264 457.175 270.566 456.411 270.726 456.011 271.085 455.934 271.495 456.174 273.009 457.059 273.018 459.606 271.479 460.46 271.291 460.564 270.832 460.493 270.709 460.338 270.361 459.897 270.121 459.369 269.787 458.785M264.657 459.882C264.867 459.144 265.02 458.349 265.323 457.616 265.582 456.993 265.958 456.96 266.488 457.365 268.068 458.575 267.602 460.465 266.37 461.503 266.062 461.763 265.677 461.79 265.435 461.341 265.197 460.899 264.964 460.457 264.657 459.882"/>
  </g>
</svg>
