<svg xmlns="http://www.w3.org/2000/svg" viewBox="0 0 119.21 74.42"><defs><style>.cls-1{fill:#d5b78c;}.cls-2{fill:#ebd6ae;}.cls-3{fill:#dad0b9;}</style></defs><title>Resurs 4</title><g id="Lager_2" data-name="Lager 2"><g id="Lager_1-2" data-name="Lager 1"><g id="xqlrfP"><path class="cls-1" d="M115.86,40.12c-1,3.93-4.67,3.73-7.38,5.85a1.7,1.7,0,0,1-1.9.52c.33,2.52-2.41,1.66-4.74,2.5-1.8.64-3.42-.57-5.15.11-2.1.82-5.42-.42-7,2-1.09,0-2.82,1.34-3.9,1.4-3.22-.64-4.88.71-7.92,1.3-5.48,1.07-9.75,4.64-15.19,5.83s-7.71,2.91-13.25,3.9c-.81.14-.93.48-1.26,1.24-.46,0-2.86.7-3.31.73a23.34,23.34,0,0,0-9.12,3.66l-1.87.26c-.92-.1-1.8-.16-2,1.06l-5,1a1,1,0,0,0-1.39.53L24.18,72c-.8-.16-2.23,2.09-9.3,2.31.8-1,3.41-1.66,3.35-3.48-.16-4.32,4.16-7.45,3.07-12.25-.23-1,1.57-3.23,1.62-5.23,0-1,1.07-.86,1.77-1,.48-.11,1.16-.44,1.08.49-.06.64-.44,1.41.61,1.37s.95-1,.95-1.74c0-2.13.77-3,3-2.19,1.7.64,3.12.07,3.36-1.86s1-1.65,2.36-1.14,3.21,1.93,4.68.24c1.77-2,3.22-2.7,4.71.15.27.52.75.93,1.3.67.77-.37.27-.84-.08-1.25-.22-.25-.3-.45.07-.75,1.92-1.53,2.23-3,.7-4.81-1-1.17-1.69-1.64.39-2.3,1.29-.41,2-2.54,1.25-3.11-2.54-1.9-3.54-5.41-6.82-6.44h0a6.18,6.18,0,0,0,2.49-.12c1.08-.58,2.84-1.12,1.49-3,1.86-2.46,5.48-2.52,7.14-5.25,1.69.37,3.48-.16,5.11.6a3.54,3.54,0,0,0,4.28,2.41,3.8,3.8,0,0,1,3.52,1.14c.5.51,1.47,1.1,1,1.82-.72,1-1.56.19-2.15-.43-2-2-3.82.82-5.78.17-.13,0-1,1.13-.53,1.66,1.49,1.78-.53,3.8-.84,3.63-3.16-1.69-1.09,3-3.11,2.38a8,8,0,0,1-1.41-.61c-1.86-1-2.16.06-2.33,1.6-.22,2,1.35,2,2.56,2.43.43.15,1.26-.13,1,.73-.15.56-.83.58-1.38.61l-.26-.14.27.14a13.31,13.31,0,0,0,4.35,9.67c.19-2.4.72-4.45-.91-6.17-.44-.46-1.74-.36-1-1.49a1.54,1.54,0,0,1,2.3-.3,9.17,9.17,0,0,0,6.27,1.08,6.36,6.36,0,0,1-.93-3.82c.25-2.73,1.58-5.69-.56-8.31-.45-.55.3-1.33.34-1.28,1.57,1.92,3.44-.12,5.2.46,3.08,1,4.17,3.91,6.2,5.88,1.33,1.3,1.83,1.35,2.78-.11s1.11-4.23,4.07-3.88c.14,0-.2-1.1.66-1.07,1.39.64-.66,3.17,1.68,3.14,2.66,0,4.38-1.95,4.47-4.69,0-1-1.22-2.3.89-2.77,1.68-.38,3.23-.64,4.32,1a6.49,6.49,0,0,0,5.16,2.88c1.19.1,2.59,1.49,3.58,0,.89-1.3-1.17-1.83-1.24-3,0-.44-.11-.85.3-1.15,2.38.28,2.28,4.36,5.39,3.52l.26.16-.27-.15c.08-2,.28-4.41-2.38-4.54-5.12-.23-6.09-.86-5.81-5.69,0-.81-.91-2.47.79-2.59,1.27-.1,1.85,1.08,2.26,2.33.86,2.67,2.19,3.09,4.5,1.49.57-.4,1-.17,1.45-.17,2.84,0,5.88.33,6.45-3.68,0-.07.4-.08.61-.12a5.12,5.12,0,0,1,2.22,3.58c1,4.55,3.44,8.84,2.2,13.74-.19.72-.35,1.45-.53,2.18-1.76-.49-2.29,1.3-3.48,1.84-.9.41-1.61,1.06-1.44,1.88C113.69,40.66,115,39.87,115.86,40.12ZM29.28,63.49c-1.82.38-1.47,2.06-1.94,3.25l-.15.26.13-.27c2.17-.16,1.93-1.79,2-3.24.66-.11,1.59.23,1.66-.85,0-.27-.53-.81-.79-.8C29,61.88,29.41,62.84,29.28,63.49ZM116.48,24c-1.48-.16-2.41-2.34-3.93-1.2a3.58,3.58,0,0,0-1.4,2.7c0,.55-2.84-.61-1.7,1.65.48,1,2.14-.62,2.76.85.17.41,0,1.15,1.06,1.15A7.79,7.79,0,0,1,116.48,24ZM60.86,45.64c.3,1.35-1.28,3,.35,4,1.18.72,2.62.18,3.63-1.15C62.24,47.65,62.24,47.65,60.86,45.64Z"/><path class="cls-2" d="M53.31,39.45c.55,0,1.23-.05,1.38-.61.24-.86-.59-.58-1-.73-1.21-.43-2.78-.4-2.56-2.43.17-1.54.47-2.62,2.33-1.6a8,8,0,0,0,1.41.61c2,.66-.05-4.07,3.11-2.38.31.17,2.33-1.85.84-3.63-.43-.53.4-1.7.53-1.66,2,.65,3.81-2.2,5.78-.17.59.62,1.43,1.41,2.15.43.52-.72-.45-1.31-1-1.82a3.8,3.8,0,0,0-3.52-1.14,3.54,3.54,0,0,1-4.28-2.41h0c2.51-.27,3.1-1.51,1.87-3.69a94,94,0,0,0,9.07-2.93c3-1.3,4.86-4.45,8-5.78,2.28-1,4-2.71,5.8-4.35C87,1.75,92,.73,96.88,0c2-.29,3.63,1.2,5.36,2,2.89,1.3,6,2.41,7.67,5.48-.91.9-1.15,1.79.06,2.62,2.16,1.49,2.84,4.07,4.43,6l0,0c-.21,0-.6.05-.61.12-.57,4-3.61,3.66-6.45,3.68-.48,0-.88-.23-1.45.17-2.31,1.6-3.64,1.18-4.5-1.49-.41-1.25-1-2.43-2.26-2.33-1.7.12-.74,1.78-.79,2.59-.28,4.83.69,5.46,5.81,5.69,2.66.13,2.46,2.55,2.38,4.54h0c-3.11.84-3-3.24-5.39-3.52-.41.3-.33.71-.3,1.15.07,1.17,2.13,1.7,1.24,3-1,1.47-2.39.08-3.58,0a6.49,6.49,0,0,1-5.16-2.88c-1.09-1.63-2.64-1.37-4.32-1-2.11.47-.85,1.77-.89,2.77-.09,2.74-1.81,4.66-4.47,4.69-2.34,0-.29-2.5-1.68-3.14-.86,0-.52,1.09-.66,1.07-3-.35-3,2.29-4.07,3.88s-1.45,1.41-2.78.11c-2-2-3.12-4.88-6.2-5.88-1.76-.58-3.63,1.46-5.2-.46,0,0-.79.73-.34,1.28,2.14,2.62.81,5.58.56,8.31a6.36,6.36,0,0,0,.93,3.82A9.17,9.17,0,0,1,58,41.16a1.54,1.54,0,0,0-2.3.3c-.69,1.13.61,1,1,1.49,1.63,1.72,1.1,3.77.91,6.17a13.31,13.31,0,0,1-4.35-9.67Zm54.55-24.66.32.27-.27-.32c-.32-1.46,0-3.25-2-3.88l-.28-.26.26.28C105.66,12.63,104.34,14.91,107.86,14.79ZM90.73,8.27c-.85,0-1.73-.1-2.43.59s-.44,2-1.81,2c-2.53,0-1.58,1.38-.88,2.41,1.5,2.24,2.87,2.23,4.76.2a13.6,13.6,0,0,1,1.73-1.38c1-.76,1.74-2,1.49-2.91S91.84,8.18,90.73,8.27Zm13.41,10.92c1.09-2,.36-3.66-.45-5.2-.23-.45-1.17-.55-.49-1.33.84-.95.85-1.94-.41-2.22s-2.62-1.29-4-.18c-.36.3-.64.79-.16,1.05C101.7,13,101.72,16.79,104.14,19.19ZM81,13.5c-1-.83-1.78-2.16-2.7-2.23-1.3-.09-1.8,1.57-2.07,2.66-.23.91.77,1.43,1.74,1.43C79.27,15.36,80,14.47,81,13.5Zm15.63,8.13A14.7,14.7,0,0,0,93.75,19c-.73-.38-.77.74-.79,1.35C92.9,22,94,22.65,95.34,23,96.08,23.14,96.51,22.62,96.64,21.63ZM95.73,6.11c2-.22,3.55-.33,5.09-.59a1.11,1.11,0,0,0,1-1.42c-.19-.69-1.26-1.24-1.41-.94C99.46,5.06,96.85,3.68,95.73,6.11ZM80.11,27.9c-.28.27-.59.42-.64.63a.9.9,0,0,0,.23.79c.44.25.77,0,.78-.51A3.13,3.13,0,0,0,80.11,27.9Zm25.67-11.85c0-.07-.08-.17-.15-.19s-.13.06-.2.1l.24.31Z"/><path class="cls-2" d="M42.27,29.71c3.28,1,4.28,4.54,6.82,6.44.76.57,0,2.7-1.25,3.11-2.08.66-1.38,1.13-.39,2.3,1.53,1.83,1.22,3.28-.7,4.81-.37.3-.29.5-.07.75.35.41.85.88.08,1.25-.55.26-1-.15-1.3-.67-1.49-2.85-2.94-2.17-4.71-.15-1.47,1.69-3.2.3-4.68-.24s-2.12-.72-2.36,1.14-1.66,2.5-3.36,1.86c-2.25-.84-3,.06-3,2.19,0,.72.14,1.7-.95,1.74s-.67-.73-.61-1.37c.08-.93-.6-.6-1.08-.49-.7.15-1.75,0-1.77,1-.05,2-1.85,4.2-1.62,5.23,1.09,4.8-3.23,7.93-3.07,12.25.06,1.82-1.8,1.94-2.6,3-.65.28-1.27,1-2,.1.38-2.82-1.84-.69-2.59-1.36v0c-.69-2.52-3.36-2.63-5-4-2.38-2.07-1.2.5-1.44,1.2C9.46,69.55,3.23,68.9,3,67c-.2-1.53.39-1.57-.07-2.39A21.24,21.24,0,0,1,.14,56.72c-.89-7.79,2.41-11.91,10-14a86.47,86.47,0,0,0,17.28-6.39c.43,1.32,1.23,1.7,2.71,2,2.58.49,4.16-1.84,6.66-1.67,1.37.1-.76-2,.56-3.06.35-.27-.91-.43-1.46-.59C38,31.82,39.47,29.51,42.27,29.71Z"/><path class="cls-1" d="M35.86,33c.55.16,1.81.32,1.46.59-1.32,1,.81,3.16-.56,3.06-2.5-.17-4.08,2.16-6.66,1.67-1.48-.28-2.28-.66-2.71-2C29.86,34.32,33.2,34.53,35.86,33Z"/><path class="cls-1" d="M114.4,16.11c-1.59-1.92-2.27-4.5-4.43-6-1.21-.83-1-1.72-.06-2.62A17.89,17.89,0,0,1,114.28,13C114.84,14,115.69,15,114.4,16.11Z"/><path class="cls-2" d="M115.86,40.12c-.84-.25-2.17.54-2.44-.81-.17-.82.54-1.47,1.44-1.88,1.19-.54,1.72-2.33,3.48-1.84C118.1,37.42,117.89,39.27,115.86,40.12Z"/><path class="cls-2" d="M58.51,21.91c-1.63-.76-3.42-.23-5.11-.6a5.53,5.53,0,0,1,5.14-3.23l0,3.83Z"/><path class="cls-1" d="M4.65,69.79c.24-.7-.94-3.27,1.44-1.2,1.62,1.4,4.29,1.51,5,4C8.71,72.17,6.84,70.63,4.65,69.79Z"/><path class="cls-2" d="M46.26,26.56c1.35,1.9-.41,2.44-1.49,3a6.18,6.18,0,0,1-2.49.12C43.09,28,44.64,27.24,46.26,26.56Z"/><path class="cls-1" d="M58.51,21.91l0-3.83,1.84.14C61.61,20.4,61,21.64,58.51,21.91Z"/><path class="cls-1" d="M11.06,72.6c.75.67,3-1.46,2.59,1.36A4.14,4.14,0,0,1,11.06,72.6Z"/><path class="cls-2" d="M31.82,70.44c.22-1.22,1.1-1.16,2-1.06C33.7,70.75,32.81,70.7,31.82,70.44Z"/><path class="cls-2" d="M106.58,47.79c-1,.07,1.1-.75,1.9-1.82C109,46.19,106.54,47.27,106.58,47.79Z"/><path class="cls-2" d="M25.39,72a1,1,0,0,1,1.39-.53C26.56,72.21,26.29,72.9,25.39,72Z"/><path class="cls-2" d="M116.48,24a7.79,7.79,0,0,0-3.21,5.15c-1,0-.89-.74-1.06-1.15-.62-1.47-2.28.11-2.76-.85-1.14-2.26,1.69-1.1,1.7-1.65a3.58,3.58,0,0,1,1.4-2.7C114.07,21.7,115,23.88,116.48,24Z"/><path class="cls-2" d="M60.86,45.64c1.38,2,1.38,2,4,2.82-1,1.33-2.45,1.87-3.63,1.15C59.58,48.63,61.16,47,60.86,45.64Z"/><path class="cls-2" d="M27.34,66.74c.47-1.19.12-2.87,1.94-3.25h0c0,1.45.21,3.08-2,3.24Z"/><path class="cls-2" d="M29.28,63.49c.13-.65-.24-1.61.87-1.65.26,0,.81.53.79.8-.07,1.08-1,.74-1.66.85Z"/><path class="cls-2" d="M27.32,66.73l-.13.27.15-.26Z"/><path class="cls-2" d="M53.32,39.45l-.27-.14.26.14Z"/><path class="cls-2" d="M106.58,29.06l.27.15-.26-.16Z"/><path class="cls-1" d="M90.73,8.27c1.11-.09,2.6-.06,2.86.91s-.53,2.15-1.49,2.91a13.6,13.6,0,0,0-1.73,1.38c-1.89,2-3.26,2-4.76-.2-.7-1-1.65-2.44.88-2.41,1.37,0,1.17-1.36,1.81-2S89.88,8.3,90.73,8.27Z"/><path class="cls-1" d="M104.14,19.19c-2.42-2.4-2.44-6.19-5.49-7.88-.48-.26-.2-.75.16-1.05,1.36-1.11,2.71-.11,4,.18s1.25,1.27.41,2.22c-.68.78.26.88.49,1.33C104.5,15.53,105.23,17.22,104.14,19.19Z"/><path class="cls-1" d="M81,13.5c-1,1-1.74,1.86-3,1.86-1,0-2-.52-1.74-1.43.27-1.09.77-2.75,2.07-2.66C79.23,11.34,80.06,12.67,81,13.5Z"/><path class="cls-1" d="M96.64,21.63c-.13,1-.56,1.51-1.3,1.33C94,22.65,92.9,22,93,20.38c0-.61.06-1.73.79-1.35A14.7,14.7,0,0,1,96.64,21.63Z"/><path class="cls-1" d="M95.73,6.11c1.12-2.43,3.73-1.05,4.65-2.95.15-.3,1.22.25,1.41.94a1.11,1.11,0,0,1-1,1.42C99.28,5.78,97.72,5.89,95.73,6.11Z"/><path class="cls-1" d="M105.94,10.86c2,.63,1.65,2.42,2,3.88l0,0c-3.52.12-2.2-2.16-1.94-3.91Z"/><path class="cls-1" d="M80.11,27.9a3.13,3.13,0,0,1,.37.91c0,.49-.34.76-.78.51a.9.9,0,0,1-.23-.79C79.52,28.32,79.83,28.17,80.11,27.9Z"/><path class="cls-1" d="M105.78,16.05l-.11.22-.24-.31c.07,0,.15-.12.2-.1S105.73,16,105.78,16.05Z"/><path class="cls-1" d="M107.91,14.74l.27.32-.32-.27Z"/><path class="cls-1" d="M105.92,10.88l-.26-.28a3.45,3.45,0,0,1,.28.26Z"/></g><ellipse class="cls-3" cx="11.33" cy="58.81" rx="10.77" ry="14.67" transform="translate(-16.49 5.77) rotate(-16.77)"/></g></g></svg>