<svg width="16" height="16" viewBox="0 0 16 16" fill="none" xmlns="http://www.w3.org/2000/svg">
<path d="M1.05989 12C1.14234 12.1426 1.29193 12.2222 1.4458 12.2222C1.52131 12.2222 1.59788 12.203 1.66805 12.1627L3.18517 11.2884V13.0372C3.18517 13.2827 3.38445 13.4816 3.63038 13.4816C3.87632 13.4816 4.0756 13.2827 4.0756 13.0372V10.7751L5.68675 9.84658L6.23525 10.1627L5.42959 11.5556C5.30671 11.7682 5.37955 12.04 5.59254 12.1627C5.66271 12.2032 5.73928 12.2222 5.81479 12.2222C5.96866 12.2222 6.11843 12.1424 6.2007 12L7.00619 10.6071L7.5547 10.9232V12.7804L5.59236 13.9113C5.37937 14.034 5.30653 14.3058 5.42941 14.5184C5.51187 14.661 5.66146 14.7406 5.81533 14.7406C5.89083 14.7406 5.96741 14.7214 6.03758 14.6811L7.5547 13.8068V15.5556C7.5547 15.8011 7.75397 16 7.99991 16C8.24585 16 8.44513 15.8011 8.44513 15.5556V13.8069L9.96224 14.6812C10.0324 14.7218 10.109 14.7408 10.1845 14.7408C10.3384 14.7408 10.4881 14.661 10.5704 14.5186C10.6933 14.306 10.6205 14.0341 10.4075 13.9115L8.4453 12.7804V10.9232L8.99381 10.6071L9.7993 12C9.88175 12.1426 10.0313 12.2222 10.1852 12.2222C10.2607 12.2222 10.3373 12.203 10.4075 12.1627C10.6205 12.04 10.6933 11.7682 10.5704 11.5556L9.76492 10.1627L10.3134 9.84658L11.9246 10.7751V13.037C11.9246 13.2825 12.1239 13.4814 12.3698 13.4814C12.6157 13.4814 12.815 13.2825 12.815 13.037V11.2882L14.3321 12.1625C14.4023 12.203 14.4789 12.222 14.5544 12.222C14.7082 12.222 14.858 12.1422 14.9403 11.9998C15.0632 11.7872 14.9903 11.5154 14.7773 11.3927L13.2602 10.5184L14.7773 9.64409C14.9903 9.52142 15.0632 9.2496 14.9403 9.03698C14.8174 8.82436 14.5449 8.75129 14.3321 8.87431L12.3698 10.0053L10.7586 9.0768V8.44444H12.3698C12.6157 8.44444 12.815 8.24551 12.815 8C12.815 7.75449 12.6157 7.55556 12.3698 7.55556H10.7586V6.9232L12.3698 5.99467L14.3321 7.12569C14.4023 7.16622 14.4789 7.18524 14.5544 7.18524C14.7082 7.18524 14.858 7.10542 14.9403 6.96302C15.0632 6.7504 14.9903 6.47858 14.7773 6.35591L13.2602 5.4816L14.7773 4.60729C14.9903 4.48462 15.0632 4.2128 14.9403 4.00018C14.8174 3.78756 14.5449 3.71449 14.3321 3.83751L12.815 4.71182V2.96302C12.815 2.71751 12.6157 2.51858 12.3698 2.51858C12.1239 2.51858 11.9246 2.71751 11.9246 2.96302V5.22489L10.3134 6.15342L9.76492 5.83733L10.5706 4.44444C10.6935 4.23182 10.6206 3.96 10.4076 3.83733C10.1945 3.71431 9.92218 3.78756 9.79947 4L8.99399 5.39289L8.44548 5.0768V3.21956L10.4078 2.08871C10.6208 1.96604 10.6936 1.69422 10.5708 1.4816C10.4479 1.26898 10.1754 1.19573 9.9626 1.31893L8.4453 2.19307V0.444444C8.4453 0.198933 8.24603 0 8.00009 0C7.75415 0 7.55487 0.198933 7.55487 0.444444V2.19307L6.03776 1.31876C5.82459 1.19556 5.55247 1.26898 5.42959 1.48142C5.30671 1.69404 5.37955 1.96587 5.59254 2.08853L7.55487 3.21956V5.0768L7.00637 5.39289L6.2007 4C6.07782 3.78738 5.80535 3.71431 5.59254 3.83733C5.37955 3.96 5.30671 4.23182 5.42959 4.44444L6.23508 5.83733L5.68657 6.15342L4.07542 5.22489V2.96302C4.07542 2.71751 3.87614 2.51858 3.63021 2.51858C3.38427 2.51858 3.18499 2.71751 3.18499 2.96302V4.71182L1.66787 3.83751C1.4547 3.71449 1.18241 3.78773 1.05971 4.00018C0.936827 4.2128 1.00966 4.48462 1.22266 4.60729L2.73977 5.4816L1.22266 6.35591C1.00966 6.47858 0.936827 6.7504 1.05971 6.96302C1.14216 7.1056 1.29175 7.18524 1.44562 7.18524C1.52113 7.18524 1.59771 7.16604 1.66787 7.12569L3.63021 5.99467L5.24135 6.9232V7.55556H3.63021C3.38427 7.55556 3.18499 7.75449 3.18499 8C3.18499 8.24551 3.38427 8.44444 3.63021 8.44444H5.24135V9.0768L3.63021 10.0053L1.66787 8.87431C1.4547 8.75129 1.18241 8.82453 1.05971 9.03698C0.936827 9.2496 1.00966 9.52142 1.22266 9.64409L2.73977 10.5184L1.22266 11.3927C1.00984 11.5156 0.936828 11.7874 1.05989 12ZM6.13196 6.9232L8.00009 5.84658L9.86822 6.92338V9.0768L8.00009 10.1534L6.13196 9.07662V6.9232Z" fill="white"/>
</svg>
