<svg xmlns="http://www.w3.org/2000/svg" viewBox="0 0 26.26 102.29"><defs><style>.a{fill:#b0b0b0;}</style></defs><title>arrow-down</title><path class="a" d="M479.5,355.5c-.13-.06-.42,0-.36.14l.5.12Z" transform="translate(-465.37 -355.47)"/><path class="a" d="M478.58,356.65a1.26,1.26,0,0,0,1.12.3c-.48-.2-.28-.25-.85-.46-.06-.17.16-.3.34-.27-.13-.06.11-.27-.2-.36-.38.22-.4.51-.08.8C478.8,356.73,478.67,356.67,478.58,356.65Z" transform="translate(-465.37 -355.47)"/><path class="a" d="M477.8,373.39l.06-.11A.19.19,0,0,0,477.8,373.39Z" transform="translate(-465.37 -355.47)"/><path class="a" d="M477.53,383.75a.12.12,0,0,0-.11-.12C477.46,383.71,477.49,383.77,477.53,383.75Z" transform="translate(-465.37 -355.47)"/><path class="a" d="M477,385.52l0-.1S476.95,385.5,477,385.52Z" transform="translate(-465.37 -355.47)"/><path class="a" d="M477.8,373.39l-.16.28C477.81,373.68,477.77,373.52,477.8,373.39Z" transform="translate(-465.37 -355.47)"/><path class="a" d="M479.78,359a.37.37,0,0,0-.13-.15,1,1,0,0,1,.05.14Z" transform="translate(-465.37 -355.47)"/><path class="a" d="M477.4,368.81v-.08l-.2-.07Z" transform="translate(-465.37 -355.47)"/><path class="a" d="M477.33,365.31c0,.08.4.11.59.14-.17,0-.26-.1-.29-.17A1.32,1.32,0,0,0,477.33,365.31Z" transform="translate(-465.37 -355.47)"/><path class="a" d="M478.07,359.75l-.06-.1Z" transform="translate(-465.37 -355.47)"/><path class="a" d="M477.31,371.33l-.15,0A.4.4,0,0,0,477.31,371.33Z" transform="translate(-465.37 -355.47)"/><path class="a" d="M467.36,441.94l.06,0S467.34,441.92,467.36,441.94Z" transform="translate(-465.37 -355.47)"/><polygon class="a" points="1.21 81.96 1.27 82 1.46 81.86 1.21 81.96"/><path class="a" d="M476.44,388.76h0C476.4,388.66,476.41,388.71,476.44,388.76Z" transform="translate(-465.37 -355.47)"/><path class="a" d="M476.76,418.5c.38-.34.48.55.9,0C477.49,418.59,477,418.08,476.76,418.5Z" transform="translate(-465.37 -355.47)"/><path class="a" d="M479.72,359a.75.75,0,0,1,0,.14A.22.22,0,0,0,479.72,359Z" transform="translate(-465.37 -355.47)"/><path class="a" d="M477.66,418.55h0l0-.05Z" transform="translate(-465.37 -355.47)"/><path class="a" d="M476.7,396.23a.6.6,0,0,0,.18-.08A.39.39,0,0,0,476.7,396.23Z" transform="translate(-465.37 -355.47)"/><path class="a" d="M477.3,390.67l-.06.14A.29.29,0,0,0,477.3,390.67Z" transform="translate(-465.37 -355.47)"/><path class="a" d="M477.29,399.12c0,.07-.09.1,0,.2l.05,0C477.25,399.25,477.23,399.2,477.29,399.12Z" transform="translate(-465.37 -355.47)"/><path class="a" d="M477.3,402.12l.08-.06,0-.1Z" transform="translate(-465.37 -355.47)"/><path class="a" d="M473.21,449.41a1.26,1.26,0,0,1,.13-.46C473.17,449.23,472.63,448.68,473.21,449.41Z" transform="translate(-465.37 -355.47)"/><path class="a" d="M479.54,359c.11,0,.16,0,.18.09a.7.7,0,0,0,0-.1A.27.27,0,0,0,479.54,359Z" transform="translate(-465.37 -355.47)"/><path class="a" d="M480.62,399.24l-.06.48A1.72,1.72,0,0,0,480.62,399.24Z" transform="translate(-465.37 -355.47)"/><path class="a" d="M480.22,438.74l.05.11A.09.09,0,0,0,480.22,438.74Z" transform="translate(-465.37 -355.47)"/><path class="a" d="M480.62,401.13a.77.77,0,0,0-.29.27.38.38,0,0,0,.11.06Z" transform="translate(-465.37 -355.47)"/><path class="a" d="M473.34,448.94h0Z" transform="translate(-465.37 -355.47)"/><path class="a" d="M470.53,446.87c.26.37.56-.15.87-.27.45.34-.18.45-.29.76.32.18.88.09,1,.3-.06.07-.06.13-.18.15.28,0,.45.22.63.43a1.56,1.56,0,0,0,.3.28,1.31,1.31,0,0,0,.51.25.41.41,0,0,1,0,.16,1.77,1.77,0,0,1,.5-.61c.17.21.51.09.34.47-.09-.13-.19,0-.31,0l.27.1c-.16.66-.35-.17-.62.12.52.41,1.12.49,1.3,1-.13.67-.73-.69-.55.31l-.36-.81c-.09,1.22-.28-.46-.42.78.67,1.13.92.79,1.56,1.89.22-.18.05-.63.25-.83.46.19.56.86.72,1.57s.32,1.39.65,1.26c.15-.36.05-1.57.57-.31q0,.5,0,1c.69,1,0-1.32.83.38,0,.39-.39-.2-.26.08.65,1.62.15-.34.44,0l.37,1.34a4.73,4.73,0,0,0,1.25,1c0-.42-.09-.81-.11-1.15a5.13,5.13,0,0,0,.47,1.29,10.39,10.39,0,0,1,0-2.57,15.66,15.66,0,0,1,.39-1.83l-.44-1.28c0-.12.2,0,.28.3.17-.4-.28-.42-.45-.94,0-.36.25-.12.39.27-.19-.8-.39-1.73-.48-2.5a3.38,3.38,0,0,1,.15-1.88l.13.25c.18-.82-.9-1.17-.49-1.6l.08.09c.19-1.11-.21-2.33.45-3.17-.63-.16.28-1.09-.6-1.17.44-.63.6-.45.89-1.34,0-.24-.55-.35-.64-.65h.46l-.48-.4.55-.21-.12-.28a.36.36,0,0,1-.34.22c-.21-.43.32-1,.56-1.06l-.39-1c.19,0,.25.19.37.33-.47-.54.49-.1.05-.6-.11.07-.28,0-.37,0a1.31,1.31,0,0,0,.16-1.23l.32.08c.08-.75-.15-1.59-.15-2.44-.15.3-.7.23-.75,0l.49-.1c-.3-.16-.18.26-.55-.07.06-.32.56-.21.71,0l-.17-.38c.15,0,.22.07.41.09-.3-.16.49-.66,0-.89l.15,0c0-.85-.16-1.23-.19-1.92-.42,0-.33-.28-.67-.49a5.3,5.3,0,0,0,.43-1.68c-.21-.43-.36-.13-.61-.32.38,0,.35-.64.62-.33a5.88,5.88,0,0,0-.39-1.86c-.16.1-.23.21-.36.16s.16-.38.35-.36l0,0c-.58-1,1.12-2.4.32-3.23l0,0-.42-.86c.07-.4.29.24.53-.06-.64-.93.09-1.46-.33-2.23,1.13-.59-.08-2.1.64-2.9l-.27,0c-.26-.21.15-.25.21-.4-.21,0-.24.22-.38.1-.32-1.75.39-3.61.63-5.4.07-.65-1.38-.37-.74-1.2l.5.23c-.59-1.32,0-2.7-.48-4,.11.08.26.08.26.21.36-.27,0-1-.28-1,0-.2.27,0,.42-.17.21-.27-.46-.69-.1-.83.06,0,.12.08.14.13-.17-.18,0-.83-.37-.66.2-.49-.18-.93.06-1.32-.46-.25.22-.83-.43-.91.68,0,.55-.85.23-1.16.21.1.21-.27.5-.15,0-.35-.14-.67-.48-.61.81-.65-.65-1.3.39-1.66a17.87,17.87,0,0,1-.77-2.94c.68,0,.07,1,.78,1-.28-.89-.86-1.4-.7-2.28.09-.23.29.13.41.21-.28-.89.06-1.72-.31-2.51.06,0,.13.09.18.17,0-.16.1-.36-.21-.34l.08.15c-.45.25-.93-.62-1.17-.65.88.26.22-.78,1.34-.36a.42.42,0,0,0-.41-.21c.06-.15.18-.2.41,0-.17-.56-.49-.36-.49-.86.15,0,.21.1.38.16-.29-.26-.58-.51-.45-.94.09,0,.21,0,.2.1,0-.73-.77-1.25-.49-2.05.65.24.21-.27.77-.32l-.17-.43-.27.17c0-.38-.4-.71-.21-1l.23.28-.11-.71-.21.4c-.29-.38-.71,0-.55-.46.06.1,0-.38.34-.58h0c-.18-.19-.37-.38-.23-.66.18-.07.62.06.74,0-.47-.18-.13-.89-.63-1.12a.79.79,0,0,0,.47.06l-.38-.16c.12-.18.18-.2.41-.17.07-.53-.71.17-.4-.46,0,0,.09,0,.15.13.16-.63-.24-1.22-.05-1.79.56-.17.14.51.61.31-.1-.83-.68-1.73-.54-2.53l-.06.15c-.8-.11.39-.6,0-1,.06.1.44.13.35.1.13-.55-.2-1.13-.45-2l.2.1c.18-.33.11-.86.2-1.21-.2-.1-.17-.31-.47-.18,1.16-1.08-.62-2.07.35-3,0,.11.18.27.18.18l-.19-.82c-.35.06-.21.11-.48.28a.67.67,0,0,1-.36-.54c.23.37.56,0,.75-.16-.11,0-.22,0-.33,0,.62-.43-.7-.07-.28-.66l.18,0c-.09-.22-.33-.42-.28-.66.4-.1.19.23.52.25,0-.33-.76-.65-.36-1,.11.14.11.34.22.48.47-.33.35-.36.43-.61v0l.21-.56-.13.14c-1-.41-.19-.84-.88-1.4.65.54.38.09.83.13.13-.14.27-.36.4-.3-.37-.26.29-.44-.25-.81.15,0,0-.28.38-.22-.12-.34-.25.08-.44.05-.5-.53.61-1.24-.08-2-.28-.66-.78-.78-1-1.39.23-.21.53.17.53.17a.77.77,0,0,0,0-.89c.13.06.24,0,.4-.1,0-.25-.53-.17-.32-.5a2.32,2.32,0,0,1,.59.25c-.13-.3-.41-.59-.54-.89.25-.08.39.18.55.29-.11-.34-.23-.89-.63-1l-.14.22c0-.13.35-.06.42,0,.32.29-.14.42-.29.44l-.09-.22c-.86.22.14.87.09,1.31l-.62-.18.52.45c-.16.1-.51.16-.6-.06-.31.31.22.28-.12.55a.08.08,0,0,1-.11,0l.19.31c-.13-.06-.44.05-.35-.14-.36.55.47.89,0,1.1l0,0c.21.76.46.07,1,.65l-1.13.39.46.08c0,.08-.05.24-.23.21.31.29.2-.05.5.12-.42.38.2,1-.53,1.13.35.14.27-.36.51,0-.78.12.13.47-.23.82-.4-.11-.19-.44-.55-.09.68.21-.15.68,0,1,.54,0,.23.64.41,1.13-.18,0-.3.92-.5,1.38h-.09c.55.09.45.56.56.9a.67.67,0,0,1-.61-.26v.32a.53.53,0,0,1,.33.39l-.41-.08c0,.43.48.86.21,1.42.38,0,1.07-.44,1.33.14-.21,0-.56,0-.65-.11,0,.05.17.18.08.28l-.35-.23c-.15.25.29.13.26.33-.3,0-.21.15-.45.12,0-.05.12-.18,0-.25a.89.89,0,0,1-.45.59c.17,0,.4,0,.44.17,0,.43-.36.15-.51.4.21.1,0,.38.44.39,0,.13-.21.15-.33.2.2.22.06,1,.53.79l0-.06,0,0h0c.44.73-.25,1.51-.06,2.24h-.15c.17.43.1,1,.42,1.27,0,.13-.27.3-.45.25.11.33.28.37,0,.84-.26-.33-.23.11-.19-.34-.13.43-.37.53,0,1-.38-.16-.48.32-.36.53l.27-.3a1.53,1.53,0,0,1,0,.63l-.5-.11c-.61.88,1,1.58,0,2.25.35.23.25-.48.65-.27-.07.4-.78.82-.79.95-.28.55.73.52.54,1.09a.61.61,0,0,1,.82.29c-.07.4-.75.5-.89.24,0-.1,0-.14.1-.14s-.14-.3-.33-.14l.18.05c-.18.2-.16.76-.45.63.17.3.29.13.38-.1-.26.52,0,.81-.18,1.34.1-.08.31-.16.31-.08-.22.78.34.34.42.87-.27.3-.65-.11-.42.43-.18.33-.47.07-.62-.06.34.49-.23.91-.29,1.18l-.14-.26a.73.73,0,0,1,.08.41l.36-.15c-.06.15-.06.28-.21.27.23.15.59-.12.91.19-.18.2.19.61-.28.68.16-.63-.47.07-.55-.46a.42.42,0,0,1,0,.38c-.05,0-.1,0-.12-.06-.42.6.53.28.52.9-.27-.08-.51.14-.45.25,0-.25.44-.12.65.11-.21.4.15.44.13.64l.1-.24c.27.08.23.28.32.56-.21,0-.14-.25-.23-.15.47.31-.48.7-.17,1.13-.18.2-.5,0-.62.2.35.48-.36.52-.08,1,.36-.15.27-.17.62.19l-.25-.84.52.54c0-.25-.23-.53-.16-.68.29.26.2.23.5.11-.54.35.31.69,0,1.08h-.89c-.39.6.45,1.07.23,1.85l.15-.25c.35.1,0,.48.19.73-.3,0-.4.13-.59.24.22,0,0,.57.57.64l-.39.35c-.16.63.84.72.74,1.32-.32-.18-.53.09-.76-.31,0,.2-.06.38.15.39-.19.12.4.56.12.75.13.09.44.11.42.34a.26.26,0,0,1-.15,0c.15,0,.2.36.53.16-.92.62.07,1.74-.73,2.28a9.15,9.15,0,0,1,.22,1.37c-.09,0-.15,0-.12-.08-.28.55.85.34.54,1-.48.32-.26-.33-.44-.13-1,.09.13.76-.44,1.18l-.06-.1c-.33.32.37.79.3,1.32a.28.28,0,0,0-.15,0,2.71,2.71,0,0,1,.8,1.55c-.38-.16-.2-.23-.59-.13.05.23.62-.07.73.39-.21.15-.39.48-.8.52l0-.43c-.54.22,0,.56-.07.78l-.23,0c.08.66.67.67.62,1.37l.18-.07c.58.39-.33.32.11.71l-.59.12a6.36,6.36,0,0,1,.68,1.35c-.44-.26-.66-.79-.92-1.12,0,.25,0,.86.34,1-.06-.1-.2-.23-.11-.33a1.38,1.38,0,0,1,.68,1.22c-1.15-.09-.29,1.31-1.18,1.68.42.89-.18,1.77-.11,2.8.89-.37,0,.3.94.24.06.24,0,.33,0,.36l-.55.73c-.27.17-.2-.23-.41-.21-.07.53-.39.22-.63.57.33-.07.47.18.34.49l.42-.42c.49.74-.77.64-.29,1.38l-.29-.24c.17.38,0,1.41.73,1.79-.11.07-.36.16-.42,0-.11.91.78,2,.33,2.74l-.22-.07c.06.17.42.3.2.51-.09,0-.22-.07-.24,0s.39.45.26.68l-.25-.19c-.29.89.61,1.37.77,2.12-.66,0-.87.7-1,1h-.09c-.08,1,.55,1.76.81,2.72-.72.6-.3,2-.7,3,.12-.15.51,0,.58.19-.13.23.46.62-.15.59v-.08c-.59.17-.44.63-.45,1l.79.06c-1.15.94.42,2.47-.61,3,.2.23.2.51.39.74h-.42a4.65,4.65,0,0,0-.06,1.73l-.3-.16c0,.44,1.22.56,1.25,1l-.63.12c0,.77-.55,1.55,0,2.3-.09,0-.28,0-.3-.16,0,.17-.12.55-.11.8,0,0,.12.1.55.18-.57-.11-.06.17.19.6l-.42-.31a2.26,2.26,0,0,1,.83,1.09c-.05,0-.33-.29-.23-.26-.22,0,.4.61.17.64l-.27-.44c0,.16.11.32.42.92.17.44-.11.36-.48-.33.23.43.54,1.16.43,1.11a6,6,0,0,1-.27-.61c-.14-.11,0,.25.08.63s.2.74,0,.35l-.25-.61c0-.22,0-.37.06-.29-.39-.83-.45-.91-1-2.19.15.34.38.93.55,1.44s.28.94.19.77l-.13-.36,0-.14c0-.08,0,0,.06.27l-.07-.17-.08-.17c-.31-.95-.22-.59-.27-.67.34,1.16.21.87.55,1.9,0-.09,0-.12,0-.11a.24.24,0,0,0,0-.09l0,.1.13.12c.17.58.25,1,0,.23.19.71.36,1.39.42,1.69-.6-1.78-.93-2.75-1.12-3.61,0,.37-.18,0-.29,1.19-.08.07-.09-.5-.11-.73s.07,0,.08-.19c-.11.2-.31-.28-.48.41-.12-.57.22-.55,0-.73l.08-.17c0-.76-.21-.43-.65-.48a1.08,1.08,0,0,1-.7-.34,1.18,1.18,0,0,1-.32-.95c0,.12,0,.18-.06.25-.55-1.57-2.34-2.34-2.65-4.07-.14-.45-.45-.28-.83-.34l.3-.35-.7-.06c-.7-.3.2-1.58-.88-1.81l-.18.27c-.13-.27-.71-.65-.4-.82-.06,0-.31.11-.26-.08l.18-.15-.77-.35c-.21-.56.81-.49.34-1.19-.26-.19-1.08-.29-1.14-.1a.4.4,0,0,1-.11.49l-.27-.15c-.59.38-1.29.63-1.27,1.48l.63.13-.18.33-.26-.31c-.12.38.2.32.45.34a.59.59,0,0,0-.18.39l.82,0c-.18.21-.56.15-.49.5.38,0,.36-.54.75-.37-.11.38-.36.48,0,.53a.33.33,0,0,1-.38.12c.32.06.46.46.83.34-.17.43.57.59,0,1a1.27,1.27,0,0,1,.83.19c-.88.15.46.69-.28,1.12.75-.19.9.68,1.54.87-.06,0-.19,0-.19,0,.13.28,0,.47,0,.71.49-.32.88,0,1.32,0-.23.63-.69.24-1.05.65.37-.3.76.23,1-.11-.11.44,0,.3-.29.7.62-.4.26.13.76.05,0,.54-.49.5,0,.72C471,447,470.53,446.87,470.53,446.87Zm9.09,9.21v0l0,.39Zm0-1.32a4,4,0,0,0,0,.52,3.65,3.65,0,0,1-.29-.86C479.41,454.73,479.49,454.66,479.62,454.76Zm-3-6.77c0-.14,0,.1.13.36,0,0,0,0,0,.08l0,.14Z" transform="translate(-465.37 -355.47)"/><path class="a" d="M477,449.47v.06l.1.3-.1-.35Z" transform="translate(-465.37 -355.47)"/><path class="a" d="M477.87,373.26v0l.06,0Z" transform="translate(-465.37 -355.47)"/><polygon class="a" points="15.05 84.26 14.94 84.27 15.04 84.34 15.05 84.26"/><path class="a" d="M479.32,368.34a.21.21,0,0,0,.11-.06A.27.27,0,0,0,479.32,368.34Z" transform="translate(-465.37 -355.47)"/><path class="a" d="M479.41,366.22l.15-.3A1.21,1.21,0,0,0,479.41,366.22Z" transform="translate(-465.37 -355.47)"/><path class="a" d="M479.62,364.58l-.18,0h0Z" transform="translate(-465.37 -355.47)"/><path class="a" d="M480.12,390.55a.15.15,0,0,0,0,.06C480.22,390.77,480.19,390.67,480.12,390.55Z" transform="translate(-465.37 -355.47)"/><path class="a" d="M479.13,382.83a1.36,1.36,0,0,1,.2.25C479.37,382.94,479.37,382.83,479.13,382.83Z" transform="translate(-465.37 -355.47)"/><polygon class="a" points="15.25 43.71 15.25 43.71 15.25 43.77 15.25 43.71"/><path class="a" d="M479.33,383.43a.33.33,0,0,0,0-.36A.48.48,0,0,0,479.33,383.43Z" transform="translate(-465.37 -355.47)"/><path class="a" d="M479.81,357.5l0-.08h-.07Z" transform="translate(-465.37 -355.47)"/><path class="a" d="M479.76,357.41l0-.09S479.72,357.4,479.76,357.41Z" transform="translate(-465.37 -355.47)"/><path class="a" d="M479.61,357.14l.11.18C479.72,357.26,479.73,357.18,479.61,357.14Z" transform="translate(-465.37 -355.47)"/><path class="a" d="M479.62,359.67l.15,0Z" transform="translate(-465.37 -355.47)"/><path class="a" d="M479.66,360.32c0-.16.33-.39.23-.61l-.12,0C480,359.79,479.41,360.17,479.66,360.32Z" transform="translate(-465.37 -355.47)"/><path class="a" d="M477.77,363.07l.12-.55c-.16.1-.38.22-.42,0C477,363.18,477.84,362.34,477.77,363.07Z" transform="translate(-465.37 -355.47)"/><path class="a" d="M477.54,364.77c-.08-.3-.24,0-.33,0C477.36,364.95,477.4,365,477.54,364.77Z" transform="translate(-465.37 -355.47)"/><path class="a" d="M477.54,377.11l-.38,0C477.21,377.31,477.3,377.08,477.54,377.11Z" transform="translate(-465.37 -355.47)"/><polygon class="a" points="14.15 24 14.38 23.78 14.03 23.67 14.15 24"/><polygon class="a" points="11.41 25.39 11.36 25.29 11.5 25.67 11.41 25.39"/><path class="a" d="M476.92,401.59l.47-.07C477.31,401.36,476.78,401.33,476.92,401.59Z" transform="translate(-465.37 -355.47)"/><path class="a" d="M477.4,410.53c-.24.1-.39.35-.16.5C477.28,410.84,477.46,410.63,477.4,410.53Z" transform="translate(-465.37 -355.47)"/><polygon class="a" points="11.26 81.89 11.1 81.71 11.23 82.05 11.26 81.89"/><path class="a" d="M477.68,454.92c.1.08.34.25.31.19l-.39-.3Z" transform="translate(-465.37 -355.47)"/><path class="a" d="M478.55,455.29a6,6,0,0,0-.88-.69c.37.3.2.2.64.55,0,.06-.16,0-.31-.16.1.08-.12,0,.13.17s.38.16.15-.07A2.63,2.63,0,0,1,478.55,455.29Z" transform="translate(-465.37 -355.47)"/><path class="a" d="M480.89,453.32l-.06,0Z" transform="translate(-465.37 -355.47)"/><path class="a" d="M482.16,452s0,.05.07.08A.22.22,0,0,0,482.16,452Z" transform="translate(-465.37 -355.47)"/><path class="a" d="M482.79,452h0S482.82,452.07,482.79,452Z" transform="translate(-465.37 -355.47)"/><path class="a" d="M480.89,453.32l.16.05C480.91,453.28,480.93,453.33,480.89,453.32Z" transform="translate(-465.37 -355.47)"/><path class="a" d="M477.81,454.27l.09.1,0-.05Z" transform="translate(-465.37 -355.47)"/><path class="a" d="M480.75,454.21h0l.16.13Z" transform="translate(-465.37 -355.47)"/><path class="a" d="M480.46,454.76s-.32-.25-.47-.36a1.28,1.28,0,0,1,.22.19Z" transform="translate(-465.37 -355.47)"/><path class="a" d="M479.29,455.14l0,0Z" transform="translate(-465.37 -355.47)"/><path class="a" d="M481.08,453.91l.13.08Z" transform="translate(-465.37 -355.47)"/><path class="a" d="M488.47,437.94l.06,0Z" transform="translate(-465.37 -355.47)"/><path class="a" d="M490.59,438.56v0l.19.14Z" transform="translate(-465.37 -355.47)"/><path class="a" d="M483.56,451.89h0S483.58,451.92,483.56,451.89Z" transform="translate(-465.37 -355.47)"/><path class="a" d="M486.33,447.43c-.34-.17-.34-.36-.73-.53A4.08,4.08,0,0,0,486.33,447.43Z" transform="translate(-465.37 -355.47)"/><path class="a" d="M477.86,454.28a0,0,0,0,1,0,0S477.85,454.27,477.86,454.28Z" transform="translate(-465.37 -355.47)"/><path class="a" d="M485.6,446.9h0l0,0Z" transform="translate(-465.37 -355.47)"/><path class="a" d="M484.11,450.67l-.16-.1Z" transform="translate(-465.37 -355.47)"/><path class="a" d="M483.06,451.13h0Z" transform="translate(-465.37 -355.47)"/><path class="a" d="M483.92,449.91s.08,0,0,0l0,0S484,449.94,483.92,449.91Z" transform="translate(-465.37 -355.47)"/><path class="a" d="M484.22,449.48l-.07,0v0Z" transform="translate(-465.37 -355.47)"/><path class="a" d="M487.71,439.38l.32.2C487.78,439.41,487.74,439.28,487.71,439.38Z" transform="translate(-465.37 -355.47)"/><path class="a" d="M478,454.4l-.14-.12v0Z" transform="translate(-465.37 -355.47)"/><path class="a" d="M481.22,448l.1,0A.11.11,0,0,0,481.22,448Z" transform="translate(-465.37 -355.47)"/><path class="a" d="M485.56,442.52l0,0S485.53,442.49,485.56,442.52Z" transform="translate(-465.37 -355.47)"/><path class="a" d="M481.41,447.7a1.7,1.7,0,0,0,.27.13l-.08-.07Z" transform="translate(-465.37 -355.47)"/><path class="a" d="M488,439.58h0Z" transform="translate(-465.37 -355.47)"/><path class="a" d="M487.54,438.55c-.06.06.42.34.67.54.07.17-.36-.2-.61-.34.09.13.47.46.43.49a1.39,1.39,0,0,1-.2-.14c.32.31-.09.17.32.55l-.12-.07.63.43s.25.26-.06.06c0,0-.1-.1-.18-.17l.11.12c-.45-.27-.12-.15-.43-.37.1.16.4.48.25.44-.42-.28-.06-.21-.48-.41l.21,0c-.7-.41.08,0-.66-.46-.19,0,.14.25,0,.26.22.18.35.23.56.42.32.43-1.12-.63-.63-.15.26.22.78.6.45.48l-.45-.36c-.11.06.64.53.26.4-.17-.15-.11-.18-.17-.21-.42-.2.24.23.2.28l-.42-.28c0,.14.22.46.22.62a1.93,1.93,0,0,0-.38-.27c.11.28-.25.25-.59.21l.32.3a.8.8,0,0,1-.24-.15c-.17,0,.23.16.35.29s-.23-.11-.33-.2c.24.3.48.72,0,.54l-.09-.09c-.2,0,.68.6.3.43l-.05-.06c-.27,0-.06.46-.69.2.5.39-.34,0,.37.51a3.49,3.49,0,0,0-.86-.32c-.06,0,.42.37.46.46l-.38-.27.36.34-.47-.29.07.11a1.1,1.1,0,0,1,.3.17c.13.18-.37,0-.56-.17l.22.37a1.53,1.53,0,0,1-.27-.26c.33.35-.41-.27-.11.05a3.24,3.24,0,0,1,.3.22c-.25-.13-.31,0-.26.08l-.25-.2c-.14.06,0,.32-.13.44a1.94,1.94,0,0,1,.61.44l-.41-.27c.23.2.18.07.45.33a1.92,1.92,0,0,1-.59-.41l.1.15c-.12-.08-.18-.14-.32-.25.23.2-.47-.19-.06.15l-.12-.08c-.09.12,0,.27,0,.39.34.25.24.23.5.46-.16,0-.49-.11-.52,0,.13.18.28.22.46.4-.32-.22-.35-.11-.54-.31,0,.14,0,.18.13.49a1.64,1.64,0,0,1,.31.18c0,.06-.17,0-.32-.15l0,0c.36.48-1.16-.3-.59.28l0,0,.25.36c-.09,0-.21-.2-.44-.3.43.5-.23.16,0,.51-1-.57-.15.35-.82,0l.22.15c.19.18-.15-.05-.22-.07a2.06,2.06,0,0,1,.32.21c.09.44-.69.29-1.06.41-.13.05,1.09.85.49.6l-.38-.32c.35.53-.29.38,0,.85-.09-.08-.21-.16-.19-.18-.32-.17-.12.14.12.31,0,0-.22-.15-.36-.21s.31.36,0,.18a.4.4,0,0,1-.11-.1c.12.13-.12.09.24.31-.21,0,.06.24-.18.15.35.3-.27,0,.26.38-.55-.4-.53-.19-.3,0-.16-.13-.2-.08-.42-.27,0,.06,0,.17.33.37-.73-.38.4.56-.49,0a2.85,2.85,0,0,1,.33.87c-.55-.4.05-.19-.53-.59.14.29.56.7.34.73s-.23-.19-.31-.27c.14.29-.22.21,0,.54a.75.75,0,0,1-.13-.13s-.12,0,.14.17l-.05-.07a6.56,6.56,0,0,1,.89.77c-.69-.55-.26,0-1.13-.72a1.49,1.49,0,0,0,.31.27.91.91,0,0,1-.34-.23c.08.18.37.34.31.41-.12-.09-.16-.13-.3-.24.21.2.42.41.28.4s-.17-.12-.16-.13.5.63.19.58c-.5-.41-.2-.08-.66-.4l.09.16.24.13s.25.33.07.27l-.16-.17v.16l.21.06c.2.22.58.4.4.39s0,.05-.33-.11h0c.13.13.26.27.12.23s-.5-.37-.6-.43c.36.3,0,.2.4.52a4.3,4.3,0,0,0-.38-.28l.29.24a1.27,1.27,0,0,1-.36-.21c-.11,0,.6.39.28.3a1.39,1.39,0,0,1-.11-.1c-.19,0,.07.31-.14.29-.48-.3-.06-.15-.47-.4,0,.18.38.64.19.68h.07c.64.47-.38-.14-.12.14a2.56,2.56,0,0,0-.28-.22c-.16,0,0,.28.16.54l-.16-.13c-.18-.06-.17.06-.28.06a1.56,1.56,0,0,0,.36.3c-1.06-.51.3.66-.59.24,0,0-.12-.14-.13-.13l.07.23a2.87,2.87,0,0,0,.42.24c.16.13.26.26.24.29a2,2,0,0,0-.63-.41l.27.19c-.55-.29.56.41.16.26l-.15-.11c.05.09.23.25.16.26-.34-.22-.13-.14-.4-.33,0,.06.55.53.2.34-.08-.08-.06-.11-.13-.2-.42-.22-.32-.15-.41-.16h0l-.23,0,.12.05c.81.66.07.23.57.71-.47-.45-.3-.23-.66-.5a1.48,1.48,0,0,1-.35-.19c.27.25-.28-.1.12.26-.12-.08,0,0-.33-.19.06.12.22.14.36.25.35.36-.62-.17-.14.33.16.26.55.56.69.79a1.74,1.74,0,0,1-.42-.33c-.21-.08-.2,0-.1.12a2,2,0,0,0-.34-.22c0,.06.42.33.21.25s-.33-.26-.45-.37c.08.12.27.32.35.44a2.46,2.46,0,0,1-.42-.36,1.14,1.14,0,0,0,.42.51l.14.05a1.54,1.54,0,0,1-.34-.25c-.23-.22.16,0,.28.1l.05.09c.72.46,0-.21.06-.24l.49.39-.38-.36a2.16,2.16,0,0,1,.49.36c.28.13-.15-.17.16,0l.09.06-.12-.15c.1.08.37.25.27.22.35.13-.29-.4.12-.16l0,0c-.09-.23-.37-.27-.75-.67l1,.6-.37-.28s.07,0,.21.11c-.23-.22-.17-.11-.39-.3.38.19-.05-.26.55.15-.27-.22-.26-.1-.41-.3.65.44-.06-.15.27,0s.11.17.44.33c-.54-.43.19,0,.11-.13-.44-.32-.12-.22-.22-.4.15.11.34,0,.55.09l.07.05c-.44-.33-.31-.34-.37-.45a2.68,2.68,0,0,1,.47.39l0,0a.8.8,0,0,1-.23-.25l.33.25c0-.07-.31-.4,0-.33a5.86,5.86,0,0,1-1.07-.79,4,4,0,0,1,.52.39s-.12-.13,0-.09l.26.24c.15.05-.23-.19-.18-.2.24.17.19.1.38.24,0,0-.12,0,0,0a1.1,1.1,0,0,1,.43.18,1.48,1.48,0,0,1-.34-.28c0-.07.31.18.46.24-.16-.13,0-.05-.32-.31,0,0,.19.1.29.16-.14-.14.06-.18-.35-.42h0v0h0c-.29-.36.36-.07.28-.29l.12.09c-.09-.16,0-.2-.21-.42a1.27,1.27,0,0,1,.39.22c-.06-.11-.19-.21.06-.14s.2.12.12.16c.15,0,.35.13.07-.16.29.24.42.23.35.13l-.25-.11c0-.06,0-.07.07-.08l.4.3c.59.22-.68-.82.21-.33-.26-.23-.25-.07-.56-.34a6.29,6.29,0,0,1,.74.32c.28.08-.54-.49-.33-.47a2.53,2.53,0,0,1-.64-.51,2.22,2.22,0,0,1,.75.48s0,0-.1,0a.58.58,0,0,0,.26.21l-.14-.11c.17.08.21,0,.44.17a.52.52,0,0,0-.32-.21c.26.07.09-.11.28-.09a1.16,1.16,0,0,1-.26-.16c.26,0-.24-.24-.25-.37.25.11.52.39.39.18a1.58,1.58,0,0,1,.5.36c-.23-.27.28,0,.36,0l.09.12c-.05-.07,0-.09,0-.11l-.31-.18a.33.33,0,0,1,.2.08c-.17-.16-.5-.32-.73-.55.17.08-.1-.2.3.06-.2,0,.39.26.4.38,0,0,0-.06,0,0a.38.38,0,0,1,.1.08c.41.16-.41-.35-.34-.43.21.16.43.27.39.22s-.38-.24-.52-.39c.21.06-.08-.15,0-.17l-.1,0c-.21-.17-.16-.17-.2-.26.17.12.09.12.18.16-.35-.31.47.18.25-.07.17.08.41.29.53.33-.23-.27.35.13.17-.1a1.45,1.45,0,0,1-.49-.38l.12.27-.37-.38s.13.21.06.19a1.27,1.27,0,0,0-.4-.3c.47.26-.19-.28.15-.13l.72.51c.38.14-.26-.42,0-.4l-.15-.05c-.28-.22,0-.1-.08-.22a3.65,3.65,0,0,0,.51.3c-.18-.12.07-.07-.4-.42l.35.17c.19,0-.62-.59-.47-.62a4.22,4.22,0,0,1,.59.48s.09,0-.08-.14c.16.09-.27-.31,0-.18-.1-.09-.35-.27-.3-.29l.12.08a2,2,0,0,0-.41-.33c.82.44.12-.29.83.09a.66.66,0,0,1,0-.32c.07.05.12.09.09.08.28.08-.66-.54-.34-.45s.18.2.35.27c.81.55,0-.19.48.08l0,0c.3.14-.22-.33-.11-.36l.12.09a1.57,1.57,0,0,1-.5-.68,2.58,2.58,0,0,0,.47.36c0-.06-.52-.35-.56-.48a5.1,5.1,0,0,1,.71.39l0,.07c.46.28,0-.09.14-.07l.19.14c0-.14-.48-.48-.37-.56l-.15-.09c-.44-.39.3.14,0-.16l.5.32a4,4,0,0,1-.42-.59,5.88,5.88,0,0,1,.64.7s.05-.15-.17-.34c0,0,.14.15.06.11q-.52-.47-.43-.57c.93.67.37,0,1.14.44-.26-.37.33-.15.38-.34-.77-.46,0-.06-.75-.58,0-.07,0-.07,0,0l.52.21c.24.13.14.15.31.27.11,0,.34.19.57.28-.28-.18-.37-.3-.23-.27l-.39-.18c-.32-.39.69.35.37,0l.21.2c-.1-.15.15-.2-.42-.68a1.43,1.43,0,0,1,.34.25c.18-.07-.43-.75,0-.59l.18.14c0-.06-.31-.29-.11-.19a1.07,1.07,0,0,0,.19.14c-.05-.06-.28-.29-.15-.25l.19.17c.33,0-.36-.55-.41-.75a1.75,1.75,0,0,0,.91.41l.08.06c.17-.1-.27-.57-.38-.86.65.33.45-.12.88,0a1.92,1.92,0,0,1-.45-.36c.13,0-.31-.35.18,0h0c.5.32.42.16.47.12l-.64-.47c1,.53-.09-.6.8-.08-.14-.15-.11-.19-.25-.33l.35.25c.15,0,.23,0,.23-.21l.23.2c.07,0-.94-.79-.92-.86l.53.35c.07-.12.6.09.21-.35a1.16,1.16,0,0,1,.23.2c.05,0,.49,0-.23-.44.46.33.13-.08,0-.29l.33.25c-.4-.36-.52-.44-.59-.6.06,0,.28.18.18.14.22.07-.29-.27-.06-.21l.2.18c.07,0-.05-.12-.29-.33s.16,0,.48.16c-.18-.14-.41-.35-.3-.32a1.22,1.22,0,0,1,.21.17c.3.07-.3-.42.09-.25l.21.13c-.06.07-.12.12-.14.09a5.16,5.16,0,0,1,.81.56c-.2-.22-.66-.67-.47-.62l.11.07,0,0s0,0,0-.07.11,0,.13,0c.27.18.19,0,.22,0a3.81,3.81,0,0,0-.57-.4.06.06,0,0,1,0,.07l0,0,0,0a.36.36,0,0,1,0,.09c-.16-.15-.29-.28-.07-.18l-.53-.44c.51.3.83.4,1.13.6a1.33,1.33,0,0,0-.58-.83c-.06-.09.21.1.32.16s0,.07.12.15c-.13-.17,0-.2-.4-.53.25.08.39.33.38.19l.13.11c.85.33-.95-1.11.12-.65a.77.77,0,0,1-.18-.09c.57.06-.05-.74.76-.51.18,0-.11-.18-.3-.38l.38.25-.38-.37c-.25-.32,1,.48.52-.06l-.26-.16c.08,0-.05-.24.23,0,0,0-.25-.2-.11-.12l.19.14-.26-.34c.2,0,.76.56.88.46a2.91,2.91,0,0,0-.62-.6.79.79,0,0,1-.35-.17l-.07-.11a8.6,8.6,0,0,0-1.6-1l.3.32-.29-.17,0-.07c-.28-.15-.07,0,.07.17a2.14,2.14,0,0,0-.33-.19l.5.45a3.2,3.2,0,0,0-.58-.38c.23.21.52.32.65.49-.28-.15-.49-.31-.29-.11a1.42,1.42,0,0,1-.29-.23c.15.16,0,.14.3.38-.34-.19,0,.18-.54-.21a2,2,0,0,1,.38.41c-.61-.51-.12.09-.8-.41.55.45.15.34.42.64,0,0-.13-.11-.1-.1a1.59,1.59,0,0,1-.39-.15,6,6,0,0,1,.81.73,11.36,11.36,0,0,1-1-.73c.39.27.32.37.66.58a3.75,3.75,0,0,1-.58-.32c.6.43.08.11.42.4-.34-.15-.57-.38-.44-.19A1.34,1.34,0,0,1,487.54,438.55Zm0,2.26h0v0A.39.39,0,0,0,487.49,440.81Zm-.09.13a.09.09,0,0,0,.05,0c.12.08.24.17.23.18A1.17,1.17,0,0,0,487.41,440.94Zm2.58,1.41c0,.05,0,0-.11,0a.15.15,0,0,0,0-.06l0,0Z" transform="translate(-465.37 -355.47)"/><path class="a" d="M489.56,442l0,0-.09,0,.1.08Z" transform="translate(-465.37 -355.47)"/><path class="a" d="M480.82,453.3h0l-.05,0Z" transform="translate(-465.37 -355.47)"/><polygon class="a" points="20.12 86.78 20.21 86.84 20.14 86.78 20.12 86.78"/><path class="a" d="M479.14,453.18l-.09-.05Z" transform="translate(-465.37 -355.47)"/><path class="a" d="M478.84,453.43l-.15,0Z" transform="translate(-465.37 -355.47)"/><path class="a" d="M478.51,453.54l.14.11h0Z" transform="translate(-465.37 -355.47)"/><path class="a" d="M480.74,449.52v0C480.68,449.43,480.7,449.46,480.74,449.52Z" transform="translate(-465.37 -355.47)"/><path class="a" d="M480.76,451.2l-.14-.15S480.57,451.06,480.76,451.2Z" transform="translate(-465.37 -355.47)"/><polygon class="a" points="15.83 92.51 15.84 92.51 15.84 92.5 15.83 92.51"/><path class="a" d="M480.67,451c-.08,0-.08,0,0,0S480.71,451.05,480.67,451Z" transform="translate(-465.37 -355.47)"/><path class="a" d="M477.63,454.45h0l.05,0Z" transform="translate(-465.37 -355.47)"/><path class="a" d="M477.66,454.49l0,0S477.7,454.52,477.66,454.49Z" transform="translate(-465.37 -355.47)"/><path class="a" d="M477.76,454.62l-.07-.09S477.67,454.55,477.76,454.62Z" transform="translate(-465.37 -355.47)"/><path class="a" d="M478,454.25l-.12-.09Z" transform="translate(-465.37 -355.47)"/><path class="a" d="M478,454.13s-.31-.13-.25,0l.1.07C477.71,454,478.23,454.3,478,454.13Z" transform="translate(-465.37 -355.47)"/><path class="a" d="M479.86,454.83h-.16c.14.08.33.19.34.25C480.52,455.26,479.74,454.89,479.86,454.83Z" transform="translate(-465.37 -355.47)"/><path class="a" d="M480.23,454.72c0,.09.19.14.27.19A.51.51,0,0,0,480.23,454.72Z" transform="translate(-465.37 -355.47)"/><path class="a" d="M481.48,452.94l.31.23C481.77,453.1,481.67,453.08,481.48,452.94Z" transform="translate(-465.37 -355.47)"/><polygon class="a" points="14.73 95.99 14.51 95.88 14.79 96.1 14.73 95.99"/><polygon class="a" points="17.11 97.36 17.14 97.41 17.07 97.27 17.11 97.36"/><path class="a" d="M484.48,449.77l-.39-.26C484.14,449.58,484.57,449.89,484.48,449.77Z" transform="translate(-465.37 -355.47)"/><path class="a" d="M485,448.2c.2.12.35.17.18,0C485.12,448.23,485,448.15,485,448.2Z" transform="translate(-465.37 -355.47)"/><polygon class="a" points="22.98 89.31 23.09 89.43 23.01 89.3 22.98 89.31"/></svg>