<?xml version="1.0" encoding="UTF-8"?>
<svg width="134px" height="21px" viewBox="0 0 134 21" version="1.1" xmlns="http://www.w3.org/2000/svg" xmlns:xlink="http://www.w3.org/1999/xlink">
    <!-- Generator: Sketch 46.2 (44496) - http://www.bohemiancoding.com/sketch -->
    <title>TripAdvisor_logo</title>
    <desc>Created with Sketch.</desc>
    <defs></defs>
    <g id="Assets" stroke="none" stroke-width="1" fill="none" fill-rule="evenodd">
        <g id="Artboard-5" transform="translate(-18.000000, -24.000000)" fill-rule="nonzero">
            <g id="TripAdvisor_logo" transform="translate(18.000000, 24.000000)">
                <g id="Owl" transform="translate(0.000000, 1.000000)">
                    <g id="Group">
                        <path d="M14.329,11.527 C15.474,14.629 18.924,16.216 22.027,15.074 C25.128,13.924 26.719,10.477 25.57,7.374 C24.424,4.268 20.979,2.683 17.872,3.828 C14.767,4.977 13.182,8.422 14.329,11.527 Z" id="Shape" fill="#000000"></path>
                        <circle id="Oval" fill="#000000" cx="6.667" cy="9.428" r="5.992"></circle>
                        <path d="M7.688,9.364 C7.688,9.975 7.192,10.475 6.581,10.475 C5.968,10.475 5.473,9.975 5.473,9.364 C5.473,8.754 5.968,8.26 6.581,8.26 C7.192,8.261 7.688,8.754 7.688,9.364 Z" id="Shape" fill="#FFFFFF"></path>
                        <path d="M21.042,9.364 C21.042,9.975 20.548,10.475 19.937,10.475 C19.322,10.475 18.829,9.975 18.829,9.364 C18.829,8.754 19.322,8.26 19.937,8.26 C20.548,8.261 21.042,8.754 21.042,9.364 Z" id="Shape" fill="#FFFFFF"></path>
                        <path d="M3.289,9.364 C3.289,11.181 4.767,12.656 6.583,12.656 C8.395,12.656 9.872,11.181 9.872,9.364 C9.872,7.552 8.394,6.076 6.583,6.076 C4.767,6.078 3.289,7.553 3.289,9.364 Z M4.424,9.364 C4.424,8.176 5.395,7.209 6.585,7.209 C7.773,7.209 8.739,8.178 8.739,9.364 C8.739,10.556 7.773,11.524 6.585,11.524 C5.395,11.525 4.424,10.558 4.424,9.364 Z" id="Shape" fill="#FFFFFF"></path>
                        <path d="M16.644,9.364 C16.644,11.181 18.12,12.656 19.936,12.656 C21.749,12.656 23.224,11.181 23.224,9.364 C23.224,7.552 21.749,6.076 19.936,6.076 C18.121,6.078 16.644,7.553 16.644,9.364 Z M17.779,9.364 C17.779,8.176 18.747,7.209 19.938,7.209 C21.126,7.209 22.091,8.178 22.091,9.364 C22.091,10.556 21.126,11.524 19.938,11.524 C18.746,11.525 17.779,10.558 17.779,9.364 Z" id="Shape" fill="#FFFFFF"></path>
                        <g transform="translate(6.000000, 1.000000)" id="Shape" fill="#000000">
                            <path d="M11.641,2.197 C12.335,1.941 13.045,1.817 13.746,1.798 C11.836,0.943 9.674,0.51 7.279,0.51 C4.902,0.51 2.709,0.953 0.8,1.769 C4.255,1.837 7.064,4.543 7.306,7.954 C7.365,7.171 7.556,6.397 7.894,5.664 C8.639,4.043 9.971,2.813 11.641,2.197 Z"></path>
                        </g>
                        <path d="M25.307,5.491 C25.619,4.154 26.611,2.815 26.611,2.815 L22.162,2.812 C19.667,1.201 16.638,0.347 13.281,0.347 C9.797,0.347 6.651,1.222 4.17,2.844 L0,2.848 C0,2.848 0.98,4.171 1.297,5.499 C0.486,6.602 0.004,7.957 0.004,9.429 C0.004,13.102 2.994,16.09 6.669,16.09 C8.77,16.09 10.643,15.111 11.865,13.59 L13.284,15.715 L14.714,13.572 C15.357,14.39 16.187,15.054 17.16,15.504 C18.778,16.248 20.591,16.321 22.26,15.705 C25.708,14.43 27.478,10.586 26.203,7.143 C25.979,6.536 25.673,5.985 25.307,5.491 Z M13.28,1.511 C15.675,1.511 17.837,1.944 19.747,2.8 C19.045,2.819 18.336,2.944 17.642,3.198 C15.972,3.814 14.64,5.044 13.897,6.663 C13.559,7.396 13.368,8.17 13.309,8.953 C13.065,5.544 10.256,2.838 6.801,2.768 C8.709,1.953 10.902,1.511 13.28,1.511 Z M11.072,12.405 C10.115,13.816 8.497,14.746 6.667,14.746 C3.733,14.746 1.346,12.357 1.346,9.429 C1.346,6.493 3.734,4.109 6.667,4.109 C9.6,4.109 11.987,6.494 11.987,9.429 C11.987,9.608 11.952,9.777 11.934,9.95 C11.845,10.85 11.556,11.692 11.072,12.405 Z M21.793,14.443 C20.46,14.933 19.014,14.879 17.723,14.283 C16.807,13.859 16.057,13.194 15.517,12.369 C15.297,12.035 15.103,11.681 14.961,11.293 C14.799,10.855 14.718,10.403 14.674,9.948 C14.585,9.025 14.719,8.091 15.117,7.226 C15.713,5.935 16.775,4.952 18.108,4.459 C20.861,3.444 23.925,4.856 24.942,7.608 C25.958,10.36 24.545,13.424 21.793,14.443 Z" id="Shape" fill="#FFFFFF"></path>
                    </g>
                </g>
                <g id="US" transform="translate(30.000000, 0.000000)" fill="#FFFFFF">
                    <g id="Group">
                        <path d="M65.578,2.412 C65.578,3.122 66.156,3.698 66.865,3.698 C67.578,3.698 68.152,3.122 68.152,2.412 C68.152,1.703 67.576,1.124 66.865,1.124 C66.156,1.123 65.578,1.703 65.578,2.412 Z" id="Shape"></path>
                        <g transform="translate(0.000000, 2.000000)" id="Shape">
                            <path d="M4.471,0.321 L2.52,0.995 C2.52,0.995 2.52,3.331 2.52,3.54 C2.316,3.54 0.358,3.54 0.358,3.54 L0.358,5.247 C0.358,5.247 2.255,5.247 2.461,5.247 C2.461,5.469 2.461,10.726 2.461,10.726 C2.461,13.33 3.348,14.398 5.528,14.398 C6.081,14.398 6.609,14.33 7.139,14.185 L7.225,14.164 L7.201,12.394 L7.052,12.451 C6.623,12.599 6.288,12.672 6.029,12.672 C5.005,12.672 4.625,12.096 4.625,10.541 C4.625,10.541 4.625,5.467 4.625,5.249 C4.833,5.249 7.12,5.249 7.12,5.249 L7.12,3.54 C7.12,3.54 4.834,3.54 4.625,3.54 C4.625,3.329 4.625,0.271 4.625,0.271 L4.471,0.321 Z"></path>
                            <path d="M11.215,5.269 C11.215,4.668 11.215,3.54 11.215,3.54 L9.236,3.54 L9.236,14.21 L11.4,14.21 L11.4,8.854 C11.4,6.609 12.343,5.372 14.053,5.372 C14.301,5.372 14.541,5.409 14.834,5.492 L14.974,5.532 L15.045,3.426 L14.114,3.355 C12.86,3.353 11.847,4.031 11.215,5.269 Z"></path>
                            <path d="M26.657,3.289 C25.172,3.289 23.924,3.992 23.091,5.271 C23.091,4.76 23.091,3.538 23.091,3.538 L21.113,3.538 L21.113,18.555 L23.278,18.555 C23.278,18.555 23.278,13.311 23.278,12.734 C24.059,13.796 25.179,14.38 26.573,14.38 C29.308,14.38 31.075,12.136 31.075,8.67 C31.076,5.451 29.299,3.289 26.657,3.289 Z M26.053,12.629 C24.341,12.629 23.278,11.166 23.278,8.815 C23.278,6.546 24.4,5.08 26.136,5.08 C27.809,5.08 28.809,6.47 28.809,8.793 C28.809,11.158 27.752,12.629 26.053,12.629 Z"></path>
                        </g>
                        <g transform="translate(32.000000, 0.000000)" id="Shape">
                            <path d="M5.4,5.289 C4.077,5.289 2.918,5.539 1.855,6.05 L1.789,6.082 L1.812,7.929 L1.982,7.833 C2.998,7.265 3.96,6.975 4.836,6.975 C6.403,6.975 7.303,7.873 7.303,9.443 C7.303,9.443 7.303,9.488 7.303,9.534 C7.112,9.534 6.065,9.534 6.065,9.534 C2.503,9.534 0.543,10.824 0.543,13.164 C0.543,15.043 1.958,16.356 3.983,16.356 C5.473,16.356 6.626,15.77 7.448,14.668 C7.448,15.097 7.448,16.209 7.448,16.209 L9.403,16.209 L9.403,9.752 C9.402,6.792 8.056,5.289 5.4,5.289 Z M7.3,11.705 C7.3,13.543 6.194,14.732 4.483,14.732 C3.435,14.732 2.704,14.043 2.704,13.058 C2.704,11.763 3.942,11.052 6.189,11.052 C6.189,11.052 7.115,11.052 7.302,11.052 C7.3,11.219 7.3,11.705 7.3,11.705 Z"></path>
                            <path d="M18.592,0.444 C18.592,0.444 18.592,6.393 18.592,6.987 C17.794,5.878 16.684,5.29 15.258,5.29 C12.611,5.29 10.832,7.47 10.832,10.709 C10.832,14.046 12.636,16.376 15.214,16.376 C16.741,16.376 17.932,15.7 18.758,14.385 C18.758,14.917 18.758,16.21 18.758,16.21 L20.758,16.21 L20.758,0.444 L18.592,0.444 Z M15.775,14.586 C14.126,14.586 13.102,13.148 13.102,10.834 C13.102,8.517 14.135,7.019 15.736,7.019 C17.523,7.019 18.59,8.444 18.59,10.834 C18.592,13.117 17.49,14.586 15.775,14.586 Z"></path>
                            <polygon points="30.426 5.539 27.358 11.701 24.522 5.539 22.084 5.539 27.313 16.21 32.684 5.539"></polygon>
                            <polygon points="35.834 5.539 33.785 5.539 33.785 16.21 35.951 16.21 35.951 5.539"></polygon>
                            <path d="M38.488,8.275 C38.488,9.776 39.519,10.566 41.424,11.498 C42.625,12.088 43.252,12.436 43.252,13.268 C43.252,14.121 42.482,14.672 41.285,14.672 C40.439,14.672 39.5,14.434 38.57,13.977 L38.412,13.899 L38.342,15.78 L38.414,15.807 C39.303,16.161 40.238,16.334 41.203,16.334 C43.849,16.334 45.558,15.073 45.558,13.121 C45.558,11.494 44.476,10.668 42.601,9.793 C41.228,9.148 40.652,8.772 40.652,8.088 C40.652,7.44 41.293,7.018 42.283,7.018 C43.178,7.018 44.051,7.217 44.877,7.611 L45.033,7.683 L45.127,5.842 L45.041,5.817 C44.145,5.551 43.26,5.417 42.408,5.417 C40.064,5.414 38.488,6.564 38.488,8.275 Z"></path>
                            <path d="M52.309,5.289 C49.057,5.289 47.038,7.43 47.038,10.874 C47.038,14.319 49.059,16.457 52.309,16.457 C55.576,16.457 57.604,14.318 57.604,10.874 C57.604,7.431 55.574,5.289 52.309,5.289 Z M52.328,14.691 C50.531,14.691 49.324,13.149 49.324,10.853 C49.324,8.545 50.531,6.997 52.328,6.997 C54.154,6.997 55.334,8.512 55.334,10.853 C55.334,13.185 54.156,14.691 52.328,14.691 Z"></path>
                            <path d="M61.596,7.269 C61.596,6.668 61.596,5.54 61.596,5.54 L59.617,5.54 L59.617,16.21 L61.781,16.21 L61.781,10.854 C61.781,8.609 62.719,7.372 64.431,7.372 C64.677,7.372 64.916,7.409 65.203,7.492 L65.349,7.532 L65.416,5.426 L64.489,5.355 C63.24,5.353 62.229,6.031 61.596,7.269 Z"></path>
                        </g>
                        <polygon id="Shape" points="18.901 5.539 16.853 5.539 16.853 16.21 19.017 16.21 19.017 5.539"></polygon>
                        <path d="M16.643,2.412 C16.643,3.122 17.222,3.698 17.93,3.698 C18.64,3.698 19.217,3.122 19.217,2.412 C19.217,1.703 18.64,1.124 17.93,1.124 C17.222,1.123 16.643,1.703 16.643,2.412 Z" id="Shape"></path>
                        <path d="M102.578,5.067 C102.933,5.426 103.119,5.904 103.119,6.418 C103.119,6.955 102.918,7.436 102.549,7.79 C102.164,8.156 101.686,8.352 101.188,8.352 C100.667,8.352 100.188,8.147 99.815,7.762 C99.459,7.393 99.258,6.921 99.258,6.417 C99.258,5.903 99.463,5.405 99.846,5.027 C100.205,4.675 100.668,4.483 101.188,4.483 C101.721,4.483 102.207,4.685 102.578,5.067 Z M100.086,5.279 C99.774,5.591 99.607,5.993 99.607,6.418 C99.607,6.832 99.761,7.212 100.06,7.516 C100.359,7.828 100.756,7.997 101.181,7.997 C101.595,7.997 101.992,7.838 102.299,7.54 C102.601,7.25 102.767,6.852 102.767,6.417 C102.767,5.992 102.613,5.606 102.32,5.31 C102.013,4.998 101.623,4.833 101.189,4.833 C100.76,4.833 100.385,4.986 100.086,5.279 Z M101.223,5.315 C101.828,5.315 102.139,5.534 102.139,5.931 C102.139,6.204 101.977,6.416 101.688,6.503 L102.164,7.434 L101.52,7.434 L101.123,6.594 L100.955,6.594 L100.955,7.434 L100.371,7.434 L100.371,5.314 L101.223,5.315 L101.223,5.315 Z M100.951,6.249 L101.154,6.249 C101.414,6.249 101.539,6.158 101.539,5.976 C101.539,5.768 101.408,5.683 101.123,5.683 L100.951,5.683 L100.951,6.249 L100.951,6.249 Z" id="Shape"></path>
                    </g>
                </g>
            </g>
        </g>
    </g>
</svg>