<?xml version="1.0" encoding="UTF-8"?>
<svg width="303px" height="37px" viewBox="0 0 303 37" version="1.1" xmlns="http://www.w3.org/2000/svg" xmlns:xlink="http://www.w3.org/1999/xlink">
    <!-- Generator: Sketch 46.2 (44496) - http://www.bohemiancoding.com/sketch -->
    <title>logo</title>
    <desc>Created with Sketch.</desc>
    <defs></defs>
    <g id="Assets" stroke="none" stroke-width="1" fill="none" fill-rule="evenodd">
        <g id="logo">
            <path d="M187.700028,3.4394812 C189.334716,3.4394812 190.49262,4.18871315 190.49262,5.92556904 C190.49262,8.85438485 186.780516,12.9070486 184.975548,12.9070486 C184.260372,12.9070486 183.953868,12.6686566 183.953868,12.1918726 C183.953868,11.7832007 184.124148,11.2042487 185.179884,10.9658567 C186.678348,10.6252967 188.653596,8.0029849 188.653596,5.95962503 C188.653596,5.38067307 188.313036,4.9720011 187.59786,4.9720011 C182.795964,4.9720011 173.294341,13.9968405 173.294341,21.591328 C173.294341,23.5325199 174.384133,25.0309838 176.120989,25.0309838 C180.922884,25.0309838 186.06534,19.6841921 188.244924,16.8234883 C188.687652,16.2104804 189.13038,15.7336964 189.539052,15.7336964 C189.913668,15.7336964 190.15206,15.9039764 190.15206,16.2785924 C190.15206,16.6532083 189.947724,16.8916003 189.539052,17.3683843 C186.678348,20.7058721 181.025052,26.6997277 176.086933,26.6997277 C173.226229,26.6997277 171.421261,24.9288158 171.421261,21.727552 C171.421261,12.9070486 181.63806,3.4394812 187.700028,3.4394812 Z M192.910596,13.7243925 C194.238779,13.7243925 194.851787,14.3714565 194.851787,14.9504085 C194.851787,15.1888004 194.953955,15.9720884 195.294515,15.9720884 C196.145915,15.9720884 196.724867,15.7336964 197.337875,15.4612484 C197.644379,15.3250244 198.121163,15.0185204 198.325499,15.0185204 C198.734171,15.0185204 198.972563,15.1888004 198.972563,15.6315284 C198.972563,16.0402004 198.461723,16.4829284 197.337875,17.0278243 C196.248083,17.5386643 194.851787,17.6067763 194.511227,17.6067763 C193.72794,19.6160802 192.19542,22.238392 189.777444,22.238392 C188.755764,22.238392 187.76814,21.455104 187.76814,19.9225841 C187.76814,16.7213203 190.628844,13.7243925 192.910596,13.7243925 Z M193.080876,16.9937683 C192.87654,16.9597123 192.53598,16.5510404 192.53598,16.1764244 C192.53598,15.9720884 192.604092,15.6996404 192.672204,15.4953044 C191.309964,15.5634164 189.436884,17.9132803 189.436884,19.9906961 C189.436884,20.5015361 189.8115,20.8761521 190.15206,20.8761521 C191.412132,20.8761521 193.080876,17.8451683 193.080876,16.9937683 Z M203.433899,14.5417365 C203.536067,14.5417365 203.910683,13.8606165 204.421523,13.8606165 C205.068587,13.8606165 205.443203,14.2352325 205.443203,14.7120165 C205.443203,15.2909684 204.217187,16.7553763 203.808515,17.6408323 C203.467955,18.3219522 203.195507,19.0711842 203.195507,19.5479682 C203.195507,19.8885281 203.331731,20.2631441 203.638235,20.2631441 C204.762083,20.2631441 206.669219,18.2197842 207.895235,16.7553763 C208.303907,16.2445364 208.746635,15.6996404 209.121251,15.6996404 C209.427755,15.6996404 209.666146,15.8699204 209.666146,16.2104804 C209.666146,16.5850963 209.495867,16.8234883 209.087195,17.3343283 C207.452507,19.2755202 204.830195,21.82972 203.093339,21.82972 C201.969491,21.82972 201.424595,21.0464321 201.424595,20.0928641 C201.424595,19.7182481 201.458651,19.3776882 201.492707,18.9009042 C200.505083,19.8885281 198.189275,22.204336 196.656755,22.204336 C196.214027,22.204336 195.498851,21.591328 195.498851,20.7058721 C195.498851,17.1981043 199.449347,13.7925045 202.037603,13.7925045 C202.582499,13.7925045 203.093339,14.1330645 203.433899,14.5417365 Z M201.594875,15.3931364 C200.232635,15.3931364 197.337875,18.5262882 197.337875,20.0928641 C197.337875,20.2631441 197.474099,20.3653121 197.644379,20.3653121 C198.155219,20.3653121 202.344107,16.7213203 202.344107,16.0742564 C202.344107,15.6996404 202.037603,15.3931364 201.594875,15.3931364 Z M210.585658,19.9225841 C210.585658,19.3095762 209.97265,18.9690162 209.461811,18.6965682 C208.814747,18.3560082 208.167683,17.8792243 208.167683,17.0618803 C208.167683,15.2228564 210.858106,13.6222245 212.390626,13.6222245 C213.03769,13.6222245 213.786922,14.1671205 213.786922,14.8822965 C213.786922,15.6655844 213.310138,16.8916003 212.560906,16.8916003 C212.084122,16.8916003 211.811674,16.6532083 211.811674,16.1764244 C211.811674,15.8358644 212.18629,15.5634164 212.18629,15.2909684 C212.18629,15.1547444 212.084122,15.0525764 211.879786,15.0525764 C211.437058,15.0525764 209.904538,16.0061444 209.904538,16.8575443 C209.904538,17.1299923 210.245098,17.4024403 210.65377,17.6067763 C211.368946,17.9813923 212.35657,18.4581762 212.35657,19.7523041 C212.35657,20.9442641 211.300834,22.238392 209.291531,22.238392 C207.997403,22.238392 207.111947,21.386992 207.111947,20.5355921 C207.111947,20.0247521 207.452507,19.6501362 207.929291,19.6501362 C208.303907,19.6501362 208.644467,19.8204161 208.644467,20.2972001 C208.644467,20.7739841 208.950971,21.0464321 209.495867,21.0464321 C210.14293,21.0464321 210.585658,20.5015361 210.585658,19.9225841 Z M215.557834,11.4085847 C215.898394,11.4085847 216.170842,11.6810327 216.579514,11.6810327 C216.851962,11.6810327 217.192522,11.6469767 217.499026,11.5448087 C218.690986,9.46739281 219.235882,8.34354488 219.84889,7.52620093 C220.427842,6.70885699 220.836514,6.30018501 221.347354,6.30018501 C221.960362,6.30018501 222.198754,6.57263299 222.198754,7.08347296 C222.198754,7.52620093 222.06253,7.79864891 221.38141,8.34354488 C220.904626,8.68410486 220.70029,9.19494482 219.746722,10.8977447 C220.325674,10.7274647 221.006794,10.5912407 221.687914,10.5912407 C222.947986,10.5912407 223.560994,10.9318007 223.560994,11.7150887 C223.560994,12.3962086 223.016098,13.1794966 222.505258,13.1794966 C222.096586,13.1794966 221.994418,12.9751606 221.994418,12.7708246 C221.994418,12.6005446 222.06253,12.4643206 222.06253,12.2940406 C222.06253,12.1578166 221.756026,12.0215926 221.347354,12.0215926 C220.666234,12.0215926 219.576442,12.2940406 218.65693,12.6005446 C216.749794,15.9720884 214.944826,19.9566401 214.944826,21.693496 C214.944826,22 215.183218,22.34056 215.183218,22.544896 C215.183218,22.8513999 214.876714,23.3281839 214.365874,23.3281839 C213.752866,23.3281839 213.412306,22.8513999 213.412306,21.897832 C213.412306,20.0928641 215.08105,16.2104804 216.61357,13.1794966 C214.978882,13.1794966 214.604266,12.9411046 214.604266,12.3962086 C214.604266,11.8513127 214.944826,11.4085847 215.557834,11.4085847 Z M225.400017,14.5417365 C225.502185,14.5417365 225.876801,13.8606165 226.387641,13.8606165 C227.034705,13.8606165 227.409321,14.2352325 227.409321,14.7120165 C227.409321,15.2909684 226.183305,16.7553763 225.774633,17.6408323 C225.434073,18.3219522 225.161625,19.0711842 225.161625,19.5479682 C225.161625,19.8885281 225.297849,20.2631441 225.604353,20.2631441 C226.728201,20.2631441 228.635337,18.2197842 229.861353,16.7553763 C230.270025,16.2445364 230.712753,15.6996404 231.087369,15.6996404 C231.393873,15.6996404 231.632265,15.8699204 231.632265,16.2104804 C231.632265,16.5850963 231.461985,16.8234883 231.053313,17.3343283 C229.418625,19.2755202 226.796313,21.82972 225.059458,21.82972 C223.93561,21.82972 223.390714,21.0464321 223.390714,20.0928641 C223.390714,19.7182481 223.42477,19.3776882 223.458826,18.9009042 C222.471202,19.8885281 220.155394,22.204336 218.622874,22.204336 C218.180146,22.204336 217.46497,21.591328 217.46497,20.7058721 C217.46497,17.1981043 221.415466,13.7925045 224.003722,13.7925045 C224.548618,13.7925045 225.059458,14.1330645 225.400017,14.5417365 Z M223.560994,15.3931364 C222.198754,15.3931364 219.303994,18.5262882 219.303994,20.0928641 C219.303994,20.2631441 219.440218,20.3653121 219.610498,20.3653121 C220.121338,20.3653121 224.310226,16.7213203 224.310226,16.0742564 C224.310226,15.6996404 224.003722,15.3931364 223.560994,15.3931364 Z M231.700377,20.8080401 C232.279329,20.8080401 232.960449,20.4674801 233.437233,19.9906961 C233.879961,19.5479682 234.254577,19.1733522 234.629193,19.1733522 C234.935697,19.1733522 235.174089,19.3436322 235.174089,19.6841921 C235.174089,20.0588081 234.765417,20.4674801 234.220521,20.9783201 C233.301009,21.82972 232.483665,22.272448 231.461985,22.272448 C230.099745,22.272448 228.907785,21.2167121 228.907785,19.5820242 C228.907785,16.7213203 231.189537,11.4085847 233.096673,8.13920889 C235.140033,4.66549712 236.672553,2.99675322 238.613745,2.99675322 C239.431089,2.99675322 239.975985,3.67787318 239.975985,4.39304913 C239.975985,5.38067307 239.499201,7.45808894 237.047169,10.5912407 C235.140033,13.0092166 233.505345,14.4395685 231.700377,15.8699204 C231.155481,16.8234883 230.678697,18.6965682 230.678697,19.4117442 C230.678697,20.2631441 231.053313,20.8080401 231.700377,20.8080401 Z M238.000737,4.66549712 C237.592065,4.66549712 236.093601,5.85745704 234.390801,8.88844084 C232.994505,11.3745287 232.551777,12.7027126 232.347441,13.4519446 C233.028561,12.9070486 234.458913,11.4766967 235.855209,9.6036168 C237.660177,7.21969695 238.341297,5.68717705 238.341297,4.9720011 C238.341297,4.76766511 238.239129,4.66549712 238.000737,4.66549712 Z M255.233072,17.9132803 C255.607688,17.3683843 256.459087,15.8699204 257.174263,14.4055125 C251.452856,14.3374005 247.059632,11.1701927 247.059632,7.56025693 C247.059632,6.36829701 247.33208,5.99368103 248.047256,5.99368103 C248.728376,5.99368103 248.898656,6.538577 248.898656,7.56025693 C248.898656,10.3187928 252.644816,12.8048806 257.957551,12.8048806 C261.022591,7.28780895 263.644903,3.3373132 267.084559,3.3373132 C268.685191,3.3373132 269.877151,4.22276915 269.877151,5.92556904 C269.877151,9.43333681 266.130991,13.3157206 259.251679,14.3374005 C258.161887,16.4829284 256.833703,18.7306242 256.833703,18.7306242 C259.251679,20.2631441 260.647975,22.374616 260.647975,24.7925918 C260.647975,25.4055998 260.171191,25.9504957 259.592239,25.9504957 C258.911119,25.9504957 258.570559,25.4737118 258.570559,24.9288158 C258.570559,24.4520318 258.706783,24.0774159 258.706783,23.6687439 C258.706783,22.442728 257.616991,21.0123761 255.914192,20.0588081 C252.712928,25.0990958 249.03488,28.4706396 244.198928,28.4706396 C240.657104,28.4706396 238.171017,26.6997277 238.171017,23.2260159 C238.171017,19.8544721 241.610672,16.4829284 247.366136,16.4829284 C250.363064,16.4829284 253.189712,17.0278243 255.233072,17.9132803 Z M247.229912,18.0495043 C242.359904,18.0495043 239.839761,20.9442641 239.839761,23.1579039 C239.839761,25.4055998 241.440392,26.8359517 244.232984,26.8359517 C248.217536,26.8359517 251.657192,23.3622399 254.381672,19.2414642 C252.542648,18.4922322 249.988448,18.0495043 247.229912,18.0495043 Z M268.140295,6.16396102 C268.140295,5.41472907 267.663511,4.9720011 267.050503,4.9720011 C264.904975,4.9720011 262.691335,8.24137689 260.171191,12.5664886 C264.904975,11.6469767 268.140295,8.44571287 268.140295,6.16396102 Z M268.174351,7.62836893 C268.583023,7.62836893 268.991695,7.83270491 268.991695,8.65004886 C268.991695,9.5355048 268.072183,10.0804008 267.629455,10.0804008 C267.084559,10.0804008 266.880223,9.36522481 266.880223,8.85438485 C266.880223,8.30948888 267.425119,7.62836893 268.174351,7.62836893 Z M268.140295,16.7553763 C268.548967,16.2445364 268.991695,15.6996404 269.366311,15.6996404 C269.672815,15.6996404 269.911207,15.8699204 269.911207,16.2104804 C269.911207,16.5850963 269.740927,16.8234883 269.332255,17.3343283 C267.731623,19.2755202 264.666583,22.102168 262.929727,22.102168 C262.214551,22.102168 261.431263,21.48916 261.431263,20.2972001 C261.431263,18.7987362 263.168119,15.4612484 263.440567,14.9504085 C263.849239,14.2692885 264.189799,13.7243925 264.666583,13.7243925 C265.143367,13.7243925 265.517983,13.9968405 265.517983,14.4395685 C265.517983,14.9163525 265.279591,15.1547444 265.075255,15.4612484 C264.087631,17.0618803 263.134063,19.4117442 263.134063,20.0928641 C263.134063,20.3312561 263.304343,20.6377601 263.610847,20.6377601 C264.530359,20.6377601 266.982391,18.3219522 268.140295,16.7553763 Z M269.025751,14.2692885 C269.536591,14.2692885 270.047431,14.7120165 270.047431,15.6655844 C270.047431,16.4829284 269.740927,17.8451683 269.468479,18.9009042 C269.332255,19.4117442 269.196031,20.0928641 269.196031,20.1609761 C269.196031,20.2972001 269.264143,20.3312561 269.332255,20.3312561 C270.115543,20.3312561 273.350862,16.0742564 273.350862,12.9070486 C273.350862,12.3621526 272.874078,11.9534806 272.874078,11.3745287 C272.874078,10.9318007 273.214638,10.4890727 273.657366,10.4890727 C274.13415,10.4890727 274.883382,10.5571847 274.883382,12.7027126 C274.883382,15.8018084 271.171279,22 268.787359,22 C268.072183,22 267.391063,21.386992 267.391063,20.5355921 C267.391063,20.1950321 267.595399,19.5139122 267.799735,18.9009042 C268.072183,17.9473363 268.344631,16.9256563 268.344631,16.1423684 C268.344631,15.6655844 268.242463,15.3931364 268.242463,15.1206884 C268.242463,14.6098485 268.617079,14.2692885 269.025751,14.2692885 Z M280.979406,7.62836893 C280.230174,7.62836893 279.685278,8.30948888 279.685278,8.85438485 C279.685278,9.36522481 279.889614,10.0804008 280.43451,10.0804008 C280.877238,10.0804008 281.79675,9.5355048 281.79675,8.65004886 C281.79675,7.83270491 281.388078,7.62836893 280.979406,7.62836893 Z M280.94535,16.7553763 C281.354022,16.2445364 281.79675,15.6996404 282.171366,15.6996404 C282.47787,15.6996404 282.716262,15.8699204 282.716262,16.2104804 C282.716262,16.5850963 282.545982,16.8234883 282.13731,17.3343283 C280.536678,19.2755202 277.471638,22.102168 275.734782,22.102168 C275.019606,22.102168 274.236318,21.48916 274.236318,20.2972001 C274.236318,18.7987362 275.973174,15.4612484 276.245622,14.9504085 C276.654294,14.2692885 276.994854,13.7243925 277.471638,13.7243925 C277.948422,13.7243925 278.323038,13.9968405 278.323038,14.4395685 C278.323038,14.9163525 278.084646,15.1547444 277.88031,15.4612484 C276.892686,17.0618803 275.939118,19.4117442 275.939118,20.0928641 C275.939118,20.3312561 276.109398,20.6377601 276.415902,20.6377601 C277.335414,20.6377601 279.787446,18.3219522 280.94535,16.7553763 Z M293.239565,16.7553763 C293.648237,16.2445364 294.090965,15.6996404 294.465581,15.6996404 C294.772085,15.6996404 295.010477,15.8699204 295.010477,16.2104804 C295.010477,16.5850963 294.840197,16.8234883 294.431525,17.3343283 C292.864949,19.2755202 290.617253,21.82972 288.914453,21.82972 C287.211653,21.82972 286.90515,20.2631441 286.90515,18.7646802 C286.90515,18.0154483 287.109486,16.9937683 287.109486,16.1764244 C287.109486,16.0061444 287.007318,15.8018084 286.802982,15.8018084 C285.849414,15.8018084 282.614094,19.4117442 281.830806,20.4674801 C281.490246,20.9102081 281.183742,22.408672 280.60479,22.408672 C279.991782,22.408672 279.446886,22.17028 279.446886,21.48916 C279.446886,20.6377601 280.77507,17.1299923 281.422134,15.1206884 C281.898918,13.5881685 282.13731,13.0773286 283.022766,13.0773286 C283.261158,13.0773286 283.737942,13.3157206 283.737942,13.7925045 C283.737942,14.2692885 283.601718,14.5757925 283.261158,15.5293604 C283.056822,16.0742564 282.614094,17.5727203 282.545982,17.7770563 C283.635774,16.5510404 286.087806,13.8946725 287.586269,13.8946725 C288.335501,13.8946725 288.914453,14.3714565 288.914453,15.1888004 C288.914453,16.2104804 288.710117,17.1981043 288.710117,18.3900642 C288.710117,19.4458002 288.778229,20.3653121 289.425293,20.3653121 C290.208581,20.3653121 292.081661,18.3219522 293.239565,16.7553763 Z M297.734957,13.9287285 C298.824749,13.9287285 299.573981,14.8482405 299.778317,15.1206884 C300.595661,14.0990085 301.208669,13.5200565 301.413005,13.5200565 C301.855733,13.5200565 302.468741,13.7243925 302.468741,14.2352325 C302.468741,14.4736245 302.332517,14.6439045 302.094125,15.0185204 C301.855733,15.3931364 301.447061,15.9380324 301.242725,16.7553763 C300.697829,18.9349602 300.289157,21.48916 299.778317,23.9071359 C301.208669,23.9071359 302.673077,23.9411919 302.673077,24.8947598 C302.673077,25.7461598 302.094125,26.0186077 301.787621,26.0186077 C301.413005,26.0186077 301.106501,25.7802158 300.902165,25.5758798 C300.697829,25.4055998 300.527549,25.3374878 300.186989,25.3374878 C300.050765,25.3374878 299.744261,25.3715438 299.403701,25.4055998 C297.530621,32.0805754 295.146701,36.2013511 291.604877,36.2013511 C290.344805,36.2013511 289.186901,35.2818391 289.186901,33.5109273 C289.186901,30.1734395 293.273621,25.5758798 298.075517,24.2817519 C298.552301,22.17028 299.029085,19.3095762 299.199365,18.0154483 C297.360341,20.2972001 294.772085,22.272448 293.205509,22.272448 C292.456277,22.272448 291.638933,21.48916 291.638933,20.1950321 C291.638933,17.7430003 294.874253,13.9287285 297.734957,13.9287285 Z M291.672989,34.7709992 C293.648237,34.7709992 296.236493,31.0929514 297.666845,25.9164397 C294.227189,27.2105677 290.821589,30.6161674 290.821589,33.6812072 C290.821589,34.3282712 291.196205,34.7709992 291.672989,34.7709992 Z M298.620413,16.3467044 C298.620413,16.1423684 298.347965,15.4271924 297.564677,15.4271924 C295.555373,15.4271924 293.375789,18.9009042 293.375789,19.9566401 C293.375789,20.2972001 293.614181,20.5696481 293.886629,20.5696481 C294.942365,20.5696481 298.620413,17.0278243 298.620413,16.3467044 Z" id="Coastal-Living" fill="#FFFFFF" fill-rule="nonzero"></path>
            <path d="M9.50399939,7.66400041 L6.84287956,7.66400041 L4.91831968,19.9954396 L2.99375981,7.66400041 L0.190079988,7.66400041 L3.32639979,24.2959993 L6.36767959,24.2959993 L9.50399939,7.66400041 Z M13.7332791,24.2959993 L13.7332791,7.66400041 L10.9771193,7.66400041 L10.9771193,24.2959993 L13.7332791,24.2959993 Z M24.0926384,13.604 L24.0926384,10.8953602 C24.0926384,8.42432036 22.2868786,7.47392042 20.0059187,7.47392042 L19.9583987,7.47392042 C17.6774389,7.47392042 15.871679,8.42432036 15.871679,10.8953602 L15.871679,13.0812801 C15.871679,14.8157599 16.7983189,15.5760799 18.4139988,16.5027198 L20.3385587,17.5956798 C21.1701586,18.0471197 21.4315186,18.4747997 21.4315186,19.3301597 L21.4315186,20.6369596 C21.4315186,21.6586395 20.8375187,22.1100795 20.0059187,22.1100795 C19.1743188,22.1100795 18.5803188,21.6586395 18.5803188,20.6369596 L18.5803188,18.1183997 L15.871679,18.1183997 L15.871679,21.0171195 C15.871679,23.6069594 17.4635989,24.4860793 19.9821587,24.4860793 L20.0296787,24.4860793 C22.5482385,24.4860793 24.1401584,23.5831994 24.1401584,21.0171195 L24.1401584,18.6173597 C24.1401584,16.8353598 23.1897585,16.0987999 21.5978386,15.1959199 L19.6495187,14.10296 C18.8654388,13.65152 18.5803188,13.27136 18.5803188,12.4160001 L18.5803188,11.2755202 C18.5803188,10.2300802 19.1743188,9.84992027 19.9821587,9.84992027 C20.7899987,9.84992027 21.3839986,10.2300802 21.3839986,11.2755202 L21.3839986,13.604 L24.0926384,13.604 Z M28.9871981,24.2959993 L28.9871981,7.66400041 L26.2310383,7.66400041 L26.2310383,24.2959993 L28.9871981,24.2959993 Z M38.8238375,7.66400041 L30.507838,7.66400041 L30.507838,10.0875203 L33.2877579,10.0875203 L33.2877579,24.2959993 L36.0439177,24.2959993 L36.0439177,10.0875203 L38.8238375,10.0875203 L38.8238375,7.66400041 Z M40.2494374,7.66400041 L40.2494374,24.2959993 L43.0055972,24.2959993 L43.0055972,17.0729598 L46.165677,17.0729598 L46.165677,24.2959993 L48.9218368,24.2959993 L48.9218368,7.66400041 L46.165677,7.66400041 L46.165677,14.60192 L43.0055972,14.60192 L43.0055972,7.66400041 L40.2494374,7.66400041 Z M57.1903163,24.2959993 L56.5963164,20.5894396 L53.5550365,20.5894396 L52.9610366,24.2959993 L50.2999168,24.2959993 L53.3887166,7.66400041 L56.8576763,7.66400041 L59.9939961,24.2959993 L57.1903163,24.2959993 Z M53.9114365,18.3084797 L56.2399164,18.3084797 L55.0756765,10.9191202 L53.9114365,18.3084797 Z M68.3812756,21.8249595 L64.1282359,21.8249595 L64.1282359,7.66400041 L61.372076,7.66400041 L61.372076,24.2959993 L68.3812756,24.2959993 L68.3812756,21.8249595 Z M76.863595,21.8249595 L72.6105553,21.8249595 L72.6105553,7.66400041 L69.8543955,7.66400041 L69.8543955,24.2959993 L76.863595,24.2959993 L76.863595,21.8249595 Z M84.2291946,24.2959993 L83.6351946,20.5894396 L80.5939148,20.5894396 L79.9999148,24.2959993 L77.338795,24.2959993 L80.4275948,7.66400041 L83.8965546,7.66400041 L87.0328744,24.2959993 L84.2291946,24.2959993 Z M80.9503148,18.3084797 L83.2787946,18.3084797 L82.1145547,10.9191202 L80.9503148,18.3084797 Z M90.9295141,24.2959993 L90.9295141,13.4852 L94.5647939,24.2959993 L97.1783937,24.2959993 L97.1783937,7.66400041 L94.6598339,7.66400041 L94.6598339,17.9520797 L91.1671141,7.66400041 L88.4109543,7.66400041 L88.4109543,24.2959993 L90.9295141,24.2959993 Z M103.807433,7.66400041 C106.325993,7.66400041 107.989193,8.66192034 107.989193,11.1804802 L107.989193,20.7795196 C107.989193,23.2980794 106.325993,24.2959993 103.807433,24.2959993 L99.5543936,24.2959993 L99.5543936,7.66400041 L103.807433,7.66400041 Z M105.233033,11.6081602 C105.233033,10.4201602 104.615273,10.0875203 103.712393,10.0875203 L102.310553,10.0875203 L102.310553,21.8724795 L103.712393,21.8724795 C104.615273,21.8724795 105.233033,21.5398395 105.233033,20.3518396 L105.233033,11.6081602 Z M112.741193,21.2071995 L110.032553,21.2071995 L110.032553,24.2959993 L112.741193,24.2959993 L112.741193,21.2071995 Z M123.195592,17.5243998 L120.439432,17.5243998 L120.439432,20.5419196 C120.439432,21.7061595 119.869192,22.0625595 118.990072,22.0625595 C118.110952,22.0625595 117.540712,21.7061595 117.540712,20.5419196 L117.540712,11.4180802 C117.540712,10.2538402 118.110952,9.89744026 118.990072,9.89744026 C119.869192,9.89744026 120.439432,10.2538402 120.439432,11.4180802 L120.439432,14.03168 L123.195592,14.03168 L123.195592,10.9904002 C123.195592,8.51936035 121.532392,7.47392042 119.013832,7.47392042 L118.966312,7.47392042 C116.447752,7.47392042 114.784553,8.51936035 114.784553,10.9904002 L114.784553,20.9695996 C114.784553,23.5594394 116.447752,24.4860793 118.966312,24.4860793 L119.013832,24.4860793 C121.532392,24.4860793 123.195592,23.5356794 123.195592,20.9695996 L123.195592,17.5243998 Z M125.286472,10.9904002 C125.286472,8.44808036 126.949672,7.47392042 129.468232,7.47392042 L129.658312,7.47392042 C132.176871,7.47392042 133.840071,8.47184036 133.840071,10.9904002 L133.840071,20.9695996 C133.840071,23.4881594 132.176871,24.4860793 129.658312,24.4860793 L129.468232,24.4860793 C126.949672,24.4860793 125.286472,23.4881594 125.286472,20.9695996 L125.286472,10.9904002 Z M128.042632,20.5419196 C128.042632,21.7299195 128.660392,22.0625595 129.563272,22.0625595 C130.466152,22.0625595 131.083912,21.7299195 131.083912,20.5419196 L131.083912,11.4180802 C131.083912,10.2300802 130.466152,9.89744026 129.563272,9.89744026 C128.660392,9.89744026 128.042632,10.2300802 128.042632,11.4180802 L128.042632,20.5419196 Z M145.221111,14.12672 L145.221111,24.2959993 L147.88223,24.2959993 L147.88223,7.66400041 L145.173591,7.66400041 L141.942231,17.3343198 L138.734631,7.66400041 L136.121031,7.66400041 L136.121031,24.2959993 L138.687111,24.2959993 L138.687111,14.12672 L141.181911,21.8724795 L142.726311,21.8724795 L145.221111,14.12672 Z" id="Visithalland.com" fill="#FFFFFF"></path>
            <path d="M160.77599,1.29599934 L160.77599,29.6309345" id="Divider" stroke="#FFFFFF" stroke-width="0.791999949" stroke-linecap="round"></path>
        </g>
    </g>
</svg>