<?xml version="1.0" encoding="UTF-8"?>
<svg width="106px" height="39px" viewBox="0 0 106 39" version="1.1" xmlns="http://www.w3.org/2000/svg" xmlns:xlink="http://www.w3.org/1999/xlink">
    <!-- Generator: Sketch 48.2 (47327) - http://www.bohemiancoding.com/sketch -->
    <title>logo-vertical</title>
    <desc>Created with Sketch.</desc>
    <defs></defs>
    <g id="Original-Copy" stroke="none" stroke-width="1" fill="none" fill-rule="evenodd" transform="translate(-135.000000, -11.000000)">
        <g id="Group-2" fill="#FFFFFE">
            <g id="logo-vertical" transform="translate(135.000000, 11.000000)">
                <path d="M27.9228741,28.8881273 C27.7589016,28.8881273 27.6771579,28.7637699 27.6771579,28.6399021 C27.6771579,27.6259486 29.4810984,25.6812729 30.3625721,25.6812729 C30.5265446,25.6812729 30.587913,25.8053856 30.587913,25.929743 C30.587913,26.1571603 30.936476,26.0949816 30.936476,26.1985312 C30.936476,26.550306 28.2714371,28.8881273 27.9228741,28.8881273 Z M23.8230755,29.1985312 C23.5564989,29.1985312 23.31054,28.970869 23.31054,28.5985312 C23.31054,27.2536108 24.4792082,25.7637699 25.3604394,25.7637699 C25.4016751,25.7637699 25.4220503,25.7848225 25.4220503,25.8259486 C25.4220503,25.9086903 25.3604394,26.0744186 25.3604394,26.2812729 C25.3604394,26.550306 25.6680092,26.6536108 25.6680092,26.7157895 C25.6680092,27.3363525 24.6225629,29.1985312 23.8230755,29.1985312 Z M36.8198398,24.729743 C36.0562517,24.729743 34.8254874,25.4421053 34.4652815,26.3133415 C34.4116751,26.3777234 34.3566133,26.449694 34.2986407,26.5294982 C33.5401465,27.5226438 32.3101098,28.8467564 31.5719908,28.8467564 C31.387643,28.8467564 31.3056568,28.6190942 31.3056568,28.350306 C31.3056568,28.0399021 31.4286362,27.6259486 31.674595,27.1711138 C32.1051442,26.3434517 32.6380549,25.6401469 32.6380549,25.370869 C32.6380549,25.1226438 32.4330892,24.9365973 32.1051442,24.9365973 C31.7565812,24.9365973 31.6539771,25.370869 31.4900046,25.370869 C31.4080183,25.370869 31.0390801,24.8952264 30.649524,24.8952264 C30.0598535,24.9023256 29.4034783,25.1627907 28.7980412,25.5840881 C28.785913,25.5831089 28.7757254,25.5779682 28.7635973,25.5779682 C28.5586316,25.5779682 27.7591442,26.1571603 26.9184211,26.1571603 C26.5907185,26.1571603 26.5907185,25.6812729 26.5907185,25.5157895 C26.5907185,25.2053856 26.2421556,24.8330477 25.4836613,24.8330477 C24.5485812,24.8330477 23.5467963,25.6166463 22.9602792,26.6935129 C21.6514096,28.3862913 18.5980275,31.6604651 15.5822426,31.6604651 C14.4548101,31.6604651 13.7166911,30.7500612 13.7166911,29.4881273 C13.7166911,25.0399021 19.4569428,19.350306 22.4499268,19.350306 C22.9624622,19.350306 23.1674279,19.6401469 23.1674279,20.0536108 C23.1674279,21.3571603 21.917016,22.950306 20.9739314,23.1571603 C20.4000275,23.3020808 20.3384165,23.5916769 20.3384165,23.8195838 C20.3384165,24.0470012 20.4820137,24.2124847 20.8509519,24.2124847 C21.7324256,24.2124847 24.1924989,21.9157895 24.1924989,20.0124847 C24.1924989,18.9985312 23.3723936,18.5231334 22.4295515,18.5231334 C18.7598169,18.5231334 12.712238,24.6259486 12.712238,29.6949816 C12.712238,31.4741738 13.839913,32.5500612 15.5412494,32.5500612 C18.0401327,32.5500612 20.6549611,30.2396573 22.4654508,28.2849449 C22.4562334,28.3892289 22.4494416,28.4935129 22.4494416,28.5985312 C22.4494416,29.4881273 23.0235881,29.9226438 23.597492,29.9226438 C25.0324943,29.9226438 25.9755789,28.2881273 26.4061281,27.0467564 C26.4626453,27.0467564 26.9300641,27.0467564 27.46346,26.930967 C27.0215103,27.5787026 26.7340732,28.3216646 26.7340732,29.0744186 C26.7340732,29.570869 27.1440046,29.8810282 27.3492128,29.8810282 C27.8205126,29.8810282 28.45627,29.4675643 29.41973,28.6190942 C29.8706545,28.2051408 30.1985995,27.8124847 30.3215789,27.8124847 C30.3625721,27.8124847 30.3625721,27.8744186 30.3625721,27.9982864 C30.3625721,28.1845777 30.3215789,28.4741738 30.3215789,28.7020808 C30.3215789,29.2190942 30.649524,29.6744186 31.2852815,29.6744186 C32.1985309,29.6744186 33.5670709,28.4095471 34.5506636,27.299388 C34.9445858,27.7525092 35.8153867,27.8700122 35.8153867,28.4952264 C35.8153867,28.9089351 35.5281922,29.2607099 35.097643,29.2607099 C34.708087,29.2607099 34.5237391,29.0536108 34.5237391,28.7020808 C34.5237391,28.4952264 34.3391487,28.3914321 34.1545584,28.3914321 C33.9085995,28.3914321 33.7036339,28.6190942 33.7036339,28.9089351 C33.7036339,29.4053856 34.2571625,29.9226438 34.9746636,29.9226438 C36.1637071,29.9226438 36.7582288,29.1777234 36.7582288,28.4952264 C36.7582288,27.1711138 35.2822334,27.2536108 35.2822334,26.6741738 C35.2822334,26.0744186 36.2456934,25.5157895 36.5326453,25.5157895 C36.6966178,25.5157895 36.8402151,25.6607099 36.8402151,25.7848225 C36.8402151,25.8675643 36.5326453,25.929743 36.5326453,26.2812729 C36.5326453,26.5086903 36.737611,26.6330477 36.9631945,26.6330477 C37.3733684,26.6330477 37.6397025,25.9086903 37.6397025,25.4744186 C37.6397025,25.0399021 37.1684027,24.729743 36.8198398,24.729743 Z" id="Fill-1"></path>
                <path d="M40.4073455,24.0259486 C40.9812494,23.8195838 41.534778,23.6536108 41.9857025,23.6536108 C42.1292998,23.6536108 42.3061281,23.6489596 42.4390526,23.7130967 C42.7121785,23.8452876 42.8484989,24.1512852 43.1948787,23.9028152 C43.4112449,23.7476132 43.427254,23.4523868 43.2943295,23.244798 C43.0917895,22.9290086 42.6277666,22.8881273 42.2932723,22.8881273 C41.8423478,22.8881273 41.4117986,22.9919217 40.9812494,23.1157895 C41.6781327,21.9363525 41.7807368,21.6467564 42.1292998,21.3571603 C42.5188558,21.0470012 42.559849,20.8812729 42.559849,20.6332925 C42.559849,20.3848225 42.3956339,20.2604651 42.1292998,20.2604651 C41.8629657,20.2604651 41.6371396,20.4675643 41.2888192,20.9645043 C40.7969016,21.6467564 40.4073455,22.3916769 39.8125812,23.4675643 C39.5872403,23.5089351 39.3822746,23.550306 39.1773089,23.550306 C38.9313501,23.550306 38.8697391,23.4056304 38.5621693,23.4056304 C38.2344668,23.4056304 38.0292586,23.6536108 38.0292586,23.9226438 C38.0292586,24.2124847 38.27546,24.3571603 38.890357,24.3571603 C39.0337117,24.3571603 39.1773089,24.3571603 39.3209062,24.3365973 C38.3368284,26.301836 37.3527506,28.5569155 37.3527506,29.7571603 C37.3527506,30.2741738 37.5577162,30.5848225 37.865286,30.5848225 C38.152238,30.5848225 38.2958352,30.3363525 38.2958352,30.170869 C38.2958352,29.9845777 38.1728558,29.8810282 38.1728558,29.6124847 C38.1728558,28.5363525 39.3002883,26.0330477 40.4073455,24.0259486" id="Fill-2"></path>
                <path d="M50.2262929,21.6883721 C51.2717391,19.7640147 52.1122197,19.1848225 52.3787963,19.1848225 C52.583762,19.1848225 52.6863661,19.2675643 52.6863661,19.4744186 C52.6863661,19.970869 52.4404073,20.5916769 51.2309886,22.2675643 C50.1239314,23.7779682 49.0988604,24.6881273 48.8322838,24.8124847 C48.8936522,24.4812729 49.1398535,23.6124847 50.2262929,21.6883721 Z M40.9810069,28.8881273 C40.8170343,28.8881273 40.7350481,28.7637699 40.7350481,28.6399021 C40.7350481,27.6259486 42.5389886,25.6812729 43.4207048,25.6812729 C43.5846773,25.6812729 43.6460458,25.8053856 43.6460458,25.929743 C43.6460458,26.1571603 43.9946087,26.0949816 43.9946087,26.1985312 C43.9946087,26.550306 41.3295698,28.8881273 40.9810069,28.8881273 Z M51.7842746,22.8470012 C53.26027,20.9434517 53.5882151,19.6815177 53.5882151,19.0817625 C53.5882151,18.6678091 53.1782838,18.2330477 52.7889703,18.2330477 C51.6409199,18.2330477 50.7182105,19.2881273 49.4881739,21.419339 C48.6452677,22.8820073 47.719405,24.9461444 47.2677529,26.6438188 C46.5048924,27.6215422 45.3403478,28.8467564 44.6301236,28.8467564 C44.4457757,28.8467564 44.3635469,28.6190942 44.3635469,28.350306 C44.3635469,28.0399021 44.4865263,27.6259486 44.7327277,27.1711138 C45.1630343,26.3434517 45.6961876,25.6401469 45.6961876,25.370869 C45.6961876,25.1226438 45.491222,24.9365973 45.1630343,24.9365973 C44.814714,24.9365973 44.7121098,25.370869 44.5481373,25.370869 C44.466151,25.370869 44.0969703,24.8952264 43.7076568,24.8952264 C42.0264531,24.9157895 39.7922059,26.9642595 39.7922059,29.0744186 C39.7922059,29.570869 40.2021373,29.8810282 40.407103,29.8810282 C40.8786453,29.8810282 41.5141602,29.4675643 42.4776201,28.6190942 C42.9287872,28.2051408 43.2567323,27.8124847 43.3797117,27.8124847 C43.4207048,27.8124847 43.4207048,27.8744186 43.4207048,27.9982864 C43.4207048,28.1845777 43.3797117,28.4741738 43.3797117,28.7020808 C43.3797117,29.2190942 43.7076568,29.6744186 44.3431716,29.6744186 C45.0839588,29.6744186 46.1238261,28.8418605 47.01573,27.9351285 C46.9989931,28.094492 46.9873501,28.2492044 46.9873501,28.3914321 C46.9873501,29.3432069 47.7868375,29.901836 48.4633455,29.901836 C49.3448192,29.901836 49.9390984,29.3845777 50.328897,28.9916769 C50.5954737,28.7020808 50.6568421,28.5569155 50.6568421,28.3914321 C50.6568421,28.2261934 50.554238,28.101836 50.3698902,28.101836 C50.1443066,28.101836 49.9390984,28.370869 49.6727643,28.6399021 C49.4268055,28.8675643 49.0168741,29.1363525 48.6476934,29.1363525 C48.1967689,29.1363525 47.9301922,28.7637699 47.9301922,28.1640147 C47.9301922,27.7086903 48.3403661,26.3434517 48.852659,25.8259486 C49.7137574,24.9574051 50.4518764,24.5434517 51.7842746,22.8470012 Z" id="Fill-3"></path>
                <path d="M56.1094142,31.9197062 C54.3464668,31.9197062 53.424,31.0717258 53.424,29.6235006 C53.424,28.1958384 54.8999954,26.4164015 57.9543478,26.4164015 C59.737913,26.4164015 61.2345263,26.7270502 62.3823341,27.2029376 C60.6809977,29.8511628 58.5078764,31.9197062 56.1094142,31.9197062 Z M69.9059085,18.4719706 C70.3367002,18.4719706 70.582659,18.8029376 70.582659,19.3410037 C70.582659,20.8100367 68.6351213,22.6927785 65.6215195,23.2511628 C67.200119,20.4582619 68.5121419,18.4719706 69.9059085,18.4719706 Z M63.5919954,26.9544676 C63.5919954,26.9544676 64.3917254,25.6305998 65.108984,24.1821297 C68.9424485,23.747858 71.5051259,21.3064871 71.5051259,19.1752754 C71.5051259,18.1823745 70.7876247,17.6237454 69.9265263,17.6237454 C67.8353913,17.6237454 66.3390206,19.9823745 64.4734691,23.3960832 C61.1319222,23.3960832 58.8770572,21.8856793 58.8770572,20.1064871 C58.8770572,19.547858 58.7948284,19.2374541 58.446508,19.2374541 C58.0979451,19.2374541 57.9543478,19.4651163 57.9543478,20.1064871 C57.9543478,22.299388 60.5170252,24.2443084 64.0429199,24.2443084 C63.5100092,25.3407589 62.9770984,26.2511628 62.792508,26.5407589 C61.5214783,25.9615667 59.9021281,25.6305998 58.0365767,25.6305998 C54.5720503,25.6305998 52.5629016,27.5958384 52.5629016,29.6235006 C52.5629016,31.5681763 53.9979039,32.7473684 56.1094142,32.7473684 C59.0410297,32.7473684 61.2345263,30.7405141 63.1820641,27.6166463 C64.3301144,28.2785802 64.9656293,29.1268054 64.9656293,29.9544676 C64.9656293,30.1818849 64.883643,30.4717258 64.883643,30.7405141 C64.883643,31.0095471 65.0476156,31.2580171 65.4165538,31.2580171 C65.7037483,31.2580171 65.9494645,30.9684211 65.9494645,30.6372093 C65.9494645,29.1684211 65.0886087,27.8854345 63.5919954,26.9544676 Z" id="Fill-4"></path>
                <path d="M70.7653089,22.4974296 C70.7653089,22.7870257 70.8676705,23.2212974 71.1136293,23.2212974 C71.3598307,23.2212974 71.9131167,22.9319461 71.9131167,22.4352509 C71.9131167,22.0215422 71.6671579,21.8560588 71.4621922,21.8560588 C71.0522609,21.8560588 70.7653089,22.2078335 70.7653089,22.4974296" id="Fill-5"></path>
                <path d="M75.3788558,22.8470012 C75.1535149,22.8470012 74.9686819,23.0952264 74.9686819,23.3226438 C74.9686819,23.570869 75.2558764,23.8195838 75.2558764,24.2744186 C75.2558764,26.2812729 73.2467277,28.8467564 72.7344348,28.8467564 C72.6318307,28.8467564 72.6112128,28.7637699 72.6112128,28.7020808 C72.6112128,28.4536108 73.1443661,26.7363525 73.1443661,25.970869 C73.1443661,25.4536108 72.7958032,25.1432069 72.6112128,25.1432069 C72.3654966,25.1432069 72.2012815,25.3294982 72.2012815,25.6607099 C72.2012815,25.970869 72.2218993,25.9916769 72.2218993,26.219339 C72.2218993,26.2330477 72.2204439,26.2482252 72.2202014,26.2624235 C72.1508284,26.3392901 72.0790297,26.4257038 71.9965584,26.5294982 C71.2586819,27.5226438 69.7826865,29.0328029 69.1881648,29.0328029 C68.9215881,29.0328029 68.818984,28.8053856 68.818984,28.6190942 C68.818984,28.1640147 69.4341236,26.7157895 69.8850481,25.929743 C70.0696384,25.6190942 70.2746041,25.4122399 70.2746041,25.1848225 C70.2746041,24.9574051 69.9876522,24.8124847 69.8033043,24.8124847 C69.5364851,24.8124847 69.3521373,25.1432069 69.1265538,25.5363525 C68.9625812,25.8470012 67.917135,27.8744186 67.917135,28.7848225 C67.917135,29.4675643 68.4090526,29.8399021 68.7576156,29.8399021 C69.5888787,29.8399021 70.9596018,28.6829865 71.9727872,27.6166463 C71.8257941,28.172093 71.6683707,28.6864137 71.6683707,28.9294982 C71.6683707,29.4053856 72.0576842,29.7777234 72.4472403,29.7777234 C73.8616247,29.7777234 76.0757391,25.9916769 76.0757391,24.129743 C76.0757391,22.8881273 75.6250572,22.8470012 75.3788558,22.8470012" id="Fill-6"></path>
                <path d="M78.8213089,23.2212974 C79.0675103,23.2212974 79.6210389,22.9319461 79.6210389,22.4352509 C79.6210389,22.0215422 79.3748375,21.8560588 79.1698719,21.8560588 C78.7601831,21.8560588 78.4729886,22.2078335 78.4729886,22.4974296 C78.4729886,22.7870257 78.5755927,23.2212974 78.8213089,23.2212974" id="Fill-7"></path>
                <path d="M86.0591442,37.6190942 C85.7515744,37.6190942 85.4849977,37.3500612 85.4849977,36.8947368 C85.4849977,34.8878825 87.5147643,32.8602203 89.749254,32.0947368 C88.8471625,35.4673195 87.2685629,37.6190942 86.0591442,37.6190942 Z M87.3915423,29.0328029 C87.1662014,29.0328029 86.981611,28.8467564 86.981611,28.5779682 C86.981611,27.8949816 88.3140092,25.7226438 89.5852815,25.7226438 C90.1388101,25.7226438 90.364151,26.219339 90.364151,26.3640147 C90.364151,26.7985312 88.0476751,29.0328029 87.3915423,29.0328029 Z M90.9176796,30.9985312 C91.3479863,29.0536108 91.5325767,27.3569155 91.7991533,26.570869 C92.127341,25.6607099 92.5578902,25.2467564 92.5578902,25.019339 C92.5578902,24.7914321 92.0448696,24.7086903 91.8811396,24.7086903 C91.7377849,24.7086903 91.1842563,25.4952264 90.9176796,25.7226438 C90.8973043,25.7432069 90.487373,24.9574051 89.687643,24.9574051 C88.5019954,24.9574051 87.2583753,26.0555692 86.5986041,27.2259486 C85.9182151,28.0479804 85.1250343,28.8467564 84.726746,28.8467564 C84.2348284,28.8467564 84.2348284,28.350306 84.2348284,27.6465116 C84.2348284,27.1089351 84.3578078,26.0744186 84.3578078,25.6607099 C84.3578078,25.2261934 84.0298627,24.8952264 83.6196888,24.8952264 C82.5332494,24.8952264 80.6269474,27.2949816 80.5653364,27.2949816 C80.5241007,27.2949816 80.4833501,27.2744186 80.4833501,27.2122399 C80.4833501,26.9642595 81.2008513,25.3089351 81.2008513,24.750306 C81.2008513,24.5228886 80.9752677,24.419339 80.8726636,24.419339 C80.319135,24.419339 80.2167735,24.750306 79.9504394,25.6401469 C79.8667551,25.9118727 79.7585721,26.249694 79.6418993,26.6115055 C78.8860732,27.603672 77.4745995,29.0328029 76.8958444,29.0328029 C76.6297529,29.0328029 76.5269062,28.8053856 76.5269062,28.6190942 C76.5269062,28.1640147 77.1420458,26.7157895 77.5932128,25.929743 C77.7775606,25.6190942 77.9825263,25.4122399 77.9825263,25.1848225 C77.9825263,24.9574051 77.6955744,24.8124847 77.5107414,24.8124847 C77.2444073,24.8124847 77.0600595,25.1432069 76.8347185,25.5363525 C76.6705034,25.8470012 75.6250572,27.8744186 75.6250572,28.7848225 C75.6250572,29.4675643 76.1169748,29.8399021 76.4652952,29.8399021 C77.1575698,29.8399021 78.2233913,29.0372093 79.1461007,28.1532436 C78.9185767,28.8724602 78.7410206,29.4697674 78.7410206,29.6124847 C78.7410206,29.9432069 79.0483478,30.0261934 79.3556751,30.0261934 C79.6428696,30.0261934 79.7452311,29.301836 80.155405,28.7226438 C80.6473227,28.0604651 82.5332494,25.929743 83.1690069,25.929743 C83.3739725,25.929743 83.4147231,26.0744186 83.4147231,26.2607099 C83.4147231,26.7574051 83.2711259,27.2536108 83.2711259,27.6675643 C83.2711259,28.5569155 83.3943478,29.6744186 84.4601693,29.6744186 C84.9406865,29.6744186 85.5327826,29.2602203 86.1256064,28.6986536 C86.1248787,28.7201958 86.1207551,28.7427173 86.1207551,28.7637699 C86.1207551,29.5086903 86.6330481,29.9432069 86.9612357,29.9432069 C87.8220915,29.9432069 89.7082609,28.4330477 90.6717208,27.1711138 C90.6717208,27.6675643 90.30254,29.6536108 89.9539771,31.2259486 C87.0019863,31.9914321 84.6037666,34.7640147 84.6037666,36.8119951 C84.6037666,37.8465116 85.3006499,38.4051408 86.018151,38.4051408 C88.1296613,38.4051408 89.5852815,35.8812729 90.7124714,31.7640147 C90.9176796,31.7432069 91.10227,31.7226438 91.2456247,31.7226438 C91.7174096,31.7226438 91.778778,32.1569155 92.1680915,32.1569155 C92.3323066,32.1569155 92.680627,32.0328029 92.680627,31.5982864 C92.680627,30.9569155 91.5529519,30.9363525 90.9176796,30.9985312 Z" id="Fill-9"></path>
                <polyline id="Fill-11" points="4.16262243 12.3204406 2.37372082 12.3204406 0 0.168421053 1.65136842 0.168421053 3.30273684 9.69889841 4.97108467 0.168421053 6.53634325 0.168421053 4.16262243 12.3204406"></polyline>
                <polygon id="Fill-12" points="7.81004119 12.3204406 9.42720824 12.3204406 9.42720824 0.168421053 7.81004119 0.168421053"></polygon>
                <path d="M15.3445309,4.45654835 L15.3445309,2.80734394 C15.3445309,1.83500612 14.8800229,1.45312118 14.0543387,1.45312118 C13.2286545,1.45312118 12.764389,1.83500612 12.764389,2.80734394 L12.764389,3.64063647 C12.764389,4.36964504 13.022476,4.63011016 13.7103844,5.02962056 L15.2758856,5.89718482 C16.3079908,6.4878825 16.9614554,7.07784578 16.9614554,8.24088127 L16.9614554,9.924847 C16.9614554,11.7473684 15.9121281,12.4594859 14.0890252,12.4594859 L14.0543387,12.4594859 C12.2309931,12.4594859 11.1819085,11.7649939 11.1819085,9.924847 L11.1819085,7.85899633 L12.764389,7.85899633 L12.764389,9.64724602 C12.764389,10.6017136 13.2286545,11.0357405 14.0715606,11.0357405 C14.9144668,11.0357405 15.3789748,10.6017136 15.3789748,9.64724602 L15.3789748,8.69228886 C15.3789748,7.9630355 15.1208879,7.65067319 14.4155149,7.25165239 L12.8674783,6.38335373 C11.7664851,5.74100367 11.1819085,5.22031824 11.1819085,4.05703794 L11.1819085,2.52949816 C11.1819085,0.776009792 12.3859908,0.0298653611 14.0373593,0.0298653611 L14.0715606,0.0298653611 C15.7229291,0.0298653611 16.9270114,0.776009792 16.9270114,2.52949816 L16.9270114,4.45654835 L15.3445309,4.45654835" id="Fill-13"></path>
                <polygon id="Fill-14" points="18.6824394 12.3204406 20.2993638 12.3204406 20.2993638 0.168421053 18.6824394 0.168421053"></polygon>
                <polyline id="Fill-15" points="27.3693455 1.60954712 25.2706911 1.60954712 25.2706911 12.3204406 23.6537666 12.3204406 23.6537666 1.60954712 21.5551121 1.60954712 21.5551121 0.168421053 27.3693455 0.168421053 27.3693455 1.60954712"></polyline>
                <polyline id="Fill-16" points="30.1738581 0.168421053 30.1738581 5.41126071 33.012087 5.41126071 33.012087 0.168421053 34.6290114 0.168421053 34.6290114 12.3204406 33.012087 12.3204406 33.012087 6.86976744 30.1738581 6.86976744 30.1738581 12.3204406 28.5571762 12.3204406 28.5571762 0.168421053 30.1738581 0.168421053"></polyline>
                <path d="M40.2375515,8.08445532 L39.2054462,2.21689106 L38.1563616,8.08445532 L40.2375515,8.08445532 Z M40.4956384,9.45605875 L37.9154966,9.45605875 L37.3995652,12.3204406 L35.8343066,12.3204406 L38.2250069,0.168421053 L40.2203295,0.168421053 L42.6459588,12.3204406 L40.9943478,12.3204406 L40.4956384,9.45605875 Z" id="Fill-17"></path>
                <polyline id="Fill-18" points="48.7187643 12.3204406 43.8507689 12.3204406 43.8507689 0.168421053 45.4674508 0.168421053 45.4674508 10.8450428 48.7187643 10.8450428 48.7187643 12.3204406"></polyline>
                <polyline id="Fill-19" points="54.8085492 12.3204406 49.9405538 12.3204406 49.9405538 0.168421053 51.5574783 0.168421053 51.5574783 10.8450428 54.8085492 10.8450428 54.8085492 12.3204406"></polyline>
                <path d="M59.7114737,8.08445532 L58.6793684,2.21689106 L57.6300412,8.08445532 L59.7114737,8.08445532 Z M59.9693181,9.45605875 L57.3891762,9.45605875 L56.8732449,12.3204406 L55.3079863,12.3204406 L57.6989291,0.168421053 L59.6942517,0.168421053 L62.1196384,12.3204406 L60.46827,12.3204406 L59.9693181,9.45605875 Z" id="Fill-20"></path>
                <polyline id="Fill-21" points="63.3246911 12.3204406 63.3246911 0.168421053 64.9416156 0.168421053 67.9690435 8.53610771 67.9690435 0.168421053 69.4654142 0.168421053 69.4654142 12.3204406 67.9173776 12.3204406 64.8210618 3.675153 64.8210618 12.3204406 63.3246911 12.3204406"></polyline>
                <path d="M74.3001785,1.60954712 L73.0097437,1.60954712 L73.0097437,10.8795594 L74.3001785,10.8795594 C75.1942654,10.8795594 75.6759954,10.5150551 75.6759954,9.43867809 L75.6759954,3.0501836 C75.6759954,1.97405141 75.1942654,1.60954712 74.3001785,1.60954712 Z M77.2929199,2.7378213 L77.2929199,9.75128519 C77.2929199,11.5390453 76.1919268,12.3204406 74.3685812,12.3204406 L71.3928192,12.3204406 L71.3928192,0.168421053 L74.3685812,0.168421053 C76.1919268,0.168421053 77.2929199,0.949816401 77.2929199,2.7378213 Z" id="Fill-22"></path>
                <polygon id="Fill-23" points="78.9280366 12.3204406 80.544476 12.3204406 80.544476 10.4110159 78.9280366 10.4110159"></polygon>
                <path d="M88.0619863,9.89008568 C88.0619863,11.7128519 86.9612357,12.4594859 85.1378902,12.4594859 L85.1034462,12.4594859 C83.2801007,12.4594859 82.1793501,11.7302326 82.1793501,9.89008568 L82.1793501,2.59877601 C82.1793501,0.845777234 83.2801007,0.0298653611 85.1034462,0.0298653611 L85.1378902,0.0298653611 C86.9612357,0.0298653611 88.0619863,0.845777234 88.0619863,2.59877601 L88.0619863,4.76915545 L86.4450618,4.76915545 L86.4450618,2.91138311 C86.4450618,1.85238678 85.9980183,1.47050184 85.1204256,1.47050184 C84.2433181,1.47050184 83.7962746,1.85238678 83.7962746,2.91138311 L83.7962746,9.57747858 C83.7962746,10.6364749 84.2433181,11.0183599 85.1204256,11.0183599 C85.9980183,11.0183599 86.4450618,10.6364749 86.4450618,9.57747858 L86.4450618,7.4252142 L88.0619863,7.4252142 L88.0619863,9.89008568" id="Fill-24"></path>
                <path d="M92.7759542,11.0183599 C93.6705263,11.0183599 94.1522563,10.6538556 94.1522563,9.57747858 L94.1522563,2.91138311 C94.1522563,1.83500612 93.6705263,1.47050184 92.7759542,1.47050184 C91.8816247,1.47050184 91.3998947,1.83500612 91.3998947,2.91138311 L91.3998947,9.57747858 C91.3998947,10.6538556 91.8816247,11.0183599 92.7759542,11.0183599 Z M92.7073089,0.0298653611 L92.8448421,0.0298653611 C94.6679451,0.0298653611 95.7689382,0.810771114 95.7689382,2.59877601 L95.7689382,9.89008568 C95.7689382,11.6780906 94.6679451,12.4594859 92.8448421,12.4594859 L92.7073089,12.4594859 C90.8839634,12.4594859 89.7829703,11.6780906 89.7829703,9.89008568 L89.7829703,2.59877601 C89.7829703,0.793635251 90.8839634,0.0298653611 92.7073089,0.0298653611 Z" id="Fill-25"></path>
                <polyline id="Fill-26" points="102.203162 10.4457772 101.291611 10.4457772 99.1415332 4.05703794 99.1415332 12.3204406 97.6276979 12.3204406 97.6276979 0.168421053 99.1759771 0.168421053 101.738654 7.72019584 104.336261 0.168421053 105.935963 0.168421053 105.935963 12.3204406 104.370705 12.3204406 104.370705 4.05703794 102.203162 10.4457772"></polyline>
            </g>
        </g>
    </g>
</svg>