<svg xmlns="http://www.w3.org/2000/svg" width="15" height="15" viewBox="0 0 15 15">
  <path fill="#FFF" d="M10.5763642,14.8894756 L10.5763642,5.33689132 C10.5763642,4.7865139 11.0225349,4.34035249 11.572903,4.34035249 C12.1232805,4.34035249 12.5694419,4.7865139 12.5694419,5.33689132 L12.5694419,14.9864583 L16.6391585,10.9167416 C17.0283306,10.5275695 17.6593014,10.5275695 18.0484734,10.9167416 C18.4376455,11.3059136 18.4376455,11.9368938 18.0484734,12.3260565 L12.3260565,18.0484734 C11.9368844,18.4376455 11.3059136,18.4376455 10.9167416,18.0484734 L4.88903125,12.0207631 C4.49985918,11.631591 4.49985918,11.0006203 4.88903125,10.6114482 C5.27820331,10.2222761 5.90917408,10.2222761 6.29834615,10.6114482 L10.5763642,14.8894756 Z" transform="translate(-4 -4)"/>
</svg>
