<svg xmlns="http://www.w3.org/2000/svg" width="17" height="17" viewBox="0 0 17 17">
  <g fill="#FFF">
    <path d="M2.83333333,17 L14.1666667,17 C15.7314735,17 17,15.7314735 17,14.1666667 L17,4.25 C17,2.68519321 15.7314735,1.41666667 14.1666667,1.41666667 L13.4583333,1.41666667 L13.4583333,0.708333333 C13.4583333,0.317131636 13.1412017,0 12.75,0 C12.3587983,0 12.0416667,0.317131636 12.0416667,0.708333333 L12.0416667,1.41666667 L9.20833333,1.41666667 L9.20833333,0.708333333 C9.20833333,0.317131636 8.8912017,0 8.5,0 C8.1087983,0 7.79166667,0.317131636 7.79166667,0.708333333 L7.79166667,1.41666667 L4.95833333,1.41666667 L4.95833333,0.708333333 C4.95833333,0.317131636 4.6412017,0 4.25,0 C3.8587983,0 3.54166667,0.317131636 3.54166667,0.708333333 L3.54166667,1.41666667 L2.83333333,1.41666667 C1.26852654,1.41666667 0,2.68519321 0,4.25 L0,14.1666667 C0,15.7314735 1.26852654,17 2.83333333,17 Z M14.1666667,15.5833333 L2.83333333,15.5833333 C2.05092994,15.5833333 1.41666667,14.9490701 1.41666667,14.1666667 L1.41666667,7.08333333 L15.5833333,7.08333333 L15.5833333,14.1666667 C15.5833333,14.9490701 14.9490701,15.5833333 14.1666667,15.5833333 Z M2.83333333,2.83333333 L3.54166667,2.83333333 L3.54166667,3.54166667 C3.54166667,3.93286836 3.8587983,4.25 4.25,4.25 C4.6412017,4.25 4.95833333,3.93286836 4.95833333,3.54166667 L4.95833333,2.83333333 L7.79166667,2.83333333 L7.79166667,3.54166667 C7.79166667,3.93286836 8.1087983,4.25 8.5,4.25 C8.8912017,4.25 9.20833333,3.93286836 9.20833333,3.54166667 L9.20833333,2.83333333 L12.0416667,2.83333333 L12.0416667,3.54166667 C12.0416667,3.93286836 12.3587983,4.25 12.75,4.25 C13.1412017,4.25 13.4583333,3.93286836 13.4583333,3.54166667 L13.4583333,2.83333333 L14.1666667,2.83333333 C14.9490701,2.83333333 15.5833333,3.4675966 15.5833333,4.25 L15.5833333,5.66666667 L1.41666667,5.66666667 L1.41666667,4.25 C1.41666667,3.4675966 2.05092994,2.83333333 2.83333333,2.83333333 Z"/>
    <path d="M10.125625,9.41729167 L7.79166667,11.7477083 L6.874375,10.8339583 C6.59333647,10.5932831 6.17440413,10.6094646 5.91276772,10.8711011 C5.65113131,11.1327375 5.63494977,11.5516698 5.875625,11.8327083 L7.29229167,13.249375 C7.5685682,13.5240125 8.01476514,13.5240125 8.29104167,13.249375 L11.124375,10.4160417 C11.3650502,10.1350031 11.3488687,9.7160708 11.0872323,9.45443439 C10.8255959,9.19279798 10.4066635,9.17661644 10.125625,9.41729167 Z"/>
  </g>
</svg>
