<svg xmlns="http://www.w3.org/2000/svg" width="15" height="15" viewBox="0 0 15 15">
  <path fill="#FFF" d="M13.2743206,11.5000805 L18.2823967,16.5081334 C18.7725737,16.998308 18.7725737,17.7926665 18.2823958,18.2823401 C18.0443507,18.5203832 17.725211,18.65 17.3951731,18.65 C17.0653136,18.65 16.7461892,18.5203358 16.5082009,18.2823494 L11.4998887,13.2742821 L6.49180927,18.2823384 C6.25376453,18.5203829 5.934624,18.65 5.60458485,18.65 C5.27472471,18.65 4.95559961,18.5203353 4.71783884,18.2825746 C4.22742629,17.7926665 4.22742629,16.998308 4.71760333,16.5081334 L9.72567937,11.5000805 L4.71783884,6.49204143 C4.22742629,6.00213332 4.22742629,5.20777491 4.71736796,4.71783582 C5.20727655,4.22742733 6.00163297,4.22742733 6.49180843,4.71760032 L11.4998887,9.7256575 L16.5079553,4.71783582 C16.9978639,4.22742733 17.7922212,4.22742733 18.2823966,4.71760023 C18.7725737,5.20777491 18.7725737,6.00213332 18.2824068,6.49179587 L13.2743206,11.5000805 Z" transform="translate(-4 -4)"/>
</svg>
