<svg xmlns="http://www.w3.org/2000/svg" width="15" height="15" viewBox="0 0 15 15">
  <path fill="#FFF" d="M14.727153,13.7452083 C14.998542,14.0165972 14.998542,14.4560417 14.727153,14.7271528 C14.591597,14.8627083 14.413819,14.9307639 14.236042,14.9307639 C14.058542,14.9307639 13.880764,14.8627083 13.745208,14.7271528 L7.465208,8.4474306 L1.185486,14.7271528 C1.049931,14.8627083 0.872153,14.9307639 0.694375,14.9307639 C0.516875,14.9307639 0.339097,14.8627083 0.203542,14.7271528 C-0.067847,14.4560417 -0.067847,14.0165972 0.203542,13.7452083 L6.483264,7.4654861 L0.203542,1.1854861 C-0.067847,0.914375 -0.067847,0.4749306 0.203542,0.2035417 C0.474653,-0.0678472 0.914097,-0.0678472 1.185486,0.2035417 L7.465208,6.4832639 L13.745208,0.2035417 C14.016319,-0.0678472 14.455764,-0.0678472 14.727153,0.2035417 C14.998542,0.4749306 14.998542,0.914375 14.727153,1.1854861 L8.447431,7.4654861 L14.727153,13.7452083 Z"/>
</svg>
