<svg xmlns="http://www.w3.org/2000/svg" width="15" height="15" viewBox="0 0 15 15">
  <g fill="#FFF" fill-rule="evenodd">
    <path d="M7.49764881,0.00473214286 C5.46139881,0.00473214286 5.20607143,0.0133630952 4.40636905,0.0498511905 C3.60833333,0.08625 3.06330357,0.213005952 2.58639881,0.398363095 C2.0933631,0.589940476 1.6752381,0.846309524 1.25839286,1.263125 C0.841577381,1.67997024 0.585208333,2.09809524 0.393630952,2.59113095 C0.20827381,3.06803571 0.0815178571,3.61306548 0.0451190476,4.41110119 C0.00863095238,5.21080357 0,5.46613095 0,7.50238095 C0,9.53860119 0.00863095238,9.79392857 0.0451190476,10.593631 C0.0815178571,11.3916667 0.20827381,11.9366964 0.393630952,12.4136012 C0.585208333,12.9066369 0.841577381,13.3247619 1.25839286,13.7416071 C1.6752381,14.1584226 2.0933631,14.4147917 2.58639881,14.6063988 C3.06330357,14.7917262 3.60833333,14.9184821 4.40636905,14.954881 C5.20607143,14.991369 5.46139881,15 7.49764881,15 C9.53386905,15 9.78919643,14.991369 10.5888988,14.954881 C11.3869345,14.9184821 11.9319643,14.7917262 12.408869,14.6063988 C12.9019048,14.4147917 13.3200298,14.1584226 13.736875,13.7416071 C14.1536905,13.3247619 14.4100595,12.9066369 14.6016667,12.4136012 C14.786994,11.9366964 14.91375,11.3916667 14.9501488,10.593631 C14.9866369,9.79392857 14.9952679,9.53860119 14.9952679,7.50238095 C14.9952679,5.46613095 14.9866369,5.21080357 14.9501488,4.41110119 C14.91375,3.61306548 14.786994,3.06803571 14.6016667,2.59113095 C14.4100595,2.09809524 14.1536905,1.67997024 13.736875,1.263125 C13.3200298,0.846309524 12.9019048,0.589940476 12.408869,0.398363095 C11.9319643,0.213005952 11.3869345,0.08625 10.5888988,0.0498511905 C9.78919643,0.0133630952 9.53386905,0.00473214286 7.49764881,0.00473214286 Z M7.49764881,1.35565476 C9.49958333,1.35565476 9.73672619,1.36330357 10.5273214,1.399375 C11.2583333,1.43270833 11.6553274,1.55485119 11.9195238,1.65752976 C12.269494,1.79354167 12.519256,1.9560119 12.7816071,2.21839286 C13.0439881,2.48074405 13.2064583,2.73050595 13.3424702,3.08047619 C13.4451488,3.34467262 13.5672917,3.74166667 13.600625,4.47267857 C13.6366964,5.26327381 13.6443452,5.50041667 13.6443452,7.50238095 C13.6443452,9.50431548 13.6366964,9.74145833 13.600625,10.5320536 C13.5672917,11.2630655 13.4451488,11.6600595 13.3424702,11.924256 C13.2064583,12.2742262 13.0439881,12.5239881 12.7816071,12.7863393 C12.519256,13.0487202 12.269494,13.2111905 11.9195238,13.3472024 C11.6553274,13.449881 11.2583333,13.5720238 10.5273214,13.6053571 C9.73684524,13.6414286 9.49973214,13.6490774 7.49764881,13.6490774 C5.49553571,13.6490774 5.25845238,13.6414286 4.46794643,13.6053571 C3.73693452,13.5720238 3.33994048,13.449881 3.07574405,13.3472024 C2.72577381,13.2111905 2.4760119,13.0487202 2.21366071,12.7863393 C1.95130952,12.5239881 1.78880952,12.2742262 1.65279762,11.924256 C1.55011905,11.6600595 1.42797619,11.2630655 1.39464286,10.5320536 C1.35857143,9.74145833 1.35092262,9.50431548 1.35092262,7.50238095 C1.35092262,5.50041667 1.35857143,5.26327381 1.39464286,4.47267857 C1.42797619,3.74166667 1.55011905,3.34467262 1.65279762,3.08047619 C1.78880952,2.73050595 1.95127976,2.48074405 2.21366071,2.21839286 C2.4760119,1.9560119 2.72577381,1.79354167 3.07574405,1.65752976 C3.33994048,1.55485119 3.73693452,1.43270833 4.46794643,1.399375 C5.25854167,1.36330357 5.49568452,1.35565476 7.49764881,1.35565476 Z"/>
    <path d="M7.49764881 10.0015774C6.11735119 10.0015774 4.99842262 8.88264881 4.99842262 7.50238095 4.99842262 6.12208333 6.11735119 5.00315476 7.49764881 5.00315476 8.87791667 5.00315476 9.99684524 6.12208333 9.99684524 7.50238095 9.99684524 8.88264881 8.87791667 10.0015774 7.49764881 10.0015774zM7.49764881 3.65223214C5.37125 3.65223214 3.6475 5.37598214 3.6475 7.50238095 3.6475 9.62875 5.37125 11.3525 7.49764881 11.3525 9.62401786 11.3525 11.3477679 9.62875 11.3477679 7.50238095 11.3477679 5.37598214 9.62401786 3.65223214 7.49764881 3.65223214zM12.3996131 3.50011905C12.3996131 3.99702381 11.9967857 4.39982143 11.499881 4.39982143 11.003006 4.39982143 10.6001786 3.99702381 10.6001786 3.50011905 10.6001786 3.00321429 11.003006 2.6003869 11.499881 2.6003869 11.9967857 2.6003869 12.3996131 3.00321429 12.3996131 3.50011905"/>
  </g>
</svg>
