<svg xmlns="http://www.w3.org/2000/svg" width="15" height="11" viewBox="0 0 15 11">
  <path d="M14.4230769,0 L0.576923077,0 C0.258461538,0 0,0.258461538 0,0.576923077 L0,9.80769231 C0,10.1261538 0.258461538,10.3846154 0.576923077,10.3846154 L14.4230769,10.3846154 C14.7415385,10.3846154 15,10.1261538 15,9.80769231 L15,0.576923077 C15,0.258461538 14.7415385,0 14.4230769,0 Z M12.8296154,1.15384615 L7.5,5.595 L2.17038462,1.15384615 L12.8296154,1.15384615 Z M1.15384615,9.23076923 L1.15384615,1.80865385 L7.13076923,6.78923077 C7.2375,6.87865385 7.36875,6.92307692 7.5,6.92307692 C7.63125,6.92307692 7.7625,6.87865385 7.86923077,6.78923077 L13.8461538,1.80865385 L13.8461538,9.23076923 L1.15384615,9.23076923 Z"/>
</svg>
