<svg xmlns="http://www.w3.org/2000/svg" width="17" height="14" viewBox="0 0 17 14">
  <path fill="#FFF" d="M1.7692308,0.75 L15.2307692,0.75 C15.7949592,0.75 16.25,1.21547548 16.25,1.7868852 C16.25,2.35829351 15.7949586,2.8237704 15.2307692,2.8237704 L1.7692308,2.8237704 C1.20504137,2.8237704 0.75,2.35829351 0.75,1.7868852 C0.75,1.21547548 1.2050408,0.75 1.7692308,0.75 Z M1.6311637,5.8647541 L12.6765286,5.8647541 C13.1768084,5.8647541 13.5576923,6.33960691 13.5576923,6.9016452 C13.5576923,7.46368277 13.1768086,7.9385304 12.6765286,7.9385304 L1.6311637,7.9385304 C1.13088373,7.9385304 0.75,7.46368277 0.75,6.9016452 C0.75,6.33960691 1.13088394,5.8647541 1.6311637,5.8647541 Z M1.7692308,10.9795141 L15.2307692,10.9795141 C15.7949586,10.9795141 16.25,11.444991 16.25,12.0163993 C16.25,12.5878076 15.7949586,13.0532845 15.2307692,13.0532845 L1.7692308,13.0532845 C1.20504137,13.0532845 0.75,12.5878076 0.75,12.0163993 C0.75,11.444991 1.20504137,10.9795141 1.7692308,10.9795141 Z"/>
</svg>
