<svg xmlns="http://www.w3.org/2000/svg" width="15" height="12" viewBox="0 0 15 12">
  <path fill="#FFF" d="M0.7692308,0 C0.3444038,0 0,0.3522865 0,0.7868852 C0,1.2214819 0.3444038,1.5737704 0.7692308,1.5737704 L14.2307692,1.5737704 C14.6555962,1.5737704 15,1.2214819 15,0.7868852 C15,0.3522865 14.6555962,0 14.2307692,0 L0.7692308,0 Z M0.6311637,5.1147541 C0.2825878,5.1147541 0,5.4670485 0,5.9016452 C0,6.3362419 0.2825878,6.6885304 0.6311637,6.6885304 L11.6765286,6.6885304 C12.0251045,6.6885304 12.3076923,6.3362419 12.3076923,5.9016452 C12.3076923,5.4670485 12.0251045,5.1147541 11.6765286,5.1147541 L0.6311637,5.1147541 Z M0.7692308,10.2295141 C0.3444038,10.2295141 0,10.5818026 0,11.0163993 C0,11.450996 0.3444038,11.8032845 0.7692308,11.8032845 L14.2307692,11.8032845 C14.6555962,11.8032845 15,11.450996 15,11.0163993 C15,10.5818026 14.6555962,10.2295141 14.2307692,10.2295141 L0.7692308,10.2295141 Z"/>
</svg>
