<svg xmlns="http://www.w3.org/2000/svg" width="15" height="15" viewBox="0 0 15 15">
  <path fill="#FFF" d="M18.7256575,17.4000015 L15.0116643,13.6808518 C15.747619,12.6739532 16.186848,11.4364242 16.186848,10.0938928 C16.186848,6.72818892 13.4591279,4 10.093424,4 C6.72818892,4 4,6.72818892 4,10.0938928 C4,13.4595966 6.72818892,16.1877856 10.093424,16.1877856 C11.4392368,16.1877856 12.6786408,15.7466815 13.6869457,15.0074454 L17.3995327,18.7256575 C17.765635,19.0917598 18.3590864,19.0917598 18.7251888,18.7256575 C19.0912911,18.3595552 19.0917598,17.7661038 18.7256575,17.4000015 Z M5.87504393,10.0938928 C5.87504393,7.76368193 7.76368193,5.87504393 10.093424,5.87504393 C12.4236349,5.87504393 14.3122729,7.76368193 14.3122729,10.0938928 C14.3122729,12.4241036 12.4236349,14.3127416 10.093424,14.3127416 C7.76368193,14.3127416 5.87504393,12.4241036 5.87504393,10.0938928 Z" transform="translate(-4 -4)"/>
</svg>
