<svg xmlns="http://www.w3.org/2000/svg" width="28" height="28" viewBox="0 0 28 28">
  <g fill-rule="evenodd">
    <path d="M14,0 C6.2799,0 0,6.2799 0,14 C0,21.7201 6.2799,28 14,28 C21.7201,28 28,21.7201 28,14 C28,6.2799 21.7201,0 14,0 Z M14,2 C20.6393,2 26,7.3607 26,14 C26,20.6393 20.6393,26 14,26 C7.3607,26 2,20.6393 2,14 C2,7.3607 7.3607,2 14,2 Z"/>
    <path d="M19.977,7 C19.8148502,7.00351644 19.6559883,7.0464159 19.51411,7.125 C19.51411,7.125 14.48681,9.9184 12.54931,10.9941 C12.5493093,10.9947667 12.5493093,10.9954333 12.54931,10.9961 C11.89744,11.35929 11.35981,11.89696 10.99661,12.5488 C10.9959433,12.5487993 10.9952767,12.5487993 10.99461,12.5488 C9.91891,14.4863 7.12551,19.5136 7.12551,19.5136 C6.90664092,19.9043075 6.97418935,20.3928866 7.29085638,20.7095536 C7.60752341,21.0262206 8.09610251,21.0937691 8.48681,20.8749 C8.48681,20.8749 13.51411,18.0815 15.45161,17.0058 C15.4516107,17.0051333 15.4516107,17.0044667 15.45161,17.0038 C16.10348,16.64061 16.64111,16.10294 17.00431,15.4511 C17.0049767,15.4511007 17.0056433,15.4511007 17.00631,15.4511 C18.08201,13.5136 20.87541,8.4863 20.87541,8.4863 C21.0500101,8.17270674 21.0431747,7.78959714 20.8574991,7.48243186 C20.6718236,7.17526659 20.3357843,6.99115448 19.97697,7 L19.977,7 Z M17.4243,10.5762 C16.5366,12.1741 15.8595,13.3942 15.2563,14.4805 C15.07352,14.80751 14.80626,15.07549 14.47896,15.25784 C13.39216,15.86124 12.17356,16.53664 10.57666,17.42384 C11.46383,15.82694 12.13926,14.60834 12.74266,13.52154 C12.92502,13.19424 13.193,12.92698 13.52,12.7442 L13.522,12.7422 C14.6088,12.1388 15.8274,11.4634 17.4243,10.5762 Z"/>
  </g>
</svg>
