<svg xmlns="http://www.w3.org/2000/svg" width="33" height="33" viewBox="0 0 33 33">
  <path d="M16,0 C7.2,0 0,7.2 0,16 C0,22.6 3.9,28.2 9.6,30.7 C9.6,29.6 9.6,28.2 9.9,27 C10.2,25.7 12,18.3 12,18.3 C12,18.3 11.5,17.3 11.5,15.8 C11.5,13.4 12.9,11.7 14.6,11.7 C16.1,11.7 16.8,12.8 16.8,14.1 C16.8,15.6 15.9,17.8 15.4,19.8 C15,21.5 16.3,22.9 17.9,22.9 C20.9,22.9 23,19 23,14.4 C23,10.9 20.6,8.3 16.3,8.3 C11.4,8.3 8.4,11.9 8.4,16 C8.4,17.4 8.8,18.4 9.5,19.1 C9.8,19.4 9.8,19.6 9.7,20 C9.6,20.3 9.4,21 9.4,21.3 C9.3,21.7 9,21.9 8.6,21.7 C6.4,20.8 5.3,18.3 5.3,15.6 C5.3,11.1 9.1,5.6 16.7,5.6 C22.8,5.6 26.8,10 26.8,14.8 C26.8,21.1 23.3,25.8 18.2,25.8 C16.5,25.8 14.8,24.9 14.3,23.8 C14.3,23.8 13.4,27.5 13.2,28.2 C12.9,29.4 12.2,30.7 11.6,31.6 C13,32 14.6,32.3 16.1,32.3 C24.9,32.3 32.1,25.1 32.1,16.3 C32,7.2 24.8,0 16,0 Z"/>
</svg>
