<svg xmlns="http://www.w3.org/2000/svg" width="16" height="16" viewBox="0 0 16 16">
  <path fill="#FFF" d="M14.8504926,15.5002273 C14.6842686,15.5002273 14.5183043,15.4368544 14.3912988,15.3101086 L11.122919,12.0414691 C10.9052695,11.8233001 10.6341165,11.6425315 9.94506601,12.0282231 C7.21327821,13.5551466 3.98151972,13.1842592 1.90294034,11.1056798 C-0.634313445,8.56842606 -0.634313445,4.44009676 1.90294034,1.90284294 C4.44019412,-0.634410845 8.56852341,-0.634151115 11.1055175,1.90284294 C13.2581185,4.05518426 13.6386156,7.36070466 12.0309177,9.94133256 C11.8413185,10.2454706 11.4408225,10.3376729 11.1364247,10.1491126 C10.832027,9.95951326 10.7393052,9.55901726 10.9286447,9.25461956 C12.2150628,7.18954586 11.9101456,4.54398676 10.1873895,2.82123066 C8.15608011,0.790180935 4.85185831,0.790700385 2.82106831,2.82123066 C0.790278325,4.85202066 0.790278325,8.15676186 2.82106831,10.1875519 C4.48460712,11.8508309 7.09302551,12.1352299 9.31159671,10.8945234 C10.637493,10.1532682 11.5275706,10.609605 12.0413067,11.1228217 L15.3096865,14.3917209 C15.5634378,14.6454722 15.5634378,15.0563572 15.3096865,15.3098489 C15.1826809,15.4368544 15.0167166,15.5002273 14.8504926,15.5002273 Z"/>
</svg>
