<?xml version="1.0" encoding="UTF-8"?>
<svg width="16px" height="16px" viewBox="0 0 16 16" version="1.1" xmlns="http://www.w3.org/2000/svg" xmlns:xlink="http://www.w3.org/1999/xlink">
    <!-- Generator: Sketch 48.2 (47327) - http://www.bohemiancoding.com/sketch -->
    <title>arrow</title>
    <desc>Created with Sketch.</desc>
    <defs></defs>
    <g id="Artboard" stroke="none" stroke-width="1" fill="none" fill-rule="evenodd" transform="translate(-3299.000000, -1939.000000)">
        <path d="M3310.80263,1945.9063 L3306.21903,1941.32271 C3305.80206,1940.90574 3305.80206,1940.2297 3306.21903,1939.81273 C3306.636,1939.39576 3307.31204,1939.39576 3307.72901,1939.81273 L3314.18727,1946.27099 C3314.60424,1946.68796 3314.60424,1947.364 3314.18727,1947.78097 L3308.05611,1953.91213 C3307.63915,1954.3291 3306.9631,1954.3291 3306.54613,1953.91213 C3306.12916,1953.49516 3306.12916,1952.81912 3306.54613,1952.40215 L3310.90654,1948.04174 L3300.56772,1948.04174 C3299.97803,1948.04174 3299.5,1947.56371 3299.5,1946.97402 C3299.5,1946.38434 3299.97803,1945.9063 3300.56772,1945.9063 L3310.80263,1945.9063 Z" id="arrow" fill="#FFFFFF" fill-rule="nonzero"></path>
    </g>
</svg>