<?xml version="1.0" encoding="UTF-8"?>
<svg width="15px" height="17px" viewBox="0 0 15 17" version="1.1" xmlns="http://www.w3.org/2000/svg" xmlns:xlink="http://www.w3.org/1999/xlink">
    <!-- Generator: Sketch 48.2 (47327) - http://www.bohemiancoding.com/sketch -->
    <title>calendar-icon</title>
    <desc>Created with Sketch.</desc>
    <defs></defs>
    <g id="OG" stroke="none" stroke-width="1" fill="none" fill-rule="evenodd" transform="translate(-1199.000000, -30.000000)">
        <g id="Group-4" transform="translate(134.000000, 0.000000)" fill="#FFFFFF" fill-rule="nonzero">
            <g id="Group-14">
                <g id="Group-8" transform="translate(1057.000000, 22.000000)">
                    <g id="search-button" transform="translate(0.000000, 1.000000)">
                        <g id="noun_1150462_cc" transform="translate(8.000000, 7.000000)">
                            <path d="M4.97655873,3.07666315 L9.80392586,3.07666315 C10.1064715,3.07666315 10.351619,2.82044628 10.351619,2.5042394 C10.351619,2.18803253 10.1064715,1.93181566 9.80392586,1.93181566 L4.97655873,1.93181566 C4.67401306,1.93181566 4.42886562,2.18803253 4.42886562,2.5042394 C4.42886562,2.82044628 4.67423213,3.07666315 4.97655873,3.07666315 Z M13.6853174,1.93181566 L12.9257766,1.93181566 C12.623231,1.93181566 12.3780835,2.18803253 12.3780835,2.5042394 C12.3780835,2.82044628 12.623231,3.07666315 12.9257766,3.07666315 L13.6853174,3.07666315 C13.8062481,3.07666315 13.9043947,3.17924149 13.9043947,3.30563265 L13.9043947,5.87169382 L1.09538623,5.87169382 L1.09538623,3.30563265 C1.09538623,3.17924149 1.19353284,3.07666315 1.31446348,3.07666315 L1.85492705,3.07666315 C2.15747272,3.07666315 2.40262016,2.82044628 2.40262016,2.5042394 C2.40262016,2.18803253 2.15747272,1.93181566 1.85492705,1.93181566 L1.31446348,1.93181566 C0.589536871,1.93181566 0,2.54797258 0,3.30563265 L0,15.126183 C0,15.8838431 0.589536871,16.5 1.31446348,16.5 L13.6855365,16.5 C14.4104631,16.5 15,15.8838431 15,15.126183 L15,3.30563265 C14.9997809,2.54820155 14.4102441,1.93181566 13.6853174,1.93181566 Z M13.9043947,15.126183 C13.9043947,15.2525742 13.8062481,15.3551525 13.6853174,15.3551525 L1.31446348,15.3551525 C1.19353284,15.3551525 1.09538623,15.2525742 1.09538623,15.126183 L1.09538623,7.01654131 L13.9046138,7.01654131 L13.9046138,15.126183 L13.9043947,15.126183 Z M3.4469614,4.72249591 C3.74950708,4.72249591 3.99465452,4.46627904 3.99465452,4.15007216 L3.99465452,0.572423746 C3.99465452,0.256216869 3.74950708,0 3.4469614,0 C3.14441572,0 2.89926828,0.256216869 2.89926828,0.572423746 L2.89926828,4.15007216 C2.89926828,4.46627904 3.14441572,4.72249591 3.4469614,4.72249591 Z M11.4158962,4.72249591 C11.7184419,4.72249591 11.9635894,4.46627904 11.9635894,4.15007216 L11.9635894,0.572423746 C11.9635894,0.256216869 11.7184419,0 11.4158962,0 C11.1133506,0 10.8682031,0.256216869 10.8682031,0.572423746 L10.8682031,4.15007216 C10.8682031,4.46627904 11.1133506,4.72249591 11.4158962,4.72249591 Z" id="calendar-icon"></path>
                        </g>
                    </g>
                </g>
            </g>
        </g>
    </g>
</svg>