<svg xmlns="http://www.w3.org/2000/svg" width="15" height="13" viewBox="0 0 15 13">
  <g>
    <path d="M7.5,5.25295276 C6.25984252,5.25295276 5.25,6.26279528 5.25,7.50295276 C5.25,8.74311024 6.25984252,9.75295276 7.5,9.75295276 C8.74015748,9.75295276 9.75,8.74311024 9.75,7.50295276 C9.75,6.26279528 8.74015748,5.25295276 7.5,5.25295276 Z"/>
    <path d="M14.25,2.25295276 L10.9783465,2.25295276 C10.6476378,2.25295276 10.3523622,2.03444882 10.257874,1.71555118 L9.90944882,0.540354331 C9.81496063,0.221456693 9.5226378,0.00295275591 9.18897638,0.00295275591 L5.81102362,0.00295275591 C5.48031496,0.00295275591 5.18503937,0.221456693 5.09055118,0.540354331 L4.74212598,1.71555118 C4.6476378,2.03444882 4.35531496,2.25295276 4.02165354,2.25295276 L0.75,2.25295276 C0.336614173,2.25295276 0,2.58956693 0,3.00295276 L0,12.0029528 C0,12.4163386 0.336614173,12.7529528 0.75,12.7529528 L14.25,12.7529528 C14.6633858,12.7529528 15,12.4163386 15,12.0029528 L15,3.00295276 C15,2.58956693 14.6633858,2.25295276 14.25,2.25295276 Z M7.5,11.2529528 C5.43307087,11.2529528 3.75,9.56988189 3.75,7.50295276 C3.75,5.43602362 5.43307087,3.75295276 7.5,3.75295276 C9.56692913,3.75295276 11.25,5.43602362 11.25,7.50295276 C11.25,9.56988189 9.56692913,11.2529528 7.5,11.2529528 Z"/>
  </g>
</svg>
