<?xml version="1.0" encoding="UTF-8"?>
<svg width="15px" height="15px" viewBox="0 0 15 15" version="1.1" xmlns="http://www.w3.org/2000/svg" xmlns:xlink="http://www.w3.org/1999/xlink">
    <!-- Generator: Sketch 48.2 (47327) - http://www.bohemiancoding.com/sketch -->
    <title>close-icon</title>
    <desc>Created with Sketch.</desc>
    <defs></defs>
    <g id="Medium" stroke="none" stroke-width="1" fill="none" fill-rule="evenodd" transform="translate(-335.000000, -79.000000)">
        <path d="M349.727153,92.7452083 C349.998542,93.0165972 349.998542,93.4560417 349.727153,93.7271528 C349.591597,93.8627083 349.413819,93.9307639 349.236042,93.9307639 C349.058542,93.9307639 348.880764,93.8627083 348.745208,93.7271528 L342.465208,87.4474306 L336.185486,93.7271528 C336.049931,93.8627083 335.872153,93.9307639 335.694375,93.9307639 C335.516875,93.9307639 335.339097,93.8627083 335.203542,93.7271528 C334.932153,93.4560417 334.932153,93.0165972 335.203542,92.7452083 L341.483264,86.4654861 L335.203542,80.1854861 C334.932153,79.914375 334.932153,79.4749306 335.203542,79.2035417 C335.474653,78.9321528 335.914097,78.9321528 336.185486,79.2035417 L342.465208,85.4832639 L348.745208,79.2035417 C349.016319,78.9321528 349.455764,78.9321528 349.727153,79.2035417 C349.998542,79.4749306 349.998542,79.914375 349.727153,80.1854861 L343.447431,86.4654861 L349.727153,92.7452083 Z" id="close-icon" fill="#FFFFFF" fill-rule="nonzero"></path>
    </g>
</svg>