<svg xmlns="http://www.w3.org/2000/svg" width="80" height="60" viewBox="0 0 80 60">
  <path d="M3.999999,0.36216 C1.790899,0.36216 -1.5e-06,2.15295 -1.5e-06,4.36216 C-1.5e-06,6.57136 1.790899,8.36216 3.999999,8.36216 L76.000001,8.36216 C78.209102,8.36216 80.000001,6.57136 80.000001,4.36216 C80.000001,2.15295 78.209102,0.36216 76.000001,0.36216 L3.999999,0.36216 Z M3.999999,26.36221 C1.790899,26.36221 -1.5e-06,28.1529 -1.5e-06,30.3622 C-1.5e-06,32.5714 1.790899,34.3622 3.999999,34.3622 L76.000001,34.3622 C78.209102,34.3622 80.000001,32.5714 80.000001,30.3622 C80.000001,28.1529 78.209102,26.36221 76.000001,26.36221 L3.999999,26.36221 Z M3.999999,52.3622 C1.790899,52.3622 -1.5e-06,54.153 -1.5e-06,56.3622 C-1.5e-06,58.5714 1.790899,60.3622 3.999999,60.3622 L76.000001,60.3622 C78.209102,60.3622 80.000001,58.5714 80.000001,56.3622 C80.000001,54.153 78.209102,52.3622 76.000001,52.3622 L3.999999,52.3622 Z" transform="translate(0 -.362)"/>
</svg>
