<?xml version="1.0" encoding="UTF-8"?>
<svg width="15px" height="12px" viewBox="0 0 15 12" version="1.1" xmlns="http://www.w3.org/2000/svg" xmlns:xlink="http://www.w3.org/1999/xlink">
    <!-- Generator: Sketch 48.2 (47327) - http://www.bohemiancoding.com/sketch -->
    <title>Shape</title>
    <desc>Created with Sketch.</desc>
    <defs></defs>
    <g id="Navigation-Mobile" stroke="none" stroke-width="1" fill="none" fill-rule="evenodd" transform="translate(-24.000000, -22.000000)">
        <g id="Group-2" fill="#FFFFFF" fill-rule="nonzero">
            <path d="M24.7692308,22.0712466 C24.3444038,22.0712466 24,22.4235331 24,22.8581318 C24,23.2927285 24.3444038,23.645017 24.7692308,23.645017 L38.2307692,23.645017 C38.6555962,23.645017 39,23.2927285 39,22.8581318 C39,22.4235331 38.6555962,22.0712466 38.2307692,22.0712466 L24.7692308,22.0712466 Z M24.6311637,27.1860007 C24.2825878,27.1860007 24,27.5382951 24,27.9728918 C24,28.4074885 24.2825878,28.759777 24.6311637,28.759777 L35.6765286,28.759777 C36.0251045,28.759777 36.3076923,28.4074885 36.3076923,27.9728918 C36.3076923,27.5382951 36.0251045,27.1860007 35.6765286,27.1860007 L24.6311637,27.1860007 Z M24.7692308,32.3007607 C24.3444038,32.3007607 24,32.6530492 24,33.0876459 C24,33.5222426 24.3444038,33.8745311 24.7692308,33.8745311 L38.2307692,33.8745311 C38.6555962,33.8745311 39,33.5222426 39,33.0876459 C39,32.6530492 38.6555962,32.3007607 38.2307692,32.3007607 L24.7692308,32.3007607 Z" id="Shape"></path>
        </g>
    </g>
</svg>