<svg xmlns="http://www.w3.org/2000/svg" width="11" height="16" viewBox="0 0 11 16">
  <path d="M5.33333333,7.65769697 C6.55660606,7.65769697 7.54812121,6.66618182 7.54812121,5.44290909 C7.54812121,4.21963636 6.55660606,3.22812121 5.33333333,3.22812121 C4.11006061,3.22812121 3.11854545,4.21963636 3.11854545,5.44290909 C3.11854545,6.66618182 4.11006061,7.65769697 5.33333333,7.65769697 Z M0.675878788,7.3270303 C0.611878788,7.16412121 0.556121212,6.99684848 0.508606061,6.82618182 C0.390787879,6.40048485 0.327272727,5.95151515 0.327272727,5.488 C0.327272727,2.72339394 2.56824242,0.482424242 5.33333333,0.482424242 C8.09842424,0.482424242 10.3393939,2.72387879 10.3393939,5.48848485 C10.3393939,5.952 10.2758788,6.40048485 10.1580606,6.82666667 C10.1086061,7.00509091 10.0494545,7.17963636 9.98157576,7.34933333 L9.84484848,7.66012121 L5.33333333,15.9975758 L0.827636364,7.67175758 L0.675878788,7.3270303 Z"/>
</svg>
