<?xml version="1.0" encoding="UTF-8"?>
<svg width="15px" height="15px" viewBox="0 0 15 15" version="1.1" xmlns="http://www.w3.org/2000/svg" xmlns:xlink="http://www.w3.org/1999/xlink">
    <!-- Generator: Sketch 48.2 (47327) - http://www.bohemiancoding.com/sketch -->
    <title>recommend-icon</title>
    <desc>Created with Sketch.</desc>
    <defs></defs>
    <g id="Large" stroke="none" stroke-width="1" fill="none" fill-rule="evenodd" transform="translate(-1270.000000, -547.000000)">
        <path d="M1284.67978,555.634921 C1284.67978,555.365079 1284.59551,555.095238 1284.44382,554.875992 C1284.76404,554.623016 1284.98315,554.235119 1284.98315,553.796627 C1284.98315,553.054563 1284.3764,552.447421 1283.65169,552.447421 C1283.65169,552.447421 1283.65169,552.447421 1283.65169,552.447421 L1280.38202,552.447421 L1280.65169,550.929563 C1280.65169,550.929563 1280.65169,550.929563 1280.65169,550.929563 C1280.68539,550.710317 1280.7191,550.474206 1280.7191,550.238095 C1280.7191,549.749008 1280.63483,549.259921 1280.44944,548.804563 C1280.44944,548.804563 1280.44944,548.804563 1280.44944,548.804563 C1280.44944,548.804563 1280.44944,548.804563 1280.44944,548.804563 L1280.11236,547.978175 C1280.11236,547.96131 1280.09551,547.944444 1280.07865,547.927579 C1279.85955,547.455357 1279.38764,547.134921 1278.84831,547.134921 C1278.10674,547.134921 1277.5,547.742063 1277.5,548.484127 L1277.5,549.276786 C1277.5,549.934524 1277.29775,550.541667 1276.92697,551.081349 L1274.97191,553.779762 C1274.85393,553.644841 1274.68539,553.560516 1274.5,553.560516 L1270.69101,553.560516 C1270.35393,553.560516 1270.06742,553.847222 1270.06742,554.184524 L1270.06742,560.542659 C1270.06742,560.87996 1270.35393,561.166667 1270.69101,561.166667 L1274.5,561.166667 C1274.83708,561.166667 1275.1236,560.87996 1275.1236,560.542659 L1275.1236,559.986111 C1275.29213,560.036706 1275.46067,560.137897 1275.64607,560.222222 C1276.03371,560.424603 1276.48876,560.660714 1277.07865,560.660714 L1282.72472,560.660714 C1283.46629,560.660714 1284.07303,560.053571 1284.07303,559.311508 C1284.07303,559.041667 1283.98876,558.78869 1283.85393,558.569444 C1284.17416,558.316468 1284.39326,557.928571 1284.39326,557.490079 C1284.39326,557.220238 1284.30899,556.967262 1284.1573,556.748016 C1284.46067,556.478175 1284.67978,556.090278 1284.67978,555.634921 Z M1274.26404,560.306548 L1270.89326,560.306548 L1270.89326,554.386905 L1274.26404,554.386905 L1274.26404,560.306548 Z M1282.70787,559.800595 L1277.0618,559.800595 C1276.67416,559.800595 1276.37079,559.64881 1276.01685,559.463294 C1275.74719,559.328373 1275.46067,559.176587 1275.10674,559.092262 L1275.10674,555.010913 L1277.58427,551.587302 C1277.58427,551.587302 1277.58427,551.587302 1277.58427,551.587302 C1277.58427,551.587302 1277.58427,551.587302 1277.58427,551.570437 L1277.61798,551.519841 C1277.61798,551.502976 1277.63483,551.502976 1277.63483,551.486111 C1278.05618,550.878968 1278.27528,550.170635 1278.30899,549.445437 C1278.30899,549.428571 1278.30899,549.394841 1278.30899,549.377976 L1278.30899,548.484127 C1278.30899,548.197421 1278.54494,547.978175 1278.81461,547.978175 C1279.03371,547.978175 1279.2191,548.113095 1279.30337,548.315476 C1279.30337,548.315476 1279.30337,548.315476 1279.30337,548.315476 L1279.6236,549.125 C1279.75843,549.479167 1279.8427,549.867063 1279.8427,550.25496 C1279.8427,550.440476 1279.82584,550.609127 1279.79213,550.794643 C1279.79213,550.794643 1279.79213,550.794643 1279.79213,550.794643 L1279.4382,552.818452 C1279.4382,552.835317 1279.4382,552.852183 1279.4382,552.852183 C1279.4382,552.869048 1279.4382,552.869048 1279.4382,552.885913 C1279.4382,552.885913 1279.4382,552.885913 1279.4382,552.885913 C1279.4382,552.902778 1279.4382,552.919643 1279.4382,552.936508 C1279.4382,552.953373 1279.4382,552.953373 1279.4382,552.970238 C1279.4382,552.987103 1279.45506,553.003968 1279.45506,553.020833 C1279.45506,553.037698 1279.45506,553.037698 1279.47191,553.054563 C1279.47191,553.071429 1279.48876,553.071429 1279.48876,553.088294 C1279.48876,553.105159 1279.50562,553.105159 1279.50562,553.122024 C1279.50562,553.138889 1279.52247,553.138889 1279.53933,553.155754 C1279.55618,553.172619 1279.55618,553.172619 1279.57303,553.189484 C1279.58989,553.206349 1279.58989,553.206349 1279.60674,553.223214 C1279.6236,553.223214 1279.6236,553.240079 1279.64045,553.240079 C1279.6573,553.240079 1279.6573,553.256944 1279.67416,553.256944 C1279.69101,553.256944 1279.69101,553.27381 1279.70787,553.27381 C1279.72472,553.27381 1279.72472,553.27381 1279.74157,553.290675 C1279.75843,553.290675 1279.77528,553.30754 1279.79213,553.30754 C1279.79213,553.30754 1279.79213,553.30754 1279.79213,553.30754 C1279.80899,553.30754 1279.8427,553.30754 1279.85955,553.30754 C1279.85955,553.30754 1279.85955,553.30754 1279.85955,553.30754 L1283.61798,553.30754 C1283.90449,553.30754 1284.1236,553.543651 1284.1236,553.813492 C1284.1236,554.083333 1283.88764,554.319444 1283.61798,554.319444 C1283.58427,554.319444 1283.55056,554.319444 1283.51685,554.33631 C1283.5,554.33631 1283.48315,554.353175 1283.46629,554.353175 C1283.46629,554.353175 1283.46629,554.353175 1283.46629,554.353175 C1283.34831,554.40377 1283.26404,554.488095 1283.21348,554.606151 C1283.12921,554.825397 1283.24719,555.061508 1283.46629,555.145833 C1283.68539,555.213294 1283.82022,555.415675 1283.82022,555.634921 C1283.82022,555.921627 1283.58427,556.157738 1283.29775,556.157738 C1283.29775,556.157738 1283.2809,556.157738 1283.2809,556.157738 C1283.09551,556.157738 1282.92697,556.275794 1282.85955,556.46131 C1282.79213,556.680556 1282.92697,556.916667 1283.14607,556.984127 C1283.36517,557.051587 1283.5,557.253968 1283.5,557.473214 C1283.5,557.743056 1283.2809,557.979167 1282.99438,557.979167 C1282.85955,557.979167 1282.75843,558.046627 1282.67416,558.130952 C1282.67416,558.130952 1282.6573,558.147817 1282.6573,558.147817 C1282.6573,558.147817 1282.6573,558.164683 1282.64045,558.164683 C1282.6236,558.198413 1282.58989,558.232143 1282.57303,558.282738 C1282.50562,558.501984 1282.6236,558.738095 1282.8427,558.822421 C1283.04494,558.889881 1283.17978,559.075397 1283.17978,559.294643 C1283.21348,559.564484 1282.99438,559.800595 1282.70787,559.800595 Z" id="recommend-icon" fill="#FFFFFF" fill-rule="nonzero"></path>
    </g>
</svg>