<svg xmlns="http://www.w3.org/2000/svg" width="15" height="15" viewBox="0 0 15 15">
  <path fill="#FFF" d="M14.67978,8.634921 C14.67978,8.365079 14.59551,8.095238 14.44382,7.875992 C14.76404,7.623016 14.98315,7.235119 14.98315,6.796627 C14.98315,6.054563 14.3764,5.447421 13.65169,5.447421 C13.65169,5.447421 13.65169,5.447421 13.65169,5.447421 L10.38202,5.447421 L10.65169,3.929563 C10.65169,3.929563 10.65169,3.929563 10.65169,3.929563 C10.68539,3.710317 10.7191,3.474206 10.7191,3.238095 C10.7191,2.749008 10.63483,2.259921 10.44944,1.804563 C10.44944,1.804563 10.44944,1.804563 10.44944,1.804563 C10.44944,1.804563 10.44944,1.804563 10.44944,1.804563 L10.11236,0.978175 C10.11236,0.96131 10.09551,0.944444 10.07865,0.927579 C9.85955,0.455357 9.38764,0.134921 8.84831,0.134921 C8.10674,0.134921 7.5,0.742063 7.5,1.484127 L7.5,2.276786 C7.5,2.934524 7.29775,3.541667 6.92697,4.081349 L4.97191,6.779762 C4.85393,6.644841 4.68539,6.560516 4.5,6.560516 L0.69101,6.560516 C0.35393,6.560516 0.06742,6.847222 0.06742,7.184524 L0.06742,13.542659 C0.06742,13.87996 0.35393,14.166667 0.69101,14.166667 L4.5,14.166667 C4.83708,14.166667 5.1236,13.87996 5.1236,13.542659 L5.1236,12.986111 C5.29213,13.036706 5.46067,13.137897 5.64607,13.222222 C6.03371,13.424603 6.48876,13.660714 7.07865,13.660714 L12.72472,13.660714 C13.46629,13.660714 14.07303,13.053571 14.07303,12.311508 C14.07303,12.041667 13.98876,11.78869 13.85393,11.569444 C14.17416,11.316468 14.39326,10.928571 14.39326,10.490079 C14.39326,10.220238 14.30899,9.967262 14.1573,9.748016 C14.46067,9.478175 14.67978,9.090278 14.67978,8.634921 Z M4.26404,13.306548 L0.89326,13.306548 L0.89326,7.386905 L4.26404,7.386905 L4.26404,13.306548 Z M12.70787,12.800595 L7.0618,12.800595 C6.67416,12.800595 6.37079,12.64881 6.01685,12.463294 C5.74719,12.328373 5.46067,12.176587 5.10674,12.092262 L5.10674,8.010913 L7.58427,4.587302 C7.58427,4.587302 7.58427,4.587302 7.58427,4.587302 C7.58427,4.587302 7.58427,4.587302 7.58427,4.570437 L7.61798,4.519841 C7.61798,4.502976 7.63483,4.502976 7.63483,4.486111 C8.05618,3.878968 8.27528,3.170635 8.30899,2.445437 C8.30899,2.428571 8.30899,2.394841 8.30899,2.377976 L8.30899,1.484127 C8.30899,1.197421 8.54494,0.978175 8.81461,0.978175 C9.03371,0.978175 9.2191,1.113095 9.30337,1.315476 C9.30337,1.315476 9.30337,1.315476 9.30337,1.315476 L9.6236,2.125 C9.75843,2.479167 9.8427,2.867063 9.8427,3.25496 C9.8427,3.440476 9.82584,3.609127 9.79213,3.794643 C9.79213,3.794643 9.79213,3.794643 9.79213,3.794643 L9.4382,5.818452 C9.4382,5.835317 9.4382,5.852183 9.4382,5.852183 C9.4382,5.869048 9.4382,5.869048 9.4382,5.885913 C9.4382,5.885913 9.4382,5.885913 9.4382,5.885913 C9.4382,5.902778 9.4382,5.919643 9.4382,5.936508 C9.4382,5.953373 9.4382,5.953373 9.4382,5.970238 C9.4382,5.987103 9.45506,6.003968 9.45506,6.020833 C9.45506,6.037698 9.45506,6.037698 9.47191,6.054563 C9.47191,6.071429 9.48876,6.071429 9.48876,6.088294 C9.48876,6.105159 9.50562,6.105159 9.50562,6.122024 C9.50562,6.138889 9.52247,6.138889 9.53933,6.155754 C9.55618,6.172619 9.55618,6.172619 9.57303,6.189484 C9.58989,6.206349 9.58989,6.206349 9.60674,6.223214 C9.6236,6.223214 9.6236,6.240079 9.64045,6.240079 C9.6573,6.240079 9.6573,6.256944 9.67416,6.256944 C9.69101,6.256944 9.69101,6.27381 9.70787,6.27381 C9.72472,6.27381 9.72472,6.27381 9.74157,6.290675 C9.75843,6.290675 9.77528,6.30754 9.79213,6.30754 C9.79213,6.30754 9.79213,6.30754 9.79213,6.30754 C9.80899,6.30754 9.8427,6.30754 9.85955,6.30754 C9.85955,6.30754 9.85955,6.30754 9.85955,6.30754 L13.61798,6.30754 C13.90449,6.30754 14.1236,6.543651 14.1236,6.813492 C14.1236,7.083333 13.88764,7.319444 13.61798,7.319444 C13.58427,7.319444 13.55056,7.319444 13.51685,7.33631 C13.5,7.33631 13.48315,7.353175 13.46629,7.353175 C13.46629,7.353175 13.46629,7.353175 13.46629,7.353175 C13.34831,7.40377 13.26404,7.488095 13.21348,7.606151 C13.12921,7.825397 13.24719,8.061508 13.46629,8.145833 C13.68539,8.213294 13.82022,8.415675 13.82022,8.634921 C13.82022,8.921627 13.58427,9.157738 13.29775,9.157738 C13.29775,9.157738 13.2809,9.157738 13.2809,9.157738 C13.09551,9.157738 12.92697,9.275794 12.85955,9.46131 C12.79213,9.680556 12.92697,9.916667 13.14607,9.984127 C13.36517,10.051587 13.5,10.253968 13.5,10.473214 C13.5,10.743056 13.2809,10.979167 12.99438,10.979167 C12.85955,10.979167 12.75843,11.046627 12.67416,11.130952 C12.67416,11.130952 12.6573,11.147817 12.6573,11.147817 C12.6573,11.147817 12.6573,11.164683 12.64045,11.164683 C12.6236,11.198413 12.58989,11.232143 12.57303,11.282738 C12.50562,11.501984 12.6236,11.738095 12.8427,11.822421 C13.04494,11.889881 13.17978,12.075397 13.17978,12.294643 C13.21348,12.564484 12.99438,12.800595 12.70787,12.800595 Z"/>
</svg>
