<?xml version="1.0" encoding="UTF-8"?>
<svg width="17px" height="17px" viewBox="0 0 17 17" version="1.1" xmlns="http://www.w3.org/2000/svg" xmlns:xlink="http://www.w3.org/1999/xlink">
    <!-- Generator: Sketch 48.2 (47327) - http://www.bohemiancoding.com/sketch -->
    <title>search-icon</title>
    <desc>Created with Sketch.</desc>
    <defs></defs>
    <g id="OG" stroke="none" stroke-width="1" fill="none" fill-rule="evenodd" transform="translate(-1243.000000, -30.000000)">
        <g id="Group-4" transform="translate(134.000000, 0.000000)" fill="#FFFFFF" fill-rule="nonzero">
            <g id="Group-14">
                <g id="search-button" transform="translate(1102.000000, 23.000000)">
                    <path d="M22.5171893,23.1669303 C22.3509653,23.1669303 22.185001,23.1035574 22.0579955,22.9768116 L18.7896157,19.7081721 C18.5719662,19.4900031 18.3008132,19.3092345 17.6117627,19.6949261 C14.8799749,21.2218496 11.6482164,20.8509622 9.56963702,18.7723828 C7.03238324,16.2351291 7.03238324,12.1067998 9.56963702,9.56954598 C12.1068908,7.03229219 16.2352201,7.03255192 18.7722142,9.56954598 C20.9248152,11.7218873 21.3053123,15.0274077 19.6976144,17.6080356 C19.5080152,17.9121736 19.1075192,18.0043759 18.8031214,17.8158156 C18.4987237,17.6262163 18.4060019,17.2257203 18.5953414,16.9213226 C19.8817595,14.8562489 19.5768423,12.2106898 17.8540862,10.4879337 C15.8227768,8.45688397 12.518555,8.45740342 10.487765,10.4879337 C8.45697501,12.5187237 8.45697501,15.8234649 10.487765,17.8542549 C12.1513038,19.5175339 14.7597222,19.8019329 16.9782934,18.5612264 C18.3041897,17.8199712 19.1942673,18.276308 19.7080034,18.7895247 L22.9763832,22.0584239 C23.2301345,22.3121752 23.2301345,22.7230602 22.9763832,22.9765519 C22.8493776,23.1035574 22.6834133,23.1669303 22.5171893,23.1669303 Z" id="search-icon"></path>
                </g>
            </g>
        </g>
    </g>
</svg>