<?xml version="1.0" encoding="utf-8"?><svg width="1784" height="8" viewBox="0 0 1784 8" xmlns="http://www.w3.org/2000/svg" xmlns:xlink="http://www.w3.org/1999/xlink"><view id="account-login" viewBox="0 0 8 8"/><svg width="8" height="8" viewBox="0 0 8 8" id="account-login-" xmlns="http://www.w3.org/2000/svg"><path d="M3 0v1h4v5H3v1h5V0H3zm1 2v1H0v1h4v1l2-1.5L4 2z"/></svg><view id="account-logout" viewBox="8 0 8 8"/><svg width="8" height="8" viewBox="0 0 8 8" id="account-logout-" x="8" xmlns="http://www.w3.org/2000/svg"><path d="M3 0v1h4v5H3v1h5V0H3zM2 2L0 3.5 2 5V4h4V3H2V2z"/></svg><view id="action-redo" viewBox="16 0 8 8"/><svg width="8" height="8" viewBox="0 0 8 8" id="action-redo-" x="16" xmlns="http://www.w3.org/2000/svg"><path d="M3.5 1C1.57 1 0 2.57 0 4.5a2.5 2.5 0 0 1 5 0V5H4l2 2 2-2H7v-.5C7 2.57 5.43 1 3.5 1z"/></svg><view id="action-undo" viewBox="24 0 8 8"/><svg width="8" height="8" viewBox="0 0 8 8" id="action-undo-" x="24" xmlns="http://www.w3.org/2000/svg"><path d="M4.5 1C2.57 1 1 2.57 1 4.5V5H0l2 2 2-2H3v-.5a2.5 2.5 0 0 1 5 0C8 2.57 6.43 1 4.5 1z"/></svg><view id="align-center" viewBox="32 0 8 8"/><svg width="8" height="8" viewBox="0 0 8 8" id="align-center-" x="32" xmlns="http://www.w3.org/2000/svg"><path d="M0 0v1h8V0H0zm1 2v1h6V2H1zM0 4v1h8V4H0zm1 2v1h6V6H1z"/></svg><view id="align-left" viewBox="40 0 8 8"/><svg width="8" height="8" viewBox="0 0 8 8" id="align-left-" x="40" xmlns="http://www.w3.org/2000/svg"><path d="M0 0v1h8V0H0zm0 2v1h6V2H0zm0 2v1h8V4H0zm0 2v1h6V6H0z"/></svg><view id="align-right" viewBox="48 0 8 8"/><svg width="8" height="8" viewBox="0 0 8 8" id="align-right-" x="48" xmlns="http://www.w3.org/2000/svg"><path d="M0 0v1h8V0H0zm2 2v1h6V2H2zM0 4v1h8V4H0zm2 2v1h6V6H2z"/></svg><view id="aperture" viewBox="56 0 8 8"/><svg width="8" height="8" viewBox="0 0 8 8" id="aperture-" x="56" xmlns="http://www.w3.org/2000/svg"><path d="M4 0c-.69 0-1.34.19-1.91.5l3.22 2.34.75-2.25C5.46.23 4.75 0 4 0zM1.25 1.13C.49 1.86 0 2.87 0 4.01c0 .25.02.48.06.72l3.09-2.22-1.91-1.38zm5.63.13L5.66 5.01h2.19c.08-.32.16-.65.16-1 0-1.07-.44-2.03-1.13-2.75zM2.16 4.48L.41 5.73c.55 1.13 1.6 1.99 2.88 2.22L2.16 4.48zm1.56 1.53l.63 1.97c1.33-.12 2.46-.88 3.09-1.97H3.72z"/></svg><view id="arclearfix-bottom" viewBox="64 0 8 8"/><svg width="8" height="8" viewBox="0 0 8 8" id="arclearfix-bottom-" x="64" xmlns="http://www.w3.org/2000/svg"><path d="M3 0v5H1l2.53 3L6 5H4V0H3z"/></svg><view id="arclearfix-circle-bottom" viewBox="72 0 8 8"/><svg width="8" height="8" viewBox="0 0 8 8" id="arclearfix-circle-bottom-" x="72" xmlns="http://www.w3.org/2000/svg"><path d="M4 0C1.79 0 0 1.79 0 4s1.79 4 4 4 4-1.79 4-4-1.79-4-4-4zM3 1h2v3h2L4 7 1 4h2V1z"/></svg><view id="arclearfix-circle-left" viewBox="80 0 8 8"/><svg width="8" height="8" viewBox="0 0 8 8" id="arclearfix-circle-left-" x="80" xmlns="http://www.w3.org/2000/svg"><path d="M4 0C1.79 0 0 1.79 0 4s1.79 4 4 4 4-1.79 4-4-1.79-4-4-4zm0 1v2h3v2H4v2L1 4l3-3z"/></svg><view id="arclearfix-circle-right" viewBox="88 0 8 8"/><svg width="8" height="8" viewBox="0 0 8 8" id="arclearfix-circle-right-" x="88" xmlns="http://www.w3.org/2000/svg"><path d="M4 0C1.79 0 0 1.79 0 4s1.79 4 4 4 4-1.79 4-4-1.79-4-4-4zm0 1l3 3-3 3V5H1V3h3V1z"/></svg><view id="arclearfix-circle-top" viewBox="96 0 8 8"/><svg width="8" height="8" viewBox="0 0 8 8" id="arclearfix-circle-top-" x="96" xmlns="http://www.w3.org/2000/svg"><path d="M4 0C1.79 0 0 1.79 0 4s1.79 4 4 4 4-1.79 4-4-1.79-4-4-4zm0 1l3 3H5v3H3V4H1l3-3z"/></svg><view id="arclearfix-left" viewBox="104 0 8 8"/><svg width="8" height="8" viewBox="0 0 8 8" id="arclearfix-left-" x="104" xmlns="http://www.w3.org/2000/svg"><path d="M3 1L0 3.53 3 6V4h5V3H3V1z"/></svg><view id="arclearfix-right" viewBox="112 0 8 8"/><svg width="8" height="8" viewBox="0 0 8 8" id="arclearfix-right-" x="112" xmlns="http://www.w3.org/2000/svg"><path d="M5 1v2H0v1h5v2l3-2.53L5 1z"/></svg><view id="arclearfix-thick-bottom" viewBox="120 0 8 8"/><svg width="8" height="8" viewBox="0 0 8 8" id="arclearfix-thick-bottom-" x="120" xmlns="http://www.w3.org/2000/svg"><path d="M3 0v5H1l3.03 3L7 5H5V0H3z"/></svg><view id="arclearfix-thick-left" viewBox="128 0 8 8"/><svg width="8" height="8" viewBox="0 0 8 8" id="arclearfix-thick-left-" x="128" xmlns="http://www.w3.org/2000/svg"><path d="M3 1L0 4.03 3 7V5h5V3H3V1z"/></svg><view id="arclearfix-thick-right" viewBox="136 0 8 8"/><svg width="8" height="8" viewBox="0 0 8 8" id="arclearfix-thick-right-" x="136" xmlns="http://www.w3.org/2000/svg"><path d="M5 1v2H0v2h5v2l3-3.03L5 1z"/></svg><view id="arclearfix-thick-top" viewBox="144 0 8 8"/><svg width="8" height="8" viewBox="0 0 8 8" id="arclearfix-thick-top-" x="144" xmlns="http://www.w3.org/2000/svg"><path d="M3.97 0L1 3h2v5h2V3h2L3.97 0z"/></svg><view id="arclearfix-top" viewBox="152 0 8 8"/><svg width="8" height="8" viewBox="0 0 8 8" id="arclearfix-top-" x="152" xmlns="http://www.w3.org/2000/svg"><path d="M3.47 0L1 3h2v5h1V3h2L3.47 0z"/></svg><view id="audio" viewBox="160 0 8 8"/><svg width="8" height="8" viewBox="0 0 8 8" id="audio-" x="160" xmlns="http://www.w3.org/2000/svg"><path d="M1.16 1C.44 1.72 0 2.71 0 3.81s.43 2.12 1.16 2.84l.72-.72C1.34 5.39 1 4.64 1 3.8c0-.83.33-1.55.88-2.09L1.16.99zm5.69 0l-.72.72c.54.54.88 1.26.88 2.09 0 .83-.33 1.58-.88 2.13l.72.72c.72-.72 1.16-1.74 1.16-2.84 0-1.1-.43-2.09-1.16-2.81zM2.6 2.41c-.36.36-.59.86-.59 1.41 0 .55.23 1.08.59 1.44l.69-.72c-.18-.18-.28-.44-.28-.72 0-.28.1-.5.28-.69l-.69-.72zm2.81 0l-.69.72c.18.18.28.41.28.69 0 .28-.1.54-.28.72l.69.72c.36-.36.59-.89.59-1.44 0-.55-.23-1.05-.59-1.41z"/></svg><view id="audio-spectrum" viewBox="168 0 8 8"/><svg width="8" height="8" viewBox="0 0 8 8" id="audio-spectrum-" x="168" xmlns="http://www.w3.org/2000/svg"><path d="M4 0v8h1V0H4zM2 1v6h1V1H2zm4 1v4h1V2H6zM0 3v2h1V3H0z"/></svg><view id="badge" viewBox="176 0 8 8"/><svg width="8" height="8" viewBox="0 0 8 8" id="badge-" x="176" xmlns="http://www.w3.org/2000/svg"><path d="M4 0C2.9 0 2 .9 2 2s.9 2 2 2 2-.9 2-2-.9-2-2-2zM3 4.81V8l1-1 1 1V4.81c-.31.11-.65.19-1 .19s-.69-.08-1-.19z"/></svg><view id="ban" viewBox="184 0 8 8"/><svg width="8" height="8" viewBox="0 0 8 8" id="ban-" x="184" xmlns="http://www.w3.org/2000/svg"><path d="M4 0C1.8 0 0 1.8 0 4s1.8 4 4 4 4-1.8 4-4-1.8-4-4-4zm0 1c.66 0 1.26.21 1.75.56L1.56 5.75C1.21 5.26 1 4.66 1 4c0-1.66 1.34-3 3-3zm2.44 1.25C6.79 2.74 7 3.34 7 4c0 1.66-1.34 3-3 3-.66 0-1.26-.21-1.75-.56l4.19-4.19z"/></svg><view id="bar-chart" viewBox="192 0 8 8"/><svg width="8" height="8" viewBox="0 0 8 8" id="bar-chart-" x="192" xmlns="http://www.w3.org/2000/svg"><path d="M0 0v7h8V6H1V0H0zm5 0v5h2V0H5zM2 2v3h2V2H2z"/></svg><view id="basket" viewBox="200 0 8 8"/><svg width="8" height="8" viewBox="0 0 8 8" id="basket-" x="200" xmlns="http://www.w3.org/2000/svg"><path d="M3.97 0c-.13.01-.26.08-.34.19L1.29 3H.01v1h1v3.66c0 .18.16.34.34.34h5.31c.18 0 .34-.16.34-.34V4h1V3H6.72C6.45 2.67 4.33.14 4.31.12c-.11-.09-.22-.14-.34-.13zM4 1.28L5.44 3H2.56L4 1.28zM2.5 5c.28 0 .5.22.5.5v1c0 .28-.22.5-.5.5S2 6.78 2 6.5v-1c0-.28.22-.5.5-.5zm3 0c.28 0 .5.22.5.5v1c0 .28-.22.5-.5.5S5 6.78 5 6.5v-1c0-.28.22-.5.5-.5z"/></svg><view id="battery-empty" viewBox="208 0 8 8"/><svg width="8" height="8" viewBox="0 0 8 8" id="battery-empty-" x="208" xmlns="http://www.w3.org/2000/svg"><path d="M.09 1C.03 1 0 1.04 0 1.09V6.9c0 .05.04.09.09.09H6.9c.05 0 .09-.04.09-.09V4.99h1v-2h-1V1.08c0-.06-.04-.09-.09-.09H.09zM1 2h5v4H1V2z"/></svg><view id="battery-full" viewBox="216 0 8 8"/><svg width="8" height="8" viewBox="0 0 8 8" id="battery-full-" x="216" xmlns="http://www.w3.org/2000/svg"><path d="M.09 1C.03 1 0 1.04 0 1.09V6.9c0 .05.04.09.09.09H6.9c.05 0 .09-.04.09-.09V4.99h1v-2h-1V1.08c0-.06-.04-.09-.09-.09H.09z"/></svg><view id="beaker" viewBox="224 0 8 8"/><svg width="8" height="8" viewBox="0 0 8 8" id="beaker-" x="224" xmlns="http://www.w3.org/2000/svg"><path d="M1.34 0a.5.5 0 0 0 .16 1H2v1.41C1.91 2.58.8 4.72.34 5.5.18 5.76 0 6.11 0 6.56c0 .39.15.77.41 1.03S1.05 8 1.44 8h5.13c.38 0 .74-.16 1-.41h.03c.26-.26.41-.64.41-1.03 0-.45-.19-.8-.34-1.06-.46-.78-1.57-2.92-1.66-3.09V1h.5a.5.5 0 1 0 0-1h-5a.5.5 0 0 0-.09 0 .5.5 0 0 0-.06 0zM3 1h2v1.63l.06.09S5.69 3.95 6.25 5h-4.5c.56-1.05 1.19-2.28 1.19-2.28L3 2.63V1z"/></svg><view id="bell" viewBox="232 0 8 8"/><svg width="8" height="8" viewBox="0 0 8 8" id="bell-" x="232" xmlns="http://www.w3.org/2000/svg"><path d="M4 0C2.9 0 2 .9 2 2 2 3.04 1.48 3.98.66 4.66.25 5 0 5.48 0 6h8c0-.52-.24-1-.66-1.34C6.52 3.98 6 3.04 6 2a2 2 0 0 0-2-2zM3 7c0 .55.45 1 1 1s1-.45 1-1H3z"/></svg><view id="bluetooth" viewBox="240 0 8 8"/><svg width="8" height="8" viewBox="0 0 8 8" id="bluetooth-" x="240" xmlns="http://www.w3.org/2000/svg"><path d="M2.5 0v2.5l-.75-.75L1 2.5 2.5 4 1 5.5l.75.75.75-.75V8H3l3.5-2.5-2.25-1.53L6.5 2.5 3 0h-.5zm1 1.5l1.5 1-1.5 1v-2zm0 3l1.5 1-1.5 1v-2z"/></svg><view id="bold" viewBox="248 0 8 8"/><svg width="8" height="8" viewBox="0 0 8 8" id="bold-" x="248" xmlns="http://www.w3.org/2000/svg"><path d="M0 0v1c.55 0 1 .45 1 1v4c0 .55-.45 1-1 1v1h5.5A2.5 2.5 0 0 0 8 5.5c0-1-.59-1.85-1.44-2.25A2 2 0 0 0 5 0H0zm3 1h1c.55 0 1 .45 1 1s-.45 1-1 1H3V1zm0 3h1.5C5.33 4 6 4.67 6 5.5S5.33 7 4.5 7H3V4z"/></svg><view id="bolt" viewBox="256 0 8 8"/><svg width="8" height="8" viewBox="0 0 8 8" id="bolt-" x="256" xmlns="http://www.w3.org/2000/svg"><path d="M4 0L1 5h2v3l3-5H4V0z"/></svg><view id="book" viewBox="264 0 8 8"/><svg width="8" height="8" viewBox="0 0 8 8" id="book-" x="264" xmlns="http://www.w3.org/2000/svg"><path d="M1 0C.93 0 .87.01.81.03.42.11.11.42.03.81 0 .87 0 .93 0 1v5.5C0 7.33.67 8 1.5 8H7V7H1.5c-.28 0-.5-.22-.5-.5s.22-.5.5-.5H7V.5c0-.28-.22-.5-.5-.5H6v3L5 2 4 3V0H1z"/></svg><view id="bookmark" viewBox="272 0 8 8"/><svg width="8" height="8" viewBox="0 0 8 8" id="bookmark-" x="272" xmlns="http://www.w3.org/2000/svg"><path d="M2 0v8l2-2 2 2V0H2z"/></svg><view id="box" viewBox="280 0 8 8"/><svg width="8" height="8" viewBox="0 0 8 8" id="box-" x="280" xmlns="http://www.w3.org/2000/svg"><path d="M0 0v1h8V0H0zm0 2v5.91c0 .05.04.09.09.09H7.9c.05 0 .09-.04.09-.09V2H5.02v1.03H2.99V2h-3z"/></svg><view id="briefcase" viewBox="288 0 8 8"/><svg width="8" height="8" viewBox="0 0 8 8" id="briefcase-" x="288" xmlns="http://www.w3.org/2000/svg"><path d="M3 0c-.55 0-1 .45-1 1v1H.09C.03 2 0 2.04 0 2.09V4.5c0 .28.22.5.5.5h7c.28 0 .5-.22.5-.5V2.09C8 2.03 7.96 2 7.91 2H6V1c0-.55-.45-1-1-1H3zm0 1h2v1H3V1zM0 5.91v2c0 .05.04.09.09.09H7.9c.05 0 .09-.04.09-.09v-2c-.16.06-.32.09-.5.09h-7c-.18 0-.34-.04-.5-.09z"/></svg><view id="british-pound" viewBox="296 0 8 8"/><svg width="8" height="8" viewBox="0 0 8 8" id="british-pound-" x="296" xmlns="http://www.w3.org/2000/svg"><path d="M4 0c-.62 0-1.16.26-1.5.69-.34.43-.5.99-.5 1.56 0 .69.16 1.25.25 1.75H1v1h1.22c-.11.45-.37.96-1.06 1.66L1 6.79v1.22h6v-1H2.09c.64-.73.98-1.4 1.13-2H5v-1H3.28C3.2 3.33 3 2.77 3 2.26c0-.39.11-.73.28-.94.17-.21.37-.31.72-.31.39 0 .61.11.75.25s.25.36.25.75h1c0-.58-.17-1.1-.53-1.47C5.1.17 4.58.01 4 .01z"/></svg><view id="bclearfixser" viewBox="304 0 8 8"/><svg width="8" height="8" viewBox="0 0 8 8" id="bclearfixser-" x="304" xmlns="http://www.w3.org/2000/svg"><path d="M.34 0A.5.5 0 0 0 0 .5v7a.5.5 0 0 0 .5.5h7a.5.5 0 0 0 .5-.5v-7a.5.5 0 0 0-.5-.5h-7a.5.5 0 0 0-.09 0 .5.5 0 0 0-.06 0zM1.5 1c.28 0 .5.22.5.5s-.22.5-.5.5-.5-.22-.5-.5.22-.5.5-.5zm2 0h3c.28 0 .5.22.5.5s-.22.5-.5.5h-3c-.28 0-.5-.22-.5-.5s.22-.5.5-.5zM1 3h6v4H1V3z"/></svg><view id="brush" viewBox="312 0 8 8"/><svg width="8" height="8" viewBox="0 0 8 8" id="brush-" x="312" xmlns="http://www.w3.org/2000/svg"><path d="M7.44.03c-.03 0-.04.02-.06.03L3.63 2.72c-.04.03-.1.11-.13.16l-.13.25c.72.23 1.27.78 1.5 1.5l.25-.13c.05-.03.12-.08.16-.13L7.94.62c.03-.05.04-.09 0-.13L7.5.05C7.48.03 7.46.02 7.44.02zM2.66 4c-.74 0-1.31.61-1.31 1.34 0 .99-.55 1.85-1.34 2.31.39.22.86.34 1.34.34 1.47 0 2.66-1.18 2.66-2.66 0-.74-.61-1.34-1.34-1.34z"/></svg><view id="bug" viewBox="320 0 8 8"/><svg width="8" height="8" viewBox="0 0 8 8" id="bug-" x="320" xmlns="http://www.w3.org/2000/svg"><path d="M3.5 0C2.31 0 1.52 1.69 2.31 2.5c-.09.07-.2.14-.28.22L.72 2.06A.5.5 0 0 0 .38 2a.5.5 0 0 0-.09.94l1.16.56c-.09.16-.19.33-.25.5H.51a.5.5 0 0 0-.09 0 .5.5 0 1 0 .09 1h.5c0 .23.02.45.06.66l-.78.41a.5.5 0 1 0 .44.88l.66-.34c.25.46.62.85 1.03 1.09.35-.19.59-.44.59-.72V5.54a.5.5 0 0 0 0-.09v-.81a.5.5 0 0 0 0-.22c.05-.23.26-.41.5-.41.28 0 .5.22.5.5v.88a.5.5 0 0 0 0 .09v.06a.5.5 0 0 0 0 .09v1.34c0 .27.24.53.59.72.41-.25.79-.63 1.03-1.09l.66.34a.5.5 0 1 0 .44-.88l-.78-.41c.04-.21.06-.43.06-.66h.5a.5.5 0 1 0 0-1h-.69c-.06-.17-.16-.34-.25-.5l1.16-.56a.5.5 0 0 0-.31-.94.5.5 0 0 0-.13.06l-1.31.66c-.09-.08-.19-.15-.28-.22.78-.83 0-2.5-1.19-2.5z"/></svg><view id="bullhorn" viewBox="328 0 8 8"/><svg width="8" height="8" viewBox="0 0 8 8" id="bullhorn-" x="328" xmlns="http://www.w3.org/2000/svg"><path d="M6 0v6c.03.01.07 0 .09 0h.81c.05 0 .09-.04.09-.09V.1c0-.06-.04-.09-.09-.09h-.91zM5 .5L2.09 1.97c-.05.02-.13.03-.19.03H.09C.03 2 0 2.04 0 2.09V3.9c0 .06.04.09.09.09H1l1.03 2.72c.11.25.44.36.69.25.25-.11.36-.44.25-.69l-.75-1.78c.03-.14.13-.22.28-.22v-.03L5 5.49v-5z"/></svg><view id="calculator" viewBox="336 0 8 8"/><svg width="8" height="8" viewBox="0 0 8 8" id="calculator-" x="336" xmlns="http://www.w3.org/2000/svg"><path d="M.09 0C.03 0 0 .04 0 .09V7.9c0 .05.04.09.09.09H6.9c.05 0 .09-.04.09-.09V.09C6.99.03 6.95 0 6.9 0H.09zM1 1h5v2H1V1zm0 3h1v1H1V4zm2 0h1v1H3V4zm2 0h1v3H5V4zM1 6h1v1H1V6zm2 0h1v1H3V6z"/></svg><view id="calendar" viewBox="344 0 8 8"/><svg width="8" height="8" viewBox="0 0 8 8" id="calendar-" x="344" xmlns="http://www.w3.org/2000/svg"><path d="M0 0v2h7V0H0zm0 3v4.91c0 .05.04.09.09.09H6.9c.05 0 .09-.04.09-.09V3h-7zm1 1h1v1H1V4zm2 0h1v1H3V4zm2 0h1v1H5V4zM1 6h1v1H1V6zm2 0h1v1H3V6z"/></svg><view id="camera-slr" viewBox="352 0 8 8"/><svg width="8" height="8" viewBox="0 0 8 8" id="camera-slr-" x="352" xmlns="http://www.w3.org/2000/svg"><path d="M4.09 0c-.05 0-.1.04-.13.09L3.02 1.9c-.02.05-.07.09-.13.09H1.48c-.83 0-1.5.67-1.5 1.5V7.9c0 .05.04.09.09.09h7.81c.05 0 .09-.04.09-.09V2.09c0-.06-.04-.09-.09-.09h-.81c-.05 0-.1-.04-.13-.09L6 .1C5.97.05 5.93.01 5.87.01H4.06zM1.5 3c.28 0 .5.22.5.5s-.22.5-.5.5-.5-.22-.5-.5.22-.5.5-.5zM5 3c1.1 0 2 .9 2 2s-.9 2-2 2-2-.9-2-2 .9-2 2-2zm0 1c-.55 0-1 .45-1 1s.45 1 1 1 1-.45 1-1-.45-1-1-1z"/></svg><view id="caret-bottom" viewBox="360 0 8 8"/><svg width="8" height="8" viewBox="0 0 8 8" id="caret-bottom-" x="360" xmlns="http://www.w3.org/2000/svg"><path d="M0 2l4 4 4-4H0z"/></svg><view id="caret-left" viewBox="368 0 8 8"/><svg width="8" height="8" viewBox="0 0 8 8" id="caret-left-" x="368" xmlns="http://www.w3.org/2000/svg"><path d="M6 0L2 4l4 4V0z"/></svg><view id="caret-right" viewBox="376 0 8 8"/><svg width="8" height="8" viewBox="0 0 8 8" id="caret-right-" x="376" xmlns="http://www.w3.org/2000/svg"><path d="M2 0v8l4-4-4-4z"/></svg><view id="caret-top" viewBox="384 0 8 8"/><svg width="8" height="8" viewBox="0 0 8 8" id="caret-top-" x="384" xmlns="http://www.w3.org/2000/svg"><path d="M4 2L0 6h8L4 2z"/></svg><view id="cart" viewBox="392 0 8 8"/><svg width="8" height="8" viewBox="0 0 8 8" id="cart-" x="392" xmlns="http://www.w3.org/2000/svg"><path d="M.34 1A.506.506 0 0 0 .5 2H2l.09.25.41 1.25.41 1.25c.04.13.21.25.34.25h3.5c.14 0 .3-.12.34-.25l.81-2.5c.04-.13-.02-.25-.16-.25H3.3l-.38-.72A.5.5 0 0 0 2.48 1h-2a.5.5 0 0 0-.09 0 .5.5 0 0 0-.06 0zM3.5 6c-.28 0-.5.22-.5.5s.22.5.5.5.5-.22.5-.5-.22-.5-.5-.5zm3 0c-.28 0-.5.22-.5.5s.22.5.5.5.5-.22.5-.5-.22-.5-.5-.5z"/></svg><view id="chat" viewBox="400 0 8 8"/><svg width="8" height="8" viewBox="0 0 8 8" id="chat-" x="400" xmlns="http://www.w3.org/2000/svg"><path d="M0 0v5l1-1h1V1h3V0H0zm3 2v4h4l1 1V2H3z"/></svg><view id="check" viewBox="408 0 8 8"/><svg width="8" height="8" viewBox="0 0 8 8" id="check-" x="408" xmlns="http://www.w3.org/2000/svg"><path d="M6.41 1l-.69.72L2.94 4.5l-.81-.78L1.41 3 0 4.41l.72.72 1.5 1.5.69.72.72-.72 3.5-3.5.72-.72L6.41 1z"/></svg><view id="chevron-bottom" viewBox="416 0 8 8"/><svg width="8" height="8" viewBox="0 0 8 8" id="chevron-bottom-" x="416" xmlns="http://www.w3.org/2000/svg"><path d="M1.5 1L0 2.5l4 4 4-4L6.5 1 4 3.5 1.5 1z"/></svg><view id="chevron-left" viewBox="424 0 8 8"/><svg width="8" height="8" viewBox="0 0 8 8" id="chevron-left-" x="424" xmlns="http://www.w3.org/2000/svg"><path d="M5 0L1 4l4 4 1.5-1.5L4 4l2.5-2.5L5 0z"/></svg><view id="chevron-right" viewBox="432 0 8 8"/><svg width="8" height="8" viewBox="0 0 8 8" id="chevron-right-" x="432" xmlns="http://www.w3.org/2000/svg"><path d="M2.5 0L1 1.5 3.5 4 1 6.5 2.5 8l4-4-4-4z"/></svg><view id="chevron-top" viewBox="440 0 8 8"/><svg width="8" height="8" viewBox="0 0 8 8" id="chevron-top-" x="440" xmlns="http://www.w3.org/2000/svg"><path d="M4 1L0 5l1.5 1.5L4 4l2.5 2.5L8 5 4 1z"/></svg><view id="circle-check" viewBox="448 0 8 8"/><svg width="8" height="8" viewBox="0 0 8 8" id="circle-check-" x="448" xmlns="http://www.w3.org/2000/svg"><path d="M4 0C1.79 0 0 1.79 0 4s1.79 4 4 4 4-1.79 4-4-1.79-4-4-4zm2 1.78l.72.72L3.5 5.72 1.78 4l.72-.72 1 1L6 1.78z"/></svg><view id="circle-x" viewBox="456 0 8 8"/><svg width="8" height="8" viewBox="0 0 8 8" id="circle-x-" x="456" xmlns="http://www.w3.org/2000/svg"><path d="M4 0C1.79 0 0 1.79 0 4s1.79 4 4 4 4-1.79 4-4-1.79-4-4-4zM2.5 1.78L4 3.28l1.5-1.5.72.72L4.72 4l1.5 1.5-.72.72L4 4.72l-1.5 1.5-.72-.72L3.28 4l-1.5-1.5.72-.72z"/></svg><view id="clipboard" viewBox="464 0 8 8"/><svg width="8" height="8" viewBox="0 0 8 8" id="clipboard-" x="464" xmlns="http://www.w3.org/2000/svg"><path d="M3.5 0c-.28 0-.5.22-.5.5V1h-.75c-.14 0-.25.11-.25.25V2h3v-.75C5 1.11 4.89 1 4.75 1H4V.5c0-.28-.22-.5-.5-.5zM.25 1C.11 1 0 1.11 0 1.25v6.5c0 .14.11.25.25.25h6.5c.14 0 .25-.11.25-.25v-6.5C7 1.11 6.89 1 6.75 1H6v2H1V1H.25z"/></svg><view id="clock" viewBox="472 0 8 8"/><svg width="8" height="8" viewBox="0 0 8 8" id="clock-" x="472" xmlns="http://www.w3.org/2000/svg"><path d="M4 0C1.8 0 0 1.8 0 4s1.8 4 4 4 4-1.8 4-4-1.8-4-4-4zm0 1c1.66 0 3 1.34 3 3S5.66 7 4 7 1 5.66 1 4s1.34-3 3-3zm-.5 1v2.22l.16.13.5.5.34.38.72-.72-.38-.34-.34-.34V2.02h-1z"/></svg><view id="cloud" viewBox="480 0 8 8"/><svg width="8" height="8" viewBox="0 0 8 8" id="cloud-" x="480" xmlns="http://www.w3.org/2000/svg"><path d="M4.5 1C3.29 1 2.23 1.86 2 3 .9 3 0 3.9 0 5s.9 2 2 2h4.5C7.33 7 8 6.33 8 5.5c0-.65-.42-1.29-1-1.5v-.5A2.5 2.5 0 0 0 4.5 1z"/></svg><view id="cloud-download" viewBox="488 0 8 8"/><svg width="8" height="8" viewBox="0 0 8 8" id="cloud-download-" x="488" xmlns="http://www.w3.org/2000/svg"><path d="M4.5 0C3.29 0 2.23.86 2 2 .9 2 0 2.9 0 4c0 .37.11.71.28 1H3v-.5C3 3.67 3.67 3 4.5 3S6 3.67 6 4.5V5h1.91c.06-.16.09-.32.09-.5 0-.65-.42-1.29-1-1.5v-.5A2.5 2.5 0 0 0 4.5 0zm-.16 4a.5.5 0 0 0-.34.5V6H2.5l2 2 2-2H5V4.5a.5.5 0 0 0-.59-.5.5.5 0 0 0-.06 0z"/></svg><view id="cloud-upload" viewBox="496 0 8 8"/><svg width="8" height="8" viewBox="0 0 8 8" id="cloud-upload-" x="496" xmlns="http://www.w3.org/2000/svg"><path d="M4.5 0C3.29 0 2.23.86 2 2 .9 2 0 2.9 0 4c0 .37.11.71.28 1H2.5l2-2 2 2h1.41c.06-.16.09-.32.09-.5 0-.65-.42-1.29-1-1.5v-.5A2.5 2.5 0 0 0 4.5 0zm0 4.5L2 7h2v.5a.5.5 0 1 0 1 0V7h2L4.5 4.5z"/></svg><view id="cloudy" viewBox="504 0 8 8"/><svg width="8" height="8" viewBox="0 0 8 8" id="cloudy-" x="504" xmlns="http://www.w3.org/2000/svg"><path d="M2.5 0A2.5 2.5 0 0 0 0 2.5c0 .39.09.74.25 1.06.3-.21.64-.37 1-.47C1.8 1.84 3.07 1 4.5 1c-.46-.6-1.18-1-2-1zm2 2C3.29 2 2.23 2.86 2 4 .9 4 0 4.9 0 6s.9 2 2 2h4.5C7.33 8 8 7.33 8 6.5c0-.65-.42-1.29-1-1.5v-.5A2.5 2.5 0 0 0 4.5 2z"/></svg><view id="code" viewBox="512 0 8 8"/><svg width="8" height="8" viewBox="0 0 8 8" id="code-" x="512" xmlns="http://www.w3.org/2000/svg"><path d="M5 1L2 7h1l3-6H5zM1 2L0 4l1 2h1L1 4l1-2H1zm5 0l1 2-1 2h1l1-2-1-2H6z"/></svg><view id="cog" viewBox="520 0 8 8"/><svg width="8" height="8" viewBox="0 0 8 8" id="cog-" x="520" xmlns="http://www.w3.org/2000/svg"><path d="M3.5 0L3 1.19c-.1.03-.19.08-.28.13L1.53.82l-.72.72.5 1.19c-.05.1-.09.18-.13.28l-1.19.5v1l1.19.5c.04.1.08.18.13.28l-.5 1.19.72.72 1.19-.5c.09.04.18.09.28.13l.5 1.19h1L5 6.83c.09-.04.19-.08.28-.13l1.19.5.72-.72-.5-1.19c.04-.09.09-.19.13-.28l1.19-.5v-1l-1.19-.5c-.03-.09-.08-.19-.13-.28l.5-1.19-.72-.72-1.19.5c-.09-.04-.19-.09-.28-.13L4.5 0h-1zM4 2.5c.83 0 1.5.67 1.5 1.5S4.83 5.5 4 5.5 2.5 4.83 2.5 4 3.17 2.5 4 2.5z"/></svg><view id="collapse-down" viewBox="528 0 8 8"/><svg width="8" height="8" viewBox="0 0 8 8" id="collapse-down-" x="528" xmlns="http://www.w3.org/2000/svg"><path d="M0 0v2h8V0H0zm2 3l2 2 2-2H2zM0 7v1h8V7H0z"/></svg><view id="collapse-left" viewBox="536 0 8 8"/><svg width="8" height="8" viewBox="0 0 8 8" id="collapse-left-" x="536" xmlns="http://www.w3.org/2000/svg"><path d="M0 0v8h1V0H0zm6 0v8h2V0H6zM5 2L3 4l2 2V2z"/></svg><view id="collapse-right" viewBox="544 0 8 8"/><svg width="8" height="8" viewBox="0 0 8 8" id="collapse-right-" x="544" xmlns="http://www.w3.org/2000/svg"><path d="M0 0v8h2V0H0zm7 0v8h1V0H7zM3 2v4l2-2-2-2z"/></svg><view id="collapse-up" viewBox="552 0 8 8"/><svg width="8" height="8" viewBox="0 0 8 8" id="collapse-up-" x="552" xmlns="http://www.w3.org/2000/svg"><path d="M0 0v1h8V0H0zm4 3L2 5h4L4 3zM0 6v2h8V6H0z"/></svg><view id="command" viewBox="560 0 8 8"/><svg width="8" height="8" viewBox="0 0 8 8" id="command-" x="560" xmlns="http://www.w3.org/2000/svg"><path d="M1.5 0C.67 0 0 .67 0 1.5S.67 3 1.5 3H2v1h-.5C.67 4 0 4.67 0 5.5S.67 7 1.5 7 3 6.33 3 5.5V5h1v.5C4 6.33 4.67 7 5.5 7S7 6.33 7 5.5 6.33 4 5.5 4H5V3h.5C6.33 3 7 2.33 7 1.5S6.33 0 5.5 0 4 .67 4 1.5V2H3v-.5C3 .67 2.33 0 1.5 0zm0 1c.28 0 .5.22.5.5V2h-.5c-.28 0-.5-.22-.5-.5s.22-.5.5-.5zm4 0c.28 0 .5.22.5.5s-.22.5-.5.5H5v-.5c0-.28.22-.5.5-.5zM3 3h1v1H3V3zM1.5 5H2v.5c0 .28-.22.5-.5.5S1 5.78 1 5.5s.22-.5.5-.5zM5 5h.5c.28 0 .5.22.5.5s-.22.5-.5.5-.5-.22-.5-.5V5z"/></svg><view id="comment-square" viewBox="568 0 8 8"/><svg width="8" height="8" viewBox="0 0 8 8" id="comment-square-" x="568" xmlns="http://www.w3.org/2000/svg"><path d="M.09 0C.03 0 0 .04 0 .09V5.9c0 .05.04.09.09.09H6l2 2V.08c0-.06-.04-.09-.09-.09H.1z"/></svg><view id="compass" viewBox="576 0 8 8"/><svg width="8" height="8" viewBox="0 0 8 8" id="compass-" x="576" xmlns="http://www.w3.org/2000/svg"><path d="M4 0C1.8 0 0 1.8 0 4s1.8 4 4 4 4-1.8 4-4-1.8-4-4-4zm0 1c1.66 0 3 1.34 3 3S5.66 7 4 7 1 5.66 1 4s1.34-3 3-3zm2 1L3 3 2 6l3-1 1-3zM4 3.5c.28 0 .5.22.5.5s-.22.5-.5.5-.5-.22-.5-.5.22-.5.5-.5z"/></svg><view id="contrast" viewBox="584 0 8 8"/><svg width="8" height="8" viewBox="0 0 8 8" id="contrast-" x="584" xmlns="http://www.w3.org/2000/svg"><path d="M4 0C1.8 0 0 1.8 0 4s1.8 4 4 4 4-1.8 4-4-1.8-4-4-4zm0 1c1.66 0 3 1.34 3 3S5.66 7 4 7V1z"/></svg><view id="copywriting" viewBox="592 0 8 8"/><svg width="8" height="8" viewBox="0 0 8 8" id="copywriting-" x="592" xmlns="http://www.w3.org/2000/svg"><path d="M0 0v1h8V0H0zm0 2v1h5V2H0zm0 3v1h8V5H0zm0 2v1h6V7H0zm7.5 0c-.28 0-.5.22-.5.5s.22.5.5.5.5-.22.5-.5-.22-.5-.5-.5z"/></svg><view id="credit-card" viewBox="600 0 8 8"/><svg width="8" height="8" viewBox="0 0 8 8" id="credit-card-" x="600" xmlns="http://www.w3.org/2000/svg"><path d="M.25 1C.11 1 0 1.11 0 1.25V2h8v-.75C8 1.11 7.89 1 7.75 1H.25zM0 3v3.75c0 .14.11.25.25.25h7.5c.14 0 .25-.11.25-.25V3H0zm1 2h1v1H1V5zm2 0h1v1H3V5z"/></svg><view id="crop" viewBox="608 0 8 8"/><svg width="8" height="8" viewBox="0 0 8 8" id="crop-" x="608" xmlns="http://www.w3.org/2000/svg"><path d="M1 0v1H0v1h1v5h5v1h1V7h1V6H7V1.5l1-1-.5-.5-1 1H2V0H1zm1 2h3.5L2 5.5V2zm4 .5V6H2.5L6 2.5z"/></svg><view id="dashboard" viewBox="616 0 8 8"/><svg width="8" height="8" viewBox="0 0 8 8" id="dashboard-" x="616" xmlns="http://www.w3.org/2000/svg"><path d="M4 0C1.8 0 0 1.8 0 4s1.8 4 4 4 4-1.8 4-4-1.8-4-4-4zm0 1c1.66 0 3 1.34 3 3S5.66 7 4 7 1 5.66 1 4s1.34-3 3-3zm0 1c-.28 0-.5.22-.5.5s.22.5.5.5.5-.22.5-.5S4.28 2 4 2zM2.34 3a.5.5 0 0 0-.19.84l.91.91C3.04 4.83 3 4.91 3 5c0 .55.45 1 1 1s1-.45 1-1-.45-1-1-1c-.09 0-.17.04-.25.06l-.91-.91a.5.5 0 0 0-.44-.16.5.5 0 0 0-.06 0zM5.5 3c-.28 0-.5.22-.5.5s.22.5.5.5.5-.22.5-.5-.22-.5-.5-.5z"/></svg><view id="data-transfer-download" viewBox="624 0 8 8"/><svg width="8" height="8" viewBox="0 0 8 8" id="data-transfer-download-" x="624" xmlns="http://www.w3.org/2000/svg"><path d="M3 0v3H1l3 3 3-3H5V0H3zM0 7v1h8V7H0z"/></svg><view id="data-transfer-upload" viewBox="632 0 8 8"/><svg width="8" height="8" viewBox="0 0 8 8" id="data-transfer-upload-" x="632" xmlns="http://www.w3.org/2000/svg"><path d="M0 0v1h8V0H0zm4 2L1 5h2v3h2V5h2L4 2z"/></svg><view id="delete" viewBox="640 0 8 8"/><svg width="8" height="8" viewBox="0 0 8 8" id="delete-" x="640" xmlns="http://www.w3.org/2000/svg"><path d="M2 1L0 4l2 3h6V1H2zm1.5.78L5 3.28l1.5-1.5.72.72L5.72 4l1.5 1.5-.72.72L5 4.72l-1.5 1.5-.72-.72L4.28 4l-1.5-1.5.72-.72z"/></svg><view id="dial" viewBox="648 0 8 8"/><svg width="8" height="8" viewBox="0 0 8 8" id="dial-" x="648" xmlns="http://www.w3.org/2000/svg"><path d="M4 1C1.8 1 0 2.8 0 5h1c0-1.66 1.34-3 3-3s3 1.34 3 3h1c0-2.2-1.8-4-4-4zm-.59 2.09A2 2 0 0 0 4 7c1.11 0 2-.89 2-2 0-.9-.59-1.65-1.41-1.91L4 3.97l-.59-.88z"/></svg><view id="document" viewBox="656 0 8 8"/><svg width="8" height="8" viewBox="0 0 8 8" id="document-" x="656" xmlns="http://www.w3.org/2000/svg"><path d="M0 0v8h7V4H3V0H0zm4 0v3h3L4 0zM1 2h1v1H1V2zm0 2h1v1H1V4zm0 2h4v1H1V6z"/></svg><view id="dollar" viewBox="664 0 8 8"/><svg width="8" height="8" viewBox="0 0 8 8" id="dollar-" x="664" xmlns="http://www.w3.org/2000/svg"><path d="M3 0v1h-.75C1.57 1 1 1.57 1 2.25v.5c0 .68.44 1.24 1.09 1.41l2.56.66c.14.04.34.29.34.44v.5c0 .14-.11.25-.25.25h-2.5a.56.56 0 0 1-.25-.06v-.94h-1v1c0 .34.2.63.44.78.23.16.52.22.81.22h.75v1h1v-1h.75c.69 0 1.25-.56 1.25-1.25v-.5c0-.68-.44-1.24-1.09-1.41l-2.56-.66C2.2 3.15 2 2.9 2 2.75v-.5c0-.14.11-.25.25-.25h2.5c.11 0 .21.04.25.06V3h1V2c0-.34-.2-.63-.44-.78-.23-.16-.52-.22-.81-.22H4V0H3z"/></svg><view id="double-quote-sans-left" viewBox="672 0 8 8"/><svg width="8" height="8" viewBox="0 0 8 8" id="double-quote-sans-left-" x="672" xmlns="http://www.w3.org/2000/svg"><path d="M0 1v6l3-3V1H0zm5 0v6l3-3V1H5z"/></svg><view id="double-quote-sans-right" viewBox="680 0 8 8"/><svg width="8" height="8" viewBox="0 0 8 8" id="double-quote-sans-right-" x="680" xmlns="http://www.w3.org/2000/svg"><path d="M3 1L0 4v3h3V1zm5 0L5 4v3h3V1z"/></svg><view id="double-quote-serif-left" viewBox="688 0 8 8"/><svg width="8" height="8" viewBox="0 0 8 8" id="double-quote-serif-left-" x="688" xmlns="http://www.w3.org/2000/svg"><path d="M3 1C1.35 1 0 2.35 0 4v3h3V4H1c0-1.11.89-2 2-2V1zm5 0C6.35 1 5 2.35 5 4v3h3V4H6c0-1.11.89-2 2-2V1z"/></svg><view id="double-quote-serif-right" viewBox="696 0 8 8"/><svg width="8" height="8" viewBox="0 0 8 8" id="double-quote-serif-right-" x="696" xmlns="http://www.w3.org/2000/svg"><path d="M0 1v3h2c0 1.11-.89 2-2 2v1c1.65 0 3-1.35 3-3V1H0zm5 0v3h2c0 1.11-.89 2-2 2v1c1.65 0 3-1.35 3-3V1H5z"/></svg><view id="droplet" viewBox="704 0 8 8"/><svg width="8" height="8" viewBox="0 0 8 8" id="droplet-" x="704" xmlns="http://www.w3.org/2000/svg"><path d="M4 0l-.34.34C3.55.45 1 3.03 1 5.22c0 1.65 1.35 3 3 3s3-1.35 3-3C7 3.04 4.45.45 4.34.34L4 0zM2.5 4.72c.28 0 .5.22.5.5 0 .55.45 1 1 1 .28 0 .5.22.5.5s-.22.5-.5.5c-1.1 0-2-.9-2-2 0-.28.22-.5.5-.5z"/></svg><view id="eject" viewBox="712 0 8 8"/><svg width="8" height="8" viewBox="0 0 8 8" id="eject-" x="712" xmlns="http://www.w3.org/2000/svg"><path d="M4 0L0 5h8L4 0zM0 6v2h8V6H0z"/></svg><view id="elevator" viewBox="720 0 8 8"/><svg width="8" height="8" viewBox="0 0 8 8" id="elevator-" x="720" xmlns="http://www.w3.org/2000/svg"><path d="M4 0L1 3h6L4 0zM1 5l3 3 3-3H1z"/></svg><view id="ellipses" viewBox="728 0 8 8"/><svg width="8" height="8" viewBox="0 0 8 8" id="ellipses-" x="728" xmlns="http://www.w3.org/2000/svg"><path d="M0 3v2h2V3H0zm3 0v2h2V3H3zm3 0v2h2V3H6z"/></svg><view id="envelope-closed" viewBox="736 0 8 8"/><svg width="8" height="8" viewBox="0 0 8 8" id="envelope-closed-" x="736" xmlns="http://www.w3.org/2000/svg"><path d="M0 1v1l4 2 4-2V1H0zm0 2v4h8V3L4 5 0 3z"/></svg><view id="envelope-open" viewBox="744 0 8 8"/><svg width="8" height="8" viewBox="0 0 8 8" id="envelope-open-" x="744" xmlns="http://www.w3.org/2000/svg"><path d="M4 0L0 2v6h8V2L4 0zm0 1.13l3 1.5v1.88l-3 1.5-3-1.5V2.63l3-1.5zM2 3.01v1l2 1 2-1v-1H2z"/></svg><view id="euro" viewBox="752 0 8 8"/><svg width="8" height="8" viewBox="0 0 8 8" id="euro-" x="752" xmlns="http://www.w3.org/2000/svg"><path d="M5 0C3.14 0 1.6 1.28 1.16 3H-.75L-1 4h2.01c0 .35.07.68.16 1H-.8l-.19 1h2.56c.7 1.19 1.97 2 3.44 2 .73 0 1.41-.21 2-.56V6.22c-.53.48-1.22.78-2 .78-.89 0-1.67-.39-2.22-1h2.22l.16-1H2.2a3.01 3.01 0 0 1-.19-1h3.34l.16-1H2.2a2.988 2.988 0 0 1 4.56-1.44L6.92.5C6.35.19 5.71 0 5.01 0z"/></svg><view id="excerpt" viewBox="760 0 8 8"/><svg width="8" height="8" viewBox="0 0 8 8" id="excerpt-" x="760" xmlns="http://www.w3.org/2000/svg"><path d="M0 0v1h7V0H0zm0 2v1h5V2H0zm0 2v1h8V4H0zm0 2v1h1V6H0zm2 0v1h1V6H2zm2 0v1h1V6H4z"/></svg><view id="expand-down" viewBox="768 0 8 8"/><svg width="8" height="8" viewBox="0 0 8 8" id="expand-down-" x="768" xmlns="http://www.w3.org/2000/svg"><path d="M0 0v1h8V0H0zm2 2l2 2 2-2H2zM0 6v2h8V6H0z"/></svg><view id="expand-left" viewBox="776 0 8 8"/><svg width="8" height="8" viewBox="0 0 8 8" id="expand-left-" x="776" xmlns="http://www.w3.org/2000/svg"><path d="M0 0v8h1V0H0zm6 0v8h2V0H6zM2 2v4l2-2-2-2z"/></svg><view id="expand-right" viewBox="784 0 8 8"/><svg width="8" height="8" viewBox="0 0 8 8" id="expand-right-" x="784" xmlns="http://www.w3.org/2000/svg"><path d="M0 0v8h2V0H0zm7 0v8h1V0H7zM6 2L4 4l2 2V2z"/></svg><view id="expand-up" viewBox="792 0 8 8"/><svg width="8" height="8" viewBox="0 0 8 8" id="expand-up-" x="792" xmlns="http://www.w3.org/2000/svg"><path d="M0 0v2h8V0H0zm4 4L2 6h4L4 4zM0 7v1h8V7H0z"/></svg><view id="external-link" viewBox="800 0 8 8"/><svg width="8" height="8" viewBox="0 0 8 8" id="external-link-" x="800" xmlns="http://www.w3.org/2000/svg"><path d="M0 0v8h8V6H7v1H1V1h1V0H0zm4 0l1.5 1.5L3 4l1 1 2.5-2.5L8 4V0H4z"/></svg><view id="eye" viewBox="808 0 8 8"/><svg width="8" height="8" viewBox="0 0 8 8" id="eye-" x="808" xmlns="http://www.w3.org/2000/svg"><path d="M4.03 1C1.5 1 0 4 0 4s1.5 3 4.03 3C6.5 7 8 4 8 4S6.5 1 4.03 1zM4 2a2 2 0 0 1 2 2c0 1.11-.89 2-2 2a2 2 0 1 1 0-4zm0 1c-.55 0-1 .45-1 1s.45 1 1 1 1-.45 1-1c0-.1-.04-.19-.06-.28a.495.495 0 1 1-.66-.66A.875.875 0 0 0 4 3z"/></svg><view id="eyedropper" viewBox="816 0 8 8"/><svg width="8" height="8" viewBox="0 0 8 8" id="eyedropper-" x="816" xmlns="http://www.w3.org/2000/svg"><path d="M3.31 0a.5.5 0 0 0-.19.84l.63.63L.16 5.13 0 5.29v2.72h2.69l.16-.16 3.66-3.66.63.66a.5.5 0 1 0 .72-.69l-.94-.94.66-.66c.59-.58.59-1.54 0-2.13-.57-.57-1.56-.57-2.13 0l-.66.66-.94-.94a.5.5 0 0 0-.47-.16.5.5 0 0 0-.06 0zm1.16 2.19L5.78 3.5 2.62 6.66 1.34 5.35l3.13-3.16z"/></svg><view id="file" viewBox="824 0 8 8"/><svg width="8" height="8" viewBox="0 0 8 8" id="file-" x="824" xmlns="http://www.w3.org/2000/svg"><path d="M0 0v8h7V4H3V0H0zm4 0v3h3L4 0z"/></svg><view id="fire" viewBox="832 0 8 8"/><svg width="8" height="8" viewBox="0 0 8 8" id="fire-" x="832" xmlns="http://www.w3.org/2000/svg"><path d="M2 0c1 2-2 3-2 5s2 3 2 3c-.98-1.98 2-3 2-5S2 0 2 0zm3 3c1 2-2 3-2 5h3c.4 0 1-.5 1-2 0-2-2-3-2-3z"/></svg><view id="flag" viewBox="840 0 8 8"/><svg width="8" height="8" viewBox="0 0 8 8" id="flag-" x="840" xmlns="http://www.w3.org/2000/svg"><path d="M0 0v8h1V0H0zm2 0v4h2v1h4L6 3.03 8 1H5V0H2z"/></svg><view id="flash" viewBox="848 0 8 8"/><svg width="8" height="8" viewBox="0 0 8 8" id="flash-" x="848" xmlns="http://www.w3.org/2000/svg"><path d="M3.5 0L2 3h2l-.66 2H2l1 3 3-3H4.5L6 2H4l1-2H3.5z"/></svg><view id="folder" viewBox="856 0 8 8"/><svg width="8" height="8" viewBox="0 0 8 8" id="folder-" x="856" xmlns="http://www.w3.org/2000/svg"><path d="M0 0v2h8V1H3V0H0zm0 3v4.5c0 .28.22.5.5.5h7c.28 0 .5-.22.5-.5V3H0z"/></svg><view id="fork" viewBox="864 0 8 8"/><svg width="8" height="8" viewBox="0 0 8 8" id="fork-" x="864" xmlns="http://www.w3.org/2000/svg"><path d="M1.5 0C.67 0 0 .67 0 1.5c0 .66.41 1.2 1 1.41V5.1c-.59.2-1 .75-1 1.41 0 .83.67 1.5 1.5 1.5S3 7.34 3 6.51c0-.6-.34-1.1-.84-1.34.09-.09.21-.16.34-.16h2c.82 0 1.5-.68 1.5-1.5v-.59c.59-.2 1-.75 1-1.41C7 .68 6.33.01 5.5.01S4 .68 4 1.51c0 .66.41 1.2 1 1.41v.59c0 .28-.22.5-.5.5h-2c-.17 0-.35.04-.5.09V2.91c.59-.2 1-.75 1-1.41C3 .67 2.33 0 1.5 0z"/></svg><view id="fullscreen-enter" viewBox="872 0 8 8"/><svg width="8" height="8" viewBox="0 0 8 8" id="fullscreen-enter-" x="872" xmlns="http://www.w3.org/2000/svg"><path d="M0 0v4l1.5-1.5L3 4l1-1-1.5-1.5L4 0H0zm5 4L4 5l1.5 1.5L4 8h4V4L6.5 5.5 5 4z"/></svg><view id="fullscreen-exit" viewBox="880 0 8 8"/><svg width="8" height="8" viewBox="0 0 8 8" id="fullscreen-exit-" x="880" xmlns="http://www.w3.org/2000/svg"><path d="M1 0L0 1l1.5 1.5L0 4h4V0L2.5 1.5 1 0zm3 4v4l1.5-1.5L7 8l1-1-1.5-1.5L8 4H4z"/></svg><view id="globe" viewBox="888 0 8 8"/><svg width="8" height="8" viewBox="0 0 8 8" id="globe-" x="888" xmlns="http://www.w3.org/2000/svg"><path d="M4 0C1.79 0 0 1.79 0 4s1.79 4 4 4 4-1.79 4-4-1.79-4-4-4zm0 1c.33 0 .64.09.94.19-.21.2-.45.38-.41.56.04.18.69.13.69.5 0 .27-.42.35-.13.66.35.35-.64.98-.66 1.44-.03.83.84.97 1.53.97.42 0 .53.2.5.44-.54.77-1.46 1.25-2.47 1.25-.38 0-.73-.09-1.06-.22.22-.44-.28-1.31-.75-1.59-.23-.23-.72-.14-1-.25-.09-.27-.18-.54-.19-.84.03-.05.08-.09.16-.09.19 0 .45.38.59.34.18-.04-.74-1.31-.31-1.56.2-.12.6.39.47-.16-.12-.51.36-.28.66-.41.26-.11.45-.41.13-.59-.06-.03-.13-.1-.22-.19.45-.27.97-.44 1.53-.44zm2.31 1.09c.18.22.32.46.44.72v.03c-.04.07-.11.11-.22.22-.28.28-.32-.21-.44-.31-.13-.12-.6.02-.66-.13-.07-.18.5-.42.88-.53z"/></svg><view id="graph" viewBox="896 0 8 8"/><svg width="8" height="8" viewBox="0 0 8 8" id="graph-" x="896" xmlns="http://www.w3.org/2000/svg"><path d="M7.03 0L4 3 3 2 0 5.03l1 1L3 4l1 1 4-4-.97-1zM0 7v1h8V7H0z"/></svg><view id="grid-four-up" viewBox="904 0 8 8"/><svg width="8" height="8" viewBox="0 0 8 8" id="grid-four-up-" x="904" xmlns="http://www.w3.org/2000/svg"><path d="M0 0v1h1V0H0zm2 0v1h1V0H2zm2 0v1h1V0H4zm2 0v1h1V0H6zM0 2v1h1V2H0zm2 0v1h1V2H2zm2 0v1h1V2H4zm2 0v1h1V2H6zM0 4v1h1V4H0zm2 0v1h1V4H2zm2 0v1h1V4H4zm2 0v1h1V4H6zM0 6v1h1V6H0zm2 0v1h1V6H2zm2 0v1h1V6H4zm2 0v1h1V6H6z"/></svg><view id="grid-three-up" viewBox="912 0 8 8"/><svg width="8" height="8" viewBox="0 0 8 8" id="grid-three-up-" x="912" xmlns="http://www.w3.org/2000/svg"><path d="M0 0v2h2V0H0zm3 0v2h2V0H3zm3 0v2h2V0H6zM0 3v2h2V3H0zm3 0v2h2V3H3zm3 0v2h2V3H6zM0 6v2h2V6H0zm3 0v2h2V6H3zm3 0v2h2V6H6z"/></svg><view id="grid-two-up" viewBox="920 0 8 8"/><svg width="8" height="8" viewBox="0 0 8 8" id="grid-two-up-" x="920" xmlns="http://www.w3.org/2000/svg"><path d="M0 0v3h3V0H0zm5 0v3h3V0H5zM0 5v3h3V5H0zm5 0v3h3V5H5z"/></svg><view id="hard-drive" viewBox="928 0 8 8"/><svg width="8" height="8" viewBox="0 0 8 8" id="hard-drive-" x="928" xmlns="http://www.w3.org/2000/svg"><path d="M.19 0C.08 0 0 .08 0 .19V3.5c0 .28.22.5.5.5h6c.28 0 .5-.22.5-.5V.19C7 .08 6.92 0 6.81 0H.18zM0 4.91v2.91c0 .11.08.19.19.19h6.63c.11 0 .19-.08.19-.19V4.91c-.16.06-.32.09-.5.09h-6c-.18 0-.34-.04-.5-.09zM5.5 6c.28 0 .5.22.5.5s-.22.5-.5.5-.5-.22-.5-.5.22-.5.5-.5z"/></svg><view id="header" viewBox="936 0 8 8"/><svg width="8" height="8" viewBox="0 0 8 8" id="header-" x="936" xmlns="http://www.w3.org/2000/svg"><path d="M0 0v1h.5c.28 0 .5.22.5.5v4c0 .28-.22.5-.5.5H0v1h3V6h-.5c-.28 0-.5-.22-.5-.5V4h3v1.5c0 .28-.22.5-.5.5H4v1h3V6h-.5c-.28 0-.5-.22-.5-.5v-4c0-.28.22-.5.5-.5H7V0H4v1h.5c.28 0 .5.22.5.5V3H2V1.5c0-.28.22-.5.5-.5H3V0H0z"/></svg><view id="headphones" viewBox="944 0 8 8"/><svg width="8" height="8" viewBox="0 0 8 8" id="headphones-" x="944" xmlns="http://www.w3.org/2000/svg"><path d="M4 0C2.35 0 1 1.35 1 3v1H.5a.5.5 0 0 0-.5.5v2a.5.5 0 0 0 .5.5h1a.5.5 0 0 0 .5-.5V3c0-1.11.89-2 2-2 1.11 0 2 .89 2 2v3.5a.5.5 0 0 0 .5.5h1a.5.5 0 0 0 .5-.5v-2a.5.5 0 0 0-.5-.5H7V3c0-1.65-1.35-3-3-3z"/></svg><view id="heart" viewBox="952 0 8 8"/><svg width="8" height="8" viewBox="0 0 8 8" id="heart-" x="952" xmlns="http://www.w3.org/2000/svg"><path d="M2 1c-.55 0-1.04.23-1.41.59C.23 1.95 0 2.44 0 3c0 .55.23 1.04.59 1.41L4 7.82l3.41-3.41C7.77 4.05 8 3.56 8 3c0-.55-.23-1.04-.59-1.41C7.05 1.23 6.56 1 6 1c-.55 0-1.04.23-1.41.59C4.23 1.95 4 2.44 4 3c0-.55-.23-1.04-.59-1.41C3.05 1.23 2.56 1 2 1z"/></svg><view id="home" viewBox="960 0 8 8"/><svg width="8" height="8" viewBox="0 0 8 8" id="home-" x="960" xmlns="http://www.w3.org/2000/svg"><path d="M4 0L0 3h1v4h2V5h2v2h2V2.97L8 3 4 0z"/></svg><view id="image" viewBox="968 0 8 8"/><svg width="8" height="8" viewBox="0 0 8 8" id="image-" x="968" xmlns="http://www.w3.org/2000/svg"><path d="M0 0v8h8V0H0zm1 1h6v3L6 3 5 4l2 2v1H6L2 3 1 4V1z"/></svg><view id="inbox" viewBox="976 0 8 8"/><svg width="8" height="8" viewBox="0 0 8 8" id="inbox-" x="976" xmlns="http://www.w3.org/2000/svg"><path d="M.19 0C.08 0 0 .08 0 .19v7.63c0 .11.08.19.19.19h7.63c.11 0 .19-.08.19-.19V.19c0-.11-.08-.19-.19-.19H.19zM1 2h6v3H6L5 6H3L2 5H1V2z"/></svg><view id="infinity" viewBox="984 0 8 8"/><svg width="8" height="8" viewBox="0 0 8 8" id="infinity-" x="984" xmlns="http://www.w3.org/2000/svg"><path d="M2 2C.69 2 0 3.01 0 4s.69 2 2 2c.79 0 1.42-.56 2-1.22C4.58 5.44 5.19 6 6 6c1.31 0 2-1.01 2-2s-.69-2-2-2c-.81 0-1.42.56-2 1.22C3.42 2.56 2.79 2 2 2zm0 1c.42 0 .88.47 1.34 1-.46.53-.92 1-1.34 1-.74 0-1-.54-1-1 0-.46.26-1 1-1zm4 0c.74 0 1 .54 1 1 0 .46-.26 1-1 1-.43 0-.89-.47-1.34-1 .46-.53.91-1 1.34-1z"/></svg><view id="info" viewBox="992 0 8 8"/><svg width="8" height="8" viewBox="0 0 8 8" id="info-" x="992" xmlns="http://www.w3.org/2000/svg"><path d="M5 0c-.55 0-1 .45-1 1s.45 1 1 1 1-.45 1-1-.45-1-1-1zM3.5 2.5C2.67 2.5 2 3.17 2 4h1c0-.28.22-.5.5-.5s.5.22.5.5-1 1.64-1 2.5C3 7.36 3.67 8 4.5 8S6 7.33 6 6.5H5c0 .28-.22.5-.5.5S4 6.78 4 6.5C4 6.14 5 4.66 5 4c0-.81-.67-1.5-1.5-1.5z"/></svg><view id="italic" viewBox="1000 0 8 8"/><svg width="8" height="8" viewBox="0 0 8 8" id="italic-" x="1000" xmlns="http://www.w3.org/2000/svg"><path d="M2 0v1h1.63l-.06.13-2 5-.34.88H.01v1h5v-1H3.38l.06-.13 2-5L5.78 1H7V0H2z"/></svg><view id="justify-center" viewBox="1008 0 8 8"/><svg width="8" height="8" viewBox="0 0 8 8" id="justify-center-" x="1008" xmlns="http://www.w3.org/2000/svg"><path d="M0 0v1h8V0H0zm0 2v1h8V2H0zm0 2v1h8V4H0zm1 2v1h6V6H1z"/></svg><view id="justify-left" viewBox="1016 0 8 8"/><svg width="8" height="8" viewBox="0 0 8 8" id="justify-left-" x="1016" xmlns="http://www.w3.org/2000/svg"><path d="M0 0v1h8V0H0zm0 2v1h8V2H0zm0 2v1h8V4H0zm0 2v1h6V6H0z"/></svg><view id="justify-right" viewBox="1024 0 8 8"/><svg width="8" height="8" viewBox="0 0 8 8" id="justify-right-" x="1024" xmlns="http://www.w3.org/2000/svg"><path d="M0 0v1h8V0H0zm0 2v1h8V2H0zm0 2v1h8V4H0zm2 2v1h6V6H2z"/></svg><view id="key" viewBox="1032 0 8 8"/><svg width="8" height="8" viewBox="0 0 8 8" id="key-" x="1032" xmlns="http://www.w3.org/2000/svg"><path d="M5.5 0A2.5 2.5 0 0 0 3 2.5c0 .16 0 .32.03.47L0 6v2h3V6h2V5l.03-.03c.15.03.31.03.47.03a2.5 2.5 0 0 0 0-5zM6 1c.55 0 1 .45 1 1s-.45 1-1 1-1-.45-1-1 .45-1 1-1z"/></svg><view id="laptop" viewBox="1040 0 8 8"/><svg width="8" height="8" viewBox="0 0 8 8" id="laptop-" x="1040" xmlns="http://www.w3.org/2000/svg"><path d="M1.34 1a.5.5 0 0 0-.34.5V5H0v1.5c0 .28.22.5.5.5h7.01c.28 0 .5-.22.5-.5V5h-1V1.5a.5.5 0 0 0-.5-.5h-5a.5.5 0 0 0-.09 0 .5.5 0 0 0-.06 0zM2 2h4v3H5v1H3V5H2V2z"/></svg><view id="layers" viewBox="1048 0 8 8"/><svg width="8" height="8" viewBox="0 0 8 8" id="layers-" x="1048" xmlns="http://www.w3.org/2000/svg"><path d="M0 0v4h4V0H0zm5 2v3H2v1h4V2H5zm2 2v3H4v1h4V4H7z"/></svg><view id="lightbulb" viewBox="1056 0 8 8"/><svg width="8" height="8" viewBox="0 0 8 8" id="lightbulb-" x="1056" xmlns="http://www.w3.org/2000/svg"><path d="M4.41 0a.5.5 0 0 0-.13.06l-3 1.5a.5.5 0 1 0 .44.88l3-1.5A.5.5 0 0 0 4.41 0zm1 1.5a.5.5 0 0 0-.13.06l-4 2a.5.5 0 1 0 .44.88l4-2a.5.5 0 0 0-.31-.94zm0 2a.5.5 0 0 0-.13.06l-3 1.5A.5.5 0 0 0 2.5 6h2a.506.506 0 0 0 .16-1l1.06-.56a.5.5 0 0 0-.31-.94zM2.85 7a.506.506 0 0 0 .16 1h1a.5.5 0 1 0 0-1h-1a.5.5 0 0 0-.09 0 .5.5 0 0 0-.06 0z"/></svg><view id="link-broken" viewBox="1064 0 8 8"/><svg width="8" height="8" viewBox="0 0 8 8" id="link-broken-" x="1064" xmlns="http://www.w3.org/2000/svg"><path d="M2 0v1H1v1h2V0H2zm3.88.03a1.9 1.9 0 0 0-.53.09c-.27.1-.53.25-.75.47l-.44.44a.5.5 0 1 0 .69.69l.44-.44c.11-.11.24-.17.38-.22.35-.12.78-.07 1.06.22.39.39.39 1.04 0 1.44l-1.5 1.5a.5.5 0 1 0 .69.69l1.5-1.5A1.98 1.98 0 0 0 6.45.07C6.27.03 6.07.03 5.89.04zM2.29 2.94a.5.5 0 0 0-.19.16L.6 4.6a1.98 1.98 0 0 0 0 2.81c.56.56 1.36.72 2.06.47.27-.1.53-.25.75-.47l.44-.44a.5.5 0 1 0-.69-.69l-.44.44c-.11.11-.24.17-.38.22-.35.12-.78.07-1.06-.22-.39-.39-.39-1.04 0-1.44l1.5-1.5a.5.5 0 0 0-.44-.84.5.5 0 0 0-.06 0zM5.01 6v2h1V7h1V6h-2z"/></svg><view id="link-intact" viewBox="1072 0 8 8"/><svg width="8" height="8" viewBox="0 0 8 8" id="link-intact-" x="1072" xmlns="http://www.w3.org/2000/svg"><path d="M5.88.03a1.9 1.9 0 0 0-.53.09c-.27.1-.53.25-.75.47a.5.5 0 1 0 .69.69c.11-.11.24-.17.38-.22.35-.12.78-.07 1.06.22.39.39.39 1.04 0 1.44l-1.5 1.5c-.44.44-.8.48-1.06.47-.26-.01-.41-.13-.41-.13a.5.5 0 1 0-.5.88s.34.22.84.25c.5.03 1.2-.16 1.81-.78l1.5-1.5A1.98 1.98 0 0 0 6.44.07C6.26.03 6.06.03 5.88.04zm-2 2.31c-.5-.02-1.19.15-1.78.75L.6 4.59a1.98 1.98 0 0 0 0 2.81c.56.56 1.36.72 2.06.47.27-.1.53-.25.75-.47a.5.5 0 1 0-.69-.69c-.11.11-.24.17-.38.22-.35.12-.78.07-1.06-.22-.39-.39-.39-1.04 0-1.44l1.5-1.5c.4-.4.75-.45 1.03-.44.28.01.47.09.47.09a.5.5 0 1 0 .44-.88s-.34-.2-.84-.22z"/></svg><view id="list" viewBox="1080 0 8 8"/><svg width="8" height="8" viewBox="0 0 8 8" id="list-" x="1080" xmlns="http://www.w3.org/2000/svg"><path d="M.5 0C.22 0 0 .22 0 .5s.22.5.5.5.5-.22.5-.5S.78 0 .5 0zM2 0v1h6V0H2zM.5 2c-.28 0-.5.22-.5.5s.22.5.5.5.5-.22.5-.5S.78 2 .5 2zM2 2v1h6V2H2zM.5 4c-.28 0-.5.22-.5.5s.22.5.5.5.5-.22.5-.5S.78 4 .5 4zM2 4v1h6V4H2zM.5 6c-.28 0-.5.22-.5.5s.22.5.5.5.5-.22.5-.5S.78 6 .5 6zM2 6v1h6V6H2z"/></svg><view id="list-rich" viewBox="1088 0 8 8"/><svg width="8" height="8" viewBox="0 0 8 8" id="list-rich-" x="1088" xmlns="http://www.w3.org/2000/svg"><path d="M0 0v3h3V0H0zm4 0v1h4V0H4zm0 2v1h3V2H4zM0 4v3h3V4H0zm4 0v1h4V4H4zm0 2v1h3V6H4z"/></svg><view id="location" viewBox="1096 0 8 8"/><svg width="8" height="8" viewBox="0 0 8 8" id="location-" x="1096" xmlns="http://www.w3.org/2000/svg"><path d="M8 0L0 4l3 1 1 3 4-8z"/></svg><view id="lock-locked" viewBox="1104 0 8 8"/><svg width="8" height="8" viewBox="0 0 8 8" id="lock-locked-" x="1104" xmlns="http://www.w3.org/2000/svg"><path d="M4 0C2.9 0 2 .9 2 2v1H1v4h6V3H6V2c0-1.1-.9-2-2-2zm0 1c.56 0 1 .44 1 1v1H3V2c0-.56.44-1 1-1z"/></svg><view id="lock-unlocked" viewBox="1112 0 8 8"/><svg width="8" height="8" viewBox="0 0 8 8" id="lock-unlocked-" x="1112" xmlns="http://www.w3.org/2000/svg"><path d="M4 0C2.9 0 2 .9 2 2h1c0-.56.44-1 1-1s1 .44 1 1v2H1v4h6V4H6V2c0-1.1-.9-2-2-2z"/></svg><view id="loop" viewBox="1120 0 8 8"/><svg width="8" height="8" viewBox="0 0 8 8" id="loop-" x="1120" xmlns="http://www.w3.org/2000/svg"><path d="M6 0v1H1c-.55 0-1 .45-1 1v1h1V2h5v1l2-1.5L6 0zM2 4L0 5.5 2 7V6h5c.55 0 1-.45 1-1V4H7v1H2V4z"/></svg><view id="loop-circular" viewBox="1128 0 8 8"/><svg width="8" height="8" viewBox="0 0 8 8" id="loop-circular-" x="1128" xmlns="http://www.w3.org/2000/svg"><path d="M4 1C2.35 1 1 2.35 1 4H0l1.5 2L3 4H2c0-1.11.89-2 2-2V1zm2.5 1L5 4h1c0 1.11-.89 2-2 2v1c1.65 0 3-1.35 3-3h1L6.5 2z"/></svg><view id="loop-square" viewBox="1136 0 8 8"/><svg width="8" height="8" viewBox="0 0 8 8" id="loop-square-" x="1136" xmlns="http://www.w3.org/2000/svg"><path d="M1 0v2h1V1h4v2H5l1.5 2.5L8 3H7V0H1zm.5 2.5L0 5h1v3h6V6H6v1H2V5h1L1.5 2.5z"/></svg><view id="magnifying-glass" viewBox="1144 0 8 8"/><svg width="8" height="8" viewBox="0 0 8 8" id="magnifying-glass-" x="1144" xmlns="http://www.w3.org/2000/svg"><path d="M3.5 0C1.57 0 0 1.57 0 3.5S1.57 7 3.5 7c.59 0 1.17-.14 1.66-.41a1 1 0 0 0 .13.13l1 1a1.02 1.02 0 1 0 1.44-1.44l-1-1a1 1 0 0 0-.16-.13c.27-.49.44-1.06.44-1.66 0-1.93-1.57-3.5-3.5-3.5zm0 1C4.89 1 6 2.11 6 3.5c0 .66-.24 1.27-.66 1.72l-.03.03a1 1 0 0 0-.13.13c-.44.4-1.04.63-1.69.63-1.39 0-2.5-1.11-2.5-2.5s1.11-2.5 2.5-2.5z"/></svg><view id="map" viewBox="1152 0 8 8"/><svg width="8" height="8" viewBox="0 0 8 8" id="map-" x="1152" xmlns="http://www.w3.org/2000/svg"><path d="M0 0v8h8V5.62a.5.5 0 0 0 0-.22V-.01H0zm1 1h6v4H5.5a.5.5 0 0 0-.09 0 .5.5 0 1 0 .09 1H7v1H1V1zm2.5 1C2.67 2 2 2.67 2 3.5 2 4.5 3.5 6 3.5 6S5 4.5 5 3.5C5 2.67 4.33 2 3.5 2zm0 1c.28 0 .5.22.5.5s-.22.5-.5.5-.5-.22-.5-.5.22-.5.5-.5z"/></svg><view id="map-marker" viewBox="1160 0 8 8"/><svg width="8" height="8" viewBox="0 0 8 8" id="map-marker-" x="1160" xmlns="http://www.w3.org/2000/svg"><path d="M4 0C2.34 0 1 1.34 1 3c0 2 3 5 3 5s3-3 3-5c0-1.66-1.34-3-3-3zm0 1a2 2 0 0 1 2 2c0 1.11-.89 2-2 2a2 2 0 1 1 0-4z"/></svg><view id="media-pause" viewBox="1168 0 8 8"/><svg width="8" height="8" viewBox="0 0 8 8" id="media-pause-" x="1168" xmlns="http://www.w3.org/2000/svg"><path d="M1 1v6h2V1H1zm4 0v6h2V1H5z"/></svg><view id="media-play" viewBox="1176 0 8 8"/><svg width="8" height="8" viewBox="0 0 8 8" id="media-play-" x="1176" xmlns="http://www.w3.org/2000/svg"><path d="M1 1v6l6-3-6-3z"/></svg><view id="media-record" viewBox="1184 0 8 8"/><svg width="8" height="8" viewBox="0 0 8 8" id="media-record-" x="1184" xmlns="http://www.w3.org/2000/svg"><path d="M4 1C2.34 1 1 2.34 1 4s1.34 3 3 3 3-1.34 3-3-1.34-3-3-3z"/></svg><view id="media-skip-backward" viewBox="1192 0 8 8"/><svg width="8" height="8" viewBox="0 0 8 8" id="media-skip-backward-" x="1192" xmlns="http://www.w3.org/2000/svg"><path d="M4 1L0 4l4 3V1zm0 3l4 3V1L4 4z"/></svg><view id="media-skip-forward" viewBox="1200 0 8 8"/><svg width="8" height="8" viewBox="0 0 8 8" id="media-skip-forward-" x="1200" xmlns="http://www.w3.org/2000/svg"><path d="M0 1v6l4-3-4-3zm4 3v3l4-3-4-3v3z"/></svg><view id="media-step-backward" viewBox="1208 0 8 8"/><svg width="8" height="8" viewBox="0 0 8 8" id="media-step-backward-" x="1208" xmlns="http://www.w3.org/2000/svg"><path d="M0 1v6h2V1H0zm2 3l5 3V1L2 4z"/></svg><view id="media-step-forward" viewBox="1216 0 8 8"/><svg width="8" height="8" viewBox="0 0 8 8" id="media-step-forward-" x="1216" xmlns="http://www.w3.org/2000/svg"><path d="M0 1v6l5-3-5-3zm5 3v3h2V1H5v3z"/></svg><view id="media-stop" viewBox="1224 0 8 8"/><svg width="8" height="8" viewBox="0 0 8 8" id="media-stop-" x="1224" xmlns="http://www.w3.org/2000/svg"><path d="M1 1v6h6V1H1z"/></svg><view id="medical-cross" viewBox="1232 0 8 8"/><svg width="8" height="8" viewBox="0 0 8 8" id="medical-cross-" x="1232" xmlns="http://www.w3.org/2000/svg"><path d="M2 0v2H0v4h2v2h4V6h2V2H6V0H2z"/></svg><view id="menu" viewBox="1240 0 8 8"/><svg width="8" height="8" viewBox="0 0 8 8" id="menu-" x="1240" xmlns="http://www.w3.org/2000/svg"><path d="M0 1v1h8V1H0zm0 2.97v1h8v-1H0zm0 3v1h8v-1H0z"/></svg><view id="microphone" viewBox="1248 0 8 8"/><svg width="8" height="8" viewBox="0 0 8 8" id="microphone-" x="1248" xmlns="http://www.w3.org/2000/svg"><path d="M3.91-.03a1 1 0 0 0-.13.03A1 1 0 0 0 3 1v2a1 1 0 1 0 2 0V1A1 1 0 0 0 3.91-.03zM1.35 2a.5.5 0 0 0-.34.5V3c0 1.48 1.09 2.69 2.5 2.94V7h-.5c-.55 0-1 .45-1 1h4.01c0-.55-.45-1-1-1h-.5V5.94C5.93 5.7 7.02 4.48 7.02 3v-.5a.5.5 0 1 0-1 0V3c0 1.11-.89 2-2 2-1.11 0-2-.89-2-2v-.5a.5.5 0 0 0-.59-.5.5.5 0 0 0-.06 0z"/></svg><view id="minus" viewBox="1256 0 8 8"/><svg width="8" height="8" viewBox="0 0 8 8" id="minus-" x="1256" xmlns="http://www.w3.org/2000/svg"><path d="M0 3v2h8V3H0z"/></svg><view id="monitor" viewBox="1264 0 8 8"/><svg width="8" height="8" viewBox="0 0 8 8" id="monitor-" x="1264" xmlns="http://www.w3.org/2000/svg"><path d="M.34 0A.5.5 0 0 0 0 .5v5a.5.5 0 0 0 .5.5H3v1H2c-.55 0-1 .45-1 1h6c0-.55-.45-1-1-1H5V6h2.5a.5.5 0 0 0 .5-.5v-5a.5.5 0 0 0-.5-.5h-7a.5.5 0 0 0-.09 0 .5.5 0 0 0-.06 0zM1 1h6v4H1V1z"/></svg><view id="moon" viewBox="1272 0 8 8"/><svg width="8" height="8" viewBox="0 0 8 8" id="moon-" x="1272" xmlns="http://www.w3.org/2000/svg"><path d="M2.72 0A3.988 3.988 0 0 0 0 3.78c0 2.21 1.79 4 4 4 1.76 0 3.25-1.14 3.78-2.72-.4.13-.83.22-1.28.22-2.21 0-4-1.79-4-4 0-.45.08-.88.22-1.28z"/></svg><view id="move" viewBox="1280 0 8 8"/><svg width="8" height="8" viewBox="0 0 8 8" id="move-" x="1280" xmlns="http://www.w3.org/2000/svg"><path d="M3.5 0L2 1.5h1V3H1.5V2L0 3.5 1.5 5V4H3v1.5H2L3.5 7 5 5.5H4V4h1.5v1L7 3.5 5.5 2v1H4V1.5h1L3.5 0z"/></svg><view id="musical-note" viewBox="1288 0 8 8"/><svg width="8" height="8" viewBox="0 0 8 8" id="musical-note-" x="1288" xmlns="http://www.w3.org/2000/svg"><path d="M8 0C3 0 2 1 2 1v4.09A1.64 1.64 0 0 0 1.5 5C.67 5 0 5.67 0 6.5S.67 8 1.5 8 3 7.33 3 6.5V2.53c.73-.23 1.99-.44 4-.5v2.06A1.64 1.64 0 0 0 6.5 4C5.67 4 5 4.67 5 5.5S5.67 7 6.5 7 8 6.33 8 5.5V0z"/></svg><view id="paperclip" viewBox="1296 0 8 8"/><svg width="8" height="8" viewBox="0 0 8 8" id="paperclip-" x="1296" xmlns="http://www.w3.org/2000/svg"><path d="M5 0c-.51 0-1.02.21-1.41.59L.81 3.31a2.746 2.746 0 0 0 0 3.88 2.746 2.746 0 0 0 3.88 0l1.25-1.25-.69-.69-1.16 1.13-.09.13c-.69.69-1.81.69-2.5 0-.68-.68-.66-1.78 0-2.47l2.78-2.75c.39-.39 1.04-.39 1.44 0 .39.39.37 1.01 0 1.41l-2.5 2.47c-.1.1-.27.1-.38 0-.1-.1-.1-.27 0-.38l.06-.03.91-.94-.69-.69-.97.97c-.48.48-.48 1.27 0 1.75s1.27.49 1.75 0l2.5-2.44c.78-.78.78-2.04 0-2.81C6.01.21 5.51.01 4.99.01z"/></svg><view id="pencil" viewBox="1304 0 8 8"/><svg width="8" height="8" viewBox="0 0 8 8" id="pencil-" x="1304" xmlns="http://www.w3.org/2000/svg"><path d="M6 0L5 1l2 2 1-1-2-2zM4 2L0 6v2h2l4-4-2-2z"/></svg><view id="people" viewBox="1312 0 8 8"/><svg width="8" height="8" viewBox="0 0 8 8" id="people-" x="1312" xmlns="http://www.w3.org/2000/svg"><path d="M5.5 0c-.51 0-.95.35-1.22.88.45.54.72 1.28.72 2.13 0 .29-.03.55-.09.81.19.11.38.19.59.19.83 0 1.5-.9 1.5-2s-.67-2-1.5-2zm-3 1C1.67 1 1 1.9 1 3s.67 2 1.5 2S4 4.1 4 3s-.67-2-1.5-2zm4.75 3.16c-.43.51-1.02.82-1.69.84.27.38.44.84.44 1.34V7h2V5.34c0-.52-.31-.97-.75-1.19zm-6.5 1C.31 5.38 0 5.83 0 6.35v1.66h5V6.35c0-.52-.31-.97-.75-1.19C3.8 5.69 3.19 6 2.5 6S1.2 5.68.75 5.16z"/></svg><view id="person" viewBox="1320 0 8 8"/><svg width="8" height="8" viewBox="0 0 8 8" id="person-" x="1320" xmlns="http://www.w3.org/2000/svg"><path d="M4 0C2.9 0 2 1.12 2 2.5S2.9 5 4 5s2-1.12 2-2.5S5.1 0 4 0zM1.91 5C.85 5.05 0 5.92 0 7v1h8V7c0-1.08-.84-1.95-1.91-2-.54.61-1.28 1-2.09 1-.81 0-1.55-.39-2.09-1z"/></svg><view id="phone" viewBox="1328 0 8 8"/><svg width="8" height="8" viewBox="0 0 8 8" id="phone-" x="1328" xmlns="http://www.w3.org/2000/svg"><path d="M1.19 0C1.08 0 1 .08 1 .19v7.63c0 .11.08.19.19.19h4.63c.11 0 .19-.08.19-.19V.19c0-.11-.08-.19-.19-.19H1.19zM2 1h3v5H2V1zm1.5 5.5c.28 0 .5.22.5.5s-.22.5-.5.5S3 7.28 3 7s.22-.5.5-.5z"/></svg><view id="pie-chart" viewBox="1336 0 8 8"/><svg width="8" height="8" viewBox="0 0 8 8" id="pie-chart-" x="1336" xmlns="http://www.w3.org/2000/svg"><path d="M3.5 0c-.97 0-1.84.4-2.47 1.03L4 4V.03A4.07 4.07 0 0 0 3.5 0zM5 1.06v3.41L2.28 7.19c.61.5 1.37.81 2.22.81C6.43 8 8 6.43 8 4.5c0-1.76-1.31-3.19-3-3.44zM.91 2.37C.35 2.91 0 3.66 0 4.5c0 .96.46 1.79 1.16 2.34l2.13-2.13L.91 2.37z"/></svg><view id="pin" viewBox="1344 0 8 8"/><svg width="8" height="8" viewBox="0 0 8 8" id="pin-" x="1344" xmlns="http://www.w3.org/2000/svg"><path d="M1.34 0a.5.5 0 0 0 .16 1H2v2H1c-.55 0-1 .45-1 1h3v3l.44 1L4 7V4h3c0-.55-.45-1-1-1H5V1h.5a.5.5 0 1 0 0-1h-4a.5.5 0 0 0-.09 0 .5.5 0 0 0-.06 0z"/></svg><view id="play-circle" viewBox="1352 0 8 8"/><svg width="8" height="8" viewBox="0 0 8 8" id="play-circle-" x="1352" xmlns="http://www.w3.org/2000/svg"><path d="M4 0C1.79 0 0 1.79 0 4s1.79 4 4 4 4-1.79 4-4-1.79-4-4-4zM3 2l3 2-3 2V2z"/></svg><view id="plus" viewBox="1360 0 8 8"/><svg width="8" height="8" viewBox="0 0 8 8" id="plus-" x="1360" xmlns="http://www.w3.org/2000/svg"><path d="M3 0v3H0v2h3v3h2V5h3V3H5V0H3z"/></svg><view id="power-standby" viewBox="1368 0 8 8"/><svg width="8" height="8" viewBox="0 0 8 8" id="power-standby-" x="1368" xmlns="http://www.w3.org/2000/svg"><path d="M3 0v4h1V0H3zM1.72 1.44l-.38.31C.53 2.39 0 3.39 0 4.5 0 6.43 1.57 8 3.5 8S7 6.43 7 4.5c0-1.11-.53-2.11-1.34-2.75l-.38-.31-.63.78.38.31C5.61 2.99 6 3.7 6 4.5 6 5.89 4.89 7 3.5 7S1 5.89 1 4.5c0-.8.36-1.51.94-1.97l.41-.31-.63-.78z"/></svg><view id="print" viewBox="1376 0 8 8"/><svg width="8" height="8" viewBox="0 0 8 8" id="print-" x="1376" xmlns="http://www.w3.org/2000/svg"><path d="M2 0v2h4V0H2zM.09 3C.03 3 0 3.04 0 3.09V5.9c0 .05.04.09.09.09H1v-2h6v2h.91c.05 0 .09-.04.09-.09V3.09C8 3.03 7.96 3 7.91 3H.1zM2 5v3h4V5H2z"/></svg><view id="project" viewBox="1384 0 8 8"/><svg width="8" height="8" viewBox="0 0 8 8" id="project-" x="1384" xmlns="http://www.w3.org/2000/svg"><path d="M0 0v7h1V0H0zm7 0v7h1V0H7zM2 1v1h2V1H2zm1 2v1h2V3H3zm1 2v1h2V5H4z"/></svg><view id="pulse" viewBox="1392 0 8 8"/><svg width="8" height="8" viewBox="0 0 8 8" id="pulse-" x="1392" xmlns="http://www.w3.org/2000/svg"><path d="M3.25 0l-.47 1.53L2 4.09l-.03-.06-.09-.34H0v1h1.16l.38 1.16.47 1.47.47-1.5.78-2.5.78 2.5.41 1.34.53-1.28.59-1.47.13.28h2.31v-1H6.32l-.38-.75-.5-.97L5.03 3l-.47 1.19-.84-2.66L3.25 0z"/></svg><view id="puzzle-piece" viewBox="1400 0 8 8"/><svg width="8" height="8" viewBox="0 0 8 8" id="puzzle-piece-" x="1400" xmlns="http://www.w3.org/2000/svg"><path d="M3 0c-.28 0-.54.1-.72.28C2.1.46 2 .72 2 1c0 .28.18.48.28.72.03.06.03.16.03.28H0v6h2.31c0-.12-.01-.22-.03-.28C2.18 7.48 2 7.28 2 7c0-.28.1-.54.28-.72C2.46 6.1 2.72 6 3 6c.28 0 .54.1.72.28.18.18.28.44.28.72 0 .28-.18.48-.28.72-.03.06-.03.16-.03.28H6V5.69c.12 0 .22.01.28.03.24.1.44.28.72.28.28 0 .54-.1.72-.28C7.9 5.54 8 5.28 8 5c0-.28-.1-.54-.28-.72C7.54 4.1 7.28 4 7 4c-.28 0-.48.18-.72.28-.06.03-.16.03-.28.03V2H3.69c0-.12.01-.22.03-.28.1-.24.28-.44.28-.72 0-.28-.1-.54-.28-.72C3.54.1 3.28 0 3 0z"/></svg><view id="question-mark" viewBox="1408 0 8 8"/><svg width="8" height="8" viewBox="0 0 8 8" id="question-mark-" x="1408" xmlns="http://www.w3.org/2000/svg"><path d="M4.47 0c-.85 0-1.48.26-1.88.66-.4.4-.54.9-.59 1.28l1 .13c.04-.25.12-.5.31-.69C3.5 1.19 3.8 1 4.47 1c.66 0 1.02.16 1.22.34.2.18.28.4.28.66 0 .83-.34 1.06-.84 1.5-.5.44-1.16 1.08-1.16 2.25V6h1v-.25c0-.83.31-1.06.81-1.5.5-.44 1.19-1.08 1.19-2.25 0-.48-.17-1.02-.59-1.41C5.95.2 5.31 0 4.47 0zm-.5 7v1h1V7h-1z"/></svg><view id="rain" viewBox="1416 0 8 8"/><svg width="8" height="8" viewBox="0 0 8 8" id="rain-" x="1416" xmlns="http://www.w3.org/2000/svg"><path d="M4.5 0C3.29 0 2.23.86 2 2 .9 2 0 2.9 0 4c0 .53.2.99.53 1.34.26-.22.6-.34.97-.34.2 0 .39.05.56.13C2.23 4.49 2.8 4 3.5 4c.69 0 1.27.49 1.44 1.13.17-.07.36-.13.56-.13.63 0 1.15.39 1.38.94.64-.17 1.13-.75 1.13-1.44 0-.65-.42-1.29-1-1.5v-.5A2.5 2.5 0 0 0 4.51 0zM3.34 5a.5.5 0 0 0-.34.5v2a.5.5 0 1 0 1 0v-2a.5.5 0 0 0-.59-.5.5.5 0 0 0-.06 0zm-2 1a.5.5 0 0 0-.34.5v1a.5.5 0 1 0 1 0v-1a.5.5 0 0 0-.59-.5.5.5 0 0 0-.06 0zm4 0a.5.5 0 0 0-.34.5v1a.5.5 0 1 0 1 0v-1a.5.5 0 0 0-.59-.5.5.5 0 0 0-.06 0z"/></svg><view id="random" viewBox="1424 0 8 8"/><svg width="8" height="8" viewBox="0 0 8 8" id="random-" x="1424" xmlns="http://www.w3.org/2000/svg"><path d="M6 0v1h-.5c-.35 0-.56.1-.78.38L3.31 3.16 1.78 1.38C1.56 1.12 1.34 1 1 1H0v1h1c-.05 0 .01.04.03.03l1.63 1.91L1 6H0v1h1c.35 0 .56-.1.78-.38l1.53-1.91 1.66 1.91c.22.26.44.38.78.38H6v1l2-1.5L6 5v1h-.22c-.01-.01-.05-.04-.06-.03L3.97 3.91 5.5 2H6v1l2-1.5L6 0z"/></svg><view id="reload" viewBox="1432 0 8 8"/><svg width="8" height="8" viewBox="0 0 8 8" id="reload-" x="1432" xmlns="http://www.w3.org/2000/svg"><path d="M4 0C1.8 0 0 1.8 0 4s1.8 4 4 4c1.1 0 2.12-.43 2.84-1.16l-.72-.72c-.54.54-1.29.88-2.13.88-1.66 0-3-1.34-3-3s1.34-3 3-3c.83 0 1.55.36 2.09.91L4.99 3h3V0L6.8 1.19C6.08.47 5.09 0 3.99 0z"/></svg><view id="resize-both" viewBox="1440 0 8 8"/><svg width="8" height="8" viewBox="0 0 8 8" id="resize-both-" x="1440" xmlns="http://www.w3.org/2000/svg"><path d="M4 0l1.66 1.66-4 4L0 4v4h4L2.34 6.34l4-4L8 4V0H4z"/></svg><view id="resize-height" viewBox="1448 0 8 8"/><svg width="8" height="8" viewBox="0 0 8 8" id="resize-height-" x="1448" xmlns="http://www.w3.org/2000/svg"><path d="M3.5 0L1 3h2v2H1l2.5 3L6 5H4V3h2L3.5 0z"/></svg><view id="resize-width" viewBox="1456 0 8 8"/><svg width="8" height="8" viewBox="0 0 8 8" id="resize-width-" x="1456" xmlns="http://www.w3.org/2000/svg"><path d="M3 1L0 3.5 3 6V4h2v2l3-2.5L5 1v2H3V1z"/></svg><view id="rss" viewBox="1464 0 8 8"/><svg width="8" height="8" viewBox="0 0 8 8" id="rss-" x="1464" xmlns="http://www.w3.org/2000/svg"><path d="M1 0v1c3.32 0 6 2.68 6 6h1c0-3.86-3.14-7-7-7zm0 2v1c2.21 0 4 1.79 4 4h1c0-2.76-2.24-5-5-5zm0 2v1c1.11 0 2 .89 2 2h1c0-1.65-1.35-3-3-3zm0 2c-.55 0-1 .45-1 1s.45 1 1 1 1-.45 1-1-.45-1-1-1z"/></svg><view id="rss-alt" viewBox="1472 0 8 8"/><svg width="8" height="8" viewBox="0 0 8 8" id="rss-alt-" x="1472" xmlns="http://www.w3.org/2000/svg"><path d="M0 0v2c3.33 0 6 2.67 6 6h2c0-4.41-3.59-8-8-8zm0 3v2c1.67 0 3 1.33 3 3h2c0-2.75-2.25-5-5-5zm0 3v2h2a2 2 0 0 0-2-2z"/></svg><view id="script" viewBox="1480 0 8 8"/><svg width="8" height="8" viewBox="0 0 8 8" id="script-" x="1480" xmlns="http://www.w3.org/2000/svg"><path d="M3 0c-.55 0-1 .45-1 1v5.5c0 .28-.22.5-.5.5S1 6.78 1 6.5V5H0v2c0 .55.45 1 1 1h5c.55 0 1-.45 1-1V4H3V1.5c0-.28.22-.5.5-.5s.5.22.5.5V3h4V1c0-.55-.45-1-1-1H3z"/></svg><view id="share" viewBox="1488 0 8 8"/><svg width="8" height="8" viewBox="0 0 8 8" id="share-" x="1488" xmlns="http://www.w3.org/2000/svg"><path d="M5 0v2C1 2 0 4.05 0 7c.52-1.98 2-3 4-3h1v2l3-3.16L5 0z"/></svg><view id="share-boxed" viewBox="1496 0 8 8"/><svg width="8" height="8" viewBox="0 0 8 8" id="share-boxed-" x="1496" xmlns="http://www.w3.org/2000/svg"><path d="M.75 0C.34 0 0 .34 0 .75v5.5c0 .41.34.75.75.75h4.5c.41 0 .75-.34.75-.75V5H5v1H1V1h2V0H.75zM6 0v1C3.95 1 2.3 2.54 2.06 4.53 2.27 3.65 3.05 3 4 3h2v1l2-2-2-2z"/></svg><view id="shield" viewBox="1504 0 8 8"/><svg width="8" height="8" viewBox="0 0 8 8" id="shield-" x="1504" xmlns="http://www.w3.org/2000/svg"><path d="M4 0l-.19.09-3.5 1.47-.31.13V2c0 1.66.67 3.12 1.47 4.19.4.53.83.97 1.25 1.28.42.31.83.53 1.28.53.46 0 .86-.22 1.28-.53.42-.31.85-.75 1.25-1.28C7.33 5.12 8 3.66 8 2v-.31l-.31-.13L4.19.09 4 0zm0 1.09V7c-.04 0-.33-.07-.66-.31s-.71-.63-1.06-1.09a6.26 6.26 0 0 1-1.22-3.28L4 1.1z"/></svg><view id="signal" viewBox="1512 0 8 8"/><svg width="8" height="8" viewBox="0 0 8 8" id="signal-" x="1512" xmlns="http://www.w3.org/2000/svg"><path d="M6 0v8h1V0H6zM4 1v7h1V1H4zM2 3v5h1V3H2zM0 5v3h1V5H0z"/></svg><view id="signpost" viewBox="1520 0 8 8"/><svg width="8" height="8" viewBox="0 0 8 8" id="signpost-" x="1520" xmlns="http://www.w3.org/2000/svg"><path d="M3 0v1H1L0 2l1 1h2v5h1V4h2l1-1-1-1H4V0H3z"/></svg><view id="sort-ascending" viewBox="1528 0 8 8"/><svg width="8" height="8" viewBox="0 0 8 8" id="sort-ascending-" x="1528" xmlns="http://www.w3.org/2000/svg"><path d="M2 0v6H0l2.5 2L5 6H3V0H2zm2 0v1h2V0H4zm0 2v1h3V2H4zm0 2v1h4V4H4z"/></svg><view id="sort-descending" viewBox="1536 0 8 8"/><svg width="8" height="8" viewBox="0 0 8 8" id="sort-descending-" x="1536" xmlns="http://www.w3.org/2000/svg"><path d="M2 0v6H0l2.5 2L5 6H3V0H2zm2 0v1h4V0H4zm0 2v1h3V2H4zm0 2v1h2V4H4z"/></svg><view id="spreadsheet" viewBox="1544 0 8 8"/><svg width="8" height="8" viewBox="0 0 8 8" id="spreadsheet-" x="1544" xmlns="http://www.w3.org/2000/svg"><path d="M.75 0C.34 0 0 .34 0 .75v5.5c0 .41.34.75.75.75h6.5c.41 0 .75-.34.75-.75V.75C8 .34 7.66 0 7.25 0H.75zM1 1h1v1H1V1zm2 0h4v1H3V1zM1 3h1v1H1V3zm2 0h4v1H3V3zM1 5h1v1H1V5zm2 0h4v1H3V5z"/></svg><view id="star" viewBox="1552 0 8 8"/><svg width="8" height="8" viewBox="0 0 8 8" id="star-" x="1552" xmlns="http://www.w3.org/2000/svg"><path d="M4 0L3 3H0l2.5 2-1 3L4 6l2.5 2-1-3L8 3H5L4 0z"/></svg><view id="sun" viewBox="1560 0 8 8"/><svg width="8" height="8" viewBox="0 0 8 8" id="sun-" x="1560" xmlns="http://www.w3.org/2000/svg"><path d="M4 0c-.28 0-.5.22-.5.5s.22.5.5.5.5-.22.5-.5S4.28 0 4 0zM1.5 1c-.28 0-.5.22-.5.5s.22.5.5.5.5-.22.5-.5-.22-.5-.5-.5zm5 0c-.28 0-.5.22-.5.5s.22.5.5.5.5-.22.5-.5-.22-.5-.5-.5zM4 2c-1.1 0-2 .9-2 2s.9 2 2 2 2-.9 2-2-.9-2-2-2zM.5 3.5c-.28 0-.5.22-.5.5s.22.5.5.5.5-.22.5-.5-.22-.5-.5-.5zm7 0c-.28 0-.5.22-.5.5s.22.5.5.5.5-.22.5-.5-.22-.5-.5-.5zM1.5 6c-.28 0-.5.22-.5.5s.22.5.5.5.5-.22.5-.5-.22-.5-.5-.5zm5 0c-.28 0-.5.22-.5.5s.22.5.5.5.5-.22.5-.5-.22-.5-.5-.5zM4 7c-.28 0-.5.22-.5.5s.22.5.5.5.5-.22.5-.5S4.28 7 4 7z"/></svg><view id="tablet" viewBox="1568 0 8 8"/><svg width="8" height="8" viewBox="0 0 8 8" id="tablet-" x="1568" xmlns="http://www.w3.org/2000/svg"><path d="M.34 0A.35.35 0 0 0 0 .34v7.31c0 .18.16.34.34.34h6.31c.18 0 .34-.16.34-.34V.34A.35.35 0 0 0 6.65 0H.34zM1 1h5v5H1V1zm2.5 5.5c.38 0 .63.42.44.75s-.68.33-.88 0c-.19-.33.05-.75.44-.75z"/></svg><view id="tag" viewBox="1576 0 8 8"/><svg width="8" height="8" viewBox="0 0 8 8" id="tag-" x="1576" xmlns="http://www.w3.org/2000/svg"><path d="M0 0v3l5 5 3-3-5-5H0zm2 1c.55 0 1 .45 1 1s-.45 1-1 1-1-.45-1-1 .45-1 1-1z"/></svg><view id="tags" viewBox="1584 0 8 8"/><svg width="8" height="8" viewBox="0 0 8 8" id="tags-" x="1584" xmlns="http://www.w3.org/2000/svg"><path d="M0 1v2l3 3 1.5-1.5L5 4 3 2 2 1H0zm3.41 0l3 3-1.19 1.22L6 6l2-2-3-3H3.41zM1.5 2c.28 0 .5.22.5.5s-.22.5-.5.5-.5-.22-.5-.5.22-.5.5-.5z"/></svg><view id="target" viewBox="1592 0 8 8"/><svg width="8" height="8" viewBox="0 0 8 8" id="target-" x="1592" xmlns="http://www.w3.org/2000/svg"><path d="M4 0C1.8 0 0 1.8 0 4s1.8 4 4 4 4-1.8 4-4-1.8-4-4-4zm0 1c1.66 0 3 1.34 3 3S5.66 7 4 7 1 5.66 1 4s1.34-3 3-3zm0 1c-1.1 0-2 .9-2 2s.9 2 2 2 2-.9 2-2-.9-2-2-2zm0 1c.56 0 1 .44 1 1s-.44 1-1 1-1-.44-1-1 .44-1 1-1z"/></svg><view id="task" viewBox="1600 0 8 8"/><svg width="8" height="8" viewBox="0 0 8 8" id="task-" x="1600" xmlns="http://www.w3.org/2000/svg"><path d="M0 0v7h7V3.41l-1 1V6H1V1h3.59l1-1H0zm7 0L4 3 3 2 2 3l2 2 4-4-1-1z"/></svg><view id="terminal" viewBox="1608 0 8 8"/><svg width="8" height="8" viewBox="0 0 8 8" id="terminal-" x="1608" xmlns="http://www.w3.org/2000/svg"><path d="M.09 0C.03 0 0 .04 0 .09V7.9c0 .05.04.09.09.09H7.9c.05 0 .09-.04.09-.09V.09C7.99.03 7.95 0 7.9 0H.09zM1.5.78L3.22 2.5 1.5 4.22.78 3.5l1-1-1-1L1.5.78zM4 3h3v1H4V3z"/></svg><view id="text" viewBox="1616 0 8 8"/><svg width="8" height="8" viewBox="0 0 8 8" id="text-" x="1616" xmlns="http://www.w3.org/2000/svg"><path d="M0 0v2h.5c0-.55.45-1 1-1H3v5.5c0 .28-.22.5-.5.5H2v1h4V7h-.5c-.28 0-.5-.22-.5-.5V1h1.5c.55 0 1 .45 1 1H8V0H0z"/></svg><view id="thumb-down" viewBox="1624 0 8 8"/><svg width="8" height="8" viewBox="0 0 8 8" id="thumb-down-" x="1624" xmlns="http://www.w3.org/2000/svg"><path d="M0 0v4h1V0H0zm2 0v4c.28 0 .53.09.72.28.19.19 1.15 2.12 1.28 2.38.13.26.39.39.66.31.26-.08.4-.36.31-.63-.08-.26-.47-1.59-.47-1.84S4.72 4 5 4h1.5c.28 0 .5-.22.5-.5S5.97.31 5.97.31A.518.518 0 0 0 5.5 0H2z"/></svg><view id="thumb-up" viewBox="1632 0 8 8"/><svg width="8" height="8" viewBox="0 0 8 8" id="thumb-up-" x="1632" xmlns="http://www.w3.org/2000/svg"><path d="M4.47 0C4.28.02 4.1.15 4 .34 3.87.6 2.91 2.53 2.72 2.72 2.53 2.91 2.28 3 2 3v4h3.5c.21 0 .39-.13.47-.31C5.97 6.69 7 3.78 7 3.5c0-.28-.22-.5-.5-.5H5c-.28 0-.5-.25-.5-.5S4.89.92 4.97.66a.504.504 0 0 0-.31-.63C4.59.01 4.54-.01 4.47 0zM0 3v4h1V3H0z"/></svg><view id="timer" viewBox="1640 0 8 8"/><svg width="8" height="8" viewBox="0 0 8 8" id="timer-" x="1640" xmlns="http://www.w3.org/2000/svg"><path d="M2 0v1h1v.03A3.503 3.503 0 0 0 3.5 8C5.43 8 7 6.43 7 4.5c0-.45-.1-.87-.25-1.25l-.91.38c.11.29.16.57.16.88 0 1.39-1.11 2.5-2.5 2.5S1 5.9 1 4.51s1.11-2.5 2.5-2.5c.3 0 .59.05.88.16l.34-.94c-.23-.08-.47-.12-.72-.16v-.06h1v-1H2zm5 1.16s-3.65 2.81-3.84 3c-.19.2-.19.49 0 .69.19.2.49.2.69 0 .2-.2 3.16-3.69 3.16-3.69z"/></svg><view id="transfer" viewBox="1648 0 8 8"/><svg width="8" height="8" viewBox="0 0 8 8" id="transfer-" x="1648" xmlns="http://www.w3.org/2000/svg"><path d="M6 0v1H0v1h6v1l2-1.5L6 0zM2 4L0 5.5 2 7V6h6V5H2V4z"/></svg><view id="trash" viewBox="1656 0 8 8"/><svg width="8" height="8" viewBox="0 0 8 8" id="trash-" x="1656" xmlns="http://www.w3.org/2000/svg"><path d="M3 0c-.55 0-1 .45-1 1H1c-.55 0-1 .45-1 1h7c0-.55-.45-1-1-1H5c0-.55-.45-1-1-1H3zM1 3v4.81c0 .11.08.19.19.19h4.63c.11 0 .19-.08.19-.19V3h-1v3.5c0 .28-.22.5-.5.5s-.5-.22-.5-.5V3h-1v3.5c0 .28-.22.5-.5.5s-.5-.22-.5-.5V3h-1z"/></svg><view id="underline" viewBox="1664 0 8 8"/><svg width="8" height="8" viewBox="0 0 8 8" id="underline-" x="1664" xmlns="http://www.w3.org/2000/svg"><path d="M1 0v4c0 1.1 1.12 2 2.5 2H4c1.1 0 2-.9 2-2V0H5v4c0 .55-.45 1-1 1s-1-.45-1-1V0H1zM0 7v1h7V7H0z"/></svg><view id="vertical-align-bottom" viewBox="1672 0 8 8"/><svg width="8" height="8" viewBox="0 0 8 8" id="vertical-align-bottom-" x="1672" xmlns="http://www.w3.org/2000/svg"><path d="M.09 0C.03 0 0 .04 0 .09V4.9c0 .05.04.09.09.09H1.9c.05 0 .09-.04.09-.09V.09C1.99.03 1.95 0 1.9 0H.09zm6 0A.09.09 0 0 0 6 .09V4.9c0 .05.04.09.09.09H7.9c.05 0 .09-.04.09-.09V.09C7.99.03 7.95 0 7.9 0H6.09zm-3 2c-.06 0-.09.04-.09.09V4.9c0 .05.04.09.09.09H4.9c.05 0 .09-.04.09-.09V2.09c0-.06-.04-.09-.09-.09H3.09zM0 6v1h8V6H0z"/></svg><view id="vertical-align-center" viewBox="1680 0 8 8"/><svg width="8" height="8" viewBox="0 0 8 8" id="vertical-align-center-" x="1680" xmlns="http://www.w3.org/2000/svg"><path d="M.09 0C.03 0 0 .04 0 .09V2h2V.09C2 .03 1.96 0 1.91 0H.1zm6 0A.09.09 0 0 0 6 .09V2h2V.09C8 .03 7.96 0 7.91 0H6.1zm-3 1c-.06 0-.09.04-.09.09V2h2v-.91A.09.09 0 0 0 4.91 1H3.1zM0 3v1h8V3H0zm0 2v1.91c0 .05.04.09.09.09H1.9c.05 0 .09-.04.09-.09V5h-2zm3 0v.91c0 .05.04.09.09.09H4.9c.05 0 .09-.04.09-.09V5h-2zm3 0v1.91c0 .05.04.09.09.09H7.9c.05 0 .09-.04.09-.09V5h-2z"/></svg><view id="vertical-align-top" viewBox="1688 0 8 8"/><svg width="8" height="8" viewBox="0 0 8 8" id="vertical-align-top-" x="1688" xmlns="http://www.w3.org/2000/svg"><path d="M0 0v1h8V0H0zm.09 2C.03 2 0 2.04 0 2.09V6.9c0 .05.04.09.09.09H1.9c.05 0 .09-.04.09-.09V2.09c0-.06-.04-.09-.09-.09H.09zm3 0c-.06 0-.09.04-.09.09V4.9c0 .05.04.09.09.09H4.9c.05 0 .09-.04.09-.09V2.09c0-.06-.04-.09-.09-.09H3.09zm3 0a.09.09 0 0 0-.09.09V6.9c0 .05.04.09.09.09H7.9c.05 0 .09-.04.09-.09V2.09c0-.06-.04-.09-.09-.09H6.09z"/></svg><view id="video" viewBox="1696 0 8 8"/><svg width="8" height="8" viewBox="0 0 8 8" id="video-" x="1696" xmlns="http://www.w3.org/2000/svg"><path d="M.5 1c-.28 0-.5.23-.5.5v4c0 .28.23.5.5.5h5c.28 0 .5-.22.5-.5V4l1 1h1V2H7L6 3V1.5c0-.28-.22-.5-.5-.5h-5z"/></svg><view id="volume-high" viewBox="1704 0 8 8"/><svg width="8" height="8" viewBox="0 0 8 8" id="volume-high-" x="1704" xmlns="http://www.w3.org/2000/svg"><path d="M3.34 0L2 2H0v4h2l1.34 2H4V0h-.66zM5 1v1c.17 0 .34.02.5.06.86.22 1.5 1 1.5 1.94a1.987 1.987 0 0 1-2 2v1c.25 0 .48-.04.72-.09h.03C7.05 6.58 8 5.4 8 4c0-1.4-.95-2.58-2.25-2.91C5.52 1.03 5.26 1 5 1zm0 2v2c.09 0 .18-.01.25-.03.43-.11.75-.51.75-.97a.997.997 0 0 0-1-1z"/></svg><view id="volume-low" viewBox="1712 0 8 8"/><svg width="8" height="8" viewBox="0 0 8 8" id="volume-low-" x="1712" xmlns="http://www.w3.org/2000/svg"><path d="M4.34 0L3 2H1v4h2l1.34 2H5V0h-.66zM6 3v2c.09 0 .18-.01.25-.03.43-.11.75-.51.75-.97a.997.997 0 0 0-1-1z"/></svg><view id="volume-off" viewBox="1720 0 8 8"/><svg width="8" height="8" viewBox="0 0 8 8" id="volume-off-" x="1720" xmlns="http://www.w3.org/2000/svg"><path d="M5.34 0L4 2H2v4h2l1.34 2H6V0h-.66z"/></svg><view id="warning" viewBox="1728 0 8 8"/><svg width="8" height="8" viewBox="0 0 8 8" id="warning-" x="1728" xmlns="http://www.w3.org/2000/svg"><path d="M3.09 0c-.06 0-.1.04-.13.09L.02 6.9c-.02.05-.03.13-.03.19v.81c0 .05.04.09.09.09h6.81c.05 0 .09-.04.09-.09v-.81c0-.05-.01-.14-.03-.19L4.01.09A.142.142 0 0 0 3.88 0h-.81zM3 3h1v2H3V3zm0 3h1v1H3V6z"/></svg><view id="wifi" viewBox="1736 0 8 8"/><svg width="8" height="8" viewBox="0 0 8 8" id="wifi-" x="1736" xmlns="http://www.w3.org/2000/svg"><path d="M3.75 0C2.37 0 1.09.4 0 1.09l.53.81c.93-.59 2.03-.91 3.22-.91 1.2 0 2.32.31 3.25.91l.53-.81C6.44.39 5.13 0 3.75 0zm0 3c-.79 0-1.5.23-2.13.63l.53.84c.47-.3 1-.47 1.59-.47.59 0 1.16.17 1.63.47l.53-.84C5.28 3.24 4.53 3 3.74 3zm0 3c-.55 0-1 .45-1 1s.45 1 1 1 1-.45 1-1-.45-1-1-1z"/></svg><view id="wrench" viewBox="1744 0 8 8"/><svg width="8" height="8" viewBox="0 0 8 8" id="wrench-" x="1744" xmlns="http://www.w3.org/2000/svg"><path d="M5.5 0A2.5 2.5 0 0 0 3 2.5c0 .32.08.62.19.91L.28 6.29c-.39.39-.39 1.05 0 1.44.2.2.46.28.72.28.26 0 .52-.09.72-.28L4.6 4.82c.28.11.58.19.91.19a2.5 2.5 0 0 0 2.5-2.5c0-.16 0-.32-.03-.47l-.97.97h-2v-2l.97-.97C5.83.01 5.67.01 5.51.01zM1 6.5c.28 0 .5.22.5.5s-.22.5-.5.5S.5 7.28.5 7s.22-.5.5-.5z"/></svg><view id="x" viewBox="1752 0 8 8"/><svg width="8" height="8" viewBox="0 0 8 8" id="x-" x="1752" xmlns="http://www.w3.org/2000/svg"><path d="M1.41 0L0 1.41l.72.72L2.5 3.94.72 5.72 0 6.41l1.41 1.44.72-.72 1.81-1.81 1.78 1.81.69.72 1.44-1.44-.72-.69-1.81-1.78 1.81-1.81.72-.72L6.41 0l-.69.72L3.94 2.5 2.13.72 1.41 0z"/></svg><view id="yen" viewBox="1760 0 8 8"/><svg width="8" height="8" viewBox="0 0 8 8" id="yen-" x="1760" xmlns="http://www.w3.org/2000/svg"><path d="M0 0l2.25 3H0v1h3v1H0v1h3v2h1V6h3V5H4V4h3V3H4.75L7 0H6L3.69 3h-.38L1 0H0z"/></svg><view id="zoom-in" viewBox="1768 0 8 8"/><svg width="8" height="8" viewBox="0 0 8 8" id="zoom-in-" x="1768" xmlns="http://www.w3.org/2000/svg"><path d="M3.5 0C1.57 0 0 1.57 0 3.5S1.57 7 3.5 7c.61 0 1.19-.16 1.69-.44a1 1 0 0 0 .09.13l1 1.03a1.02 1.02 0 1 0 1.44-1.44l-1.03-1a1 1 0 0 0-.13-.09c.27-.5.44-1.08.44-1.69C7 1.57 5.43 0 3.5 0zm0 1C4.89 1 6 2.11 6 3.5c0 .59-.2 1.14-.53 1.56l-.03.03a1 1 0 0 0-.06.03 1 1 0 0 0-.25.28c-.44.37-1.01.59-1.63.59-1.39 0-2.5-1.11-2.5-2.5S2.11.99 3.5.99zM3 2v1H2v1h1v1h1V4h1V3H4V2H3z"/></svg><view id="zoom-out" viewBox="1776 0 8 8"/><svg width="8" height="8" viewBox="0 0 8 8" id="zoom-out-" x="1776" xmlns="http://www.w3.org/2000/svg"><path d="M3.5 0C1.57 0 0 1.57 0 3.5S1.57 7 3.5 7c.61 0 1.19-.16 1.69-.44a1 1 0 0 0 .09.13l1 1.03a1.02 1.02 0 1 0 1.44-1.44l-1.03-1a1 1 0 0 0-.13-.09c.27-.5.44-1.08.44-1.69C7 1.57 5.43 0 3.5 0zm0 1C4.89 1 6 2.11 6 3.5c0 .59-.2 1.14-.53 1.56l-.03.03a1 1 0 0 0-.06.03 1 1 0 0 0-.25.28c-.44.37-1.01.59-1.63.59-1.39 0-2.5-1.11-2.5-2.5S2.11.99 3.5.99zM2 3v1h3V3H2z"/></svg></svg>